<?xml version="1.0" encoding="utf-8" ?>
<svg baseProfile="tiny" height="100%" version="1.2" width="100%" xmlns="http://www.w3.org/2000/svg" xmlns:ev="http://www.w3.org/2001/xml-events" xmlns:xlink="http://www.w3.org/1999/xlink"><defs /><line stroke="rgb(255,0,0)" stroke-width="1" x1="17.5" x2="40.0" y1="33.0" y2="22.5" /><line stroke="rgb(255,0,0)" stroke-width="1" x1="17.5" x2="40.0" y1="27.0" y2="22.5" /><line stroke="rgb(255,0,0)" stroke-width="1" x1="17.5" x2="15.7366" y1="27.0" y2="27.5729" /><line stroke="rgb(255,0,0)" stroke-width="1" x1="15.7366" x2="14.6468" y1="27.5729" y2="29.0729" /><line stroke="rgb(255,0,0)" stroke-width="1" x1="14.6468" x2="14.6468" y1="29.0729" y2="30.9271" /><line stroke="rgb(255,0,0)" stroke-width="1" x1="14.6468" x2="15.7366" y1="30.9271" y2="32.4271" /><line stroke="rgb(255,0,0)" stroke-width="1" x1="15.7366" x2="17.5" y1="32.4271" y2="33.0" /><line stroke="rgb(255,0,0)" stroke-width="1" x1="22.5" x2="24.2634" y1="33.0" y2="32.4271" /><line stroke="rgb(255,0,0)" stroke-width="1" x1="24.2634" x2="25.3532" y1="32.4271" y2="30.9271" /><line stroke="rgb(255,0,0)" stroke-width="1" x1="25.3532" x2="25.3532" y1="30.9271" y2="29.0729" /><line stroke="rgb(255,0,0)" stroke-width="1" x1="25.3532" x2="24.2634" y1="29.0729" y2="27.5729" /><line stroke="rgb(255,0,0)" stroke-width="1" x1="24.2634" x2="22.5" y1="27.5729" y2="27.0" /><line stroke="rgb(255,0,0)" stroke-width="1" x1="37.5" x2="40.0" y1="33.0" y2="42.5" /><line stroke="rgb(255,0,0)" stroke-width="1" x1="37.5" x2="40.0" y1="27.0" y2="42.5" /><line stroke="rgb(255,0,0)" stroke-width="1" x1="37.5" x2="35.7366" y1="27.0" y2="27.5729" /><line stroke="rgb(255,0,0)" stroke-width="1" x1="35.7366" x2="34.6468" y1="27.5729" y2="29.0729" /><line stroke="rgb(255,0,0)" stroke-width="1" x1="34.6468" x2="34.6468" y1="29.0729" y2="30.9271" /><line stroke="rgb(255,0,0)" stroke-width="1" x1="34.6468" x2="35.7366" y1="30.9271" y2="32.4271" /><line stroke="rgb(255,0,0)" stroke-width="1" x1="35.7366" x2="37.5" y1="32.4271" y2="33.0" /><line stroke="rgb(255,0,0)" stroke-width="1" x1="42.5" x2="44.2634" y1="33.0" y2="32.4271" /><line stroke="rgb(255,0,0)" stroke-width="1" x1="44.2634" x2="45.3532" y1="32.4271" y2="30.9271" /><line stroke="rgb(255,0,0)" stroke-width="1" x1="45.3532" x2="45.3532" y1="30.9271" y2="29.0729" /><line stroke="rgb(255,0,0)" stroke-width="1" x1="45.3532" x2="44.2634" y1="29.0729" y2="27.5729" /><line stroke="rgb(255,0,0)" stroke-width="1" x1="44.2634" x2="42.5" y1="27.5729" y2="27.0" /><line stroke="rgb(255,0,0)" stroke-width="1" x1="57.5" x2="40.0" y1="33.0" y2="62.5" /><line stroke="rgb(255,0,0)" stroke-width="1" x1="57.5" x2="40.0" y1="27.0" y2="62.5" /><line stroke="rgb(255,0,0)" stroke-width="1" x1="57.5" x2="55.7366" y1="27.0" y2="27.5729" /><line stroke="rgb(255,0,0)" stroke-width="1" x1="55.7366" x2="54.6468" y1="27.5729" y2="29.0729" /><line stroke="rgb(255,0,0)" stroke-width="1" x1="54.6468" x2="54.6468" y1="29.0729" y2="30.9271" /><line stroke="rgb(255,0,0)" stroke-width="1" x1="54.6468" x2="55.7366" y1="30.9271" y2="32.4271" /><line stroke="rgb(255,0,0)" stroke-width="1" x1="55.7366" x2="57.5" y1="32.4271" y2="33.0" /><line stroke="rgb(255,0,0)" stroke-width="1" x1="62.5" x2="64.2634" y1="33.0" y2="32.4271" /><line stroke="rgb(255,0,0)" stroke-width="1" x1="64.2634" x2="65.3532" y1="32.4271" y2="30.9271" /><line stroke="rgb(255,0,0)" stroke-width="1" x1="65.3532" x2="65.3532" y1="30.9271" y2="29.0729" /><line stroke="rgb(255,0,0)" stroke-width="1" x1="65.3532" x2="64.2634" y1="29.0729" y2="27.5729" /><line stroke="rgb(255,0,0)" stroke-width="1" x1="64.2634" x2="62.5" y1="27.5729" y2="27.0" /><line stroke="rgb(255,0,0)" stroke-width="1" x1="27.5" x2="32.5" y1="43.0" y2="43.0" /><line stroke="rgb(255,0,0)" stroke-width="1" x1="27.5" x2="32.5" y1="37.0" y2="37.0" /><line stroke="rgb(255,0,0)" stroke-width="1" x1="27.5" x2="25.7366" y1="37.0" y2="37.5729" /><line stroke="rgb(255,0,0)" stroke-width="1" x1="25.7366" x2="24.6468" y1="37.5729" y2="39.0729" /><line stroke="rgb(255,0,0)" stroke-width="1" x1="24.6468" x2="24.6468" y1="39.0729" y2="40.9271" /><line stroke="rgb(255,0,0)" stroke-width="1" x1="24.6468" x2="25.7366" y1="40.9271" y2="42.4271" /><line stroke="rgb(255,0,0)" stroke-width="1" x1="25.7366" x2="27.5" y1="42.4271" y2="43.0" /><line stroke="rgb(255,0,0)" stroke-width="1" x1="32.5" x2="34.2634" y1="43.0" y2="42.4271" /><line stroke="rgb(255,0,0)" stroke-width="1" x1="34.2634" x2="35.3532" y1="42.4271" y2="40.9271" /><line stroke="rgb(255,0,0)" stroke-width="1" x1="35.3532" x2="35.3532" y1="40.9271" y2="39.0729" /><line stroke="rgb(255,0,0)" stroke-width="1" x1="35.3532" x2="34.2634" y1="39.0729" y2="37.5729" /><line stroke="rgb(255,0,0)" stroke-width="1" x1="34.2634" x2="32.5" y1="37.5729" y2="37.0" /><line stroke="rgb(255,0,0)" stroke-width="1" x1="47.5" x2="52.5" y1="43.0" y2="43.0" /><line stroke="rgb(255,0,0)" stroke-width="1" x1="47.5" x2="52.5" y1="37.0" y2="37.0" /><line stroke="rgb(255,0,0)" stroke-width="1" x1="47.5" x2="45.7366" y1="37.0" y2="37.5729" /><line stroke="rgb(255,0,0)" stroke-width="1" x1="45.7366" x2="44.6468" y1="37.5729" y2="39.0729" /><line stroke="rgb(255,0,0)" stroke-width="1" x1="44.6468" x2="44.6468" y1="39.0729" y2="40.9271" /><line stroke="rgb(255,0,0)" stroke-width="1" x1="44.6468" x2="45.7366" y1="40.9271" y2="42.4271" /><line stroke="rgb(255,0,0)" stroke-width="1" x1="45.7366" x2="47.5" y1="42.4271" y2="43.0" /><line stroke="rgb(255,0,0)" stroke-width="1" x1="52.5" x2="54.2634" y1="43.0" y2="42.4271" /><line stroke="rgb(255,0,0)" stroke-width="1" x1="54.2634" x2="55.3532" y1="42.4271" y2="40.9271" /><line stroke="rgb(255,0,0)" stroke-width="1" x1="55.3532" x2="55.3532" y1="40.9271" y2="39.0729" /><line stroke="rgb(255,0,0)" stroke-width="1" x1="55.3532" x2="54.2634" y1="39.0729" y2="37.5729" /><line stroke="rgb(255,0,0)" stroke-width="1" x1="54.2634" x2="52.5" y1="37.5729" y2="37.0" /><line stroke="rgb(255,0,0)" stroke-width="1" x1="17.5" x2="40.0" y1="53.0" y2="22.5" /><line stroke="rgb(255,0,0)" stroke-width="1" x1="17.5" x2="40.0" y1="47.0" y2="22.5" /><line stroke="rgb(255,0,0)" stroke-width="1" x1="17.5" x2="15.7366" y1="47.0" y2="47.5729" /><line stroke="rgb(255,0,0)" stroke-width="1" x1="15.7366" x2="14.6468" y1="47.5729" y2="49.0729" /><line stroke="rgb(255,0,0)" stroke-width="1" x1="14.6468" x2="14.6468" y1="49.0729" y2="50.9271" /><line stroke="rgb(255,0,0)" stroke-width="1" x1="14.6468" x2="15.7366" y1="50.9271" y2="52.4271" /><line stroke="rgb(255,0,0)" stroke-width="1" x1="15.7366" x2="17.5" y1="52.4271" y2="53.0" /><line stroke="rgb(255,0,0)" stroke-width="1" x1="22.5" x2="24.2634" y1="53.0" y2="52.4271" /><line stroke="rgb(255,0,0)" stroke-width="1" x1="24.2634" x2="25.3532" y1="52.4271" y2="50.9271" /><line stroke="rgb(255,0,0)" stroke-width="1" x1="25.3532" x2="25.3532" y1="50.9271" y2="49.0729" /><line stroke="rgb(255,0,0)" stroke-width="1" x1="25.3532" x2="24.2634" y1="49.0729" y2="47.5729" /><line stroke="rgb(255,0,0)" stroke-width="1" x1="24.2634" x2="22.5" y1="47.5729" y2="47.0" /><line stroke="rgb(255,0,0)" stroke-width="1" x1="37.5" x2="40.0" y1="53.0" y2="42.5" /><line stroke="rgb(255,0,0)" stroke-width="1" x1="37.5" x2="40.0" y1="47.0" y2="42.5" /><line stroke="rgb(255,0,0)" stroke-width="1" x1="37.5" x2="35.7366" y1="47.0" y2="47.5729" /><line stroke="rgb(255,0,0)" stroke-width="1" x1="35.7366" x2="34.6468" y1="47.5729" y2="49.0729" /><line stroke="rgb(255,0,0)" stroke-width="1" x1="34.6468" x2="34.6468" y1="49.0729" y2="50.9271" /><line stroke="rgb(255,0,0)" stroke-width="1" x1="34.6468" x2="35.7366" y1="50.9271" y2="52.4271" /><line stroke="rgb(255,0,0)" stroke-width="1" x1="35.7366" x2="37.5" y1="52.4271" y2="53.0" /><line stroke="rgb(255,0,0)" stroke-width="1" x1="42.5" x2="44.2634" y1="53.0" y2="52.4271" /><line stroke="rgb(255,0,0)" stroke-width="1" x1="44.2634" x2="45.3532" y1="52.4271" y2="50.9271" /><line stroke="rgb(255,0,0)" stroke-width="1" x1="45.3532" x2="45.3532" y1="50.9271" y2="49.0729" /><line stroke="rgb(255,0,0)" stroke-width="1" x1="45.3532" x2="44.2634" y1="49.0729" y2="47.5729" /><line stroke="rgb(255,0,0)" stroke-width="1" x1="44.2634" x2="42.5" y1="47.5729" y2="47.0" /><line stroke="rgb(255,0,0)" stroke-width="1" x1="57.5" x2="40.0" y1="53.0" y2="62.5" /><line stroke="rgb(255,0,0)" stroke-width="1" x1="57.5" x2="40.0" y1="47.0" y2="62.5" /><line stroke="rgb(255,0,0)" stroke-width="1" x1="57.5" x2="55.7366" y1="47.0" y2="47.5729" /><line stroke="rgb(255,0,0)" stroke-width="1" x1="55.7366" x2="54.6468" y1="47.5729" y2="49.0729" /><line stroke="rgb(255,0,0)" stroke-width="1" x1="54.6468" x2="54.6468" y1="49.0729" y2="50.9271" /><line stroke="rgb(255,0,0)" stroke-width="1" x1="54.6468" x2="55.7366" y1="50.9271" y2="52.4271" /><line stroke="rgb(255,0,0)" stroke-width="1" x1="55.7366" x2="57.5" y1="52.4271" y2="53.0" /><line stroke="rgb(255,0,0)" stroke-width="1" x1="62.5" x2="64.2634" y1="53.0" y2="52.4271" /><line stroke="rgb(255,0,0)" stroke-width="1" x1="64.2634" x2="65.3532" y1="52.4271" y2="50.9271" /><line stroke="rgb(255,0,0)" stroke-width="1" x1="65.3532" x2="65.3532" y1="50.9271" y2="49.0729" /><line stroke="rgb(255,0,0)" stroke-width="1" x1="65.3532" x2="64.2634" y1="49.0729" y2="47.5729" /><line stroke="rgb(255,0,0)" stroke-width="1" x1="64.2634" x2="62.5" y1="47.5729" y2="47.0" /><line stroke="rgb(255,0,0)" stroke-width="1" x1="23.0" x2="23.0" y1="17.5" y2="40.0" /><line stroke="rgb(255,0,0)" stroke-width="1" x1="17.0" x2="17.0" y1="17.5" y2="40.0" /><line stroke="rgb(255,0,0)" stroke-width="1" x1="17.0" x2="17.5729" y1="17.5" y2="15.7366" /><line stroke="rgb(255,0,0)" stroke-width="1" x1="17.5729" x2="19.0729" y1="15.7366" y2="14.6468" /><line stroke="rgb(255,0,0)" stroke-width="1" x1="19.0729" x2="20.9271" y1="14.6468" y2="14.6468" /><line stroke="rgb(255,0,0)" stroke-width="1" x1="20.9271" x2="22.4271" y1="14.6468" y2="15.7366" /><line stroke="rgb(255,0,0)" stroke-width="1" x1="22.4271" x2="23.0" y1="15.7366" y2="17.5" /><line stroke="rgb(255,0,0)" stroke-width="1" x1="17.0" x2="17.5729" y1="40.0" y2="41.7634" /><line stroke="rgb(255,0,0)" stroke-width="1" x1="17.5729" x2="19.0729" y1="41.7634" y2="42.8532" /><line stroke="rgb(255,0,0)" stroke-width="1" x1="19.0729" x2="20.9271" y1="42.8532" y2="42.8532" /><line stroke="rgb(255,0,0)" stroke-width="1" x1="20.9271" x2="22.4271" y1="42.8532" y2="41.7634" /><line stroke="rgb(255,0,0)" stroke-width="1" x1="22.4271" x2="23.0" y1="41.7634" y2="40.0" /><line stroke="rgb(255,0,0)" stroke-width="1" x1="23.0" x2="23.0" y1="37.5" y2="40.0" /><line stroke="rgb(255,0,0)" stroke-width="1" x1="17.0" x2="17.0" y1="37.5" y2="40.0" /><line stroke="rgb(255,0,0)" stroke-width="1" x1="17.0" x2="17.5729" y1="37.5" y2="35.7366" /><line stroke="rgb(255,0,0)" stroke-width="1" x1="17.5729" x2="19.0729" y1="35.7366" y2="34.6468" /><line stroke="rgb(255,0,0)" stroke-width="1" x1="19.0729" x2="20.9271" y1="34.6468" y2="34.6468" /><line stroke="rgb(255,0,0)" stroke-width="1" x1="20.9271" x2="22.4271" y1="34.6468" y2="35.7366" /><line stroke="rgb(255,0,0)" stroke-width="1" x1="22.4271" x2="23.0" y1="35.7366" y2="37.5" /><line stroke="rgb(255,0,0)" stroke-width="1" x1="17.0" x2="17.5729" y1="40.0" y2="41.7634" /><line stroke="rgb(255,0,0)" stroke-width="1" x1="17.5729" x2="19.0729" y1="41.7634" y2="42.8532" /><line stroke="rgb(255,0,0)" stroke-width="1" x1="19.0729" x2="20.9271" y1="42.8532" y2="42.8532" /><line stroke="rgb(255,0,0)" stroke-width="1" x1="20.9271" x2="22.4271" y1="42.8532" y2="41.7634" /><line stroke="rgb(255,0,0)" stroke-width="1" x1="22.4271" x2="23.0" y1="41.7634" y2="40.0" /><line stroke="rgb(255,0,0)" stroke-width="1" x1="23.0" x2="23.0" y1="57.5" y2="40.0" /><line stroke="rgb(255,0,0)" stroke-width="1" x1="17.0" x2="17.0" y1="57.5" y2="40.0" /><line stroke="rgb(255,0,0)" stroke-width="1" x1="17.0" x2="17.5729" y1="57.5" y2="55.7366" /><line stroke="rgb(255,0,0)" stroke-width="1" x1="17.5729" x2="19.0729" y1="55.7366" y2="54.6468" /><line stroke="rgb(255,0,0)" stroke-width="1" x1="19.0729" x2="20.9271" y1="54.6468" y2="54.6468" /><line stroke="rgb(255,0,0)" stroke-width="1" x1="20.9271" x2="22.4271" y1="54.6468" y2="55.7366" /><line stroke="rgb(255,0,0)" stroke-width="1" x1="22.4271" x2="23.0" y1="55.7366" y2="57.5" /><line stroke="rgb(255,0,0)" stroke-width="1" x1="17.0" x2="17.5729" y1="40.0" y2="41.7634" /><line stroke="rgb(255,0,0)" stroke-width="1" x1="17.5729" x2="19.0729" y1="41.7634" y2="42.8532" /><line stroke="rgb(255,0,0)" stroke-width="1" x1="19.0729" x2="20.9271" y1="42.8532" y2="42.8532" /><line stroke="rgb(255,0,0)" stroke-width="1" x1="20.9271" x2="22.4271" y1="42.8532" y2="41.7634" /><line stroke="rgb(255,0,0)" stroke-width="1" x1="22.4271" x2="23.0" y1="41.7634" y2="40.0" /><line stroke="rgb(255,0,0)" stroke-width="1" x1="33.0" x2="33.0" y1="27.5" y2="32.5" /><line stroke="rgb(255,0,0)" stroke-width="1" x1="27.0" x2="27.0" y1="27.5" y2="32.5" /><line stroke="rgb(255,0,0)" stroke-width="1" x1="27.0" x2="27.5729" y1="27.5" y2="25.7366" /><line stroke="rgb(255,0,0)" stroke-width="1" x1="27.5729" x2="29.0729" y1="25.7366" y2="24.6468" /><line stroke="rgb(255,0,0)" stroke-width="1" x1="29.0729" x2="30.9271" y1="24.6468" y2="24.6468" /><line stroke="rgb(255,0,0)" stroke-width="1" x1="30.9271" x2="32.4271" y1="24.6468" y2="25.7366" /><line stroke="rgb(255,0,0)" stroke-width="1" x1="32.4271" x2="33.0" y1="25.7366" y2="27.5" /><line stroke="rgb(255,0,0)" stroke-width="1" x1="27.0" x2="27.5729" y1="32.5" y2="34.2634" /><line stroke="rgb(255,0,0)" stroke-width="1" x1="27.5729" x2="29.0729" y1="34.2634" y2="35.3532" /><line stroke="rgb(255,0,0)" stroke-width="1" x1="29.0729" x2="30.9271" y1="35.3532" y2="35.3532" /><line stroke="rgb(255,0,0)" stroke-width="1" x1="30.9271" x2="32.4271" y1="35.3532" y2="34.2634" /><line stroke="rgb(255,0,0)" stroke-width="1" x1="32.4271" x2="33.0" y1="34.2634" y2="32.5" /><line stroke="rgb(255,0,0)" stroke-width="1" x1="33.0" x2="33.0" y1="47.5" y2="52.5" /><line stroke="rgb(255,0,0)" stroke-width="1" x1="27.0" x2="27.0" y1="47.5" y2="52.5" /><line stroke="rgb(255,0,0)" stroke-width="1" x1="27.0" x2="27.5729" y1="47.5" y2="45.7366" /><line stroke="rgb(255,0,0)" stroke-width="1" x1="27.5729" x2="29.0729" y1="45.7366" y2="44.6468" /><line stroke="rgb(255,0,0)" stroke-width="1" x1="29.0729" x2="30.9271" y1="44.6468" y2="44.6468" /><line stroke="rgb(255,0,0)" stroke-width="1" x1="30.9271" x2="32.4271" y1="44.6468" y2="45.7366" /><line stroke="rgb(255,0,0)" stroke-width="1" x1="32.4271" x2="33.0" y1="45.7366" y2="47.5" /><line stroke="rgb(255,0,0)" stroke-width="1" x1="27.0" x2="27.5729" y1="52.5" y2="54.2634" /><line stroke="rgb(255,0,0)" stroke-width="1" x1="27.5729" x2="29.0729" y1="54.2634" y2="55.3532" /><line stroke="rgb(255,0,0)" stroke-width="1" x1="29.0729" x2="30.9271" y1="55.3532" y2="55.3532" /><line stroke="rgb(255,0,0)" stroke-width="1" x1="30.9271" x2="32.4271" y1="55.3532" y2="54.2634" /><line stroke="rgb(255,0,0)" stroke-width="1" x1="32.4271" x2="33.0" y1="54.2634" y2="52.5" /><line stroke="rgb(255,0,0)" stroke-width="1" x1="43.0" x2="43.0" y1="17.5" y2="40.0" /><line stroke="rgb(255,0,0)" stroke-width="1" x1="37.0" x2="37.0" y1="17.5" y2="40.0" /><line stroke="rgb(255,0,0)" stroke-width="1" x1="37.0" x2="37.5729" y1="17.5" y2="15.7366" /><line stroke="rgb(255,0,0)" stroke-width="1" x1="37.5729" x2="39.0729" y1="15.7366" y2="14.6468" /><line stroke="rgb(255,0,0)" stroke-width="1" x1="39.0729" x2="40.9271" y1="14.6468" y2="14.6468" /><line stroke="rgb(255,0,0)" stroke-width="1" x1="40.9271" x2="42.4271" y1="14.6468" y2="15.7366" /><line stroke="rgb(255,0,0)" stroke-width="1" x1="42.4271" x2="43.0" y1="15.7366" y2="17.5" /><line stroke="rgb(255,0,0)" stroke-width="1" x1="37.0" x2="37.5729" y1="40.0" y2="41.7634" /><line stroke="rgb(255,0,0)" stroke-width="1" x1="37.5729" x2="39.0729" y1="41.7634" y2="42.8532" /><line stroke="rgb(255,0,0)" stroke-width="1" x1="39.0729" x2="40.9271" y1="42.8532" y2="42.8532" /><line stroke="rgb(255,0,0)" stroke-width="1" x1="40.9271" x2="42.4271" y1="42.8532" y2="41.7634" /><line stroke="rgb(255,0,0)" stroke-width="1" x1="42.4271" x2="43.0" y1="41.7634" y2="40.0" /><line stroke="rgb(255,0,0)" stroke-width="1" x1="43.0" x2="43.0" y1="37.5" y2="40.0" /><line stroke="rgb(255,0,0)" stroke-width="1" x1="37.0" x2="37.0" y1="37.5" y2="40.0" /><line stroke="rgb(255,0,0)" stroke-width="1" x1="37.0" x2="37.5729" y1="37.5" y2="35.7366" /><line stroke="rgb(255,0,0)" stroke-width="1" x1="37.5729" x2="39.0729" y1="35.7366" y2="34.6468" /><line stroke="rgb(255,0,0)" stroke-width="1" x1="39.0729" x2="40.9271" y1="34.6468" y2="34.6468" /><line stroke="rgb(255,0,0)" stroke-width="1" x1="40.9271" x2="42.4271" y1="34.6468" y2="35.7366" /><line stroke="rgb(255,0,0)" stroke-width="1" x1="42.4271" x2="43.0" y1="35.7366" y2="37.5" /><line stroke="rgb(255,0,0)" stroke-width="1" x1="37.0" x2="37.5729" y1="40.0" y2="41.7634" /><line stroke="rgb(255,0,0)" stroke-width="1" x1="37.5729" x2="39.0729" y1="41.7634" y2="42.8532" /><line stroke="rgb(255,0,0)" stroke-width="1" x1="39.0729" x2="40.9271" y1="42.8532" y2="42.8532" /><line stroke="rgb(255,0,0)" stroke-width="1" x1="40.9271" x2="42.4271" y1="42.8532" y2="41.7634" /><line stroke="rgb(255,0,0)" stroke-width="1" x1="42.4271" x2="43.0" y1="41.7634" y2="40.0" /><line stroke="rgb(255,0,0)" stroke-width="1" x1="43.0" x2="43.0" y1="57.5" y2="40.0" /><line stroke="rgb(255,0,0)" stroke-width="1" x1="37.0" x2="37.0" y1="57.5" y2="40.0" /><line stroke="rgb(255,0,0)" stroke-width="1" x1="37.0" x2="37.5729" y1="57.5" y2="55.7366" /><line stroke="rgb(255,0,0)" stroke-width="1" x1="37.5729" x2="39.0729" y1="55.7366" y2="54.6468" /><line stroke="rgb(255,0,0)" stroke-width="1" x1="39.0729" x2="40.9271" y1="54.6468" y2="54.6468" /><line stroke="rgb(255,0,0)" stroke-width="1" x1="40.9271" x2="42.4271" y1="54.6468" y2="55.7366" /><line stroke="rgb(255,0,0)" stroke-width="1" x1="42.4271" x2="43.0" y1="55.7366" y2="57.5" /><line stroke="rgb(255,0,0)" stroke-width="1" x1="37.0" x2="37.5729" y1="40.0" y2="41.7634" /><line stroke="rgb(255,0,0)" stroke-width="1" x1="37.5729" x2="39.0729" y1="41.7634" y2="42.8532" /><line stroke="rgb(255,0,0)" stroke-width="1" x1="39.0729" x2="40.9271" y1="42.8532" y2="42.8532" /><line stroke="rgb(255,0,0)" stroke-width="1" x1="40.9271" x2="42.4271" y1="42.8532" y2="41.7634" /><line stroke="rgb(255,0,0)" stroke-width="1" x1="42.4271" x2="43.0" y1="41.7634" y2="40.0" /><line stroke="rgb(255,0,0)" stroke-width="1" x1="53.0" x2="53.0" y1="27.5" y2="32.5" /><line stroke="rgb(255,0,0)" stroke-width="1" x1="47.0" x2="47.0" y1="27.5" y2="32.5" /><line stroke="rgb(255,0,0)" stroke-width="1" x1="47.0" x2="47.5729" y1="27.5" y2="25.7366" /><line stroke="rgb(255,0,0)" stroke-width="1" x1="47.5729" x2="49.0729" y1="25.7366" y2="24.6468" /><line stroke="rgb(255,0,0)" stroke-width="1" x1="49.0729" x2="50.9271" y1="24.6468" y2="24.6468" /><line stroke="rgb(255,0,0)" stroke-width="1" x1="50.9271" x2="52.4271" y1="24.6468" y2="25.7366" /><line stroke="rgb(255,0,0)" stroke-width="1" x1="52.4271" x2="53.0" y1="25.7366" y2="27.5" /><line stroke="rgb(255,0,0)" stroke-width="1" x1="47.0" x2="47.5729" y1="32.5" y2="34.2634" /><line stroke="rgb(255,0,0)" stroke-width="1" x1="47.5729" x2="49.0729" y1="34.2634" y2="35.3532" /><line stroke="rgb(255,0,0)" stroke-width="1" x1="49.0729" x2="50.9271" y1="35.3532" y2="35.3532" /><line stroke="rgb(255,0,0)" stroke-width="1" x1="50.9271" x2="52.4271" y1="35.3532" y2="34.2634" /><line stroke="rgb(255,0,0)" stroke-width="1" x1="52.4271" x2="53.0" y1="34.2634" y2="32.5" /><line stroke="rgb(255,0,0)" stroke-width="1" x1="53.0" x2="53.0" y1="47.5" y2="52.5" /><line stroke="rgb(255,0,0)" stroke-width="1" x1="47.0" x2="47.0" y1="47.5" y2="52.5" /><line stroke="rgb(255,0,0)" stroke-width="1" x1="47.0" x2="47.5729" y1="47.5" y2="45.7366" /><line stroke="rgb(255,0,0)" stroke-width="1" x1="47.5729" x2="49.0729" y1="45.7366" y2="44.6468" /><line stroke="rgb(255,0,0)" stroke-width="1" x1="49.0729" x2="50.9271" y1="44.6468" y2="44.6468" /><line stroke="rgb(255,0,0)" stroke-width="1" x1="50.9271" x2="52.4271" y1="44.6468" y2="45.7366" /><line stroke="rgb(255,0,0)" stroke-width="1" x1="52.4271" x2="53.0" y1="45.7366" y2="47.5" /><line stroke="rgb(255,0,0)" stroke-width="1" x1="47.0" x2="47.5729" y1="52.5" y2="54.2634" /><line stroke="rgb(255,0,0)" stroke-width="1" x1="47.5729" x2="49.0729" y1="54.2634" y2="55.3532" /><line stroke="rgb(255,0,0)" stroke-width="1" x1="49.0729" x2="50.9271" y1="55.3532" y2="55.3532" /><line stroke="rgb(255,0,0)" stroke-width="1" x1="50.9271" x2="52.4271" y1="55.3532" y2="54.2634" /><line stroke="rgb(255,0,0)" stroke-width="1" x1="52.4271" x2="53.0" y1="54.2634" y2="52.5" /><line stroke="rgb(255,0,0)" stroke-width="1" x1="63.0" x2="63.0" y1="17.5" y2="40.0" /><line stroke="rgb(255,0,0)" stroke-width="1" x1="57.0" x2="57.0" y1="17.5" y2="40.0" /><line stroke="rgb(255,0,0)" stroke-width="1" x1="57.0" x2="57.5729" y1="17.5" y2="15.7366" /><line stroke="rgb(255,0,0)" stroke-width="1" x1="57.5729" x2="59.0729" y1="15.7366" y2="14.6468" /><line stroke="rgb(255,0,0)" stroke-width="1" x1="59.0729" x2="60.9271" y1="14.6468" y2="14.6468" /><line stroke="rgb(255,0,0)" stroke-width="1" x1="60.9271" x2="62.4271" y1="14.6468" y2="15.7366" /><line stroke="rgb(255,0,0)" stroke-width="1" x1="62.4271" x2="63.0" y1="15.7366" y2="17.5" /><line stroke="rgb(255,0,0)" stroke-width="1" x1="57.0" x2="57.5729" y1="40.0" y2="41.7634" /><line stroke="rgb(255,0,0)" stroke-width="1" x1="57.5729" x2="59.0729" y1="41.7634" y2="42.8532" /><line stroke="rgb(255,0,0)" stroke-width="1" x1="59.0729" x2="60.9271" y1="42.8532" y2="42.8532" /><line stroke="rgb(255,0,0)" stroke-width="1" x1="60.9271" x2="62.4271" y1="42.8532" y2="41.7634" /><line stroke="rgb(255,0,0)" stroke-width="1" x1="62.4271" x2="63.0" y1="41.7634" y2="40.0" /><line stroke="rgb(255,0,0)" stroke-width="1" x1="63.0" x2="63.0" y1="37.5" y2="40.0" /><line stroke="rgb(255,0,0)" stroke-width="1" x1="57.0" x2="57.0" y1="37.5" y2="40.0" /><line stroke="rgb(255,0,0)" stroke-width="1" x1="57.0" x2="57.5729" y1="37.5" y2="35.7366" /><line stroke="rgb(255,0,0)" stroke-width="1" x1="57.5729" x2="59.0729" y1="35.7366" y2="34.6468" /><line stroke="rgb(255,0,0)" stroke-width="1" x1="59.0729" x2="60.9271" y1="34.6468" y2="34.6468" /><line stroke="rgb(255,0,0)" stroke-width="1" x1="60.9271" x2="62.4271" y1="34.6468" y2="35.7366" /><line stroke="rgb(255,0,0)" stroke-width="1" x1="62.4271" x2="63.0" y1="35.7366" y2="37.5" /><line stroke="rgb(255,0,0)" stroke-width="1" x1="57.0" x2="57.5729" y1="40.0" y2="41.7634" /><line stroke="rgb(255,0,0)" stroke-width="1" x1="57.5729" x2="59.0729" y1="41.7634" y2="42.8532" /><line stroke="rgb(255,0,0)" stroke-width="1" x1="59.0729" x2="60.9271" y1="42.8532" y2="42.8532" /><line stroke="rgb(255,0,0)" stroke-width="1" x1="60.9271" x2="62.4271" y1="42.8532" y2="41.7634" /><line stroke="rgb(255,0,0)" stroke-width="1" x1="62.4271" x2="63.0" y1="41.7634" y2="40.0" /><line stroke="rgb(255,0,0)" stroke-width="1" x1="63.0" x2="63.0" y1="57.5" y2="40.0" /><line stroke="rgb(255,0,0)" stroke-width="1" x1="57.0" x2="57.0" y1="57.5" y2="40.0" /><line stroke="rgb(255,0,0)" stroke-width="1" x1="57.0" x2="57.5729" y1="57.5" y2="55.7366" /><line stroke="rgb(255,0,0)" stroke-width="1" x1="57.5729" x2="59.0729" y1="55.7366" y2="54.6468" /><line stroke="rgb(255,0,0)" stroke-width="1" x1="59.0729" x2="60.9271" y1="54.6468" y2="54.6468" /><line stroke="rgb(255,0,0)" stroke-width="1" x1="60.9271" x2="62.4271" y1="54.6468" y2="55.7366" /><line stroke="rgb(255,0,0)" stroke-width="1" x1="62.4271" x2="63.0" y1="55.7366" y2="57.5" /><line stroke="rgb(255,0,0)" stroke-width="1" x1="57.0" x2="57.5729" y1="40.0" y2="41.7634" /><line stroke="rgb(255,0,0)" stroke-width="1" x1="57.5729" x2="59.0729" y1="41.7634" y2="42.8532" /><line stroke="rgb(255,0,0)" stroke-width="1" x1="59.0729" x2="60.9271" y1="42.8532" y2="42.8532" /><line stroke="rgb(255,0,0)" stroke-width="1" x1="60.9271" x2="62.4271" y1="42.8532" y2="41.7634" /><line stroke="rgb(255,0,0)" stroke-width="1" x1="62.4271" x2="63.0" y1="41.7634" y2="40.0" /><line stroke="rgb(255,0,0)" stroke-width="1" x1="0" x2="80.0" y1="0" y2="0" /><line stroke="rgb(255,0,0)" stroke-width="1" x1="80.0" x2="80.0" y1="0" y2="80.0" /><line stroke="rgb(255,0,0)" stroke-width="1" x1="80.0" x2="0" y1="80.0" y2="80.0" /><line stroke="rgb(255,0,0)" stroke-width="1" x1="0" x2="0" y1="80.0" y2="0" /></svg>