<?xml version="1.0" encoding="utf-8" ?>
<svg baseProfile="tiny" height="100%" version="1.2" width="100%" xmlns="http://www.w3.org/2000/svg" xmlns:ev="http://www.w3.org/2001/xml-events" xmlns:xlink="http://www.w3.org/1999/xlink"><defs /><line stroke="rgb(255,0,0)" stroke-width="1" x1="20.0" x2="26.25" y1="31.5" y2="31.5" /><line stroke="rgb(255,0,0)" stroke-width="1" x1="20.0" x2="26.25" y1="28.5" y2="28.5" /><line stroke="rgb(255,0,0)" stroke-width="1" x1="20.0" x2="19.1183" y1="28.5" y2="28.7865" /><line stroke="rgb(255,0,0)" stroke-width="1" x1="19.1183" x2="18.5734" y1="28.7865" y2="29.5365" /><line stroke="rgb(255,0,0)" stroke-width="1" x1="18.5734" x2="18.5734" y1="29.5365" y2="30.4635" /><line stroke="rgb(255,0,0)" stroke-width="1" x1="18.5734" x2="19.1183" y1="30.4635" y2="31.2135" /><line stroke="rgb(255,0,0)" stroke-width="1" x1="19.1183" x2="20.0" y1="31.2135" y2="31.5" /><line stroke="rgb(255,0,0)" stroke-width="1" x1="26.25" x2="27.1317" y1="31.5" y2="31.2135" /><line stroke="rgb(255,0,0)" stroke-width="1" x1="27.1317" x2="27.6766" y1="31.2135" y2="30.4635" /><line stroke="rgb(255,0,0)" stroke-width="1" x1="27.6766" x2="27.6766" y1="30.4635" y2="29.5365" /><line stroke="rgb(255,0,0)" stroke-width="1" x1="27.6766" x2="27.1317" y1="29.5365" y2="28.7865" /><line stroke="rgb(255,0,0)" stroke-width="1" x1="27.1317" x2="26.25" y1="28.7865" y2="28.5" /><line stroke="rgb(255,0,0)" stroke-width="1" x1="33.75" x2="46.25" y1="31.5" y2="31.5" /><line stroke="rgb(255,0,0)" stroke-width="1" x1="33.75" x2="46.25" y1="28.5" y2="28.5" /><line stroke="rgb(255,0,0)" stroke-width="1" x1="33.75" x2="32.8683" y1="28.5" y2="28.7865" /><line stroke="rgb(255,0,0)" stroke-width="1" x1="32.8683" x2="32.3234" y1="28.7865" y2="29.5365" /><line stroke="rgb(255,0,0)" stroke-width="1" x1="32.3234" x2="32.3234" y1="29.5365" y2="30.4635" /><line stroke="rgb(255,0,0)" stroke-width="1" x1="32.3234" x2="32.8683" y1="30.4635" y2="31.2135" /><line stroke="rgb(255,0,0)" stroke-width="1" x1="32.8683" x2="33.75" y1="31.2135" y2="31.5" /><line stroke="rgb(255,0,0)" stroke-width="1" x1="46.25" x2="47.1317" y1="31.5" y2="31.2135" /><line stroke="rgb(255,0,0)" stroke-width="1" x1="47.1317" x2="47.6766" y1="31.2135" y2="30.4635" /><line stroke="rgb(255,0,0)" stroke-width="1" x1="47.6766" x2="47.6766" y1="30.4635" y2="29.5365" /><line stroke="rgb(255,0,0)" stroke-width="1" x1="47.6766" x2="47.1317" y1="29.5365" y2="28.7865" /><line stroke="rgb(255,0,0)" stroke-width="1" x1="47.1317" x2="46.25" y1="28.7865" y2="28.5" /><line stroke="rgb(255,0,0)" stroke-width="1" x1="53.75" x2="60.0" y1="31.5" y2="31.5" /><line stroke="rgb(255,0,0)" stroke-width="1" x1="53.75" x2="60.0" y1="28.5" y2="28.5" /><line stroke="rgb(255,0,0)" stroke-width="1" x1="53.75" x2="52.8683" y1="28.5" y2="28.7865" /><line stroke="rgb(255,0,0)" stroke-width="1" x1="52.8683" x2="52.3234" y1="28.7865" y2="29.5365" /><line stroke="rgb(255,0,0)" stroke-width="1" x1="52.3234" x2="52.3234" y1="29.5365" y2="30.4635" /><line stroke="rgb(255,0,0)" stroke-width="1" x1="52.3234" x2="52.8683" y1="30.4635" y2="31.2135" /><line stroke="rgb(255,0,0)" stroke-width="1" x1="52.8683" x2="53.75" y1="31.2135" y2="31.5" /><line stroke="rgb(255,0,0)" stroke-width="1" x1="60.0" x2="60.8817" y1="31.5" y2="31.2135" /><line stroke="rgb(255,0,0)" stroke-width="1" x1="60.8817" x2="61.4266" y1="31.2135" y2="30.4635" /><line stroke="rgb(255,0,0)" stroke-width="1" x1="61.4266" x2="61.4266" y1="30.4635" y2="29.5365" /><line stroke="rgb(255,0,0)" stroke-width="1" x1="61.4266" x2="60.8817" y1="29.5365" y2="28.7865" /><line stroke="rgb(255,0,0)" stroke-width="1" x1="60.8817" x2="60.0" y1="28.7865" y2="28.5" /><line stroke="rgb(255,0,0)" stroke-width="1" x1="23.75" x2="36.25" y1="41.5" y2="41.5" /><line stroke="rgb(255,0,0)" stroke-width="1" x1="23.75" x2="36.25" y1="38.5" y2="38.5" /><line stroke="rgb(255,0,0)" stroke-width="1" x1="23.75" x2="22.8683" y1="38.5" y2="38.7865" /><line stroke="rgb(255,0,0)" stroke-width="1" x1="22.8683" x2="22.3234" y1="38.7865" y2="39.5365" /><line stroke="rgb(255,0,0)" stroke-width="1" x1="22.3234" x2="22.3234" y1="39.5365" y2="40.4635" /><line stroke="rgb(255,0,0)" stroke-width="1" x1="22.3234" x2="22.8683" y1="40.4635" y2="41.2135" /><line stroke="rgb(255,0,0)" stroke-width="1" x1="22.8683" x2="23.75" y1="41.2135" y2="41.5" /><line stroke="rgb(255,0,0)" stroke-width="1" x1="36.25" x2="37.1317" y1="41.5" y2="41.2135" /><line stroke="rgb(255,0,0)" stroke-width="1" x1="37.1317" x2="37.6766" y1="41.2135" y2="40.4635" /><line stroke="rgb(255,0,0)" stroke-width="1" x1="37.6766" x2="37.6766" y1="40.4635" y2="39.5365" /><line stroke="rgb(255,0,0)" stroke-width="1" x1="37.6766" x2="37.1317" y1="39.5365" y2="38.7865" /><line stroke="rgb(255,0,0)" stroke-width="1" x1="37.1317" x2="36.25" y1="38.7865" y2="38.5" /><line stroke="rgb(255,0,0)" stroke-width="1" x1="43.75" x2="56.25" y1="41.5" y2="41.5" /><line stroke="rgb(255,0,0)" stroke-width="1" x1="43.75" x2="56.25" y1="38.5" y2="38.5" /><line stroke="rgb(255,0,0)" stroke-width="1" x1="43.75" x2="42.8683" y1="38.5" y2="38.7865" /><line stroke="rgb(255,0,0)" stroke-width="1" x1="42.8683" x2="42.3234" y1="38.7865" y2="39.5365" /><line stroke="rgb(255,0,0)" stroke-width="1" x1="42.3234" x2="42.3234" y1="39.5365" y2="40.4635" /><line stroke="rgb(255,0,0)" stroke-width="1" x1="42.3234" x2="42.8683" y1="40.4635" y2="41.2135" /><line stroke="rgb(255,0,0)" stroke-width="1" x1="42.8683" x2="43.75" y1="41.2135" y2="41.5" /><line stroke="rgb(255,0,0)" stroke-width="1" x1="56.25" x2="57.1317" y1="41.5" y2="41.2135" /><line stroke="rgb(255,0,0)" stroke-width="1" x1="57.1317" x2="57.6766" y1="41.2135" y2="40.4635" /><line stroke="rgb(255,0,0)" stroke-width="1" x1="57.6766" x2="57.6766" y1="40.4635" y2="39.5365" /><line stroke="rgb(255,0,0)" stroke-width="1" x1="57.6766" x2="57.1317" y1="39.5365" y2="38.7865" /><line stroke="rgb(255,0,0)" stroke-width="1" x1="57.1317" x2="56.25" y1="38.7865" y2="38.5" /><line stroke="rgb(255,0,0)" stroke-width="1" x1="20.0" x2="26.25" y1="51.5" y2="51.5" /><line stroke="rgb(255,0,0)" stroke-width="1" x1="20.0" x2="26.25" y1="48.5" y2="48.5" /><line stroke="rgb(255,0,0)" stroke-width="1" x1="20.0" x2="19.1183" y1="48.5" y2="48.7865" /><line stroke="rgb(255,0,0)" stroke-width="1" x1="19.1183" x2="18.5734" y1="48.7865" y2="49.5365" /><line stroke="rgb(255,0,0)" stroke-width="1" x1="18.5734" x2="18.5734" y1="49.5365" y2="50.4635" /><line stroke="rgb(255,0,0)" stroke-width="1" x1="18.5734" x2="19.1183" y1="50.4635" y2="51.2135" /><line stroke="rgb(255,0,0)" stroke-width="1" x1="19.1183" x2="20.0" y1="51.2135" y2="51.5" /><line stroke="rgb(255,0,0)" stroke-width="1" x1="26.25" x2="27.1317" y1="51.5" y2="51.2135" /><line stroke="rgb(255,0,0)" stroke-width="1" x1="27.1317" x2="27.6766" y1="51.2135" y2="50.4635" /><line stroke="rgb(255,0,0)" stroke-width="1" x1="27.6766" x2="27.6766" y1="50.4635" y2="49.5365" /><line stroke="rgb(255,0,0)" stroke-width="1" x1="27.6766" x2="27.1317" y1="49.5365" y2="48.7865" /><line stroke="rgb(255,0,0)" stroke-width="1" x1="27.1317" x2="26.25" y1="48.7865" y2="48.5" /><line stroke="rgb(255,0,0)" stroke-width="1" x1="33.75" x2="46.25" y1="51.5" y2="51.5" /><line stroke="rgb(255,0,0)" stroke-width="1" x1="33.75" x2="46.25" y1="48.5" y2="48.5" /><line stroke="rgb(255,0,0)" stroke-width="1" x1="33.75" x2="32.8683" y1="48.5" y2="48.7865" /><line stroke="rgb(255,0,0)" stroke-width="1" x1="32.8683" x2="32.3234" y1="48.7865" y2="49.5365" /><line stroke="rgb(255,0,0)" stroke-width="1" x1="32.3234" x2="32.3234" y1="49.5365" y2="50.4635" /><line stroke="rgb(255,0,0)" stroke-width="1" x1="32.3234" x2="32.8683" y1="50.4635" y2="51.2135" /><line stroke="rgb(255,0,0)" stroke-width="1" x1="32.8683" x2="33.75" y1="51.2135" y2="51.5" /><line stroke="rgb(255,0,0)" stroke-width="1" x1="46.25" x2="47.1317" y1="51.5" y2="51.2135" /><line stroke="rgb(255,0,0)" stroke-width="1" x1="47.1317" x2="47.6766" y1="51.2135" y2="50.4635" /><line stroke="rgb(255,0,0)" stroke-width="1" x1="47.6766" x2="47.6766" y1="50.4635" y2="49.5365" /><line stroke="rgb(255,0,0)" stroke-width="1" x1="47.6766" x2="47.1317" y1="49.5365" y2="48.7865" /><line stroke="rgb(255,0,0)" stroke-width="1" x1="47.1317" x2="46.25" y1="48.7865" y2="48.5" /><line stroke="rgb(255,0,0)" stroke-width="1" x1="53.75" x2="60.0" y1="51.5" y2="51.5" /><line stroke="rgb(255,0,0)" stroke-width="1" x1="53.75" x2="60.0" y1="48.5" y2="48.5" /><line stroke="rgb(255,0,0)" stroke-width="1" x1="53.75" x2="52.8683" y1="48.5" y2="48.7865" /><line stroke="rgb(255,0,0)" stroke-width="1" x1="52.8683" x2="52.3234" y1="48.7865" y2="49.5365" /><line stroke="rgb(255,0,0)" stroke-width="1" x1="52.3234" x2="52.3234" y1="49.5365" y2="50.4635" /><line stroke="rgb(255,0,0)" stroke-width="1" x1="52.3234" x2="52.8683" y1="50.4635" y2="51.2135" /><line stroke="rgb(255,0,0)" stroke-width="1" x1="52.8683" x2="53.75" y1="51.2135" y2="51.5" /><line stroke="rgb(255,0,0)" stroke-width="1" x1="60.0" x2="60.8817" y1="51.5" y2="51.2135" /><line stroke="rgb(255,0,0)" stroke-width="1" x1="60.8817" x2="61.4266" y1="51.2135" y2="50.4635" /><line stroke="rgb(255,0,0)" stroke-width="1" x1="61.4266" x2="61.4266" y1="50.4635" y2="49.5365" /><line stroke="rgb(255,0,0)" stroke-width="1" x1="61.4266" x2="60.8817" y1="49.5365" y2="48.7865" /><line stroke="rgb(255,0,0)" stroke-width="1" x1="60.8817" x2="60.0" y1="48.7865" y2="48.5" /><line stroke="rgb(255,0,0)" stroke-width="1" x1="21.5" x2="21.5" y1="20.0" y2="26.25" /><line stroke="rgb(255,0,0)" stroke-width="1" x1="18.5" x2="18.5" y1="20.0" y2="26.25" /><line stroke="rgb(255,0,0)" stroke-width="1" x1="18.5" x2="18.7865" y1="20.0" y2="19.1183" /><line stroke="rgb(255,0,0)" stroke-width="1" x1="18.7865" x2="19.5365" y1="19.1183" y2="18.5734" /><line stroke="rgb(255,0,0)" stroke-width="1" x1="19.5365" x2="20.4635" y1="18.5734" y2="18.5734" /><line stroke="rgb(255,0,0)" stroke-width="1" x1="20.4635" x2="21.2135" y1="18.5734" y2="19.1183" /><line stroke="rgb(255,0,0)" stroke-width="1" x1="21.2135" x2="21.5" y1="19.1183" y2="20.0" /><line stroke="rgb(255,0,0)" stroke-width="1" x1="18.5" x2="18.7865" y1="26.25" y2="27.1317" /><line stroke="rgb(255,0,0)" stroke-width="1" x1="18.7865" x2="19.5365" y1="27.1317" y2="27.6766" /><line stroke="rgb(255,0,0)" stroke-width="1" x1="19.5365" x2="20.4635" y1="27.6766" y2="27.6766" /><line stroke="rgb(255,0,0)" stroke-width="1" x1="20.4635" x2="21.2135" y1="27.6766" y2="27.1317" /><line stroke="rgb(255,0,0)" stroke-width="1" x1="21.2135" x2="21.5" y1="27.1317" y2="26.25" /><line stroke="rgb(255,0,0)" stroke-width="1" x1="21.5" x2="21.5" y1="33.75" y2="46.25" /><line stroke="rgb(255,0,0)" stroke-width="1" x1="18.5" x2="18.5" y1="33.75" y2="46.25" /><line stroke="rgb(255,0,0)" stroke-width="1" x1="18.5" x2="18.7865" y1="33.75" y2="32.8683" /><line stroke="rgb(255,0,0)" stroke-width="1" x1="18.7865" x2="19.5365" y1="32.8683" y2="32.3234" /><line stroke="rgb(255,0,0)" stroke-width="1" x1="19.5365" x2="20.4635" y1="32.3234" y2="32.3234" /><line stroke="rgb(255,0,0)" stroke-width="1" x1="20.4635" x2="21.2135" y1="32.3234" y2="32.8683" /><line stroke="rgb(255,0,0)" stroke-width="1" x1="21.2135" x2="21.5" y1="32.8683" y2="33.75" /><line stroke="rgb(255,0,0)" stroke-width="1" x1="18.5" x2="18.7865" y1="46.25" y2="47.1317" /><line stroke="rgb(255,0,0)" stroke-width="1" x1="18.7865" x2="19.5365" y1="47.1317" y2="47.6766" /><line stroke="rgb(255,0,0)" stroke-width="1" x1="19.5365" x2="20.4635" y1="47.6766" y2="47.6766" /><line stroke="rgb(255,0,0)" stroke-width="1" x1="20.4635" x2="21.2135" y1="47.6766" y2="47.1317" /><line stroke="rgb(255,0,0)" stroke-width="1" x1="21.2135" x2="21.5" y1="47.1317" y2="46.25" /><line stroke="rgb(255,0,0)" stroke-width="1" x1="21.5" x2="21.5" y1="53.75" y2="60.0" /><line stroke="rgb(255,0,0)" stroke-width="1" x1="18.5" x2="18.5" y1="53.75" y2="60.0" /><line stroke="rgb(255,0,0)" stroke-width="1" x1="18.5" x2="18.7865" y1="53.75" y2="52.8683" /><line stroke="rgb(255,0,0)" stroke-width="1" x1="18.7865" x2="19.5365" y1="52.8683" y2="52.3234" /><line stroke="rgb(255,0,0)" stroke-width="1" x1="19.5365" x2="20.4635" y1="52.3234" y2="52.3234" /><line stroke="rgb(255,0,0)" stroke-width="1" x1="20.4635" x2="21.2135" y1="52.3234" y2="52.8683" /><line stroke="rgb(255,0,0)" stroke-width="1" x1="21.2135" x2="21.5" y1="52.8683" y2="53.75" /><line stroke="rgb(255,0,0)" stroke-width="1" x1="18.5" x2="18.7865" y1="60.0" y2="60.8817" /><line stroke="rgb(255,0,0)" stroke-width="1" x1="18.7865" x2="19.5365" y1="60.8817" y2="61.4266" /><line stroke="rgb(255,0,0)" stroke-width="1" x1="19.5365" x2="20.4635" y1="61.4266" y2="61.4266" /><line stroke="rgb(255,0,0)" stroke-width="1" x1="20.4635" x2="21.2135" y1="61.4266" y2="60.8817" /><line stroke="rgb(255,0,0)" stroke-width="1" x1="21.2135" x2="21.5" y1="60.8817" y2="60.0" /><line stroke="rgb(255,0,0)" stroke-width="1" x1="31.5" x2="31.5" y1="23.75" y2="36.25" /><line stroke="rgb(255,0,0)" stroke-width="1" x1="28.5" x2="28.5" y1="23.75" y2="36.25" /><line stroke="rgb(255,0,0)" stroke-width="1" x1="28.5" x2="28.7865" y1="23.75" y2="22.8683" /><line stroke="rgb(255,0,0)" stroke-width="1" x1="28.7865" x2="29.5365" y1="22.8683" y2="22.3234" /><line stroke="rgb(255,0,0)" stroke-width="1" x1="29.5365" x2="30.4635" y1="22.3234" y2="22.3234" /><line stroke="rgb(255,0,0)" stroke-width="1" x1="30.4635" x2="31.2135" y1="22.3234" y2="22.8683" /><line stroke="rgb(255,0,0)" stroke-width="1" x1="31.2135" x2="31.5" y1="22.8683" y2="23.75" /><line stroke="rgb(255,0,0)" stroke-width="1" x1="28.5" x2="28.7865" y1="36.25" y2="37.1317" /><line stroke="rgb(255,0,0)" stroke-width="1" x1="28.7865" x2="29.5365" y1="37.1317" y2="37.6766" /><line stroke="rgb(255,0,0)" stroke-width="1" x1="29.5365" x2="30.4635" y1="37.6766" y2="37.6766" /><line stroke="rgb(255,0,0)" stroke-width="1" x1="30.4635" x2="31.2135" y1="37.6766" y2="37.1317" /><line stroke="rgb(255,0,0)" stroke-width="1" x1="31.2135" x2="31.5" y1="37.1317" y2="36.25" /><line stroke="rgb(255,0,0)" stroke-width="1" x1="31.5" x2="31.5" y1="43.75" y2="56.25" /><line stroke="rgb(255,0,0)" stroke-width="1" x1="28.5" x2="28.5" y1="43.75" y2="56.25" /><line stroke="rgb(255,0,0)" stroke-width="1" x1="28.5" x2="28.7865" y1="43.75" y2="42.8683" /><line stroke="rgb(255,0,0)" stroke-width="1" x1="28.7865" x2="29.5365" y1="42.8683" y2="42.3234" /><line stroke="rgb(255,0,0)" stroke-width="1" x1="29.5365" x2="30.4635" y1="42.3234" y2="42.3234" /><line stroke="rgb(255,0,0)" stroke-width="1" x1="30.4635" x2="31.2135" y1="42.3234" y2="42.8683" /><line stroke="rgb(255,0,0)" stroke-width="1" x1="31.2135" x2="31.5" y1="42.8683" y2="43.75" /><line stroke="rgb(255,0,0)" stroke-width="1" x1="28.5" x2="28.7865" y1="56.25" y2="57.1317" /><line stroke="rgb(255,0,0)" stroke-width="1" x1="28.7865" x2="29.5365" y1="57.1317" y2="57.6766" /><line stroke="rgb(255,0,0)" stroke-width="1" x1="29.5365" x2="30.4635" y1="57.6766" y2="57.6766" /><line stroke="rgb(255,0,0)" stroke-width="1" x1="30.4635" x2="31.2135" y1="57.6766" y2="57.1317" /><line stroke="rgb(255,0,0)" stroke-width="1" x1="31.2135" x2="31.5" y1="57.1317" y2="56.25" /><line stroke="rgb(255,0,0)" stroke-width="1" x1="41.5" x2="41.5" y1="20.0" y2="26.25" /><line stroke="rgb(255,0,0)" stroke-width="1" x1="38.5" x2="38.5" y1="20.0" y2="26.25" /><line stroke="rgb(255,0,0)" stroke-width="1" x1="38.5" x2="38.7865" y1="20.0" y2="19.1183" /><line stroke="rgb(255,0,0)" stroke-width="1" x1="38.7865" x2="39.5365" y1="19.1183" y2="18.5734" /><line stroke="rgb(255,0,0)" stroke-width="1" x1="39.5365" x2="40.4635" y1="18.5734" y2="18.5734" /><line stroke="rgb(255,0,0)" stroke-width="1" x1="40.4635" x2="41.2135" y1="18.5734" y2="19.1183" /><line stroke="rgb(255,0,0)" stroke-width="1" x1="41.2135" x2="41.5" y1="19.1183" y2="20.0" /><line stroke="rgb(255,0,0)" stroke-width="1" x1="38.5" x2="38.7865" y1="26.25" y2="27.1317" /><line stroke="rgb(255,0,0)" stroke-width="1" x1="38.7865" x2="39.5365" y1="27.1317" y2="27.6766" /><line stroke="rgb(255,0,0)" stroke-width="1" x1="39.5365" x2="40.4635" y1="27.6766" y2="27.6766" /><line stroke="rgb(255,0,0)" stroke-width="1" x1="40.4635" x2="41.2135" y1="27.6766" y2="27.1317" /><line stroke="rgb(255,0,0)" stroke-width="1" x1="41.2135" x2="41.5" y1="27.1317" y2="26.25" /><line stroke="rgb(255,0,0)" stroke-width="1" x1="41.5" x2="41.5" y1="33.75" y2="46.25" /><line stroke="rgb(255,0,0)" stroke-width="1" x1="38.5" x2="38.5" y1="33.75" y2="46.25" /><line stroke="rgb(255,0,0)" stroke-width="1" x1="38.5" x2="38.7865" y1="33.75" y2="32.8683" /><line stroke="rgb(255,0,0)" stroke-width="1" x1="38.7865" x2="39.5365" y1="32.8683" y2="32.3234" /><line stroke="rgb(255,0,0)" stroke-width="1" x1="39.5365" x2="40.4635" y1="32.3234" y2="32.3234" /><line stroke="rgb(255,0,0)" stroke-width="1" x1="40.4635" x2="41.2135" y1="32.3234" y2="32.8683" /><line stroke="rgb(255,0,0)" stroke-width="1" x1="41.2135" x2="41.5" y1="32.8683" y2="33.75" /><line stroke="rgb(255,0,0)" stroke-width="1" x1="38.5" x2="38.7865" y1="46.25" y2="47.1317" /><line stroke="rgb(255,0,0)" stroke-width="1" x1="38.7865" x2="39.5365" y1="47.1317" y2="47.6766" /><line stroke="rgb(255,0,0)" stroke-width="1" x1="39.5365" x2="40.4635" y1="47.6766" y2="47.6766" /><line stroke="rgb(255,0,0)" stroke-width="1" x1="40.4635" x2="41.2135" y1="47.6766" y2="47.1317" /><line stroke="rgb(255,0,0)" stroke-width="1" x1="41.2135" x2="41.5" y1="47.1317" y2="46.25" /><line stroke="rgb(255,0,0)" stroke-width="1" x1="41.5" x2="41.5" y1="53.75" y2="60.0" /><line stroke="rgb(255,0,0)" stroke-width="1" x1="38.5" x2="38.5" y1="53.75" y2="60.0" /><line stroke="rgb(255,0,0)" stroke-width="1" x1="38.5" x2="38.7865" y1="53.75" y2="52.8683" /><line stroke="rgb(255,0,0)" stroke-width="1" x1="38.7865" x2="39.5365" y1="52.8683" y2="52.3234" /><line stroke="rgb(255,0,0)" stroke-width="1" x1="39.5365" x2="40.4635" y1="52.3234" y2="52.3234" /><line stroke="rgb(255,0,0)" stroke-width="1" x1="40.4635" x2="41.2135" y1="52.3234" y2="52.8683" /><line stroke="rgb(255,0,0)" stroke-width="1" x1="41.2135" x2="41.5" y1="52.8683" y2="53.75" /><line stroke="rgb(255,0,0)" stroke-width="1" x1="38.5" x2="38.7865" y1="60.0" y2="60.8817" /><line stroke="rgb(255,0,0)" stroke-width="1" x1="38.7865" x2="39.5365" y1="60.8817" y2="61.4266" /><line stroke="rgb(255,0,0)" stroke-width="1" x1="39.5365" x2="40.4635" y1="61.4266" y2="61.4266" /><line stroke="rgb(255,0,0)" stroke-width="1" x1="40.4635" x2="41.2135" y1="61.4266" y2="60.8817" /><line stroke="rgb(255,0,0)" stroke-width="1" x1="41.2135" x2="41.5" y1="60.8817" y2="60.0" /><line stroke="rgb(255,0,0)" stroke-width="1" x1="51.5" x2="51.5" y1="23.75" y2="36.25" /><line stroke="rgb(255,0,0)" stroke-width="1" x1="48.5" x2="48.5" y1="23.75" y2="36.25" /><line stroke="rgb(255,0,0)" stroke-width="1" x1="48.5" x2="48.7865" y1="23.75" y2="22.8683" /><line stroke="rgb(255,0,0)" stroke-width="1" x1="48.7865" x2="49.5365" y1="22.8683" y2="22.3234" /><line stroke="rgb(255,0,0)" stroke-width="1" x1="49.5365" x2="50.4635" y1="22.3234" y2="22.3234" /><line stroke="rgb(255,0,0)" stroke-width="1" x1="50.4635" x2="51.2135" y1="22.3234" y2="22.8683" /><line stroke="rgb(255,0,0)" stroke-width="1" x1="51.2135" x2="51.5" y1="22.8683" y2="23.75" /><line stroke="rgb(255,0,0)" stroke-width="1" x1="48.5" x2="48.7865" y1="36.25" y2="37.1317" /><line stroke="rgb(255,0,0)" stroke-width="1" x1="48.7865" x2="49.5365" y1="37.1317" y2="37.6766" /><line stroke="rgb(255,0,0)" stroke-width="1" x1="49.5365" x2="50.4635" y1="37.6766" y2="37.6766" /><line stroke="rgb(255,0,0)" stroke-width="1" x1="50.4635" x2="51.2135" y1="37.6766" y2="37.1317" /><line stroke="rgb(255,0,0)" stroke-width="1" x1="51.2135" x2="51.5" y1="37.1317" y2="36.25" /><line stroke="rgb(255,0,0)" stroke-width="1" x1="51.5" x2="51.5" y1="43.75" y2="56.25" /><line stroke="rgb(255,0,0)" stroke-width="1" x1="48.5" x2="48.5" y1="43.75" y2="56.25" /><line stroke="rgb(255,0,0)" stroke-width="1" x1="48.5" x2="48.7865" y1="43.75" y2="42.8683" /><line stroke="rgb(255,0,0)" stroke-width="1" x1="48.7865" x2="49.5365" y1="42.8683" y2="42.3234" /><line stroke="rgb(255,0,0)" stroke-width="1" x1="49.5365" x2="50.4635" y1="42.3234" y2="42.3234" /><line stroke="rgb(255,0,0)" stroke-width="1" x1="50.4635" x2="51.2135" y1="42.3234" y2="42.8683" /><line stroke="rgb(255,0,0)" stroke-width="1" x1="51.2135" x2="51.5" y1="42.8683" y2="43.75" /><line stroke="rgb(255,0,0)" stroke-width="1" x1="48.5" x2="48.7865" y1="56.25" y2="57.1317" /><line stroke="rgb(255,0,0)" stroke-width="1" x1="48.7865" x2="49.5365" y1="57.1317" y2="57.6766" /><line stroke="rgb(255,0,0)" stroke-width="1" x1="49.5365" x2="50.4635" y1="57.6766" y2="57.6766" /><line stroke="rgb(255,0,0)" stroke-width="1" x1="50.4635" x2="51.2135" y1="57.6766" y2="57.1317" /><line stroke="rgb(255,0,0)" stroke-width="1" x1="51.2135" x2="51.5" y1="57.1317" y2="56.25" /><line stroke="rgb(255,0,0)" stroke-width="1" x1="61.5" x2="61.5" y1="20.0" y2="26.25" /><line stroke="rgb(255,0,0)" stroke-width="1" x1="58.5" x2="58.5" y1="20.0" y2="26.25" /><line stroke="rgb(255,0,0)" stroke-width="1" x1="58.5" x2="58.7865" y1="20.0" y2="19.1183" /><line stroke="rgb(255,0,0)" stroke-width="1" x1="58.7865" x2="59.5365" y1="19.1183" y2="18.5734" /><line stroke="rgb(255,0,0)" stroke-width="1" x1="59.5365" x2="60.4635" y1="18.5734" y2="18.5734" /><line stroke="rgb(255,0,0)" stroke-width="1" x1="60.4635" x2="61.2135" y1="18.5734" y2="19.1183" /><line stroke="rgb(255,0,0)" stroke-width="1" x1="61.2135" x2="61.5" y1="19.1183" y2="20.0" /><line stroke="rgb(255,0,0)" stroke-width="1" x1="58.5" x2="58.7865" y1="26.25" y2="27.1317" /><line stroke="rgb(255,0,0)" stroke-width="1" x1="58.7865" x2="59.5365" y1="27.1317" y2="27.6766" /><line stroke="rgb(255,0,0)" stroke-width="1" x1="59.5365" x2="60.4635" y1="27.6766" y2="27.6766" /><line stroke="rgb(255,0,0)" stroke-width="1" x1="60.4635" x2="61.2135" y1="27.6766" y2="27.1317" /><line stroke="rgb(255,0,0)" stroke-width="1" x1="61.2135" x2="61.5" y1="27.1317" y2="26.25" /><line stroke="rgb(255,0,0)" stroke-width="1" x1="61.5" x2="61.5" y1="33.75" y2="46.25" /><line stroke="rgb(255,0,0)" stroke-width="1" x1="58.5" x2="58.5" y1="33.75" y2="46.25" /><line stroke="rgb(255,0,0)" stroke-width="1" x1="58.5" x2="58.7865" y1="33.75" y2="32.8683" /><line stroke="rgb(255,0,0)" stroke-width="1" x1="58.7865" x2="59.5365" y1="32.8683" y2="32.3234" /><line stroke="rgb(255,0,0)" stroke-width="1" x1="59.5365" x2="60.4635" y1="32.3234" y2="32.3234" /><line stroke="rgb(255,0,0)" stroke-width="1" x1="60.4635" x2="61.2135" y1="32.3234" y2="32.8683" /><line stroke="rgb(255,0,0)" stroke-width="1" x1="61.2135" x2="61.5" y1="32.8683" y2="33.75" /><line stroke="rgb(255,0,0)" stroke-width="1" x1="58.5" x2="58.7865" y1="46.25" y2="47.1317" /><line stroke="rgb(255,0,0)" stroke-width="1" x1="58.7865" x2="59.5365" y1="47.1317" y2="47.6766" /><line stroke="rgb(255,0,0)" stroke-width="1" x1="59.5365" x2="60.4635" y1="47.6766" y2="47.6766" /><line stroke="rgb(255,0,0)" stroke-width="1" x1="60.4635" x2="61.2135" y1="47.6766" y2="47.1317" /><line stroke="rgb(255,0,0)" stroke-width="1" x1="61.2135" x2="61.5" y1="47.1317" y2="46.25" /><line stroke="rgb(255,0,0)" stroke-width="1" x1="61.5" x2="61.5" y1="53.75" y2="60.0" /><line stroke="rgb(255,0,0)" stroke-width="1" x1="58.5" x2="58.5" y1="53.75" y2="60.0" /><line stroke="rgb(255,0,0)" stroke-width="1" x1="58.5" x2="58.7865" y1="53.75" y2="52.8683" /><line stroke="rgb(255,0,0)" stroke-width="1" x1="58.7865" x2="59.5365" y1="52.8683" y2="52.3234" /><line stroke="rgb(255,0,0)" stroke-width="1" x1="59.5365" x2="60.4635" y1="52.3234" y2="52.3234" /><line stroke="rgb(255,0,0)" stroke-width="1" x1="60.4635" x2="61.2135" y1="52.3234" y2="52.8683" /><line stroke="rgb(255,0,0)" stroke-width="1" x1="61.2135" x2="61.5" y1="52.8683" y2="53.75" /><line stroke="rgb(255,0,0)" stroke-width="1" x1="58.5" x2="58.7865" y1="60.0" y2="60.8817" /><line stroke="rgb(255,0,0)" stroke-width="1" x1="58.7865" x2="59.5365" y1="60.8817" y2="61.4266" /><line stroke="rgb(255,0,0)" stroke-width="1" x1="59.5365" x2="60.4635" y1="61.4266" y2="61.4266" /><line stroke="rgb(255,0,0)" stroke-width="1" x1="60.4635" x2="61.2135" y1="61.4266" y2="60.8817" /><line stroke="rgb(255,0,0)" stroke-width="1" x1="61.2135" x2="61.5" y1="60.8817" y2="60.0" /><line stroke="rgb(255,0,0)" stroke-width="1" x1="0" x2="80.0" y1="0" y2="0" /><line stroke="rgb(255,0,0)" stroke-width="1" x1="80.0" x2="80.0" y1="0" y2="80.0" /><line stroke="rgb(255,0,0)" stroke-width="1" x1="80.0" x2="0" y1="80.0" y2="80.0" /><line stroke="rgb(255,0,0)" stroke-width="1" x1="0" x2="0" y1="80.0" y2="0" /></svg>