<?xml version="1.0" encoding="utf-8" ?>
<svg baseProfile="tiny" height="100%" version="1.2" width="100%" xmlns="http://www.w3.org/2000/svg" xmlns:ev="http://www.w3.org/2001/xml-events" xmlns:xlink="http://www.w3.org/1999/xlink"><defs /><line stroke="rgb(255,0,0)" stroke-width="1" x1="27.5" x2="40.5" y1="23.0" y2="23.0" /><line stroke="rgb(255,0,0)" stroke-width="1" x1="27.5" x2="40.5" y1="17.0" y2="17.0" /><line stroke="rgb(255,0,0)" stroke-width="1" x1="27.5" x2="25.7366" y1="17.0" y2="17.5729" /><line stroke="rgb(255,0,0)" stroke-width="1" x1="25.7366" x2="24.6468" y1="17.5729" y2="19.0729" /><line stroke="rgb(255,0,0)" stroke-width="1" x1="24.6468" x2="24.6468" y1="19.0729" y2="20.9271" /><line stroke="rgb(255,0,0)" stroke-width="1" x1="24.6468" x2="25.7366" y1="20.9271" y2="22.4271" /><line stroke="rgb(255,0,0)" stroke-width="1" x1="25.7366" x2="27.5" y1="22.4271" y2="23.0" /><line stroke="rgb(255,0,0)" stroke-width="1" x1="40.5" x2="42.2634" y1="23.0" y2="22.4271" /><line stroke="rgb(255,0,0)" stroke-width="1" x1="42.2634" x2="43.3532" y1="22.4271" y2="20.9271" /><line stroke="rgb(255,0,0)" stroke-width="1" x1="43.3532" x2="43.3532" y1="20.9271" y2="19.0729" /><line stroke="rgb(255,0,0)" stroke-width="1" x1="43.3532" x2="42.2634" y1="19.0729" y2="17.5729" /><line stroke="rgb(255,0,0)" stroke-width="1" x1="42.2634" x2="40.5" y1="17.5729" y2="17.0" /><line stroke="rgb(255,0,0)" stroke-width="1" x1="13.5" x2="26.5" y1="37.0" y2="37.0" /><line stroke="rgb(255,0,0)" stroke-width="1" x1="13.5" x2="26.5" y1="31.0" y2="31.0" /><line stroke="rgb(255,0,0)" stroke-width="1" x1="13.5" x2="11.7366" y1="31.0" y2="31.5729" /><line stroke="rgb(255,0,0)" stroke-width="1" x1="11.7366" x2="10.6468" y1="31.5729" y2="33.0729" /><line stroke="rgb(255,0,0)" stroke-width="1" x1="10.6468" x2="10.6468" y1="33.0729" y2="34.9271" /><line stroke="rgb(255,0,0)" stroke-width="1" x1="10.6468" x2="11.7366" y1="34.9271" y2="36.4271" /><line stroke="rgb(255,0,0)" stroke-width="1" x1="11.7366" x2="13.5" y1="36.4271" y2="37.0" /><line stroke="rgb(255,0,0)" stroke-width="1" x1="26.5" x2="28.2634" y1="37.0" y2="36.4271" /><line stroke="rgb(255,0,0)" stroke-width="1" x1="28.2634" x2="29.3532" y1="36.4271" y2="34.9271" /><line stroke="rgb(255,0,0)" stroke-width="1" x1="29.3532" x2="29.3532" y1="34.9271" y2="33.0729" /><line stroke="rgb(255,0,0)" stroke-width="1" x1="29.3532" x2="28.2634" y1="33.0729" y2="31.5729" /><line stroke="rgb(255,0,0)" stroke-width="1" x1="28.2634" x2="26.5" y1="31.5729" y2="31.0" /><line stroke="rgb(255,0,0)" stroke-width="1" x1="41.5" x2="54.5" y1="37.0" y2="37.0" /><line stroke="rgb(255,0,0)" stroke-width="1" x1="41.5" x2="54.5" y1="31.0" y2="31.0" /><line stroke="rgb(255,0,0)" stroke-width="1" x1="41.5" x2="39.7366" y1="31.0" y2="31.5729" /><line stroke="rgb(255,0,0)" stroke-width="1" x1="39.7366" x2="38.6468" y1="31.5729" y2="33.0729" /><line stroke="rgb(255,0,0)" stroke-width="1" x1="38.6468" x2="38.6468" y1="33.0729" y2="34.9271" /><line stroke="rgb(255,0,0)" stroke-width="1" x1="38.6468" x2="39.7366" y1="34.9271" y2="36.4271" /><line stroke="rgb(255,0,0)" stroke-width="1" x1="39.7366" x2="41.5" y1="36.4271" y2="37.0" /><line stroke="rgb(255,0,0)" stroke-width="1" x1="54.5" x2="56.2634" y1="37.0" y2="36.4271" /><line stroke="rgb(255,0,0)" stroke-width="1" x1="56.2634" x2="57.3532" y1="36.4271" y2="34.9271" /><line stroke="rgb(255,0,0)" stroke-width="1" x1="57.3532" x2="57.3532" y1="34.9271" y2="33.0729" /><line stroke="rgb(255,0,0)" stroke-width="1" x1="57.3532" x2="56.2634" y1="33.0729" y2="31.5729" /><line stroke="rgb(255,0,0)" stroke-width="1" x1="56.2634" x2="54.5" y1="31.5729" y2="31.0" /><line stroke="rgb(255,0,0)" stroke-width="1" x1="27.5" x2="40.5" y1="51.0" y2="51.0" /><line stroke="rgb(255,0,0)" stroke-width="1" x1="27.5" x2="40.5" y1="45.0" y2="45.0" /><line stroke="rgb(255,0,0)" stroke-width="1" x1="27.5" x2="25.7366" y1="45.0" y2="45.5729" /><line stroke="rgb(255,0,0)" stroke-width="1" x1="25.7366" x2="24.6468" y1="45.5729" y2="47.0729" /><line stroke="rgb(255,0,0)" stroke-width="1" x1="24.6468" x2="24.6468" y1="47.0729" y2="48.9271" /><line stroke="rgb(255,0,0)" stroke-width="1" x1="24.6468" x2="25.7366" y1="48.9271" y2="50.4271" /><line stroke="rgb(255,0,0)" stroke-width="1" x1="25.7366" x2="27.5" y1="50.4271" y2="51.0" /><line stroke="rgb(255,0,0)" stroke-width="1" x1="40.5" x2="42.2634" y1="51.0" y2="50.4271" /><line stroke="rgb(255,0,0)" stroke-width="1" x1="42.2634" x2="43.3532" y1="50.4271" y2="48.9271" /><line stroke="rgb(255,0,0)" stroke-width="1" x1="43.3532" x2="43.3532" y1="48.9271" y2="47.0729" /><line stroke="rgb(255,0,0)" stroke-width="1" x1="43.3532" x2="42.2634" y1="47.0729" y2="45.5729" /><line stroke="rgb(255,0,0)" stroke-width="1" x1="42.2634" x2="40.5" y1="45.5729" y2="45.0" /><line stroke="rgb(255,0,0)" stroke-width="1" x1="13.5" x2="26.5" y1="65.0" y2="65.0" /><line stroke="rgb(255,0,0)" stroke-width="1" x1="13.5" x2="26.5" y1="59.0" y2="59.0" /><line stroke="rgb(255,0,0)" stroke-width="1" x1="13.5" x2="11.7366" y1="59.0" y2="59.5729" /><line stroke="rgb(255,0,0)" stroke-width="1" x1="11.7366" x2="10.6468" y1="59.5729" y2="61.0729" /><line stroke="rgb(255,0,0)" stroke-width="1" x1="10.6468" x2="10.6468" y1="61.0729" y2="62.9271" /><line stroke="rgb(255,0,0)" stroke-width="1" x1="10.6468" x2="11.7366" y1="62.9271" y2="64.4271" /><line stroke="rgb(255,0,0)" stroke-width="1" x1="11.7366" x2="13.5" y1="64.4271" y2="65.0" /><line stroke="rgb(255,0,0)" stroke-width="1" x1="26.5" x2="28.2634" y1="65.0" y2="64.4271" /><line stroke="rgb(255,0,0)" stroke-width="1" x1="28.2634" x2="29.3532" y1="64.4271" y2="62.9271" /><line stroke="rgb(255,0,0)" stroke-width="1" x1="29.3532" x2="29.3532" y1="62.9271" y2="61.0729" /><line stroke="rgb(255,0,0)" stroke-width="1" x1="29.3532" x2="28.2634" y1="61.0729" y2="59.5729" /><line stroke="rgb(255,0,0)" stroke-width="1" x1="28.2634" x2="26.5" y1="59.5729" y2="59.0" /><line stroke="rgb(255,0,0)" stroke-width="1" x1="41.5" x2="54.5" y1="65.0" y2="65.0" /><line stroke="rgb(255,0,0)" stroke-width="1" x1="41.5" x2="54.5" y1="59.0" y2="59.0" /><line stroke="rgb(255,0,0)" stroke-width="1" x1="41.5" x2="39.7366" y1="59.0" y2="59.5729" /><line stroke="rgb(255,0,0)" stroke-width="1" x1="39.7366" x2="38.6468" y1="59.5729" y2="61.0729" /><line stroke="rgb(255,0,0)" stroke-width="1" x1="38.6468" x2="38.6468" y1="61.0729" y2="62.9271" /><line stroke="rgb(255,0,0)" stroke-width="1" x1="38.6468" x2="39.7366" y1="62.9271" y2="64.4271" /><line stroke="rgb(255,0,0)" stroke-width="1" x1="39.7366" x2="41.5" y1="64.4271" y2="65.0" /><line stroke="rgb(255,0,0)" stroke-width="1" x1="54.5" x2="56.2634" y1="65.0" y2="64.4271" /><line stroke="rgb(255,0,0)" stroke-width="1" x1="56.2634" x2="57.3532" y1="64.4271" y2="62.9271" /><line stroke="rgb(255,0,0)" stroke-width="1" x1="57.3532" x2="57.3532" y1="62.9271" y2="61.0729" /><line stroke="rgb(255,0,0)" stroke-width="1" x1="57.3532" x2="56.2634" y1="61.0729" y2="59.5729" /><line stroke="rgb(255,0,0)" stroke-width="1" x1="56.2634" x2="54.5" y1="59.5729" y2="59.0" /><line stroke="rgb(255,0,0)" stroke-width="1" x1="23.0" x2="23.0" y1="13.5" y2="26.5" /><line stroke="rgb(255,0,0)" stroke-width="1" x1="17.0" x2="17.0" y1="13.5" y2="26.5" /><line stroke="rgb(255,0,0)" stroke-width="1" x1="17.0" x2="17.5729" y1="13.5" y2="11.7366" /><line stroke="rgb(255,0,0)" stroke-width="1" x1="17.5729" x2="19.0729" y1="11.7366" y2="10.6468" /><line stroke="rgb(255,0,0)" stroke-width="1" x1="19.0729" x2="20.9271" y1="10.6468" y2="10.6468" /><line stroke="rgb(255,0,0)" stroke-width="1" x1="20.9271" x2="22.4271" y1="10.6468" y2="11.7366" /><line stroke="rgb(255,0,0)" stroke-width="1" x1="22.4271" x2="23.0" y1="11.7366" y2="13.5" /><line stroke="rgb(255,0,0)" stroke-width="1" x1="17.0" x2="17.5729" y1="26.5" y2="28.2634" /><line stroke="rgb(255,0,0)" stroke-width="1" x1="17.5729" x2="19.0729" y1="28.2634" y2="29.3532" /><line stroke="rgb(255,0,0)" stroke-width="1" x1="19.0729" x2="20.9271" y1="29.3532" y2="29.3532" /><line stroke="rgb(255,0,0)" stroke-width="1" x1="20.9271" x2="22.4271" y1="29.3532" y2="28.2634" /><line stroke="rgb(255,0,0)" stroke-width="1" x1="22.4271" x2="23.0" y1="28.2634" y2="26.5" /><line stroke="rgb(255,0,0)" stroke-width="1" x1="23.0" x2="23.0" y1="41.5" y2="54.5" /><line stroke="rgb(255,0,0)" stroke-width="1" x1="17.0" x2="17.0" y1="41.5" y2="54.5" /><line stroke="rgb(255,0,0)" stroke-width="1" x1="17.0" x2="17.5729" y1="41.5" y2="39.7366" /><line stroke="rgb(255,0,0)" stroke-width="1" x1="17.5729" x2="19.0729" y1="39.7366" y2="38.6468" /><line stroke="rgb(255,0,0)" stroke-width="1" x1="19.0729" x2="20.9271" y1="38.6468" y2="38.6468" /><line stroke="rgb(255,0,0)" stroke-width="1" x1="20.9271" x2="22.4271" y1="38.6468" y2="39.7366" /><line stroke="rgb(255,0,0)" stroke-width="1" x1="22.4271" x2="23.0" y1="39.7366" y2="41.5" /><line stroke="rgb(255,0,0)" stroke-width="1" x1="17.0" x2="17.5729" y1="54.5" y2="56.2634" /><line stroke="rgb(255,0,0)" stroke-width="1" x1="17.5729" x2="19.0729" y1="56.2634" y2="57.3532" /><line stroke="rgb(255,0,0)" stroke-width="1" x1="19.0729" x2="20.9271" y1="57.3532" y2="57.3532" /><line stroke="rgb(255,0,0)" stroke-width="1" x1="20.9271" x2="22.4271" y1="57.3532" y2="56.2634" /><line stroke="rgb(255,0,0)" stroke-width="1" x1="22.4271" x2="23.0" y1="56.2634" y2="54.5" /><line stroke="rgb(255,0,0)" stroke-width="1" x1="37.0" x2="37.0" y1="27.5" y2="40.5" /><line stroke="rgb(255,0,0)" stroke-width="1" x1="31.0" x2="31.0" y1="27.5" y2="40.5" /><line stroke="rgb(255,0,0)" stroke-width="1" x1="31.0" x2="31.5729" y1="27.5" y2="25.7366" /><line stroke="rgb(255,0,0)" stroke-width="1" x1="31.5729" x2="33.0729" y1="25.7366" y2="24.6468" /><line stroke="rgb(255,0,0)" stroke-width="1" x1="33.0729" x2="34.9271" y1="24.6468" y2="24.6468" /><line stroke="rgb(255,0,0)" stroke-width="1" x1="34.9271" x2="36.4271" y1="24.6468" y2="25.7366" /><line stroke="rgb(255,0,0)" stroke-width="1" x1="36.4271" x2="37.0" y1="25.7366" y2="27.5" /><line stroke="rgb(255,0,0)" stroke-width="1" x1="31.0" x2="31.5729" y1="40.5" y2="42.2634" /><line stroke="rgb(255,0,0)" stroke-width="1" x1="31.5729" x2="33.0729" y1="42.2634" y2="43.3532" /><line stroke="rgb(255,0,0)" stroke-width="1" x1="33.0729" x2="34.9271" y1="43.3532" y2="43.3532" /><line stroke="rgb(255,0,0)" stroke-width="1" x1="34.9271" x2="36.4271" y1="43.3532" y2="42.2634" /><line stroke="rgb(255,0,0)" stroke-width="1" x1="36.4271" x2="37.0" y1="42.2634" y2="40.5" /><line stroke="rgb(255,0,0)" stroke-width="1" x1="51.0" x2="51.0" y1="13.5" y2="26.5" /><line stroke="rgb(255,0,0)" stroke-width="1" x1="45.0" x2="45.0" y1="13.5" y2="26.5" /><line stroke="rgb(255,0,0)" stroke-width="1" x1="45.0" x2="45.5729" y1="13.5" y2="11.7366" /><line stroke="rgb(255,0,0)" stroke-width="1" x1="45.5729" x2="47.0729" y1="11.7366" y2="10.6468" /><line stroke="rgb(255,0,0)" stroke-width="1" x1="47.0729" x2="48.9271" y1="10.6468" y2="10.6468" /><line stroke="rgb(255,0,0)" stroke-width="1" x1="48.9271" x2="50.4271" y1="10.6468" y2="11.7366" /><line stroke="rgb(255,0,0)" stroke-width="1" x1="50.4271" x2="51.0" y1="11.7366" y2="13.5" /><line stroke="rgb(255,0,0)" stroke-width="1" x1="45.0" x2="45.5729" y1="26.5" y2="28.2634" /><line stroke="rgb(255,0,0)" stroke-width="1" x1="45.5729" x2="47.0729" y1="28.2634" y2="29.3532" /><line stroke="rgb(255,0,0)" stroke-width="1" x1="47.0729" x2="48.9271" y1="29.3532" y2="29.3532" /><line stroke="rgb(255,0,0)" stroke-width="1" x1="48.9271" x2="50.4271" y1="29.3532" y2="28.2634" /><line stroke="rgb(255,0,0)" stroke-width="1" x1="50.4271" x2="51.0" y1="28.2634" y2="26.5" /><line stroke="rgb(255,0,0)" stroke-width="1" x1="51.0" x2="51.0" y1="41.5" y2="54.5" /><line stroke="rgb(255,0,0)" stroke-width="1" x1="45.0" x2="45.0" y1="41.5" y2="54.5" /><line stroke="rgb(255,0,0)" stroke-width="1" x1="45.0" x2="45.5729" y1="41.5" y2="39.7366" /><line stroke="rgb(255,0,0)" stroke-width="1" x1="45.5729" x2="47.0729" y1="39.7366" y2="38.6468" /><line stroke="rgb(255,0,0)" stroke-width="1" x1="47.0729" x2="48.9271" y1="38.6468" y2="38.6468" /><line stroke="rgb(255,0,0)" stroke-width="1" x1="48.9271" x2="50.4271" y1="38.6468" y2="39.7366" /><line stroke="rgb(255,0,0)" stroke-width="1" x1="50.4271" x2="51.0" y1="39.7366" y2="41.5" /><line stroke="rgb(255,0,0)" stroke-width="1" x1="45.0" x2="45.5729" y1="54.5" y2="56.2634" /><line stroke="rgb(255,0,0)" stroke-width="1" x1="45.5729" x2="47.0729" y1="56.2634" y2="57.3532" /><line stroke="rgb(255,0,0)" stroke-width="1" x1="47.0729" x2="48.9271" y1="57.3532" y2="57.3532" /><line stroke="rgb(255,0,0)" stroke-width="1" x1="48.9271" x2="50.4271" y1="57.3532" y2="56.2634" /><line stroke="rgb(255,0,0)" stroke-width="1" x1="50.4271" x2="51.0" y1="56.2634" y2="54.5" /><line stroke="rgb(255,0,0)" stroke-width="1" x1="65.0" x2="65.0" y1="27.5" y2="40.5" /><line stroke="rgb(255,0,0)" stroke-width="1" x1="59.0" x2="59.0" y1="27.5" y2="40.5" /><line stroke="rgb(255,0,0)" stroke-width="1" x1="59.0" x2="59.5729" y1="27.5" y2="25.7366" /><line stroke="rgb(255,0,0)" stroke-width="1" x1="59.5729" x2="61.0729" y1="25.7366" y2="24.6468" /><line stroke="rgb(255,0,0)" stroke-width="1" x1="61.0729" x2="62.9271" y1="24.6468" y2="24.6468" /><line stroke="rgb(255,0,0)" stroke-width="1" x1="62.9271" x2="64.4271" y1="24.6468" y2="25.7366" /><line stroke="rgb(255,0,0)" stroke-width="1" x1="64.4271" x2="65.0" y1="25.7366" y2="27.5" /><line stroke="rgb(255,0,0)" stroke-width="1" x1="59.0" x2="59.5729" y1="40.5" y2="42.2634" /><line stroke="rgb(255,0,0)" stroke-width="1" x1="59.5729" x2="61.0729" y1="42.2634" y2="43.3532" /><line stroke="rgb(255,0,0)" stroke-width="1" x1="61.0729" x2="62.9271" y1="43.3532" y2="43.3532" /><line stroke="rgb(255,0,0)" stroke-width="1" x1="62.9271" x2="64.4271" y1="43.3532" y2="42.2634" /><line stroke="rgb(255,0,0)" stroke-width="1" x1="64.4271" x2="65.0" y1="42.2634" y2="40.5" /><line stroke="rgb(255,0,0)" stroke-width="1" x1="0" x2="82.0" y1="0" y2="0" /><line stroke="rgb(255,0,0)" stroke-width="1" x1="82.0" x2="82.0" y1="0" y2="82.0" /><line stroke="rgb(255,0,0)" stroke-width="1" x1="82.0" x2="0" y1="82.0" y2="82.0" /><line stroke="rgb(255,0,0)" stroke-width="1" x1="0" x2="0" y1="82.0" y2="0" /></svg>