<?xml version="1.0" encoding="utf-8" ?>
<svg baseProfile="tiny" height="100%" version="1.2" width="100%" xmlns="http://www.w3.org/2000/svg" xmlns:ev="http://www.w3.org/2001/xml-events" xmlns:xlink="http://www.w3.org/1999/xlink"><defs /><line stroke="rgb(255,0,0)" stroke-width="1" x1="27.0" x2="43.0" y1="23.0" y2="23.0" /><line stroke="rgb(255,0,0)" stroke-width="1" x1="27.0" x2="43.0" y1="17.0" y2="17.0" /><line stroke="rgb(255,0,0)" stroke-width="1" x1="27.0" x2="25.2366" y1="17.0" y2="17.5729" /><line stroke="rgb(255,0,0)" stroke-width="1" x1="25.2366" x2="24.1468" y1="17.5729" y2="19.0729" /><line stroke="rgb(255,0,0)" stroke-width="1" x1="24.1468" x2="24.1468" y1="19.0729" y2="20.9271" /><line stroke="rgb(255,0,0)" stroke-width="1" x1="24.1468" x2="25.2366" y1="20.9271" y2="22.4271" /><line stroke="rgb(255,0,0)" stroke-width="1" x1="25.2366" x2="27.0" y1="22.4271" y2="23.0" /><line stroke="rgb(255,0,0)" stroke-width="1" x1="43.0" x2="44.7634" y1="23.0" y2="22.4271" /><line stroke="rgb(255,0,0)" stroke-width="1" x1="44.7634" x2="45.8532" y1="22.4271" y2="20.9271" /><line stroke="rgb(255,0,0)" stroke-width="1" x1="45.8532" x2="45.8532" y1="20.9271" y2="19.0729" /><line stroke="rgb(255,0,0)" stroke-width="1" x1="45.8532" x2="44.7634" y1="19.0729" y2="17.5729" /><line stroke="rgb(255,0,0)" stroke-width="1" x1="44.7634" x2="43.0" y1="17.5729" y2="17.0" /><line stroke="rgb(255,0,0)" stroke-width="1" x1="57.0" x2="73.0" y1="23.0" y2="23.0" /><line stroke="rgb(255,0,0)" stroke-width="1" x1="57.0" x2="73.0" y1="17.0" y2="17.0" /><line stroke="rgb(255,0,0)" stroke-width="1" x1="57.0" x2="55.2366" y1="17.0" y2="17.5729" /><line stroke="rgb(255,0,0)" stroke-width="1" x1="55.2366" x2="54.1468" y1="17.5729" y2="19.0729" /><line stroke="rgb(255,0,0)" stroke-width="1" x1="54.1468" x2="54.1468" y1="19.0729" y2="20.9271" /><line stroke="rgb(255,0,0)" stroke-width="1" x1="54.1468" x2="55.2366" y1="20.9271" y2="22.4271" /><line stroke="rgb(255,0,0)" stroke-width="1" x1="55.2366" x2="57.0" y1="22.4271" y2="23.0" /><line stroke="rgb(255,0,0)" stroke-width="1" x1="73.0" x2="74.7634" y1="23.0" y2="22.4271" /><line stroke="rgb(255,0,0)" stroke-width="1" x1="74.7634" x2="75.8532" y1="22.4271" y2="20.9271" /><line stroke="rgb(255,0,0)" stroke-width="1" x1="75.8532" x2="75.8532" y1="20.9271" y2="19.0729" /><line stroke="rgb(255,0,0)" stroke-width="1" x1="75.8532" x2="74.7634" y1="19.0729" y2="17.5729" /><line stroke="rgb(255,0,0)" stroke-width="1" x1="74.7634" x2="73.0" y1="17.5729" y2="17.0" /><line stroke="rgb(255,0,0)" stroke-width="1" x1="20.0" x2="28.0" y1="38.0" y2="38.0" /><line stroke="rgb(255,0,0)" stroke-width="1" x1="20.0" x2="28.0" y1="32.0" y2="32.0" /><line stroke="rgb(255,0,0)" stroke-width="1" x1="20.0" x2="18.2366" y1="32.0" y2="32.5729" /><line stroke="rgb(255,0,0)" stroke-width="1" x1="18.2366" x2="17.1468" y1="32.5729" y2="34.0729" /><line stroke="rgb(255,0,0)" stroke-width="1" x1="17.1468" x2="17.1468" y1="34.0729" y2="35.9271" /><line stroke="rgb(255,0,0)" stroke-width="1" x1="17.1468" x2="18.2366" y1="35.9271" y2="37.4271" /><line stroke="rgb(255,0,0)" stroke-width="1" x1="18.2366" x2="20.0" y1="37.4271" y2="38.0" /><line stroke="rgb(255,0,0)" stroke-width="1" x1="28.0" x2="29.7634" y1="38.0" y2="37.4271" /><line stroke="rgb(255,0,0)" stroke-width="1" x1="29.7634" x2="30.8532" y1="37.4271" y2="35.9271" /><line stroke="rgb(255,0,0)" stroke-width="1" x1="30.8532" x2="30.8532" y1="35.9271" y2="34.0729" /><line stroke="rgb(255,0,0)" stroke-width="1" x1="30.8532" x2="29.7634" y1="34.0729" y2="32.5729" /><line stroke="rgb(255,0,0)" stroke-width="1" x1="29.7634" x2="28.0" y1="32.5729" y2="32.0" /><line stroke="rgb(255,0,0)" stroke-width="1" x1="42.0" x2="58.0" y1="38.0" y2="38.0" /><line stroke="rgb(255,0,0)" stroke-width="1" x1="42.0" x2="58.0" y1="32.0" y2="32.0" /><line stroke="rgb(255,0,0)" stroke-width="1" x1="42.0" x2="40.2366" y1="32.0" y2="32.5729" /><line stroke="rgb(255,0,0)" stroke-width="1" x1="40.2366" x2="39.1468" y1="32.5729" y2="34.0729" /><line stroke="rgb(255,0,0)" stroke-width="1" x1="39.1468" x2="39.1468" y1="34.0729" y2="35.9271" /><line stroke="rgb(255,0,0)" stroke-width="1" x1="39.1468" x2="40.2366" y1="35.9271" y2="37.4271" /><line stroke="rgb(255,0,0)" stroke-width="1" x1="40.2366" x2="42.0" y1="37.4271" y2="38.0" /><line stroke="rgb(255,0,0)" stroke-width="1" x1="58.0" x2="59.7634" y1="38.0" y2="37.4271" /><line stroke="rgb(255,0,0)" stroke-width="1" x1="59.7634" x2="60.8532" y1="37.4271" y2="35.9271" /><line stroke="rgb(255,0,0)" stroke-width="1" x1="60.8532" x2="60.8532" y1="35.9271" y2="34.0729" /><line stroke="rgb(255,0,0)" stroke-width="1" x1="60.8532" x2="59.7634" y1="34.0729" y2="32.5729" /><line stroke="rgb(255,0,0)" stroke-width="1" x1="59.7634" x2="58.0" y1="32.5729" y2="32.0" /><line stroke="rgb(255,0,0)" stroke-width="1" x1="72.0" x2="80.0" y1="38.0" y2="38.0" /><line stroke="rgb(255,0,0)" stroke-width="1" x1="72.0" x2="80.0" y1="32.0" y2="32.0" /><line stroke="rgb(255,0,0)" stroke-width="1" x1="72.0" x2="70.2366" y1="32.0" y2="32.5729" /><line stroke="rgb(255,0,0)" stroke-width="1" x1="70.2366" x2="69.1468" y1="32.5729" y2="34.0729" /><line stroke="rgb(255,0,0)" stroke-width="1" x1="69.1468" x2="69.1468" y1="34.0729" y2="35.9271" /><line stroke="rgb(255,0,0)" stroke-width="1" x1="69.1468" x2="70.2366" y1="35.9271" y2="37.4271" /><line stroke="rgb(255,0,0)" stroke-width="1" x1="70.2366" x2="72.0" y1="37.4271" y2="38.0" /><line stroke="rgb(255,0,0)" stroke-width="1" x1="80.0" x2="81.7634" y1="38.0" y2="37.4271" /><line stroke="rgb(255,0,0)" stroke-width="1" x1="81.7634" x2="82.8532" y1="37.4271" y2="35.9271" /><line stroke="rgb(255,0,0)" stroke-width="1" x1="82.8532" x2="82.8532" y1="35.9271" y2="34.0729" /><line stroke="rgb(255,0,0)" stroke-width="1" x1="82.8532" x2="81.7634" y1="34.0729" y2="32.5729" /><line stroke="rgb(255,0,0)" stroke-width="1" x1="81.7634" x2="80.0" y1="32.5729" y2="32.0" /><line stroke="rgb(255,0,0)" stroke-width="1" x1="27.0" x2="43.0" y1="53.0" y2="53.0" /><line stroke="rgb(255,0,0)" stroke-width="1" x1="27.0" x2="43.0" y1="47.0" y2="47.0" /><line stroke="rgb(255,0,0)" stroke-width="1" x1="27.0" x2="25.2366" y1="47.0" y2="47.5729" /><line stroke="rgb(255,0,0)" stroke-width="1" x1="25.2366" x2="24.1468" y1="47.5729" y2="49.0729" /><line stroke="rgb(255,0,0)" stroke-width="1" x1="24.1468" x2="24.1468" y1="49.0729" y2="50.9271" /><line stroke="rgb(255,0,0)" stroke-width="1" x1="24.1468" x2="25.2366" y1="50.9271" y2="52.4271" /><line stroke="rgb(255,0,0)" stroke-width="1" x1="25.2366" x2="27.0" y1="52.4271" y2="53.0" /><line stroke="rgb(255,0,0)" stroke-width="1" x1="43.0" x2="44.7634" y1="53.0" y2="52.4271" /><line stroke="rgb(255,0,0)" stroke-width="1" x1="44.7634" x2="45.8532" y1="52.4271" y2="50.9271" /><line stroke="rgb(255,0,0)" stroke-width="1" x1="45.8532" x2="45.8532" y1="50.9271" y2="49.0729" /><line stroke="rgb(255,0,0)" stroke-width="1" x1="45.8532" x2="44.7634" y1="49.0729" y2="47.5729" /><line stroke="rgb(255,0,0)" stroke-width="1" x1="44.7634" x2="43.0" y1="47.5729" y2="47.0" /><line stroke="rgb(255,0,0)" stroke-width="1" x1="57.0" x2="73.0" y1="53.0" y2="53.0" /><line stroke="rgb(255,0,0)" stroke-width="1" x1="57.0" x2="73.0" y1="47.0" y2="47.0" /><line stroke="rgb(255,0,0)" stroke-width="1" x1="57.0" x2="55.2366" y1="47.0" y2="47.5729" /><line stroke="rgb(255,0,0)" stroke-width="1" x1="55.2366" x2="54.1468" y1="47.5729" y2="49.0729" /><line stroke="rgb(255,0,0)" stroke-width="1" x1="54.1468" x2="54.1468" y1="49.0729" y2="50.9271" /><line stroke="rgb(255,0,0)" stroke-width="1" x1="54.1468" x2="55.2366" y1="50.9271" y2="52.4271" /><line stroke="rgb(255,0,0)" stroke-width="1" x1="55.2366" x2="57.0" y1="52.4271" y2="53.0" /><line stroke="rgb(255,0,0)" stroke-width="1" x1="73.0" x2="74.7634" y1="53.0" y2="52.4271" /><line stroke="rgb(255,0,0)" stroke-width="1" x1="74.7634" x2="75.8532" y1="52.4271" y2="50.9271" /><line stroke="rgb(255,0,0)" stroke-width="1" x1="75.8532" x2="75.8532" y1="50.9271" y2="49.0729" /><line stroke="rgb(255,0,0)" stroke-width="1" x1="75.8532" x2="74.7634" y1="49.0729" y2="47.5729" /><line stroke="rgb(255,0,0)" stroke-width="1" x1="74.7634" x2="73.0" y1="47.5729" y2="47.0" /><line stroke="rgb(255,0,0)" stroke-width="1" x1="20.0" x2="28.0" y1="68.0" y2="68.0" /><line stroke="rgb(255,0,0)" stroke-width="1" x1="20.0" x2="28.0" y1="62.0" y2="62.0" /><line stroke="rgb(255,0,0)" stroke-width="1" x1="20.0" x2="18.2366" y1="62.0" y2="62.5729" /><line stroke="rgb(255,0,0)" stroke-width="1" x1="18.2366" x2="17.1468" y1="62.5729" y2="64.0729" /><line stroke="rgb(255,0,0)" stroke-width="1" x1="17.1468" x2="17.1468" y1="64.0729" y2="65.9271" /><line stroke="rgb(255,0,0)" stroke-width="1" x1="17.1468" x2="18.2366" y1="65.9271" y2="67.4271" /><line stroke="rgb(255,0,0)" stroke-width="1" x1="18.2366" x2="20.0" y1="67.4271" y2="68.0" /><line stroke="rgb(255,0,0)" stroke-width="1" x1="28.0" x2="29.7634" y1="68.0" y2="67.4271" /><line stroke="rgb(255,0,0)" stroke-width="1" x1="29.7634" x2="30.8532" y1="67.4271" y2="65.9271" /><line stroke="rgb(255,0,0)" stroke-width="1" x1="30.8532" x2="30.8532" y1="65.9271" y2="64.0729" /><line stroke="rgb(255,0,0)" stroke-width="1" x1="30.8532" x2="29.7634" y1="64.0729" y2="62.5729" /><line stroke="rgb(255,0,0)" stroke-width="1" x1="29.7634" x2="28.0" y1="62.5729" y2="62.0" /><line stroke="rgb(255,0,0)" stroke-width="1" x1="42.0" x2="58.0" y1="68.0" y2="68.0" /><line stroke="rgb(255,0,0)" stroke-width="1" x1="42.0" x2="58.0" y1="62.0" y2="62.0" /><line stroke="rgb(255,0,0)" stroke-width="1" x1="42.0" x2="40.2366" y1="62.0" y2="62.5729" /><line stroke="rgb(255,0,0)" stroke-width="1" x1="40.2366" x2="39.1468" y1="62.5729" y2="64.0729" /><line stroke="rgb(255,0,0)" stroke-width="1" x1="39.1468" x2="39.1468" y1="64.0729" y2="65.9271" /><line stroke="rgb(255,0,0)" stroke-width="1" x1="39.1468" x2="40.2366" y1="65.9271" y2="67.4271" /><line stroke="rgb(255,0,0)" stroke-width="1" x1="40.2366" x2="42.0" y1="67.4271" y2="68.0" /><line stroke="rgb(255,0,0)" stroke-width="1" x1="58.0" x2="59.7634" y1="68.0" y2="67.4271" /><line stroke="rgb(255,0,0)" stroke-width="1" x1="59.7634" x2="60.8532" y1="67.4271" y2="65.9271" /><line stroke="rgb(255,0,0)" stroke-width="1" x1="60.8532" x2="60.8532" y1="65.9271" y2="64.0729" /><line stroke="rgb(255,0,0)" stroke-width="1" x1="60.8532" x2="59.7634" y1="64.0729" y2="62.5729" /><line stroke="rgb(255,0,0)" stroke-width="1" x1="59.7634" x2="58.0" y1="62.5729" y2="62.0" /><line stroke="rgb(255,0,0)" stroke-width="1" x1="72.0" x2="80.0" y1="68.0" y2="68.0" /><line stroke="rgb(255,0,0)" stroke-width="1" x1="72.0" x2="80.0" y1="62.0" y2="62.0" /><line stroke="rgb(255,0,0)" stroke-width="1" x1="72.0" x2="70.2366" y1="62.0" y2="62.5729" /><line stroke="rgb(255,0,0)" stroke-width="1" x1="70.2366" x2="69.1468" y1="62.5729" y2="64.0729" /><line stroke="rgb(255,0,0)" stroke-width="1" x1="69.1468" x2="69.1468" y1="64.0729" y2="65.9271" /><line stroke="rgb(255,0,0)" stroke-width="1" x1="69.1468" x2="70.2366" y1="65.9271" y2="67.4271" /><line stroke="rgb(255,0,0)" stroke-width="1" x1="70.2366" x2="72.0" y1="67.4271" y2="68.0" /><line stroke="rgb(255,0,0)" stroke-width="1" x1="80.0" x2="81.7634" y1="68.0" y2="67.4271" /><line stroke="rgb(255,0,0)" stroke-width="1" x1="81.7634" x2="82.8532" y1="67.4271" y2="65.9271" /><line stroke="rgb(255,0,0)" stroke-width="1" x1="82.8532" x2="82.8532" y1="65.9271" y2="64.0729" /><line stroke="rgb(255,0,0)" stroke-width="1" x1="82.8532" x2="81.7634" y1="64.0729" y2="62.5729" /><line stroke="rgb(255,0,0)" stroke-width="1" x1="81.7634" x2="80.0" y1="62.5729" y2="62.0" /><line stroke="rgb(255,0,0)" stroke-width="1" x1="27.0" x2="43.0" y1="83.0" y2="83.0" /><line stroke="rgb(255,0,0)" stroke-width="1" x1="27.0" x2="43.0" y1="77.0" y2="77.0" /><line stroke="rgb(255,0,0)" stroke-width="1" x1="27.0" x2="25.2366" y1="77.0" y2="77.5729" /><line stroke="rgb(255,0,0)" stroke-width="1" x1="25.2366" x2="24.1468" y1="77.5729" y2="79.0729" /><line stroke="rgb(255,0,0)" stroke-width="1" x1="24.1468" x2="24.1468" y1="79.0729" y2="80.9271" /><line stroke="rgb(255,0,0)" stroke-width="1" x1="24.1468" x2="25.2366" y1="80.9271" y2="82.4271" /><line stroke="rgb(255,0,0)" stroke-width="1" x1="25.2366" x2="27.0" y1="82.4271" y2="83.0" /><line stroke="rgb(255,0,0)" stroke-width="1" x1="43.0" x2="44.7634" y1="83.0" y2="82.4271" /><line stroke="rgb(255,0,0)" stroke-width="1" x1="44.7634" x2="45.8532" y1="82.4271" y2="80.9271" /><line stroke="rgb(255,0,0)" stroke-width="1" x1="45.8532" x2="45.8532" y1="80.9271" y2="79.0729" /><line stroke="rgb(255,0,0)" stroke-width="1" x1="45.8532" x2="44.7634" y1="79.0729" y2="77.5729" /><line stroke="rgb(255,0,0)" stroke-width="1" x1="44.7634" x2="43.0" y1="77.5729" y2="77.0" /><line stroke="rgb(255,0,0)" stroke-width="1" x1="57.0" x2="73.0" y1="83.0" y2="83.0" /><line stroke="rgb(255,0,0)" stroke-width="1" x1="57.0" x2="73.0" y1="77.0" y2="77.0" /><line stroke="rgb(255,0,0)" stroke-width="1" x1="57.0" x2="55.2366" y1="77.0" y2="77.5729" /><line stroke="rgb(255,0,0)" stroke-width="1" x1="55.2366" x2="54.1468" y1="77.5729" y2="79.0729" /><line stroke="rgb(255,0,0)" stroke-width="1" x1="54.1468" x2="54.1468" y1="79.0729" y2="80.9271" /><line stroke="rgb(255,0,0)" stroke-width="1" x1="54.1468" x2="55.2366" y1="80.9271" y2="82.4271" /><line stroke="rgb(255,0,0)" stroke-width="1" x1="55.2366" x2="57.0" y1="82.4271" y2="83.0" /><line stroke="rgb(255,0,0)" stroke-width="1" x1="73.0" x2="74.7634" y1="83.0" y2="82.4271" /><line stroke="rgb(255,0,0)" stroke-width="1" x1="74.7634" x2="75.8532" y1="82.4271" y2="80.9271" /><line stroke="rgb(255,0,0)" stroke-width="1" x1="75.8532" x2="75.8532" y1="80.9271" y2="79.0729" /><line stroke="rgb(255,0,0)" stroke-width="1" x1="75.8532" x2="74.7634" y1="79.0729" y2="77.5729" /><line stroke="rgb(255,0,0)" stroke-width="1" x1="74.7634" x2="73.0" y1="77.5729" y2="77.0" /><line stroke="rgb(255,0,0)" stroke-width="1" x1="23.0" x2="23.0" y1="20.0" y2="28.0" /><line stroke="rgb(255,0,0)" stroke-width="1" x1="17.0" x2="17.0" y1="20.0" y2="28.0" /><line stroke="rgb(255,0,0)" stroke-width="1" x1="17.0" x2="17.5729" y1="20.0" y2="18.2366" /><line stroke="rgb(255,0,0)" stroke-width="1" x1="17.5729" x2="19.0729" y1="18.2366" y2="17.1468" /><line stroke="rgb(255,0,0)" stroke-width="1" x1="19.0729" x2="20.9271" y1="17.1468" y2="17.1468" /><line stroke="rgb(255,0,0)" stroke-width="1" x1="20.9271" x2="22.4271" y1="17.1468" y2="18.2366" /><line stroke="rgb(255,0,0)" stroke-width="1" x1="22.4271" x2="23.0" y1="18.2366" y2="20.0" /><line stroke="rgb(255,0,0)" stroke-width="1" x1="17.0" x2="17.5729" y1="28.0" y2="29.7634" /><line stroke="rgb(255,0,0)" stroke-width="1" x1="17.5729" x2="19.0729" y1="29.7634" y2="30.8532" /><line stroke="rgb(255,0,0)" stroke-width="1" x1="19.0729" x2="20.9271" y1="30.8532" y2="30.8532" /><line stroke="rgb(255,0,0)" stroke-width="1" x1="20.9271" x2="22.4271" y1="30.8532" y2="29.7634" /><line stroke="rgb(255,0,0)" stroke-width="1" x1="22.4271" x2="23.0" y1="29.7634" y2="28.0" /><line stroke="rgb(255,0,0)" stroke-width="1" x1="23.0" x2="23.0" y1="42.0" y2="58.0" /><line stroke="rgb(255,0,0)" stroke-width="1" x1="17.0" x2="17.0" y1="42.0" y2="58.0" /><line stroke="rgb(255,0,0)" stroke-width="1" x1="17.0" x2="17.5729" y1="42.0" y2="40.2366" /><line stroke="rgb(255,0,0)" stroke-width="1" x1="17.5729" x2="19.0729" y1="40.2366" y2="39.1468" /><line stroke="rgb(255,0,0)" stroke-width="1" x1="19.0729" x2="20.9271" y1="39.1468" y2="39.1468" /><line stroke="rgb(255,0,0)" stroke-width="1" x1="20.9271" x2="22.4271" y1="39.1468" y2="40.2366" /><line stroke="rgb(255,0,0)" stroke-width="1" x1="22.4271" x2="23.0" y1="40.2366" y2="42.0" /><line stroke="rgb(255,0,0)" stroke-width="1" x1="17.0" x2="17.5729" y1="58.0" y2="59.7634" /><line stroke="rgb(255,0,0)" stroke-width="1" x1="17.5729" x2="19.0729" y1="59.7634" y2="60.8532" /><line stroke="rgb(255,0,0)" stroke-width="1" x1="19.0729" x2="20.9271" y1="60.8532" y2="60.8532" /><line stroke="rgb(255,0,0)" stroke-width="1" x1="20.9271" x2="22.4271" y1="60.8532" y2="59.7634" /><line stroke="rgb(255,0,0)" stroke-width="1" x1="22.4271" x2="23.0" y1="59.7634" y2="58.0" /><line stroke="rgb(255,0,0)" stroke-width="1" x1="23.0" x2="23.0" y1="72.0" y2="80.0" /><line stroke="rgb(255,0,0)" stroke-width="1" x1="17.0" x2="17.0" y1="72.0" y2="80.0" /><line stroke="rgb(255,0,0)" stroke-width="1" x1="17.0" x2="17.5729" y1="72.0" y2="70.2366" /><line stroke="rgb(255,0,0)" stroke-width="1" x1="17.5729" x2="19.0729" y1="70.2366" y2="69.1468" /><line stroke="rgb(255,0,0)" stroke-width="1" x1="19.0729" x2="20.9271" y1="69.1468" y2="69.1468" /><line stroke="rgb(255,0,0)" stroke-width="1" x1="20.9271" x2="22.4271" y1="69.1468" y2="70.2366" /><line stroke="rgb(255,0,0)" stroke-width="1" x1="22.4271" x2="23.0" y1="70.2366" y2="72.0" /><line stroke="rgb(255,0,0)" stroke-width="1" x1="17.0" x2="17.5729" y1="80.0" y2="81.7634" /><line stroke="rgb(255,0,0)" stroke-width="1" x1="17.5729" x2="19.0729" y1="81.7634" y2="82.8532" /><line stroke="rgb(255,0,0)" stroke-width="1" x1="19.0729" x2="20.9271" y1="82.8532" y2="82.8532" /><line stroke="rgb(255,0,0)" stroke-width="1" x1="20.9271" x2="22.4271" y1="82.8532" y2="81.7634" /><line stroke="rgb(255,0,0)" stroke-width="1" x1="22.4271" x2="23.0" y1="81.7634" y2="80.0" /><line stroke="rgb(255,0,0)" stroke-width="1" x1="38.0" x2="38.0" y1="27.0" y2="43.0" /><line stroke="rgb(255,0,0)" stroke-width="1" x1="32.0" x2="32.0" y1="27.0" y2="43.0" /><line stroke="rgb(255,0,0)" stroke-width="1" x1="32.0" x2="32.5729" y1="27.0" y2="25.2366" /><line stroke="rgb(255,0,0)" stroke-width="1" x1="32.5729" x2="34.0729" y1="25.2366" y2="24.1468" /><line stroke="rgb(255,0,0)" stroke-width="1" x1="34.0729" x2="35.9271" y1="24.1468" y2="24.1468" /><line stroke="rgb(255,0,0)" stroke-width="1" x1="35.9271" x2="37.4271" y1="24.1468" y2="25.2366" /><line stroke="rgb(255,0,0)" stroke-width="1" x1="37.4271" x2="38.0" y1="25.2366" y2="27.0" /><line stroke="rgb(255,0,0)" stroke-width="1" x1="32.0" x2="32.5729" y1="43.0" y2="44.7634" /><line stroke="rgb(255,0,0)" stroke-width="1" x1="32.5729" x2="34.0729" y1="44.7634" y2="45.8532" /><line stroke="rgb(255,0,0)" stroke-width="1" x1="34.0729" x2="35.9271" y1="45.8532" y2="45.8532" /><line stroke="rgb(255,0,0)" stroke-width="1" x1="35.9271" x2="37.4271" y1="45.8532" y2="44.7634" /><line stroke="rgb(255,0,0)" stroke-width="1" x1="37.4271" x2="38.0" y1="44.7634" y2="43.0" /><line stroke="rgb(255,0,0)" stroke-width="1" x1="38.0" x2="38.0" y1="57.0" y2="73.0" /><line stroke="rgb(255,0,0)" stroke-width="1" x1="32.0" x2="32.0" y1="57.0" y2="73.0" /><line stroke="rgb(255,0,0)" stroke-width="1" x1="32.0" x2="32.5729" y1="57.0" y2="55.2366" /><line stroke="rgb(255,0,0)" stroke-width="1" x1="32.5729" x2="34.0729" y1="55.2366" y2="54.1468" /><line stroke="rgb(255,0,0)" stroke-width="1" x1="34.0729" x2="35.9271" y1="54.1468" y2="54.1468" /><line stroke="rgb(255,0,0)" stroke-width="1" x1="35.9271" x2="37.4271" y1="54.1468" y2="55.2366" /><line stroke="rgb(255,0,0)" stroke-width="1" x1="37.4271" x2="38.0" y1="55.2366" y2="57.0" /><line stroke="rgb(255,0,0)" stroke-width="1" x1="32.0" x2="32.5729" y1="73.0" y2="74.7634" /><line stroke="rgb(255,0,0)" stroke-width="1" x1="32.5729" x2="34.0729" y1="74.7634" y2="75.8532" /><line stroke="rgb(255,0,0)" stroke-width="1" x1="34.0729" x2="35.9271" y1="75.8532" y2="75.8532" /><line stroke="rgb(255,0,0)" stroke-width="1" x1="35.9271" x2="37.4271" y1="75.8532" y2="74.7634" /><line stroke="rgb(255,0,0)" stroke-width="1" x1="37.4271" x2="38.0" y1="74.7634" y2="73.0" /><line stroke="rgb(255,0,0)" stroke-width="1" x1="53.0" x2="53.0" y1="20.0" y2="28.0" /><line stroke="rgb(255,0,0)" stroke-width="1" x1="47.0" x2="47.0" y1="20.0" y2="28.0" /><line stroke="rgb(255,0,0)" stroke-width="1" x1="47.0" x2="47.5729" y1="20.0" y2="18.2366" /><line stroke="rgb(255,0,0)" stroke-width="1" x1="47.5729" x2="49.0729" y1="18.2366" y2="17.1468" /><line stroke="rgb(255,0,0)" stroke-width="1" x1="49.0729" x2="50.9271" y1="17.1468" y2="17.1468" /><line stroke="rgb(255,0,0)" stroke-width="1" x1="50.9271" x2="52.4271" y1="17.1468" y2="18.2366" /><line stroke="rgb(255,0,0)" stroke-width="1" x1="52.4271" x2="53.0" y1="18.2366" y2="20.0" /><line stroke="rgb(255,0,0)" stroke-width="1" x1="47.0" x2="47.5729" y1="28.0" y2="29.7634" /><line stroke="rgb(255,0,0)" stroke-width="1" x1="47.5729" x2="49.0729" y1="29.7634" y2="30.8532" /><line stroke="rgb(255,0,0)" stroke-width="1" x1="49.0729" x2="50.9271" y1="30.8532" y2="30.8532" /><line stroke="rgb(255,0,0)" stroke-width="1" x1="50.9271" x2="52.4271" y1="30.8532" y2="29.7634" /><line stroke="rgb(255,0,0)" stroke-width="1" x1="52.4271" x2="53.0" y1="29.7634" y2="28.0" /><line stroke="rgb(255,0,0)" stroke-width="1" x1="53.0" x2="53.0" y1="42.0" y2="58.0" /><line stroke="rgb(255,0,0)" stroke-width="1" x1="47.0" x2="47.0" y1="42.0" y2="58.0" /><line stroke="rgb(255,0,0)" stroke-width="1" x1="47.0" x2="47.5729" y1="42.0" y2="40.2366" /><line stroke="rgb(255,0,0)" stroke-width="1" x1="47.5729" x2="49.0729" y1="40.2366" y2="39.1468" /><line stroke="rgb(255,0,0)" stroke-width="1" x1="49.0729" x2="50.9271" y1="39.1468" y2="39.1468" /><line stroke="rgb(255,0,0)" stroke-width="1" x1="50.9271" x2="52.4271" y1="39.1468" y2="40.2366" /><line stroke="rgb(255,0,0)" stroke-width="1" x1="52.4271" x2="53.0" y1="40.2366" y2="42.0" /><line stroke="rgb(255,0,0)" stroke-width="1" x1="47.0" x2="47.5729" y1="58.0" y2="59.7634" /><line stroke="rgb(255,0,0)" stroke-width="1" x1="47.5729" x2="49.0729" y1="59.7634" y2="60.8532" /><line stroke="rgb(255,0,0)" stroke-width="1" x1="49.0729" x2="50.9271" y1="60.8532" y2="60.8532" /><line stroke="rgb(255,0,0)" stroke-width="1" x1="50.9271" x2="52.4271" y1="60.8532" y2="59.7634" /><line stroke="rgb(255,0,0)" stroke-width="1" x1="52.4271" x2="53.0" y1="59.7634" y2="58.0" /><line stroke="rgb(255,0,0)" stroke-width="1" x1="53.0" x2="53.0" y1="72.0" y2="80.0" /><line stroke="rgb(255,0,0)" stroke-width="1" x1="47.0" x2="47.0" y1="72.0" y2="80.0" /><line stroke="rgb(255,0,0)" stroke-width="1" x1="47.0" x2="47.5729" y1="72.0" y2="70.2366" /><line stroke="rgb(255,0,0)" stroke-width="1" x1="47.5729" x2="49.0729" y1="70.2366" y2="69.1468" /><line stroke="rgb(255,0,0)" stroke-width="1" x1="49.0729" x2="50.9271" y1="69.1468" y2="69.1468" /><line stroke="rgb(255,0,0)" stroke-width="1" x1="50.9271" x2="52.4271" y1="69.1468" y2="70.2366" /><line stroke="rgb(255,0,0)" stroke-width="1" x1="52.4271" x2="53.0" y1="70.2366" y2="72.0" /><line stroke="rgb(255,0,0)" stroke-width="1" x1="47.0" x2="47.5729" y1="80.0" y2="81.7634" /><line stroke="rgb(255,0,0)" stroke-width="1" x1="47.5729" x2="49.0729" y1="81.7634" y2="82.8532" /><line stroke="rgb(255,0,0)" stroke-width="1" x1="49.0729" x2="50.9271" y1="82.8532" y2="82.8532" /><line stroke="rgb(255,0,0)" stroke-width="1" x1="50.9271" x2="52.4271" y1="82.8532" y2="81.7634" /><line stroke="rgb(255,0,0)" stroke-width="1" x1="52.4271" x2="53.0" y1="81.7634" y2="80.0" /><line stroke="rgb(255,0,0)" stroke-width="1" x1="68.0" x2="68.0" y1="27.0" y2="43.0" /><line stroke="rgb(255,0,0)" stroke-width="1" x1="62.0" x2="62.0" y1="27.0" y2="43.0" /><line stroke="rgb(255,0,0)" stroke-width="1" x1="62.0" x2="62.5729" y1="27.0" y2="25.2366" /><line stroke="rgb(255,0,0)" stroke-width="1" x1="62.5729" x2="64.0729" y1="25.2366" y2="24.1468" /><line stroke="rgb(255,0,0)" stroke-width="1" x1="64.0729" x2="65.9271" y1="24.1468" y2="24.1468" /><line stroke="rgb(255,0,0)" stroke-width="1" x1="65.9271" x2="67.4271" y1="24.1468" y2="25.2366" /><line stroke="rgb(255,0,0)" stroke-width="1" x1="67.4271" x2="68.0" y1="25.2366" y2="27.0" /><line stroke="rgb(255,0,0)" stroke-width="1" x1="62.0" x2="62.5729" y1="43.0" y2="44.7634" /><line stroke="rgb(255,0,0)" stroke-width="1" x1="62.5729" x2="64.0729" y1="44.7634" y2="45.8532" /><line stroke="rgb(255,0,0)" stroke-width="1" x1="64.0729" x2="65.9271" y1="45.8532" y2="45.8532" /><line stroke="rgb(255,0,0)" stroke-width="1" x1="65.9271" x2="67.4271" y1="45.8532" y2="44.7634" /><line stroke="rgb(255,0,0)" stroke-width="1" x1="67.4271" x2="68.0" y1="44.7634" y2="43.0" /><line stroke="rgb(255,0,0)" stroke-width="1" x1="68.0" x2="68.0" y1="57.0" y2="73.0" /><line stroke="rgb(255,0,0)" stroke-width="1" x1="62.0" x2="62.0" y1="57.0" y2="73.0" /><line stroke="rgb(255,0,0)" stroke-width="1" x1="62.0" x2="62.5729" y1="57.0" y2="55.2366" /><line stroke="rgb(255,0,0)" stroke-width="1" x1="62.5729" x2="64.0729" y1="55.2366" y2="54.1468" /><line stroke="rgb(255,0,0)" stroke-width="1" x1="64.0729" x2="65.9271" y1="54.1468" y2="54.1468" /><line stroke="rgb(255,0,0)" stroke-width="1" x1="65.9271" x2="67.4271" y1="54.1468" y2="55.2366" /><line stroke="rgb(255,0,0)" stroke-width="1" x1="67.4271" x2="68.0" y1="55.2366" y2="57.0" /><line stroke="rgb(255,0,0)" stroke-width="1" x1="62.0" x2="62.5729" y1="73.0" y2="74.7634" /><line stroke="rgb(255,0,0)" stroke-width="1" x1="62.5729" x2="64.0729" y1="74.7634" y2="75.8532" /><line stroke="rgb(255,0,0)" stroke-width="1" x1="64.0729" x2="65.9271" y1="75.8532" y2="75.8532" /><line stroke="rgb(255,0,0)" stroke-width="1" x1="65.9271" x2="67.4271" y1="75.8532" y2="74.7634" /><line stroke="rgb(255,0,0)" stroke-width="1" x1="67.4271" x2="68.0" y1="74.7634" y2="73.0" /><line stroke="rgb(255,0,0)" stroke-width="1" x1="83.0" x2="83.0" y1="20.0" y2="28.0" /><line stroke="rgb(255,0,0)" stroke-width="1" x1="77.0" x2="77.0" y1="20.0" y2="28.0" /><line stroke="rgb(255,0,0)" stroke-width="1" x1="77.0" x2="77.5729" y1="20.0" y2="18.2366" /><line stroke="rgb(255,0,0)" stroke-width="1" x1="77.5729" x2="79.0729" y1="18.2366" y2="17.1468" /><line stroke="rgb(255,0,0)" stroke-width="1" x1="79.0729" x2="80.9271" y1="17.1468" y2="17.1468" /><line stroke="rgb(255,0,0)" stroke-width="1" x1="80.9271" x2="82.4271" y1="17.1468" y2="18.2366" /><line stroke="rgb(255,0,0)" stroke-width="1" x1="82.4271" x2="83.0" y1="18.2366" y2="20.0" /><line stroke="rgb(255,0,0)" stroke-width="1" x1="77.0" x2="77.5729" y1="28.0" y2="29.7634" /><line stroke="rgb(255,0,0)" stroke-width="1" x1="77.5729" x2="79.0729" y1="29.7634" y2="30.8532" /><line stroke="rgb(255,0,0)" stroke-width="1" x1="79.0729" x2="80.9271" y1="30.8532" y2="30.8532" /><line stroke="rgb(255,0,0)" stroke-width="1" x1="80.9271" x2="82.4271" y1="30.8532" y2="29.7634" /><line stroke="rgb(255,0,0)" stroke-width="1" x1="82.4271" x2="83.0" y1="29.7634" y2="28.0" /><line stroke="rgb(255,0,0)" stroke-width="1" x1="83.0" x2="83.0" y1="42.0" y2="58.0" /><line stroke="rgb(255,0,0)" stroke-width="1" x1="77.0" x2="77.0" y1="42.0" y2="58.0" /><line stroke="rgb(255,0,0)" stroke-width="1" x1="77.0" x2="77.5729" y1="42.0" y2="40.2366" /><line stroke="rgb(255,0,0)" stroke-width="1" x1="77.5729" x2="79.0729" y1="40.2366" y2="39.1468" /><line stroke="rgb(255,0,0)" stroke-width="1" x1="79.0729" x2="80.9271" y1="39.1468" y2="39.1468" /><line stroke="rgb(255,0,0)" stroke-width="1" x1="80.9271" x2="82.4271" y1="39.1468" y2="40.2366" /><line stroke="rgb(255,0,0)" stroke-width="1" x1="82.4271" x2="83.0" y1="40.2366" y2="42.0" /><line stroke="rgb(255,0,0)" stroke-width="1" x1="77.0" x2="77.5729" y1="58.0" y2="59.7634" /><line stroke="rgb(255,0,0)" stroke-width="1" x1="77.5729" x2="79.0729" y1="59.7634" y2="60.8532" /><line stroke="rgb(255,0,0)" stroke-width="1" x1="79.0729" x2="80.9271" y1="60.8532" y2="60.8532" /><line stroke="rgb(255,0,0)" stroke-width="1" x1="80.9271" x2="82.4271" y1="60.8532" y2="59.7634" /><line stroke="rgb(255,0,0)" stroke-width="1" x1="82.4271" x2="83.0" y1="59.7634" y2="58.0" /><line stroke="rgb(255,0,0)" stroke-width="1" x1="83.0" x2="83.0" y1="72.0" y2="80.0" /><line stroke="rgb(255,0,0)" stroke-width="1" x1="77.0" x2="77.0" y1="72.0" y2="80.0" /><line stroke="rgb(255,0,0)" stroke-width="1" x1="77.0" x2="77.5729" y1="72.0" y2="70.2366" /><line stroke="rgb(255,0,0)" stroke-width="1" x1="77.5729" x2="79.0729" y1="70.2366" y2="69.1468" /><line stroke="rgb(255,0,0)" stroke-width="1" x1="79.0729" x2="80.9271" y1="69.1468" y2="69.1468" /><line stroke="rgb(255,0,0)" stroke-width="1" x1="80.9271" x2="82.4271" y1="69.1468" y2="70.2366" /><line stroke="rgb(255,0,0)" stroke-width="1" x1="82.4271" x2="83.0" y1="70.2366" y2="72.0" /><line stroke="rgb(255,0,0)" stroke-width="1" x1="77.0" x2="77.5729" y1="80.0" y2="81.7634" /><line stroke="rgb(255,0,0)" stroke-width="1" x1="77.5729" x2="79.0729" y1="81.7634" y2="82.8532" /><line stroke="rgb(255,0,0)" stroke-width="1" x1="79.0729" x2="80.9271" y1="82.8532" y2="82.8532" /><line stroke="rgb(255,0,0)" stroke-width="1" x1="80.9271" x2="82.4271" y1="82.8532" y2="81.7634" /><line stroke="rgb(255,0,0)" stroke-width="1" x1="82.4271" x2="83.0" y1="81.7634" y2="80.0" /><line stroke="rgb(255,0,0)" stroke-width="1" x1="0" x2="100.0" y1="0" y2="0" /><line stroke="rgb(255,0,0)" stroke-width="1" x1="100.0" x2="100.0" y1="0" y2="100.0" /><line stroke="rgb(255,0,0)" stroke-width="1" x1="100.0" x2="0" y1="100.0" y2="100.0" /><line stroke="rgb(255,0,0)" stroke-width="1" x1="0" x2="0" y1="100.0" y2="0" /></svg>