<?xml version="1.0" encoding="utf-8" ?>
<svg baseProfile="tiny" height="100%" version="1.2" width="100%" xmlns="http://www.w3.org/2000/svg" xmlns:ev="http://www.w3.org/2001/xml-events" xmlns:xlink="http://www.w3.org/1999/xlink"><defs /><line stroke="rgb(255,0,0)" stroke-width="1" x1="20.0" x2="27.0" y1="37.0" y2="37.0" /><line stroke="rgb(255,0,0)" stroke-width="1" x1="20.0" x2="27.0" y1="31.0" y2="31.0" /><line stroke="rgb(255,0,0)" stroke-width="1" x1="20.0" x2="18.2366" y1="31.0" y2="31.5729" /><line stroke="rgb(255,0,0)" stroke-width="1" x1="18.2366" x2="17.1468" y1="31.5729" y2="33.0729" /><line stroke="rgb(255,0,0)" stroke-width="1" x1="17.1468" x2="17.1468" y1="33.0729" y2="34.9271" /><line stroke="rgb(255,0,0)" stroke-width="1" x1="17.1468" x2="18.2366" y1="34.9271" y2="36.4271" /><line stroke="rgb(255,0,0)" stroke-width="1" x1="18.2366" x2="20.0" y1="36.4271" y2="37.0" /><line stroke="rgb(255,0,0)" stroke-width="1" x1="27.0" x2="28.7634" y1="37.0" y2="36.4271" /><line stroke="rgb(255,0,0)" stroke-width="1" x1="28.7634" x2="29.8532" y1="36.4271" y2="34.9271" /><line stroke="rgb(255,0,0)" stroke-width="1" x1="29.8532" x2="29.8532" y1="34.9271" y2="33.0729" /><line stroke="rgb(255,0,0)" stroke-width="1" x1="29.8532" x2="28.7634" y1="33.0729" y2="31.5729" /><line stroke="rgb(255,0,0)" stroke-width="1" x1="28.7634" x2="27.0" y1="31.5729" y2="31.0" /><line stroke="rgb(255,0,0)" stroke-width="1" x1="41.0" x2="55.0" y1="37.0" y2="37.0" /><line stroke="rgb(255,0,0)" stroke-width="1" x1="41.0" x2="55.0" y1="31.0" y2="31.0" /><line stroke="rgb(255,0,0)" stroke-width="1" x1="41.0" x2="39.2366" y1="31.0" y2="31.5729" /><line stroke="rgb(255,0,0)" stroke-width="1" x1="39.2366" x2="38.1468" y1="31.5729" y2="33.0729" /><line stroke="rgb(255,0,0)" stroke-width="1" x1="38.1468" x2="38.1468" y1="33.0729" y2="34.9271" /><line stroke="rgb(255,0,0)" stroke-width="1" x1="38.1468" x2="39.2366" y1="34.9271" y2="36.4271" /><line stroke="rgb(255,0,0)" stroke-width="1" x1="39.2366" x2="41.0" y1="36.4271" y2="37.0" /><line stroke="rgb(255,0,0)" stroke-width="1" x1="55.0" x2="56.7634" y1="37.0" y2="36.4271" /><line stroke="rgb(255,0,0)" stroke-width="1" x1="56.7634" x2="57.8532" y1="36.4271" y2="34.9271" /><line stroke="rgb(255,0,0)" stroke-width="1" x1="57.8532" x2="57.8532" y1="34.9271" y2="33.0729" /><line stroke="rgb(255,0,0)" stroke-width="1" x1="57.8532" x2="56.7634" y1="33.0729" y2="31.5729" /><line stroke="rgb(255,0,0)" stroke-width="1" x1="56.7634" x2="55.0" y1="31.5729" y2="31.0" /><line stroke="rgb(255,0,0)" stroke-width="1" x1="27.0" x2="41.0" y1="51.0" y2="51.0" /><line stroke="rgb(255,0,0)" stroke-width="1" x1="27.0" x2="41.0" y1="45.0" y2="45.0" /><line stroke="rgb(255,0,0)" stroke-width="1" x1="27.0" x2="25.2366" y1="45.0" y2="45.5729" /><line stroke="rgb(255,0,0)" stroke-width="1" x1="25.2366" x2="24.1468" y1="45.5729" y2="47.0729" /><line stroke="rgb(255,0,0)" stroke-width="1" x1="24.1468" x2="24.1468" y1="47.0729" y2="48.9271" /><line stroke="rgb(255,0,0)" stroke-width="1" x1="24.1468" x2="25.2366" y1="48.9271" y2="50.4271" /><line stroke="rgb(255,0,0)" stroke-width="1" x1="25.2366" x2="27.0" y1="50.4271" y2="51.0" /><line stroke="rgb(255,0,0)" stroke-width="1" x1="41.0" x2="42.7634" y1="51.0" y2="50.4271" /><line stroke="rgb(255,0,0)" stroke-width="1" x1="42.7634" x2="43.8532" y1="50.4271" y2="48.9271" /><line stroke="rgb(255,0,0)" stroke-width="1" x1="43.8532" x2="43.8532" y1="48.9271" y2="47.0729" /><line stroke="rgb(255,0,0)" stroke-width="1" x1="43.8532" x2="42.7634" y1="47.0729" y2="45.5729" /><line stroke="rgb(255,0,0)" stroke-width="1" x1="42.7634" x2="41.0" y1="45.5729" y2="45.0" /><line stroke="rgb(255,0,0)" stroke-width="1" x1="23.0" x2="23.0" y1="20.0" y2="27.0" /><line stroke="rgb(255,0,0)" stroke-width="1" x1="17.0" x2="17.0" y1="20.0" y2="27.0" /><line stroke="rgb(255,0,0)" stroke-width="1" x1="17.0" x2="17.5729" y1="20.0" y2="18.2366" /><line stroke="rgb(255,0,0)" stroke-width="1" x1="17.5729" x2="19.0729" y1="18.2366" y2="17.1468" /><line stroke="rgb(255,0,0)" stroke-width="1" x1="19.0729" x2="20.9271" y1="17.1468" y2="17.1468" /><line stroke="rgb(255,0,0)" stroke-width="1" x1="20.9271" x2="22.4271" y1="17.1468" y2="18.2366" /><line stroke="rgb(255,0,0)" stroke-width="1" x1="22.4271" x2="23.0" y1="18.2366" y2="20.0" /><line stroke="rgb(255,0,0)" stroke-width="1" x1="17.0" x2="17.5729" y1="27.0" y2="28.7634" /><line stroke="rgb(255,0,0)" stroke-width="1" x1="17.5729" x2="19.0729" y1="28.7634" y2="29.8532" /><line stroke="rgb(255,0,0)" stroke-width="1" x1="19.0729" x2="20.9271" y1="29.8532" y2="29.8532" /><line stroke="rgb(255,0,0)" stroke-width="1" x1="20.9271" x2="22.4271" y1="29.8532" y2="28.7634" /><line stroke="rgb(255,0,0)" stroke-width="1" x1="22.4271" x2="23.0" y1="28.7634" y2="27.0" /><line stroke="rgb(255,0,0)" stroke-width="1" x1="23.0" x2="23.0" y1="41.0" y2="55.0" /><line stroke="rgb(255,0,0)" stroke-width="1" x1="17.0" x2="17.0" y1="41.0" y2="55.0" /><line stroke="rgb(255,0,0)" stroke-width="1" x1="17.0" x2="17.5729" y1="41.0" y2="39.2366" /><line stroke="rgb(255,0,0)" stroke-width="1" x1="17.5729" x2="19.0729" y1="39.2366" y2="38.1468" /><line stroke="rgb(255,0,0)" stroke-width="1" x1="19.0729" x2="20.9271" y1="38.1468" y2="38.1468" /><line stroke="rgb(255,0,0)" stroke-width="1" x1="20.9271" x2="22.4271" y1="38.1468" y2="39.2366" /><line stroke="rgb(255,0,0)" stroke-width="1" x1="22.4271" x2="23.0" y1="39.2366" y2="41.0" /><line stroke="rgb(255,0,0)" stroke-width="1" x1="17.0" x2="17.5729" y1="55.0" y2="56.7634" /><line stroke="rgb(255,0,0)" stroke-width="1" x1="17.5729" x2="19.0729" y1="56.7634" y2="57.8532" /><line stroke="rgb(255,0,0)" stroke-width="1" x1="19.0729" x2="20.9271" y1="57.8532" y2="57.8532" /><line stroke="rgb(255,0,0)" stroke-width="1" x1="20.9271" x2="22.4271" y1="57.8532" y2="56.7634" /><line stroke="rgb(255,0,0)" stroke-width="1" x1="22.4271" x2="23.0" y1="56.7634" y2="55.0" /><line stroke="rgb(255,0,0)" stroke-width="1" x1="37.0" x2="37.0" y1="27.0" y2="41.0" /><line stroke="rgb(255,0,0)" stroke-width="1" x1="31.0" x2="31.0" y1="27.0" y2="41.0" /><line stroke="rgb(255,0,0)" stroke-width="1" x1="31.0" x2="31.5729" y1="27.0" y2="25.2366" /><line stroke="rgb(255,0,0)" stroke-width="1" x1="31.5729" x2="33.0729" y1="25.2366" y2="24.1468" /><line stroke="rgb(255,0,0)" stroke-width="1" x1="33.0729" x2="34.9271" y1="24.1468" y2="24.1468" /><line stroke="rgb(255,0,0)" stroke-width="1" x1="34.9271" x2="36.4271" y1="24.1468" y2="25.2366" /><line stroke="rgb(255,0,0)" stroke-width="1" x1="36.4271" x2="37.0" y1="25.2366" y2="27.0" /><line stroke="rgb(255,0,0)" stroke-width="1" x1="31.0" x2="31.5729" y1="41.0" y2="42.7634" /><line stroke="rgb(255,0,0)" stroke-width="1" x1="31.5729" x2="33.0729" y1="42.7634" y2="43.8532" /><line stroke="rgb(255,0,0)" stroke-width="1" x1="33.0729" x2="34.9271" y1="43.8532" y2="43.8532" /><line stroke="rgb(255,0,0)" stroke-width="1" x1="34.9271" x2="36.4271" y1="43.8532" y2="42.7634" /><line stroke="rgb(255,0,0)" stroke-width="1" x1="36.4271" x2="37.0" y1="42.7634" y2="41.0" /><line stroke="rgb(255,0,0)" stroke-width="1" x1="51.0" x2="51.0" y1="20.0" y2="27.0" /><line stroke="rgb(255,0,0)" stroke-width="1" x1="45.0" x2="45.0" y1="20.0" y2="27.0" /><line stroke="rgb(255,0,0)" stroke-width="1" x1="45.0" x2="45.5729" y1="20.0" y2="18.2366" /><line stroke="rgb(255,0,0)" stroke-width="1" x1="45.5729" x2="47.0729" y1="18.2366" y2="17.1468" /><line stroke="rgb(255,0,0)" stroke-width="1" x1="47.0729" x2="48.9271" y1="17.1468" y2="17.1468" /><line stroke="rgb(255,0,0)" stroke-width="1" x1="48.9271" x2="50.4271" y1="17.1468" y2="18.2366" /><line stroke="rgb(255,0,0)" stroke-width="1" x1="50.4271" x2="51.0" y1="18.2366" y2="20.0" /><line stroke="rgb(255,0,0)" stroke-width="1" x1="45.0" x2="45.5729" y1="27.0" y2="28.7634" /><line stroke="rgb(255,0,0)" stroke-width="1" x1="45.5729" x2="47.0729" y1="28.7634" y2="29.8532" /><line stroke="rgb(255,0,0)" stroke-width="1" x1="47.0729" x2="48.9271" y1="29.8532" y2="29.8532" /><line stroke="rgb(255,0,0)" stroke-width="1" x1="48.9271" x2="50.4271" y1="29.8532" y2="28.7634" /><line stroke="rgb(255,0,0)" stroke-width="1" x1="50.4271" x2="51.0" y1="28.7634" y2="27.0" /><line stroke="rgb(255,0,0)" stroke-width="1" x1="51.0" x2="51.0" y1="41.0" y2="55.0" /><line stroke="rgb(255,0,0)" stroke-width="1" x1="45.0" x2="45.0" y1="41.0" y2="55.0" /><line stroke="rgb(255,0,0)" stroke-width="1" x1="45.0" x2="45.5729" y1="41.0" y2="39.2366" /><line stroke="rgb(255,0,0)" stroke-width="1" x1="45.5729" x2="47.0729" y1="39.2366" y2="38.1468" /><line stroke="rgb(255,0,0)" stroke-width="1" x1="47.0729" x2="48.9271" y1="38.1468" y2="38.1468" /><line stroke="rgb(255,0,0)" stroke-width="1" x1="48.9271" x2="50.4271" y1="38.1468" y2="39.2366" /><line stroke="rgb(255,0,0)" stroke-width="1" x1="50.4271" x2="51.0" y1="39.2366" y2="41.0" /><line stroke="rgb(255,0,0)" stroke-width="1" x1="45.0" x2="45.5729" y1="55.0" y2="56.7634" /><line stroke="rgb(255,0,0)" stroke-width="1" x1="45.5729" x2="47.0729" y1="56.7634" y2="57.8532" /><line stroke="rgb(255,0,0)" stroke-width="1" x1="47.0729" x2="48.9271" y1="57.8532" y2="57.8532" /><line stroke="rgb(255,0,0)" stroke-width="1" x1="48.9271" x2="50.4271" y1="57.8532" y2="56.7634" /><line stroke="rgb(255,0,0)" stroke-width="1" x1="50.4271" x2="51.0" y1="56.7634" y2="55.0" /><line stroke="rgb(255,0,0)" stroke-width="1" x1="65.0" x2="65.0" y1="27.0" y2="41.0" /><line stroke="rgb(255,0,0)" stroke-width="1" x1="59.0" x2="59.0" y1="27.0" y2="41.0" /><line stroke="rgb(255,0,0)" stroke-width="1" x1="59.0" x2="59.5729" y1="27.0" y2="25.2366" /><line stroke="rgb(255,0,0)" stroke-width="1" x1="59.5729" x2="61.0729" y1="25.2366" y2="24.1468" /><line stroke="rgb(255,0,0)" stroke-width="1" x1="61.0729" x2="62.9271" y1="24.1468" y2="24.1468" /><line stroke="rgb(255,0,0)" stroke-width="1" x1="62.9271" x2="64.4271" y1="24.1468" y2="25.2366" /><line stroke="rgb(255,0,0)" stroke-width="1" x1="64.4271" x2="65.0" y1="25.2366" y2="27.0" /><line stroke="rgb(255,0,0)" stroke-width="1" x1="59.0" x2="59.5729" y1="41.0" y2="42.7634" /><line stroke="rgb(255,0,0)" stroke-width="1" x1="59.5729" x2="61.0729" y1="42.7634" y2="43.8532" /><line stroke="rgb(255,0,0)" stroke-width="1" x1="61.0729" x2="62.9271" y1="43.8532" y2="43.8532" /><line stroke="rgb(255,0,0)" stroke-width="1" x1="62.9271" x2="64.4271" y1="43.8532" y2="42.7634" /><line stroke="rgb(255,0,0)" stroke-width="1" x1="64.4271" x2="65.0" y1="42.7634" y2="41.0" /><line stroke="rgb(255,0,0)" stroke-width="1" x1="0" x2="82.0" y1="0" y2="0" /><line stroke="rgb(255,0,0)" stroke-width="1" x1="82.0" x2="82.0" y1="0" y2="82.0" /><line stroke="rgb(255,0,0)" stroke-width="1" x1="82.0" x2="0" y1="82.0" y2="82.0" /><line stroke="rgb(255,0,0)" stroke-width="1" x1="0" x2="0" y1="82.0" y2="0" /></svg>