<?xml version="1.0" encoding="utf-8" ?>
<svg baseProfile="tiny" height="100%" version="1.2" width="100%" xmlns="http://www.w3.org/2000/svg" xmlns:ev="http://www.w3.org/2001/xml-events" xmlns:xlink="http://www.w3.org/1999/xlink"><defs /><line stroke="rgb(255,0,0)" stroke-width="1" x1="7.5" x2="32.5" y1="43.0" y2="43.0" /><line stroke="rgb(255,0,0)" stroke-width="1" x1="7.5" x2="32.5" y1="37.0" y2="37.0" /><line stroke="rgb(255,0,0)" stroke-width="1" x1="7.5" x2="5.7366" y1="37.0" y2="37.5729" /><line stroke="rgb(255,0,0)" stroke-width="1" x1="5.7366" x2="4.6468" y1="37.5729" y2="39.0729" /><line stroke="rgb(255,0,0)" stroke-width="1" x1="4.6468" x2="4.6468" y1="39.0729" y2="40.9271" /><line stroke="rgb(255,0,0)" stroke-width="1" x1="4.6468" x2="5.7366" y1="40.9271" y2="42.4271" /><line stroke="rgb(255,0,0)" stroke-width="1" x1="5.7366" x2="7.5" y1="42.4271" y2="43.0" /><line stroke="rgb(255,0,0)" stroke-width="1" x1="32.5" x2="34.2634" y1="43.0" y2="42.4271" /><line stroke="rgb(255,0,0)" stroke-width="1" x1="34.2634" x2="35.3532" y1="42.4271" y2="40.9271" /><line stroke="rgb(255,0,0)" stroke-width="1" x1="35.3532" x2="35.3532" y1="40.9271" y2="39.0729" /><line stroke="rgb(255,0,0)" stroke-width="1" x1="35.3532" x2="34.2634" y1="39.0729" y2="37.5729" /><line stroke="rgb(255,0,0)" stroke-width="1" x1="34.2634" x2="32.5" y1="37.5729" y2="37.0" /><line stroke="rgb(255,0,0)" stroke-width="1" x1="47.5" x2="72.5" y1="43.0" y2="43.0" /><line stroke="rgb(255,0,0)" stroke-width="1" x1="47.5" x2="72.5" y1="37.0" y2="37.0" /><line stroke="rgb(255,0,0)" stroke-width="1" x1="47.5" x2="45.7366" y1="37.0" y2="37.5729" /><line stroke="rgb(255,0,0)" stroke-width="1" x1="45.7366" x2="44.6468" y1="37.5729" y2="39.0729" /><line stroke="rgb(255,0,0)" stroke-width="1" x1="44.6468" x2="44.6468" y1="39.0729" y2="40.9271" /><line stroke="rgb(255,0,0)" stroke-width="1" x1="44.6468" x2="45.7366" y1="40.9271" y2="42.4271" /><line stroke="rgb(255,0,0)" stroke-width="1" x1="45.7366" x2="47.5" y1="42.4271" y2="43.0" /><line stroke="rgb(255,0,0)" stroke-width="1" x1="72.5" x2="74.2634" y1="43.0" y2="42.4271" /><line stroke="rgb(255,0,0)" stroke-width="1" x1="74.2634" x2="75.3532" y1="42.4271" y2="40.9271" /><line stroke="rgb(255,0,0)" stroke-width="1" x1="75.3532" x2="75.3532" y1="40.9271" y2="39.0729" /><line stroke="rgb(255,0,0)" stroke-width="1" x1="75.3532" x2="74.2634" y1="39.0729" y2="37.5729" /><line stroke="rgb(255,0,0)" stroke-width="1" x1="74.2634" x2="72.5" y1="37.5729" y2="37.0" /><line stroke="rgb(255,0,0)" stroke-width="1" x1="23.0" x2="23.0" y1="7.5" y2="32.5" /><line stroke="rgb(255,0,0)" stroke-width="1" x1="17.0" x2="17.0" y1="7.5" y2="32.5" /><line stroke="rgb(255,0,0)" stroke-width="1" x1="17.0" x2="17.5729" y1="7.5" y2="5.7366" /><line stroke="rgb(255,0,0)" stroke-width="1" x1="17.5729" x2="19.0729" y1="5.7366" y2="4.6468" /><line stroke="rgb(255,0,0)" stroke-width="1" x1="19.0729" x2="20.9271" y1="4.6468" y2="4.6468" /><line stroke="rgb(255,0,0)" stroke-width="1" x1="20.9271" x2="22.4271" y1="4.6468" y2="5.7366" /><line stroke="rgb(255,0,0)" stroke-width="1" x1="22.4271" x2="23.0" y1="5.7366" y2="7.5" /><line stroke="rgb(255,0,0)" stroke-width="1" x1="17.0" x2="17.5729" y1="32.5" y2="34.2634" /><line stroke="rgb(255,0,0)" stroke-width="1" x1="17.5729" x2="19.0729" y1="34.2634" y2="35.3532" /><line stroke="rgb(255,0,0)" stroke-width="1" x1="19.0729" x2="20.9271" y1="35.3532" y2="35.3532" /><line stroke="rgb(255,0,0)" stroke-width="1" x1="20.9271" x2="22.4271" y1="35.3532" y2="34.2634" /><line stroke="rgb(255,0,0)" stroke-width="1" x1="22.4271" x2="23.0" y1="34.2634" y2="32.5" /><line stroke="rgb(255,0,0)" stroke-width="1" x1="23.0" x2="23.0" y1="47.5" y2="72.5" /><line stroke="rgb(255,0,0)" stroke-width="1" x1="17.0" x2="17.0" y1="47.5" y2="72.5" /><line stroke="rgb(255,0,0)" stroke-width="1" x1="17.0" x2="17.5729" y1="47.5" y2="45.7366" /><line stroke="rgb(255,0,0)" stroke-width="1" x1="17.5729" x2="19.0729" y1="45.7366" y2="44.6468" /><line stroke="rgb(255,0,0)" stroke-width="1" x1="19.0729" x2="20.9271" y1="44.6468" y2="44.6468" /><line stroke="rgb(255,0,0)" stroke-width="1" x1="20.9271" x2="22.4271" y1="44.6468" y2="45.7366" /><line stroke="rgb(255,0,0)" stroke-width="1" x1="22.4271" x2="23.0" y1="45.7366" y2="47.5" /><line stroke="rgb(255,0,0)" stroke-width="1" x1="17.0" x2="17.5729" y1="72.5" y2="74.2634" /><line stroke="rgb(255,0,0)" stroke-width="1" x1="17.5729" x2="19.0729" y1="74.2634" y2="75.3532" /><line stroke="rgb(255,0,0)" stroke-width="1" x1="19.0729" x2="20.9271" y1="75.3532" y2="75.3532" /><line stroke="rgb(255,0,0)" stroke-width="1" x1="20.9271" x2="22.4271" y1="75.3532" y2="74.2634" /><line stroke="rgb(255,0,0)" stroke-width="1" x1="22.4271" x2="23.0" y1="74.2634" y2="72.5" /><line stroke="rgb(255,0,0)" stroke-width="1" x1="43.0" x2="43.0" y1="27.5" y2="52.5" /><line stroke="rgb(255,0,0)" stroke-width="1" x1="37.0" x2="37.0" y1="27.5" y2="52.5" /><line stroke="rgb(255,0,0)" stroke-width="1" x1="37.0" x2="37.5729" y1="27.5" y2="25.7366" /><line stroke="rgb(255,0,0)" stroke-width="1" x1="37.5729" x2="39.0729" y1="25.7366" y2="24.6468" /><line stroke="rgb(255,0,0)" stroke-width="1" x1="39.0729" x2="40.9271" y1="24.6468" y2="24.6468" /><line stroke="rgb(255,0,0)" stroke-width="1" x1="40.9271" x2="42.4271" y1="24.6468" y2="25.7366" /><line stroke="rgb(255,0,0)" stroke-width="1" x1="42.4271" x2="43.0" y1="25.7366" y2="27.5" /><line stroke="rgb(255,0,0)" stroke-width="1" x1="37.0" x2="37.5729" y1="52.5" y2="54.2634" /><line stroke="rgb(255,0,0)" stroke-width="1" x1="37.5729" x2="39.0729" y1="54.2634" y2="55.3532" /><line stroke="rgb(255,0,0)" stroke-width="1" x1="39.0729" x2="40.9271" y1="55.3532" y2="55.3532" /><line stroke="rgb(255,0,0)" stroke-width="1" x1="40.9271" x2="42.4271" y1="55.3532" y2="54.2634" /><line stroke="rgb(255,0,0)" stroke-width="1" x1="42.4271" x2="43.0" y1="54.2634" y2="52.5" /><line stroke="rgb(255,0,0)" stroke-width="1" x1="63.0" x2="63.0" y1="7.5" y2="32.5" /><line stroke="rgb(255,0,0)" stroke-width="1" x1="57.0" x2="57.0" y1="7.5" y2="32.5" /><line stroke="rgb(255,0,0)" stroke-width="1" x1="57.0" x2="57.5729" y1="7.5" y2="5.7366" /><line stroke="rgb(255,0,0)" stroke-width="1" x1="57.5729" x2="59.0729" y1="5.7366" y2="4.6468" /><line stroke="rgb(255,0,0)" stroke-width="1" x1="59.0729" x2="60.9271" y1="4.6468" y2="4.6468" /><line stroke="rgb(255,0,0)" stroke-width="1" x1="60.9271" x2="62.4271" y1="4.6468" y2="5.7366" /><line stroke="rgb(255,0,0)" stroke-width="1" x1="62.4271" x2="63.0" y1="5.7366" y2="7.5" /><line stroke="rgb(255,0,0)" stroke-width="1" x1="57.0" x2="57.5729" y1="32.5" y2="34.2634" /><line stroke="rgb(255,0,0)" stroke-width="1" x1="57.5729" x2="59.0729" y1="34.2634" y2="35.3532" /><line stroke="rgb(255,0,0)" stroke-width="1" x1="59.0729" x2="60.9271" y1="35.3532" y2="35.3532" /><line stroke="rgb(255,0,0)" stroke-width="1" x1="60.9271" x2="62.4271" y1="35.3532" y2="34.2634" /><line stroke="rgb(255,0,0)" stroke-width="1" x1="62.4271" x2="63.0" y1="34.2634" y2="32.5" /><line stroke="rgb(255,0,0)" stroke-width="1" x1="63.0" x2="63.0" y1="47.5" y2="72.5" /><line stroke="rgb(255,0,0)" stroke-width="1" x1="57.0" x2="57.0" y1="47.5" y2="72.5" /><line stroke="rgb(255,0,0)" stroke-width="1" x1="57.0" x2="57.5729" y1="47.5" y2="45.7366" /><line stroke="rgb(255,0,0)" stroke-width="1" x1="57.5729" x2="59.0729" y1="45.7366" y2="44.6468" /><line stroke="rgb(255,0,0)" stroke-width="1" x1="59.0729" x2="60.9271" y1="44.6468" y2="44.6468" /><line stroke="rgb(255,0,0)" stroke-width="1" x1="60.9271" x2="62.4271" y1="44.6468" y2="45.7366" /><line stroke="rgb(255,0,0)" stroke-width="1" x1="62.4271" x2="63.0" y1="45.7366" y2="47.5" /><line stroke="rgb(255,0,0)" stroke-width="1" x1="57.0" x2="57.5729" y1="72.5" y2="74.2634" /><line stroke="rgb(255,0,0)" stroke-width="1" x1="57.5729" x2="59.0729" y1="74.2634" y2="75.3532" /><line stroke="rgb(255,0,0)" stroke-width="1" x1="59.0729" x2="60.9271" y1="75.3532" y2="75.3532" /><line stroke="rgb(255,0,0)" stroke-width="1" x1="60.9271" x2="62.4271" y1="75.3532" y2="74.2634" /><line stroke="rgb(255,0,0)" stroke-width="1" x1="62.4271" x2="63.0" y1="74.2634" y2="72.5" /><line stroke="rgb(255,0,0)" stroke-width="1" x1="0" x2="80.0" y1="0" y2="0" /><line stroke="rgb(255,0,0)" stroke-width="1" x1="80.0" x2="80.0" y1="0" y2="80.0" /><line stroke="rgb(255,0,0)" stroke-width="1" x1="80.0" x2="0" y1="80.0" y2="80.0" /><line stroke="rgb(255,0,0)" stroke-width="1" x1="0" x2="0" y1="80.0" y2="0" /></svg>