  0
SECTION
  2
HEADER
  9
$ACADVER
  1
AC1024
  9
$ACADMAINTVER
 70
6
  9
$DWGCODEPAGE
  3
ANSI_1252
  9
$LASTSAVEDBY
  1
ezdxf
  9
$INSBASE
 10
0.0
 20
0.0
 30
0.0
  9
$EXTMIN
 10
1e+20
 20
1e+20
 30
1e+20
  9
$EXTMAX
 10
-1e+20
 20
-1e+20
 30
-1e+20
  9
$LIMMIN
 10
0.0
 20
0.0
  9
$LIMMAX
 10
420.0
 20
297.0
  9
$ORTHOMODE
 70
0
  9
$REGENMODE
 70
1
  9
$FILLMODE
 70
1
  9
$QTEXTMODE
 70
0
  9
$MIRRTEXT
 70
1
  9
$LTSCALE
 40
1.0
  9
$ATTMODE
 70
1
  9
$TEXTSIZE
 40
2.5
  9
$TRACEWID
 40
1.0
  9
$TEXTSTYLE
  7
Standard
  9
$CLAYER
  8
0
  9
$CELTYPE
  6
ByLayer
  9
$CECOLOR
 62
256
  9
$CELTSCALE
 40
1.0
  9
$DISPSILH
 70
0
  9
$DIMSCALE
 40
1.0
  9
$DIMASZ
 40
2.5
  9
$DIMEXO
 40
0.625
  9
$DIMDLI
 40
3.75
  9
$DIMRND
 40
0.0
  9
$DIMDLE
 40
0.0
  9
$DIMEXE
 40
1.25
  9
$DIMTP
 40
0.0
  9
$DIMTM
 40
0.0
  9
$DIMTXT
 40
2.5
  9
$DIMCEN
 40
2.5
  9
$DIMTSZ
 40
0.0
  9
$DIMTOL
 70
0
  9
$DIMLIM
 70
0
  9
$DIMTIH
 70
0
  9
$DIMTOH
 70
0
  9
$DIMSE1
 70
0
  9
$DIMSE2
 70
0
  9
$DIMTAD
 70
1
  9
$DIMZIN
 70
8
  9
$DIMBLK
  1

  9
$DIMASO
 70
1
  9
$DIMSHO
 70
1
  9
$DIMPOST
  1

  9
$DIMAPOST
  1

  9
$DIMALT
 70
0
  9
$DIMALTD
 70
3
  9
$DIMALTF
 40
0.03937007874
  9
$DIMLFAC
 40
1.0
  9
$DIMTOFL
 70
1
  9
$DIMTVP
 40
0.0
  9
$DIMTIX
 70
0
  9
$DIMSOXD
 70
0
  9
$DIMSAH
 70
0
  9
$DIMBLK1
  1

  9
$DIMBLK2
  1

  9
$DIMSTYLE
  2
ISO-25
  9
$DIMCLRD
 70
0
  9
$DIMCLRE
 70
0
  9
$DIMCLRT
 70
0
  9
$DIMTFAC
 40
1.0
  9
$DIMGAP
 40
0.625
  9
$DIMJUST
 70
0
  9
$DIMSD1
 70
0
  9
$DIMSD2
 70
0
  9
$DIMTOLJ
 70
0
  9
$DIMTZIN
 70
8
  9
$DIMALTZ
 70
0
  9
$DIMALTTZ
 70
0
  9
$DIMUPT
 70
0
  9
$DIMDEC
 70
2
  9
$DIMTDEC
 70
2
  9
$DIMALTU
 70
2
  9
$DIMALTTD
 70
3
  9
$DIMTXSTY
  7
Standard
  9
$DIMAUNIT
 70
0
  9
$DIMADEC
 70
0
  9
$DIMALTRND
 40
0.0
  9
$DIMAZIN
 70
0
  9
$DIMDSEP
 70
44
  9
$DIMATFIT
 70
3
  9
$DIMFRAC
 70
0
  9
$DIMLDRBLK
  1

  9
$DIMLUNIT
 70
2
  9
$DIMLWD
 70
-2
  9
$DIMLWE
 70
-2
  9
$DIMTMOVE
 70
0
  9
$DIMFXL
 40
1.0
  9
$DIMFXLON
 70
0
  9
$DIMJOGANG
 40
0.785398163397
  9
$DIMTFILL
 70
0
  9
$DIMTFILLCLR
 70
0
  9
$DIMARCSYM
 70
0
  9
$DIMLTYPE
  6

  9
$DIMLTEX1
  6

  9
$DIMLTEX2
  6

  9
$DIMTXTDIRECTION
 70
0
  9
$LUNITS
 70
2
  9
$LUPREC
 70
4
  9
$SKETCHINC
 40
1.0
  9
$FILLETRAD
 40
10.0
  9
$AUNITS
 70
0
  9
$AUPREC
 70
2
  9
$MENU
  1
.
  9
$ELEVATION
 40
0.0
  9
$PELEVATION
 40
0.0
  9
$THICKNESS
 40
0.0
  9
$LIMCHECK
 70
0
  9
$CHAMFERA
 40
0.0
  9
$CHAMFERB
 40
0.0
  9
$CHAMFERC
 40
0.0
  9
$CHAMFERD
 40
0.0
  9
$SKPOLY
 70
0
  9
$TDCREATE
 40
2459635.662175926
  9
$TDUCREATE
 40
2458532.153996898
  9
$TDUPDATE
 40
2459635.662175926
  9
$TDUUPDATE
 40
2458532.1544311
  9
$TDINDWG
 40
0.0
  9
$TDUSRTIMER
 40
0.0
  9
$USRTIMER
 70
1
  9
$ANGBASE
 50
0.0
  9
$ANGDIR
 70
0
  9
$PDMODE
 70
0
  9
$PDSIZE
 40
0.0
  9
$PLINEWID
 40
0.0
  9
$SPLFRAME
 70
0
  9
$SPLINETYPE
 70
6
  9
$SPLINESEGS
 70
8
  9
$HANDSEED
  5
2CF
  9
$SURFTAB1
 70
6
  9
$SURFTAB2
 70
6
  9
$SURFTYPE
 70
6
  9
$SURFU
 70
6
  9
$SURFV
 70
6
  9
$UCSBASE
  2

  9
$UCSNAME
  2

  9
$UCSORG
 10
0.0
 20
0.0
 30
0.0
  9
$UCSXDIR
 10
1.0
 20
0.0
 30
0.0
  9
$UCSYDIR
 10
0.0
 20
1.0
 30
0.0
  9
$UCSORTHOREF
  2

  9
$UCSORTHOVIEW
 70
0
  9
$UCSORGTOP
 10
0.0
 20
0.0
 30
0.0
  9
$UCSORGBOTTOM
 10
0.0
 20
0.0
 30
0.0
  9
$UCSORGLEFT
 10
0.0
 20
0.0
 30
0.0
  9
$UCSORGRIGHT
 10
0.0
 20
0.0
 30
0.0
  9
$UCSORGFRONT
 10
0.0
 20
0.0
 30
0.0
  9
$UCSORGBACK
 10
0.0
 20
0.0
 30
0.0
  9
$PUCSBASE
  2

  9
$PUCSNAME
  2

  9
$PUCSORG
 10
0.0
 20
0.0
 30
0.0
  9
$PUCSXDIR
 10
1.0
 20
0.0
 30
0.0
  9
$PUCSYDIR
 10
0.0
 20
1.0
 30
0.0
  9
$PUCSORTHOREF
  2

  9
$PUCSORTHOVIEW
 70
0
  9
$PUCSORGTOP
 10
0.0
 20
0.0
 30
0.0
  9
$PUCSORGBOTTOM
 10
0.0
 20
0.0
 30
0.0
  9
$PUCSORGLEFT
 10
0.0
 20
0.0
 30
0.0
  9
$PUCSORGRIGHT
 10
0.0
 20
0.0
 30
0.0
  9
$PUCSORGFRONT
 10
0.0
 20
0.0
 30
0.0
  9
$PUCSORGBACK
 10
0.0
 20
0.0
 30
0.0
  9
$USERI1
 70
0
  9
$USERI2
 70
0
  9
$USERI3
 70
0
  9
$USERI4
 70
0
  9
$USERI5
 70
0
  9
$USERR1
 40
0.0
  9
$USERR2
 40
0.0
  9
$USERR3
 40
0.0
  9
$USERR4
 40
0.0
  9
$USERR5
 40
0.0
  9
$WORLDVIEW
 70
1
  9
$SHADEDGE
 70
3
  9
$SHADEDIF
 70
70
  9
$TILEMODE
 70
1
  9
$MAXACTVP
 70
64
  9
$PINSBASE
 10
0.0
 20
0.0
 30
0.0
  9
$PLIMCHECK
 70
0
  9
$PEXTMIN
 10
1e+20
 20
1e+20
 30
1e+20
  9
$PEXTMAX
 10
-1e+20
 20
-1e+20
 30
-1e+20
  9
$PLIMMIN
 10
0.0
 20
0.0
  9
$PLIMMAX
 10
420.0
 20
297.0
  9
$UNITMODE
 70
0
  9
$VISRETAIN
 70
1
  9
$PLINEGEN
 70
0
  9
$PSLTSCALE
 70
1
  9
$TREEDEPTH
 70
3020
  9
$CMLSTYLE
  2
Standard
  9
$CMLJUST
 70
0
  9
$CMLSCALE
 40
20.0
  9
$PROXYGRAPHICS
 70
1
  9
$MEASUREMENT
 70
1
  9
$CELWEIGHT
370
-1
  9
$ENDCAPS
280
0
  9
$JOINSTYLE
280
0
  9
$LWDISPLAY
290
0
  9
$INSUNITS
 70
6
  9
$HYPERLINKBASE
  1

  9
$STYLESHEET
  1

  9
$XEDIT
290
1
  9
$CEPSNTYPE
380
0
  9
$PSTYLEMODE
290
1
  9
$FINGERPRINTGUID
  2
{87B60EA2-07EC-46DE-AE76-BE2F715E0E9C}
  9
$VERSIONGUID
  2
{CF4306D5-2920-4F1F-A178-10E91D58CAE6}
  9
$EXTNAMES
290
1
  9
$PSVPSCALE
 40
0.0
  9
$OLESTARTUP
290
0
  9
$SORTENTS
280
127
  9
$INDEXCTL
280
0
  9
$HIDETEXT
280
1
  9
$XCLIPFRAME
280
0
  9
$HALOGAP
280
0
  9
$OBSCOLOR
 70
257
  9
$OBSLTYPE
280
0
  9
$INTERSECTIONDISPLAY
280
0
  9
$INTERSECTIONCOLOR
 70
257
  9
$DIMASSOC
280
2
  9
$PROJECTNAME
  1

  9
$CAMERADISPLAY
290
0
  9
$LENSLENGTH
 40
50.0
  9
$CAMERAHEIGHT
 40
0.0
  9
$STEPSPERSEC
 40
24.0
  9
$STEPSIZE
 40
100.0
  9
$3DDWFPREC
 40
2.0
  9
$PSOLWIDTH
 40
0.005
  9
$PSOLHEIGHT
 40
0.08
  9
$LOFTANG1
 40
1.570796326795
  9
$LOFTANG2
 40
1.570796326795
  9
$LOFTMAG1
 40
0.0
  9
$LOFTMAG2
 40
0.0
  9
$LOFTPARAM
 70
7
  9
$LOFTNORMALS
280
1
  9
$LATITUDE
 40
37.795
  9
$LONGITUDE
 40
-122.394
  9
$NORTHDIRECTION
 40
0.0
  9
$TIMEZONE
 70
-8000
  9
$LIGHTGLYPHDISPLAY
280
1
  9
$TILEMODELIGHTSYNCH
280
1
  9
$CMATERIAL
347
20
  9
$SOLIDHIST
280
0
  9
$SHOWHIST
280
1
  9
$DWFFRAME
280
2
  9
$DGNFRAME
280
2
  9
$REALWORLDSCALE
290
1
  9
$INTERFERECOLOR
 62
256
  9
$CSHADOW
280
0
  9
$SHADOWPLANELOCATION
 40
0.0
  0
ENDSEC
  0
SECTION
  2
CLASSES
  0
CLASS
  1
ACDBDICTIONARYWDFLT
  2
AcDbDictionaryWithDefault
  3
ObjectDBX Classes
 90
0
 91
0
280
0
281
0
  0
CLASS
  1
SUN
  2
AcDbSun
  3
SCENEOE
 90
1153
 91
0
280
0
281
0
  0
CLASS
  1
VISUALSTYLE
  2
AcDbVisualStyle
  3
ObjectDBX Classes
 90
4095
 91
0
280
0
281
0
  0
CLASS
  1
MATERIAL
  2
AcDbMaterial
  3
ObjectDBX Classes
 90
1153
 91
0
280
0
281
0
  0
CLASS
  1
SCALE
  2
AcDbScale
  3
ObjectDBX Classes
 90
1153
 91
0
280
0
281
0
  0
CLASS
  1
TABLESTYLE
  2
AcDbTableStyle
  3
ObjectDBX Classes
 90
4095
 91
0
280
0
281
0
  0
CLASS
  1
MLEADERSTYLE
  2
AcDbMLeaderStyle
  3
ACDB_MLEADERSTYLE_CLASS
 90
4095
 91
0
280
0
281
0
  0
CLASS
  1
DICTIONARYVAR
  2
AcDbDictionaryVar
  3
ObjectDBX Classes
 90
0
 91
0
280
0
281
0
  0
CLASS
  1
CELLSTYLEMAP
  2
AcDbCellStyleMap
  3
ObjectDBX Classes
 90
1152
 91
0
280
0
281
0
  0
CLASS
  1
MENTALRAYRENDERSETTINGS
  2
AcDbMentalRayRenderSettings
  3
SCENEOE
 90
1024
 91
0
280
0
281
0
  0
CLASS
  1
ACDBDETAILVIEWSTYLE
  2
AcDbDetailViewStyle
  3
ObjectDBX Classes
 90
1025
 91
0
280
0
281
0
  0
CLASS
  1
ACDBSECTIONVIEWSTYLE
  2
AcDbSectionViewStyle
  3
ObjectDBX Classes
 90
1025
 91
0
280
0
281
0
  0
CLASS
  1
RASTERVARIABLES
  2
AcDbRasterVariables
  3
ISM
 90
0
 91
0
280
0
281
0
  0
CLASS
  1
ACDBPLACEHOLDER
  2
AcDbPlaceHolder
  3
ObjectDBX Classes
 90
0
 91
0
280
0
281
0
  0
CLASS
  1
LAYOUT
  2
AcDbLayout
  3
ObjectDBX Classes
 90
0
 91
0
280
0
281
0
  0
ENDSEC
  0
SECTION
  2
TABLES
  0
TABLE
  2
VPORT
  5
8
330
0
100
AcDbSymbolTable
 70
1
  0
VPORT
  5
23
330
8
100
AcDbSymbolTableRecord
100
AcDbViewportTableRecord
  2
*Active
 70
0
 10
0.0
 20
0.0
 11
1.0
 21
1.0
 12
344.2
 22
148.5
 13
0.0
 23
0.0
 14
0.5
 24
0.5
 15
0.5
 25
0.5
 16
0.0
 26
0.0
 36
1.0
 17
0.0
 27
0.0
 37
0.0
 40
297.0
 41
1.34
 42
50.0
 43
0.0
 44
0.0
 50
0.0
 51
0.0
 71
0
 72
1000
 73
1
 74
3
 75
0
 76
0
 77
0
 78
0
281
0
 65
0
146
0.0
  0
ENDTAB
  0
TABLE
  2
LTYPE
  5
2
330
0
100
AcDbSymbolTable
 70
3
  0
LTYPE
  5
24
330
2
100
AcDbSymbolTableRecord
100
AcDbLinetypeTableRecord
  2
ByBlock
 70
0
  3

 72
65
 73
0
 40
0.0
  0
LTYPE
  5
25
330
2
100
AcDbSymbolTableRecord
100
AcDbLinetypeTableRecord
  2
ByLayer
 70
0
  3

 72
65
 73
0
 40
0.0
  0
LTYPE
  5
26
330
2
100
AcDbSymbolTableRecord
100
AcDbLinetypeTableRecord
  2
Continuous
 70
0
  3

 72
65
 73
0
 40
0.0
  0
ENDTAB
  0
TABLE
  2
LAYER
  5
1
330
0
100
AcDbSymbolTable
 70
3
  0
LAYER
  5
27
330
1
100
AcDbSymbolTableRecord
100
AcDbLayerTableRecord
  2
0
 70
0
 62
7
  6
Continuous
370
-3
390
13
347
21
  0
LAYER
  5
28
330
1
100
AcDbSymbolTableRecord
100
AcDbLayerTableRecord
  2
Defpoints
 70
0
 62
7
  6
Continuous
290
0
370
-3
390
13
347
21
  0
LAYER
  5
2D
330
1
100
AcDbSymbolTableRecord
100
AcDbLayerTableRecord
  2
TOP
 70
0
 62
1
  6
Continuous
370
0
390
13
347
21
  0
ENDTAB
  0
TABLE
  2
STYLE
  5
5
330
0
100
AcDbSymbolTable
 70
1
  0
STYLE
  5
29
330
5
100
AcDbSymbolTableRecord
100
AcDbTextStyleTableRecord
  2
Standard
 70
0
 40
0.0
 41
1.0
 50
0.0
 71
0
 42
2.5
  3
txt
  4

  0
ENDTAB
  0
TABLE
  2
VIEW
  5
7
330
0
100
AcDbSymbolTable
 70
0
  0
ENDTAB
  0
TABLE
  2
UCS
  5
6
330
0
100
AcDbSymbolTable
 70
0
  0
ENDTAB
  0
TABLE
  2
APPID
  5
3
330
0
100
AcDbSymbolTable
 70
2
  0
APPID
  5
2A
330
3
100
AcDbSymbolTableRecord
100
AcDbRegAppTableRecord
  2
ACAD
 70
0
  0
APPID
  5
2CE
330
3
100
AcDbSymbolTableRecord
100
AcDbRegAppTableRecord
  2
HATCHBACKGROUNDCOLOR
 70
0
  0
ENDTAB
  0
TABLE
  2
DIMSTYLE
  5
4
330
0
100
AcDbSymbolTable
 70
1
100
AcDbDimStyleTable
  0
DIMSTYLE
105
2B
330
4
100
AcDbSymbolTableRecord
100
AcDbDimStyleTableRecord
  2
Standard
 70
0
 40
1.0
 41
2.5
 42
0.625
 43
3.75
 44
1.25
 45
0.0
 46
0.0
 47
0.0
 48
0.0
 49
2.5
140
2.5
141
2.5
142
0.0
143
0.03937007874
144
1.0
145
0.0
146
1.0
147
0.625
148
0.0
 69
0
 70
0
 71
0
 72
0
 73
0
 74
0
 75
0
 76
0
 77
1
 78
8
 79
0
170
0
171
3
172
1
173
0
174
0
175
0
176
0
177
0
178
0
179
0
271
0
272
2
273
2
274
3
275
0
276
0
277
2
278
44
279
0
280
0
281
0
282
0
283
0
284
8
285
0
286
0
288
0
289
3
290
0
371
-2
372
-2
  0
ENDTAB
  0
TABLE
  2
BLOCK_RECORD
  5
9
330
0
100
AcDbSymbolTable
 70
2
  0
BLOCK_RECORD
  5
17
330
9
100
AcDbSymbolTableRecord
100
AcDbBlockTableRecord
  2
*Model_Space
340
1A
 70
0
280
1
281
0
  0
BLOCK_RECORD
  5
1B
330
9
100
AcDbSymbolTableRecord
100
AcDbBlockTableRecord
  2
*Paper_Space
340
1E
 70
0
280
1
281
0
  0
ENDTAB
  0
ENDSEC
  0
SECTION
  2
BLOCKS
  0
BLOCK
  5
18
330
17
100
AcDbEntity
  8
0
100
AcDbBlockBegin
  2
*Model_Space
 70
0
 10
0.0
 20
0.0
 30
0.0
  3
*Model_Space
  1

  0
ENDBLK
  5
19
330
17
100
AcDbEntity
  8
0
100
AcDbBlockEnd
  0
BLOCK
  5
1C
330
1B
100
AcDbEntity
  8
0
100
AcDbBlockBegin
  2
*Paper_Space
 70
0
 10
0.0
 20
0.0
 30
0.0
  3
*Paper_Space
  1

  0
ENDBLK
  5
1D
330
1B
100
AcDbEntity
  8
0
100
AcDbBlockEnd
  0
ENDSEC
  0
SECTION
  2
ENTITIES
  0
LINE
  5
2E
330
17
100
AcDbEntity
  8
TOP
100
AcDbLine
 10
2.5
 20
5.774774774774775
 30
0.0
 11
3.6253333333333333
 21
5.120088855991442
 31
0.0
  0
LINE
  5
2F
330
17
100
AcDbEntity
  8
TOP
100
AcDbLine
 10
4.041333333333333
 20
5.120088855991442
 30
0.0
 11
5.166666666666666
 21
5.774774774774775
 31
0.0
  0
LINE
  5
30
330
17
100
AcDbEntity
  8
TOP
100
AcDbLine
 10
5.166666666666666
 20
5.774774774774775
 30
0.0
 11
6.292
 21
5.120088855991442
 31
0.0
  0
LINE
  5
31
330
17
100
AcDbEntity
  8
TOP
100
AcDbLine
 10
6.708
 20
5.120088855991442
 30
0.0
 11
7.833333333333333
 21
5.774774774774775
 31
0.0
  0
LINE
  5
32
330
17
100
AcDbEntity
  8
TOP
100
AcDbLine
 10
7.833333333333333
 20
5.774774774774775
 30
0.0
 11
8.958666666666666
 21
5.120088855991442
 31
0.0
  0
LINE
  5
33
330
17
100
AcDbEntity
  8
TOP
100
AcDbLine
 10
9.374666666666666
 20
5.120088855991442
 30
0.0
 11
10.5
 21
5.774774774774775
 31
0.0
  0
LINE
  5
34
330
17
100
AcDbEntity
  8
TOP
100
AcDbLine
 10
2.708
 20
5.894863630766217
 30
0.0
 11
3.833333333333333
 21
6.54954954954955
 31
0.0
  0
LINE
  5
35
330
17
100
AcDbEntity
  8
TOP
100
AcDbLine
 10
3.833333333333333
 20
6.54954954954955
 30
0.0
 11
4.958666666666666
 21
5.894863630766217
 31
0.0
  0
LINE
  5
36
330
17
100
AcDbEntity
  8
TOP
100
AcDbLine
 10
5.374666666666666
 20
5.894863630766217
 30
0.0
 11
6.5
 21
6.54954954954955
 31
0.0
  0
LINE
  5
37
330
17
100
AcDbEntity
  8
TOP
100
AcDbLine
 10
6.5
 20
6.54954954954955
 30
0.0
 11
7.625333333333333
 21
5.894863630766217
 31
0.0
  0
LINE
  5
38
330
17
100
AcDbEntity
  8
TOP
100
AcDbLine
 10
8.041333333333334
 20
5.894863630766217
 30
0.0
 11
9.166666666666666
 21
6.54954954954955
 31
0.0
  0
LINE
  5
39
330
17
100
AcDbEntity
  8
TOP
100
AcDbLine
 10
9.166666666666666
 20
6.54954954954955
 30
0.0
 11
10.292
 21
5.894863630766217
 31
0.0
  0
LINE
  5
3A
330
17
100
AcDbEntity
  8
TOP
100
AcDbLine
 10
2.5
 20
7.324324324324325
 30
0.0
 11
3.6253333333333333
 21
6.669638405540992
 31
0.0
  0
LINE
  5
3B
330
17
100
AcDbEntity
  8
TOP
100
AcDbLine
 10
4.041333333333333
 20
6.669638405540992
 30
0.0
 11
5.166666666666666
 21
7.324324324324325
 31
0.0
  0
LINE
  5
3C
330
17
100
AcDbEntity
  8
TOP
100
AcDbLine
 10
5.166666666666666
 20
7.324324324324325
 30
0.0
 11
6.292
 21
6.669638405540992
 31
0.0
  0
LINE
  5
3D
330
17
100
AcDbEntity
  8
TOP
100
AcDbLine
 10
6.708
 20
6.669638405540992
 30
0.0
 11
7.833333333333333
 21
7.324324324324325
 31
0.0
  0
LINE
  5
3E
330
17
100
AcDbEntity
  8
TOP
100
AcDbLine
 10
7.833333333333333
 20
7.324324324324325
 30
0.0
 11
8.958666666666666
 21
6.669638405540992
 31
0.0
  0
LINE
  5
3F
330
17
100
AcDbEntity
  8
TOP
100
AcDbLine
 10
9.374666666666666
 20
6.669638405540992
 30
0.0
 11
10.5
 21
7.324324324324325
 31
0.0
  0
LINE
  5
40
330
17
100
AcDbEntity
  8
TOP
100
AcDbLine
 10
2.708
 20
7.444413180315767
 30
0.0
 11
3.833333333333333
 21
8.0990990990991
 31
0.0
  0
LINE
  5
41
330
17
100
AcDbEntity
  8
TOP
100
AcDbLine
 10
3.833333333333333
 20
8.0990990990991
 30
0.0
 11
4.958666666666666
 21
7.444413180315767
 31
0.0
  0
LINE
  5
42
330
17
100
AcDbEntity
  8
TOP
100
AcDbLine
 10
5.374666666666666
 20
7.444413180315767
 30
0.0
 11
6.5
 21
8.0990990990991
 31
0.0
  0
LINE
  5
43
330
17
100
AcDbEntity
  8
TOP
100
AcDbLine
 10
6.5
 20
8.0990990990991
 30
0.0
 11
7.625333333333333
 21
7.444413180315767
 31
0.0
  0
LINE
  5
44
330
17
100
AcDbEntity
  8
TOP
100
AcDbLine
 10
8.041333333333334
 20
7.444413180315767
 30
0.0
 11
9.166666666666666
 21
8.0990990990991
 31
0.0
  0
LINE
  5
45
330
17
100
AcDbEntity
  8
TOP
100
AcDbLine
 10
9.166666666666666
 20
8.0990990990991
 30
0.0
 11
10.292
 21
7.444413180315767
 31
0.0
  0
LINE
  5
46
330
17
100
AcDbEntity
  8
TOP
100
AcDbLine
 10
2.5
 20
8.873873873873874
 30
0.0
 11
3.6253333333333333
 21
8.219187955090542
 31
0.0
  0
LINE
  5
47
330
17
100
AcDbEntity
  8
TOP
100
AcDbLine
 10
4.041333333333333
 20
8.219187955090542
 30
0.0
 11
5.166666666666666
 21
8.873873873873874
 31
0.0
  0
LINE
  5
48
330
17
100
AcDbEntity
  8
TOP
100
AcDbLine
 10
5.166666666666666
 20
8.873873873873874
 30
0.0
 11
6.292
 21
8.219187955090542
 31
0.0
  0
LINE
  5
49
330
17
100
AcDbEntity
  8
TOP
100
AcDbLine
 10
6.708
 20
8.219187955090542
 30
0.0
 11
7.833333333333333
 21
8.873873873873874
 31
0.0
  0
LINE
  5
4A
330
17
100
AcDbEntity
  8
TOP
100
AcDbLine
 10
7.833333333333333
 20
8.873873873873874
 30
0.0
 11
8.958666666666666
 21
8.219187955090542
 31
0.0
  0
LINE
  5
4B
330
17
100
AcDbEntity
  8
TOP
100
AcDbLine
 10
9.374666666666666
 20
8.219187955090542
 30
0.0
 11
10.5
 21
8.873873873873874
 31
0.0
  0
LINE
  5
4C
330
17
100
AcDbEntity
  8
TOP
100
AcDbLine
 10
2.708
 20
8.993962729865316
 30
0.0
 11
3.833333333333333
 21
9.64864864864865
 31
0.0
  0
LINE
  5
4D
330
17
100
AcDbEntity
  8
TOP
100
AcDbLine
 10
3.833333333333333
 20
9.64864864864865
 30
0.0
 11
4.958666666666666
 21
8.993962729865316
 31
0.0
  0
LINE
  5
4E
330
17
100
AcDbEntity
  8
TOP
100
AcDbLine
 10
5.374666666666666
 20
8.993962729865316
 30
0.0
 11
6.5
 21
9.64864864864865
 31
0.0
  0
LINE
  5
4F
330
17
100
AcDbEntity
  8
TOP
100
AcDbLine
 10
6.5
 20
9.64864864864865
 30
0.0
 11
7.625333333333333
 21
8.993962729865316
 31
0.0
  0
LINE
  5
50
330
17
100
AcDbEntity
  8
TOP
100
AcDbLine
 10
8.041333333333334
 20
8.993962729865316
 30
0.0
 11
9.166666666666666
 21
9.64864864864865
 31
0.0
  0
LINE
  5
51
330
17
100
AcDbEntity
  8
TOP
100
AcDbLine
 10
9.166666666666666
 20
9.64864864864865
 30
0.0
 11
10.292
 21
8.993962729865316
 31
0.0
  0
LINE
  5
52
330
17
100
AcDbEntity
  8
TOP
100
AcDbLine
 10
2.5
 20
10.423423423423422
 30
0.0
 11
3.6253333333333333
 21
9.76873750464009
 31
0.0
  0
LINE
  5
53
330
17
100
AcDbEntity
  8
TOP
100
AcDbLine
 10
4.041333333333333
 20
9.76873750464009
 30
0.0
 11
5.166666666666666
 21
10.423423423423422
 31
0.0
  0
LINE
  5
54
330
17
100
AcDbEntity
  8
TOP
100
AcDbLine
 10
5.166666666666666
 20
10.423423423423422
 30
0.0
 11
6.292
 21
9.76873750464009
 31
0.0
  0
LINE
  5
55
330
17
100
AcDbEntity
  8
TOP
100
AcDbLine
 10
6.708
 20
9.76873750464009
 30
0.0
 11
7.833333333333333
 21
10.423423423423422
 31
0.0
  0
LINE
  5
56
330
17
100
AcDbEntity
  8
TOP
100
AcDbLine
 10
7.833333333333333
 20
10.423423423423422
 30
0.0
 11
8.958666666666666
 21
9.76873750464009
 31
0.0
  0
LINE
  5
57
330
17
100
AcDbEntity
  8
TOP
100
AcDbLine
 10
9.374666666666666
 20
9.76873750464009
 30
0.0
 11
10.5
 21
10.423423423423422
 31
0.0
  0
LINE
  5
58
330
17
100
AcDbEntity
  8
TOP
100
AcDbLine
 10
2.708
 20
10.543512279414866
 30
0.0
 11
3.833333333333333
 21
11.198198198198199
 31
0.0
  0
LINE
  5
59
330
17
100
AcDbEntity
  8
TOP
100
AcDbLine
 10
3.833333333333333
 20
11.198198198198199
 30
0.0
 11
4.958666666666666
 21
10.543512279414866
 31
0.0
  0
LINE
  5
5A
330
17
100
AcDbEntity
  8
TOP
100
AcDbLine
 10
5.374666666666666
 20
10.543512279414866
 30
0.0
 11
6.5
 21
11.198198198198199
 31
0.0
  0
LINE
  5
5B
330
17
100
AcDbEntity
  8
TOP
100
AcDbLine
 10
6.5
 20
11.198198198198199
 30
0.0
 11
7.625333333333333
 21
10.543512279414866
 31
0.0
  0
LINE
  5
5C
330
17
100
AcDbEntity
  8
TOP
100
AcDbLine
 10
8.041333333333334
 20
10.543512279414866
 30
0.0
 11
9.166666666666666
 21
11.198198198198199
 31
0.0
  0
LINE
  5
5D
330
17
100
AcDbEntity
  8
TOP
100
AcDbLine
 10
9.166666666666666
 20
11.198198198198199
 30
0.0
 11
10.292
 21
10.543512279414866
 31
0.0
  0
LINE
  5
5E
330
17
100
AcDbEntity
  8
TOP
100
AcDbLine
 10
2.5
 20
11.972972972972972
 30
0.0
 11
3.6253333333333333
 21
11.31828705418964
 31
0.0
  0
LINE
  5
5F
330
17
100
AcDbEntity
  8
TOP
100
AcDbLine
 10
4.041333333333333
 20
11.31828705418964
 30
0.0
 11
5.166666666666666
 21
11.972972972972972
 31
0.0
  0
LINE
  5
60
330
17
100
AcDbEntity
  8
TOP
100
AcDbLine
 10
5.166666666666666
 20
11.972972972972972
 30
0.0
 11
6.292
 21
11.31828705418964
 31
0.0
  0
LINE
  5
61
330
17
100
AcDbEntity
  8
TOP
100
AcDbLine
 10
6.708
 20
11.31828705418964
 30
0.0
 11
7.833333333333333
 21
11.972972972972972
 31
0.0
  0
LINE
  5
62
330
17
100
AcDbEntity
  8
TOP
100
AcDbLine
 10
7.833333333333333
 20
11.972972972972972
 30
0.0
 11
8.958666666666666
 21
11.31828705418964
 31
0.0
  0
LINE
  5
63
330
17
100
AcDbEntity
  8
TOP
100
AcDbLine
 10
9.374666666666666
 20
11.31828705418964
 30
0.0
 11
10.5
 21
11.972972972972972
 31
0.0
  0
LINE
  5
64
330
17
100
AcDbEntity
  8
TOP
100
AcDbLine
 10
2.708
 20
12.093061828964416
 30
0.0
 11
3.833333333333333
 21
12.747747747747749
 31
0.0
  0
LINE
  5
65
330
17
100
AcDbEntity
  8
TOP
100
AcDbLine
 10
3.833333333333333
 20
12.747747747747749
 30
0.0
 11
4.958666666666666
 21
12.093061828964416
 31
0.0
  0
LINE
  5
66
330
17
100
AcDbEntity
  8
TOP
100
AcDbLine
 10
5.374666666666666
 20
12.093061828964416
 30
0.0
 11
6.5
 21
12.747747747747749
 31
0.0
  0
LINE
  5
67
330
17
100
AcDbEntity
  8
TOP
100
AcDbLine
 10
6.5
 20
12.747747747747749
 30
0.0
 11
7.625333333333333
 21
12.093061828964416
 31
0.0
  0
LINE
  5
68
330
17
100
AcDbEntity
  8
TOP
100
AcDbLine
 10
8.041333333333334
 20
12.093061828964416
 30
0.0
 11
9.166666666666666
 21
12.747747747747749
 31
0.0
  0
LINE
  5
69
330
17
100
AcDbEntity
  8
TOP
100
AcDbLine
 10
9.166666666666666
 20
12.747747747747749
 30
0.0
 11
10.292
 21
12.093061828964416
 31
0.0
  0
LINE
  5
6A
330
17
100
AcDbEntity
  8
TOP
100
AcDbLine
 10
2.5
 20
13.522522522522522
 30
0.0
 11
3.6253333333333333
 21
12.867836603739189
 31
0.0
  0
LINE
  5
6B
330
17
100
AcDbEntity
  8
TOP
100
AcDbLine
 10
4.041333333333333
 20
12.867836603739189
 30
0.0
 11
5.166666666666666
 21
13.522522522522522
 31
0.0
  0
LINE
  5
6C
330
17
100
AcDbEntity
  8
TOP
100
AcDbLine
 10
5.166666666666666
 20
13.522522522522522
 30
0.0
 11
6.292
 21
12.867836603739189
 31
0.0
  0
LINE
  5
6D
330
17
100
AcDbEntity
  8
TOP
100
AcDbLine
 10
6.708
 20
12.867836603739189
 30
0.0
 11
7.833333333333333
 21
13.522522522522522
 31
0.0
  0
LINE
  5
6E
330
17
100
AcDbEntity
  8
TOP
100
AcDbLine
 10
7.833333333333333
 20
13.522522522522522
 30
0.0
 11
8.958666666666666
 21
12.867836603739189
 31
0.0
  0
LINE
  5
6F
330
17
100
AcDbEntity
  8
TOP
100
AcDbLine
 10
9.374666666666666
 20
12.867836603739189
 30
0.0
 11
10.5
 21
13.522522522522522
 31
0.0
  0
LINE
  5
70
330
17
100
AcDbEntity
  8
TOP
100
AcDbLine
 10
2.708
 20
13.642611378513964
 30
0.0
 11
3.833333333333333
 21
14.297297297297296
 31
0.0
  0
LINE
  5
71
330
17
100
AcDbEntity
  8
TOP
100
AcDbLine
 10
3.833333333333333
 20
14.297297297297296
 30
0.0
 11
4.958666666666666
 21
13.642611378513964
 31
0.0
  0
LINE
  5
72
330
17
100
AcDbEntity
  8
TOP
100
AcDbLine
 10
5.374666666666666
 20
13.642611378513964
 30
0.0
 11
6.5
 21
14.297297297297296
 31
0.0
  0
LINE
  5
73
330
17
100
AcDbEntity
  8
TOP
100
AcDbLine
 10
6.5
 20
14.297297297297296
 30
0.0
 11
7.625333333333333
 21
13.642611378513964
 31
0.0
  0
LINE
  5
74
330
17
100
AcDbEntity
  8
TOP
100
AcDbLine
 10
8.041333333333334
 20
13.642611378513964
 30
0.0
 11
9.166666666666666
 21
14.297297297297296
 31
0.0
  0
LINE
  5
75
330
17
100
AcDbEntity
  8
TOP
100
AcDbLine
 10
9.166666666666666
 20
14.297297297297296
 30
0.0
 11
10.292
 21
13.642611378513964
 31
0.0
  0
LINE
  5
76
330
17
100
AcDbEntity
  8
TOP
100
AcDbLine
 10
2.5
 20
15.072072072072071
 30
0.0
 11
3.6253333333333333
 21
14.417386153288739
 31
0.0
  0
LINE
  5
77
330
17
100
AcDbEntity
  8
TOP
100
AcDbLine
 10
4.041333333333333
 20
14.417386153288739
 30
0.0
 11
5.166666666666666
 21
15.072072072072071
 31
0.0
  0
LINE
  5
78
330
17
100
AcDbEntity
  8
TOP
100
AcDbLine
 10
5.166666666666666
 20
15.072072072072071
 30
0.0
 11
6.292
 21
14.417386153288739
 31
0.0
  0
LINE
  5
79
330
17
100
AcDbEntity
  8
TOP
100
AcDbLine
 10
6.708
 20
14.417386153288739
 30
0.0
 11
7.833333333333333
 21
15.072072072072071
 31
0.0
  0
LINE
  5
7A
330
17
100
AcDbEntity
  8
TOP
100
AcDbLine
 10
7.833333333333333
 20
15.072072072072071
 30
0.0
 11
8.958666666666666
 21
14.417386153288739
 31
0.0
  0
LINE
  5
7B
330
17
100
AcDbEntity
  8
TOP
100
AcDbLine
 10
9.374666666666666
 20
14.417386153288739
 30
0.0
 11
10.5
 21
15.072072072072071
 31
0.0
  0
LINE
  5
7C
330
17
100
AcDbEntity
  8
TOP
100
AcDbLine
 10
2.708
 20
15.192160928063513
 30
0.0
 11
3.833333333333333
 21
15.846846846846846
 31
0.0
  0
LINE
  5
7D
330
17
100
AcDbEntity
  8
TOP
100
AcDbLine
 10
3.833333333333333
 20
15.846846846846846
 30
0.0
 11
4.958666666666666
 21
15.192160928063513
 31
0.0
  0
LINE
  5
7E
330
17
100
AcDbEntity
  8
TOP
100
AcDbLine
 10
5.374666666666666
 20
15.192160928063513
 30
0.0
 11
6.5
 21
15.846846846846846
 31
0.0
  0
LINE
  5
7F
330
17
100
AcDbEntity
  8
TOP
100
AcDbLine
 10
6.5
 20
15.846846846846846
 30
0.0
 11
7.625333333333333
 21
15.192160928063513
 31
0.0
  0
LINE
  5
80
330
17
100
AcDbEntity
  8
TOP
100
AcDbLine
 10
8.041333333333334
 20
15.192160928063513
 30
0.0
 11
9.166666666666666
 21
15.846846846846846
 31
0.0
  0
LINE
  5
81
330
17
100
AcDbEntity
  8
TOP
100
AcDbLine
 10
9.166666666666666
 20
15.846846846846846
 30
0.0
 11
10.292
 21
15.192160928063513
 31
0.0
  0
LINE
  5
82
330
17
100
AcDbEntity
  8
TOP
100
AcDbLine
 10
2.5
 20
16.62162162162162
 30
0.0
 11
3.6253333333333333
 21
15.966935702838288
 31
0.0
  0
LINE
  5
83
330
17
100
AcDbEntity
  8
TOP
100
AcDbLine
 10
4.041333333333333
 20
15.966935702838288
 30
0.0
 11
5.166666666666666
 21
16.62162162162162
 31
0.0
  0
LINE
  5
84
330
17
100
AcDbEntity
  8
TOP
100
AcDbLine
 10
5.166666666666666
 20
16.62162162162162
 30
0.0
 11
6.292
 21
15.966935702838288
 31
0.0
  0
LINE
  5
85
330
17
100
AcDbEntity
  8
TOP
100
AcDbLine
 10
6.708
 20
15.966935702838288
 30
0.0
 11
7.833333333333333
 21
16.62162162162162
 31
0.0
  0
LINE
  5
86
330
17
100
AcDbEntity
  8
TOP
100
AcDbLine
 10
7.833333333333333
 20
16.62162162162162
 30
0.0
 11
8.958666666666666
 21
15.966935702838288
 31
0.0
  0
LINE
  5
87
330
17
100
AcDbEntity
  8
TOP
100
AcDbLine
 10
9.374666666666666
 20
15.966935702838288
 30
0.0
 11
10.5
 21
16.62162162162162
 31
0.0
  0
LINE
  5
88
330
17
100
AcDbEntity
  8
TOP
100
AcDbLine
 10
2.708
 20
16.74171047761306
 30
0.0
 11
3.833333333333333
 21
17.396396396396398
 31
0.0
  0
LINE
  5
89
330
17
100
AcDbEntity
  8
TOP
100
AcDbLine
 10
3.833333333333333
 20
17.396396396396398
 30
0.0
 11
4.958666666666666
 21
16.74171047761306
 31
0.0
  0
LINE
  5
8A
330
17
100
AcDbEntity
  8
TOP
100
AcDbLine
 10
5.374666666666666
 20
16.74171047761306
 30
0.0
 11
6.5
 21
17.396396396396398
 31
0.0
  0
LINE
  5
8B
330
17
100
AcDbEntity
  8
TOP
100
AcDbLine
 10
6.5
 20
17.396396396396398
 30
0.0
 11
7.625333333333333
 21
16.74171047761306
 31
0.0
  0
LINE
  5
8C
330
17
100
AcDbEntity
  8
TOP
100
AcDbLine
 10
8.041333333333334
 20
16.74171047761306
 30
0.0
 11
9.166666666666666
 21
17.396396396396398
 31
0.0
  0
LINE
  5
8D
330
17
100
AcDbEntity
  8
TOP
100
AcDbLine
 10
9.166666666666666
 20
17.396396396396398
 30
0.0
 11
10.292
 21
16.74171047761306
 31
0.0
  0
LINE
  5
8E
330
17
100
AcDbEntity
  8
TOP
100
AcDbLine
 10
2.5
 20
18.17117117117117
 30
0.0
 11
3.6253333333333333
 21
17.516485252387838
 31
0.0
  0
LINE
  5
8F
330
17
100
AcDbEntity
  8
TOP
100
AcDbLine
 10
4.041333333333333
 20
17.516485252387838
 30
0.0
 11
5.166666666666666
 21
18.17117117117117
 31
0.0
  0
LINE
  5
90
330
17
100
AcDbEntity
  8
TOP
100
AcDbLine
 10
5.166666666666666
 20
18.17117117117117
 30
0.0
 11
6.292
 21
17.516485252387838
 31
0.0
  0
LINE
  5
91
330
17
100
AcDbEntity
  8
TOP
100
AcDbLine
 10
6.708
 20
17.516485252387838
 30
0.0
 11
7.833333333333333
 21
18.17117117117117
 31
0.0
  0
LINE
  5
92
330
17
100
AcDbEntity
  8
TOP
100
AcDbLine
 10
7.833333333333333
 20
18.17117117117117
 30
0.0
 11
8.958666666666666
 21
17.516485252387838
 31
0.0
  0
LINE
  5
93
330
17
100
AcDbEntity
  8
TOP
100
AcDbLine
 10
9.374666666666666
 20
17.516485252387838
 30
0.0
 11
10.5
 21
18.17117117117117
 31
0.0
  0
LINE
  5
94
330
17
100
AcDbEntity
  8
TOP
100
AcDbLine
 10
2.708
 20
18.291260027162615
 30
0.0
 11
3.833333333333333
 21
18.945945945945944
 31
0.0
  0
LINE
  5
95
330
17
100
AcDbEntity
  8
TOP
100
AcDbLine
 10
3.833333333333333
 20
18.945945945945944
 30
0.0
 11
4.958666666666666
 21
18.291260027162615
 31
0.0
  0
LINE
  5
96
330
17
100
AcDbEntity
  8
TOP
100
AcDbLine
 10
5.374666666666666
 20
18.291260027162615
 30
0.0
 11
6.5
 21
18.945945945945944
 31
0.0
  0
LINE
  5
97
330
17
100
AcDbEntity
  8
TOP
100
AcDbLine
 10
6.5
 20
18.945945945945944
 30
0.0
 11
7.625333333333333
 21
18.291260027162615
 31
0.0
  0
LINE
  5
98
330
17
100
AcDbEntity
  8
TOP
100
AcDbLine
 10
8.041333333333334
 20
18.291260027162615
 30
0.0
 11
9.166666666666666
 21
18.945945945945944
 31
0.0
  0
LINE
  5
99
330
17
100
AcDbEntity
  8
TOP
100
AcDbLine
 10
9.166666666666666
 20
18.945945945945944
 30
0.0
 11
10.292
 21
18.291260027162615
 31
0.0
  0
LINE
  5
9A
330
17
100
AcDbEntity
  8
TOP
100
AcDbLine
 10
2.5
 20
19.72072072072072
 30
0.0
 11
3.6253333333333333
 21
19.066034801937388
 31
0.0
  0
LINE
  5
9B
330
17
100
AcDbEntity
  8
TOP
100
AcDbLine
 10
4.041333333333333
 20
19.066034801937388
 30
0.0
 11
5.166666666666666
 21
19.72072072072072
 31
0.0
  0
LINE
  5
9C
330
17
100
AcDbEntity
  8
TOP
100
AcDbLine
 10
5.166666666666666
 20
19.72072072072072
 30
0.0
 11
6.292
 21
19.066034801937388
 31
0.0
  0
LINE
  5
9D
330
17
100
AcDbEntity
  8
TOP
100
AcDbLine
 10
6.708
 20
19.066034801937388
 30
0.0
 11
7.833333333333333
 21
19.72072072072072
 31
0.0
  0
LINE
  5
9E
330
17
100
AcDbEntity
  8
TOP
100
AcDbLine
 10
7.833333333333333
 20
19.72072072072072
 30
0.0
 11
8.958666666666666
 21
19.066034801937388
 31
0.0
  0
LINE
  5
9F
330
17
100
AcDbEntity
  8
TOP
100
AcDbLine
 10
9.374666666666666
 20
19.066034801937388
 30
0.0
 11
10.5
 21
19.72072072072072
 31
0.0
  0
LINE
  5
A0
330
17
100
AcDbEntity
  8
TOP
100
AcDbLine
 10
2.708
 20
19.84080957671216
 30
0.0
 11
3.833333333333333
 21
20.495495495495497
 31
0.0
  0
LINE
  5
A1
330
17
100
AcDbEntity
  8
TOP
100
AcDbLine
 10
3.833333333333333
 20
20.495495495495497
 30
0.0
 11
4.958666666666666
 21
19.84080957671216
 31
0.0
  0
LINE
  5
A2
330
17
100
AcDbEntity
  8
TOP
100
AcDbLine
 10
5.374666666666666
 20
19.84080957671216
 30
0.0
 11
6.5
 21
20.495495495495497
 31
0.0
  0
LINE
  5
A3
330
17
100
AcDbEntity
  8
TOP
100
AcDbLine
 10
6.5
 20
20.495495495495497
 30
0.0
 11
7.625333333333333
 21
19.84080957671216
 31
0.0
  0
LINE
  5
A4
330
17
100
AcDbEntity
  8
TOP
100
AcDbLine
 10
8.041333333333334
 20
19.84080957671216
 30
0.0
 11
9.166666666666666
 21
20.495495495495497
 31
0.0
  0
LINE
  5
A5
330
17
100
AcDbEntity
  8
TOP
100
AcDbLine
 10
9.166666666666666
 20
20.495495495495497
 30
0.0
 11
10.292
 21
19.84080957671216
 31
0.0
  0
LINE
  5
A6
330
17
100
AcDbEntity
  8
TOP
100
AcDbLine
 10
2.5
 20
21.27027027027027
 30
0.0
 11
3.6253333333333333
 21
20.615584351486937
 31
0.0
  0
LINE
  5
A7
330
17
100
AcDbEntity
  8
TOP
100
AcDbLine
 10
4.041333333333333
 20
20.615584351486937
 30
0.0
 11
5.166666666666666
 21
21.27027027027027
 31
0.0
  0
LINE
  5
A8
330
17
100
AcDbEntity
  8
TOP
100
AcDbLine
 10
5.166666666666666
 20
21.27027027027027
 30
0.0
 11
6.292
 21
20.615584351486937
 31
0.0
  0
LINE
  5
A9
330
17
100
AcDbEntity
  8
TOP
100
AcDbLine
 10
6.708
 20
20.615584351486937
 30
0.0
 11
7.833333333333333
 21
21.27027027027027
 31
0.0
  0
LINE
  5
AA
330
17
100
AcDbEntity
  8
TOP
100
AcDbLine
 10
7.833333333333333
 20
21.27027027027027
 30
0.0
 11
8.958666666666666
 21
20.615584351486937
 31
0.0
  0
LINE
  5
AB
330
17
100
AcDbEntity
  8
TOP
100
AcDbLine
 10
9.374666666666666
 20
20.615584351486937
 30
0.0
 11
10.5
 21
21.27027027027027
 31
0.0
  0
LINE
  5
AC
330
17
100
AcDbEntity
  8
TOP
100
AcDbLine
 10
2.708
 20
21.39035912626171
 30
0.0
 11
3.833333333333333
 21
22.045045045045043
 31
0.0
  0
LINE
  5
AD
330
17
100
AcDbEntity
  8
TOP
100
AcDbLine
 10
3.833333333333333
 20
22.045045045045043
 30
0.0
 11
4.958666666666666
 21
21.39035912626171
 31
0.0
  0
LINE
  5
AE
330
17
100
AcDbEntity
  8
TOP
100
AcDbLine
 10
5.374666666666666
 20
21.39035912626171
 30
0.0
 11
6.5
 21
22.045045045045043
 31
0.0
  0
LINE
  5
AF
330
17
100
AcDbEntity
  8
TOP
100
AcDbLine
 10
6.5
 20
22.045045045045043
 30
0.0
 11
7.625333333333333
 21
21.39035912626171
 31
0.0
  0
LINE
  5
B0
330
17
100
AcDbEntity
  8
TOP
100
AcDbLine
 10
8.041333333333334
 20
21.39035912626171
 30
0.0
 11
9.166666666666666
 21
22.045045045045043
 31
0.0
  0
LINE
  5
B1
330
17
100
AcDbEntity
  8
TOP
100
AcDbLine
 10
9.166666666666666
 20
22.045045045045043
 30
0.0
 11
10.292
 21
21.39035912626171
 31
0.0
  0
LINE
  5
B2
330
17
100
AcDbEntity
  8
TOP
100
AcDbLine
 10
2.5
 20
22.81981981981982
 30
0.0
 11
3.6253333333333333
 21
22.165133901036484
 31
0.0
  0
LINE
  5
B3
330
17
100
AcDbEntity
  8
TOP
100
AcDbLine
 10
4.041333333333333
 20
22.165133901036484
 30
0.0
 11
5.166666666666666
 21
22.81981981981982
 31
0.0
  0
LINE
  5
B4
330
17
100
AcDbEntity
  8
TOP
100
AcDbLine
 10
5.166666666666666
 20
22.81981981981982
 30
0.0
 11
6.292
 21
22.165133901036484
 31
0.0
  0
LINE
  5
B5
330
17
100
AcDbEntity
  8
TOP
100
AcDbLine
 10
6.708
 20
22.165133901036484
 30
0.0
 11
7.833333333333333
 21
22.81981981981982
 31
0.0
  0
LINE
  5
B6
330
17
100
AcDbEntity
  8
TOP
100
AcDbLine
 10
7.833333333333333
 20
22.81981981981982
 30
0.0
 11
8.958666666666666
 21
22.165133901036484
 31
0.0
  0
LINE
  5
B7
330
17
100
AcDbEntity
  8
TOP
100
AcDbLine
 10
9.374666666666666
 20
22.165133901036484
 30
0.0
 11
10.5
 21
22.81981981981982
 31
0.0
  0
LINE
  5
B8
330
17
100
AcDbEntity
  8
TOP
100
AcDbLine
 10
2.708
 20
22.93990867581126
 30
0.0
 11
3.833333333333333
 21
23.594594594594593
 31
0.0
  0
LINE
  5
B9
330
17
100
AcDbEntity
  8
TOP
100
AcDbLine
 10
3.833333333333333
 20
23.594594594594593
 30
0.0
 11
4.958666666666666
 21
22.93990867581126
 31
0.0
  0
LINE
  5
BA
330
17
100
AcDbEntity
  8
TOP
100
AcDbLine
 10
5.374666666666666
 20
22.93990867581126
 30
0.0
 11
6.5
 21
23.594594594594593
 31
0.0
  0
LINE
  5
BB
330
17
100
AcDbEntity
  8
TOP
100
AcDbLine
 10
6.5
 20
23.594594594594593
 30
0.0
 11
7.625333333333333
 21
22.93990867581126
 31
0.0
  0
LINE
  5
BC
330
17
100
AcDbEntity
  8
TOP
100
AcDbLine
 10
8.041333333333334
 20
22.93990867581126
 30
0.0
 11
9.166666666666666
 21
23.594594594594593
 31
0.0
  0
LINE
  5
BD
330
17
100
AcDbEntity
  8
TOP
100
AcDbLine
 10
9.166666666666666
 20
23.594594594594593
 30
0.0
 11
10.292
 21
22.93990867581126
 31
0.0
  0
LINE
  5
BE
330
17
100
AcDbEntity
  8
TOP
100
AcDbLine
 10
2.5
 20
24.36936936936937
 30
0.0
 11
3.6253333333333333
 21
23.714683450586033
 31
0.0
  0
LINE
  5
BF
330
17
100
AcDbEntity
  8
TOP
100
AcDbLine
 10
4.041333333333333
 20
23.714683450586033
 30
0.0
 11
5.166666666666666
 21
24.36936936936937
 31
0.0
  0
LINE
  5
C0
330
17
100
AcDbEntity
  8
TOP
100
AcDbLine
 10
5.166666666666666
 20
24.36936936936937
 30
0.0
 11
6.292
 21
23.714683450586033
 31
0.0
  0
LINE
  5
C1
330
17
100
AcDbEntity
  8
TOP
100
AcDbLine
 10
6.708
 20
23.714683450586033
 30
0.0
 11
7.833333333333333
 21
24.36936936936937
 31
0.0
  0
LINE
  5
C2
330
17
100
AcDbEntity
  8
TOP
100
AcDbLine
 10
7.833333333333333
 20
24.36936936936937
 30
0.0
 11
8.958666666666666
 21
23.714683450586033
 31
0.0
  0
LINE
  5
C3
330
17
100
AcDbEntity
  8
TOP
100
AcDbLine
 10
9.374666666666666
 20
23.714683450586033
 30
0.0
 11
10.5
 21
24.36936936936937
 31
0.0
  0
LINE
  5
C4
330
17
100
AcDbEntity
  8
TOP
100
AcDbLine
 10
2.708
 20
24.48945822536081
 30
0.0
 11
3.833333333333333
 21
25.144144144144143
 31
0.0
  0
LINE
  5
C5
330
17
100
AcDbEntity
  8
TOP
100
AcDbLine
 10
3.833333333333333
 20
25.144144144144143
 30
0.0
 11
4.958666666666666
 21
24.48945822536081
 31
0.0
  0
LINE
  5
C6
330
17
100
AcDbEntity
  8
TOP
100
AcDbLine
 10
5.374666666666666
 20
24.48945822536081
 30
0.0
 11
6.5
 21
25.144144144144143
 31
0.0
  0
LINE
  5
C7
330
17
100
AcDbEntity
  8
TOP
100
AcDbLine
 10
6.5
 20
25.144144144144143
 30
0.0
 11
7.625333333333333
 21
24.48945822536081
 31
0.0
  0
LINE
  5
C8
330
17
100
AcDbEntity
  8
TOP
100
AcDbLine
 10
8.041333333333334
 20
24.48945822536081
 30
0.0
 11
9.166666666666666
 21
25.144144144144143
 31
0.0
  0
LINE
  5
C9
330
17
100
AcDbEntity
  8
TOP
100
AcDbLine
 10
9.166666666666666
 20
25.144144144144143
 30
0.0
 11
10.292
 21
24.48945822536081
 31
0.0
  0
LINE
  5
CA
330
17
100
AcDbEntity
  8
TOP
100
AcDbLine
 10
2.5
 20
25.91891891891892
 30
0.0
 11
3.6253333333333333
 21
25.264233000135583
 31
0.0
  0
LINE
  5
CB
330
17
100
AcDbEntity
  8
TOP
100
AcDbLine
 10
4.041333333333333
 20
25.264233000135583
 30
0.0
 11
5.166666666666666
 21
25.91891891891892
 31
0.0
  0
LINE
  5
CC
330
17
100
AcDbEntity
  8
TOP
100
AcDbLine
 10
5.166666666666666
 20
25.91891891891892
 30
0.0
 11
6.292
 21
25.264233000135583
 31
0.0
  0
LINE
  5
CD
330
17
100
AcDbEntity
  8
TOP
100
AcDbLine
 10
6.708
 20
25.264233000135583
 30
0.0
 11
7.833333333333333
 21
25.91891891891892
 31
0.0
  0
LINE
  5
CE
330
17
100
AcDbEntity
  8
TOP
100
AcDbLine
 10
7.833333333333333
 20
25.91891891891892
 30
0.0
 11
8.958666666666666
 21
25.264233000135583
 31
0.0
  0
LINE
  5
CF
330
17
100
AcDbEntity
  8
TOP
100
AcDbLine
 10
9.374666666666666
 20
25.264233000135583
 30
0.0
 11
10.5
 21
25.91891891891892
 31
0.0
  0
LINE
  5
D0
330
17
100
AcDbEntity
  8
TOP
100
AcDbLine
 10
2.708
 20
26.03900777491036
 30
0.0
 11
3.833333333333333
 21
26.693693693693692
 31
0.0
  0
LINE
  5
D1
330
17
100
AcDbEntity
  8
TOP
100
AcDbLine
 10
3.833333333333333
 20
26.693693693693692
 30
0.0
 11
4.958666666666666
 21
26.03900777491036
 31
0.0
  0
LINE
  5
D2
330
17
100
AcDbEntity
  8
TOP
100
AcDbLine
 10
5.374666666666666
 20
26.03900777491036
 30
0.0
 11
6.5
 21
26.693693693693692
 31
0.0
  0
LINE
  5
D3
330
17
100
AcDbEntity
  8
TOP
100
AcDbLine
 10
6.5
 20
26.693693693693692
 30
0.0
 11
7.625333333333333
 21
26.03900777491036
 31
0.0
  0
LINE
  5
D4
330
17
100
AcDbEntity
  8
TOP
100
AcDbLine
 10
8.041333333333334
 20
26.03900777491036
 30
0.0
 11
9.166666666666666
 21
26.693693693693692
 31
0.0
  0
LINE
  5
D5
330
17
100
AcDbEntity
  8
TOP
100
AcDbLine
 10
9.166666666666666
 20
26.693693693693692
 30
0.0
 11
10.292
 21
26.03900777491036
 31
0.0
  0
LINE
  5
D6
330
17
100
AcDbEntity
  8
TOP
100
AcDbLine
 10
2.5
 20
27.46846846846847
 30
0.0
 11
3.6253333333333333
 21
26.813782549685133
 31
0.0
  0
LINE
  5
D7
330
17
100
AcDbEntity
  8
TOP
100
AcDbLine
 10
4.041333333333333
 20
26.813782549685133
 30
0.0
 11
5.166666666666666
 21
27.46846846846847
 31
0.0
  0
LINE
  5
D8
330
17
100
AcDbEntity
  8
TOP
100
AcDbLine
 10
5.166666666666666
 20
27.46846846846847
 30
0.0
 11
6.292
 21
26.813782549685133
 31
0.0
  0
LINE
  5
D9
330
17
100
AcDbEntity
  8
TOP
100
AcDbLine
 10
6.708
 20
26.813782549685133
 30
0.0
 11
7.833333333333333
 21
27.46846846846847
 31
0.0
  0
LINE
  5
DA
330
17
100
AcDbEntity
  8
TOP
100
AcDbLine
 10
7.833333333333333
 20
27.46846846846847
 30
0.0
 11
8.958666666666666
 21
26.813782549685133
 31
0.0
  0
LINE
  5
DB
330
17
100
AcDbEntity
  8
TOP
100
AcDbLine
 10
9.374666666666666
 20
26.813782549685133
 30
0.0
 11
10.5
 21
27.46846846846847
 31
0.0
  0
LINE
  5
DC
330
17
100
AcDbEntity
  8
TOP
100
AcDbLine
 10
2.708
 20
27.58855732445991
 30
0.0
 11
3.833333333333333
 21
28.243243243243242
 31
0.0
  0
LINE
  5
DD
330
17
100
AcDbEntity
  8
TOP
100
AcDbLine
 10
3.833333333333333
 20
28.243243243243242
 30
0.0
 11
4.958666666666666
 21
27.58855732445991
 31
0.0
  0
LINE
  5
DE
330
17
100
AcDbEntity
  8
TOP
100
AcDbLine
 10
5.374666666666666
 20
27.58855732445991
 30
0.0
 11
6.5
 21
28.243243243243242
 31
0.0
  0
LINE
  5
DF
330
17
100
AcDbEntity
  8
TOP
100
AcDbLine
 10
6.5
 20
28.243243243243242
 30
0.0
 11
7.625333333333333
 21
27.58855732445991
 31
0.0
  0
LINE
  5
E0
330
17
100
AcDbEntity
  8
TOP
100
AcDbLine
 10
8.041333333333334
 20
27.58855732445991
 30
0.0
 11
9.166666666666666
 21
28.243243243243242
 31
0.0
  0
LINE
  5
E1
330
17
100
AcDbEntity
  8
TOP
100
AcDbLine
 10
9.166666666666666
 20
28.243243243243242
 30
0.0
 11
10.292
 21
27.58855732445991
 31
0.0
  0
LINE
  5
E2
330
17
100
AcDbEntity
  8
TOP
100
AcDbLine
 10
2.5
 20
29.01801801801802
 30
0.0
 11
3.6253333333333333
 21
28.363332099234682
 31
0.0
  0
LINE
  5
E3
330
17
100
AcDbEntity
  8
TOP
100
AcDbLine
 10
4.041333333333333
 20
28.363332099234682
 30
0.0
 11
5.166666666666666
 21
29.01801801801802
 31
0.0
  0
LINE
  5
E4
330
17
100
AcDbEntity
  8
TOP
100
AcDbLine
 10
5.166666666666666
 20
29.01801801801802
 30
0.0
 11
6.292
 21
28.363332099234682
 31
0.0
  0
LINE
  5
E5
330
17
100
AcDbEntity
  8
TOP
100
AcDbLine
 10
6.708
 20
28.363332099234682
 30
0.0
 11
7.833333333333333
 21
29.01801801801802
 31
0.0
  0
LINE
  5
E6
330
17
100
AcDbEntity
  8
TOP
100
AcDbLine
 10
7.833333333333333
 20
29.01801801801802
 30
0.0
 11
8.958666666666666
 21
28.363332099234682
 31
0.0
  0
LINE
  5
E7
330
17
100
AcDbEntity
  8
TOP
100
AcDbLine
 10
9.374666666666666
 20
28.363332099234682
 30
0.0
 11
10.5
 21
29.01801801801802
 31
0.0
  0
LINE
  5
E8
330
17
100
AcDbEntity
  8
TOP
100
AcDbLine
 10
2.708
 20
29.13810687400946
 30
0.0
 11
3.833333333333333
 21
29.792792792792792
 31
0.0
  0
LINE
  5
E9
330
17
100
AcDbEntity
  8
TOP
100
AcDbLine
 10
3.833333333333333
 20
29.792792792792792
 30
0.0
 11
4.958666666666666
 21
29.13810687400946
 31
0.0
  0
LINE
  5
EA
330
17
100
AcDbEntity
  8
TOP
100
AcDbLine
 10
5.374666666666666
 20
29.13810687400946
 30
0.0
 11
6.5
 21
29.792792792792792
 31
0.0
  0
LINE
  5
EB
330
17
100
AcDbEntity
  8
TOP
100
AcDbLine
 10
6.5
 20
29.792792792792792
 30
0.0
 11
7.625333333333333
 21
29.13810687400946
 31
0.0
  0
LINE
  5
EC
330
17
100
AcDbEntity
  8
TOP
100
AcDbLine
 10
8.041333333333334
 20
29.13810687400946
 30
0.0
 11
9.166666666666666
 21
29.792792792792792
 31
0.0
  0
LINE
  5
ED
330
17
100
AcDbEntity
  8
TOP
100
AcDbLine
 10
9.166666666666666
 20
29.792792792792792
 30
0.0
 11
10.292
 21
29.13810687400946
 31
0.0
  0
LINE
  5
EE
330
17
100
AcDbEntity
  8
TOP
100
AcDbLine
 10
2.5
 20
30.567567567567565
 30
0.0
 11
3.6253333333333333
 21
29.912881648784232
 31
0.0
  0
LINE
  5
EF
330
17
100
AcDbEntity
  8
TOP
100
AcDbLine
 10
4.041333333333333
 20
29.912881648784232
 30
0.0
 11
5.166666666666666
 21
30.567567567567565
 31
0.0
  0
LINE
  5
F0
330
17
100
AcDbEntity
  8
TOP
100
AcDbLine
 10
5.166666666666666
 20
30.567567567567565
 30
0.0
 11
6.292
 21
29.912881648784232
 31
0.0
  0
LINE
  5
F1
330
17
100
AcDbEntity
  8
TOP
100
AcDbLine
 10
6.708
 20
29.912881648784232
 30
0.0
 11
7.833333333333333
 21
30.567567567567565
 31
0.0
  0
LINE
  5
F2
330
17
100
AcDbEntity
  8
TOP
100
AcDbLine
 10
7.833333333333333
 20
30.567567567567565
 30
0.0
 11
8.958666666666666
 21
29.912881648784232
 31
0.0
  0
LINE
  5
F3
330
17
100
AcDbEntity
  8
TOP
100
AcDbLine
 10
9.374666666666666
 20
29.912881648784232
 30
0.0
 11
10.5
 21
30.567567567567565
 31
0.0
  0
LINE
  5
F4
330
17
100
AcDbEntity
  8
TOP
100
AcDbLine
 10
2.708
 20
30.687656423559005
 30
0.0
 11
3.833333333333333
 21
31.34234234234234
 31
0.0
  0
LINE
  5
F5
330
17
100
AcDbEntity
  8
TOP
100
AcDbLine
 10
3.833333333333333
 20
31.34234234234234
 30
0.0
 11
4.958666666666666
 21
30.687656423559005
 31
0.0
  0
LINE
  5
F6
330
17
100
AcDbEntity
  8
TOP
100
AcDbLine
 10
5.374666666666666
 20
30.687656423559005
 30
0.0
 11
6.5
 21
31.34234234234234
 31
0.0
  0
LINE
  5
F7
330
17
100
AcDbEntity
  8
TOP
100
AcDbLine
 10
6.5
 20
31.34234234234234
 30
0.0
 11
7.625333333333333
 21
30.687656423559005
 31
0.0
  0
LINE
  5
F8
330
17
100
AcDbEntity
  8
TOP
100
AcDbLine
 10
8.041333333333334
 20
30.687656423559005
 30
0.0
 11
9.166666666666666
 21
31.34234234234234
 31
0.0
  0
LINE
  5
F9
330
17
100
AcDbEntity
  8
TOP
100
AcDbLine
 10
9.166666666666666
 20
31.34234234234234
 30
0.0
 11
10.292
 21
30.687656423559005
 31
0.0
  0
LINE
  5
FA
330
17
100
AcDbEntity
  8
TOP
100
AcDbLine
 10
2.5
 20
32.11711711711712
 30
0.0
 11
3.6253333333333333
 21
31.462431198333782
 31
0.0
  0
LINE
  5
FB
330
17
100
AcDbEntity
  8
TOP
100
AcDbLine
 10
4.041333333333333
 20
31.462431198333782
 30
0.0
 11
5.166666666666666
 21
32.11711711711712
 31
0.0
  0
LINE
  5
FC
330
17
100
AcDbEntity
  8
TOP
100
AcDbLine
 10
5.166666666666666
 20
32.11711711711712
 30
0.0
 11
6.292
 21
31.462431198333782
 31
0.0
  0
LINE
  5
FD
330
17
100
AcDbEntity
  8
TOP
100
AcDbLine
 10
6.708
 20
31.462431198333782
 30
0.0
 11
7.833333333333333
 21
32.11711711711712
 31
0.0
  0
LINE
  5
FE
330
17
100
AcDbEntity
  8
TOP
100
AcDbLine
 10
7.833333333333333
 20
32.11711711711712
 30
0.0
 11
8.958666666666666
 21
31.462431198333782
 31
0.0
  0
LINE
  5
FF
330
17
100
AcDbEntity
  8
TOP
100
AcDbLine
 10
9.374666666666666
 20
31.462431198333782
 30
0.0
 11
10.5
 21
32.11711711711712
 31
0.0
  0
LINE
  5
100
330
17
100
AcDbEntity
  8
TOP
100
AcDbLine
 10
2.708
 20
32.23720597310856
 30
0.0
 11
3.833333333333333
 21
32.89189189189189
 31
0.0
  0
LINE
  5
101
330
17
100
AcDbEntity
  8
TOP
100
AcDbLine
 10
3.833333333333333
 20
32.89189189189189
 30
0.0
 11
4.958666666666666
 21
32.23720597310856
 31
0.0
  0
LINE
  5
102
330
17
100
AcDbEntity
  8
TOP
100
AcDbLine
 10
5.374666666666666
 20
32.23720597310856
 30
0.0
 11
6.5
 21
32.89189189189189
 31
0.0
  0
LINE
  5
103
330
17
100
AcDbEntity
  8
TOP
100
AcDbLine
 10
6.5
 20
32.89189189189189
 30
0.0
 11
7.625333333333333
 21
32.23720597310856
 31
0.0
  0
LINE
  5
104
330
17
100
AcDbEntity
  8
TOP
100
AcDbLine
 10
8.041333333333334
 20
32.23720597310856
 30
0.0
 11
9.166666666666666
 21
32.89189189189189
 31
0.0
  0
LINE
  5
105
330
17
100
AcDbEntity
  8
TOP
100
AcDbLine
 10
9.166666666666666
 20
32.89189189189189
 30
0.0
 11
10.292
 21
32.23720597310856
 31
0.0
  0
LINE
  5
106
330
17
100
AcDbEntity
  8
TOP
100
AcDbLine
 10
2.5
 20
33.666666666666664
 30
0.0
 11
3.6253333333333333
 21
33.01198074788333
 31
0.0
  0
LINE
  5
107
330
17
100
AcDbEntity
  8
TOP
100
AcDbLine
 10
4.041333333333333
 20
33.01198074788333
 30
0.0
 11
5.166666666666666
 21
33.666666666666664
 31
0.0
  0
LINE
  5
108
330
17
100
AcDbEntity
  8
TOP
100
AcDbLine
 10
5.166666666666666
 20
33.666666666666664
 30
0.0
 11
6.292
 21
33.01198074788333
 31
0.0
  0
LINE
  5
109
330
17
100
AcDbEntity
  8
TOP
100
AcDbLine
 10
6.708
 20
33.01198074788333
 30
0.0
 11
7.833333333333333
 21
33.666666666666664
 31
0.0
  0
LINE
  5
10A
330
17
100
AcDbEntity
  8
TOP
100
AcDbLine
 10
7.833333333333333
 20
33.666666666666664
 30
0.0
 11
8.958666666666666
 21
33.01198074788333
 31
0.0
  0
LINE
  5
10B
330
17
100
AcDbEntity
  8
TOP
100
AcDbLine
 10
9.374666666666666
 20
33.01198074788333
 30
0.0
 11
10.5
 21
33.666666666666664
 31
0.0
  0
LINE
  5
10C
330
17
100
AcDbEntity
  8
TOP
100
AcDbLine
 10
2.708
 20
33.786755522658105
 30
0.0
 11
3.833333333333333
 21
34.44144144144144
 31
0.0
  0
LINE
  5
10D
330
17
100
AcDbEntity
  8
TOP
100
AcDbLine
 10
3.833333333333333
 20
34.44144144144144
 30
0.0
 11
4.958666666666666
 21
33.786755522658105
 31
0.0
  0
LINE
  5
10E
330
17
100
AcDbEntity
  8
TOP
100
AcDbLine
 10
5.374666666666666
 20
33.786755522658105
 30
0.0
 11
6.5
 21
34.44144144144144
 31
0.0
  0
LINE
  5
10F
330
17
100
AcDbEntity
  8
TOP
100
AcDbLine
 10
6.5
 20
34.44144144144144
 30
0.0
 11
7.625333333333333
 21
33.786755522658105
 31
0.0
  0
LINE
  5
110
330
17
100
AcDbEntity
  8
TOP
100
AcDbLine
 10
8.041333333333334
 20
33.786755522658105
 30
0.0
 11
9.166666666666666
 21
34.44144144144144
 31
0.0
  0
LINE
  5
111
330
17
100
AcDbEntity
  8
TOP
100
AcDbLine
 10
9.166666666666666
 20
34.44144144144144
 30
0.0
 11
10.292
 21
33.786755522658105
 31
0.0
  0
LINE
  5
112
330
17
100
AcDbEntity
  8
TOP
100
AcDbLine
 10
2.5
 20
35.21621621621621
 30
0.0
 11
3.6253333333333333
 21
34.56153029743288
 31
0.0
  0
LINE
  5
113
330
17
100
AcDbEntity
  8
TOP
100
AcDbLine
 10
4.041333333333333
 20
34.56153029743288
 30
0.0
 11
5.166666666666666
 21
35.21621621621621
 31
0.0
  0
LINE
  5
114
330
17
100
AcDbEntity
  8
TOP
100
AcDbLine
 10
5.166666666666666
 20
35.21621621621621
 30
0.0
 11
6.292
 21
34.56153029743288
 31
0.0
  0
LINE
  5
115
330
17
100
AcDbEntity
  8
TOP
100
AcDbLine
 10
6.708
 20
34.56153029743288
 30
0.0
 11
7.833333333333333
 21
35.21621621621621
 31
0.0
  0
LINE
  5
116
330
17
100
AcDbEntity
  8
TOP
100
AcDbLine
 10
7.833333333333333
 20
35.21621621621621
 30
0.0
 11
8.958666666666666
 21
34.56153029743288
 31
0.0
  0
LINE
  5
117
330
17
100
AcDbEntity
  8
TOP
100
AcDbLine
 10
9.374666666666666
 20
34.56153029743288
 30
0.0
 11
10.5
 21
35.21621621621621
 31
0.0
  0
LINE
  5
118
330
17
100
AcDbEntity
  8
TOP
100
AcDbLine
 10
2.708
 20
35.33630507220765
 30
0.0
 11
3.833333333333333
 21
35.990990990990994
 31
0.0
  0
LINE
  5
119
330
17
100
AcDbEntity
  8
TOP
100
AcDbLine
 10
3.833333333333333
 20
35.990990990990994
 30
0.0
 11
4.958666666666666
 21
35.33630507220765
 31
0.0
  0
LINE
  5
11A
330
17
100
AcDbEntity
  8
TOP
100
AcDbLine
 10
5.374666666666666
 20
35.33630507220765
 30
0.0
 11
6.5
 21
35.990990990990994
 31
0.0
  0
LINE
  5
11B
330
17
100
AcDbEntity
  8
TOP
100
AcDbLine
 10
6.5
 20
35.990990990990994
 30
0.0
 11
7.625333333333333
 21
35.33630507220765
 31
0.0
  0
LINE
  5
11C
330
17
100
AcDbEntity
  8
TOP
100
AcDbLine
 10
8.041333333333334
 20
35.33630507220765
 30
0.0
 11
9.166666666666666
 21
35.990990990990994
 31
0.0
  0
LINE
  5
11D
330
17
100
AcDbEntity
  8
TOP
100
AcDbLine
 10
9.166666666666666
 20
35.990990990990994
 30
0.0
 11
10.292
 21
35.33630507220765
 31
0.0
  0
LINE
  5
11E
330
17
100
AcDbEntity
  8
TOP
100
AcDbLine
 10
2.5
 20
36.765765765765764
 30
0.0
 11
3.6253333333333333
 21
36.111079846982435
 31
0.0
  0
LINE
  5
11F
330
17
100
AcDbEntity
  8
TOP
100
AcDbLine
 10
4.041333333333333
 20
36.111079846982435
 30
0.0
 11
5.166666666666666
 21
36.765765765765764
 31
0.0
  0
LINE
  5
120
330
17
100
AcDbEntity
  8
TOP
100
AcDbLine
 10
5.166666666666666
 20
36.765765765765764
 30
0.0
 11
6.292
 21
36.111079846982435
 31
0.0
  0
LINE
  5
121
330
17
100
AcDbEntity
  8
TOP
100
AcDbLine
 10
6.708
 20
36.111079846982435
 30
0.0
 11
7.833333333333333
 21
36.765765765765764
 31
0.0
  0
LINE
  5
122
330
17
100
AcDbEntity
  8
TOP
100
AcDbLine
 10
7.833333333333333
 20
36.765765765765764
 30
0.0
 11
8.958666666666666
 21
36.111079846982435
 31
0.0
  0
LINE
  5
123
330
17
100
AcDbEntity
  8
TOP
100
AcDbLine
 10
9.374666666666666
 20
36.111079846982435
 30
0.0
 11
10.5
 21
36.765765765765764
 31
0.0
  0
LINE
  5
124
330
17
100
AcDbEntity
  8
TOP
100
AcDbLine
 10
2.708
 20
36.885854621757204
 30
0.0
 11
3.833333333333333
 21
37.54054054054054
 31
0.0
  0
LINE
  5
125
330
17
100
AcDbEntity
  8
TOP
100
AcDbLine
 10
3.833333333333333
 20
37.54054054054054
 30
0.0
 11
4.958666666666666
 21
36.885854621757204
 31
0.0
  0
LINE
  5
126
330
17
100
AcDbEntity
  8
TOP
100
AcDbLine
 10
5.374666666666666
 20
36.885854621757204
 30
0.0
 11
6.5
 21
37.54054054054054
 31
0.0
  0
LINE
  5
127
330
17
100
AcDbEntity
  8
TOP
100
AcDbLine
 10
6.5
 20
37.54054054054054
 30
0.0
 11
7.625333333333333
 21
36.885854621757204
 31
0.0
  0
LINE
  5
128
330
17
100
AcDbEntity
  8
TOP
100
AcDbLine
 10
8.041333333333334
 20
36.885854621757204
 30
0.0
 11
9.166666666666666
 21
37.54054054054054
 31
0.0
  0
LINE
  5
129
330
17
100
AcDbEntity
  8
TOP
100
AcDbLine
 10
9.166666666666666
 20
37.54054054054054
 30
0.0
 11
10.292
 21
36.885854621757204
 31
0.0
  0
LINE
  5
12A
330
17
100
AcDbEntity
  8
TOP
100
AcDbLine
 10
2.5
 20
38.31531531531532
 30
0.0
 11
3.6253333333333333
 21
37.66062939653198
 31
0.0
  0
LINE
  5
12B
330
17
100
AcDbEntity
  8
TOP
100
AcDbLine
 10
4.041333333333333
 20
37.66062939653198
 30
0.0
 11
5.166666666666666
 21
38.31531531531532
 31
0.0
  0
LINE
  5
12C
330
17
100
AcDbEntity
  8
TOP
100
AcDbLine
 10
5.166666666666666
 20
38.31531531531532
 30
0.0
 11
6.292
 21
37.66062939653198
 31
0.0
  0
LINE
  5
12D
330
17
100
AcDbEntity
  8
TOP
100
AcDbLine
 10
6.708
 20
37.66062939653198
 30
0.0
 11
7.833333333333333
 21
38.31531531531532
 31
0.0
  0
LINE
  5
12E
330
17
100
AcDbEntity
  8
TOP
100
AcDbLine
 10
7.833333333333333
 20
38.31531531531532
 30
0.0
 11
8.958666666666666
 21
37.66062939653198
 31
0.0
  0
LINE
  5
12F
330
17
100
AcDbEntity
  8
TOP
100
AcDbLine
 10
9.374666666666666
 20
37.66062939653198
 30
0.0
 11
10.5
 21
38.31531531531532
 31
0.0
  0
LINE
  5
130
330
17
100
AcDbEntity
  8
TOP
100
AcDbLine
 10
2.708
 20
38.43540417130676
 30
0.0
 11
3.833333333333333
 21
39.09009009009009
 31
0.0
  0
LINE
  5
131
330
17
100
AcDbEntity
  8
TOP
100
AcDbLine
 10
3.833333333333333
 20
39.09009009009009
 30
0.0
 11
4.958666666666666
 21
38.43540417130676
 31
0.0
  0
LINE
  5
132
330
17
100
AcDbEntity
  8
TOP
100
AcDbLine
 10
5.374666666666666
 20
38.43540417130676
 30
0.0
 11
6.5
 21
39.09009009009009
 31
0.0
  0
LINE
  5
133
330
17
100
AcDbEntity
  8
TOP
100
AcDbLine
 10
6.5
 20
39.09009009009009
 30
0.0
 11
7.625333333333333
 21
38.43540417130676
 31
0.0
  0
LINE
  5
134
330
17
100
AcDbEntity
  8
TOP
100
AcDbLine
 10
8.041333333333334
 20
38.43540417130676
 30
0.0
 11
9.166666666666666
 21
39.09009009009009
 31
0.0
  0
LINE
  5
135
330
17
100
AcDbEntity
  8
TOP
100
AcDbLine
 10
9.166666666666666
 20
39.09009009009009
 30
0.0
 11
10.292
 21
38.43540417130676
 31
0.0
  0
LINE
  5
136
330
17
100
AcDbEntity
  8
TOP
100
AcDbLine
 10
2.5
 20
39.86486486486486
 30
0.0
 11
3.6253333333333333
 21
39.21017894608153
 31
0.0
  0
LINE
  5
137
330
17
100
AcDbEntity
  8
TOP
100
AcDbLine
 10
4.041333333333333
 20
39.21017894608153
 30
0.0
 11
5.166666666666666
 21
39.86486486486486
 31
0.0
  0
LINE
  5
138
330
17
100
AcDbEntity
  8
TOP
100
AcDbLine
 10
5.166666666666666
 20
39.86486486486486
 30
0.0
 11
6.292
 21
39.21017894608153
 31
0.0
  0
LINE
  5
139
330
17
100
AcDbEntity
  8
TOP
100
AcDbLine
 10
6.708
 20
39.21017894608153
 30
0.0
 11
7.833333333333333
 21
39.86486486486486
 31
0.0
  0
LINE
  5
13A
330
17
100
AcDbEntity
  8
TOP
100
AcDbLine
 10
7.833333333333333
 20
39.86486486486486
 30
0.0
 11
8.958666666666666
 21
39.21017894608153
 31
0.0
  0
LINE
  5
13B
330
17
100
AcDbEntity
  8
TOP
100
AcDbLine
 10
9.374666666666666
 20
39.21017894608153
 30
0.0
 11
10.5
 21
39.86486486486486
 31
0.0
  0
LINE
  5
13C
330
17
100
AcDbEntity
  8
TOP
100
AcDbLine
 10
2.708
 20
39.9849537208563
 30
0.0
 11
3.833333333333333
 21
40.63963963963964
 31
0.0
  0
LINE
  5
13D
330
17
100
AcDbEntity
  8
TOP
100
AcDbLine
 10
3.833333333333333
 20
40.63963963963964
 30
0.0
 11
4.958666666666666
 21
39.9849537208563
 31
0.0
  0
LINE
  5
13E
330
17
100
AcDbEntity
  8
TOP
100
AcDbLine
 10
5.374666666666666
 20
39.9849537208563
 30
0.0
 11
6.5
 21
40.63963963963964
 31
0.0
  0
LINE
  5
13F
330
17
100
AcDbEntity
  8
TOP
100
AcDbLine
 10
6.5
 20
40.63963963963964
 30
0.0
 11
7.625333333333333
 21
39.9849537208563
 31
0.0
  0
LINE
  5
140
330
17
100
AcDbEntity
  8
TOP
100
AcDbLine
 10
8.041333333333334
 20
39.9849537208563
 30
0.0
 11
9.166666666666666
 21
40.63963963963964
 31
0.0
  0
LINE
  5
141
330
17
100
AcDbEntity
  8
TOP
100
AcDbLine
 10
9.166666666666666
 20
40.63963963963964
 30
0.0
 11
10.292
 21
39.9849537208563
 31
0.0
  0
LINE
  5
142
330
17
100
AcDbEntity
  8
TOP
100
AcDbLine
 10
2.5
 20
41.414414414414416
 30
0.0
 11
3.6253333333333333
 21
40.75972849563108
 31
0.0
  0
LINE
  5
143
330
17
100
AcDbEntity
  8
TOP
100
AcDbLine
 10
4.041333333333333
 20
40.75972849563108
 30
0.0
 11
5.166666666666666
 21
41.414414414414416
 31
0.0
  0
LINE
  5
144
330
17
100
AcDbEntity
  8
TOP
100
AcDbLine
 10
5.166666666666666
 20
41.414414414414416
 30
0.0
 11
6.292
 21
40.75972849563108
 31
0.0
  0
LINE
  5
145
330
17
100
AcDbEntity
  8
TOP
100
AcDbLine
 10
6.708
 20
40.75972849563108
 30
0.0
 11
7.833333333333333
 21
41.414414414414416
 31
0.0
  0
LINE
  5
146
330
17
100
AcDbEntity
  8
TOP
100
AcDbLine
 10
7.833333333333333
 20
41.414414414414416
 30
0.0
 11
8.958666666666666
 21
40.75972849563108
 31
0.0
  0
LINE
  5
147
330
17
100
AcDbEntity
  8
TOP
100
AcDbLine
 10
9.374666666666666
 20
40.75972849563108
 30
0.0
 11
10.5
 21
41.414414414414416
 31
0.0
  0
LINE
  5
148
330
17
100
AcDbEntity
  8
TOP
100
AcDbLine
 10
2.708
 20
41.53450327040586
 30
0.0
 11
3.833333333333333
 21
42.189189189189186
 31
0.0
  0
LINE
  5
149
330
17
100
AcDbEntity
  8
TOP
100
AcDbLine
 10
3.833333333333333
 20
42.189189189189186
 30
0.0
 11
4.958666666666666
 21
41.53450327040586
 31
0.0
  0
LINE
  5
14A
330
17
100
AcDbEntity
  8
TOP
100
AcDbLine
 10
5.374666666666666
 20
41.53450327040586
 30
0.0
 11
6.5
 21
42.189189189189186
 31
0.0
  0
LINE
  5
14B
330
17
100
AcDbEntity
  8
TOP
100
AcDbLine
 10
6.5
 20
42.189189189189186
 30
0.0
 11
7.625333333333333
 21
41.53450327040586
 31
0.0
  0
LINE
  5
14C
330
17
100
AcDbEntity
  8
TOP
100
AcDbLine
 10
8.041333333333334
 20
41.53450327040586
 30
0.0
 11
9.166666666666666
 21
42.189189189189186
 31
0.0
  0
LINE
  5
14D
330
17
100
AcDbEntity
  8
TOP
100
AcDbLine
 10
9.166666666666666
 20
42.189189189189186
 30
0.0
 11
10.292
 21
41.53450327040586
 31
0.0
  0
LINE
  5
14E
330
17
100
AcDbEntity
  8
TOP
100
AcDbLine
 10
2.5
 20
42.96396396396396
 30
0.0
 11
3.6253333333333333
 21
42.309278045180626
 31
0.0
  0
LINE
  5
14F
330
17
100
AcDbEntity
  8
TOP
100
AcDbLine
 10
4.041333333333333
 20
42.309278045180626
 30
0.0
 11
5.166666666666666
 21
42.96396396396396
 31
0.0
  0
LINE
  5
150
330
17
100
AcDbEntity
  8
TOP
100
AcDbLine
 10
5.166666666666666
 20
42.96396396396396
 30
0.0
 11
6.292
 21
42.309278045180626
 31
0.0
  0
LINE
  5
151
330
17
100
AcDbEntity
  8
TOP
100
AcDbLine
 10
6.708
 20
42.309278045180626
 30
0.0
 11
7.833333333333333
 21
42.96396396396396
 31
0.0
  0
LINE
  5
152
330
17
100
AcDbEntity
  8
TOP
100
AcDbLine
 10
7.833333333333333
 20
42.96396396396396
 30
0.0
 11
8.958666666666666
 21
42.309278045180626
 31
0.0
  0
LINE
  5
153
330
17
100
AcDbEntity
  8
TOP
100
AcDbLine
 10
9.374666666666666
 20
42.309278045180626
 30
0.0
 11
10.5
 21
42.96396396396396
 31
0.0
  0
LINE
  5
154
330
17
100
AcDbEntity
  8
TOP
100
AcDbLine
 10
2.708
 20
43.0840528199554
 30
0.0
 11
3.833333333333333
 21
43.73873873873874
 31
0.0
  0
LINE
  5
155
330
17
100
AcDbEntity
  8
TOP
100
AcDbLine
 10
3.833333333333333
 20
43.73873873873874
 30
0.0
 11
4.958666666666666
 21
43.0840528199554
 31
0.0
  0
LINE
  5
156
330
17
100
AcDbEntity
  8
TOP
100
AcDbLine
 10
5.374666666666666
 20
43.0840528199554
 30
0.0
 11
6.5
 21
43.73873873873874
 31
0.0
  0
LINE
  5
157
330
17
100
AcDbEntity
  8
TOP
100
AcDbLine
 10
6.5
 20
43.73873873873874
 30
0.0
 11
7.625333333333333
 21
43.0840528199554
 31
0.0
  0
LINE
  5
158
330
17
100
AcDbEntity
  8
TOP
100
AcDbLine
 10
8.041333333333334
 20
43.0840528199554
 30
0.0
 11
9.166666666666666
 21
43.73873873873874
 31
0.0
  0
LINE
  5
159
330
17
100
AcDbEntity
  8
TOP
100
AcDbLine
 10
9.166666666666666
 20
43.73873873873874
 30
0.0
 11
10.292
 21
43.0840528199554
 31
0.0
  0
LINE
  5
15A
330
17
100
AcDbEntity
  8
TOP
100
AcDbLine
 10
2.5
 20
44.51351351351351
 30
0.0
 11
3.6253333333333333
 21
43.85882759473018
 31
0.0
  0
LINE
  5
15B
330
17
100
AcDbEntity
  8
TOP
100
AcDbLine
 10
4.041333333333333
 20
43.85882759473018
 30
0.0
 11
5.166666666666666
 21
44.51351351351351
 31
0.0
  0
LINE
  5
15C
330
17
100
AcDbEntity
  8
TOP
100
AcDbLine
 10
5.166666666666666
 20
44.51351351351351
 30
0.0
 11
6.292
 21
43.85882759473018
 31
0.0
  0
LINE
  5
15D
330
17
100
AcDbEntity
  8
TOP
100
AcDbLine
 10
6.708
 20
43.85882759473018
 30
0.0
 11
7.833333333333333
 21
44.51351351351351
 31
0.0
  0
LINE
  5
15E
330
17
100
AcDbEntity
  8
TOP
100
AcDbLine
 10
7.833333333333333
 20
44.51351351351351
 30
0.0
 11
8.958666666666666
 21
43.85882759473018
 31
0.0
  0
LINE
  5
15F
330
17
100
AcDbEntity
  8
TOP
100
AcDbLine
 10
9.374666666666666
 20
43.85882759473018
 30
0.0
 11
10.5
 21
44.51351351351351
 31
0.0
  0
LINE
  5
160
330
17
100
AcDbEntity
  8
TOP
100
AcDbLine
 10
2.708
 20
44.63360236950495
 30
0.0
 11
3.833333333333333
 21
45.288288288288285
 31
0.0
  0
LINE
  5
161
330
17
100
AcDbEntity
  8
TOP
100
AcDbLine
 10
3.833333333333333
 20
45.288288288288285
 30
0.0
 11
4.958666666666666
 21
44.63360236950495
 31
0.0
  0
LINE
  5
162
330
17
100
AcDbEntity
  8
TOP
100
AcDbLine
 10
5.374666666666666
 20
44.63360236950495
 30
0.0
 11
6.5
 21
45.288288288288285
 31
0.0
  0
LINE
  5
163
330
17
100
AcDbEntity
  8
TOP
100
AcDbLine
 10
6.5
 20
45.288288288288285
 30
0.0
 11
7.625333333333333
 21
44.63360236950495
 31
0.0
  0
LINE
  5
164
330
17
100
AcDbEntity
  8
TOP
100
AcDbLine
 10
8.041333333333334
 20
44.63360236950495
 30
0.0
 11
9.166666666666666
 21
45.288288288288285
 31
0.0
  0
LINE
  5
165
330
17
100
AcDbEntity
  8
TOP
100
AcDbLine
 10
9.166666666666666
 20
45.288288288288285
 30
0.0
 11
10.292
 21
44.63360236950495
 31
0.0
  0
LINE
  5
166
330
17
100
AcDbEntity
  8
TOP
100
AcDbLine
 10
2.5
 20
46.06306306306306
 30
0.0
 11
3.6253333333333333
 21
45.408377144279726
 31
0.0
  0
LINE
  5
167
330
17
100
AcDbEntity
  8
TOP
100
AcDbLine
 10
4.041333333333333
 20
45.408377144279726
 30
0.0
 11
5.166666666666666
 21
46.06306306306306
 31
0.0
  0
LINE
  5
168
330
17
100
AcDbEntity
  8
TOP
100
AcDbLine
 10
5.166666666666666
 20
46.06306306306306
 30
0.0
 11
6.292
 21
45.408377144279726
 31
0.0
  0
LINE
  5
169
330
17
100
AcDbEntity
  8
TOP
100
AcDbLine
 10
6.708
 20
45.408377144279726
 30
0.0
 11
7.833333333333333
 21
46.06306306306306
 31
0.0
  0
LINE
  5
16A
330
17
100
AcDbEntity
  8
TOP
100
AcDbLine
 10
7.833333333333333
 20
46.06306306306306
 30
0.0
 11
8.958666666666666
 21
45.408377144279726
 31
0.0
  0
LINE
  5
16B
330
17
100
AcDbEntity
  8
TOP
100
AcDbLine
 10
9.374666666666666
 20
45.408377144279726
 30
0.0
 11
10.5
 21
46.06306306306306
 31
0.0
  0
LINE
  5
16C
330
17
100
AcDbEntity
  8
TOP
100
AcDbLine
 10
2.708
 20
46.1831519190545
 30
0.0
 11
3.833333333333333
 21
46.83783783783784
 31
0.0
  0
LINE
  5
16D
330
17
100
AcDbEntity
  8
TOP
100
AcDbLine
 10
3.833333333333333
 20
46.83783783783784
 30
0.0
 11
4.958666666666666
 21
46.1831519190545
 31
0.0
  0
LINE
  5
16E
330
17
100
AcDbEntity
  8
TOP
100
AcDbLine
 10
5.374666666666666
 20
46.1831519190545
 30
0.0
 11
6.5
 21
46.83783783783784
 31
0.0
  0
LINE
  5
16F
330
17
100
AcDbEntity
  8
TOP
100
AcDbLine
 10
6.5
 20
46.83783783783784
 30
0.0
 11
7.625333333333333
 21
46.1831519190545
 31
0.0
  0
LINE
  5
170
330
17
100
AcDbEntity
  8
TOP
100
AcDbLine
 10
8.041333333333334
 20
46.1831519190545
 30
0.0
 11
9.166666666666666
 21
46.83783783783784
 31
0.0
  0
LINE
  5
171
330
17
100
AcDbEntity
  8
TOP
100
AcDbLine
 10
9.166666666666666
 20
46.83783783783784
 30
0.0
 11
10.292
 21
46.1831519190545
 31
0.0
  0
LINE
  5
172
330
17
100
AcDbEntity
  8
TOP
100
AcDbLine
 10
2.5
 20
47.61261261261261
 30
0.0
 11
3.6253333333333333
 21
46.95792669382928
 31
0.0
  0
LINE
  5
173
330
17
100
AcDbEntity
  8
TOP
100
AcDbLine
 10
4.041333333333333
 20
46.95792669382928
 30
0.0
 11
5.166666666666666
 21
47.61261261261261
 31
0.0
  0
LINE
  5
174
330
17
100
AcDbEntity
  8
TOP
100
AcDbLine
 10
5.166666666666666
 20
47.61261261261261
 30
0.0
 11
6.292
 21
46.95792669382928
 31
0.0
  0
LINE
  5
175
330
17
100
AcDbEntity
  8
TOP
100
AcDbLine
 10
6.708
 20
46.95792669382928
 30
0.0
 11
7.833333333333333
 21
47.61261261261261
 31
0.0
  0
LINE
  5
176
330
17
100
AcDbEntity
  8
TOP
100
AcDbLine
 10
7.833333333333333
 20
47.61261261261261
 30
0.0
 11
8.958666666666666
 21
46.95792669382928
 31
0.0
  0
LINE
  5
177
330
17
100
AcDbEntity
  8
TOP
100
AcDbLine
 10
9.374666666666666
 20
46.95792669382928
 30
0.0
 11
10.5
 21
47.61261261261261
 31
0.0
  0
LINE
  5
178
330
17
100
AcDbEntity
  8
TOP
100
AcDbLine
 10
2.708
 20
47.73270146860405
 30
0.0
 11
3.833333333333333
 21
48.387387387387385
 31
0.0
  0
LINE
  5
179
330
17
100
AcDbEntity
  8
TOP
100
AcDbLine
 10
3.833333333333333
 20
48.387387387387385
 30
0.0
 11
4.958666666666666
 21
47.73270146860405
 31
0.0
  0
LINE
  5
17A
330
17
100
AcDbEntity
  8
TOP
100
AcDbLine
 10
5.374666666666666
 20
47.73270146860405
 30
0.0
 11
6.5
 21
48.387387387387385
 31
0.0
  0
LINE
  5
17B
330
17
100
AcDbEntity
  8
TOP
100
AcDbLine
 10
6.5
 20
48.387387387387385
 30
0.0
 11
7.625333333333333
 21
47.73270146860405
 31
0.0
  0
LINE
  5
17C
330
17
100
AcDbEntity
  8
TOP
100
AcDbLine
 10
8.041333333333334
 20
47.73270146860405
 30
0.0
 11
9.166666666666666
 21
48.387387387387385
 31
0.0
  0
LINE
  5
17D
330
17
100
AcDbEntity
  8
TOP
100
AcDbLine
 10
9.166666666666666
 20
48.387387387387385
 30
0.0
 11
10.292
 21
47.73270146860405
 31
0.0
  0
LINE
  5
17E
330
17
100
AcDbEntity
  8
TOP
100
AcDbLine
 10
2.5
 20
49.16216216216216
 30
0.0
 11
3.6253333333333333
 21
48.507476243378825
 31
0.0
  0
LINE
  5
17F
330
17
100
AcDbEntity
  8
TOP
100
AcDbLine
 10
4.041333333333333
 20
48.507476243378825
 30
0.0
 11
5.166666666666666
 21
49.16216216216216
 31
0.0
  0
LINE
  5
180
330
17
100
AcDbEntity
  8
TOP
100
AcDbLine
 10
5.166666666666666
 20
49.16216216216216
 30
0.0
 11
6.292
 21
48.507476243378825
 31
0.0
  0
LINE
  5
181
330
17
100
AcDbEntity
  8
TOP
100
AcDbLine
 10
6.708
 20
48.507476243378825
 30
0.0
 11
7.833333333333333
 21
49.16216216216216
 31
0.0
  0
LINE
  5
182
330
17
100
AcDbEntity
  8
TOP
100
AcDbLine
 10
7.833333333333333
 20
49.16216216216216
 30
0.0
 11
8.958666666666666
 21
48.507476243378825
 31
0.0
  0
LINE
  5
183
330
17
100
AcDbEntity
  8
TOP
100
AcDbLine
 10
9.374666666666666
 20
48.507476243378825
 30
0.0
 11
10.5
 21
49.16216216216216
 31
0.0
  0
LINE
  5
184
330
17
100
AcDbEntity
  8
TOP
100
AcDbLine
 10
2.708
 20
49.2822510181536
 30
0.0
 11
3.833333333333333
 21
49.93693693693694
 31
0.0
  0
LINE
  5
185
330
17
100
AcDbEntity
  8
TOP
100
AcDbLine
 10
3.833333333333333
 20
49.93693693693694
 30
0.0
 11
4.958666666666666
 21
49.2822510181536
 31
0.0
  0
LINE
  5
186
330
17
100
AcDbEntity
  8
TOP
100
AcDbLine
 10
5.374666666666666
 20
49.2822510181536
 30
0.0
 11
6.5
 21
49.93693693693694
 31
0.0
  0
LINE
  5
187
330
17
100
AcDbEntity
  8
TOP
100
AcDbLine
 10
6.5
 20
49.93693693693694
 30
0.0
 11
7.625333333333333
 21
49.2822510181536
 31
0.0
  0
LINE
  5
188
330
17
100
AcDbEntity
  8
TOP
100
AcDbLine
 10
8.041333333333334
 20
49.2822510181536
 30
0.0
 11
9.166666666666666
 21
49.93693693693694
 31
0.0
  0
LINE
  5
189
330
17
100
AcDbEntity
  8
TOP
100
AcDbLine
 10
9.166666666666666
 20
49.93693693693694
 30
0.0
 11
10.292
 21
49.2822510181536
 31
0.0
  0
LINE
  5
18A
330
17
100
AcDbEntity
  8
TOP
100
AcDbLine
 10
2.5
 20
50.71171171171171
 30
0.0
 11
3.6253333333333333
 21
50.05702579292838
 31
0.0
  0
LINE
  5
18B
330
17
100
AcDbEntity
  8
TOP
100
AcDbLine
 10
4.041333333333333
 20
50.05702579292838
 30
0.0
 11
5.166666666666666
 21
50.71171171171171
 31
0.0
  0
LINE
  5
18C
330
17
100
AcDbEntity
  8
TOP
100
AcDbLine
 10
5.166666666666666
 20
50.71171171171171
 30
0.0
 11
6.292
 21
50.05702579292838
 31
0.0
  0
LINE
  5
18D
330
17
100
AcDbEntity
  8
TOP
100
AcDbLine
 10
6.708
 20
50.05702579292838
 30
0.0
 11
7.833333333333333
 21
50.71171171171171
 31
0.0
  0
LINE
  5
18E
330
17
100
AcDbEntity
  8
TOP
100
AcDbLine
 10
7.833333333333333
 20
50.71171171171171
 30
0.0
 11
8.958666666666666
 21
50.05702579292838
 31
0.0
  0
LINE
  5
18F
330
17
100
AcDbEntity
  8
TOP
100
AcDbLine
 10
9.374666666666666
 20
50.05702579292838
 30
0.0
 11
10.5
 21
50.71171171171171
 31
0.0
  0
LINE
  5
190
330
17
100
AcDbEntity
  8
TOP
100
AcDbLine
 10
2.708
 20
50.83180056770315
 30
0.0
 11
3.833333333333333
 21
51.486486486486484
 31
0.0
  0
LINE
  5
191
330
17
100
AcDbEntity
  8
TOP
100
AcDbLine
 10
3.833333333333333
 20
51.486486486486484
 30
0.0
 11
4.958666666666666
 21
50.83180056770315
 31
0.0
  0
LINE
  5
192
330
17
100
AcDbEntity
  8
TOP
100
AcDbLine
 10
5.374666666666666
 20
50.83180056770315
 30
0.0
 11
6.5
 21
51.486486486486484
 31
0.0
  0
LINE
  5
193
330
17
100
AcDbEntity
  8
TOP
100
AcDbLine
 10
6.5
 20
51.486486486486484
 30
0.0
 11
7.625333333333333
 21
50.83180056770315
 31
0.0
  0
LINE
  5
194
330
17
100
AcDbEntity
  8
TOP
100
AcDbLine
 10
8.041333333333334
 20
50.83180056770315
 30
0.0
 11
9.166666666666666
 21
51.486486486486484
 31
0.0
  0
LINE
  5
195
330
17
100
AcDbEntity
  8
TOP
100
AcDbLine
 10
9.166666666666666
 20
51.486486486486484
 30
0.0
 11
10.292
 21
50.83180056770315
 31
0.0
  0
LINE
  5
196
330
17
100
AcDbEntity
  8
TOP
100
AcDbLine
 10
2.5
 20
52.26126126126126
 30
0.0
 11
3.6253333333333333
 21
51.606575342477925
 31
0.0
  0
LINE
  5
197
330
17
100
AcDbEntity
  8
TOP
100
AcDbLine
 10
4.041333333333333
 20
51.606575342477925
 30
0.0
 11
5.166666666666666
 21
52.26126126126126
 31
0.0
  0
LINE
  5
198
330
17
100
AcDbEntity
  8
TOP
100
AcDbLine
 10
5.166666666666666
 20
52.26126126126126
 30
0.0
 11
6.292
 21
51.606575342477925
 31
0.0
  0
LINE
  5
199
330
17
100
AcDbEntity
  8
TOP
100
AcDbLine
 10
6.708
 20
51.606575342477925
 30
0.0
 11
7.833333333333333
 21
52.26126126126126
 31
0.0
  0
LINE
  5
19A
330
17
100
AcDbEntity
  8
TOP
100
AcDbLine
 10
7.833333333333333
 20
52.26126126126126
 30
0.0
 11
8.958666666666666
 21
51.606575342477925
 31
0.0
  0
LINE
  5
19B
330
17
100
AcDbEntity
  8
TOP
100
AcDbLine
 10
9.374666666666666
 20
51.606575342477925
 30
0.0
 11
10.5
 21
52.26126126126126
 31
0.0
  0
LINE
  5
19C
330
17
100
AcDbEntity
  8
TOP
100
AcDbLine
 10
2.708
 20
52.3813501172527
 30
0.0
 11
3.833333333333333
 21
53.03603603603604
 31
0.0
  0
LINE
  5
19D
330
17
100
AcDbEntity
  8
TOP
100
AcDbLine
 10
3.833333333333333
 20
53.03603603603604
 30
0.0
 11
4.958666666666666
 21
52.3813501172527
 31
0.0
  0
LINE
  5
19E
330
17
100
AcDbEntity
  8
TOP
100
AcDbLine
 10
5.374666666666666
 20
52.3813501172527
 30
0.0
 11
6.5
 21
53.03603603603604
 31
0.0
  0
LINE
  5
19F
330
17
100
AcDbEntity
  8
TOP
100
AcDbLine
 10
6.5
 20
53.03603603603604
 30
0.0
 11
7.625333333333333
 21
52.3813501172527
 31
0.0
  0
LINE
  5
1A0
330
17
100
AcDbEntity
  8
TOP
100
AcDbLine
 10
8.041333333333334
 20
52.3813501172527
 30
0.0
 11
9.166666666666666
 21
53.03603603603604
 31
0.0
  0
LINE
  5
1A1
330
17
100
AcDbEntity
  8
TOP
100
AcDbLine
 10
9.166666666666666
 20
53.03603603603604
 30
0.0
 11
10.292
 21
52.3813501172527
 31
0.0
  0
LINE
  5
1A2
330
17
100
AcDbEntity
  8
TOP
100
AcDbLine
 10
2.5
 20
53.81081081081081
 30
0.0
 11
3.6253333333333333
 21
53.15612489202748
 31
0.0
  0
LINE
  5
1A3
330
17
100
AcDbEntity
  8
TOP
100
AcDbLine
 10
4.041333333333333
 20
53.15612489202748
 30
0.0
 11
5.166666666666666
 21
53.81081081081081
 31
0.0
  0
LINE
  5
1A4
330
17
100
AcDbEntity
  8
TOP
100
AcDbLine
 10
5.166666666666666
 20
53.81081081081081
 30
0.0
 11
6.292
 21
53.15612489202748
 31
0.0
  0
LINE
  5
1A5
330
17
100
AcDbEntity
  8
TOP
100
AcDbLine
 10
6.708
 20
53.15612489202748
 30
0.0
 11
7.833333333333333
 21
53.81081081081081
 31
0.0
  0
LINE
  5
1A6
330
17
100
AcDbEntity
  8
TOP
100
AcDbLine
 10
7.833333333333333
 20
53.81081081081081
 30
0.0
 11
8.958666666666666
 21
53.15612489202748
 31
0.0
  0
LINE
  5
1A7
330
17
100
AcDbEntity
  8
TOP
100
AcDbLine
 10
9.374666666666666
 20
53.15612489202748
 30
0.0
 11
10.5
 21
53.81081081081081
 31
0.0
  0
LINE
  5
1A8
330
17
100
AcDbEntity
  8
TOP
100
AcDbLine
 10
2.708
 20
53.93089966680225
 30
0.0
 11
3.833333333333333
 21
54.585585585585584
 31
0.0
  0
LINE
  5
1A9
330
17
100
AcDbEntity
  8
TOP
100
AcDbLine
 10
3.833333333333333
 20
54.585585585585584
 30
0.0
 11
4.958666666666666
 21
53.93089966680225
 31
0.0
  0
LINE
  5
1AA
330
17
100
AcDbEntity
  8
TOP
100
AcDbLine
 10
5.374666666666666
 20
53.93089966680225
 30
0.0
 11
6.5
 21
54.585585585585584
 31
0.0
  0
LINE
  5
1AB
330
17
100
AcDbEntity
  8
TOP
100
AcDbLine
 10
6.5
 20
54.585585585585584
 30
0.0
 11
7.625333333333333
 21
53.93089966680225
 31
0.0
  0
LINE
  5
1AC
330
17
100
AcDbEntity
  8
TOP
100
AcDbLine
 10
8.041333333333334
 20
53.93089966680225
 30
0.0
 11
9.166666666666666
 21
54.585585585585584
 31
0.0
  0
LINE
  5
1AD
330
17
100
AcDbEntity
  8
TOP
100
AcDbLine
 10
9.166666666666666
 20
54.585585585585584
 30
0.0
 11
10.292
 21
53.93089966680225
 31
0.0
  0
LINE
  5
1AE
330
17
100
AcDbEntity
  8
TOP
100
AcDbLine
 10
2.5
 20
55.36036036036036
 30
0.0
 11
3.6253333333333333
 21
54.705674441577024
 31
0.0
  0
LINE
  5
1AF
330
17
100
AcDbEntity
  8
TOP
100
AcDbLine
 10
4.041333333333333
 20
54.705674441577024
 30
0.0
 11
5.166666666666666
 21
55.36036036036036
 31
0.0
  0
LINE
  5
1B0
330
17
100
AcDbEntity
  8
TOP
100
AcDbLine
 10
5.166666666666666
 20
55.36036036036036
 30
0.0
 11
6.292
 21
54.705674441577024
 31
0.0
  0
LINE
  5
1B1
330
17
100
AcDbEntity
  8
TOP
100
AcDbLine
 10
6.708
 20
54.705674441577024
 30
0.0
 11
7.833333333333333
 21
55.36036036036036
 31
0.0
  0
LINE
  5
1B2
330
17
100
AcDbEntity
  8
TOP
100
AcDbLine
 10
7.833333333333333
 20
55.36036036036036
 30
0.0
 11
8.958666666666666
 21
54.705674441577024
 31
0.0
  0
LINE
  5
1B3
330
17
100
AcDbEntity
  8
TOP
100
AcDbLine
 10
9.374666666666666
 20
54.705674441577024
 30
0.0
 11
10.5
 21
55.36036036036036
 31
0.0
  0
LINE
  5
1B4
330
17
100
AcDbEntity
  8
TOP
100
AcDbLine
 10
2.708
 20
55.4804492163518
 30
0.0
 11
3.833333333333333
 21
56.13513513513513
 31
0.0
  0
LINE
  5
1B5
330
17
100
AcDbEntity
  8
TOP
100
AcDbLine
 10
3.833333333333333
 20
56.13513513513513
 30
0.0
 11
4.958666666666666
 21
55.4804492163518
 31
0.0
  0
LINE
  5
1B6
330
17
100
AcDbEntity
  8
TOP
100
AcDbLine
 10
5.374666666666666
 20
55.4804492163518
 30
0.0
 11
6.5
 21
56.13513513513513
 31
0.0
  0
LINE
  5
1B7
330
17
100
AcDbEntity
  8
TOP
100
AcDbLine
 10
6.5
 20
56.13513513513513
 30
0.0
 11
7.625333333333333
 21
55.4804492163518
 31
0.0
  0
LINE
  5
1B8
330
17
100
AcDbEntity
  8
TOP
100
AcDbLine
 10
8.041333333333334
 20
55.4804492163518
 30
0.0
 11
9.166666666666666
 21
56.13513513513513
 31
0.0
  0
LINE
  5
1B9
330
17
100
AcDbEntity
  8
TOP
100
AcDbLine
 10
9.166666666666666
 20
56.13513513513513
 30
0.0
 11
10.292
 21
55.4804492163518
 31
0.0
  0
LINE
  5
1BA
330
17
100
AcDbEntity
  8
TOP
100
AcDbLine
 10
2.5
 20
56.909909909909906
 30
0.0
 11
3.6253333333333333
 21
56.25522399112657
 31
0.0
  0
LINE
  5
1BB
330
17
100
AcDbEntity
  8
TOP
100
AcDbLine
 10
4.041333333333333
 20
56.25522399112657
 30
0.0
 11
5.166666666666666
 21
56.909909909909906
 31
0.0
  0
LINE
  5
1BC
330
17
100
AcDbEntity
  8
TOP
100
AcDbLine
 10
5.166666666666666
 20
56.909909909909906
 30
0.0
 11
6.292
 21
56.25522399112657
 31
0.0
  0
LINE
  5
1BD
330
17
100
AcDbEntity
  8
TOP
100
AcDbLine
 10
6.708
 20
56.25522399112657
 30
0.0
 11
7.833333333333333
 21
56.909909909909906
 31
0.0
  0
LINE
  5
1BE
330
17
100
AcDbEntity
  8
TOP
100
AcDbLine
 10
7.833333333333333
 20
56.909909909909906
 30
0.0
 11
8.958666666666666
 21
56.25522399112657
 31
0.0
  0
LINE
  5
1BF
330
17
100
AcDbEntity
  8
TOP
100
AcDbLine
 10
9.374666666666666
 20
56.25522399112657
 30
0.0
 11
10.5
 21
56.909909909909906
 31
0.0
  0
LINE
  5
1C0
330
17
100
AcDbEntity
  8
TOP
100
AcDbLine
 10
2.708
 20
57.02999876590135
 30
0.0
 11
3.833333333333333
 21
57.68468468468468
 31
0.0
  0
LINE
  5
1C1
330
17
100
AcDbEntity
  8
TOP
100
AcDbLine
 10
3.833333333333333
 20
57.68468468468468
 30
0.0
 11
4.958666666666666
 21
57.02999876590135
 31
0.0
  0
LINE
  5
1C2
330
17
100
AcDbEntity
  8
TOP
100
AcDbLine
 10
5.374666666666666
 20
57.02999876590135
 30
0.0
 11
6.5
 21
57.68468468468468
 31
0.0
  0
LINE
  5
1C3
330
17
100
AcDbEntity
  8
TOP
100
AcDbLine
 10
6.5
 20
57.68468468468468
 30
0.0
 11
7.625333333333333
 21
57.02999876590135
 31
0.0
  0
LINE
  5
1C4
330
17
100
AcDbEntity
  8
TOP
100
AcDbLine
 10
8.041333333333334
 20
57.02999876590135
 30
0.0
 11
9.166666666666666
 21
57.68468468468468
 31
0.0
  0
LINE
  5
1C5
330
17
100
AcDbEntity
  8
TOP
100
AcDbLine
 10
9.166666666666666
 20
57.68468468468468
 30
0.0
 11
10.292
 21
57.02999876590135
 31
0.0
  0
LINE
  5
1C6
330
17
100
AcDbEntity
  8
TOP
100
AcDbLine
 10
2.5
 20
58.45945945945946
 30
0.0
 11
3.6253333333333333
 21
57.80477354067612
 31
0.0
  0
LINE
  5
1C7
330
17
100
AcDbEntity
  8
TOP
100
AcDbLine
 10
4.041333333333333
 20
57.80477354067612
 30
0.0
 11
5.166666666666666
 21
58.45945945945946
 31
0.0
  0
LINE
  5
1C8
330
17
100
AcDbEntity
  8
TOP
100
AcDbLine
 10
5.166666666666666
 20
58.45945945945946
 30
0.0
 11
6.292
 21
57.80477354067612
 31
0.0
  0
LINE
  5
1C9
330
17
100
AcDbEntity
  8
TOP
100
AcDbLine
 10
6.708
 20
57.80477354067612
 30
0.0
 11
7.833333333333333
 21
58.45945945945946
 31
0.0
  0
LINE
  5
1CA
330
17
100
AcDbEntity
  8
TOP
100
AcDbLine
 10
7.833333333333333
 20
58.45945945945946
 30
0.0
 11
8.958666666666666
 21
57.80477354067612
 31
0.0
  0
LINE
  5
1CB
330
17
100
AcDbEntity
  8
TOP
100
AcDbLine
 10
9.374666666666666
 20
57.80477354067612
 30
0.0
 11
10.5
 21
58.45945945945946
 31
0.0
  0
LINE
  5
1CC
330
17
100
AcDbEntity
  8
TOP
100
AcDbLine
 10
2.708
 20
58.5795483154509
 30
0.0
 11
3.833333333333333
 21
59.23423423423423
 31
0.0
  0
LINE
  5
1CD
330
17
100
AcDbEntity
  8
TOP
100
AcDbLine
 10
3.833333333333333
 20
59.23423423423423
 30
0.0
 11
4.958666666666666
 21
58.5795483154509
 31
0.0
  0
LINE
  5
1CE
330
17
100
AcDbEntity
  8
TOP
100
AcDbLine
 10
5.374666666666666
 20
58.5795483154509
 30
0.0
 11
6.5
 21
59.23423423423423
 31
0.0
  0
LINE
  5
1CF
330
17
100
AcDbEntity
  8
TOP
100
AcDbLine
 10
6.5
 20
59.23423423423423
 30
0.0
 11
7.625333333333333
 21
58.5795483154509
 31
0.0
  0
LINE
  5
1D0
330
17
100
AcDbEntity
  8
TOP
100
AcDbLine
 10
8.041333333333334
 20
58.5795483154509
 30
0.0
 11
9.166666666666666
 21
59.23423423423423
 31
0.0
  0
LINE
  5
1D1
330
17
100
AcDbEntity
  8
TOP
100
AcDbLine
 10
9.166666666666666
 20
59.23423423423423
 30
0.0
 11
10.292
 21
58.5795483154509
 31
0.0
  0
LINE
  5
1D2
330
17
100
AcDbEntity
  8
TOP
100
AcDbLine
 10
2.5
 20
60.009009009009006
 30
0.0
 11
3.6253333333333333
 21
59.35432309022567
 31
0.0
  0
LINE
  5
1D3
330
17
100
AcDbEntity
  8
TOP
100
AcDbLine
 10
4.041333333333333
 20
59.35432309022567
 30
0.0
 11
5.166666666666666
 21
60.009009009009006
 31
0.0
  0
LINE
  5
1D4
330
17
100
AcDbEntity
  8
TOP
100
AcDbLine
 10
5.166666666666666
 20
60.009009009009006
 30
0.0
 11
6.292
 21
59.35432309022567
 31
0.0
  0
LINE
  5
1D5
330
17
100
AcDbEntity
  8
TOP
100
AcDbLine
 10
6.708
 20
59.35432309022567
 30
0.0
 11
7.833333333333333
 21
60.009009009009006
 31
0.0
  0
LINE
  5
1D6
330
17
100
AcDbEntity
  8
TOP
100
AcDbLine
 10
7.833333333333333
 20
60.009009009009006
 30
0.0
 11
8.958666666666666
 21
59.35432309022567
 31
0.0
  0
LINE
  5
1D7
330
17
100
AcDbEntity
  8
TOP
100
AcDbLine
 10
9.374666666666666
 20
59.35432309022567
 30
0.0
 11
10.5
 21
60.009009009009006
 31
0.0
  0
LINE
  5
1D8
330
17
100
AcDbEntity
  8
TOP
100
AcDbLine
 10
2.708
 20
60.129097865000446
 30
0.0
 11
3.833333333333333
 21
60.78378378378378
 31
0.0
  0
LINE
  5
1D9
330
17
100
AcDbEntity
  8
TOP
100
AcDbLine
 10
3.833333333333333
 20
60.78378378378378
 30
0.0
 11
4.958666666666666
 21
60.129097865000446
 31
0.0
  0
LINE
  5
1DA
330
17
100
AcDbEntity
  8
TOP
100
AcDbLine
 10
5.374666666666666
 20
60.129097865000446
 30
0.0
 11
6.5
 21
60.78378378378378
 31
0.0
  0
LINE
  5
1DB
330
17
100
AcDbEntity
  8
TOP
100
AcDbLine
 10
6.5
 20
60.78378378378378
 30
0.0
 11
7.625333333333333
 21
60.129097865000446
 31
0.0
  0
LINE
  5
1DC
330
17
100
AcDbEntity
  8
TOP
100
AcDbLine
 10
8.041333333333334
 20
60.129097865000446
 30
0.0
 11
9.166666666666666
 21
60.78378378378378
 31
0.0
  0
LINE
  5
1DD
330
17
100
AcDbEntity
  8
TOP
100
AcDbLine
 10
9.166666666666666
 20
60.78378378378378
 30
0.0
 11
10.292
 21
60.129097865000446
 31
0.0
  0
LINE
  5
1DE
330
17
100
AcDbEntity
  8
TOP
100
AcDbLine
 10
2.5
 20
61.55855855855856
 30
0.0
 11
3.6253333333333333
 21
60.90387263977522
 31
0.0
  0
LINE
  5
1DF
330
17
100
AcDbEntity
  8
TOP
100
AcDbLine
 10
4.041333333333333
 20
60.90387263977522
 30
0.0
 11
5.166666666666666
 21
61.55855855855856
 31
0.0
  0
LINE
  5
1E0
330
17
100
AcDbEntity
  8
TOP
100
AcDbLine
 10
5.166666666666666
 20
61.55855855855856
 30
0.0
 11
6.292
 21
60.90387263977522
 31
0.0
  0
LINE
  5
1E1
330
17
100
AcDbEntity
  8
TOP
100
AcDbLine
 10
6.708
 20
60.90387263977522
 30
0.0
 11
7.833333333333333
 21
61.55855855855856
 31
0.0
  0
LINE
  5
1E2
330
17
100
AcDbEntity
  8
TOP
100
AcDbLine
 10
7.833333333333333
 20
61.55855855855856
 30
0.0
 11
8.958666666666666
 21
60.90387263977522
 31
0.0
  0
LINE
  5
1E3
330
17
100
AcDbEntity
  8
TOP
100
AcDbLine
 10
9.374666666666666
 20
60.90387263977522
 30
0.0
 11
10.5
 21
61.55855855855856
 31
0.0
  0
LINE
  5
1E4
330
17
100
AcDbEntity
  8
TOP
100
AcDbLine
 10
2.708
 20
61.67864741455
 30
0.0
 11
3.833333333333333
 21
62.33333333333333
 31
0.0
  0
LINE
  5
1E5
330
17
100
AcDbEntity
  8
TOP
100
AcDbLine
 10
3.833333333333333
 20
62.33333333333333
 30
0.0
 11
4.958666666666666
 21
61.67864741455
 31
0.0
  0
LINE
  5
1E6
330
17
100
AcDbEntity
  8
TOP
100
AcDbLine
 10
5.374666666666666
 20
61.67864741455
 30
0.0
 11
6.5
 21
62.33333333333333
 31
0.0
  0
LINE
  5
1E7
330
17
100
AcDbEntity
  8
TOP
100
AcDbLine
 10
6.5
 20
62.33333333333333
 30
0.0
 11
7.625333333333333
 21
61.67864741455
 31
0.0
  0
LINE
  5
1E8
330
17
100
AcDbEntity
  8
TOP
100
AcDbLine
 10
8.041333333333334
 20
61.67864741455
 30
0.0
 11
9.166666666666666
 21
62.33333333333333
 31
0.0
  0
LINE
  5
1E9
330
17
100
AcDbEntity
  8
TOP
100
AcDbLine
 10
9.166666666666666
 20
62.33333333333333
 30
0.0
 11
10.292
 21
61.67864741455
 31
0.0
  0
LINE
  5
1EA
330
17
100
AcDbEntity
  8
TOP
100
AcDbLine
 10
2.5
 20
63.108108108108105
 30
0.0
 11
3.6253333333333333
 21
62.45342218932477
 31
0.0
  0
LINE
  5
1EB
330
17
100
AcDbEntity
  8
TOP
100
AcDbLine
 10
4.041333333333333
 20
62.45342218932477
 30
0.0
 11
5.166666666666666
 21
63.108108108108105
 31
0.0
  0
LINE
  5
1EC
330
17
100
AcDbEntity
  8
TOP
100
AcDbLine
 10
5.166666666666666
 20
63.108108108108105
 30
0.0
 11
6.292
 21
62.45342218932477
 31
0.0
  0
LINE
  5
1ED
330
17
100
AcDbEntity
  8
TOP
100
AcDbLine
 10
6.708
 20
62.45342218932477
 30
0.0
 11
7.833333333333333
 21
63.108108108108105
 31
0.0
  0
LINE
  5
1EE
330
17
100
AcDbEntity
  8
TOP
100
AcDbLine
 10
7.833333333333333
 20
63.108108108108105
 30
0.0
 11
8.958666666666666
 21
62.45342218932477
 31
0.0
  0
LINE
  5
1EF
330
17
100
AcDbEntity
  8
TOP
100
AcDbLine
 10
9.374666666666666
 20
62.45342218932477
 30
0.0
 11
10.5
 21
63.108108108108105
 31
0.0
  0
LINE
  5
1F0
330
17
100
AcDbEntity
  8
TOP
100
AcDbLine
 10
2.708
 20
63.228196964099546
 30
0.0
 11
3.833333333333333
 21
63.88288288288288
 31
0.0
  0
LINE
  5
1F1
330
17
100
AcDbEntity
  8
TOP
100
AcDbLine
 10
3.833333333333333
 20
63.88288288288288
 30
0.0
 11
4.958666666666666
 21
63.228196964099546
 31
0.0
  0
LINE
  5
1F2
330
17
100
AcDbEntity
  8
TOP
100
AcDbLine
 10
5.374666666666666
 20
63.228196964099546
 30
0.0
 11
6.5
 21
63.88288288288288
 31
0.0
  0
LINE
  5
1F3
330
17
100
AcDbEntity
  8
TOP
100
AcDbLine
 10
6.5
 20
63.88288288288288
 30
0.0
 11
7.625333333333333
 21
63.228196964099546
 31
0.0
  0
LINE
  5
1F4
330
17
100
AcDbEntity
  8
TOP
100
AcDbLine
 10
8.041333333333334
 20
63.228196964099546
 30
0.0
 11
9.166666666666666
 21
63.88288288288288
 31
0.0
  0
LINE
  5
1F5
330
17
100
AcDbEntity
  8
TOP
100
AcDbLine
 10
9.166666666666666
 20
63.88288288288288
 30
0.0
 11
10.292
 21
63.228196964099546
 31
0.0
  0
LINE
  5
1F6
330
17
100
AcDbEntity
  8
TOP
100
AcDbLine
 10
2.5
 20
64.65765765765767
 30
0.0
 11
3.6253333333333333
 21
64.00297173887432
 31
0.0
  0
LINE
  5
1F7
330
17
100
AcDbEntity
  8
TOP
100
AcDbLine
 10
4.041333333333333
 20
64.00297173887432
 30
0.0
 11
5.166666666666666
 21
64.65765765765767
 31
0.0
  0
LINE
  5
1F8
330
17
100
AcDbEntity
  8
TOP
100
AcDbLine
 10
5.166666666666666
 20
64.65765765765767
 30
0.0
 11
6.292
 21
64.00297173887432
 31
0.0
  0
LINE
  5
1F9
330
17
100
AcDbEntity
  8
TOP
100
AcDbLine
 10
6.708
 20
64.00297173887432
 30
0.0
 11
7.833333333333333
 21
64.65765765765767
 31
0.0
  0
LINE
  5
1FA
330
17
100
AcDbEntity
  8
TOP
100
AcDbLine
 10
7.833333333333333
 20
64.65765765765767
 30
0.0
 11
8.958666666666666
 21
64.00297173887432
 31
0.0
  0
LINE
  5
1FB
330
17
100
AcDbEntity
  8
TOP
100
AcDbLine
 10
9.374666666666666
 20
64.00297173887432
 30
0.0
 11
10.5
 21
64.65765765765767
 31
0.0
  0
LINE
  5
1FC
330
17
100
AcDbEntity
  8
TOP
100
AcDbLine
 10
2.708
 20
64.7777465136491
 30
0.0
 11
3.833333333333333
 21
65.43243243243242
 31
0.0
  0
LINE
  5
1FD
330
17
100
AcDbEntity
  8
TOP
100
AcDbLine
 10
3.833333333333333
 20
65.43243243243242
 30
0.0
 11
4.958666666666666
 21
64.7777465136491
 31
0.0
  0
LINE
  5
1FE
330
17
100
AcDbEntity
  8
TOP
100
AcDbLine
 10
5.374666666666666
 20
64.7777465136491
 30
0.0
 11
6.5
 21
65.43243243243242
 31
0.0
  0
LINE
  5
1FF
330
17
100
AcDbEntity
  8
TOP
100
AcDbLine
 10
6.5
 20
65.43243243243242
 30
0.0
 11
7.625333333333333
 21
64.7777465136491
 31
0.0
  0
LINE
  5
200
330
17
100
AcDbEntity
  8
TOP
100
AcDbLine
 10
8.041333333333334
 20
64.7777465136491
 30
0.0
 11
9.166666666666666
 21
65.43243243243242
 31
0.0
  0
LINE
  5
201
330
17
100
AcDbEntity
  8
TOP
100
AcDbLine
 10
9.166666666666666
 20
65.43243243243242
 30
0.0
 11
10.292
 21
64.7777465136491
 31
0.0
  0
LINE
  5
202
330
17
100
AcDbEntity
  8
TOP
100
AcDbLine
 10
2.5
 20
66.2072072072072
 30
0.0
 11
3.6253333333333333
 21
65.55252128842386
 31
0.0
  0
LINE
  5
203
330
17
100
AcDbEntity
  8
TOP
100
AcDbLine
 10
4.041333333333333
 20
65.55252128842386
 30
0.0
 11
5.166666666666666
 21
66.2072072072072
 31
0.0
  0
LINE
  5
204
330
17
100
AcDbEntity
  8
TOP
100
AcDbLine
 10
5.166666666666666
 20
66.2072072072072
 30
0.0
 11
6.292
 21
65.55252128842386
 31
0.0
  0
LINE
  5
205
330
17
100
AcDbEntity
  8
TOP
100
AcDbLine
 10
6.708
 20
65.55252128842386
 30
0.0
 11
7.833333333333333
 21
66.2072072072072
 31
0.0
  0
LINE
  5
206
330
17
100
AcDbEntity
  8
TOP
100
AcDbLine
 10
7.833333333333333
 20
66.2072072072072
 30
0.0
 11
8.958666666666666
 21
65.55252128842386
 31
0.0
  0
LINE
  5
207
330
17
100
AcDbEntity
  8
TOP
100
AcDbLine
 10
9.374666666666666
 20
65.55252128842386
 30
0.0
 11
10.5
 21
66.2072072072072
 31
0.0
  0
LINE
  5
208
330
17
100
AcDbEntity
  8
TOP
100
AcDbLine
 10
2.708
 20
66.32729606319865
 30
0.0
 11
3.833333333333333
 21
66.98198198198199
 31
0.0
  0
LINE
  5
209
330
17
100
AcDbEntity
  8
TOP
100
AcDbLine
 10
3.833333333333333
 20
66.98198198198199
 30
0.0
 11
4.958666666666666
 21
66.32729606319865
 31
0.0
  0
LINE
  5
20A
330
17
100
AcDbEntity
  8
TOP
100
AcDbLine
 10
5.374666666666666
 20
66.32729606319865
 30
0.0
 11
6.5
 21
66.98198198198199
 31
0.0
  0
LINE
  5
20B
330
17
100
AcDbEntity
  8
TOP
100
AcDbLine
 10
6.5
 20
66.98198198198199
 30
0.0
 11
7.625333333333333
 21
66.32729606319865
 31
0.0
  0
LINE
  5
20C
330
17
100
AcDbEntity
  8
TOP
100
AcDbLine
 10
8.041333333333334
 20
66.32729606319865
 30
0.0
 11
9.166666666666666
 21
66.98198198198199
 31
0.0
  0
LINE
  5
20D
330
17
100
AcDbEntity
  8
TOP
100
AcDbLine
 10
9.166666666666666
 20
66.98198198198199
 30
0.0
 11
10.292
 21
66.32729606319865
 31
0.0
  0
LINE
  5
20E
330
17
100
AcDbEntity
  8
TOP
100
AcDbLine
 10
2.5
 20
67.75675675675674
 30
0.0
 11
3.6253333333333333
 21
67.10207083797343
 31
0.0
  0
LINE
  5
20F
330
17
100
AcDbEntity
  8
TOP
100
AcDbLine
 10
4.041333333333333
 20
67.10207083797343
 30
0.0
 11
5.166666666666666
 21
67.75675675675674
 31
0.0
  0
LINE
  5
210
330
17
100
AcDbEntity
  8
TOP
100
AcDbLine
 10
5.166666666666666
 20
67.75675675675674
 30
0.0
 11
6.292
 21
67.10207083797343
 31
0.0
  0
LINE
  5
211
330
17
100
AcDbEntity
  8
TOP
100
AcDbLine
 10
6.708
 20
67.10207083797343
 30
0.0
 11
7.833333333333333
 21
67.75675675675674
 31
0.0
  0
LINE
  5
212
330
17
100
AcDbEntity
  8
TOP
100
AcDbLine
 10
7.833333333333333
 20
67.75675675675674
 30
0.0
 11
8.958666666666666
 21
67.10207083797343
 31
0.0
  0
LINE
  5
213
330
17
100
AcDbEntity
  8
TOP
100
AcDbLine
 10
9.374666666666666
 20
67.10207083797343
 30
0.0
 11
10.5
 21
67.75675675675674
 31
0.0
  0
LINE
  5
214
330
17
100
AcDbEntity
  8
TOP
100
AcDbLine
 10
2.708
 20
67.87684561274818
 30
0.0
 11
3.833333333333333
 21
68.53153153153153
 31
0.0
  0
LINE
  5
215
330
17
100
AcDbEntity
  8
TOP
100
AcDbLine
 10
3.833333333333333
 20
68.53153153153153
 30
0.0
 11
4.958666666666666
 21
67.87684561274818
 31
0.0
  0
LINE
  5
216
330
17
100
AcDbEntity
  8
TOP
100
AcDbLine
 10
5.374666666666666
 20
67.87684561274818
 30
0.0
 11
6.5
 21
68.53153153153153
 31
0.0
  0
LINE
  5
217
330
17
100
AcDbEntity
  8
TOP
100
AcDbLine
 10
6.5
 20
68.53153153153153
 30
0.0
 11
7.625333333333333
 21
67.87684561274818
 31
0.0
  0
LINE
  5
218
330
17
100
AcDbEntity
  8
TOP
100
AcDbLine
 10
8.041333333333334
 20
67.87684561274818
 30
0.0
 11
9.166666666666666
 21
68.53153153153153
 31
0.0
  0
LINE
  5
219
330
17
100
AcDbEntity
  8
TOP
100
AcDbLine
 10
9.166666666666666
 20
68.53153153153153
 30
0.0
 11
10.292
 21
67.87684561274818
 31
0.0
  0
LINE
  5
21A
330
17
100
AcDbEntity
  8
TOP
100
AcDbLine
 10
2.5
 20
69.3063063063063
 30
0.0
 11
3.6253333333333333
 21
68.65162038752297
 31
0.0
  0
LINE
  5
21B
330
17
100
AcDbEntity
  8
TOP
100
AcDbLine
 10
4.041333333333333
 20
68.65162038752297
 30
0.0
 11
5.166666666666666
 21
69.3063063063063
 31
0.0
  0
LINE
  5
21C
330
17
100
AcDbEntity
  8
TOP
100
AcDbLine
 10
5.166666666666666
 20
69.3063063063063
 30
0.0
 11
6.292
 21
68.65162038752297
 31
0.0
  0
LINE
  5
21D
330
17
100
AcDbEntity
  8
TOP
100
AcDbLine
 10
6.708
 20
68.65162038752297
 30
0.0
 11
7.833333333333333
 21
69.3063063063063
 31
0.0
  0
LINE
  5
21E
330
17
100
AcDbEntity
  8
TOP
100
AcDbLine
 10
7.833333333333333
 20
69.3063063063063
 30
0.0
 11
8.958666666666666
 21
68.65162038752297
 31
0.0
  0
LINE
  5
21F
330
17
100
AcDbEntity
  8
TOP
100
AcDbLine
 10
9.374666666666666
 20
68.65162038752297
 30
0.0
 11
10.5
 21
69.3063063063063
 31
0.0
  0
LINE
  5
220
330
17
100
AcDbEntity
  8
TOP
100
AcDbLine
 10
2.708
 20
69.42639516229774
 30
0.0
 11
3.833333333333333
 21
70.08108108108108
 31
0.0
  0
LINE
  5
221
330
17
100
AcDbEntity
  8
TOP
100
AcDbLine
 10
3.833333333333333
 20
70.08108108108108
 30
0.0
 11
4.958666666666666
 21
69.42639516229774
 31
0.0
  0
LINE
  5
222
330
17
100
AcDbEntity
  8
TOP
100
AcDbLine
 10
5.374666666666666
 20
69.42639516229774
 30
0.0
 11
6.5
 21
70.08108108108108
 31
0.0
  0
LINE
  5
223
330
17
100
AcDbEntity
  8
TOP
100
AcDbLine
 10
6.5
 20
70.08108108108108
 30
0.0
 11
7.625333333333333
 21
69.42639516229774
 31
0.0
  0
LINE
  5
224
330
17
100
AcDbEntity
  8
TOP
100
AcDbLine
 10
8.041333333333334
 20
69.42639516229774
 30
0.0
 11
9.166666666666666
 21
70.08108108108108
 31
0.0
  0
LINE
  5
225
330
17
100
AcDbEntity
  8
TOP
100
AcDbLine
 10
9.166666666666666
 20
70.08108108108108
 30
0.0
 11
10.292
 21
69.42639516229774
 31
0.0
  0
LINE
  5
226
330
17
100
AcDbEntity
  8
TOP
100
AcDbLine
 10
2.5
 20
70.85585585585585
 30
0.0
 11
3.6253333333333333
 21
70.20116993707252
 31
0.0
  0
LINE
  5
227
330
17
100
AcDbEntity
  8
TOP
100
AcDbLine
 10
4.041333333333333
 20
70.20116993707252
 30
0.0
 11
5.166666666666666
 21
70.85585585585585
 31
0.0
  0
LINE
  5
228
330
17
100
AcDbEntity
  8
TOP
100
AcDbLine
 10
5.166666666666666
 20
70.85585585585585
 30
0.0
 11
6.292
 21
70.20116993707252
 31
0.0
  0
LINE
  5
229
330
17
100
AcDbEntity
  8
TOP
100
AcDbLine
 10
6.708
 20
70.20116993707252
 30
0.0
 11
7.833333333333333
 21
70.85585585585585
 31
0.0
  0
LINE
  5
22A
330
17
100
AcDbEntity
  8
TOP
100
AcDbLine
 10
7.833333333333333
 20
70.85585585585585
 30
0.0
 11
8.958666666666666
 21
70.20116993707252
 31
0.0
  0
LINE
  5
22B
330
17
100
AcDbEntity
  8
TOP
100
AcDbLine
 10
9.374666666666666
 20
70.20116993707252
 30
0.0
 11
10.5
 21
70.85585585585585
 31
0.0
  0
LINE
  5
22C
330
17
100
AcDbEntity
  8
TOP
100
AcDbLine
 10
2.708
 20
70.97594471184729
 30
0.0
 11
3.833333333333333
 21
71.63063063063063
 31
0.0
  0
LINE
  5
22D
330
17
100
AcDbEntity
  8
TOP
100
AcDbLine
 10
3.833333333333333
 20
71.63063063063063
 30
0.0
 11
4.958666666666666
 21
70.97594471184729
 31
0.0
  0
LINE
  5
22E
330
17
100
AcDbEntity
  8
TOP
100
AcDbLine
 10
5.374666666666666
 20
70.97594471184729
 30
0.0
 11
6.5
 21
71.63063063063063
 31
0.0
  0
LINE
  5
22F
330
17
100
AcDbEntity
  8
TOP
100
AcDbLine
 10
6.5
 20
71.63063063063063
 30
0.0
 11
7.625333333333333
 21
70.97594471184729
 31
0.0
  0
LINE
  5
230
330
17
100
AcDbEntity
  8
TOP
100
AcDbLine
 10
8.041333333333334
 20
70.97594471184729
 30
0.0
 11
9.166666666666666
 21
71.63063063063063
 31
0.0
  0
LINE
  5
231
330
17
100
AcDbEntity
  8
TOP
100
AcDbLine
 10
9.166666666666666
 20
71.63063063063063
 30
0.0
 11
10.292
 21
70.97594471184729
 31
0.0
  0
LINE
  5
232
330
17
100
AcDbEntity
  8
TOP
100
AcDbLine
 10
2.5
 20
72.4054054054054
 30
0.0
 11
3.6253333333333333
 21
71.75071948662207
 31
0.0
  0
LINE
  5
233
330
17
100
AcDbEntity
  8
TOP
100
AcDbLine
 10
4.041333333333333
 20
71.75071948662207
 30
0.0
 11
5.166666666666666
 21
72.4054054054054
 31
0.0
  0
LINE
  5
234
330
17
100
AcDbEntity
  8
TOP
100
AcDbLine
 10
5.166666666666666
 20
72.4054054054054
 30
0.0
 11
6.292
 21
71.75071948662207
 31
0.0
  0
LINE
  5
235
330
17
100
AcDbEntity
  8
TOP
100
AcDbLine
 10
6.708
 20
71.75071948662207
 30
0.0
 11
7.833333333333333
 21
72.4054054054054
 31
0.0
  0
LINE
  5
236
330
17
100
AcDbEntity
  8
TOP
100
AcDbLine
 10
7.833333333333333
 20
72.4054054054054
 30
0.0
 11
8.958666666666666
 21
71.75071948662207
 31
0.0
  0
LINE
  5
237
330
17
100
AcDbEntity
  8
TOP
100
AcDbLine
 10
9.374666666666666
 20
71.75071948662207
 30
0.0
 11
10.5
 21
72.4054054054054
 31
0.0
  0
LINE
  5
238
330
17
100
AcDbEntity
  8
TOP
100
AcDbLine
 10
2.708
 20
72.52549426139684
 30
0.0
 11
3.833333333333333
 21
73.18018018018017
 31
0.0
  0
LINE
  5
239
330
17
100
AcDbEntity
  8
TOP
100
AcDbLine
 10
3.833333333333333
 20
73.18018018018017
 30
0.0
 11
4.958666666666666
 21
72.52549426139684
 31
0.0
  0
LINE
  5
23A
330
17
100
AcDbEntity
  8
TOP
100
AcDbLine
 10
5.374666666666666
 20
72.52549426139684
 30
0.0
 11
6.5
 21
73.18018018018017
 31
0.0
  0
LINE
  5
23B
330
17
100
AcDbEntity
  8
TOP
100
AcDbLine
 10
6.5
 20
73.18018018018017
 30
0.0
 11
7.625333333333333
 21
72.52549426139684
 31
0.0
  0
LINE
  5
23C
330
17
100
AcDbEntity
  8
TOP
100
AcDbLine
 10
8.041333333333334
 20
72.52549426139684
 30
0.0
 11
9.166666666666666
 21
73.18018018018017
 31
0.0
  0
LINE
  5
23D
330
17
100
AcDbEntity
  8
TOP
100
AcDbLine
 10
9.166666666666666
 20
73.18018018018017
 30
0.0
 11
10.292
 21
72.52549426139684
 31
0.0
  0
LINE
  5
23E
330
17
100
AcDbEntity
  8
TOP
100
AcDbLine
 10
2.5
 20
73.95495495495496
 30
0.0
 11
3.6253333333333333
 21
73.30026903617161
 31
0.0
  0
LINE
  5
23F
330
17
100
AcDbEntity
  8
TOP
100
AcDbLine
 10
4.041333333333333
 20
73.30026903617161
 30
0.0
 11
5.166666666666666
 21
73.95495495495496
 31
0.0
  0
LINE
  5
240
330
17
100
AcDbEntity
  8
TOP
100
AcDbLine
 10
5.166666666666666
 20
73.95495495495496
 30
0.0
 11
6.292
 21
73.30026903617161
 31
0.0
  0
LINE
  5
241
330
17
100
AcDbEntity
  8
TOP
100
AcDbLine
 10
6.708
 20
73.30026903617161
 30
0.0
 11
7.833333333333333
 21
73.95495495495496
 31
0.0
  0
LINE
  5
242
330
17
100
AcDbEntity
  8
TOP
100
AcDbLine
 10
7.833333333333333
 20
73.95495495495496
 30
0.0
 11
8.958666666666666
 21
73.30026903617161
 31
0.0
  0
LINE
  5
243
330
17
100
AcDbEntity
  8
TOP
100
AcDbLine
 10
9.374666666666666
 20
73.30026903617161
 30
0.0
 11
10.5
 21
73.95495495495496
 31
0.0
  0
LINE
  5
244
330
17
100
AcDbEntity
  8
TOP
100
AcDbLine
 10
2.708
 20
74.0750438109464
 30
0.0
 11
3.833333333333333
 21
74.72972972972973
 31
0.0
  0
LINE
  5
245
330
17
100
AcDbEntity
  8
TOP
100
AcDbLine
 10
3.833333333333333
 20
74.72972972972973
 30
0.0
 11
4.958666666666666
 21
74.0750438109464
 31
0.0
  0
LINE
  5
246
330
17
100
AcDbEntity
  8
TOP
100
AcDbLine
 10
5.374666666666666
 20
74.0750438109464
 30
0.0
 11
6.5
 21
74.72972972972973
 31
0.0
  0
LINE
  5
247
330
17
100
AcDbEntity
  8
TOP
100
AcDbLine
 10
6.5
 20
74.72972972972973
 30
0.0
 11
7.625333333333333
 21
74.0750438109464
 31
0.0
  0
LINE
  5
248
330
17
100
AcDbEntity
  8
TOP
100
AcDbLine
 10
8.041333333333334
 20
74.0750438109464
 30
0.0
 11
9.166666666666666
 21
74.72972972972973
 31
0.0
  0
LINE
  5
249
330
17
100
AcDbEntity
  8
TOP
100
AcDbLine
 10
9.166666666666666
 20
74.72972972972973
 30
0.0
 11
10.292
 21
74.0750438109464
 31
0.0
  0
LINE
  5
24A
330
17
100
AcDbEntity
  8
TOP
100
AcDbLine
 10
2.5
 20
75.5045045045045
 30
0.0
 11
3.6253333333333333
 21
74.84981858572117
 31
0.0
  0
LINE
  5
24B
330
17
100
AcDbEntity
  8
TOP
100
AcDbLine
 10
4.041333333333333
 20
74.84981858572117
 30
0.0
 11
5.166666666666666
 21
75.5045045045045
 31
0.0
  0
LINE
  5
24C
330
17
100
AcDbEntity
  8
TOP
100
AcDbLine
 10
5.166666666666666
 20
75.5045045045045
 30
0.0
 11
6.292
 21
74.84981858572117
 31
0.0
  0
LINE
  5
24D
330
17
100
AcDbEntity
  8
TOP
100
AcDbLine
 10
6.708
 20
74.84981858572117
 30
0.0
 11
7.833333333333333
 21
75.5045045045045
 31
0.0
  0
LINE
  5
24E
330
17
100
AcDbEntity
  8
TOP
100
AcDbLine
 10
7.833333333333333
 20
75.5045045045045
 30
0.0
 11
8.958666666666666
 21
74.84981858572117
 31
0.0
  0
LINE
  5
24F
330
17
100
AcDbEntity
  8
TOP
100
AcDbLine
 10
9.374666666666666
 20
74.84981858572117
 30
0.0
 11
10.5
 21
75.5045045045045
 31
0.0
  0
LINE
  5
250
330
17
100
AcDbEntity
  8
TOP
100
AcDbLine
 10
2.708
 20
75.62459336049594
 30
0.0
 11
3.833333333333333
 21
76.27927927927928
 31
0.0
  0
LINE
  5
251
330
17
100
AcDbEntity
  8
TOP
100
AcDbLine
 10
3.833333333333333
 20
76.27927927927928
 30
0.0
 11
4.958666666666666
 21
75.62459336049594
 31
0.0
  0
LINE
  5
252
330
17
100
AcDbEntity
  8
TOP
100
AcDbLine
 10
5.374666666666666
 20
75.62459336049594
 30
0.0
 11
6.5
 21
76.27927927927928
 31
0.0
  0
LINE
  5
253
330
17
100
AcDbEntity
  8
TOP
100
AcDbLine
 10
6.5
 20
76.27927927927928
 30
0.0
 11
7.625333333333333
 21
75.62459336049594
 31
0.0
  0
LINE
  5
254
330
17
100
AcDbEntity
  8
TOP
100
AcDbLine
 10
8.041333333333334
 20
75.62459336049594
 30
0.0
 11
9.166666666666666
 21
76.27927927927928
 31
0.0
  0
LINE
  5
255
330
17
100
AcDbEntity
  8
TOP
100
AcDbLine
 10
9.166666666666666
 20
76.27927927927928
 30
0.0
 11
10.292
 21
75.62459336049594
 31
0.0
  0
LINE
  5
256
330
17
100
AcDbEntity
  8
TOP
100
AcDbLine
 10
2.5
 20
77.05405405405405
 30
0.0
 11
3.6253333333333333
 21
76.39936813527072
 31
0.0
  0
LINE
  5
257
330
17
100
AcDbEntity
  8
TOP
100
AcDbLine
 10
4.041333333333333
 20
76.39936813527072
 30
0.0
 11
5.166666666666666
 21
77.05405405405405
 31
0.0
  0
LINE
  5
258
330
17
100
AcDbEntity
  8
TOP
100
AcDbLine
 10
5.166666666666666
 20
77.05405405405405
 30
0.0
 11
6.292
 21
76.39936813527072
 31
0.0
  0
LINE
  5
259
330
17
100
AcDbEntity
  8
TOP
100
AcDbLine
 10
6.708
 20
76.39936813527072
 30
0.0
 11
7.833333333333333
 21
77.05405405405405
 31
0.0
  0
LINE
  5
25A
330
17
100
AcDbEntity
  8
TOP
100
AcDbLine
 10
7.833333333333333
 20
77.05405405405405
 30
0.0
 11
8.958666666666666
 21
76.39936813527072
 31
0.0
  0
LINE
  5
25B
330
17
100
AcDbEntity
  8
TOP
100
AcDbLine
 10
9.374666666666666
 20
76.39936813527072
 30
0.0
 11
10.5
 21
77.05405405405405
 31
0.0
  0
LINE
  5
25C
330
17
100
AcDbEntity
  8
TOP
100
AcDbLine
 10
2.708
 20
77.17414291004549
 30
0.0
 11
3.833333333333333
 21
77.82882882882883
 31
0.0
  0
LINE
  5
25D
330
17
100
AcDbEntity
  8
TOP
100
AcDbLine
 10
3.833333333333333
 20
77.82882882882883
 30
0.0
 11
4.958666666666666
 21
77.17414291004549
 31
0.0
  0
LINE
  5
25E
330
17
100
AcDbEntity
  8
TOP
100
AcDbLine
 10
5.374666666666666
 20
77.17414291004549
 30
0.0
 11
6.5
 21
77.82882882882883
 31
0.0
  0
LINE
  5
25F
330
17
100
AcDbEntity
  8
TOP
100
AcDbLine
 10
6.5
 20
77.82882882882883
 30
0.0
 11
7.625333333333333
 21
77.17414291004549
 31
0.0
  0
LINE
  5
260
330
17
100
AcDbEntity
  8
TOP
100
AcDbLine
 10
8.041333333333334
 20
77.17414291004549
 30
0.0
 11
9.166666666666666
 21
77.82882882882883
 31
0.0
  0
LINE
  5
261
330
17
100
AcDbEntity
  8
TOP
100
AcDbLine
 10
9.166666666666666
 20
77.82882882882883
 30
0.0
 11
10.292
 21
77.17414291004549
 31
0.0
  0
LINE
  5
262
330
17
100
AcDbEntity
  8
TOP
100
AcDbLine
 10
2.5
 20
78.6036036036036
 30
0.0
 11
3.6253333333333333
 21
77.94891768482027
 31
0.0
  0
LINE
  5
263
330
17
100
AcDbEntity
  8
TOP
100
AcDbLine
 10
4.041333333333333
 20
77.94891768482027
 30
0.0
 11
5.166666666666666
 21
78.6036036036036
 31
0.0
  0
LINE
  5
264
330
17
100
AcDbEntity
  8
TOP
100
AcDbLine
 10
5.166666666666666
 20
78.6036036036036
 30
0.0
 11
6.292
 21
77.94891768482027
 31
0.0
  0
LINE
  5
265
330
17
100
AcDbEntity
  8
TOP
100
AcDbLine
 10
6.708
 20
77.94891768482027
 30
0.0
 11
7.833333333333333
 21
78.6036036036036
 31
0.0
  0
LINE
  5
266
330
17
100
AcDbEntity
  8
TOP
100
AcDbLine
 10
7.833333333333333
 20
78.6036036036036
 30
0.0
 11
8.958666666666666
 21
77.94891768482027
 31
0.0
  0
LINE
  5
267
330
17
100
AcDbEntity
  8
TOP
100
AcDbLine
 10
9.374666666666666
 20
77.94891768482027
 30
0.0
 11
10.5
 21
78.6036036036036
 31
0.0
  0
LINE
  5
268
330
17
100
AcDbEntity
  8
TOP
100
AcDbLine
 10
2.708
 20
78.72369245959504
 30
0.0
 11
3.833333333333333
 21
79.37837837837837
 31
0.0
  0
LINE
  5
269
330
17
100
AcDbEntity
  8
TOP
100
AcDbLine
 10
3.833333333333333
 20
79.37837837837837
 30
0.0
 11
4.958666666666666
 21
78.72369245959504
 31
0.0
  0
LINE
  5
26A
330
17
100
AcDbEntity
  8
TOP
100
AcDbLine
 10
5.374666666666666
 20
78.72369245959504
 30
0.0
 11
6.5
 21
79.37837837837837
 31
0.0
  0
LINE
  5
26B
330
17
100
AcDbEntity
  8
TOP
100
AcDbLine
 10
6.5
 20
79.37837837837837
 30
0.0
 11
7.625333333333333
 21
78.72369245959504
 31
0.0
  0
LINE
  5
26C
330
17
100
AcDbEntity
  8
TOP
100
AcDbLine
 10
8.041333333333334
 20
78.72369245959504
 30
0.0
 11
9.166666666666666
 21
79.37837837837837
 31
0.0
  0
LINE
  5
26D
330
17
100
AcDbEntity
  8
TOP
100
AcDbLine
 10
9.166666666666666
 20
79.37837837837837
 30
0.0
 11
10.292
 21
78.72369245959504
 31
0.0
  0
LINE
  5
26E
330
17
100
AcDbEntity
  8
TOP
100
AcDbLine
 10
2.5
 20
80.15315315315316
 30
0.0
 11
3.6253333333333333
 21
79.49846723436981
 31
0.0
  0
LINE
  5
26F
330
17
100
AcDbEntity
  8
TOP
100
AcDbLine
 10
4.041333333333333
 20
79.49846723436981
 30
0.0
 11
5.166666666666666
 21
80.15315315315316
 31
0.0
  0
LINE
  5
270
330
17
100
AcDbEntity
  8
TOP
100
AcDbLine
 10
5.166666666666666
 20
80.15315315315316
 30
0.0
 11
6.292
 21
79.49846723436981
 31
0.0
  0
LINE
  5
271
330
17
100
AcDbEntity
  8
TOP
100
AcDbLine
 10
6.708
 20
79.49846723436981
 30
0.0
 11
7.833333333333333
 21
80.15315315315316
 31
0.0
  0
LINE
  5
272
330
17
100
AcDbEntity
  8
TOP
100
AcDbLine
 10
7.833333333333333
 20
80.15315315315316
 30
0.0
 11
8.958666666666666
 21
79.49846723436981
 31
0.0
  0
LINE
  5
273
330
17
100
AcDbEntity
  8
TOP
100
AcDbLine
 10
9.374666666666666
 20
79.49846723436981
 30
0.0
 11
10.5
 21
80.15315315315316
 31
0.0
  0
LINE
  5
274
330
17
100
AcDbEntity
  8
TOP
100
AcDbLine
 10
2.708
 20
80.2732420091446
 30
0.0
 11
3.833333333333333
 21
80.92792792792793
 31
0.0
  0
LINE
  5
275
330
17
100
AcDbEntity
  8
TOP
100
AcDbLine
 10
3.833333333333333
 20
80.92792792792793
 30
0.0
 11
4.958666666666666
 21
80.2732420091446
 31
0.0
  0
LINE
  5
276
330
17
100
AcDbEntity
  8
TOP
100
AcDbLine
 10
5.374666666666666
 20
80.2732420091446
 30
0.0
 11
6.5
 21
80.92792792792793
 31
0.0
  0
LINE
  5
277
330
17
100
AcDbEntity
  8
TOP
100
AcDbLine
 10
6.5
 20
80.92792792792793
 30
0.0
 11
7.625333333333333
 21
80.2732420091446
 31
0.0
  0
LINE
  5
278
330
17
100
AcDbEntity
  8
TOP
100
AcDbLine
 10
8.041333333333334
 20
80.2732420091446
 30
0.0
 11
9.166666666666666
 21
80.92792792792793
 31
0.0
  0
LINE
  5
279
330
17
100
AcDbEntity
  8
TOP
100
AcDbLine
 10
9.166666666666666
 20
80.92792792792793
 30
0.0
 11
10.292
 21
80.2732420091446
 31
0.0
  0
LINE
  5
27A
330
17
100
AcDbEntity
  8
TOP
100
AcDbLine
 10
2.5
 20
81.7027027027027
 30
0.0
 11
3.6253333333333333
 21
81.04801678391937
 31
0.0
  0
LINE
  5
27B
330
17
100
AcDbEntity
  8
TOP
100
AcDbLine
 10
4.041333333333333
 20
81.04801678391937
 30
0.0
 11
5.166666666666666
 21
81.7027027027027
 31
0.0
  0
LINE
  5
27C
330
17
100
AcDbEntity
  8
TOP
100
AcDbLine
 10
5.166666666666666
 20
81.7027027027027
 30
0.0
 11
6.292
 21
81.04801678391937
 31
0.0
  0
LINE
  5
27D
330
17
100
AcDbEntity
  8
TOP
100
AcDbLine
 10
6.708
 20
81.04801678391937
 30
0.0
 11
7.833333333333333
 21
81.7027027027027
 31
0.0
  0
LINE
  5
27E
330
17
100
AcDbEntity
  8
TOP
100
AcDbLine
 10
7.833333333333333
 20
81.7027027027027
 30
0.0
 11
8.958666666666666
 21
81.04801678391937
 31
0.0
  0
LINE
  5
27F
330
17
100
AcDbEntity
  8
TOP
100
AcDbLine
 10
9.374666666666666
 20
81.04801678391937
 30
0.0
 11
10.5
 21
81.7027027027027
 31
0.0
  0
LINE
  5
280
330
17
100
AcDbEntity
  8
TOP
100
AcDbLine
 10
2.708
 20
81.82279155869414
 30
0.0
 11
3.833333333333333
 21
82.47747747747748
 31
0.0
  0
LINE
  5
281
330
17
100
AcDbEntity
  8
TOP
100
AcDbLine
 10
3.833333333333333
 20
82.47747747747748
 30
0.0
 11
4.958666666666666
 21
81.82279155869414
 31
0.0
  0
LINE
  5
282
330
17
100
AcDbEntity
  8
TOP
100
AcDbLine
 10
5.374666666666666
 20
81.82279155869414
 30
0.0
 11
6.5
 21
82.47747747747748
 31
0.0
  0
LINE
  5
283
330
17
100
AcDbEntity
  8
TOP
100
AcDbLine
 10
6.5
 20
82.47747747747748
 30
0.0
 11
7.625333333333333
 21
81.82279155869414
 31
0.0
  0
LINE
  5
284
330
17
100
AcDbEntity
  8
TOP
100
AcDbLine
 10
8.041333333333334
 20
81.82279155869414
 30
0.0
 11
9.166666666666666
 21
82.47747747747748
 31
0.0
  0
LINE
  5
285
330
17
100
AcDbEntity
  8
TOP
100
AcDbLine
 10
9.166666666666666
 20
82.47747747747748
 30
0.0
 11
10.292
 21
81.82279155869414
 31
0.0
  0
LINE
  5
286
330
17
100
AcDbEntity
  8
TOP
100
AcDbLine
 10
2.5
 20
83.25225225225225
 30
0.0
 11
3.6253333333333333
 21
82.59756633346892
 31
0.0
  0
LINE
  5
287
330
17
100
AcDbEntity
  8
TOP
100
AcDbLine
 10
4.041333333333333
 20
82.59756633346892
 30
0.0
 11
5.166666666666666
 21
83.25225225225225
 31
0.0
  0
LINE
  5
288
330
17
100
AcDbEntity
  8
TOP
100
AcDbLine
 10
5.166666666666666
 20
83.25225225225225
 30
0.0
 11
6.292
 21
82.59756633346892
 31
0.0
  0
LINE
  5
289
330
17
100
AcDbEntity
  8
TOP
100
AcDbLine
 10
6.708
 20
82.59756633346892
 30
0.0
 11
7.833333333333333
 21
83.25225225225225
 31
0.0
  0
LINE
  5
28A
330
17
100
AcDbEntity
  8
TOP
100
AcDbLine
 10
7.833333333333333
 20
83.25225225225225
 30
0.0
 11
8.958666666666666
 21
82.59756633346892
 31
0.0
  0
LINE
  5
28B
330
17
100
AcDbEntity
  8
TOP
100
AcDbLine
 10
9.374666666666666
 20
82.59756633346892
 30
0.0
 11
10.5
 21
83.25225225225225
 31
0.0
  0
LINE
  5
28C
330
17
100
AcDbEntity
  8
TOP
100
AcDbLine
 10
2.708
 20
83.37234110824369
 30
0.0
 11
3.833333333333333
 21
84.02702702702702
 31
0.0
  0
LINE
  5
28D
330
17
100
AcDbEntity
  8
TOP
100
AcDbLine
 10
3.833333333333333
 20
84.02702702702702
 30
0.0
 11
4.958666666666666
 21
83.37234110824369
 31
0.0
  0
LINE
  5
28E
330
17
100
AcDbEntity
  8
TOP
100
AcDbLine
 10
5.374666666666666
 20
83.37234110824369
 30
0.0
 11
6.5
 21
84.02702702702702
 31
0.0
  0
LINE
  5
28F
330
17
100
AcDbEntity
  8
TOP
100
AcDbLine
 10
6.5
 20
84.02702702702702
 30
0.0
 11
7.625333333333333
 21
83.37234110824369
 31
0.0
  0
LINE
  5
290
330
17
100
AcDbEntity
  8
TOP
100
AcDbLine
 10
8.041333333333334
 20
83.37234110824369
 30
0.0
 11
9.166666666666666
 21
84.02702702702702
 31
0.0
  0
LINE
  5
291
330
17
100
AcDbEntity
  8
TOP
100
AcDbLine
 10
9.166666666666666
 20
84.02702702702702
 30
0.0
 11
10.292
 21
83.37234110824369
 31
0.0
  0
LINE
  5
292
330
17
100
AcDbEntity
  8
TOP
100
AcDbLine
 10
2.5
 20
84.8018018018018
 30
0.0
 11
3.6253333333333333
 21
84.14711588301846
 31
0.0
  0
LINE
  5
293
330
17
100
AcDbEntity
  8
TOP
100
AcDbLine
 10
4.041333333333333
 20
84.14711588301846
 30
0.0
 11
5.166666666666666
 21
84.8018018018018
 31
0.0
  0
LINE
  5
294
330
17
100
AcDbEntity
  8
TOP
100
AcDbLine
 10
5.166666666666666
 20
84.8018018018018
 30
0.0
 11
6.292
 21
84.14711588301846
 31
0.0
  0
LINE
  5
295
330
17
100
AcDbEntity
  8
TOP
100
AcDbLine
 10
6.708
 20
84.14711588301846
 30
0.0
 11
7.833333333333333
 21
84.8018018018018
 31
0.0
  0
LINE
  5
296
330
17
100
AcDbEntity
  8
TOP
100
AcDbLine
 10
7.833333333333333
 20
84.8018018018018
 30
0.0
 11
8.958666666666666
 21
84.14711588301846
 31
0.0
  0
LINE
  5
297
330
17
100
AcDbEntity
  8
TOP
100
AcDbLine
 10
9.374666666666666
 20
84.14711588301846
 30
0.0
 11
10.5
 21
84.8018018018018
 31
0.0
  0
LINE
  5
298
330
17
100
AcDbEntity
  8
TOP
100
AcDbLine
 10
2.708
 20
84.92189065779324
 30
0.0
 11
3.833333333333333
 21
85.57657657657657
 31
0.0
  0
LINE
  5
299
330
17
100
AcDbEntity
  8
TOP
100
AcDbLine
 10
3.833333333333333
 20
85.57657657657657
 30
0.0
 11
4.958666666666666
 21
84.92189065779324
 31
0.0
  0
LINE
  5
29A
330
17
100
AcDbEntity
  8
TOP
100
AcDbLine
 10
5.374666666666666
 20
84.92189065779324
 30
0.0
 11
6.5
 21
85.57657657657657
 31
0.0
  0
LINE
  5
29B
330
17
100
AcDbEntity
  8
TOP
100
AcDbLine
 10
6.5
 20
85.57657657657657
 30
0.0
 11
7.625333333333333
 21
84.92189065779324
 31
0.0
  0
LINE
  5
29C
330
17
100
AcDbEntity
  8
TOP
100
AcDbLine
 10
8.041333333333334
 20
84.92189065779324
 30
0.0
 11
9.166666666666666
 21
85.57657657657657
 31
0.0
  0
LINE
  5
29D
330
17
100
AcDbEntity
  8
TOP
100
AcDbLine
 10
9.166666666666666
 20
85.57657657657657
 30
0.0
 11
10.292
 21
84.92189065779324
 31
0.0
  0
LINE
  5
29E
330
17
100
AcDbEntity
  8
TOP
100
AcDbLine
 10
2.5
 20
86.35135135135135
 30
0.0
 11
3.6253333333333333
 21
85.69666543256801
 31
0.0
  0
LINE
  5
29F
330
17
100
AcDbEntity
  8
TOP
100
AcDbLine
 10
4.041333333333333
 20
85.69666543256801
 30
0.0
 11
5.166666666666666
 21
86.35135135135135
 31
0.0
  0
LINE
  5
2A0
330
17
100
AcDbEntity
  8
TOP
100
AcDbLine
 10
5.166666666666666
 20
86.35135135135135
 30
0.0
 11
6.292
 21
85.69666543256801
 31
0.0
  0
LINE
  5
2A1
330
17
100
AcDbEntity
  8
TOP
100
AcDbLine
 10
6.708
 20
85.69666543256801
 30
0.0
 11
7.833333333333333
 21
86.35135135135135
 31
0.0
  0
LINE
  5
2A2
330
17
100
AcDbEntity
  8
TOP
100
AcDbLine
 10
7.833333333333333
 20
86.35135135135135
 30
0.0
 11
8.958666666666666
 21
85.69666543256801
 31
0.0
  0
LINE
  5
2A3
330
17
100
AcDbEntity
  8
TOP
100
AcDbLine
 10
9.374666666666666
 20
85.69666543256801
 30
0.0
 11
10.5
 21
86.35135135135135
 31
0.0
  0
LINE
  5
2A4
330
17
100
AcDbEntity
  8
TOP
100
AcDbLine
 10
2.708
 20
86.4714402073428
 30
0.0
 11
3.833333333333333
 21
87.12612612612612
 31
0.0
  0
LINE
  5
2A5
330
17
100
AcDbEntity
  8
TOP
100
AcDbLine
 10
3.833333333333333
 20
87.12612612612612
 30
0.0
 11
4.958666666666666
 21
86.4714402073428
 31
0.0
  0
LINE
  5
2A6
330
17
100
AcDbEntity
  8
TOP
100
AcDbLine
 10
5.374666666666666
 20
86.4714402073428
 30
0.0
 11
6.5
 21
87.12612612612612
 31
0.0
  0
LINE
  5
2A7
330
17
100
AcDbEntity
  8
TOP
100
AcDbLine
 10
6.5
 20
87.12612612612612
 30
0.0
 11
7.625333333333333
 21
86.4714402073428
 31
0.0
  0
LINE
  5
2A8
330
17
100
AcDbEntity
  8
TOP
100
AcDbLine
 10
8.041333333333334
 20
86.4714402073428
 30
0.0
 11
9.166666666666666
 21
87.12612612612612
 31
0.0
  0
LINE
  5
2A9
330
17
100
AcDbEntity
  8
TOP
100
AcDbLine
 10
9.166666666666666
 20
87.12612612612612
 30
0.0
 11
10.292
 21
86.4714402073428
 31
0.0
  0
LINE
  5
2AA
330
17
100
AcDbEntity
  8
TOP
100
AcDbLine
 10
2.5
 20
87.9009009009009
 30
0.0
 11
3.6253333333333333
 21
87.24621498211756
 31
0.0
  0
LINE
  5
2AB
330
17
100
AcDbEntity
  8
TOP
100
AcDbLine
 10
4.041333333333333
 20
87.24621498211756
 30
0.0
 11
5.166666666666666
 21
87.9009009009009
 31
0.0
  0
LINE
  5
2AC
330
17
100
AcDbEntity
  8
TOP
100
AcDbLine
 10
5.166666666666666
 20
87.9009009009009
 30
0.0
 11
6.292
 21
87.24621498211756
 31
0.0
  0
LINE
  5
2AD
330
17
100
AcDbEntity
  8
TOP
100
AcDbLine
 10
6.708
 20
87.24621498211756
 30
0.0
 11
7.833333333333333
 21
87.9009009009009
 31
0.0
  0
LINE
  5
2AE
330
17
100
AcDbEntity
  8
TOP
100
AcDbLine
 10
7.833333333333333
 20
87.9009009009009
 30
0.0
 11
8.958666666666666
 21
87.24621498211756
 31
0.0
  0
LINE
  5
2AF
330
17
100
AcDbEntity
  8
TOP
100
AcDbLine
 10
9.374666666666666
 20
87.24621498211756
 30
0.0
 11
10.5
 21
87.9009009009009
 31
0.0
  0
LINE
  5
2B0
330
17
100
AcDbEntity
  8
TOP
100
AcDbLine
 10
2.708
 20
88.02098975689233
 30
0.0
 11
3.833333333333333
 21
88.67567567567568
 31
0.0
  0
LINE
  5
2B1
330
17
100
AcDbEntity
  8
TOP
100
AcDbLine
 10
3.833333333333333
 20
88.67567567567568
 30
0.0
 11
4.958666666666666
 21
88.02098975689233
 31
0.0
  0
LINE
  5
2B2
330
17
100
AcDbEntity
  8
TOP
100
AcDbLine
 10
5.374666666666666
 20
88.02098975689233
 30
0.0
 11
6.5
 21
88.67567567567568
 31
0.0
  0
LINE
  5
2B3
330
17
100
AcDbEntity
  8
TOP
100
AcDbLine
 10
6.5
 20
88.67567567567568
 30
0.0
 11
7.625333333333333
 21
88.02098975689233
 31
0.0
  0
LINE
  5
2B4
330
17
100
AcDbEntity
  8
TOP
100
AcDbLine
 10
8.041333333333334
 20
88.02098975689233
 30
0.0
 11
9.166666666666666
 21
88.67567567567568
 31
0.0
  0
LINE
  5
2B5
330
17
100
AcDbEntity
  8
TOP
100
AcDbLine
 10
9.166666666666666
 20
88.67567567567568
 30
0.0
 11
10.292
 21
88.02098975689233
 31
0.0
  0
LINE
  5
2B6
330
17
100
AcDbEntity
  8
TOP
100
AcDbLine
 10
2.5
 20
89.45045045045045
 30
0.0
 11
3.6253333333333333
 21
88.79576453166712
 31
0.0
  0
LINE
  5
2B7
330
17
100
AcDbEntity
  8
TOP
100
AcDbLine
 10
4.041333333333333
 20
88.79576453166712
 30
0.0
 11
5.166666666666666
 21
89.45045045045045
 31
0.0
  0
LINE
  5
2B8
330
17
100
AcDbEntity
  8
TOP
100
AcDbLine
 10
5.166666666666666
 20
89.45045045045045
 30
0.0
 11
6.292
 21
88.79576453166712
 31
0.0
  0
LINE
  5
2B9
330
17
100
AcDbEntity
  8
TOP
100
AcDbLine
 10
6.708
 20
88.79576453166712
 30
0.0
 11
7.833333333333333
 21
89.45045045045045
 31
0.0
  0
LINE
  5
2BA
330
17
100
AcDbEntity
  8
TOP
100
AcDbLine
 10
7.833333333333333
 20
89.45045045045045
 30
0.0
 11
8.958666666666666
 21
88.79576453166712
 31
0.0
  0
LINE
  5
2BB
330
17
100
AcDbEntity
  8
TOP
100
AcDbLine
 10
9.374666666666666
 20
88.79576453166712
 30
0.0
 11
10.5
 21
89.45045045045045
 31
0.0
  0
LINE
  5
2BC
330
17
100
AcDbEntity
  8
TOP
100
AcDbLine
 10
2.708
 20
89.57053930644189
 30
0.0
 11
3.833333333333333
 21
90.22522522522522
 31
0.0
  0
LINE
  5
2BD
330
17
100
AcDbEntity
  8
TOP
100
AcDbLine
 10
3.833333333333333
 20
90.22522522522522
 30
0.0
 11
4.958666666666666
 21
89.57053930644189
 31
0.0
  0
LINE
  5
2BE
330
17
100
AcDbEntity
  8
TOP
100
AcDbLine
 10
5.374666666666666
 20
89.57053930644189
 30
0.0
 11
6.5
 21
90.22522522522522
 31
0.0
  0
LINE
  5
2BF
330
17
100
AcDbEntity
  8
TOP
100
AcDbLine
 10
6.5
 20
90.22522522522522
 30
0.0
 11
7.625333333333333
 21
89.57053930644189
 31
0.0
  0
LINE
  5
2C0
330
17
100
AcDbEntity
  8
TOP
100
AcDbLine
 10
8.041333333333334
 20
89.57053930644189
 30
0.0
 11
9.166666666666666
 21
90.22522522522522
 31
0.0
  0
LINE
  5
2C1
330
17
100
AcDbEntity
  8
TOP
100
AcDbLine
 10
9.166666666666666
 20
90.22522522522522
 30
0.0
 11
10.292
 21
89.57053930644189
 31
0.0
  0
LINE
  5
2C2
330
17
100
AcDbEntity
  8
TOP
100
AcDbLine
 10
2.5
 20
91.0
 30
0.0
 11
3.6253333333333333
 21
90.34531408121666
 31
0.0
  0
LINE
  5
2C3
330
17
100
AcDbEntity
  8
TOP
100
AcDbLine
 10
4.041333333333333
 20
90.34531408121666
 30
0.0
 11
5.166666666666666
 21
91.0
 31
0.0
  0
LINE
  5
2C4
330
17
100
AcDbEntity
  8
TOP
100
AcDbLine
 10
5.166666666666666
 20
91.0
 30
0.0
 11
6.292
 21
90.34531408121666
 31
0.0
  0
LINE
  5
2C5
330
17
100
AcDbEntity
  8
TOP
100
AcDbLine
 10
6.708
 20
90.34531408121666
 30
0.0
 11
7.833333333333333
 21
91.0
 31
0.0
  0
LINE
  5
2C6
330
17
100
AcDbEntity
  8
TOP
100
AcDbLine
 10
7.833333333333333
 20
91.0
 30
0.0
 11
8.958666666666666
 21
90.34531408121666
 31
0.0
  0
LINE
  5
2C7
330
17
100
AcDbEntity
  8
TOP
100
AcDbLine
 10
9.374666666666666
 20
90.34531408121666
 30
0.0
 11
10.5
 21
91.0
 31
0.0
  0
POLYLINE
  5
2C8
330
17
100
AcDbEntity
  8
TOP
100
AcDb2dPolyline
 66
1
 10
0.0
 20
0.0
 30
0.0
 70
1
  0
VERTEX
  5
2CA
330
17
100
AcDbEntity
  8
TOP
100
AcDbVertex
100
AcDb2dVertex
 10
0.0
 20
0.0
 30
0.0
 70
0
  0
VERTEX
  5
2CB
330
17
100
AcDbEntity
  8
TOP
100
AcDbVertex
100
AcDb2dVertex
 10
0.0
 20
96.0
 30
0.0
 70
0
  0
VERTEX
  5
2CC
330
17
100
AcDbEntity
  8
TOP
100
AcDbVertex
100
AcDb2dVertex
 10
13.0
 20
96.0
 30
0.0
 70
0
  0
VERTEX
  5
2CD
330
17
100
AcDbEntity
  8
TOP
100
AcDbVertex
100
AcDb2dVertex
 10
13.0
 20
0.0
 30
0.0
 70
0
  0
SEQEND
  5
2C9
330
17
100
AcDbEntity
  8
TOP
  0
ENDSEC
  0
SECTION
  2
OBJECTS
  0
DICTIONARY
  5
A
330
0
100
AcDbDictionary
281
1
  3
ACAD_COLOR
350
B
  3
ACAD_GROUP
350
C
  3
ACAD_LAYOUT
350
D
  3
ACAD_MATERIAL
350
E
  3
ACAD_MLEADERSTYLE
350
F
  3
ACAD_MLINESTYLE
350
10
  3
ACAD_PLOTSETTINGS
350
11
  3
ACAD_PLOTSTYLENAME
350
12
  3
ACAD_SCALELIST
350
14
  3
ACAD_TABLESTYLE
350
15
  3
ACAD_VISUALSTYLE
350
16
  0
DICTIONARY
  5
B
330
A
100
AcDbDictionary
281
1
  0
DICTIONARY
  5
C
330
A
100
AcDbDictionary
281
1
  0
DICTIONARY
  5
D
330
A
100
AcDbDictionary
281
1
  3
Model
350
1A
  3
Layout1
350
1E
  0
DICTIONARY
  5
E
330
A
100
AcDbDictionary
281
1
  3
ByBlock
350
1F
  3
ByLayer
350
20
  3
Global
350
21
  0
DICTIONARY
  5
F
330
A
100
AcDbDictionary
281
1
  3
Standard
350
2C
  0
DICTIONARY
  5
10
330
A
100
AcDbDictionary
281
1
  3
Standard
350
22
  0
DICTIONARY
  5
11
330
A
100
AcDbDictionary
281
1
  0
ACDBDICTIONARYWDFLT
  5
12
330
A
100
AcDbDictionary
281
1
  3
Normal
350
13
100
AcDbDictionaryWithDefault
340
13
  0
ACDBPLACEHOLDER
  5
13
330
12
  0
DICTIONARY
  5
14
330
A
100
AcDbDictionary
281
1
  0
DICTIONARY
  5
15
330
A
100
AcDbDictionary
281
1
  0
DICTIONARY
  5
16
330
A
100
AcDbDictionary
281
1
  0
LAYOUT
  5
1A
330
D
100
AcDbPlotSettings
  1

  2
Adobe PDF
  4
A3
  6

 40
7.5
 41
20.0
 42
7.5
 43
20.0
 44
420.0
 45
297.0
 46
0.0
 47
0.0
 48
0.0
 49
0.0
140
0.0
141
0.0
142
1.0
143
1.0
 70
1024
 72
1
 73
1
 74
5
  7

 75
16
 76
0
 77
2
 78
300
147
1.0
148
0.0
149
0.0
100
AcDbLayout
  1
Model
 70
1
 71
0
 10
0.0
 20
0.0
 11
420.0
 21
297.0
 12
0.0
 22
0.0
 32
0.0
 14
1e+20
 24
1e+20
 34
1e+20
 15
-1e+20
 25
-1e+20
 35
-1e+20
146
0.0
 13
0.0
 23
0.0
 33
0.0
 16
1.0
 26
0.0
 36
0.0
 17
0.0
 27
1.0
 37
0.0
 76
1
330
17
  0
LAYOUT
  5
1E
330
D
100
AcDbPlotSettings
  1

  2
Adobe PDF
  4
A3
  6

 40
7.5
 41
20.0
 42
7.5
 43
20.0
 44
420.0
 45
297.0
 46
0.0
 47
0.0
 48
0.0
 49
0.0
140
0.0
141
0.0
142
1.0
143
1.0
 70
0
 72
1
 73
1
 74
5
  7

 75
16
 76
0
 77
2
 78
300
147
1.0
148
0.0
149
0.0
100
AcDbLayout
  1
Layout1
 70
1
 71
1
 10
0.0
 20
0.0
 11
420.0
 21
297.0
 12
0.0
 22
0.0
 32
0.0
 14
1e+20
 24
1e+20
 34
1e+20
 15
-1e+20
 25
-1e+20
 35
-1e+20
146
0.0
 13
0.0
 23
0.0
 33
0.0
 16
1.0
 26
0.0
 36
0.0
 17
0.0
 27
1.0
 37
0.0
 76
1
330
1B
  0
MATERIAL
  5
1F
102
{ACAD_REACTORS
330
E
102
}
330
E
100
AcDbMaterial
  1
ByBlock
  2

 70
0
 40
1.0
 71
1
 41
1.0
 91
-1023410177
 42
1.0
 72
1
  3

 73
1
 74
1
 75
1
 44
0.5
 73
0
 45
1.0
 46
1.0
 77
1
  4

 78
1
 79
1
170
1
 48
1.0
171
1
  6

172
1
173
1
174
1
140
1.0
141
1.0
175
1
  7

176
1
177
1
178
1
143
1.0
179
1
  8

270
1
271
1
272
1
145
1.0
146
1.0
273
1
  9

274
1
275
1
276
1
 42
1.0
 72
1
  3

 73
1
 74
1
 75
1
 94
63
  0
MATERIAL
  5
20
102
{ACAD_REACTORS
330
E
102
}
330
E
100
AcDbMaterial
  1
ByLayer
  2

 70
0
 40
1.0
 71
1
 41
1.0
 91
-1023410177
 42
1.0
 72
1
  3

 73
1
 74
1
 75
1
 44
0.5
 73
0
 45
1.0
 46
1.0
 77
1
  4

 78
1
 79
1
170
1
 48
1.0
171
1
  6

172
1
173
1
174
1
140
1.0
141
1.0
175
1
  7

176
1
177
1
178
1
143
1.0
179
1
  8

270
1
271
1
272
1
145
1.0
146
1.0
273
1
  9

274
1
275
1
276
1
 42
1.0
 72
1
  3

 73
1
 74
1
 75
1
 94
63
  0
MATERIAL
  5
21
102
{ACAD_REACTORS
330
E
102
}
330
E
100
AcDbMaterial
  1
Global
  2

 70
0
 40
1.0
 71
1
 41
1.0
 91
-1023410177
 42
1.0
 72
1
  3

 73
1
 74
1
 75
1
 44
0.5
 73
0
 45
1.0
 46
1.0
 77
1
  4

 78
1
 79
1
170
1
 48
1.0
171
1
  6

172
1
173
1
174
1
140
1.0
141
1.0
175
1
  7

176
1
177
1
178
1
143
1.0
179
1
  8

270
1
271
1
272
1
145
1.0
146
1.0
273
1
  9

274
1
275
1
276
1
 42
1.0
 72
1
  3

 73
1
 74
1
 75
1
 94
63
  0
MLINESTYLE
  5
22
102
{ACAD_REACTORS
330
10
102
}
330
10
100
AcDbMlineStyle
  2
Standard
 70
0
  3

 62
256
 51
90.0
 52
90.0
 71
2
 49
0.5
 62
256
  6
BYLAYER
 49
-0.5
 62
256
  6
BYLAYER
  0
MLEADERSTYLE
  5
2C
102
{ACAD_REACTORS
330
F
102
}
330
F
100
AcDbMLeaderStyle
179
2
170
2
171
1
172
0
 90
2
 40
0.0
 41
0.0
173
1
 91
-1056964608
 92
-2
290
1
 42
2.0
291
1
 43
8.0
  3
Standard
 44
4.0
300

342
29
174
1
175
1
176
0
178
1
 93
-1056964608
 45
4.0
292
0
297
0
 46
4.0
 94
-1056964608
 47
1.0
 49
1.0
140
1.0
294
1
141
0.0
177
0
142
1.0
295
0
296
0
143
3.75
271
0
272
9
273
9
  0
ENDSEC
  0
EOF
