  0
SECTION
  2
HEADER
  9
$ACADVER
  1
AC1024
  9
$ACADMAINTVER
 70
6
  9
$DWGCODEPAGE
  3
ANSI_1252
  9
$LASTSAVEDBY
  1
ezdxf
  9
$INSBASE
 10
0.0
 20
0.0
 30
0.0
  9
$EXTMIN
 10
1e+20
 20
1e+20
 30
1e+20
  9
$EXTMAX
 10
-1e+20
 20
-1e+20
 30
-1e+20
  9
$LIMMIN
 10
0.0
 20
0.0
  9
$LIMMAX
 10
420.0
 20
297.0
  9
$ORTHOMODE
 70
0
  9
$REGENMODE
 70
1
  9
$FILLMODE
 70
1
  9
$QTEXTMODE
 70
0
  9
$MIRRTEXT
 70
1
  9
$LTSCALE
 40
1.0
  9
$ATTMODE
 70
1
  9
$TEXTSIZE
 40
2.5
  9
$TRACEWID
 40
1.0
  9
$TEXTSTYLE
  7
Standard
  9
$CLAYER
  8
0
  9
$CELTYPE
  6
ByLayer
  9
$CECOLOR
 62
256
  9
$CELTSCALE
 40
1.0
  9
$DISPSILH
 70
0
  9
$DIMSCALE
 40
1.0
  9
$DIMASZ
 40
2.5
  9
$DIMEXO
 40
0.625
  9
$DIMDLI
 40
3.75
  9
$DIMRND
 40
0.0
  9
$DIMDLE
 40
0.0
  9
$DIMEXE
 40
1.25
  9
$DIMTP
 40
0.0
  9
$DIMTM
 40
0.0
  9
$DIMTXT
 40
2.5
  9
$DIMCEN
 40
2.5
  9
$DIMTSZ
 40
0.0
  9
$DIMTOL
 70
0
  9
$DIMLIM
 70
0
  9
$DIMTIH
 70
0
  9
$DIMTOH
 70
0
  9
$DIMSE1
 70
0
  9
$DIMSE2
 70
0
  9
$DIMTAD
 70
1
  9
$DIMZIN
 70
8
  9
$DIMBLK
  1

  9
$DIMASO
 70
1
  9
$DIMSHO
 70
1
  9
$DIMPOST
  1

  9
$DIMAPOST
  1

  9
$DIMALT
 70
0
  9
$DIMALTD
 70
3
  9
$DIMALTF
 40
0.03937007874
  9
$DIMLFAC
 40
1.0
  9
$DIMTOFL
 70
1
  9
$DIMTVP
 40
0.0
  9
$DIMTIX
 70
0
  9
$DIMSOXD
 70
0
  9
$DIMSAH
 70
0
  9
$DIMBLK1
  1

  9
$DIMBLK2
  1

  9
$DIMSTYLE
  2
ISO-25
  9
$DIMCLRD
 70
0
  9
$DIMCLRE
 70
0
  9
$DIMCLRT
 70
0
  9
$DIMTFAC
 40
1.0
  9
$DIMGAP
 40
0.625
  9
$DIMJUST
 70
0
  9
$DIMSD1
 70
0
  9
$DIMSD2
 70
0
  9
$DIMTOLJ
 70
0
  9
$DIMTZIN
 70
8
  9
$DIMALTZ
 70
0
  9
$DIMALTTZ
 70
0
  9
$DIMUPT
 70
0
  9
$DIMDEC
 70
2
  9
$DIMTDEC
 70
2
  9
$DIMALTU
 70
2
  9
$DIMALTTD
 70
3
  9
$DIMTXSTY
  7
Standard
  9
$DIMAUNIT
 70
0
  9
$DIMADEC
 70
0
  9
$DIMALTRND
 40
0.0
  9
$DIMAZIN
 70
0
  9
$DIMDSEP
 70
44
  9
$DIMATFIT
 70
3
  9
$DIMFRAC
 70
0
  9
$DIMLDRBLK
  1

  9
$DIMLUNIT
 70
2
  9
$DIMLWD
 70
-2
  9
$DIMLWE
 70
-2
  9
$DIMTMOVE
 70
0
  9
$DIMFXL
 40
1.0
  9
$DIMFXLON
 70
0
  9
$DIMJOGANG
 40
0.785398163397
  9
$DIMTFILL
 70
0
  9
$DIMTFILLCLR
 70
0
  9
$DIMARCSYM
 70
0
  9
$DIMLTYPE
  6

  9
$DIMLTEX1
  6

  9
$DIMLTEX2
  6

  9
$DIMTXTDIRECTION
 70
0
  9
$LUNITS
 70
2
  9
$LUPREC
 70
4
  9
$SKETCHINC
 40
1.0
  9
$FILLETRAD
 40
10.0
  9
$AUNITS
 70
0
  9
$AUPREC
 70
2
  9
$MENU
  1
.
  9
$ELEVATION
 40
0.0
  9
$PELEVATION
 40
0.0
  9
$THICKNESS
 40
0.0
  9
$LIMCHECK
 70
0
  9
$CHAMFERA
 40
0.0
  9
$CHAMFERB
 40
0.0
  9
$CHAMFERC
 40
0.0
  9
$CHAMFERD
 40
0.0
  9
$SKPOLY
 70
0
  9
$TDCREATE
 40
2459635.646759259
  9
$TDUCREATE
 40
2458532.153996898
  9
$TDUPDATE
 40
2459635.646759259
  9
$TDUUPDATE
 40
2458532.1544311
  9
$TDINDWG
 40
0.0
  9
$TDUSRTIMER
 40
0.0
  9
$USRTIMER
 70
1
  9
$ANGBASE
 50
0.0
  9
$ANGDIR
 70
0
  9
$PDMODE
 70
0
  9
$PDSIZE
 40
0.0
  9
$PLINEWID
 40
0.0
  9
$SPLFRAME
 70
0
  9
$SPLINETYPE
 70
6
  9
$SPLINESEGS
 70
8
  9
$HANDSEED
  5
227
  9
$SURFTAB1
 70
6
  9
$SURFTAB2
 70
6
  9
$SURFTYPE
 70
6
  9
$SURFU
 70
6
  9
$SURFV
 70
6
  9
$UCSBASE
  2

  9
$UCSNAME
  2

  9
$UCSORG
 10
0.0
 20
0.0
 30
0.0
  9
$UCSXDIR
 10
1.0
 20
0.0
 30
0.0
  9
$UCSYDIR
 10
0.0
 20
1.0
 30
0.0
  9
$UCSORTHOREF
  2

  9
$UCSORTHOVIEW
 70
0
  9
$UCSORGTOP
 10
0.0
 20
0.0
 30
0.0
  9
$UCSORGBOTTOM
 10
0.0
 20
0.0
 30
0.0
  9
$UCSORGLEFT
 10
0.0
 20
0.0
 30
0.0
  9
$UCSORGRIGHT
 10
0.0
 20
0.0
 30
0.0
  9
$UCSORGFRONT
 10
0.0
 20
0.0
 30
0.0
  9
$UCSORGBACK
 10
0.0
 20
0.0
 30
0.0
  9
$PUCSBASE
  2

  9
$PUCSNAME
  2

  9
$PUCSORG
 10
0.0
 20
0.0
 30
0.0
  9
$PUCSXDIR
 10
1.0
 20
0.0
 30
0.0
  9
$PUCSYDIR
 10
0.0
 20
1.0
 30
0.0
  9
$PUCSORTHOREF
  2

  9
$PUCSORTHOVIEW
 70
0
  9
$PUCSORGTOP
 10
0.0
 20
0.0
 30
0.0
  9
$PUCSORGBOTTOM
 10
0.0
 20
0.0
 30
0.0
  9
$PUCSORGLEFT
 10
0.0
 20
0.0
 30
0.0
  9
$PUCSORGRIGHT
 10
0.0
 20
0.0
 30
0.0
  9
$PUCSORGFRONT
 10
0.0
 20
0.0
 30
0.0
  9
$PUCSORGBACK
 10
0.0
 20
0.0
 30
0.0
  9
$USERI1
 70
0
  9
$USERI2
 70
0
  9
$USERI3
 70
0
  9
$USERI4
 70
0
  9
$USERI5
 70
0
  9
$USERR1
 40
0.0
  9
$USERR2
 40
0.0
  9
$USERR3
 40
0.0
  9
$USERR4
 40
0.0
  9
$USERR5
 40
0.0
  9
$WORLDVIEW
 70
1
  9
$SHADEDGE
 70
3
  9
$SHADEDIF
 70
70
  9
$TILEMODE
 70
1
  9
$MAXACTVP
 70
64
  9
$PINSBASE
 10
0.0
 20
0.0
 30
0.0
  9
$PLIMCHECK
 70
0
  9
$PEXTMIN
 10
1e+20
 20
1e+20
 30
1e+20
  9
$PEXTMAX
 10
-1e+20
 20
-1e+20
 30
-1e+20
  9
$PLIMMIN
 10
0.0
 20
0.0
  9
$PLIMMAX
 10
420.0
 20
297.0
  9
$UNITMODE
 70
0
  9
$VISRETAIN
 70
1
  9
$PLINEGEN
 70
0
  9
$PSLTSCALE
 70
1
  9
$TREEDEPTH
 70
3020
  9
$CMLSTYLE
  2
Standard
  9
$CMLJUST
 70
0
  9
$CMLSCALE
 40
20.0
  9
$PROXYGRAPHICS
 70
1
  9
$MEASUREMENT
 70
1
  9
$CELWEIGHT
370
-1
  9
$ENDCAPS
280
0
  9
$JOINSTYLE
280
0
  9
$LWDISPLAY
290
0
  9
$INSUNITS
 70
6
  9
$HYPERLINKBASE
  1

  9
$STYLESHEET
  1

  9
$XEDIT
290
1
  9
$CEPSNTYPE
380
0
  9
$PSTYLEMODE
290
1
  9
$FINGERPRINTGUID
  2
{84181EED-0DED-445D-A6B5-33E9AFDFA153}
  9
$VERSIONGUID
  2
{316C0BDC-A8F4-49DE-B8AB-4F9C48150CDA}
  9
$EXTNAMES
290
1
  9
$PSVPSCALE
 40
0.0
  9
$OLESTARTUP
290
0
  9
$SORTENTS
280
127
  9
$INDEXCTL
280
0
  9
$HIDETEXT
280
1
  9
$XCLIPFRAME
280
0
  9
$HALOGAP
280
0
  9
$OBSCOLOR
 70
257
  9
$OBSLTYPE
280
0
  9
$INTERSECTIONDISPLAY
280
0
  9
$INTERSECTIONCOLOR
 70
257
  9
$DIMASSOC
280
2
  9
$PROJECTNAME
  1

  9
$CAMERADISPLAY
290
0
  9
$LENSLENGTH
 40
50.0
  9
$CAMERAHEIGHT
 40
0.0
  9
$STEPSPERSEC
 40
24.0
  9
$STEPSIZE
 40
100.0
  9
$3DDWFPREC
 40
2.0
  9
$PSOLWIDTH
 40
0.005
  9
$PSOLHEIGHT
 40
0.08
  9
$LOFTANG1
 40
1.570796326795
  9
$LOFTANG2
 40
1.570796326795
  9
$LOFTMAG1
 40
0.0
  9
$LOFTMAG2
 40
0.0
  9
$LOFTPARAM
 70
7
  9
$LOFTNORMALS
280
1
  9
$LATITUDE
 40
37.795
  9
$LONGITUDE
 40
-122.394
  9
$NORTHDIRECTION
 40
0.0
  9
$TIMEZONE
 70
-8000
  9
$LIGHTGLYPHDISPLAY
280
1
  9
$TILEMODELIGHTSYNCH
280
1
  9
$CMATERIAL
347
20
  9
$SOLIDHIST
280
0
  9
$SHOWHIST
280
1
  9
$DWFFRAME
280
2
  9
$DGNFRAME
280
2
  9
$REALWORLDSCALE
290
1
  9
$INTERFERECOLOR
 62
256
  9
$CSHADOW
280
0
  9
$SHADOWPLANELOCATION
 40
0.0
  0
ENDSEC
  0
SECTION
  2
CLASSES
  0
CLASS
  1
ACDBDICTIONARYWDFLT
  2
AcDbDictionaryWithDefault
  3
ObjectDBX Classes
 90
0
 91
0
280
0
281
0
  0
CLASS
  1
SUN
  2
AcDbSun
  3
SCENEOE
 90
1153
 91
0
280
0
281
0
  0
CLASS
  1
VISUALSTYLE
  2
AcDbVisualStyle
  3
ObjectDBX Classes
 90
4095
 91
0
280
0
281
0
  0
CLASS
  1
MATERIAL
  2
AcDbMaterial
  3
ObjectDBX Classes
 90
1153
 91
0
280
0
281
0
  0
CLASS
  1
SCALE
  2
AcDbScale
  3
ObjectDBX Classes
 90
1153
 91
0
280
0
281
0
  0
CLASS
  1
TABLESTYLE
  2
AcDbTableStyle
  3
ObjectDBX Classes
 90
4095
 91
0
280
0
281
0
  0
CLASS
  1
MLEADERSTYLE
  2
AcDbMLeaderStyle
  3
ACDB_MLEADERSTYLE_CLASS
 90
4095
 91
0
280
0
281
0
  0
CLASS
  1
DICTIONARYVAR
  2
AcDbDictionaryVar
  3
ObjectDBX Classes
 90
0
 91
0
280
0
281
0
  0
CLASS
  1
CELLSTYLEMAP
  2
AcDbCellStyleMap
  3
ObjectDBX Classes
 90
1152
 91
0
280
0
281
0
  0
CLASS
  1
MENTALRAYRENDERSETTINGS
  2
AcDbMentalRayRenderSettings
  3
SCENEOE
 90
1024
 91
0
280
0
281
0
  0
CLASS
  1
ACDBDETAILVIEWSTYLE
  2
AcDbDetailViewStyle
  3
ObjectDBX Classes
 90
1025
 91
0
280
0
281
0
  0
CLASS
  1
ACDBSECTIONVIEWSTYLE
  2
AcDbSectionViewStyle
  3
ObjectDBX Classes
 90
1025
 91
0
280
0
281
0
  0
CLASS
  1
RASTERVARIABLES
  2
AcDbRasterVariables
  3
ISM
 90
0
 91
0
280
0
281
0
  0
CLASS
  1
ACDBPLACEHOLDER
  2
AcDbPlaceHolder
  3
ObjectDBX Classes
 90
0
 91
0
280
0
281
0
  0
CLASS
  1
LAYOUT
  2
AcDbLayout
  3
ObjectDBX Classes
 90
0
 91
0
280
0
281
0
  0
ENDSEC
  0
SECTION
  2
TABLES
  0
TABLE
  2
VPORT
  5
8
330
0
100
AcDbSymbolTable
 70
1
  0
VPORT
  5
23
330
8
100
AcDbSymbolTableRecord
100
AcDbViewportTableRecord
  2
*Active
 70
0
 10
0.0
 20
0.0
 11
1.0
 21
1.0
 12
344.2
 22
148.5
 13
0.0
 23
0.0
 14
0.5
 24
0.5
 15
0.5
 25
0.5
 16
0.0
 26
0.0
 36
1.0
 17
0.0
 27
0.0
 37
0.0
 40
297.0
 41
1.34
 42
50.0
 43
0.0
 44
0.0
 50
0.0
 51
0.0
 71
0
 72
1000
 73
1
 74
3
 75
0
 76
0
 77
0
 78
0
281
0
 65
0
146
0.0
  0
ENDTAB
  0
TABLE
  2
LTYPE
  5
2
330
0
100
AcDbSymbolTable
 70
3
  0
LTYPE
  5
24
330
2
100
AcDbSymbolTableRecord
100
AcDbLinetypeTableRecord
  2
ByBlock
 70
0
  3

 72
65
 73
0
 40
0.0
  0
LTYPE
  5
25
330
2
100
AcDbSymbolTableRecord
100
AcDbLinetypeTableRecord
  2
ByLayer
 70
0
  3

 72
65
 73
0
 40
0.0
  0
LTYPE
  5
26
330
2
100
AcDbSymbolTableRecord
100
AcDbLinetypeTableRecord
  2
Continuous
 70
0
  3

 72
65
 73
0
 40
0.0
  0
ENDTAB
  0
TABLE
  2
LAYER
  5
1
330
0
100
AcDbSymbolTable
 70
3
  0
LAYER
  5
27
330
1
100
AcDbSymbolTableRecord
100
AcDbLayerTableRecord
  2
0
 70
0
 62
7
  6
Continuous
370
-3
390
13
347
21
  0
LAYER
  5
28
330
1
100
AcDbSymbolTableRecord
100
AcDbLayerTableRecord
  2
Defpoints
 70
0
 62
7
  6
Continuous
290
0
370
-3
390
13
347
21
  0
LAYER
  5
2D
330
1
100
AcDbSymbolTableRecord
100
AcDbLayerTableRecord
  2
TOP
 70
0
 62
1
  6
Continuous
370
0
390
13
347
21
  0
ENDTAB
  0
TABLE
  2
STYLE
  5
5
330
0
100
AcDbSymbolTable
 70
1
  0
STYLE
  5
29
330
5
100
AcDbSymbolTableRecord
100
AcDbTextStyleTableRecord
  2
Standard
 70
0
 40
0.0
 41
1.0
 50
0.0
 71
0
 42
2.5
  3
txt
  4

  0
ENDTAB
  0
TABLE
  2
VIEW
  5
7
330
0
100
AcDbSymbolTable
 70
0
  0
ENDTAB
  0
TABLE
  2
UCS
  5
6
330
0
100
AcDbSymbolTable
 70
0
  0
ENDTAB
  0
TABLE
  2
APPID
  5
3
330
0
100
AcDbSymbolTable
 70
2
  0
APPID
  5
2A
330
3
100
AcDbSymbolTableRecord
100
AcDbRegAppTableRecord
  2
ACAD
 70
0
  0
APPID
  5
226
330
3
100
AcDbSymbolTableRecord
100
AcDbRegAppTableRecord
  2
HATCHBACKGROUNDCOLOR
 70
0
  0
ENDTAB
  0
TABLE
  2
DIMSTYLE
  5
4
330
0
100
AcDbSymbolTable
 70
1
100
AcDbDimStyleTable
  0
DIMSTYLE
105
2B
330
4
100
AcDbSymbolTableRecord
100
AcDbDimStyleTableRecord
  2
Standard
 70
0
 40
1.0
 41
2.5
 42
0.625
 43
3.75
 44
1.25
 45
0.0
 46
0.0
 47
0.0
 48
0.0
 49
2.5
140
2.5
141
2.5
142
0.0
143
0.03937007874
144
1.0
145
0.0
146
1.0
147
0.625
148
0.0
 69
0
 70
0
 71
0
 72
0
 73
0
 74
0
 75
0
 76
0
 77
1
 78
8
 79
0
170
0
171
3
172
1
173
0
174
0
175
0
176
0
177
0
178
0
179
0
271
0
272
2
273
2
274
3
275
0
276
0
277
2
278
44
279
0
280
0
281
0
282
0
283
0
284
8
285
0
286
0
288
0
289
3
290
0
371
-2
372
-2
  0
ENDTAB
  0
TABLE
  2
BLOCK_RECORD
  5
9
330
0
100
AcDbSymbolTable
 70
2
  0
BLOCK_RECORD
  5
17
330
9
100
AcDbSymbolTableRecord
100
AcDbBlockTableRecord
  2
*Model_Space
340
1A
 70
0
280
1
281
0
  0
BLOCK_RECORD
  5
1B
330
9
100
AcDbSymbolTableRecord
100
AcDbBlockTableRecord
  2
*Paper_Space
340
1E
 70
0
280
1
281
0
  0
ENDTAB
  0
ENDSEC
  0
SECTION
  2
BLOCKS
  0
BLOCK
  5
18
330
17
100
AcDbEntity
  8
0
100
AcDbBlockBegin
  2
*Model_Space
 70
0
 10
0.0
 20
0.0
 30
0.0
  3
*Model_Space
  1

  0
ENDBLK
  5
19
330
17
100
AcDbEntity
  8
0
100
AcDbBlockEnd
  0
BLOCK
  5
1C
330
1B
100
AcDbEntity
  8
0
100
AcDbBlockBegin
  2
*Paper_Space
 70
0
 10
0.0
 20
0.0
 30
0.0
  3
*Paper_Space
  1

  0
ENDBLK
  5
1D
330
1B
100
AcDbEntity
  8
0
100
AcDbBlockEnd
  0
ENDSEC
  0
SECTION
  2
ENTITIES
  0
LINE
  5
2E
330
17
100
AcDbEntity
  8
TOP
100
AcDbLine
 10
2.5
 20
6.927710843373494
 30
0.0
 11
5.3133333333333335
 21
5.300222139978605
 31
0.0
  0
LINE
  5
2F
330
17
100
AcDbEntity
  8
TOP
100
AcDbLine
 10
6.3533333333333335
 20
5.300222139978605
 30
0.0
 11
9.166666666666668
 21
6.927710843373494
 31
0.0
  0
LINE
  5
30
330
17
100
AcDbEntity
  8
TOP
100
AcDbLine
 10
9.166666666666668
 20
6.927710843373494
 30
0.0
 11
11.98
 21
5.300222139978605
 31
0.0
  0
LINE
  5
31
330
17
100
AcDbEntity
  8
TOP
100
AcDbLine
 10
13.02
 20
5.300222139978605
 30
0.0
 11
15.833333333333334
 21
6.927710843373494
 31
0.0
  0
LINE
  5
32
330
17
100
AcDbEntity
  8
TOP
100
AcDbLine
 10
15.833333333333334
 20
6.927710843373494
 30
0.0
 11
18.64666666666667
 21
5.300222139978605
 31
0.0
  0
LINE
  5
33
330
17
100
AcDbEntity
  8
TOP
100
AcDbLine
 10
19.686666666666667
 20
5.300222139978605
 30
0.0
 11
22.5
 21
6.927710843373494
 31
0.0
  0
LINE
  5
34
330
17
100
AcDbEntity
  8
TOP
100
AcDbLine
 10
3.02
 20
7.227932983352099
 30
0.0
 11
5.833333333333334
 21
8.855421686746988
 31
0.0
  0
LINE
  5
35
330
17
100
AcDbEntity
  8
TOP
100
AcDbLine
 10
5.833333333333334
 20
8.855421686746988
 30
0.0
 11
8.646666666666667
 21
7.227932983352099
 31
0.0
  0
LINE
  5
36
330
17
100
AcDbEntity
  8
TOP
100
AcDbLine
 10
9.686666666666667
 20
7.227932983352099
 30
0.0
 11
12.5
 21
8.855421686746988
 31
0.0
  0
LINE
  5
37
330
17
100
AcDbEntity
  8
TOP
100
AcDbLine
 10
12.5
 20
8.855421686746988
 30
0.0
 11
15.313333333333334
 21
7.227932983352099
 31
0.0
  0
LINE
  5
38
330
17
100
AcDbEntity
  8
TOP
100
AcDbLine
 10
16.35333333333333
 20
7.227932983352099
 30
0.0
 11
19.166666666666668
 21
8.855421686746988
 31
0.0
  0
LINE
  5
39
330
17
100
AcDbEntity
  8
TOP
100
AcDbLine
 10
19.166666666666668
 20
8.855421686746988
 30
0.0
 11
21.98
 21
7.227932983352099
 31
0.0
  0
LINE
  5
3A
330
17
100
AcDbEntity
  8
TOP
100
AcDbLine
 10
2.5
 20
10.783132530120483
 30
0.0
 11
5.3133333333333335
 21
9.155643826725594
 31
0.0
  0
LINE
  5
3B
330
17
100
AcDbEntity
  8
TOP
100
AcDbLine
 10
6.3533333333333335
 20
9.155643826725594
 30
0.0
 11
9.166666666666668
 21
10.783132530120483
 31
0.0
  0
LINE
  5
3C
330
17
100
AcDbEntity
  8
TOP
100
AcDbLine
 10
9.166666666666668
 20
10.783132530120483
 30
0.0
 11
11.98
 21
9.155643826725594
 31
0.0
  0
LINE
  5
3D
330
17
100
AcDbEntity
  8
TOP
100
AcDbLine
 10
13.02
 20
9.155643826725594
 30
0.0
 11
15.833333333333334
 21
10.783132530120483
 31
0.0
  0
LINE
  5
3E
330
17
100
AcDbEntity
  8
TOP
100
AcDbLine
 10
15.833333333333334
 20
10.783132530120483
 30
0.0
 11
18.64666666666667
 21
9.155643826725594
 31
0.0
  0
LINE
  5
3F
330
17
100
AcDbEntity
  8
TOP
100
AcDbLine
 10
19.686666666666667
 20
9.155643826725594
 30
0.0
 11
22.5
 21
10.783132530120483
 31
0.0
  0
LINE
  5
40
330
17
100
AcDbEntity
  8
TOP
100
AcDbLine
 10
3.02
 20
11.083354670099087
 30
0.0
 11
5.833333333333334
 21
12.710843373493976
 31
0.0
  0
LINE
  5
41
330
17
100
AcDbEntity
  8
TOP
100
AcDbLine
 10
5.833333333333334
 20
12.710843373493976
 30
0.0
 11
8.646666666666667
 21
11.083354670099087
 31
0.0
  0
LINE
  5
42
330
17
100
AcDbEntity
  8
TOP
100
AcDbLine
 10
9.686666666666667
 20
11.083354670099087
 30
0.0
 11
12.5
 21
12.710843373493976
 31
0.0
  0
LINE
  5
43
330
17
100
AcDbEntity
  8
TOP
100
AcDbLine
 10
12.5
 20
12.710843373493976
 30
0.0
 11
15.313333333333334
 21
11.083354670099087
 31
0.0
  0
LINE
  5
44
330
17
100
AcDbEntity
  8
TOP
100
AcDbLine
 10
16.35333333333333
 20
11.083354670099087
 30
0.0
 11
19.166666666666668
 21
12.710843373493976
 31
0.0
  0
LINE
  5
45
330
17
100
AcDbEntity
  8
TOP
100
AcDbLine
 10
19.166666666666668
 20
12.710843373493976
 30
0.0
 11
21.98
 21
11.083354670099087
 31
0.0
  0
LINE
  5
46
330
17
100
AcDbEntity
  8
TOP
100
AcDbLine
 10
2.5
 20
14.638554216867469
 30
0.0
 11
5.3133333333333335
 21
13.01106551347258
 31
0.0
  0
LINE
  5
47
330
17
100
AcDbEntity
  8
TOP
100
AcDbLine
 10
6.3533333333333335
 20
13.01106551347258
 30
0.0
 11
9.166666666666668
 21
14.638554216867469
 31
0.0
  0
LINE
  5
48
330
17
100
AcDbEntity
  8
TOP
100
AcDbLine
 10
9.166666666666668
 20
14.638554216867469
 30
0.0
 11
11.98
 21
13.01106551347258
 31
0.0
  0
LINE
  5
49
330
17
100
AcDbEntity
  8
TOP
100
AcDbLine
 10
13.02
 20
13.01106551347258
 30
0.0
 11
15.833333333333334
 21
14.638554216867469
 31
0.0
  0
LINE
  5
4A
330
17
100
AcDbEntity
  8
TOP
100
AcDbLine
 10
15.833333333333334
 20
14.638554216867469
 30
0.0
 11
18.64666666666667
 21
13.01106551347258
 31
0.0
  0
LINE
  5
4B
330
17
100
AcDbEntity
  8
TOP
100
AcDbLine
 10
19.686666666666667
 20
13.01106551347258
 30
0.0
 11
22.5
 21
14.638554216867469
 31
0.0
  0
LINE
  5
4C
330
17
100
AcDbEntity
  8
TOP
100
AcDbLine
 10
3.02
 20
14.938776356846073
 30
0.0
 11
5.833333333333334
 21
16.566265060240966
 31
0.0
  0
LINE
  5
4D
330
17
100
AcDbEntity
  8
TOP
100
AcDbLine
 10
5.833333333333334
 20
16.566265060240966
 30
0.0
 11
8.646666666666667
 21
14.938776356846073
 31
0.0
  0
LINE
  5
4E
330
17
100
AcDbEntity
  8
TOP
100
AcDbLine
 10
9.686666666666667
 20
14.938776356846073
 30
0.0
 11
12.5
 21
16.566265060240966
 31
0.0
  0
LINE
  5
4F
330
17
100
AcDbEntity
  8
TOP
100
AcDbLine
 10
12.5
 20
16.566265060240966
 30
0.0
 11
15.313333333333334
 21
14.938776356846073
 31
0.0
  0
LINE
  5
50
330
17
100
AcDbEntity
  8
TOP
100
AcDbLine
 10
16.35333333333333
 20
14.938776356846073
 30
0.0
 11
19.166666666666668
 21
16.566265060240966
 31
0.0
  0
LINE
  5
51
330
17
100
AcDbEntity
  8
TOP
100
AcDbLine
 10
19.166666666666668
 20
16.566265060240966
 30
0.0
 11
21.98
 21
14.938776356846073
 31
0.0
  0
LINE
  5
52
330
17
100
AcDbEntity
  8
TOP
100
AcDbLine
 10
2.5
 20
18.49397590361446
 30
0.0
 11
5.3133333333333335
 21
16.86648720021957
 31
0.0
  0
LINE
  5
53
330
17
100
AcDbEntity
  8
TOP
100
AcDbLine
 10
6.3533333333333335
 20
16.86648720021957
 30
0.0
 11
9.166666666666668
 21
18.49397590361446
 31
0.0
  0
LINE
  5
54
330
17
100
AcDbEntity
  8
TOP
100
AcDbLine
 10
9.166666666666668
 20
18.49397590361446
 30
0.0
 11
11.98
 21
16.86648720021957
 31
0.0
  0
LINE
  5
55
330
17
100
AcDbEntity
  8
TOP
100
AcDbLine
 10
13.02
 20
16.86648720021957
 30
0.0
 11
15.833333333333334
 21
18.49397590361446
 31
0.0
  0
LINE
  5
56
330
17
100
AcDbEntity
  8
TOP
100
AcDbLine
 10
15.833333333333334
 20
18.49397590361446
 30
0.0
 11
18.64666666666667
 21
16.86648720021957
 31
0.0
  0
LINE
  5
57
330
17
100
AcDbEntity
  8
TOP
100
AcDbLine
 10
19.686666666666667
 20
16.86648720021957
 30
0.0
 11
22.5
 21
18.49397590361446
 31
0.0
  0
LINE
  5
58
330
17
100
AcDbEntity
  8
TOP
100
AcDbLine
 10
3.02
 20
18.794198043593063
 30
0.0
 11
5.833333333333334
 21
20.42168674698795
 31
0.0
  0
LINE
  5
59
330
17
100
AcDbEntity
  8
TOP
100
AcDbLine
 10
5.833333333333334
 20
20.42168674698795
 30
0.0
 11
8.646666666666667
 21
18.794198043593063
 31
0.0
  0
LINE
  5
5A
330
17
100
AcDbEntity
  8
TOP
100
AcDbLine
 10
9.686666666666667
 20
18.794198043593063
 30
0.0
 11
12.5
 21
20.42168674698795
 31
0.0
  0
LINE
  5
5B
330
17
100
AcDbEntity
  8
TOP
100
AcDbLine
 10
12.5
 20
20.42168674698795
 30
0.0
 11
15.313333333333334
 21
18.794198043593063
 31
0.0
  0
LINE
  5
5C
330
17
100
AcDbEntity
  8
TOP
100
AcDbLine
 10
16.35333333333333
 20
18.794198043593063
 30
0.0
 11
19.166666666666668
 21
20.42168674698795
 31
0.0
  0
LINE
  5
5D
330
17
100
AcDbEntity
  8
TOP
100
AcDbLine
 10
19.166666666666668
 20
20.42168674698795
 30
0.0
 11
21.98
 21
18.794198043593063
 31
0.0
  0
LINE
  5
5E
330
17
100
AcDbEntity
  8
TOP
100
AcDbLine
 10
2.5
 20
22.349397590361445
 30
0.0
 11
5.3133333333333335
 21
20.721908886966556
 31
0.0
  0
LINE
  5
5F
330
17
100
AcDbEntity
  8
TOP
100
AcDbLine
 10
6.3533333333333335
 20
20.721908886966556
 30
0.0
 11
9.166666666666668
 21
22.349397590361445
 31
0.0
  0
LINE
  5
60
330
17
100
AcDbEntity
  8
TOP
100
AcDbLine
 10
9.166666666666668
 20
22.349397590361445
 30
0.0
 11
11.98
 21
20.721908886966556
 31
0.0
  0
LINE
  5
61
330
17
100
AcDbEntity
  8
TOP
100
AcDbLine
 10
13.02
 20
20.721908886966556
 30
0.0
 11
15.833333333333334
 21
22.349397590361445
 31
0.0
  0
LINE
  5
62
330
17
100
AcDbEntity
  8
TOP
100
AcDbLine
 10
15.833333333333334
 20
22.349397590361445
 30
0.0
 11
18.64666666666667
 21
20.721908886966556
 31
0.0
  0
LINE
  5
63
330
17
100
AcDbEntity
  8
TOP
100
AcDbLine
 10
19.686666666666667
 20
20.721908886966556
 30
0.0
 11
22.5
 21
22.349397590361445
 31
0.0
  0
LINE
  5
64
330
17
100
AcDbEntity
  8
TOP
100
AcDbLine
 10
3.02
 20
22.64961973034005
 30
0.0
 11
5.833333333333334
 21
24.277108433734938
 31
0.0
  0
LINE
  5
65
330
17
100
AcDbEntity
  8
TOP
100
AcDbLine
 10
5.833333333333334
 20
24.277108433734938
 30
0.0
 11
8.646666666666667
 21
22.64961973034005
 31
0.0
  0
LINE
  5
66
330
17
100
AcDbEntity
  8
TOP
100
AcDbLine
 10
9.686666666666667
 20
22.64961973034005
 30
0.0
 11
12.5
 21
24.277108433734938
 31
0.0
  0
LINE
  5
67
330
17
100
AcDbEntity
  8
TOP
100
AcDbLine
 10
12.5
 20
24.277108433734938
 30
0.0
 11
15.313333333333334
 21
22.64961973034005
 31
0.0
  0
LINE
  5
68
330
17
100
AcDbEntity
  8
TOP
100
AcDbLine
 10
16.35333333333333
 20
22.64961973034005
 30
0.0
 11
19.166666666666668
 21
24.277108433734938
 31
0.0
  0
LINE
  5
69
330
17
100
AcDbEntity
  8
TOP
100
AcDbLine
 10
19.166666666666668
 20
24.277108433734938
 30
0.0
 11
21.98
 21
22.64961973034005
 31
0.0
  0
LINE
  5
6A
330
17
100
AcDbEntity
  8
TOP
100
AcDbLine
 10
2.5
 20
26.204819277108435
 30
0.0
 11
5.3133333333333335
 21
24.577330573713542
 31
0.0
  0
LINE
  5
6B
330
17
100
AcDbEntity
  8
TOP
100
AcDbLine
 10
6.3533333333333335
 20
24.577330573713542
 30
0.0
 11
9.166666666666668
 21
26.204819277108435
 31
0.0
  0
LINE
  5
6C
330
17
100
AcDbEntity
  8
TOP
100
AcDbLine
 10
9.166666666666668
 20
26.204819277108435
 30
0.0
 11
11.98
 21
24.577330573713542
 31
0.0
  0
LINE
  5
6D
330
17
100
AcDbEntity
  8
TOP
100
AcDbLine
 10
13.02
 20
24.577330573713542
 30
0.0
 11
15.833333333333334
 21
26.204819277108435
 31
0.0
  0
LINE
  5
6E
330
17
100
AcDbEntity
  8
TOP
100
AcDbLine
 10
15.833333333333334
 20
26.204819277108435
 30
0.0
 11
18.64666666666667
 21
24.577330573713542
 31
0.0
  0
LINE
  5
6F
330
17
100
AcDbEntity
  8
TOP
100
AcDbLine
 10
19.686666666666667
 20
24.577330573713542
 30
0.0
 11
22.5
 21
26.204819277108435
 31
0.0
  0
LINE
  5
70
330
17
100
AcDbEntity
  8
TOP
100
AcDbLine
 10
3.02
 20
26.50504141708704
 30
0.0
 11
5.833333333333334
 21
28.132530120481928
 31
0.0
  0
LINE
  5
71
330
17
100
AcDbEntity
  8
TOP
100
AcDbLine
 10
5.833333333333334
 20
28.132530120481928
 30
0.0
 11
8.646666666666667
 21
26.50504141708704
 31
0.0
  0
LINE
  5
72
330
17
100
AcDbEntity
  8
TOP
100
AcDbLine
 10
9.686666666666667
 20
26.50504141708704
 30
0.0
 11
12.5
 21
28.132530120481928
 31
0.0
  0
LINE
  5
73
330
17
100
AcDbEntity
  8
TOP
100
AcDbLine
 10
12.5
 20
28.132530120481928
 30
0.0
 11
15.313333333333334
 21
26.50504141708704
 31
0.0
  0
LINE
  5
74
330
17
100
AcDbEntity
  8
TOP
100
AcDbLine
 10
16.35333333333333
 20
26.50504141708704
 30
0.0
 11
19.166666666666668
 21
28.132530120481928
 31
0.0
  0
LINE
  5
75
330
17
100
AcDbEntity
  8
TOP
100
AcDbLine
 10
19.166666666666668
 20
28.132530120481928
 30
0.0
 11
21.98
 21
26.50504141708704
 31
0.0
  0
LINE
  5
76
330
17
100
AcDbEntity
  8
TOP
100
AcDbLine
 10
2.5
 20
30.06024096385542
 30
0.0
 11
5.3133333333333335
 21
28.432752260460532
 31
0.0
  0
LINE
  5
77
330
17
100
AcDbEntity
  8
TOP
100
AcDbLine
 10
6.3533333333333335
 20
28.432752260460532
 30
0.0
 11
9.166666666666668
 21
30.06024096385542
 31
0.0
  0
LINE
  5
78
330
17
100
AcDbEntity
  8
TOP
100
AcDbLine
 10
9.166666666666668
 20
30.06024096385542
 30
0.0
 11
11.98
 21
28.432752260460532
 31
0.0
  0
LINE
  5
79
330
17
100
AcDbEntity
  8
TOP
100
AcDbLine
 10
13.02
 20
28.432752260460532
 30
0.0
 11
15.833333333333334
 21
30.06024096385542
 31
0.0
  0
LINE
  5
7A
330
17
100
AcDbEntity
  8
TOP
100
AcDbLine
 10
15.833333333333334
 20
30.06024096385542
 30
0.0
 11
18.64666666666667
 21
28.432752260460532
 31
0.0
  0
LINE
  5
7B
330
17
100
AcDbEntity
  8
TOP
100
AcDbLine
 10
19.686666666666667
 20
28.432752260460532
 30
0.0
 11
22.5
 21
30.06024096385542
 31
0.0
  0
LINE
  5
7C
330
17
100
AcDbEntity
  8
TOP
100
AcDbLine
 10
3.02
 20
30.360463103834025
 30
0.0
 11
5.833333333333334
 21
31.987951807228917
 31
0.0
  0
LINE
  5
7D
330
17
100
AcDbEntity
  8
TOP
100
AcDbLine
 10
5.833333333333334
 20
31.987951807228917
 30
0.0
 11
8.646666666666667
 21
30.360463103834025
 31
0.0
  0
LINE
  5
7E
330
17
100
AcDbEntity
  8
TOP
100
AcDbLine
 10
9.686666666666667
 20
30.360463103834025
 30
0.0
 11
12.5
 21
31.987951807228917
 31
0.0
  0
LINE
  5
7F
330
17
100
AcDbEntity
  8
TOP
100
AcDbLine
 10
12.5
 20
31.987951807228917
 30
0.0
 11
15.313333333333334
 21
30.360463103834025
 31
0.0
  0
LINE
  5
80
330
17
100
AcDbEntity
  8
TOP
100
AcDbLine
 10
16.35333333333333
 20
30.360463103834025
 30
0.0
 11
19.166666666666668
 21
31.987951807228917
 31
0.0
  0
LINE
  5
81
330
17
100
AcDbEntity
  8
TOP
100
AcDbLine
 10
19.166666666666668
 20
31.987951807228917
 30
0.0
 11
21.98
 21
30.360463103834025
 31
0.0
  0
LINE
  5
82
330
17
100
AcDbEntity
  8
TOP
100
AcDbLine
 10
2.5
 20
33.915662650602414
 30
0.0
 11
5.3133333333333335
 21
32.288173947207525
 31
0.0
  0
LINE
  5
83
330
17
100
AcDbEntity
  8
TOP
100
AcDbLine
 10
6.3533333333333335
 20
32.288173947207525
 30
0.0
 11
9.166666666666668
 21
33.915662650602414
 31
0.0
  0
LINE
  5
84
330
17
100
AcDbEntity
  8
TOP
100
AcDbLine
 10
9.166666666666668
 20
33.915662650602414
 30
0.0
 11
11.98
 21
32.288173947207525
 31
0.0
  0
LINE
  5
85
330
17
100
AcDbEntity
  8
TOP
100
AcDbLine
 10
13.02
 20
32.288173947207525
 30
0.0
 11
15.833333333333334
 21
33.915662650602414
 31
0.0
  0
LINE
  5
86
330
17
100
AcDbEntity
  8
TOP
100
AcDbLine
 10
15.833333333333334
 20
33.915662650602414
 30
0.0
 11
18.64666666666667
 21
32.288173947207525
 31
0.0
  0
LINE
  5
87
330
17
100
AcDbEntity
  8
TOP
100
AcDbLine
 10
19.686666666666667
 20
32.288173947207525
 30
0.0
 11
22.5
 21
33.915662650602414
 31
0.0
  0
LINE
  5
88
330
17
100
AcDbEntity
  8
TOP
100
AcDbLine
 10
3.02
 20
34.215884790581015
 30
0.0
 11
5.833333333333334
 21
35.8433734939759
 31
0.0
  0
LINE
  5
89
330
17
100
AcDbEntity
  8
TOP
100
AcDbLine
 10
5.833333333333334
 20
35.8433734939759
 30
0.0
 11
8.646666666666667
 21
34.215884790581015
 31
0.0
  0
LINE
  5
8A
330
17
100
AcDbEntity
  8
TOP
100
AcDbLine
 10
9.686666666666667
 20
34.215884790581015
 30
0.0
 11
12.5
 21
35.8433734939759
 31
0.0
  0
LINE
  5
8B
330
17
100
AcDbEntity
  8
TOP
100
AcDbLine
 10
12.5
 20
35.8433734939759
 30
0.0
 11
15.313333333333334
 21
34.215884790581015
 31
0.0
  0
LINE
  5
8C
330
17
100
AcDbEntity
  8
TOP
100
AcDbLine
 10
16.35333333333333
 20
34.215884790581015
 30
0.0
 11
19.166666666666668
 21
35.8433734939759
 31
0.0
  0
LINE
  5
8D
330
17
100
AcDbEntity
  8
TOP
100
AcDbLine
 10
19.166666666666668
 20
35.8433734939759
 30
0.0
 11
21.98
 21
34.215884790581015
 31
0.0
  0
LINE
  5
8E
330
17
100
AcDbEntity
  8
TOP
100
AcDbLine
 10
2.5
 20
37.7710843373494
 30
0.0
 11
5.3133333333333335
 21
36.143595633954504
 31
0.0
  0
LINE
  5
8F
330
17
100
AcDbEntity
  8
TOP
100
AcDbLine
 10
6.3533333333333335
 20
36.143595633954504
 30
0.0
 11
9.166666666666668
 21
37.7710843373494
 31
0.0
  0
LINE
  5
90
330
17
100
AcDbEntity
  8
TOP
100
AcDbLine
 10
9.166666666666668
 20
37.7710843373494
 30
0.0
 11
11.98
 21
36.143595633954504
 31
0.0
  0
LINE
  5
91
330
17
100
AcDbEntity
  8
TOP
100
AcDbLine
 10
13.02
 20
36.143595633954504
 30
0.0
 11
15.833333333333334
 21
37.7710843373494
 31
0.0
  0
LINE
  5
92
330
17
100
AcDbEntity
  8
TOP
100
AcDbLine
 10
15.833333333333334
 20
37.7710843373494
 30
0.0
 11
18.64666666666667
 21
36.143595633954504
 31
0.0
  0
LINE
  5
93
330
17
100
AcDbEntity
  8
TOP
100
AcDbLine
 10
19.686666666666667
 20
36.143595633954504
 30
0.0
 11
22.5
 21
37.7710843373494
 31
0.0
  0
LINE
  5
94
330
17
100
AcDbEntity
  8
TOP
100
AcDbLine
 10
3.02
 20
38.07130647732801
 30
0.0
 11
5.833333333333334
 21
39.69879518072289
 31
0.0
  0
LINE
  5
95
330
17
100
AcDbEntity
  8
TOP
100
AcDbLine
 10
5.833333333333334
 20
39.69879518072289
 30
0.0
 11
8.646666666666667
 21
38.07130647732801
 31
0.0
  0
LINE
  5
96
330
17
100
AcDbEntity
  8
TOP
100
AcDbLine
 10
9.686666666666667
 20
38.07130647732801
 30
0.0
 11
12.5
 21
39.69879518072289
 31
0.0
  0
LINE
  5
97
330
17
100
AcDbEntity
  8
TOP
100
AcDbLine
 10
12.5
 20
39.69879518072289
 30
0.0
 11
15.313333333333334
 21
38.07130647732801
 31
0.0
  0
LINE
  5
98
330
17
100
AcDbEntity
  8
TOP
100
AcDbLine
 10
16.35333333333333
 20
38.07130647732801
 30
0.0
 11
19.166666666666668
 21
39.69879518072289
 31
0.0
  0
LINE
  5
99
330
17
100
AcDbEntity
  8
TOP
100
AcDbLine
 10
19.166666666666668
 20
39.69879518072289
 30
0.0
 11
21.98
 21
38.07130647732801
 31
0.0
  0
LINE
  5
9A
330
17
100
AcDbEntity
  8
TOP
100
AcDbLine
 10
2.5
 20
41.626506024096386
 30
0.0
 11
5.3133333333333335
 21
39.9990173207015
 31
0.0
  0
LINE
  5
9B
330
17
100
AcDbEntity
  8
TOP
100
AcDbLine
 10
6.3533333333333335
 20
39.9990173207015
 30
0.0
 11
9.166666666666668
 21
41.626506024096386
 31
0.0
  0
LINE
  5
9C
330
17
100
AcDbEntity
  8
TOP
100
AcDbLine
 10
9.166666666666668
 20
41.626506024096386
 30
0.0
 11
11.98
 21
39.9990173207015
 31
0.0
  0
LINE
  5
9D
330
17
100
AcDbEntity
  8
TOP
100
AcDbLine
 10
13.02
 20
39.9990173207015
 30
0.0
 11
15.833333333333334
 21
41.626506024096386
 31
0.0
  0
LINE
  5
9E
330
17
100
AcDbEntity
  8
TOP
100
AcDbLine
 10
15.833333333333334
 20
41.626506024096386
 30
0.0
 11
18.64666666666667
 21
39.9990173207015
 31
0.0
  0
LINE
  5
9F
330
17
100
AcDbEntity
  8
TOP
100
AcDbLine
 10
19.686666666666667
 20
39.9990173207015
 30
0.0
 11
22.5
 21
41.626506024096386
 31
0.0
  0
LINE
  5
A0
330
17
100
AcDbEntity
  8
TOP
100
AcDbLine
 10
3.02
 20
41.926728164074994
 30
0.0
 11
5.833333333333334
 21
43.554216867469876
 31
0.0
  0
LINE
  5
A1
330
17
100
AcDbEntity
  8
TOP
100
AcDbLine
 10
5.833333333333334
 20
43.554216867469876
 30
0.0
 11
8.646666666666667
 21
41.926728164074994
 31
0.0
  0
LINE
  5
A2
330
17
100
AcDbEntity
  8
TOP
100
AcDbLine
 10
9.686666666666667
 20
41.926728164074994
 30
0.0
 11
12.5
 21
43.554216867469876
 31
0.0
  0
LINE
  5
A3
330
17
100
AcDbEntity
  8
TOP
100
AcDbLine
 10
12.5
 20
43.554216867469876
 30
0.0
 11
15.313333333333334
 21
41.926728164074994
 31
0.0
  0
LINE
  5
A4
330
17
100
AcDbEntity
  8
TOP
100
AcDbLine
 10
16.35333333333333
 20
41.926728164074994
 30
0.0
 11
19.166666666666668
 21
43.554216867469876
 31
0.0
  0
LINE
  5
A5
330
17
100
AcDbEntity
  8
TOP
100
AcDbLine
 10
19.166666666666668
 20
43.554216867469876
 30
0.0
 11
21.98
 21
41.926728164074994
 31
0.0
  0
LINE
  5
A6
330
17
100
AcDbEntity
  8
TOP
100
AcDbLine
 10
2.5
 20
45.48192771084337
 30
0.0
 11
5.3133333333333335
 21
43.854439007448484
 31
0.0
  0
LINE
  5
A7
330
17
100
AcDbEntity
  8
TOP
100
AcDbLine
 10
6.3533333333333335
 20
43.854439007448484
 30
0.0
 11
9.166666666666668
 21
45.48192771084337
 31
0.0
  0
LINE
  5
A8
330
17
100
AcDbEntity
  8
TOP
100
AcDbLine
 10
9.166666666666668
 20
45.48192771084337
 30
0.0
 11
11.98
 21
43.854439007448484
 31
0.0
  0
LINE
  5
A9
330
17
100
AcDbEntity
  8
TOP
100
AcDbLine
 10
13.02
 20
43.854439007448484
 30
0.0
 11
15.833333333333334
 21
45.48192771084337
 31
0.0
  0
LINE
  5
AA
330
17
100
AcDbEntity
  8
TOP
100
AcDbLine
 10
15.833333333333334
 20
45.48192771084337
 30
0.0
 11
18.64666666666667
 21
43.854439007448484
 31
0.0
  0
LINE
  5
AB
330
17
100
AcDbEntity
  8
TOP
100
AcDbLine
 10
19.686666666666667
 20
43.854439007448484
 30
0.0
 11
22.5
 21
45.48192771084337
 31
0.0
  0
LINE
  5
AC
330
17
100
AcDbEntity
  8
TOP
100
AcDbLine
 10
3.02
 20
45.78214985082198
 30
0.0
 11
5.833333333333334
 21
47.40963855421687
 31
0.0
  0
LINE
  5
AD
330
17
100
AcDbEntity
  8
TOP
100
AcDbLine
 10
5.833333333333334
 20
47.40963855421687
 30
0.0
 11
8.646666666666667
 21
45.78214985082198
 31
0.0
  0
LINE
  5
AE
330
17
100
AcDbEntity
  8
TOP
100
AcDbLine
 10
9.686666666666667
 20
45.78214985082198
 30
0.0
 11
12.5
 21
47.40963855421687
 31
0.0
  0
LINE
  5
AF
330
17
100
AcDbEntity
  8
TOP
100
AcDbLine
 10
12.5
 20
47.40963855421687
 30
0.0
 11
15.313333333333334
 21
45.78214985082198
 31
0.0
  0
LINE
  5
B0
330
17
100
AcDbEntity
  8
TOP
100
AcDbLine
 10
16.35333333333333
 20
45.78214985082198
 30
0.0
 11
19.166666666666668
 21
47.40963855421687
 31
0.0
  0
LINE
  5
B1
330
17
100
AcDbEntity
  8
TOP
100
AcDbLine
 10
19.166666666666668
 20
47.40963855421687
 30
0.0
 11
21.98
 21
45.78214985082198
 31
0.0
  0
LINE
  5
B2
330
17
100
AcDbEntity
  8
TOP
100
AcDbLine
 10
2.5
 20
49.33734939759036
 30
0.0
 11
5.3133333333333335
 21
47.70986069419548
 31
0.0
  0
LINE
  5
B3
330
17
100
AcDbEntity
  8
TOP
100
AcDbLine
 10
6.3533333333333335
 20
47.70986069419548
 30
0.0
 11
9.166666666666668
 21
49.33734939759036
 31
0.0
  0
LINE
  5
B4
330
17
100
AcDbEntity
  8
TOP
100
AcDbLine
 10
9.166666666666668
 20
49.33734939759036
 30
0.0
 11
11.98
 21
47.70986069419548
 31
0.0
  0
LINE
  5
B5
330
17
100
AcDbEntity
  8
TOP
100
AcDbLine
 10
13.02
 20
47.70986069419548
 30
0.0
 11
15.833333333333334
 21
49.33734939759036
 31
0.0
  0
LINE
  5
B6
330
17
100
AcDbEntity
  8
TOP
100
AcDbLine
 10
15.833333333333334
 20
49.33734939759036
 30
0.0
 11
18.64666666666667
 21
47.70986069419548
 31
0.0
  0
LINE
  5
B7
330
17
100
AcDbEntity
  8
TOP
100
AcDbLine
 10
19.686666666666667
 20
47.70986069419548
 30
0.0
 11
22.5
 21
49.33734939759036
 31
0.0
  0
LINE
  5
B8
330
17
100
AcDbEntity
  8
TOP
100
AcDbLine
 10
3.02
 20
49.63757153756897
 30
0.0
 11
5.833333333333334
 21
51.265060240963855
 31
0.0
  0
LINE
  5
B9
330
17
100
AcDbEntity
  8
TOP
100
AcDbLine
 10
5.833333333333334
 20
51.265060240963855
 30
0.0
 11
8.646666666666667
 21
49.63757153756897
 31
0.0
  0
LINE
  5
BA
330
17
100
AcDbEntity
  8
TOP
100
AcDbLine
 10
9.686666666666667
 20
49.63757153756897
 30
0.0
 11
12.5
 21
51.265060240963855
 31
0.0
  0
LINE
  5
BB
330
17
100
AcDbEntity
  8
TOP
100
AcDbLine
 10
12.5
 20
51.265060240963855
 30
0.0
 11
15.313333333333334
 21
49.63757153756897
 31
0.0
  0
LINE
  5
BC
330
17
100
AcDbEntity
  8
TOP
100
AcDbLine
 10
16.35333333333333
 20
49.63757153756897
 30
0.0
 11
19.166666666666668
 21
51.265060240963855
 31
0.0
  0
LINE
  5
BD
330
17
100
AcDbEntity
  8
TOP
100
AcDbLine
 10
19.166666666666668
 20
51.265060240963855
 30
0.0
 11
21.98
 21
49.63757153756897
 31
0.0
  0
LINE
  5
BE
330
17
100
AcDbEntity
  8
TOP
100
AcDbLine
 10
2.5
 20
53.19277108433735
 30
0.0
 11
5.3133333333333335
 21
51.56528238094246
 31
0.0
  0
LINE
  5
BF
330
17
100
AcDbEntity
  8
TOP
100
AcDbLine
 10
6.3533333333333335
 20
51.56528238094246
 30
0.0
 11
9.166666666666668
 21
53.19277108433735
 31
0.0
  0
LINE
  5
C0
330
17
100
AcDbEntity
  8
TOP
100
AcDbLine
 10
9.166666666666668
 20
53.19277108433735
 30
0.0
 11
11.98
 21
51.56528238094246
 31
0.0
  0
LINE
  5
C1
330
17
100
AcDbEntity
  8
TOP
100
AcDbLine
 10
13.02
 20
51.56528238094246
 30
0.0
 11
15.833333333333334
 21
53.19277108433735
 31
0.0
  0
LINE
  5
C2
330
17
100
AcDbEntity
  8
TOP
100
AcDbLine
 10
15.833333333333334
 20
53.19277108433735
 30
0.0
 11
18.64666666666667
 21
51.56528238094246
 31
0.0
  0
LINE
  5
C3
330
17
100
AcDbEntity
  8
TOP
100
AcDbLine
 10
19.686666666666667
 20
51.56528238094246
 30
0.0
 11
22.5
 21
53.19277108433735
 31
0.0
  0
LINE
  5
C4
330
17
100
AcDbEntity
  8
TOP
100
AcDbLine
 10
3.02
 20
53.49299322431596
 30
0.0
 11
5.833333333333334
 21
55.12048192771084
 31
0.0
  0
LINE
  5
C5
330
17
100
AcDbEntity
  8
TOP
100
AcDbLine
 10
5.833333333333334
 20
55.12048192771084
 30
0.0
 11
8.646666666666667
 21
53.49299322431596
 31
0.0
  0
LINE
  5
C6
330
17
100
AcDbEntity
  8
TOP
100
AcDbLine
 10
9.686666666666667
 20
53.49299322431596
 30
0.0
 11
12.5
 21
55.12048192771084
 31
0.0
  0
LINE
  5
C7
330
17
100
AcDbEntity
  8
TOP
100
AcDbLine
 10
12.5
 20
55.12048192771084
 30
0.0
 11
15.313333333333334
 21
53.49299322431596
 31
0.0
  0
LINE
  5
C8
330
17
100
AcDbEntity
  8
TOP
100
AcDbLine
 10
16.35333333333333
 20
53.49299322431596
 30
0.0
 11
19.166666666666668
 21
55.12048192771084
 31
0.0
  0
LINE
  5
C9
330
17
100
AcDbEntity
  8
TOP
100
AcDbLine
 10
19.166666666666668
 20
55.12048192771084
 30
0.0
 11
21.98
 21
53.49299322431596
 31
0.0
  0
LINE
  5
CA
330
17
100
AcDbEntity
  8
TOP
100
AcDbLine
 10
2.5
 20
57.04819277108434
 30
0.0
 11
5.3133333333333335
 21
55.42070406768945
 31
0.0
  0
LINE
  5
CB
330
17
100
AcDbEntity
  8
TOP
100
AcDbLine
 10
6.3533333333333335
 20
55.42070406768945
 30
0.0
 11
9.166666666666668
 21
57.04819277108434
 31
0.0
  0
LINE
  5
CC
330
17
100
AcDbEntity
  8
TOP
100
AcDbLine
 10
9.166666666666668
 20
57.04819277108434
 30
0.0
 11
11.98
 21
55.42070406768945
 31
0.0
  0
LINE
  5
CD
330
17
100
AcDbEntity
  8
TOP
100
AcDbLine
 10
13.02
 20
55.42070406768945
 30
0.0
 11
15.833333333333334
 21
57.04819277108434
 31
0.0
  0
LINE
  5
CE
330
17
100
AcDbEntity
  8
TOP
100
AcDbLine
 10
15.833333333333334
 20
57.04819277108434
 30
0.0
 11
18.64666666666667
 21
55.42070406768945
 31
0.0
  0
LINE
  5
CF
330
17
100
AcDbEntity
  8
TOP
100
AcDbLine
 10
19.686666666666667
 20
55.42070406768945
 30
0.0
 11
22.5
 21
57.04819277108434
 31
0.0
  0
LINE
  5
D0
330
17
100
AcDbEntity
  8
TOP
100
AcDbLine
 10
3.02
 20
57.348414911062946
 30
0.0
 11
5.833333333333334
 21
58.975903614457835
 31
0.0
  0
LINE
  5
D1
330
17
100
AcDbEntity
  8
TOP
100
AcDbLine
 10
5.833333333333334
 20
58.975903614457835
 30
0.0
 11
8.646666666666667
 21
57.348414911062946
 31
0.0
  0
LINE
  5
D2
330
17
100
AcDbEntity
  8
TOP
100
AcDbLine
 10
9.686666666666667
 20
57.348414911062946
 30
0.0
 11
12.5
 21
58.975903614457835
 31
0.0
  0
LINE
  5
D3
330
17
100
AcDbEntity
  8
TOP
100
AcDbLine
 10
12.5
 20
58.975903614457835
 30
0.0
 11
15.313333333333334
 21
57.348414911062946
 31
0.0
  0
LINE
  5
D4
330
17
100
AcDbEntity
  8
TOP
100
AcDbLine
 10
16.35333333333333
 20
57.348414911062946
 30
0.0
 11
19.166666666666668
 21
58.975903614457835
 31
0.0
  0
LINE
  5
D5
330
17
100
AcDbEntity
  8
TOP
100
AcDbLine
 10
19.166666666666668
 20
58.975903614457835
 30
0.0
 11
21.98
 21
57.348414911062946
 31
0.0
  0
LINE
  5
D6
330
17
100
AcDbEntity
  8
TOP
100
AcDbLine
 10
2.5
 20
60.903614457831324
 30
0.0
 11
5.3133333333333335
 21
59.27612575443644
 31
0.0
  0
LINE
  5
D7
330
17
100
AcDbEntity
  8
TOP
100
AcDbLine
 10
6.3533333333333335
 20
59.27612575443644
 30
0.0
 11
9.166666666666668
 21
60.903614457831324
 31
0.0
  0
LINE
  5
D8
330
17
100
AcDbEntity
  8
TOP
100
AcDbLine
 10
9.166666666666668
 20
60.903614457831324
 30
0.0
 11
11.98
 21
59.27612575443644
 31
0.0
  0
LINE
  5
D9
330
17
100
AcDbEntity
  8
TOP
100
AcDbLine
 10
13.02
 20
59.27612575443644
 30
0.0
 11
15.833333333333334
 21
60.903614457831324
 31
0.0
  0
LINE
  5
DA
330
17
100
AcDbEntity
  8
TOP
100
AcDbLine
 10
15.833333333333334
 20
60.903614457831324
 30
0.0
 11
18.64666666666667
 21
59.27612575443644
 31
0.0
  0
LINE
  5
DB
330
17
100
AcDbEntity
  8
TOP
100
AcDbLine
 10
19.686666666666667
 20
59.27612575443644
 30
0.0
 11
22.5
 21
60.903614457831324
 31
0.0
  0
LINE
  5
DC
330
17
100
AcDbEntity
  8
TOP
100
AcDbLine
 10
3.02
 20
61.20383659780993
 30
0.0
 11
5.833333333333334
 21
62.83132530120482
 31
0.0
  0
LINE
  5
DD
330
17
100
AcDbEntity
  8
TOP
100
AcDbLine
 10
5.833333333333334
 20
62.83132530120482
 30
0.0
 11
8.646666666666667
 21
61.20383659780993
 31
0.0
  0
LINE
  5
DE
330
17
100
AcDbEntity
  8
TOP
100
AcDbLine
 10
9.686666666666667
 20
61.20383659780993
 30
0.0
 11
12.5
 21
62.83132530120482
 31
0.0
  0
LINE
  5
DF
330
17
100
AcDbEntity
  8
TOP
100
AcDbLine
 10
12.5
 20
62.83132530120482
 30
0.0
 11
15.313333333333334
 21
61.20383659780993
 31
0.0
  0
LINE
  5
E0
330
17
100
AcDbEntity
  8
TOP
100
AcDbLine
 10
16.35333333333333
 20
61.20383659780993
 30
0.0
 11
19.166666666666668
 21
62.83132530120482
 31
0.0
  0
LINE
  5
E1
330
17
100
AcDbEntity
  8
TOP
100
AcDbLine
 10
19.166666666666668
 20
62.83132530120482
 30
0.0
 11
21.98
 21
61.20383659780993
 31
0.0
  0
LINE
  5
E2
330
17
100
AcDbEntity
  8
TOP
100
AcDbLine
 10
2.5
 20
64.75903614457832
 30
0.0
 11
5.3133333333333335
 21
63.13154744118343
 31
0.0
  0
LINE
  5
E3
330
17
100
AcDbEntity
  8
TOP
100
AcDbLine
 10
6.3533333333333335
 20
63.13154744118343
 30
0.0
 11
9.166666666666668
 21
64.75903614457832
 31
0.0
  0
LINE
  5
E4
330
17
100
AcDbEntity
  8
TOP
100
AcDbLine
 10
9.166666666666668
 20
64.75903614457832
 30
0.0
 11
11.98
 21
63.13154744118343
 31
0.0
  0
LINE
  5
E5
330
17
100
AcDbEntity
  8
TOP
100
AcDbLine
 10
13.02
 20
63.13154744118343
 30
0.0
 11
15.833333333333334
 21
64.75903614457832
 31
0.0
  0
LINE
  5
E6
330
17
100
AcDbEntity
  8
TOP
100
AcDbLine
 10
15.833333333333334
 20
64.75903614457832
 30
0.0
 11
18.64666666666667
 21
63.13154744118343
 31
0.0
  0
LINE
  5
E7
330
17
100
AcDbEntity
  8
TOP
100
AcDbLine
 10
19.686666666666667
 20
63.13154744118343
 30
0.0
 11
22.5
 21
64.75903614457832
 31
0.0
  0
LINE
  5
E8
330
17
100
AcDbEntity
  8
TOP
100
AcDbLine
 10
3.02
 20
65.05925828455692
 30
0.0
 11
5.833333333333334
 21
66.6867469879518
 31
0.0
  0
LINE
  5
E9
330
17
100
AcDbEntity
  8
TOP
100
AcDbLine
 10
5.833333333333334
 20
66.6867469879518
 30
0.0
 11
8.646666666666667
 21
65.05925828455692
 31
0.0
  0
LINE
  5
EA
330
17
100
AcDbEntity
  8
TOP
100
AcDbLine
 10
9.686666666666667
 20
65.05925828455692
 30
0.0
 11
12.5
 21
66.6867469879518
 31
0.0
  0
LINE
  5
EB
330
17
100
AcDbEntity
  8
TOP
100
AcDbLine
 10
12.5
 20
66.6867469879518
 30
0.0
 11
15.313333333333334
 21
65.05925828455692
 31
0.0
  0
LINE
  5
EC
330
17
100
AcDbEntity
  8
TOP
100
AcDbLine
 10
16.35333333333333
 20
65.05925828455692
 30
0.0
 11
19.166666666666668
 21
66.6867469879518
 31
0.0
  0
LINE
  5
ED
330
17
100
AcDbEntity
  8
TOP
100
AcDbLine
 10
19.166666666666668
 20
66.6867469879518
 30
0.0
 11
21.98
 21
65.05925828455692
 31
0.0
  0
LINE
  5
EE
330
17
100
AcDbEntity
  8
TOP
100
AcDbLine
 10
2.5
 20
68.6144578313253
 30
0.0
 11
5.3133333333333335
 21
66.98696912793042
 31
0.0
  0
LINE
  5
EF
330
17
100
AcDbEntity
  8
TOP
100
AcDbLine
 10
6.3533333333333335
 20
66.98696912793042
 30
0.0
 11
9.166666666666668
 21
68.6144578313253
 31
0.0
  0
LINE
  5
F0
330
17
100
AcDbEntity
  8
TOP
100
AcDbLine
 10
9.166666666666668
 20
68.6144578313253
 30
0.0
 11
11.98
 21
66.98696912793042
 31
0.0
  0
LINE
  5
F1
330
17
100
AcDbEntity
  8
TOP
100
AcDbLine
 10
13.02
 20
66.98696912793042
 30
0.0
 11
15.833333333333334
 21
68.6144578313253
 31
0.0
  0
LINE
  5
F2
330
17
100
AcDbEntity
  8
TOP
100
AcDbLine
 10
15.833333333333334
 20
68.6144578313253
 30
0.0
 11
18.64666666666667
 21
66.98696912793042
 31
0.0
  0
LINE
  5
F3
330
17
100
AcDbEntity
  8
TOP
100
AcDbLine
 10
19.686666666666667
 20
66.98696912793042
 30
0.0
 11
22.5
 21
68.6144578313253
 31
0.0
  0
LINE
  5
F4
330
17
100
AcDbEntity
  8
TOP
100
AcDbLine
 10
3.02
 20
68.91467997130391
 30
0.0
 11
5.833333333333334
 21
70.5421686746988
 31
0.0
  0
LINE
  5
F5
330
17
100
AcDbEntity
  8
TOP
100
AcDbLine
 10
5.833333333333334
 20
70.5421686746988
 30
0.0
 11
8.646666666666667
 21
68.91467997130391
 31
0.0
  0
LINE
  5
F6
330
17
100
AcDbEntity
  8
TOP
100
AcDbLine
 10
9.686666666666667
 20
68.91467997130391
 30
0.0
 11
12.5
 21
70.5421686746988
 31
0.0
  0
LINE
  5
F7
330
17
100
AcDbEntity
  8
TOP
100
AcDbLine
 10
12.5
 20
70.5421686746988
 30
0.0
 11
15.313333333333334
 21
68.91467997130391
 31
0.0
  0
LINE
  5
F8
330
17
100
AcDbEntity
  8
TOP
100
AcDbLine
 10
16.35333333333333
 20
68.91467997130391
 30
0.0
 11
19.166666666666668
 21
70.5421686746988
 31
0.0
  0
LINE
  5
F9
330
17
100
AcDbEntity
  8
TOP
100
AcDbLine
 10
19.166666666666668
 20
70.5421686746988
 30
0.0
 11
21.98
 21
68.91467997130391
 31
0.0
  0
LINE
  5
FA
330
17
100
AcDbEntity
  8
TOP
100
AcDbLine
 10
2.5
 20
72.46987951807229
 30
0.0
 11
5.3133333333333335
 21
70.8423908146774
 31
0.0
  0
LINE
  5
FB
330
17
100
AcDbEntity
  8
TOP
100
AcDbLine
 10
6.3533333333333335
 20
70.8423908146774
 30
0.0
 11
9.166666666666668
 21
72.46987951807229
 31
0.0
  0
LINE
  5
FC
330
17
100
AcDbEntity
  8
TOP
100
AcDbLine
 10
9.166666666666668
 20
72.46987951807229
 30
0.0
 11
11.98
 21
70.8423908146774
 31
0.0
  0
LINE
  5
FD
330
17
100
AcDbEntity
  8
TOP
100
AcDbLine
 10
13.02
 20
70.8423908146774
 30
0.0
 11
15.833333333333334
 21
72.46987951807229
 31
0.0
  0
LINE
  5
FE
330
17
100
AcDbEntity
  8
TOP
100
AcDbLine
 10
15.833333333333334
 20
72.46987951807229
 30
0.0
 11
18.64666666666667
 21
70.8423908146774
 31
0.0
  0
LINE
  5
FF
330
17
100
AcDbEntity
  8
TOP
100
AcDbLine
 10
19.686666666666667
 20
70.8423908146774
 30
0.0
 11
22.5
 21
72.46987951807229
 31
0.0
  0
LINE
  5
100
330
17
100
AcDbEntity
  8
TOP
100
AcDbLine
 10
3.02
 20
72.77010165805089
 30
0.0
 11
5.833333333333334
 21
74.39759036144578
 31
0.0
  0
LINE
  5
101
330
17
100
AcDbEntity
  8
TOP
100
AcDbLine
 10
5.833333333333334
 20
74.39759036144578
 30
0.0
 11
8.646666666666667
 21
72.77010165805089
 31
0.0
  0
LINE
  5
102
330
17
100
AcDbEntity
  8
TOP
100
AcDbLine
 10
9.686666666666667
 20
72.77010165805089
 30
0.0
 11
12.5
 21
74.39759036144578
 31
0.0
  0
LINE
  5
103
330
17
100
AcDbEntity
  8
TOP
100
AcDbLine
 10
12.5
 20
74.39759036144578
 30
0.0
 11
15.313333333333334
 21
72.77010165805089
 31
0.0
  0
LINE
  5
104
330
17
100
AcDbEntity
  8
TOP
100
AcDbLine
 10
16.35333333333333
 20
72.77010165805089
 30
0.0
 11
19.166666666666668
 21
74.39759036144578
 31
0.0
  0
LINE
  5
105
330
17
100
AcDbEntity
  8
TOP
100
AcDbLine
 10
19.166666666666668
 20
74.39759036144578
 30
0.0
 11
21.98
 21
72.77010165805089
 31
0.0
  0
LINE
  5
106
330
17
100
AcDbEntity
  8
TOP
100
AcDbLine
 10
2.5
 20
76.32530120481928
 30
0.0
 11
5.3133333333333335
 21
74.69781250142438
 31
0.0
  0
LINE
  5
107
330
17
100
AcDbEntity
  8
TOP
100
AcDbLine
 10
6.3533333333333335
 20
74.69781250142438
 30
0.0
 11
9.166666666666668
 21
76.32530120481928
 31
0.0
  0
LINE
  5
108
330
17
100
AcDbEntity
  8
TOP
100
AcDbLine
 10
9.166666666666668
 20
76.32530120481928
 30
0.0
 11
11.98
 21
74.69781250142438
 31
0.0
  0
LINE
  5
109
330
17
100
AcDbEntity
  8
TOP
100
AcDbLine
 10
13.02
 20
74.69781250142438
 30
0.0
 11
15.833333333333334
 21
76.32530120481928
 31
0.0
  0
LINE
  5
10A
330
17
100
AcDbEntity
  8
TOP
100
AcDbLine
 10
15.833333333333334
 20
76.32530120481928
 30
0.0
 11
18.64666666666667
 21
74.69781250142438
 31
0.0
  0
LINE
  5
10B
330
17
100
AcDbEntity
  8
TOP
100
AcDbLine
 10
19.686666666666667
 20
74.69781250142438
 30
0.0
 11
22.5
 21
76.32530120481928
 31
0.0
  0
LINE
  5
10C
330
17
100
AcDbEntity
  8
TOP
100
AcDbLine
 10
3.02
 20
76.62552334479788
 30
0.0
 11
5.833333333333334
 21
78.25301204819277
 31
0.0
  0
LINE
  5
10D
330
17
100
AcDbEntity
  8
TOP
100
AcDbLine
 10
5.833333333333334
 20
78.25301204819277
 30
0.0
 11
8.646666666666667
 21
76.62552334479788
 31
0.0
  0
LINE
  5
10E
330
17
100
AcDbEntity
  8
TOP
100
AcDbLine
 10
9.686666666666667
 20
76.62552334479788
 30
0.0
 11
12.5
 21
78.25301204819277
 31
0.0
  0
LINE
  5
10F
330
17
100
AcDbEntity
  8
TOP
100
AcDbLine
 10
12.5
 20
78.25301204819277
 30
0.0
 11
15.313333333333334
 21
76.62552334479788
 31
0.0
  0
LINE
  5
110
330
17
100
AcDbEntity
  8
TOP
100
AcDbLine
 10
16.35333333333333
 20
76.62552334479788
 30
0.0
 11
19.166666666666668
 21
78.25301204819277
 31
0.0
  0
LINE
  5
111
330
17
100
AcDbEntity
  8
TOP
100
AcDbLine
 10
19.166666666666668
 20
78.25301204819277
 30
0.0
 11
21.98
 21
76.62552334479788
 31
0.0
  0
LINE
  5
112
330
17
100
AcDbEntity
  8
TOP
100
AcDbLine
 10
2.5
 20
80.18072289156626
 30
0.0
 11
5.3133333333333335
 21
78.55323418817137
 31
0.0
  0
LINE
  5
113
330
17
100
AcDbEntity
  8
TOP
100
AcDbLine
 10
6.3533333333333335
 20
78.55323418817137
 30
0.0
 11
9.166666666666668
 21
80.18072289156626
 31
0.0
  0
LINE
  5
114
330
17
100
AcDbEntity
  8
TOP
100
AcDbLine
 10
9.166666666666668
 20
80.18072289156626
 30
0.0
 11
11.98
 21
78.55323418817137
 31
0.0
  0
LINE
  5
115
330
17
100
AcDbEntity
  8
TOP
100
AcDbLine
 10
13.02
 20
78.55323418817137
 30
0.0
 11
15.833333333333334
 21
80.18072289156626
 31
0.0
  0
LINE
  5
116
330
17
100
AcDbEntity
  8
TOP
100
AcDbLine
 10
15.833333333333334
 20
80.18072289156626
 30
0.0
 11
18.64666666666667
 21
78.55323418817137
 31
0.0
  0
LINE
  5
117
330
17
100
AcDbEntity
  8
TOP
100
AcDbLine
 10
19.686666666666667
 20
78.55323418817137
 30
0.0
 11
22.5
 21
80.18072289156626
 31
0.0
  0
LINE
  5
118
330
17
100
AcDbEntity
  8
TOP
100
AcDbLine
 10
3.02
 20
80.48094503154486
 30
0.0
 11
5.833333333333334
 21
82.10843373493975
 31
0.0
  0
LINE
  5
119
330
17
100
AcDbEntity
  8
TOP
100
AcDbLine
 10
5.833333333333334
 20
82.10843373493975
 30
0.0
 11
8.646666666666667
 21
80.48094503154486
 31
0.0
  0
LINE
  5
11A
330
17
100
AcDbEntity
  8
TOP
100
AcDbLine
 10
9.686666666666667
 20
80.48094503154486
 30
0.0
 11
12.5
 21
82.10843373493975
 31
0.0
  0
LINE
  5
11B
330
17
100
AcDbEntity
  8
TOP
100
AcDbLine
 10
12.5
 20
82.10843373493975
 30
0.0
 11
15.313333333333334
 21
80.48094503154486
 31
0.0
  0
LINE
  5
11C
330
17
100
AcDbEntity
  8
TOP
100
AcDbLine
 10
16.35333333333333
 20
80.48094503154486
 30
0.0
 11
19.166666666666668
 21
82.10843373493975
 31
0.0
  0
LINE
  5
11D
330
17
100
AcDbEntity
  8
TOP
100
AcDbLine
 10
19.166666666666668
 20
82.10843373493975
 30
0.0
 11
21.98
 21
80.48094503154486
 31
0.0
  0
LINE
  5
11E
330
17
100
AcDbEntity
  8
TOP
100
AcDbLine
 10
2.5
 20
84.03614457831326
 30
0.0
 11
5.3133333333333335
 21
82.40865587491835
 31
0.0
  0
LINE
  5
11F
330
17
100
AcDbEntity
  8
TOP
100
AcDbLine
 10
6.3533333333333335
 20
82.40865587491835
 30
0.0
 11
9.166666666666668
 21
84.03614457831326
 31
0.0
  0
LINE
  5
120
330
17
100
AcDbEntity
  8
TOP
100
AcDbLine
 10
9.166666666666668
 20
84.03614457831326
 30
0.0
 11
11.98
 21
82.40865587491835
 31
0.0
  0
LINE
  5
121
330
17
100
AcDbEntity
  8
TOP
100
AcDbLine
 10
13.02
 20
82.40865587491835
 30
0.0
 11
15.833333333333334
 21
84.03614457831326
 31
0.0
  0
LINE
  5
122
330
17
100
AcDbEntity
  8
TOP
100
AcDbLine
 10
15.833333333333334
 20
84.03614457831326
 30
0.0
 11
18.64666666666667
 21
82.40865587491835
 31
0.0
  0
LINE
  5
123
330
17
100
AcDbEntity
  8
TOP
100
AcDbLine
 10
19.686666666666667
 20
82.40865587491835
 30
0.0
 11
22.5
 21
84.03614457831326
 31
0.0
  0
LINE
  5
124
330
17
100
AcDbEntity
  8
TOP
100
AcDbLine
 10
3.02
 20
84.33636671829186
 30
0.0
 11
5.833333333333334
 21
85.96385542168674
 31
0.0
  0
LINE
  5
125
330
17
100
AcDbEntity
  8
TOP
100
AcDbLine
 10
5.833333333333334
 20
85.96385542168674
 30
0.0
 11
8.646666666666667
 21
84.33636671829186
 31
0.0
  0
LINE
  5
126
330
17
100
AcDbEntity
  8
TOP
100
AcDbLine
 10
9.686666666666667
 20
84.33636671829186
 30
0.0
 11
12.5
 21
85.96385542168674
 31
0.0
  0
LINE
  5
127
330
17
100
AcDbEntity
  8
TOP
100
AcDbLine
 10
12.5
 20
85.96385542168674
 30
0.0
 11
15.313333333333334
 21
84.33636671829186
 31
0.0
  0
LINE
  5
128
330
17
100
AcDbEntity
  8
TOP
100
AcDbLine
 10
16.35333333333333
 20
84.33636671829186
 30
0.0
 11
19.166666666666668
 21
85.96385542168674
 31
0.0
  0
LINE
  5
129
330
17
100
AcDbEntity
  8
TOP
100
AcDbLine
 10
19.166666666666668
 20
85.96385542168674
 30
0.0
 11
21.98
 21
84.33636671829186
 31
0.0
  0
LINE
  5
12A
330
17
100
AcDbEntity
  8
TOP
100
AcDbLine
 10
2.5
 20
87.89156626506023
 30
0.0
 11
5.3133333333333335
 21
86.26407756166535
 31
0.0
  0
LINE
  5
12B
330
17
100
AcDbEntity
  8
TOP
100
AcDbLine
 10
6.3533333333333335
 20
86.26407756166535
 30
0.0
 11
9.166666666666668
 21
87.89156626506023
 31
0.0
  0
LINE
  5
12C
330
17
100
AcDbEntity
  8
TOP
100
AcDbLine
 10
9.166666666666668
 20
87.89156626506023
 30
0.0
 11
11.98
 21
86.26407756166535
 31
0.0
  0
LINE
  5
12D
330
17
100
AcDbEntity
  8
TOP
100
AcDbLine
 10
13.02
 20
86.26407756166535
 30
0.0
 11
15.833333333333334
 21
87.89156626506023
 31
0.0
  0
LINE
  5
12E
330
17
100
AcDbEntity
  8
TOP
100
AcDbLine
 10
15.833333333333334
 20
87.89156626506023
 30
0.0
 11
18.64666666666667
 21
86.26407756166535
 31
0.0
  0
LINE
  5
12F
330
17
100
AcDbEntity
  8
TOP
100
AcDbLine
 10
19.686666666666667
 20
86.26407756166535
 30
0.0
 11
22.5
 21
87.89156626506023
 31
0.0
  0
LINE
  5
130
330
17
100
AcDbEntity
  8
TOP
100
AcDbLine
 10
3.02
 20
88.19178840503884
 30
0.0
 11
5.833333333333334
 21
89.81927710843374
 31
0.0
  0
LINE
  5
131
330
17
100
AcDbEntity
  8
TOP
100
AcDbLine
 10
5.833333333333334
 20
89.81927710843374
 30
0.0
 11
8.646666666666667
 21
88.19178840503884
 31
0.0
  0
LINE
  5
132
330
17
100
AcDbEntity
  8
TOP
100
AcDbLine
 10
9.686666666666667
 20
88.19178840503884
 30
0.0
 11
12.5
 21
89.81927710843374
 31
0.0
  0
LINE
  5
133
330
17
100
AcDbEntity
  8
TOP
100
AcDbLine
 10
12.5
 20
89.81927710843374
 30
0.0
 11
15.313333333333334
 21
88.19178840503884
 31
0.0
  0
LINE
  5
134
330
17
100
AcDbEntity
  8
TOP
100
AcDbLine
 10
16.35333333333333
 20
88.19178840503884
 30
0.0
 11
19.166666666666668
 21
89.81927710843374
 31
0.0
  0
LINE
  5
135
330
17
100
AcDbEntity
  8
TOP
100
AcDbLine
 10
19.166666666666668
 20
89.81927710843374
 30
0.0
 11
21.98
 21
88.19178840503884
 31
0.0
  0
LINE
  5
136
330
17
100
AcDbEntity
  8
TOP
100
AcDbLine
 10
2.5
 20
91.74698795180723
 30
0.0
 11
5.3133333333333335
 21
90.11949924841234
 31
0.0
  0
LINE
  5
137
330
17
100
AcDbEntity
  8
TOP
100
AcDbLine
 10
6.3533333333333335
 20
90.11949924841234
 30
0.0
 11
9.166666666666668
 21
91.74698795180723
 31
0.0
  0
LINE
  5
138
330
17
100
AcDbEntity
  8
TOP
100
AcDbLine
 10
9.166666666666668
 20
91.74698795180723
 30
0.0
 11
11.98
 21
90.11949924841234
 31
0.0
  0
LINE
  5
139
330
17
100
AcDbEntity
  8
TOP
100
AcDbLine
 10
13.02
 20
90.11949924841234
 30
0.0
 11
15.833333333333334
 21
91.74698795180723
 31
0.0
  0
LINE
  5
13A
330
17
100
AcDbEntity
  8
TOP
100
AcDbLine
 10
15.833333333333334
 20
91.74698795180723
 30
0.0
 11
18.64666666666667
 21
90.11949924841234
 31
0.0
  0
LINE
  5
13B
330
17
100
AcDbEntity
  8
TOP
100
AcDbLine
 10
19.686666666666667
 20
90.11949924841234
 30
0.0
 11
22.5
 21
91.74698795180723
 31
0.0
  0
LINE
  5
13C
330
17
100
AcDbEntity
  8
TOP
100
AcDbLine
 10
3.02
 20
92.04721009178583
 30
0.0
 11
5.833333333333334
 21
93.67469879518072
 31
0.0
  0
LINE
  5
13D
330
17
100
AcDbEntity
  8
TOP
100
AcDbLine
 10
5.833333333333334
 20
93.67469879518072
 30
0.0
 11
8.646666666666667
 21
92.04721009178583
 31
0.0
  0
LINE
  5
13E
330
17
100
AcDbEntity
  8
TOP
100
AcDbLine
 10
9.686666666666667
 20
92.04721009178583
 30
0.0
 11
12.5
 21
93.67469879518072
 31
0.0
  0
LINE
  5
13F
330
17
100
AcDbEntity
  8
TOP
100
AcDbLine
 10
12.5
 20
93.67469879518072
 30
0.0
 11
15.313333333333334
 21
92.04721009178583
 31
0.0
  0
LINE
  5
140
330
17
100
AcDbEntity
  8
TOP
100
AcDbLine
 10
16.35333333333333
 20
92.04721009178583
 30
0.0
 11
19.166666666666668
 21
93.67469879518072
 31
0.0
  0
LINE
  5
141
330
17
100
AcDbEntity
  8
TOP
100
AcDbLine
 10
19.166666666666668
 20
93.67469879518072
 30
0.0
 11
21.98
 21
92.04721009178583
 31
0.0
  0
LINE
  5
142
330
17
100
AcDbEntity
  8
TOP
100
AcDbLine
 10
2.5
 20
95.60240963855422
 30
0.0
 11
5.3133333333333335
 21
93.97492093515932
 31
0.0
  0
LINE
  5
143
330
17
100
AcDbEntity
  8
TOP
100
AcDbLine
 10
6.3533333333333335
 20
93.97492093515932
 30
0.0
 11
9.166666666666668
 21
95.60240963855422
 31
0.0
  0
LINE
  5
144
330
17
100
AcDbEntity
  8
TOP
100
AcDbLine
 10
9.166666666666668
 20
95.60240963855422
 30
0.0
 11
11.98
 21
93.97492093515932
 31
0.0
  0
LINE
  5
145
330
17
100
AcDbEntity
  8
TOP
100
AcDbLine
 10
13.02
 20
93.97492093515932
 30
0.0
 11
15.833333333333334
 21
95.60240963855422
 31
0.0
  0
LINE
  5
146
330
17
100
AcDbEntity
  8
TOP
100
AcDbLine
 10
15.833333333333334
 20
95.60240963855422
 30
0.0
 11
18.64666666666667
 21
93.97492093515932
 31
0.0
  0
LINE
  5
147
330
17
100
AcDbEntity
  8
TOP
100
AcDbLine
 10
19.686666666666667
 20
93.97492093515932
 30
0.0
 11
22.5
 21
95.60240963855422
 31
0.0
  0
LINE
  5
148
330
17
100
AcDbEntity
  8
TOP
100
AcDbLine
 10
3.02
 20
95.90263177853282
 30
0.0
 11
5.833333333333334
 21
97.53012048192771
 31
0.0
  0
LINE
  5
149
330
17
100
AcDbEntity
  8
TOP
100
AcDbLine
 10
5.833333333333334
 20
97.53012048192771
 30
0.0
 11
8.646666666666667
 21
95.90263177853282
 31
0.0
  0
LINE
  5
14A
330
17
100
AcDbEntity
  8
TOP
100
AcDbLine
 10
9.686666666666667
 20
95.90263177853282
 30
0.0
 11
12.5
 21
97.53012048192771
 31
0.0
  0
LINE
  5
14B
330
17
100
AcDbEntity
  8
TOP
100
AcDbLine
 10
12.5
 20
97.53012048192771
 30
0.0
 11
15.313333333333334
 21
95.90263177853282
 31
0.0
  0
LINE
  5
14C
330
17
100
AcDbEntity
  8
TOP
100
AcDbLine
 10
16.35333333333333
 20
95.90263177853282
 30
0.0
 11
19.166666666666668
 21
97.53012048192771
 31
0.0
  0
LINE
  5
14D
330
17
100
AcDbEntity
  8
TOP
100
AcDbLine
 10
19.166666666666668
 20
97.53012048192771
 30
0.0
 11
21.98
 21
95.90263177853282
 31
0.0
  0
LINE
  5
14E
330
17
100
AcDbEntity
  8
TOP
100
AcDbLine
 10
2.5
 20
99.4578313253012
 30
0.0
 11
5.3133333333333335
 21
97.83034262190631
 31
0.0
  0
LINE
  5
14F
330
17
100
AcDbEntity
  8
TOP
100
AcDbLine
 10
6.3533333333333335
 20
97.83034262190631
 30
0.0
 11
9.166666666666668
 21
99.4578313253012
 31
0.0
  0
LINE
  5
150
330
17
100
AcDbEntity
  8
TOP
100
AcDbLine
 10
9.166666666666668
 20
99.4578313253012
 30
0.0
 11
11.98
 21
97.83034262190631
 31
0.0
  0
LINE
  5
151
330
17
100
AcDbEntity
  8
TOP
100
AcDbLine
 10
13.02
 20
97.83034262190631
 30
0.0
 11
15.833333333333334
 21
99.4578313253012
 31
0.0
  0
LINE
  5
152
330
17
100
AcDbEntity
  8
TOP
100
AcDbLine
 10
15.833333333333334
 20
99.4578313253012
 30
0.0
 11
18.64666666666667
 21
97.83034262190631
 31
0.0
  0
LINE
  5
153
330
17
100
AcDbEntity
  8
TOP
100
AcDbLine
 10
19.686666666666667
 20
97.83034262190631
 30
0.0
 11
22.5
 21
99.4578313253012
 31
0.0
  0
LINE
  5
154
330
17
100
AcDbEntity
  8
TOP
100
AcDbLine
 10
3.02
 20
99.7580534652798
 30
0.0
 11
5.833333333333334
 21
101.3855421686747
 31
0.0
  0
LINE
  5
155
330
17
100
AcDbEntity
  8
TOP
100
AcDbLine
 10
5.833333333333334
 20
101.3855421686747
 30
0.0
 11
8.646666666666667
 21
99.7580534652798
 31
0.0
  0
LINE
  5
156
330
17
100
AcDbEntity
  8
TOP
100
AcDbLine
 10
9.686666666666667
 20
99.7580534652798
 30
0.0
 11
12.5
 21
101.3855421686747
 31
0.0
  0
LINE
  5
157
330
17
100
AcDbEntity
  8
TOP
100
AcDbLine
 10
12.5
 20
101.3855421686747
 30
0.0
 11
15.313333333333334
 21
99.7580534652798
 31
0.0
  0
LINE
  5
158
330
17
100
AcDbEntity
  8
TOP
100
AcDbLine
 10
16.35333333333333
 20
99.7580534652798
 30
0.0
 11
19.166666666666668
 21
101.3855421686747
 31
0.0
  0
LINE
  5
159
330
17
100
AcDbEntity
  8
TOP
100
AcDbLine
 10
19.166666666666668
 20
101.3855421686747
 30
0.0
 11
21.98
 21
99.7580534652798
 31
0.0
  0
LINE
  5
15A
330
17
100
AcDbEntity
  8
TOP
100
AcDbLine
 10
2.5
 20
103.3132530120482
 30
0.0
 11
5.3133333333333335
 21
101.6857643086533
 31
0.0
  0
LINE
  5
15B
330
17
100
AcDbEntity
  8
TOP
100
AcDbLine
 10
6.3533333333333335
 20
101.6857643086533
 30
0.0
 11
9.166666666666668
 21
103.3132530120482
 31
0.0
  0
LINE
  5
15C
330
17
100
AcDbEntity
  8
TOP
100
AcDbLine
 10
9.166666666666668
 20
103.3132530120482
 30
0.0
 11
11.98
 21
101.6857643086533
 31
0.0
  0
LINE
  5
15D
330
17
100
AcDbEntity
  8
TOP
100
AcDbLine
 10
13.02
 20
101.6857643086533
 30
0.0
 11
15.833333333333334
 21
103.3132530120482
 31
0.0
  0
LINE
  5
15E
330
17
100
AcDbEntity
  8
TOP
100
AcDbLine
 10
15.833333333333334
 20
103.3132530120482
 30
0.0
 11
18.64666666666667
 21
101.6857643086533
 31
0.0
  0
LINE
  5
15F
330
17
100
AcDbEntity
  8
TOP
100
AcDbLine
 10
19.686666666666667
 20
101.6857643086533
 30
0.0
 11
22.5
 21
103.3132530120482
 31
0.0
  0
LINE
  5
160
330
17
100
AcDbEntity
  8
TOP
100
AcDbLine
 10
3.02
 20
103.6134751520268
 30
0.0
 11
5.833333333333334
 21
105.24096385542168
 31
0.0
  0
LINE
  5
161
330
17
100
AcDbEntity
  8
TOP
100
AcDbLine
 10
5.833333333333334
 20
105.24096385542168
 30
0.0
 11
8.646666666666667
 21
103.6134751520268
 31
0.0
  0
LINE
  5
162
330
17
100
AcDbEntity
  8
TOP
100
AcDbLine
 10
9.686666666666667
 20
103.6134751520268
 30
0.0
 11
12.5
 21
105.24096385542168
 31
0.0
  0
LINE
  5
163
330
17
100
AcDbEntity
  8
TOP
100
AcDbLine
 10
12.5
 20
105.24096385542168
 30
0.0
 11
15.313333333333334
 21
103.6134751520268
 31
0.0
  0
LINE
  5
164
330
17
100
AcDbEntity
  8
TOP
100
AcDbLine
 10
16.35333333333333
 20
103.6134751520268
 30
0.0
 11
19.166666666666668
 21
105.24096385542168
 31
0.0
  0
LINE
  5
165
330
17
100
AcDbEntity
  8
TOP
100
AcDbLine
 10
19.166666666666668
 20
105.24096385542168
 30
0.0
 11
21.98
 21
103.6134751520268
 31
0.0
  0
LINE
  5
166
330
17
100
AcDbEntity
  8
TOP
100
AcDbLine
 10
2.5
 20
107.16867469879519
 30
0.0
 11
5.3133333333333335
 21
105.54118599540028
 31
0.0
  0
LINE
  5
167
330
17
100
AcDbEntity
  8
TOP
100
AcDbLine
 10
6.3533333333333335
 20
105.54118599540028
 30
0.0
 11
9.166666666666668
 21
107.16867469879519
 31
0.0
  0
LINE
  5
168
330
17
100
AcDbEntity
  8
TOP
100
AcDbLine
 10
9.166666666666668
 20
107.16867469879519
 30
0.0
 11
11.98
 21
105.54118599540028
 31
0.0
  0
LINE
  5
169
330
17
100
AcDbEntity
  8
TOP
100
AcDbLine
 10
13.02
 20
105.54118599540028
 30
0.0
 11
15.833333333333334
 21
107.16867469879519
 31
0.0
  0
LINE
  5
16A
330
17
100
AcDbEntity
  8
TOP
100
AcDbLine
 10
15.833333333333334
 20
107.16867469879519
 30
0.0
 11
18.64666666666667
 21
105.54118599540028
 31
0.0
  0
LINE
  5
16B
330
17
100
AcDbEntity
  8
TOP
100
AcDbLine
 10
19.686666666666667
 20
105.54118599540028
 30
0.0
 11
22.5
 21
107.16867469879519
 31
0.0
  0
LINE
  5
16C
330
17
100
AcDbEntity
  8
TOP
100
AcDbLine
 10
3.02
 20
107.46889683877379
 30
0.0
 11
5.833333333333334
 21
109.09638554216868
 31
0.0
  0
LINE
  5
16D
330
17
100
AcDbEntity
  8
TOP
100
AcDbLine
 10
5.833333333333334
 20
109.09638554216868
 30
0.0
 11
8.646666666666667
 21
107.46889683877379
 31
0.0
  0
LINE
  5
16E
330
17
100
AcDbEntity
  8
TOP
100
AcDbLine
 10
9.686666666666667
 20
107.46889683877379
 30
0.0
 11
12.5
 21
109.09638554216868
 31
0.0
  0
LINE
  5
16F
330
17
100
AcDbEntity
  8
TOP
100
AcDbLine
 10
12.5
 20
109.09638554216868
 30
0.0
 11
15.313333333333334
 21
107.46889683877379
 31
0.0
  0
LINE
  5
170
330
17
100
AcDbEntity
  8
TOP
100
AcDbLine
 10
16.35333333333333
 20
107.46889683877379
 30
0.0
 11
19.166666666666668
 21
109.09638554216868
 31
0.0
  0
LINE
  5
171
330
17
100
AcDbEntity
  8
TOP
100
AcDbLine
 10
19.166666666666668
 20
109.09638554216868
 30
0.0
 11
21.98
 21
107.46889683877379
 31
0.0
  0
LINE
  5
172
330
17
100
AcDbEntity
  8
TOP
100
AcDbLine
 10
2.5
 20
111.02409638554217
 30
0.0
 11
5.3133333333333335
 21
109.39660768214728
 31
0.0
  0
LINE
  5
173
330
17
100
AcDbEntity
  8
TOP
100
AcDbLine
 10
6.3533333333333335
 20
109.39660768214728
 30
0.0
 11
9.166666666666668
 21
111.02409638554217
 31
0.0
  0
LINE
  5
174
330
17
100
AcDbEntity
  8
TOP
100
AcDbLine
 10
9.166666666666668
 20
111.02409638554217
 30
0.0
 11
11.98
 21
109.39660768214728
 31
0.0
  0
LINE
  5
175
330
17
100
AcDbEntity
  8
TOP
100
AcDbLine
 10
13.02
 20
109.39660768214728
 30
0.0
 11
15.833333333333334
 21
111.02409638554217
 31
0.0
  0
LINE
  5
176
330
17
100
AcDbEntity
  8
TOP
100
AcDbLine
 10
15.833333333333334
 20
111.02409638554217
 30
0.0
 11
18.64666666666667
 21
109.39660768214728
 31
0.0
  0
LINE
  5
177
330
17
100
AcDbEntity
  8
TOP
100
AcDbLine
 10
19.686666666666667
 20
109.39660768214728
 30
0.0
 11
22.5
 21
111.02409638554217
 31
0.0
  0
LINE
  5
178
330
17
100
AcDbEntity
  8
TOP
100
AcDbLine
 10
3.02
 20
111.32431852552077
 30
0.0
 11
5.833333333333334
 21
112.95180722891567
 31
0.0
  0
LINE
  5
179
330
17
100
AcDbEntity
  8
TOP
100
AcDbLine
 10
5.833333333333334
 20
112.95180722891567
 30
0.0
 11
8.646666666666667
 21
111.32431852552077
 31
0.0
  0
LINE
  5
17A
330
17
100
AcDbEntity
  8
TOP
100
AcDbLine
 10
9.686666666666667
 20
111.32431852552077
 30
0.0
 11
12.5
 21
112.95180722891567
 31
0.0
  0
LINE
  5
17B
330
17
100
AcDbEntity
  8
TOP
100
AcDbLine
 10
12.5
 20
112.95180722891567
 30
0.0
 11
15.313333333333334
 21
111.32431852552077
 31
0.0
  0
LINE
  5
17C
330
17
100
AcDbEntity
  8
TOP
100
AcDbLine
 10
16.35333333333333
 20
111.32431852552077
 30
0.0
 11
19.166666666666668
 21
112.95180722891567
 31
0.0
  0
LINE
  5
17D
330
17
100
AcDbEntity
  8
TOP
100
AcDbLine
 10
19.166666666666668
 20
112.95180722891567
 30
0.0
 11
21.98
 21
111.32431852552077
 31
0.0
  0
LINE
  5
17E
330
17
100
AcDbEntity
  8
TOP
100
AcDbLine
 10
2.5
 20
114.87951807228916
 30
0.0
 11
5.3133333333333335
 21
113.25202936889427
 31
0.0
  0
LINE
  5
17F
330
17
100
AcDbEntity
  8
TOP
100
AcDbLine
 10
6.3533333333333335
 20
113.25202936889427
 30
0.0
 11
9.166666666666668
 21
114.87951807228916
 31
0.0
  0
LINE
  5
180
330
17
100
AcDbEntity
  8
TOP
100
AcDbLine
 10
9.166666666666668
 20
114.87951807228916
 30
0.0
 11
11.98
 21
113.25202936889427
 31
0.0
  0
LINE
  5
181
330
17
100
AcDbEntity
  8
TOP
100
AcDbLine
 10
13.02
 20
113.25202936889427
 30
0.0
 11
15.833333333333334
 21
114.87951807228916
 31
0.0
  0
LINE
  5
182
330
17
100
AcDbEntity
  8
TOP
100
AcDbLine
 10
15.833333333333334
 20
114.87951807228916
 30
0.0
 11
18.64666666666667
 21
113.25202936889427
 31
0.0
  0
LINE
  5
183
330
17
100
AcDbEntity
  8
TOP
100
AcDbLine
 10
19.686666666666667
 20
113.25202936889427
 30
0.0
 11
22.5
 21
114.87951807228916
 31
0.0
  0
LINE
  5
184
330
17
100
AcDbEntity
  8
TOP
100
AcDbLine
 10
3.02
 20
115.17974021226776
 30
0.0
 11
5.833333333333334
 21
116.80722891566265
 31
0.0
  0
LINE
  5
185
330
17
100
AcDbEntity
  8
TOP
100
AcDbLine
 10
5.833333333333334
 20
116.80722891566265
 30
0.0
 11
8.646666666666667
 21
115.17974021226776
 31
0.0
  0
LINE
  5
186
330
17
100
AcDbEntity
  8
TOP
100
AcDbLine
 10
9.686666666666667
 20
115.17974021226776
 30
0.0
 11
12.5
 21
116.80722891566265
 31
0.0
  0
LINE
  5
187
330
17
100
AcDbEntity
  8
TOP
100
AcDbLine
 10
12.5
 20
116.80722891566265
 30
0.0
 11
15.313333333333334
 21
115.17974021226776
 31
0.0
  0
LINE
  5
188
330
17
100
AcDbEntity
  8
TOP
100
AcDbLine
 10
16.35333333333333
 20
115.17974021226776
 30
0.0
 11
19.166666666666668
 21
116.80722891566265
 31
0.0
  0
LINE
  5
189
330
17
100
AcDbEntity
  8
TOP
100
AcDbLine
 10
19.166666666666668
 20
116.80722891566265
 30
0.0
 11
21.98
 21
115.17974021226776
 31
0.0
  0
LINE
  5
18A
330
17
100
AcDbEntity
  8
TOP
100
AcDbLine
 10
2.5
 20
118.73493975903614
 30
0.0
 11
5.3133333333333335
 21
117.10745105564125
 31
0.0
  0
LINE
  5
18B
330
17
100
AcDbEntity
  8
TOP
100
AcDbLine
 10
6.3533333333333335
 20
117.10745105564125
 30
0.0
 11
9.166666666666668
 21
118.73493975903614
 31
0.0
  0
LINE
  5
18C
330
17
100
AcDbEntity
  8
TOP
100
AcDbLine
 10
9.166666666666668
 20
118.73493975903614
 30
0.0
 11
11.98
 21
117.10745105564125
 31
0.0
  0
LINE
  5
18D
330
17
100
AcDbEntity
  8
TOP
100
AcDbLine
 10
13.02
 20
117.10745105564125
 30
0.0
 11
15.833333333333334
 21
118.73493975903614
 31
0.0
  0
LINE
  5
18E
330
17
100
AcDbEntity
  8
TOP
100
AcDbLine
 10
15.833333333333334
 20
118.73493975903614
 30
0.0
 11
18.64666666666667
 21
117.10745105564125
 31
0.0
  0
LINE
  5
18F
330
17
100
AcDbEntity
  8
TOP
100
AcDbLine
 10
19.686666666666667
 20
117.10745105564125
 30
0.0
 11
22.5
 21
118.73493975903614
 31
0.0
  0
LINE
  5
190
330
17
100
AcDbEntity
  8
TOP
100
AcDbLine
 10
3.02
 20
119.03516189901474
 30
0.0
 11
5.833333333333334
 21
120.66265060240964
 31
0.0
  0
LINE
  5
191
330
17
100
AcDbEntity
  8
TOP
100
AcDbLine
 10
5.833333333333334
 20
120.66265060240964
 30
0.0
 11
8.646666666666667
 21
119.03516189901474
 31
0.0
  0
LINE
  5
192
330
17
100
AcDbEntity
  8
TOP
100
AcDbLine
 10
9.686666666666667
 20
119.03516189901474
 30
0.0
 11
12.5
 21
120.66265060240964
 31
0.0
  0
LINE
  5
193
330
17
100
AcDbEntity
  8
TOP
100
AcDbLine
 10
12.5
 20
120.66265060240964
 30
0.0
 11
15.313333333333334
 21
119.03516189901474
 31
0.0
  0
LINE
  5
194
330
17
100
AcDbEntity
  8
TOP
100
AcDbLine
 10
16.35333333333333
 20
119.03516189901474
 30
0.0
 11
19.166666666666668
 21
120.66265060240964
 31
0.0
  0
LINE
  5
195
330
17
100
AcDbEntity
  8
TOP
100
AcDbLine
 10
19.166666666666668
 20
120.66265060240964
 30
0.0
 11
21.98
 21
119.03516189901474
 31
0.0
  0
LINE
  5
196
330
17
100
AcDbEntity
  8
TOP
100
AcDbLine
 10
2.5
 20
122.59036144578313
 30
0.0
 11
5.3133333333333335
 21
120.96287274238824
 31
0.0
  0
LINE
  5
197
330
17
100
AcDbEntity
  8
TOP
100
AcDbLine
 10
6.3533333333333335
 20
120.96287274238824
 30
0.0
 11
9.166666666666668
 21
122.59036144578313
 31
0.0
  0
LINE
  5
198
330
17
100
AcDbEntity
  8
TOP
100
AcDbLine
 10
9.166666666666668
 20
122.59036144578313
 30
0.0
 11
11.98
 21
120.96287274238824
 31
0.0
  0
LINE
  5
199
330
17
100
AcDbEntity
  8
TOP
100
AcDbLine
 10
13.02
 20
120.96287274238824
 30
0.0
 11
15.833333333333334
 21
122.59036144578313
 31
0.0
  0
LINE
  5
19A
330
17
100
AcDbEntity
  8
TOP
100
AcDbLine
 10
15.833333333333334
 20
122.59036144578313
 30
0.0
 11
18.64666666666667
 21
120.96287274238824
 31
0.0
  0
LINE
  5
19B
330
17
100
AcDbEntity
  8
TOP
100
AcDbLine
 10
19.686666666666667
 20
120.96287274238824
 30
0.0
 11
22.5
 21
122.59036144578313
 31
0.0
  0
LINE
  5
19C
330
17
100
AcDbEntity
  8
TOP
100
AcDbLine
 10
3.02
 20
122.89058358576173
 30
0.0
 11
5.833333333333334
 21
124.51807228915662
 31
0.0
  0
LINE
  5
19D
330
17
100
AcDbEntity
  8
TOP
100
AcDbLine
 10
5.833333333333334
 20
124.51807228915662
 30
0.0
 11
8.646666666666667
 21
122.89058358576173
 31
0.0
  0
LINE
  5
19E
330
17
100
AcDbEntity
  8
TOP
100
AcDbLine
 10
9.686666666666667
 20
122.89058358576173
 30
0.0
 11
12.5
 21
124.51807228915662
 31
0.0
  0
LINE
  5
19F
330
17
100
AcDbEntity
  8
TOP
100
AcDbLine
 10
12.5
 20
124.51807228915662
 30
0.0
 11
15.313333333333334
 21
122.89058358576173
 31
0.0
  0
LINE
  5
1A0
330
17
100
AcDbEntity
  8
TOP
100
AcDbLine
 10
16.35333333333333
 20
122.89058358576173
 30
0.0
 11
19.166666666666668
 21
124.51807228915662
 31
0.0
  0
LINE
  5
1A1
330
17
100
AcDbEntity
  8
TOP
100
AcDbLine
 10
19.166666666666668
 20
124.51807228915662
 30
0.0
 11
21.98
 21
122.89058358576173
 31
0.0
  0
LINE
  5
1A2
330
17
100
AcDbEntity
  8
TOP
100
AcDbLine
 10
2.5
 20
126.44578313253012
 30
0.0
 11
5.3133333333333335
 21
124.81829442913522
 31
0.0
  0
LINE
  5
1A3
330
17
100
AcDbEntity
  8
TOP
100
AcDbLine
 10
6.3533333333333335
 20
124.81829442913522
 30
0.0
 11
9.166666666666668
 21
126.44578313253012
 31
0.0
  0
LINE
  5
1A4
330
17
100
AcDbEntity
  8
TOP
100
AcDbLine
 10
9.166666666666668
 20
126.44578313253012
 30
0.0
 11
11.98
 21
124.81829442913522
 31
0.0
  0
LINE
  5
1A5
330
17
100
AcDbEntity
  8
TOP
100
AcDbLine
 10
13.02
 20
124.81829442913522
 30
0.0
 11
15.833333333333334
 21
126.44578313253012
 31
0.0
  0
LINE
  5
1A6
330
17
100
AcDbEntity
  8
TOP
100
AcDbLine
 10
15.833333333333334
 20
126.44578313253012
 30
0.0
 11
18.64666666666667
 21
124.81829442913522
 31
0.0
  0
LINE
  5
1A7
330
17
100
AcDbEntity
  8
TOP
100
AcDbLine
 10
19.686666666666667
 20
124.81829442913522
 30
0.0
 11
22.5
 21
126.44578313253012
 31
0.0
  0
LINE
  5
1A8
330
17
100
AcDbEntity
  8
TOP
100
AcDbLine
 10
3.02
 20
126.74600527250873
 30
0.0
 11
5.833333333333334
 21
128.3734939759036
 31
0.0
  0
LINE
  5
1A9
330
17
100
AcDbEntity
  8
TOP
100
AcDbLine
 10
5.833333333333334
 20
128.3734939759036
 30
0.0
 11
8.646666666666667
 21
126.74600527250873
 31
0.0
  0
LINE
  5
1AA
330
17
100
AcDbEntity
  8
TOP
100
AcDbLine
 10
9.686666666666667
 20
126.74600527250873
 30
0.0
 11
12.5
 21
128.3734939759036
 31
0.0
  0
LINE
  5
1AB
330
17
100
AcDbEntity
  8
TOP
100
AcDbLine
 10
12.5
 20
128.3734939759036
 30
0.0
 11
15.313333333333334
 21
126.74600527250873
 31
0.0
  0
LINE
  5
1AC
330
17
100
AcDbEntity
  8
TOP
100
AcDbLine
 10
16.35333333333333
 20
126.74600527250873
 30
0.0
 11
19.166666666666668
 21
128.3734939759036
 31
0.0
  0
LINE
  5
1AD
330
17
100
AcDbEntity
  8
TOP
100
AcDbLine
 10
19.166666666666668
 20
128.3734939759036
 30
0.0
 11
21.98
 21
126.74600527250873
 31
0.0
  0
LINE
  5
1AE
330
17
100
AcDbEntity
  8
TOP
100
AcDbLine
 10
2.5
 20
130.3012048192771
 30
0.0
 11
5.3133333333333335
 21
128.6737161158822
 31
0.0
  0
LINE
  5
1AF
330
17
100
AcDbEntity
  8
TOP
100
AcDbLine
 10
6.3533333333333335
 20
128.6737161158822
 30
0.0
 11
9.166666666666668
 21
130.3012048192771
 31
0.0
  0
LINE
  5
1B0
330
17
100
AcDbEntity
  8
TOP
100
AcDbLine
 10
9.166666666666668
 20
130.3012048192771
 30
0.0
 11
11.98
 21
128.6737161158822
 31
0.0
  0
LINE
  5
1B1
330
17
100
AcDbEntity
  8
TOP
100
AcDbLine
 10
13.02
 20
128.6737161158822
 30
0.0
 11
15.833333333333334
 21
130.3012048192771
 31
0.0
  0
LINE
  5
1B2
330
17
100
AcDbEntity
  8
TOP
100
AcDbLine
 10
15.833333333333334
 20
130.3012048192771
 30
0.0
 11
18.64666666666667
 21
128.6737161158822
 31
0.0
  0
LINE
  5
1B3
330
17
100
AcDbEntity
  8
TOP
100
AcDbLine
 10
19.686666666666667
 20
128.6737161158822
 30
0.0
 11
22.5
 21
130.3012048192771
 31
0.0
  0
LINE
  5
1B4
330
17
100
AcDbEntity
  8
TOP
100
AcDbLine
 10
3.02
 20
130.60142695925572
 30
0.0
 11
5.833333333333334
 21
132.2289156626506
 31
0.0
  0
LINE
  5
1B5
330
17
100
AcDbEntity
  8
TOP
100
AcDbLine
 10
5.833333333333334
 20
132.2289156626506
 30
0.0
 11
8.646666666666667
 21
130.60142695925572
 31
0.0
  0
LINE
  5
1B6
330
17
100
AcDbEntity
  8
TOP
100
AcDbLine
 10
9.686666666666667
 20
130.60142695925572
 30
0.0
 11
12.5
 21
132.2289156626506
 31
0.0
  0
LINE
  5
1B7
330
17
100
AcDbEntity
  8
TOP
100
AcDbLine
 10
12.5
 20
132.2289156626506
 30
0.0
 11
15.313333333333334
 21
130.60142695925572
 31
0.0
  0
LINE
  5
1B8
330
17
100
AcDbEntity
  8
TOP
100
AcDbLine
 10
16.35333333333333
 20
130.60142695925572
 30
0.0
 11
19.166666666666668
 21
132.2289156626506
 31
0.0
  0
LINE
  5
1B9
330
17
100
AcDbEntity
  8
TOP
100
AcDbLine
 10
19.166666666666668
 20
132.2289156626506
 30
0.0
 11
21.98
 21
130.60142695925572
 31
0.0
  0
LINE
  5
1BA
330
17
100
AcDbEntity
  8
TOP
100
AcDbLine
 10
2.5
 20
134.15662650602408
 30
0.0
 11
5.3133333333333335
 21
132.5291378026292
 31
0.0
  0
LINE
  5
1BB
330
17
100
AcDbEntity
  8
TOP
100
AcDbLine
 10
6.3533333333333335
 20
132.5291378026292
 30
0.0
 11
9.166666666666668
 21
134.15662650602408
 31
0.0
  0
LINE
  5
1BC
330
17
100
AcDbEntity
  8
TOP
100
AcDbLine
 10
9.166666666666668
 20
134.15662650602408
 30
0.0
 11
11.98
 21
132.5291378026292
 31
0.0
  0
LINE
  5
1BD
330
17
100
AcDbEntity
  8
TOP
100
AcDbLine
 10
13.02
 20
132.5291378026292
 30
0.0
 11
15.833333333333334
 21
134.15662650602408
 31
0.0
  0
LINE
  5
1BE
330
17
100
AcDbEntity
  8
TOP
100
AcDbLine
 10
15.833333333333334
 20
134.15662650602408
 30
0.0
 11
18.64666666666667
 21
132.5291378026292
 31
0.0
  0
LINE
  5
1BF
330
17
100
AcDbEntity
  8
TOP
100
AcDbLine
 10
19.686666666666667
 20
132.5291378026292
 30
0.0
 11
22.5
 21
134.15662650602408
 31
0.0
  0
LINE
  5
1C0
330
17
100
AcDbEntity
  8
TOP
100
AcDbLine
 10
3.02
 20
134.4568486460027
 30
0.0
 11
5.833333333333334
 21
136.0843373493976
 31
0.0
  0
LINE
  5
1C1
330
17
100
AcDbEntity
  8
TOP
100
AcDbLine
 10
5.833333333333334
 20
136.0843373493976
 30
0.0
 11
8.646666666666667
 21
134.4568486460027
 31
0.0
  0
LINE
  5
1C2
330
17
100
AcDbEntity
  8
TOP
100
AcDbLine
 10
9.686666666666667
 20
134.4568486460027
 30
0.0
 11
12.5
 21
136.0843373493976
 31
0.0
  0
LINE
  5
1C3
330
17
100
AcDbEntity
  8
TOP
100
AcDbLine
 10
12.5
 20
136.0843373493976
 30
0.0
 11
15.313333333333334
 21
134.4568486460027
 31
0.0
  0
LINE
  5
1C4
330
17
100
AcDbEntity
  8
TOP
100
AcDbLine
 10
16.35333333333333
 20
134.4568486460027
 30
0.0
 11
19.166666666666668
 21
136.0843373493976
 31
0.0
  0
LINE
  5
1C5
330
17
100
AcDbEntity
  8
TOP
100
AcDbLine
 10
19.166666666666668
 20
136.0843373493976
 30
0.0
 11
21.98
 21
134.4568486460027
 31
0.0
  0
LINE
  5
1C6
330
17
100
AcDbEntity
  8
TOP
100
AcDbLine
 10
2.5
 20
138.0120481927711
 30
0.0
 11
5.3133333333333335
 21
136.38455948937622
 31
0.0
  0
LINE
  5
1C7
330
17
100
AcDbEntity
  8
TOP
100
AcDbLine
 10
6.3533333333333335
 20
136.38455948937622
 30
0.0
 11
9.166666666666668
 21
138.0120481927711
 31
0.0
  0
LINE
  5
1C8
330
17
100
AcDbEntity
  8
TOP
100
AcDbLine
 10
9.166666666666668
 20
138.0120481927711
 30
0.0
 11
11.98
 21
136.38455948937622
 31
0.0
  0
LINE
  5
1C9
330
17
100
AcDbEntity
  8
TOP
100
AcDbLine
 10
13.02
 20
136.38455948937622
 30
0.0
 11
15.833333333333334
 21
138.0120481927711
 31
0.0
  0
LINE
  5
1CA
330
17
100
AcDbEntity
  8
TOP
100
AcDbLine
 10
15.833333333333334
 20
138.0120481927711
 30
0.0
 11
18.64666666666667
 21
136.38455948937622
 31
0.0
  0
LINE
  5
1CB
330
17
100
AcDbEntity
  8
TOP
100
AcDbLine
 10
19.686666666666667
 20
136.38455948937622
 30
0.0
 11
22.5
 21
138.0120481927711
 31
0.0
  0
LINE
  5
1CC
330
17
100
AcDbEntity
  8
TOP
100
AcDbLine
 10
3.02
 20
138.3122703327497
 30
0.0
 11
5.833333333333334
 21
139.93975903614458
 31
0.0
  0
LINE
  5
1CD
330
17
100
AcDbEntity
  8
TOP
100
AcDbLine
 10
5.833333333333334
 20
139.93975903614458
 30
0.0
 11
8.646666666666667
 21
138.3122703327497
 31
0.0
  0
LINE
  5
1CE
330
17
100
AcDbEntity
  8
TOP
100
AcDbLine
 10
9.686666666666667
 20
138.3122703327497
 30
0.0
 11
12.5
 21
139.93975903614458
 31
0.0
  0
LINE
  5
1CF
330
17
100
AcDbEntity
  8
TOP
100
AcDbLine
 10
12.5
 20
139.93975903614458
 30
0.0
 11
15.313333333333334
 21
138.3122703327497
 31
0.0
  0
LINE
  5
1D0
330
17
100
AcDbEntity
  8
TOP
100
AcDbLine
 10
16.35333333333333
 20
138.3122703327497
 30
0.0
 11
19.166666666666668
 21
139.93975903614458
 31
0.0
  0
LINE
  5
1D1
330
17
100
AcDbEntity
  8
TOP
100
AcDbLine
 10
19.166666666666668
 20
139.93975903614458
 30
0.0
 11
21.98
 21
138.3122703327497
 31
0.0
  0
LINE
  5
1D2
330
17
100
AcDbEntity
  8
TOP
100
AcDbLine
 10
2.5
 20
141.86746987951807
 30
0.0
 11
5.3133333333333335
 21
140.2399811761232
 31
0.0
  0
LINE
  5
1D3
330
17
100
AcDbEntity
  8
TOP
100
AcDbLine
 10
6.3533333333333335
 20
140.2399811761232
 30
0.0
 11
9.166666666666668
 21
141.86746987951807
 31
0.0
  0
LINE
  5
1D4
330
17
100
AcDbEntity
  8
TOP
100
AcDbLine
 10
9.166666666666668
 20
141.86746987951807
 30
0.0
 11
11.98
 21
140.2399811761232
 31
0.0
  0
LINE
  5
1D5
330
17
100
AcDbEntity
  8
TOP
100
AcDbLine
 10
13.02
 20
140.2399811761232
 30
0.0
 11
15.833333333333334
 21
141.86746987951807
 31
0.0
  0
LINE
  5
1D6
330
17
100
AcDbEntity
  8
TOP
100
AcDbLine
 10
15.833333333333334
 20
141.86746987951807
 30
0.0
 11
18.64666666666667
 21
140.2399811761232
 31
0.0
  0
LINE
  5
1D7
330
17
100
AcDbEntity
  8
TOP
100
AcDbLine
 10
19.686666666666667
 20
140.2399811761232
 30
0.0
 11
22.5
 21
141.86746987951807
 31
0.0
  0
LINE
  5
1D8
330
17
100
AcDbEntity
  8
TOP
100
AcDbLine
 10
3.02
 20
142.16769201949668
 30
0.0
 11
5.833333333333334
 21
143.79518072289156
 31
0.0
  0
LINE
  5
1D9
330
17
100
AcDbEntity
  8
TOP
100
AcDbLine
 10
5.833333333333334
 20
143.79518072289156
 30
0.0
 11
8.646666666666667
 21
142.16769201949668
 31
0.0
  0
LINE
  5
1DA
330
17
100
AcDbEntity
  8
TOP
100
AcDbLine
 10
9.686666666666667
 20
142.16769201949668
 30
0.0
 11
12.5
 21
143.79518072289156
 31
0.0
  0
LINE
  5
1DB
330
17
100
AcDbEntity
  8
TOP
100
AcDbLine
 10
12.5
 20
143.79518072289156
 30
0.0
 11
15.313333333333334
 21
142.16769201949668
 31
0.0
  0
LINE
  5
1DC
330
17
100
AcDbEntity
  8
TOP
100
AcDbLine
 10
16.35333333333333
 20
142.16769201949668
 30
0.0
 11
19.166666666666668
 21
143.79518072289156
 31
0.0
  0
LINE
  5
1DD
330
17
100
AcDbEntity
  8
TOP
100
AcDbLine
 10
19.166666666666668
 20
143.79518072289156
 30
0.0
 11
21.98
 21
142.16769201949668
 31
0.0
  0
LINE
  5
1DE
330
17
100
AcDbEntity
  8
TOP
100
AcDbLine
 10
2.5
 20
145.72289156626505
 30
0.0
 11
5.3133333333333335
 21
144.09540286287017
 31
0.0
  0
LINE
  5
1DF
330
17
100
AcDbEntity
  8
TOP
100
AcDbLine
 10
6.3533333333333335
 20
144.09540286287017
 30
0.0
 11
9.166666666666668
 21
145.72289156626505
 31
0.0
  0
LINE
  5
1E0
330
17
100
AcDbEntity
  8
TOP
100
AcDbLine
 10
9.166666666666668
 20
145.72289156626505
 30
0.0
 11
11.98
 21
144.09540286287017
 31
0.0
  0
LINE
  5
1E1
330
17
100
AcDbEntity
  8
TOP
100
AcDbLine
 10
13.02
 20
144.09540286287017
 30
0.0
 11
15.833333333333334
 21
145.72289156626505
 31
0.0
  0
LINE
  5
1E2
330
17
100
AcDbEntity
  8
TOP
100
AcDbLine
 10
15.833333333333334
 20
145.72289156626505
 30
0.0
 11
18.64666666666667
 21
144.09540286287017
 31
0.0
  0
LINE
  5
1E3
330
17
100
AcDbEntity
  8
TOP
100
AcDbLine
 10
19.686666666666667
 20
144.09540286287017
 30
0.0
 11
22.5
 21
145.72289156626505
 31
0.0
  0
LINE
  5
1E4
330
17
100
AcDbEntity
  8
TOP
100
AcDbLine
 10
3.02
 20
146.02311370624366
 30
0.0
 11
5.833333333333334
 21
147.65060240963857
 31
0.0
  0
LINE
  5
1E5
330
17
100
AcDbEntity
  8
TOP
100
AcDbLine
 10
5.833333333333334
 20
147.65060240963857
 30
0.0
 11
8.646666666666667
 21
146.02311370624366
 31
0.0
  0
LINE
  5
1E6
330
17
100
AcDbEntity
  8
TOP
100
AcDbLine
 10
9.686666666666667
 20
146.02311370624366
 30
0.0
 11
12.5
 21
147.65060240963857
 31
0.0
  0
LINE
  5
1E7
330
17
100
AcDbEntity
  8
TOP
100
AcDbLine
 10
12.5
 20
147.65060240963857
 30
0.0
 11
15.313333333333334
 21
146.02311370624366
 31
0.0
  0
LINE
  5
1E8
330
17
100
AcDbEntity
  8
TOP
100
AcDbLine
 10
16.35333333333333
 20
146.02311370624366
 30
0.0
 11
19.166666666666668
 21
147.65060240963857
 31
0.0
  0
LINE
  5
1E9
330
17
100
AcDbEntity
  8
TOP
100
AcDbLine
 10
19.166666666666668
 20
147.65060240963857
 30
0.0
 11
21.98
 21
146.02311370624366
 31
0.0
  0
LINE
  5
1EA
330
17
100
AcDbEntity
  8
TOP
100
AcDbLine
 10
2.5
 20
149.57831325301206
 30
0.0
 11
5.3133333333333335
 21
147.95082454961718
 31
0.0
  0
LINE
  5
1EB
330
17
100
AcDbEntity
  8
TOP
100
AcDbLine
 10
6.3533333333333335
 20
147.95082454961718
 30
0.0
 11
9.166666666666668
 21
149.57831325301206
 31
0.0
  0
LINE
  5
1EC
330
17
100
AcDbEntity
  8
TOP
100
AcDbLine
 10
9.166666666666668
 20
149.57831325301206
 30
0.0
 11
11.98
 21
147.95082454961718
 31
0.0
  0
LINE
  5
1ED
330
17
100
AcDbEntity
  8
TOP
100
AcDbLine
 10
13.02
 20
147.95082454961718
 30
0.0
 11
15.833333333333334
 21
149.57831325301206
 31
0.0
  0
LINE
  5
1EE
330
17
100
AcDbEntity
  8
TOP
100
AcDbLine
 10
15.833333333333334
 20
149.57831325301206
 30
0.0
 11
18.64666666666667
 21
147.95082454961718
 31
0.0
  0
LINE
  5
1EF
330
17
100
AcDbEntity
  8
TOP
100
AcDbLine
 10
19.686666666666667
 20
147.95082454961718
 30
0.0
 11
22.5
 21
149.57831325301206
 31
0.0
  0
LINE
  5
1F0
330
17
100
AcDbEntity
  8
TOP
100
AcDbLine
 10
3.02
 20
149.87853539299067
 30
0.0
 11
5.833333333333334
 21
151.50602409638554
 31
0.0
  0
LINE
  5
1F1
330
17
100
AcDbEntity
  8
TOP
100
AcDbLine
 10
5.833333333333334
 20
151.50602409638554
 30
0.0
 11
8.646666666666667
 21
149.87853539299067
 31
0.0
  0
LINE
  5
1F2
330
17
100
AcDbEntity
  8
TOP
100
AcDbLine
 10
9.686666666666667
 20
149.87853539299067
 30
0.0
 11
12.5
 21
151.50602409638554
 31
0.0
  0
LINE
  5
1F3
330
17
100
AcDbEntity
  8
TOP
100
AcDbLine
 10
12.5
 20
151.50602409638554
 30
0.0
 11
15.313333333333334
 21
149.87853539299067
 31
0.0
  0
LINE
  5
1F4
330
17
100
AcDbEntity
  8
TOP
100
AcDbLine
 10
16.35333333333333
 20
149.87853539299067
 30
0.0
 11
19.166666666666668
 21
151.50602409638554
 31
0.0
  0
LINE
  5
1F5
330
17
100
AcDbEntity
  8
TOP
100
AcDbLine
 10
19.166666666666668
 20
151.50602409638554
 30
0.0
 11
21.98
 21
149.87853539299067
 31
0.0
  0
LINE
  5
1F6
330
17
100
AcDbEntity
  8
TOP
100
AcDbLine
 10
2.5
 20
153.43373493975903
 30
0.0
 11
5.3133333333333335
 21
151.80624623636416
 31
0.0
  0
LINE
  5
1F7
330
17
100
AcDbEntity
  8
TOP
100
AcDbLine
 10
6.3533333333333335
 20
151.80624623636416
 30
0.0
 11
9.166666666666668
 21
153.43373493975903
 31
0.0
  0
LINE
  5
1F8
330
17
100
AcDbEntity
  8
TOP
100
AcDbLine
 10
9.166666666666668
 20
153.43373493975903
 30
0.0
 11
11.98
 21
151.80624623636416
 31
0.0
  0
LINE
  5
1F9
330
17
100
AcDbEntity
  8
TOP
100
AcDbLine
 10
13.02
 20
151.80624623636416
 30
0.0
 11
15.833333333333334
 21
153.43373493975903
 31
0.0
  0
LINE
  5
1FA
330
17
100
AcDbEntity
  8
TOP
100
AcDbLine
 10
15.833333333333334
 20
153.43373493975903
 30
0.0
 11
18.64666666666667
 21
151.80624623636416
 31
0.0
  0
LINE
  5
1FB
330
17
100
AcDbEntity
  8
TOP
100
AcDbLine
 10
19.686666666666667
 20
151.80624623636416
 30
0.0
 11
22.5
 21
153.43373493975903
 31
0.0
  0
LINE
  5
1FC
330
17
100
AcDbEntity
  8
TOP
100
AcDbLine
 10
3.02
 20
153.73395707973765
 30
0.0
 11
5.833333333333334
 21
155.36144578313252
 31
0.0
  0
LINE
  5
1FD
330
17
100
AcDbEntity
  8
TOP
100
AcDbLine
 10
5.833333333333334
 20
155.36144578313252
 30
0.0
 11
8.646666666666667
 21
153.73395707973765
 31
0.0
  0
LINE
  5
1FE
330
17
100
AcDbEntity
  8
TOP
100
AcDbLine
 10
9.686666666666667
 20
153.73395707973765
 30
0.0
 11
12.5
 21
155.36144578313252
 31
0.0
  0
LINE
  5
1FF
330
17
100
AcDbEntity
  8
TOP
100
AcDbLine
 10
12.5
 20
155.36144578313252
 30
0.0
 11
15.313333333333334
 21
153.73395707973765
 31
0.0
  0
LINE
  5
200
330
17
100
AcDbEntity
  8
TOP
100
AcDbLine
 10
16.35333333333333
 20
153.73395707973765
 30
0.0
 11
19.166666666666668
 21
155.36144578313252
 31
0.0
  0
LINE
  5
201
330
17
100
AcDbEntity
  8
TOP
100
AcDbLine
 10
19.166666666666668
 20
155.36144578313252
 30
0.0
 11
21.98
 21
153.73395707973765
 31
0.0
  0
LINE
  5
202
330
17
100
AcDbEntity
  8
TOP
100
AcDbLine
 10
2.5
 20
157.289156626506
 30
0.0
 11
5.3133333333333335
 21
155.66166792311114
 31
0.0
  0
LINE
  5
203
330
17
100
AcDbEntity
  8
TOP
100
AcDbLine
 10
6.3533333333333335
 20
155.66166792311114
 30
0.0
 11
9.166666666666668
 21
157.289156626506
 31
0.0
  0
LINE
  5
204
330
17
100
AcDbEntity
  8
TOP
100
AcDbLine
 10
9.166666666666668
 20
157.289156626506
 30
0.0
 11
11.98
 21
155.66166792311114
 31
0.0
  0
LINE
  5
205
330
17
100
AcDbEntity
  8
TOP
100
AcDbLine
 10
13.02
 20
155.66166792311114
 30
0.0
 11
15.833333333333334
 21
157.289156626506
 31
0.0
  0
LINE
  5
206
330
17
100
AcDbEntity
  8
TOP
100
AcDbLine
 10
15.833333333333334
 20
157.289156626506
 30
0.0
 11
18.64666666666667
 21
155.66166792311114
 31
0.0
  0
LINE
  5
207
330
17
100
AcDbEntity
  8
TOP
100
AcDbLine
 10
19.686666666666667
 20
155.66166792311114
 30
0.0
 11
22.5
 21
157.289156626506
 31
0.0
  0
LINE
  5
208
330
17
100
AcDbEntity
  8
TOP
100
AcDbLine
 10
3.02
 20
157.58937876648463
 30
0.0
 11
5.833333333333334
 21
159.2168674698795
 31
0.0
  0
LINE
  5
209
330
17
100
AcDbEntity
  8
TOP
100
AcDbLine
 10
5.833333333333334
 20
159.2168674698795
 30
0.0
 11
8.646666666666667
 21
157.58937876648463
 31
0.0
  0
LINE
  5
20A
330
17
100
AcDbEntity
  8
TOP
100
AcDbLine
 10
9.686666666666667
 20
157.58937876648463
 30
0.0
 11
12.5
 21
159.2168674698795
 31
0.0
  0
LINE
  5
20B
330
17
100
AcDbEntity
  8
TOP
100
AcDbLine
 10
12.5
 20
159.2168674698795
 30
0.0
 11
15.313333333333334
 21
157.58937876648463
 31
0.0
  0
LINE
  5
20C
330
17
100
AcDbEntity
  8
TOP
100
AcDbLine
 10
16.35333333333333
 20
157.58937876648463
 30
0.0
 11
19.166666666666668
 21
159.2168674698795
 31
0.0
  0
LINE
  5
20D
330
17
100
AcDbEntity
  8
TOP
100
AcDbLine
 10
19.166666666666668
 20
159.2168674698795
 30
0.0
 11
21.98
 21
157.58937876648463
 31
0.0
  0
LINE
  5
20E
330
17
100
AcDbEntity
  8
TOP
100
AcDbLine
 10
2.5
 20
161.14457831325302
 30
0.0
 11
5.3133333333333335
 21
159.51708960985812
 31
0.0
  0
LINE
  5
20F
330
17
100
AcDbEntity
  8
TOP
100
AcDbLine
 10
6.3533333333333335
 20
159.51708960985812
 30
0.0
 11
9.166666666666668
 21
161.14457831325302
 31
0.0
  0
LINE
  5
210
330
17
100
AcDbEntity
  8
TOP
100
AcDbLine
 10
9.166666666666668
 20
161.14457831325302
 30
0.0
 11
11.98
 21
159.51708960985812
 31
0.0
  0
LINE
  5
211
330
17
100
AcDbEntity
  8
TOP
100
AcDbLine
 10
13.02
 20
159.51708960985812
 30
0.0
 11
15.833333333333334
 21
161.14457831325302
 31
0.0
  0
LINE
  5
212
330
17
100
AcDbEntity
  8
TOP
100
AcDbLine
 10
15.833333333333334
 20
161.14457831325302
 30
0.0
 11
18.64666666666667
 21
159.51708960985812
 31
0.0
  0
LINE
  5
213
330
17
100
AcDbEntity
  8
TOP
100
AcDbLine
 10
19.686666666666667
 20
159.51708960985812
 30
0.0
 11
22.5
 21
161.14457831325302
 31
0.0
  0
LINE
  5
214
330
17
100
AcDbEntity
  8
TOP
100
AcDbLine
 10
3.02
 20
161.44480045323164
 30
0.0
 11
5.833333333333334
 21
163.0722891566265
 31
0.0
  0
LINE
  5
215
330
17
100
AcDbEntity
  8
TOP
100
AcDbLine
 10
5.833333333333334
 20
163.0722891566265
 30
0.0
 11
8.646666666666667
 21
161.44480045323164
 31
0.0
  0
LINE
  5
216
330
17
100
AcDbEntity
  8
TOP
100
AcDbLine
 10
9.686666666666667
 20
161.44480045323164
 30
0.0
 11
12.5
 21
163.0722891566265
 31
0.0
  0
LINE
  5
217
330
17
100
AcDbEntity
  8
TOP
100
AcDbLine
 10
12.5
 20
163.0722891566265
 30
0.0
 11
15.313333333333334
 21
161.44480045323164
 31
0.0
  0
LINE
  5
218
330
17
100
AcDbEntity
  8
TOP
100
AcDbLine
 10
16.35333333333333
 20
161.44480045323164
 30
0.0
 11
19.166666666666668
 21
163.0722891566265
 31
0.0
  0
LINE
  5
219
330
17
100
AcDbEntity
  8
TOP
100
AcDbLine
 10
19.166666666666668
 20
163.0722891566265
 30
0.0
 11
21.98
 21
161.44480045323164
 31
0.0
  0
LINE
  5
21A
330
17
100
AcDbEntity
  8
TOP
100
AcDbLine
 10
2.5
 20
165.0
 30
0.0
 11
5.3133333333333335
 21
163.37251129660513
 31
0.0
  0
LINE
  5
21B
330
17
100
AcDbEntity
  8
TOP
100
AcDbLine
 10
6.3533333333333335
 20
163.37251129660513
 30
0.0
 11
9.166666666666668
 21
165.0
 31
0.0
  0
LINE
  5
21C
330
17
100
AcDbEntity
  8
TOP
100
AcDbLine
 10
9.166666666666668
 20
165.0
 30
0.0
 11
11.98
 21
163.37251129660513
 31
0.0
  0
LINE
  5
21D
330
17
100
AcDbEntity
  8
TOP
100
AcDbLine
 10
13.02
 20
163.37251129660513
 30
0.0
 11
15.833333333333334
 21
165.0
 31
0.0
  0
LINE
  5
21E
330
17
100
AcDbEntity
  8
TOP
100
AcDbLine
 10
15.833333333333334
 20
165.0
 30
0.0
 11
18.64666666666667
 21
163.37251129660513
 31
0.0
  0
LINE
  5
21F
330
17
100
AcDbEntity
  8
TOP
100
AcDbLine
 10
19.686666666666667
 20
163.37251129660513
 30
0.0
 11
22.5
 21
165.0
 31
0.0
  0
POLYLINE
  5
220
330
17
100
AcDbEntity
  8
TOP
100
AcDb2dPolyline
 66
1
 10
0.0
 20
0.0
 30
0.0
 70
1
  0
VERTEX
  5
222
330
17
100
AcDbEntity
  8
TOP
100
AcDbVertex
100
AcDb2dVertex
 10
0.0
 20
0.0
 30
0.0
 70
0
  0
VERTEX
  5
223
330
17
100
AcDbEntity
  8
TOP
100
AcDbVertex
100
AcDb2dVertex
 10
0.0
 20
170.0
 30
0.0
 70
0
  0
VERTEX
  5
224
330
17
100
AcDbEntity
  8
TOP
100
AcDbVertex
100
AcDb2dVertex
 10
25.0
 20
170.0
 30
0.0
 70
0
  0
VERTEX
  5
225
330
17
100
AcDbEntity
  8
TOP
100
AcDbVertex
100
AcDb2dVertex
 10
25.0
 20
0.0
 30
0.0
 70
0
  0
SEQEND
  5
221
330
17
100
AcDbEntity
  8
TOP
  0
ENDSEC
  0
SECTION
  2
OBJECTS
  0
DICTIONARY
  5
A
330
0
100
AcDbDictionary
281
1
  3
ACAD_COLOR
350
B
  3
ACAD_GROUP
350
C
  3
ACAD_LAYOUT
350
D
  3
ACAD_MATERIAL
350
E
  3
ACAD_MLEADERSTYLE
350
F
  3
ACAD_MLINESTYLE
350
10
  3
ACAD_PLOTSETTINGS
350
11
  3
ACAD_PLOTSTYLENAME
350
12
  3
ACAD_SCALELIST
350
14
  3
ACAD_TABLESTYLE
350
15
  3
ACAD_VISUALSTYLE
350
16
  0
DICTIONARY
  5
B
330
A
100
AcDbDictionary
281
1
  0
DICTIONARY
  5
C
330
A
100
AcDbDictionary
281
1
  0
DICTIONARY
  5
D
330
A
100
AcDbDictionary
281
1
  3
Model
350
1A
  3
Layout1
350
1E
  0
DICTIONARY
  5
E
330
A
100
AcDbDictionary
281
1
  3
ByBlock
350
1F
  3
ByLayer
350
20
  3
Global
350
21
  0
DICTIONARY
  5
F
330
A
100
AcDbDictionary
281
1
  3
Standard
350
2C
  0
DICTIONARY
  5
10
330
A
100
AcDbDictionary
281
1
  3
Standard
350
22
  0
DICTIONARY
  5
11
330
A
100
AcDbDictionary
281
1
  0
ACDBDICTIONARYWDFLT
  5
12
330
A
100
AcDbDictionary
281
1
  3
Normal
350
13
100
AcDbDictionaryWithDefault
340
13
  0
ACDBPLACEHOLDER
  5
13
330
12
  0
DICTIONARY
  5
14
330
A
100
AcDbDictionary
281
1
  0
DICTIONARY
  5
15
330
A
100
AcDbDictionary
281
1
  0
DICTIONARY
  5
16
330
A
100
AcDbDictionary
281
1
  0
LAYOUT
  5
1A
330
D
100
AcDbPlotSettings
  1

  2
Adobe PDF
  4
A3
  6

 40
7.5
 41
20.0
 42
7.5
 43
20.0
 44
420.0
 45
297.0
 46
0.0
 47
0.0
 48
0.0
 49
0.0
140
0.0
141
0.0
142
1.0
143
1.0
 70
1024
 72
1
 73
1
 74
5
  7

 75
16
 76
0
 77
2
 78
300
147
1.0
148
0.0
149
0.0
100
AcDbLayout
  1
Model
 70
1
 71
0
 10
0.0
 20
0.0
 11
420.0
 21
297.0
 12
0.0
 22
0.0
 32
0.0
 14
1e+20
 24
1e+20
 34
1e+20
 15
-1e+20
 25
-1e+20
 35
-1e+20
146
0.0
 13
0.0
 23
0.0
 33
0.0
 16
1.0
 26
0.0
 36
0.0
 17
0.0
 27
1.0
 37
0.0
 76
1
330
17
  0
LAYOUT
  5
1E
330
D
100
AcDbPlotSettings
  1

  2
Adobe PDF
  4
A3
  6

 40
7.5
 41
20.0
 42
7.5
 43
20.0
 44
420.0
 45
297.0
 46
0.0
 47
0.0
 48
0.0
 49
0.0
140
0.0
141
0.0
142
1.0
143
1.0
 70
0
 72
1
 73
1
 74
5
  7

 75
16
 76
0
 77
2
 78
300
147
1.0
148
0.0
149
0.0
100
AcDbLayout
  1
Layout1
 70
1
 71
1
 10
0.0
 20
0.0
 11
420.0
 21
297.0
 12
0.0
 22
0.0
 32
0.0
 14
1e+20
 24
1e+20
 34
1e+20
 15
-1e+20
 25
-1e+20
 35
-1e+20
146
0.0
 13
0.0
 23
0.0
 33
0.0
 16
1.0
 26
0.0
 36
0.0
 17
0.0
 27
1.0
 37
0.0
 76
1
330
1B
  0
MATERIAL
  5
1F
102
{ACAD_REACTORS
330
E
102
}
330
E
100
AcDbMaterial
  1
ByBlock
  2

 70
0
 40
1.0
 71
1
 41
1.0
 91
-1023410177
 42
1.0
 72
1
  3

 73
1
 74
1
 75
1
 44
0.5
 73
0
 45
1.0
 46
1.0
 77
1
  4

 78
1
 79
1
170
1
 48
1.0
171
1
  6

172
1
173
1
174
1
140
1.0
141
1.0
175
1
  7

176
1
177
1
178
1
143
1.0
179
1
  8

270
1
271
1
272
1
145
1.0
146
1.0
273
1
  9

274
1
275
1
276
1
 42
1.0
 72
1
  3

 73
1
 74
1
 75
1
 94
63
  0
MATERIAL
  5
20
102
{ACAD_REACTORS
330
E
102
}
330
E
100
AcDbMaterial
  1
ByLayer
  2

 70
0
 40
1.0
 71
1
 41
1.0
 91
-1023410177
 42
1.0
 72
1
  3

 73
1
 74
1
 75
1
 44
0.5
 73
0
 45
1.0
 46
1.0
 77
1
  4

 78
1
 79
1
170
1
 48
1.0
171
1
  6

172
1
173
1
174
1
140
1.0
141
1.0
175
1
  7

176
1
177
1
178
1
143
1.0
179
1
  8

270
1
271
1
272
1
145
1.0
146
1.0
273
1
  9

274
1
275
1
276
1
 42
1.0
 72
1
  3

 73
1
 74
1
 75
1
 94
63
  0
MATERIAL
  5
21
102
{ACAD_REACTORS
330
E
102
}
330
E
100
AcDbMaterial
  1
Global
  2

 70
0
 40
1.0
 71
1
 41
1.0
 91
-1023410177
 42
1.0
 72
1
  3

 73
1
 74
1
 75
1
 44
0.5
 73
0
 45
1.0
 46
1.0
 77
1
  4

 78
1
 79
1
170
1
 48
1.0
171
1
  6

172
1
173
1
174
1
140
1.0
141
1.0
175
1
  7

176
1
177
1
178
1
143
1.0
179
1
  8

270
1
271
1
272
1
145
1.0
146
1.0
273
1
  9

274
1
275
1
276
1
 42
1.0
 72
1
  3

 73
1
 74
1
 75
1
 94
63
  0
MLINESTYLE
  5
22
102
{ACAD_REACTORS
330
10
102
}
330
10
100
AcDbMlineStyle
  2
Standard
 70
0
  3

 62
256
 51
90.0
 52
90.0
 71
2
 49
0.5
 62
256
  6
BYLAYER
 49
-0.5
 62
256
  6
BYLAYER
  0
MLEADERSTYLE
  5
2C
102
{ACAD_REACTORS
330
F
102
}
330
F
100
AcDbMLeaderStyle
179
2
170
2
171
1
172
0
 90
2
 40
0.0
 41
0.0
173
1
 91
-1056964608
 92
-2
290
1
 42
2.0
291
1
 43
8.0
  3
Standard
 44
4.0
300

342
29
174
1
175
1
176
0
178
1
 93
-1056964608
 45
4.0
292
0
297
0
 46
4.0
 94
-1056964608
 47
1.0
 49
1.0
140
1.0
294
1
141
0.0
177
0
142
1.0
295
0
296
0
143
3.75
271
0
272
9
273
9
  0
ENDSEC
  0
EOF
