  0
SECTION
  2
HEADER
  9
$ACADVER
  1
AC1024
  9
$ACADMAINTVER
 70
6
  9
$DWGCODEPAGE
  3
ANSI_1252
  9
$LASTSAVEDBY
  1
ezdxf
  9
$INSBASE
 10
0.0
 20
0.0
 30
0.0
  9
$EXTMIN
 10
1e+20
 20
1e+20
 30
1e+20
  9
$EXTMAX
 10
-1e+20
 20
-1e+20
 30
-1e+20
  9
$LIMMIN
 10
0.0
 20
0.0
  9
$LIMMAX
 10
420.0
 20
297.0
  9
$ORTHOMODE
 70
0
  9
$REGENMODE
 70
1
  9
$FILLMODE
 70
1
  9
$QTEXTMODE
 70
0
  9
$MIRRTEXT
 70
1
  9
$LTSCALE
 40
1.0
  9
$ATTMODE
 70
1
  9
$TEXTSIZE
 40
2.5
  9
$TRACEWID
 40
1.0
  9
$TEXTSTYLE
  7
Standard
  9
$CLAYER
  8
0
  9
$CELTYPE
  6
ByLayer
  9
$CECOLOR
 62
256
  9
$CELTSCALE
 40
1.0
  9
$DISPSILH
 70
0
  9
$DIMSCALE
 40
1.0
  9
$DIMASZ
 40
2.5
  9
$DIMEXO
 40
0.625
  9
$DIMDLI
 40
3.75
  9
$DIMRND
 40
0.0
  9
$DIMDLE
 40
0.0
  9
$DIMEXE
 40
1.25
  9
$DIMTP
 40
0.0
  9
$DIMTM
 40
0.0
  9
$DIMTXT
 40
2.5
  9
$DIMCEN
 40
2.5
  9
$DIMTSZ
 40
0.0
  9
$DIMTOL
 70
0
  9
$DIMLIM
 70
0
  9
$DIMTIH
 70
0
  9
$DIMTOH
 70
0
  9
$DIMSE1
 70
0
  9
$DIMSE2
 70
0
  9
$DIMTAD
 70
1
  9
$DIMZIN
 70
8
  9
$DIMBLK
  1

  9
$DIMASO
 70
1
  9
$DIMSHO
 70
1
  9
$DIMPOST
  1

  9
$DIMAPOST
  1

  9
$DIMALT
 70
0
  9
$DIMALTD
 70
3
  9
$DIMALTF
 40
0.03937007874
  9
$DIMLFAC
 40
1.0
  9
$DIMTOFL
 70
1
  9
$DIMTVP
 40
0.0
  9
$DIMTIX
 70
0
  9
$DIMSOXD
 70
0
  9
$DIMSAH
 70
0
  9
$DIMBLK1
  1

  9
$DIMBLK2
  1

  9
$DIMSTYLE
  2
ISO-25
  9
$DIMCLRD
 70
0
  9
$DIMCLRE
 70
0
  9
$DIMCLRT
 70
0
  9
$DIMTFAC
 40
1.0
  9
$DIMGAP
 40
0.625
  9
$DIMJUST
 70
0
  9
$DIMSD1
 70
0
  9
$DIMSD2
 70
0
  9
$DIMTOLJ
 70
0
  9
$DIMTZIN
 70
8
  9
$DIMALTZ
 70
0
  9
$DIMALTTZ
 70
0
  9
$DIMUPT
 70
0
  9
$DIMDEC
 70
2
  9
$DIMTDEC
 70
2
  9
$DIMALTU
 70
2
  9
$DIMALTTD
 70
3
  9
$DIMTXSTY
  7
Standard
  9
$DIMAUNIT
 70
0
  9
$DIMADEC
 70
0
  9
$DIMALTRND
 40
0.0
  9
$DIMAZIN
 70
0
  9
$DIMDSEP
 70
44
  9
$DIMATFIT
 70
3
  9
$DIMFRAC
 70
0
  9
$DIMLDRBLK
  1

  9
$DIMLUNIT
 70
2
  9
$DIMLWD
 70
-2
  9
$DIMLWE
 70
-2
  9
$DIMTMOVE
 70
0
  9
$DIMFXL
 40
1.0
  9
$DIMFXLON
 70
0
  9
$DIMJOGANG
 40
0.785398163397
  9
$DIMTFILL
 70
0
  9
$DIMTFILLCLR
 70
0
  9
$DIMARCSYM
 70
0
  9
$DIMLTYPE
  6

  9
$DIMLTEX1
  6

  9
$DIMLTEX2
  6

  9
$DIMTXTDIRECTION
 70
0
  9
$LUNITS
 70
2
  9
$LUPREC
 70
4
  9
$SKETCHINC
 40
1.0
  9
$FILLETRAD
 40
10.0
  9
$AUNITS
 70
0
  9
$AUPREC
 70
2
  9
$MENU
  1
.
  9
$ELEVATION
 40
0.0
  9
$PELEVATION
 40
0.0
  9
$THICKNESS
 40
0.0
  9
$LIMCHECK
 70
0
  9
$CHAMFERA
 40
0.0
  9
$CHAMFERB
 40
0.0
  9
$CHAMFERC
 40
0.0
  9
$CHAMFERD
 40
0.0
  9
$SKPOLY
 70
0
  9
$TDCREATE
 40
2459642.660324074
  9
$TDUCREATE
 40
2458532.153996898
  9
$TDUPDATE
 40
2459642.660324074
  9
$TDUUPDATE
 40
2458532.1544311
  9
$TDINDWG
 40
0.0
  9
$TDUSRTIMER
 40
0.0
  9
$USRTIMER
 70
1
  9
$ANGBASE
 50
0.0
  9
$ANGDIR
 70
0
  9
$PDMODE
 70
0
  9
$PDSIZE
 40
0.0
  9
$PLINEWID
 40
0.0
  9
$SPLFRAME
 70
0
  9
$SPLINETYPE
 70
6
  9
$SPLINESEGS
 70
8
  9
$HANDSEED
  5
4BF
  9
$SURFTAB1
 70
6
  9
$SURFTAB2
 70
6
  9
$SURFTYPE
 70
6
  9
$SURFU
 70
6
  9
$SURFV
 70
6
  9
$UCSBASE
  2

  9
$UCSNAME
  2

  9
$UCSORG
 10
0.0
 20
0.0
 30
0.0
  9
$UCSXDIR
 10
1.0
 20
0.0
 30
0.0
  9
$UCSYDIR
 10
0.0
 20
1.0
 30
0.0
  9
$UCSORTHOREF
  2

  9
$UCSORTHOVIEW
 70
0
  9
$UCSORGTOP
 10
0.0
 20
0.0
 30
0.0
  9
$UCSORGBOTTOM
 10
0.0
 20
0.0
 30
0.0
  9
$UCSORGLEFT
 10
0.0
 20
0.0
 30
0.0
  9
$UCSORGRIGHT
 10
0.0
 20
0.0
 30
0.0
  9
$UCSORGFRONT
 10
0.0
 20
0.0
 30
0.0
  9
$UCSORGBACK
 10
0.0
 20
0.0
 30
0.0
  9
$PUCSBASE
  2

  9
$PUCSNAME
  2

  9
$PUCSORG
 10
0.0
 20
0.0
 30
0.0
  9
$PUCSXDIR
 10
1.0
 20
0.0
 30
0.0
  9
$PUCSYDIR
 10
0.0
 20
1.0
 30
0.0
  9
$PUCSORTHOREF
  2

  9
$PUCSORTHOVIEW
 70
0
  9
$PUCSORGTOP
 10
0.0
 20
0.0
 30
0.0
  9
$PUCSORGBOTTOM
 10
0.0
 20
0.0
 30
0.0
  9
$PUCSORGLEFT
 10
0.0
 20
0.0
 30
0.0
  9
$PUCSORGRIGHT
 10
0.0
 20
0.0
 30
0.0
  9
$PUCSORGFRONT
 10
0.0
 20
0.0
 30
0.0
  9
$PUCSORGBACK
 10
0.0
 20
0.0
 30
0.0
  9
$USERI1
 70
0
  9
$USERI2
 70
0
  9
$USERI3
 70
0
  9
$USERI4
 70
0
  9
$USERI5
 70
0
  9
$USERR1
 40
0.0
  9
$USERR2
 40
0.0
  9
$USERR3
 40
0.0
  9
$USERR4
 40
0.0
  9
$USERR5
 40
0.0
  9
$WORLDVIEW
 70
1
  9
$SHADEDGE
 70
3
  9
$SHADEDIF
 70
70
  9
$TILEMODE
 70
1
  9
$MAXACTVP
 70
64
  9
$PINSBASE
 10
0.0
 20
0.0
 30
0.0
  9
$PLIMCHECK
 70
0
  9
$PEXTMIN
 10
1e+20
 20
1e+20
 30
1e+20
  9
$PEXTMAX
 10
-1e+20
 20
-1e+20
 30
-1e+20
  9
$PLIMMIN
 10
0.0
 20
0.0
  9
$PLIMMAX
 10
420.0
 20
297.0
  9
$UNITMODE
 70
0
  9
$VISRETAIN
 70
1
  9
$PLINEGEN
 70
0
  9
$PSLTSCALE
 70
1
  9
$TREEDEPTH
 70
3020
  9
$CMLSTYLE
  2
Standard
  9
$CMLJUST
 70
0
  9
$CMLSCALE
 40
20.0
  9
$PROXYGRAPHICS
 70
1
  9
$MEASUREMENT
 70
1
  9
$CELWEIGHT
370
-1
  9
$ENDCAPS
280
0
  9
$JOINSTYLE
280
0
  9
$LWDISPLAY
290
0
  9
$INSUNITS
 70
6
  9
$HYPERLINKBASE
  1

  9
$STYLESHEET
  1

  9
$XEDIT
290
1
  9
$CEPSNTYPE
380
0
  9
$PSTYLEMODE
290
1
  9
$FINGERPRINTGUID
  2
{56027A9B-4BCC-4C2E-9252-9581624AA77D}
  9
$VERSIONGUID
  2
{A7CCF2C3-D03B-4528-8B52-7F5F86AC3EF1}
  9
$EXTNAMES
290
1
  9
$PSVPSCALE
 40
0.0
  9
$OLESTARTUP
290
0
  9
$SORTENTS
280
127
  9
$INDEXCTL
280
0
  9
$HIDETEXT
280
1
  9
$XCLIPFRAME
280
0
  9
$HALOGAP
280
0
  9
$OBSCOLOR
 70
257
  9
$OBSLTYPE
280
0
  9
$INTERSECTIONDISPLAY
280
0
  9
$INTERSECTIONCOLOR
 70
257
  9
$DIMASSOC
280
2
  9
$PROJECTNAME
  1

  9
$CAMERADISPLAY
290
0
  9
$LENSLENGTH
 40
50.0
  9
$CAMERAHEIGHT
 40
0.0
  9
$STEPSPERSEC
 40
24.0
  9
$STEPSIZE
 40
100.0
  9
$3DDWFPREC
 40
2.0
  9
$PSOLWIDTH
 40
0.005
  9
$PSOLHEIGHT
 40
0.08
  9
$LOFTANG1
 40
1.570796326795
  9
$LOFTANG2
 40
1.570796326795
  9
$LOFTMAG1
 40
0.0
  9
$LOFTMAG2
 40
0.0
  9
$LOFTPARAM
 70
7
  9
$LOFTNORMALS
280
1
  9
$LATITUDE
 40
37.795
  9
$LONGITUDE
 40
-122.394
  9
$NORTHDIRECTION
 40
0.0
  9
$TIMEZONE
 70
-8000
  9
$LIGHTGLYPHDISPLAY
280
1
  9
$TILEMODELIGHTSYNCH
280
1
  9
$CMATERIAL
347
20
  9
$SOLIDHIST
280
0
  9
$SHOWHIST
280
1
  9
$DWFFRAME
280
2
  9
$DGNFRAME
280
2
  9
$REALWORLDSCALE
290
1
  9
$INTERFERECOLOR
 62
256
  9
$CSHADOW
280
0
  9
$SHADOWPLANELOCATION
 40
0.0
  0
ENDSEC
  0
SECTION
  2
CLASSES
  0
CLASS
  1
ACDBDICTIONARYWDFLT
  2
AcDbDictionaryWithDefault
  3
ObjectDBX Classes
 90
0
 91
0
280
0
281
0
  0
CLASS
  1
SUN
  2
AcDbSun
  3
SCENEOE
 90
1153
 91
0
280
0
281
0
  0
CLASS
  1
VISUALSTYLE
  2
AcDbVisualStyle
  3
ObjectDBX Classes
 90
4095
 91
0
280
0
281
0
  0
CLASS
  1
MATERIAL
  2
AcDbMaterial
  3
ObjectDBX Classes
 90
1153
 91
0
280
0
281
0
  0
CLASS
  1
SCALE
  2
AcDbScale
  3
ObjectDBX Classes
 90
1153
 91
0
280
0
281
0
  0
CLASS
  1
TABLESTYLE
  2
AcDbTableStyle
  3
ObjectDBX Classes
 90
4095
 91
0
280
0
281
0
  0
CLASS
  1
MLEADERSTYLE
  2
AcDbMLeaderStyle
  3
ACDB_MLEADERSTYLE_CLASS
 90
4095
 91
0
280
0
281
0
  0
CLASS
  1
DICTIONARYVAR
  2
AcDbDictionaryVar
  3
ObjectDBX Classes
 90
0
 91
0
280
0
281
0
  0
CLASS
  1
CELLSTYLEMAP
  2
AcDbCellStyleMap
  3
ObjectDBX Classes
 90
1152
 91
0
280
0
281
0
  0
CLASS
  1
MENTALRAYRENDERSETTINGS
  2
AcDbMentalRayRenderSettings
  3
SCENEOE
 90
1024
 91
0
280
0
281
0
  0
CLASS
  1
ACDBDETAILVIEWSTYLE
  2
AcDbDetailViewStyle
  3
ObjectDBX Classes
 90
1025
 91
0
280
0
281
0
  0
CLASS
  1
ACDBSECTIONVIEWSTYLE
  2
AcDbSectionViewStyle
  3
ObjectDBX Classes
 90
1025
 91
0
280
0
281
0
  0
CLASS
  1
RASTERVARIABLES
  2
AcDbRasterVariables
  3
ISM
 90
0
 91
0
280
0
281
0
  0
CLASS
  1
ACDBPLACEHOLDER
  2
AcDbPlaceHolder
  3
ObjectDBX Classes
 90
0
 91
0
280
0
281
0
  0
CLASS
  1
LAYOUT
  2
AcDbLayout
  3
ObjectDBX Classes
 90
0
 91
0
280
0
281
0
  0
ENDSEC
  0
SECTION
  2
TABLES
  0
TABLE
  2
VPORT
  5
8
330
0
100
AcDbSymbolTable
 70
1
  0
VPORT
  5
23
330
8
100
AcDbSymbolTableRecord
100
AcDbViewportTableRecord
  2
*Active
 70
0
 10
0.0
 20
0.0
 11
1.0
 21
1.0
 12
344.2
 22
148.5
 13
0.0
 23
0.0
 14
0.5
 24
0.5
 15
0.5
 25
0.5
 16
0.0
 26
0.0
 36
1.0
 17
0.0
 27
0.0
 37
0.0
 40
297.0
 41
1.34
 42
50.0
 43
0.0
 44
0.0
 50
0.0
 51
0.0
 71
0
 72
1000
 73
1
 74
3
 75
0
 76
0
 77
0
 78
0
281
0
 65
0
146
0.0
  0
ENDTAB
  0
TABLE
  2
LTYPE
  5
2
330
0
100
AcDbSymbolTable
 70
3
  0
LTYPE
  5
24
330
2
100
AcDbSymbolTableRecord
100
AcDbLinetypeTableRecord
  2
ByBlock
 70
0
  3

 72
65
 73
0
 40
0.0
  0
LTYPE
  5
25
330
2
100
AcDbSymbolTableRecord
100
AcDbLinetypeTableRecord
  2
ByLayer
 70
0
  3

 72
65
 73
0
 40
0.0
  0
LTYPE
  5
26
330
2
100
AcDbSymbolTableRecord
100
AcDbLinetypeTableRecord
  2
Continuous
 70
0
  3

 72
65
 73
0
 40
0.0
  0
ENDTAB
  0
TABLE
  2
LAYER
  5
1
330
0
100
AcDbSymbolTable
 70
3
  0
LAYER
  5
27
330
1
100
AcDbSymbolTableRecord
100
AcDbLayerTableRecord
  2
0
 70
0
 62
7
  6
Continuous
370
-3
390
13
347
21
  0
LAYER
  5
28
330
1
100
AcDbSymbolTableRecord
100
AcDbLayerTableRecord
  2
Defpoints
 70
0
 62
7
  6
Continuous
290
0
370
-3
390
13
347
21
  0
LAYER
  5
2D
330
1
100
AcDbSymbolTableRecord
100
AcDbLayerTableRecord
  2
TOP
 70
0
 62
1
  6
Continuous
370
0
390
13
347
21
  0
ENDTAB
  0
TABLE
  2
STYLE
  5
5
330
0
100
AcDbSymbolTable
 70
1
  0
STYLE
  5
29
330
5
100
AcDbSymbolTableRecord
100
AcDbTextStyleTableRecord
  2
Standard
 70
0
 40
0.0
 41
1.0
 50
0.0
 71
0
 42
2.5
  3
txt
  4

  0
ENDTAB
  0
TABLE
  2
VIEW
  5
7
330
0
100
AcDbSymbolTable
 70
0
  0
ENDTAB
  0
TABLE
  2
UCS
  5
6
330
0
100
AcDbSymbolTable
 70
0
  0
ENDTAB
  0
TABLE
  2
APPID
  5
3
330
0
100
AcDbSymbolTable
 70
2
  0
APPID
  5
2A
330
3
100
AcDbSymbolTableRecord
100
AcDbRegAppTableRecord
  2
ACAD
 70
0
  0
APPID
  5
4BE
330
3
100
AcDbSymbolTableRecord
100
AcDbRegAppTableRecord
  2
HATCHBACKGROUNDCOLOR
 70
0
  0
ENDTAB
  0
TABLE
  2
DIMSTYLE
  5
4
330
0
100
AcDbSymbolTable
 70
1
100
AcDbDimStyleTable
  0
DIMSTYLE
105
2B
330
4
100
AcDbSymbolTableRecord
100
AcDbDimStyleTableRecord
  2
Standard
 70
0
 40
1.0
 41
2.5
 42
0.625
 43
3.75
 44
1.25
 45
0.0
 46
0.0
 47
0.0
 48
0.0
 49
2.5
140
2.5
141
2.5
142
0.0
143
0.03937007874
144
1.0
145
0.0
146
1.0
147
0.625
148
0.0
 69
0
 70
0
 71
0
 72
0
 73
0
 74
0
 75
0
 76
0
 77
1
 78
8
 79
0
170
0
171
3
172
1
173
0
174
0
175
0
176
0
177
0
178
0
179
0
271
0
272
2
273
2
274
3
275
0
276
0
277
2
278
44
279
0
280
0
281
0
282
0
283
0
284
8
285
0
286
0
288
0
289
3
290
0
371
-2
372
-2
  0
ENDTAB
  0
TABLE
  2
BLOCK_RECORD
  5
9
330
0
100
AcDbSymbolTable
 70
2
  0
BLOCK_RECORD
  5
17
330
9
100
AcDbSymbolTableRecord
100
AcDbBlockTableRecord
  2
*Model_Space
340
1A
 70
0
280
1
281
0
  0
BLOCK_RECORD
  5
1B
330
9
100
AcDbSymbolTableRecord
100
AcDbBlockTableRecord
  2
*Paper_Space
340
1E
 70
0
280
1
281
0
  0
ENDTAB
  0
ENDSEC
  0
SECTION
  2
BLOCKS
  0
BLOCK
  5
18
330
17
100
AcDbEntity
  8
0
100
AcDbBlockBegin
  2
*Model_Space
 70
0
 10
0.0
 20
0.0
 30
0.0
  3
*Model_Space
  1

  0
ENDBLK
  5
19
330
17
100
AcDbEntity
  8
0
100
AcDbBlockEnd
  0
BLOCK
  5
1C
330
1B
100
AcDbEntity
  8
0
100
AcDbBlockBegin
  2
*Paper_Space
 70
0
 10
0.0
 20
0.0
 30
0.0
  3
*Paper_Space
  1

  0
ENDBLK
  5
1D
330
1B
100
AcDbEntity
  8
0
100
AcDbBlockEnd
  0
ENDSEC
  0
SECTION
  2
ENTITIES
  0
LINE
  5
2E
330
17
100
AcDbEntity
  8
TOP
100
AcDbLine
 10
0.0
 20
28.592622392718745
 30
0.0
 11
3.446333333333333
 21
26.585394514192537
 31
0.0
  0
LINE
  5
2F
330
17
100
AcDbEntity
  8
TOP
100
AcDbLine
 10
4.720333333333333
 20
26.585394514192537
 30
0.0
 11
8.166666666666666
 21
28.592622392718745
 31
0.0
  0
LINE
  5
30
330
17
100
AcDbEntity
  8
TOP
100
AcDbLine
 10
8.166666666666666
 20
28.592622392718745
 30
0.0
 11
11.613
 21
26.585394514192537
 31
0.0
  0
LINE
  5
31
330
17
100
AcDbEntity
  8
TOP
100
AcDbLine
 10
12.887
 20
26.585394514192537
 30
0.0
 11
16.333333333333332
 21
28.592622392718745
 31
0.0
  0
LINE
  5
32
330
17
100
AcDbEntity
  8
TOP
100
AcDbLine
 10
16.333333333333332
 20
28.592622392718745
 30
0.0
 11
19.779666666666664
 21
26.585394514192537
 31
0.0
  0
LINE
  5
33
330
17
100
AcDbEntity
  8
TOP
100
AcDbLine
 10
21.053666666666665
 20
26.585394514192537
 30
0.0
 11
24.5
 21
28.592622392718745
 31
0.0
  0
LINE
  5
34
330
17
100
AcDbEntity
  8
TOP
100
AcDbLine
 10
0.637
 20
28.960394514192537
 30
0.0
 11
4.083333333333333
 21
30.967622392718745
 31
0.0
  0
LINE
  5
35
330
17
100
AcDbEntity
  8
TOP
100
AcDbLine
 10
4.083333333333333
 20
30.967622392718745
 30
0.0
 11
7.529666666666666
 21
28.960394514192537
 31
0.0
  0
LINE
  5
36
330
17
100
AcDbEntity
  8
TOP
100
AcDbLine
 10
8.803666666666667
 20
28.960394514192537
 30
0.0
 11
12.25
 21
30.967622392718745
 31
0.0
  0
LINE
  5
37
330
17
100
AcDbEntity
  8
TOP
100
AcDbLine
 10
12.25
 20
30.967622392718745
 30
0.0
 11
15.696333333333332
 21
28.960394514192537
 31
0.0
  0
LINE
  5
38
330
17
100
AcDbEntity
  8
TOP
100
AcDbLine
 10
16.970333333333333
 20
28.960394514192537
 30
0.0
 11
20.416666666666664
 21
30.967622392718745
 31
0.0
  0
LINE
  5
39
330
17
100
AcDbEntity
  8
TOP
100
AcDbLine
 10
20.416666666666664
 20
30.967622392718745
 30
0.0
 11
23.863
 21
28.960394514192537
 31
0.0
  0
LINE
  5
3A
330
17
100
AcDbEntity
  8
TOP
100
AcDbLine
 10
0.0
 20
33.342622392718745
 30
0.0
 11
3.446333333333333
 21
31.335394514192537
 31
0.0
  0
LINE
  5
3B
330
17
100
AcDbEntity
  8
TOP
100
AcDbLine
 10
4.720333333333333
 20
31.335394514192537
 30
0.0
 11
8.166666666666666
 21
33.342622392718745
 31
0.0
  0
LINE
  5
3C
330
17
100
AcDbEntity
  8
TOP
100
AcDbLine
 10
8.166666666666666
 20
33.342622392718745
 30
0.0
 11
11.613
 21
31.335394514192537
 31
0.0
  0
LINE
  5
3D
330
17
100
AcDbEntity
  8
TOP
100
AcDbLine
 10
12.887
 20
31.335394514192537
 30
0.0
 11
16.333333333333332
 21
33.342622392718745
 31
0.0
  0
LINE
  5
3E
330
17
100
AcDbEntity
  8
TOP
100
AcDbLine
 10
16.333333333333332
 20
33.342622392718745
 30
0.0
 11
19.779666666666664
 21
31.335394514192537
 31
0.0
  0
LINE
  5
3F
330
17
100
AcDbEntity
  8
TOP
100
AcDbLine
 10
21.053666666666665
 20
31.335394514192537
 30
0.0
 11
24.5
 21
33.342622392718745
 31
0.0
  0
LINE
  5
40
330
17
100
AcDbEntity
  8
TOP
100
AcDbLine
 10
0.637
 20
33.71039451419254
 30
0.0
 11
4.083333333333333
 21
35.717622392718745
 31
0.0
  0
LINE
  5
41
330
17
100
AcDbEntity
  8
TOP
100
AcDbLine
 10
4.083333333333333
 20
35.717622392718745
 30
0.0
 11
7.529666666666666
 21
33.71039451419254
 31
0.0
  0
LINE
  5
42
330
17
100
AcDbEntity
  8
TOP
100
AcDbLine
 10
8.803666666666667
 20
33.71039451419254
 30
0.0
 11
12.25
 21
35.717622392718745
 31
0.0
  0
LINE
  5
43
330
17
100
AcDbEntity
  8
TOP
100
AcDbLine
 10
12.25
 20
35.717622392718745
 30
0.0
 11
15.696333333333332
 21
33.71039451419254
 31
0.0
  0
LINE
  5
44
330
17
100
AcDbEntity
  8
TOP
100
AcDbLine
 10
16.970333333333333
 20
33.71039451419254
 30
0.0
 11
20.416666666666664
 21
35.717622392718745
 31
0.0
  0
LINE
  5
45
330
17
100
AcDbEntity
  8
TOP
100
AcDbLine
 10
20.416666666666664
 20
35.717622392718745
 30
0.0
 11
23.863
 21
33.71039451419254
 31
0.0
  0
LINE
  5
46
330
17
100
AcDbEntity
  8
TOP
100
AcDbLine
 10
0.0
 20
38.092622392718745
 30
0.0
 11
3.446333333333333
 21
36.08539451419254
 31
0.0
  0
LINE
  5
47
330
17
100
AcDbEntity
  8
TOP
100
AcDbLine
 10
4.720333333333333
 20
36.08539451419254
 30
0.0
 11
8.166666666666666
 21
38.092622392718745
 31
0.0
  0
LINE
  5
48
330
17
100
AcDbEntity
  8
TOP
100
AcDbLine
 10
8.166666666666666
 20
38.092622392718745
 30
0.0
 11
11.613
 21
36.08539451419254
 31
0.0
  0
LINE
  5
49
330
17
100
AcDbEntity
  8
TOP
100
AcDbLine
 10
12.887
 20
36.08539451419254
 30
0.0
 11
16.333333333333332
 21
38.092622392718745
 31
0.0
  0
LINE
  5
4A
330
17
100
AcDbEntity
  8
TOP
100
AcDbLine
 10
16.333333333333332
 20
38.092622392718745
 30
0.0
 11
19.779666666666664
 21
36.08539451419254
 31
0.0
  0
LINE
  5
4B
330
17
100
AcDbEntity
  8
TOP
100
AcDbLine
 10
21.053666666666665
 20
36.08539451419254
 30
0.0
 11
24.5
 21
38.092622392718745
 31
0.0
  0
LINE
  5
4C
330
17
100
AcDbEntity
  8
TOP
100
AcDbLine
 10
0.637
 20
38.46039451419254
 30
0.0
 11
4.083333333333333
 21
40.467622392718745
 31
0.0
  0
LINE
  5
4D
330
17
100
AcDbEntity
  8
TOP
100
AcDbLine
 10
4.083333333333333
 20
40.467622392718745
 30
0.0
 11
7.529666666666666
 21
38.46039451419254
 31
0.0
  0
LINE
  5
4E
330
17
100
AcDbEntity
  8
TOP
100
AcDbLine
 10
8.803666666666667
 20
38.46039451419254
 30
0.0
 11
12.25
 21
40.467622392718745
 31
0.0
  0
LINE
  5
4F
330
17
100
AcDbEntity
  8
TOP
100
AcDbLine
 10
12.25
 20
40.467622392718745
 30
0.0
 11
15.696333333333332
 21
38.46039451419254
 31
0.0
  0
LINE
  5
50
330
17
100
AcDbEntity
  8
TOP
100
AcDbLine
 10
16.970333333333333
 20
38.46039451419254
 30
0.0
 11
20.416666666666664
 21
40.467622392718745
 31
0.0
  0
LINE
  5
51
330
17
100
AcDbEntity
  8
TOP
100
AcDbLine
 10
20.416666666666664
 20
40.467622392718745
 30
0.0
 11
23.863
 21
38.46039451419254
 31
0.0
  0
LINE
  5
52
330
17
100
AcDbEntity
  8
TOP
100
AcDbLine
 10
0.0
 20
42.842622392718745
 30
0.0
 11
3.446333333333333
 21
40.83539451419254
 31
0.0
  0
LINE
  5
53
330
17
100
AcDbEntity
  8
TOP
100
AcDbLine
 10
4.720333333333333
 20
40.83539451419254
 30
0.0
 11
8.166666666666666
 21
42.842622392718745
 31
0.0
  0
LINE
  5
54
330
17
100
AcDbEntity
  8
TOP
100
AcDbLine
 10
8.166666666666666
 20
42.842622392718745
 30
0.0
 11
11.613
 21
40.83539451419254
 31
0.0
  0
LINE
  5
55
330
17
100
AcDbEntity
  8
TOP
100
AcDbLine
 10
12.887
 20
40.83539451419254
 30
0.0
 11
16.333333333333332
 21
42.842622392718745
 31
0.0
  0
LINE
  5
56
330
17
100
AcDbEntity
  8
TOP
100
AcDbLine
 10
16.333333333333332
 20
42.842622392718745
 30
0.0
 11
19.779666666666664
 21
40.83539451419254
 31
0.0
  0
LINE
  5
57
330
17
100
AcDbEntity
  8
TOP
100
AcDbLine
 10
21.053666666666665
 20
40.83539451419254
 30
0.0
 11
24.5
 21
42.842622392718745
 31
0.0
  0
LINE
  5
58
330
17
100
AcDbEntity
  8
TOP
100
AcDbLine
 10
0.637
 20
43.21039451419254
 30
0.0
 11
4.083333333333333
 21
45.217622392718745
 31
0.0
  0
LINE
  5
59
330
17
100
AcDbEntity
  8
TOP
100
AcDbLine
 10
4.083333333333333
 20
45.217622392718745
 30
0.0
 11
7.529666666666666
 21
43.21039451419254
 31
0.0
  0
LINE
  5
5A
330
17
100
AcDbEntity
  8
TOP
100
AcDbLine
 10
8.803666666666667
 20
43.21039451419254
 30
0.0
 11
12.25
 21
45.217622392718745
 31
0.0
  0
LINE
  5
5B
330
17
100
AcDbEntity
  8
TOP
100
AcDbLine
 10
12.25
 20
45.217622392718745
 30
0.0
 11
15.696333333333332
 21
43.21039451419254
 31
0.0
  0
LINE
  5
5C
330
17
100
AcDbEntity
  8
TOP
100
AcDbLine
 10
16.970333333333333
 20
43.21039451419254
 30
0.0
 11
20.416666666666664
 21
45.217622392718745
 31
0.0
  0
LINE
  5
5D
330
17
100
AcDbEntity
  8
TOP
100
AcDbLine
 10
20.416666666666664
 20
45.217622392718745
 30
0.0
 11
23.863
 21
43.21039451419254
 31
0.0
  0
LINE
  5
5E
330
17
100
AcDbEntity
  8
TOP
100
AcDbLine
 10
0.0
 20
47.592622392718745
 30
0.0
 11
3.446333333333333
 21
45.58539451419254
 31
0.0
  0
LINE
  5
5F
330
17
100
AcDbEntity
  8
TOP
100
AcDbLine
 10
4.720333333333333
 20
45.58539451419254
 30
0.0
 11
8.166666666666666
 21
47.592622392718745
 31
0.0
  0
LINE
  5
60
330
17
100
AcDbEntity
  8
TOP
100
AcDbLine
 10
8.166666666666666
 20
47.592622392718745
 30
0.0
 11
11.613
 21
45.58539451419254
 31
0.0
  0
LINE
  5
61
330
17
100
AcDbEntity
  8
TOP
100
AcDbLine
 10
12.887
 20
45.58539451419254
 30
0.0
 11
16.333333333333332
 21
47.592622392718745
 31
0.0
  0
LINE
  5
62
330
17
100
AcDbEntity
  8
TOP
100
AcDbLine
 10
16.333333333333332
 20
47.592622392718745
 30
0.0
 11
19.779666666666664
 21
45.58539451419254
 31
0.0
  0
LINE
  5
63
330
17
100
AcDbEntity
  8
TOP
100
AcDbLine
 10
21.053666666666665
 20
45.58539451419254
 30
0.0
 11
24.5
 21
47.592622392718745
 31
0.0
  0
LINE
  5
64
330
17
100
AcDbEntity
  8
TOP
100
AcDbLine
 10
0.637
 20
47.96039451419254
 30
0.0
 11
4.083333333333333
 21
49.967622392718745
 31
0.0
  0
LINE
  5
65
330
17
100
AcDbEntity
  8
TOP
100
AcDbLine
 10
4.083333333333333
 20
49.967622392718745
 30
0.0
 11
7.529666666666666
 21
47.96039451419254
 31
0.0
  0
LINE
  5
66
330
17
100
AcDbEntity
  8
TOP
100
AcDbLine
 10
8.803666666666667
 20
47.96039451419254
 30
0.0
 11
12.25
 21
49.967622392718745
 31
0.0
  0
LINE
  5
67
330
17
100
AcDbEntity
  8
TOP
100
AcDbLine
 10
12.25
 20
49.967622392718745
 30
0.0
 11
15.696333333333332
 21
47.96039451419254
 31
0.0
  0
LINE
  5
68
330
17
100
AcDbEntity
  8
TOP
100
AcDbLine
 10
16.970333333333333
 20
47.96039451419254
 30
0.0
 11
20.416666666666664
 21
49.967622392718745
 31
0.0
  0
LINE
  5
69
330
17
100
AcDbEntity
  8
TOP
100
AcDbLine
 10
20.416666666666664
 20
49.967622392718745
 30
0.0
 11
23.863
 21
47.96039451419254
 31
0.0
  0
LINE
  5
6A
330
17
100
AcDbEntity
  8
TOP
100
AcDbLine
 10
0.0
 20
52.342622392718745
 30
0.0
 11
3.446333333333333
 21
50.33539451419254
 31
0.0
  0
LINE
  5
6B
330
17
100
AcDbEntity
  8
TOP
100
AcDbLine
 10
4.720333333333333
 20
50.33539451419254
 30
0.0
 11
8.166666666666666
 21
52.342622392718745
 31
0.0
  0
LINE
  5
6C
330
17
100
AcDbEntity
  8
TOP
100
AcDbLine
 10
8.166666666666666
 20
52.342622392718745
 30
0.0
 11
11.613
 21
50.33539451419254
 31
0.0
  0
LINE
  5
6D
330
17
100
AcDbEntity
  8
TOP
100
AcDbLine
 10
12.887
 20
50.33539451419254
 30
0.0
 11
16.333333333333332
 21
52.342622392718745
 31
0.0
  0
LINE
  5
6E
330
17
100
AcDbEntity
  8
TOP
100
AcDbLine
 10
16.333333333333332
 20
52.342622392718745
 30
0.0
 11
19.779666666666664
 21
50.33539451419254
 31
0.0
  0
LINE
  5
6F
330
17
100
AcDbEntity
  8
TOP
100
AcDbLine
 10
21.053666666666665
 20
50.33539451419254
 30
0.0
 11
24.5
 21
52.342622392718745
 31
0.0
  0
LINE
  5
70
330
17
100
AcDbEntity
  8
TOP
100
AcDbLine
 10
0.637
 20
52.71039451419254
 30
0.0
 11
4.083333333333333
 21
54.717622392718745
 31
0.0
  0
LINE
  5
71
330
17
100
AcDbEntity
  8
TOP
100
AcDbLine
 10
4.083333333333333
 20
54.717622392718745
 30
0.0
 11
7.529666666666666
 21
52.71039451419254
 31
0.0
  0
LINE
  5
72
330
17
100
AcDbEntity
  8
TOP
100
AcDbLine
 10
8.803666666666667
 20
52.71039451419254
 30
0.0
 11
12.25
 21
54.717622392718745
 31
0.0
  0
LINE
  5
73
330
17
100
AcDbEntity
  8
TOP
100
AcDbLine
 10
12.25
 20
54.717622392718745
 30
0.0
 11
15.696333333333332
 21
52.71039451419254
 31
0.0
  0
LINE
  5
74
330
17
100
AcDbEntity
  8
TOP
100
AcDbLine
 10
16.970333333333333
 20
52.71039451419254
 30
0.0
 11
20.416666666666664
 21
54.717622392718745
 31
0.0
  0
LINE
  5
75
330
17
100
AcDbEntity
  8
TOP
100
AcDbLine
 10
20.416666666666664
 20
54.717622392718745
 30
0.0
 11
23.863
 21
52.71039451419254
 31
0.0
  0
LINE
  5
76
330
17
100
AcDbEntity
  8
TOP
100
AcDbLine
 10
0.0
 20
57.092622392718745
 30
0.0
 11
3.446333333333333
 21
55.08539451419254
 31
0.0
  0
LINE
  5
77
330
17
100
AcDbEntity
  8
TOP
100
AcDbLine
 10
4.720333333333333
 20
55.08539451419254
 30
0.0
 11
8.166666666666666
 21
57.092622392718745
 31
0.0
  0
LINE
  5
78
330
17
100
AcDbEntity
  8
TOP
100
AcDbLine
 10
8.166666666666666
 20
57.092622392718745
 30
0.0
 11
11.613
 21
55.08539451419254
 31
0.0
  0
LINE
  5
79
330
17
100
AcDbEntity
  8
TOP
100
AcDbLine
 10
12.887
 20
55.08539451419254
 30
0.0
 11
16.333333333333332
 21
57.092622392718745
 31
0.0
  0
LINE
  5
7A
330
17
100
AcDbEntity
  8
TOP
100
AcDbLine
 10
16.333333333333332
 20
57.092622392718745
 30
0.0
 11
19.779666666666664
 21
55.08539451419254
 31
0.0
  0
LINE
  5
7B
330
17
100
AcDbEntity
  8
TOP
100
AcDbLine
 10
21.053666666666665
 20
55.08539451419254
 30
0.0
 11
24.5
 21
57.092622392718745
 31
0.0
  0
LINE
  5
7C
330
17
100
AcDbEntity
  8
TOP
100
AcDbLine
 10
0.637
 20
57.46039451419254
 30
0.0
 11
4.083333333333333
 21
59.467622392718745
 31
0.0
  0
LINE
  5
7D
330
17
100
AcDbEntity
  8
TOP
100
AcDbLine
 10
4.083333333333333
 20
59.467622392718745
 30
0.0
 11
7.529666666666666
 21
57.46039451419254
 31
0.0
  0
LINE
  5
7E
330
17
100
AcDbEntity
  8
TOP
100
AcDbLine
 10
8.803666666666667
 20
57.46039451419254
 30
0.0
 11
12.25
 21
59.467622392718745
 31
0.0
  0
LINE
  5
7F
330
17
100
AcDbEntity
  8
TOP
100
AcDbLine
 10
12.25
 20
59.467622392718745
 30
0.0
 11
15.696333333333332
 21
57.46039451419254
 31
0.0
  0
LINE
  5
80
330
17
100
AcDbEntity
  8
TOP
100
AcDbLine
 10
16.970333333333333
 20
57.46039451419254
 30
0.0
 11
20.416666666666664
 21
59.467622392718745
 31
0.0
  0
LINE
  5
81
330
17
100
AcDbEntity
  8
TOP
100
AcDbLine
 10
20.416666666666664
 20
59.467622392718745
 30
0.0
 11
23.863
 21
57.46039451419254
 31
0.0
  0
LINE
  5
82
330
17
100
AcDbEntity
  8
TOP
100
AcDbLine
 10
0.0
 20
61.842622392718745
 30
0.0
 11
3.446333333333333
 21
59.83539451419254
 31
0.0
  0
LINE
  5
83
330
17
100
AcDbEntity
  8
TOP
100
AcDbLine
 10
4.720333333333333
 20
59.83539451419254
 30
0.0
 11
8.166666666666666
 21
61.842622392718745
 31
0.0
  0
LINE
  5
84
330
17
100
AcDbEntity
  8
TOP
100
AcDbLine
 10
8.166666666666666
 20
61.842622392718745
 30
0.0
 11
11.613
 21
59.83539451419254
 31
0.0
  0
LINE
  5
85
330
17
100
AcDbEntity
  8
TOP
100
AcDbLine
 10
12.887
 20
59.83539451419254
 30
0.0
 11
16.333333333333332
 21
61.842622392718745
 31
0.0
  0
LINE
  5
86
330
17
100
AcDbEntity
  8
TOP
100
AcDbLine
 10
16.333333333333332
 20
61.842622392718745
 30
0.0
 11
19.779666666666664
 21
59.83539451419254
 31
0.0
  0
LINE
  5
87
330
17
100
AcDbEntity
  8
TOP
100
AcDbLine
 10
21.053666666666665
 20
59.83539451419254
 30
0.0
 11
24.5
 21
61.842622392718745
 31
0.0
  0
LINE
  5
88
330
17
100
AcDbEntity
  8
TOP
100
AcDbLine
 10
0.637
 20
62.21039451419254
 30
0.0
 11
4.083333333333333
 21
64.21762239271874
 31
0.0
  0
LINE
  5
89
330
17
100
AcDbEntity
  8
TOP
100
AcDbLine
 10
4.083333333333333
 20
64.21762239271874
 30
0.0
 11
7.529666666666666
 21
62.21039451419254
 31
0.0
  0
LINE
  5
8A
330
17
100
AcDbEntity
  8
TOP
100
AcDbLine
 10
8.803666666666667
 20
62.21039451419254
 30
0.0
 11
12.25
 21
64.21762239271874
 31
0.0
  0
LINE
  5
8B
330
17
100
AcDbEntity
  8
TOP
100
AcDbLine
 10
12.25
 20
64.21762239271874
 30
0.0
 11
15.696333333333332
 21
62.21039451419254
 31
0.0
  0
LINE
  5
8C
330
17
100
AcDbEntity
  8
TOP
100
AcDbLine
 10
16.970333333333333
 20
62.21039451419254
 30
0.0
 11
20.416666666666664
 21
64.21762239271874
 31
0.0
  0
LINE
  5
8D
330
17
100
AcDbEntity
  8
TOP
100
AcDbLine
 10
20.416666666666664
 20
64.21762239271874
 30
0.0
 11
23.863
 21
62.21039451419254
 31
0.0
  0
LINE
  5
8E
330
17
100
AcDbEntity
  8
TOP
100
AcDbLine
 10
0.0
 20
66.59262239271874
 30
0.0
 11
3.446333333333333
 21
64.58539451419253
 31
0.0
  0
LINE
  5
8F
330
17
100
AcDbEntity
  8
TOP
100
AcDbLine
 10
4.720333333333333
 20
64.58539451419253
 30
0.0
 11
8.166666666666666
 21
66.59262239271874
 31
0.0
  0
LINE
  5
90
330
17
100
AcDbEntity
  8
TOP
100
AcDbLine
 10
8.166666666666666
 20
66.59262239271874
 30
0.0
 11
11.613
 21
64.58539451419253
 31
0.0
  0
LINE
  5
91
330
17
100
AcDbEntity
  8
TOP
100
AcDbLine
 10
12.887
 20
64.58539451419253
 30
0.0
 11
16.333333333333332
 21
66.59262239271874
 31
0.0
  0
LINE
  5
92
330
17
100
AcDbEntity
  8
TOP
100
AcDbLine
 10
16.333333333333332
 20
66.59262239271874
 30
0.0
 11
19.779666666666664
 21
64.58539451419253
 31
0.0
  0
LINE
  5
93
330
17
100
AcDbEntity
  8
TOP
100
AcDbLine
 10
21.053666666666665
 20
64.58539451419253
 30
0.0
 11
24.5
 21
66.59262239271874
 31
0.0
  0
LINE
  5
94
330
17
100
AcDbEntity
  8
TOP
100
AcDbLine
 10
0.637
 20
66.96039451419253
 30
0.0
 11
4.083333333333333
 21
68.96762239271874
 31
0.0
  0
LINE
  5
95
330
17
100
AcDbEntity
  8
TOP
100
AcDbLine
 10
4.083333333333333
 20
68.96762239271874
 30
0.0
 11
7.529666666666666
 21
66.96039451419253
 31
0.0
  0
LINE
  5
96
330
17
100
AcDbEntity
  8
TOP
100
AcDbLine
 10
8.803666666666667
 20
66.96039451419253
 30
0.0
 11
12.25
 21
68.96762239271874
 31
0.0
  0
LINE
  5
97
330
17
100
AcDbEntity
  8
TOP
100
AcDbLine
 10
12.25
 20
68.96762239271874
 30
0.0
 11
15.696333333333332
 21
66.96039451419253
 31
0.0
  0
LINE
  5
98
330
17
100
AcDbEntity
  8
TOP
100
AcDbLine
 10
16.970333333333333
 20
66.96039451419253
 30
0.0
 11
20.416666666666664
 21
68.96762239271874
 31
0.0
  0
LINE
  5
99
330
17
100
AcDbEntity
  8
TOP
100
AcDbLine
 10
20.416666666666664
 20
68.96762239271874
 30
0.0
 11
23.863
 21
66.96039451419253
 31
0.0
  0
LINE
  5
9A
330
17
100
AcDbEntity
  8
TOP
100
AcDbLine
 10
0.0
 20
71.34262239271874
 30
0.0
 11
3.446333333333333
 21
69.33539451419253
 31
0.0
  0
LINE
  5
9B
330
17
100
AcDbEntity
  8
TOP
100
AcDbLine
 10
4.720333333333333
 20
69.33539451419253
 30
0.0
 11
8.166666666666666
 21
71.34262239271874
 31
0.0
  0
LINE
  5
9C
330
17
100
AcDbEntity
  8
TOP
100
AcDbLine
 10
8.166666666666666
 20
71.34262239271874
 30
0.0
 11
11.613
 21
69.33539451419253
 31
0.0
  0
LINE
  5
9D
330
17
100
AcDbEntity
  8
TOP
100
AcDbLine
 10
12.887
 20
69.33539451419253
 30
0.0
 11
16.333333333333332
 21
71.34262239271874
 31
0.0
  0
LINE
  5
9E
330
17
100
AcDbEntity
  8
TOP
100
AcDbLine
 10
16.333333333333332
 20
71.34262239271874
 30
0.0
 11
19.779666666666664
 21
69.33539451419253
 31
0.0
  0
LINE
  5
9F
330
17
100
AcDbEntity
  8
TOP
100
AcDbLine
 10
21.053666666666665
 20
69.33539451419253
 30
0.0
 11
24.5
 21
71.34262239271874
 31
0.0
  0
LINE
  5
A0
330
17
100
AcDbEntity
  8
TOP
100
AcDbLine
 10
0.637
 20
71.71039451419253
 30
0.0
 11
4.083333333333333
 21
73.71762239271874
 31
0.0
  0
LINE
  5
A1
330
17
100
AcDbEntity
  8
TOP
100
AcDbLine
 10
4.083333333333333
 20
73.71762239271874
 30
0.0
 11
7.529666666666666
 21
71.71039451419253
 31
0.0
  0
LINE
  5
A2
330
17
100
AcDbEntity
  8
TOP
100
AcDbLine
 10
8.803666666666667
 20
71.71039451419253
 30
0.0
 11
12.25
 21
73.71762239271874
 31
0.0
  0
LINE
  5
A3
330
17
100
AcDbEntity
  8
TOP
100
AcDbLine
 10
12.25
 20
73.71762239271874
 30
0.0
 11
15.696333333333332
 21
71.71039451419253
 31
0.0
  0
LINE
  5
A4
330
17
100
AcDbEntity
  8
TOP
100
AcDbLine
 10
16.970333333333333
 20
71.71039451419253
 30
0.0
 11
20.416666666666664
 21
73.71762239271874
 31
0.0
  0
LINE
  5
A5
330
17
100
AcDbEntity
  8
TOP
100
AcDbLine
 10
20.416666666666664
 20
73.71762239271874
 30
0.0
 11
23.863
 21
71.71039451419253
 31
0.0
  0
LINE
  5
A6
330
17
100
AcDbEntity
  8
TOP
100
AcDbLine
 10
0.0
 20
76.09262239271874
 30
0.0
 11
3.446333333333333
 21
74.08539451419253
 31
0.0
  0
LINE
  5
A7
330
17
100
AcDbEntity
  8
TOP
100
AcDbLine
 10
4.720333333333333
 20
74.08539451419253
 30
0.0
 11
8.166666666666666
 21
76.09262239271874
 31
0.0
  0
LINE
  5
A8
330
17
100
AcDbEntity
  8
TOP
100
AcDbLine
 10
8.166666666666666
 20
76.09262239271874
 30
0.0
 11
11.613
 21
74.08539451419253
 31
0.0
  0
LINE
  5
A9
330
17
100
AcDbEntity
  8
TOP
100
AcDbLine
 10
12.887
 20
74.08539451419253
 30
0.0
 11
16.333333333333332
 21
76.09262239271874
 31
0.0
  0
LINE
  5
AA
330
17
100
AcDbEntity
  8
TOP
100
AcDbLine
 10
16.333333333333332
 20
76.09262239271874
 30
0.0
 11
19.779666666666664
 21
74.08539451419253
 31
0.0
  0
LINE
  5
AB
330
17
100
AcDbEntity
  8
TOP
100
AcDbLine
 10
21.053666666666665
 20
74.08539451419253
 30
0.0
 11
24.5
 21
76.09262239271874
 31
0.0
  0
LINE
  5
AC
330
17
100
AcDbEntity
  8
TOP
100
AcDbLine
 10
0.637
 20
76.46039451419253
 30
0.0
 11
4.083333333333333
 21
78.46762239271874
 31
0.0
  0
LINE
  5
AD
330
17
100
AcDbEntity
  8
TOP
100
AcDbLine
 10
4.083333333333333
 20
78.46762239271874
 30
0.0
 11
7.529666666666666
 21
76.46039451419253
 31
0.0
  0
LINE
  5
AE
330
17
100
AcDbEntity
  8
TOP
100
AcDbLine
 10
8.803666666666667
 20
76.46039451419253
 30
0.0
 11
12.25
 21
78.46762239271874
 31
0.0
  0
LINE
  5
AF
330
17
100
AcDbEntity
  8
TOP
100
AcDbLine
 10
12.25
 20
78.46762239271874
 30
0.0
 11
15.696333333333332
 21
76.46039451419253
 31
0.0
  0
LINE
  5
B0
330
17
100
AcDbEntity
  8
TOP
100
AcDbLine
 10
16.970333333333333
 20
76.46039451419253
 30
0.0
 11
20.416666666666664
 21
78.46762239271874
 31
0.0
  0
LINE
  5
B1
330
17
100
AcDbEntity
  8
TOP
100
AcDbLine
 10
20.416666666666664
 20
78.46762239271874
 30
0.0
 11
23.863
 21
76.46039451419253
 31
0.0
  0
LINE
  5
B2
330
17
100
AcDbEntity
  8
TOP
100
AcDbLine
 10
0.0
 20
80.84262239271874
 30
0.0
 11
3.446333333333333
 21
78.83539451419253
 31
0.0
  0
LINE
  5
B3
330
17
100
AcDbEntity
  8
TOP
100
AcDbLine
 10
4.720333333333333
 20
78.83539451419253
 30
0.0
 11
8.166666666666666
 21
80.84262239271874
 31
0.0
  0
LINE
  5
B4
330
17
100
AcDbEntity
  8
TOP
100
AcDbLine
 10
8.166666666666666
 20
80.84262239271874
 30
0.0
 11
11.613
 21
78.83539451419253
 31
0.0
  0
LINE
  5
B5
330
17
100
AcDbEntity
  8
TOP
100
AcDbLine
 10
12.887
 20
78.83539451419253
 30
0.0
 11
16.333333333333332
 21
80.84262239271874
 31
0.0
  0
LINE
  5
B6
330
17
100
AcDbEntity
  8
TOP
100
AcDbLine
 10
16.333333333333332
 20
80.84262239271874
 30
0.0
 11
19.779666666666664
 21
78.83539451419253
 31
0.0
  0
LINE
  5
B7
330
17
100
AcDbEntity
  8
TOP
100
AcDbLine
 10
21.053666666666665
 20
78.83539451419253
 30
0.0
 11
24.5
 21
80.84262239271874
 31
0.0
  0
LINE
  5
B8
330
17
100
AcDbEntity
  8
TOP
100
AcDbLine
 10
0.637
 20
81.21039451419253
 30
0.0
 11
4.083333333333333
 21
83.21762239271874
 31
0.0
  0
LINE
  5
B9
330
17
100
AcDbEntity
  8
TOP
100
AcDbLine
 10
4.083333333333333
 20
83.21762239271874
 30
0.0
 11
7.529666666666666
 21
81.21039451419253
 31
0.0
  0
LINE
  5
BA
330
17
100
AcDbEntity
  8
TOP
100
AcDbLine
 10
8.803666666666667
 20
81.21039451419253
 30
0.0
 11
12.25
 21
83.21762239271874
 31
0.0
  0
LINE
  5
BB
330
17
100
AcDbEntity
  8
TOP
100
AcDbLine
 10
12.25
 20
83.21762239271874
 30
0.0
 11
15.696333333333332
 21
81.21039451419253
 31
0.0
  0
LINE
  5
BC
330
17
100
AcDbEntity
  8
TOP
100
AcDbLine
 10
16.970333333333333
 20
81.21039451419253
 30
0.0
 11
20.416666666666664
 21
83.21762239271874
 31
0.0
  0
LINE
  5
BD
330
17
100
AcDbEntity
  8
TOP
100
AcDbLine
 10
20.416666666666664
 20
83.21762239271874
 30
0.0
 11
23.863
 21
81.21039451419253
 31
0.0
  0
LINE
  5
BE
330
17
100
AcDbEntity
  8
TOP
100
AcDbLine
 10
0.0
 20
85.59262239271874
 30
0.0
 11
3.446333333333333
 21
83.58539451419253
 31
0.0
  0
LINE
  5
BF
330
17
100
AcDbEntity
  8
TOP
100
AcDbLine
 10
4.720333333333333
 20
83.58539451419253
 30
0.0
 11
8.166666666666666
 21
85.59262239271874
 31
0.0
  0
LINE
  5
C0
330
17
100
AcDbEntity
  8
TOP
100
AcDbLine
 10
8.166666666666666
 20
85.59262239271874
 30
0.0
 11
11.613
 21
83.58539451419253
 31
0.0
  0
LINE
  5
C1
330
17
100
AcDbEntity
  8
TOP
100
AcDbLine
 10
12.887
 20
83.58539451419253
 30
0.0
 11
16.333333333333332
 21
85.59262239271874
 31
0.0
  0
LINE
  5
C2
330
17
100
AcDbEntity
  8
TOP
100
AcDbLine
 10
16.333333333333332
 20
85.59262239271874
 30
0.0
 11
19.779666666666664
 21
83.58539451419253
 31
0.0
  0
LINE
  5
C3
330
17
100
AcDbEntity
  8
TOP
100
AcDbLine
 10
21.053666666666665
 20
83.58539451419253
 30
0.0
 11
24.5
 21
85.59262239271874
 31
0.0
  0
LINE
  5
C4
330
17
100
AcDbEntity
  8
TOP
100
AcDbLine
 10
0.637
 20
85.96039451419253
 30
0.0
 11
4.083333333333333
 21
87.96762239271874
 31
0.0
  0
LINE
  5
C5
330
17
100
AcDbEntity
  8
TOP
100
AcDbLine
 10
4.083333333333333
 20
87.96762239271874
 30
0.0
 11
7.529666666666666
 21
85.96039451419253
 31
0.0
  0
LINE
  5
C6
330
17
100
AcDbEntity
  8
TOP
100
AcDbLine
 10
8.803666666666667
 20
85.96039451419253
 30
0.0
 11
12.25
 21
87.96762239271874
 31
0.0
  0
LINE
  5
C7
330
17
100
AcDbEntity
  8
TOP
100
AcDbLine
 10
12.25
 20
87.96762239271874
 30
0.0
 11
15.696333333333332
 21
85.96039451419253
 31
0.0
  0
LINE
  5
C8
330
17
100
AcDbEntity
  8
TOP
100
AcDbLine
 10
16.970333333333333
 20
85.96039451419253
 30
0.0
 11
20.416666666666664
 21
87.96762239271874
 31
0.0
  0
LINE
  5
C9
330
17
100
AcDbEntity
  8
TOP
100
AcDbLine
 10
20.416666666666664
 20
87.96762239271874
 30
0.0
 11
23.863
 21
85.96039451419253
 31
0.0
  0
LINE
  5
CA
330
17
100
AcDbEntity
  8
TOP
100
AcDbLine
 10
0.0
 20
90.34262239271874
 30
0.0
 11
3.446333333333333
 21
88.33539451419253
 31
0.0
  0
LINE
  5
CB
330
17
100
AcDbEntity
  8
TOP
100
AcDbLine
 10
4.720333333333333
 20
88.33539451419253
 30
0.0
 11
8.166666666666666
 21
90.34262239271874
 31
0.0
  0
LINE
  5
CC
330
17
100
AcDbEntity
  8
TOP
100
AcDbLine
 10
8.166666666666666
 20
90.34262239271874
 30
0.0
 11
11.613
 21
88.33539451419253
 31
0.0
  0
LINE
  5
CD
330
17
100
AcDbEntity
  8
TOP
100
AcDbLine
 10
12.887
 20
88.33539451419253
 30
0.0
 11
16.333333333333332
 21
90.34262239271874
 31
0.0
  0
LINE
  5
CE
330
17
100
AcDbEntity
  8
TOP
100
AcDbLine
 10
16.333333333333332
 20
90.34262239271874
 30
0.0
 11
19.779666666666664
 21
88.33539451419253
 31
0.0
  0
LINE
  5
CF
330
17
100
AcDbEntity
  8
TOP
100
AcDbLine
 10
21.053666666666665
 20
88.33539451419253
 30
0.0
 11
24.5
 21
90.34262239271874
 31
0.0
  0
LINE
  5
D0
330
17
100
AcDbEntity
  8
TOP
100
AcDbLine
 10
0.637
 20
90.71039451419253
 30
0.0
 11
4.083333333333333
 21
92.71762239271874
 31
0.0
  0
LINE
  5
D1
330
17
100
AcDbEntity
  8
TOP
100
AcDbLine
 10
4.083333333333333
 20
92.71762239271874
 30
0.0
 11
7.529666666666666
 21
90.71039451419253
 31
0.0
  0
LINE
  5
D2
330
17
100
AcDbEntity
  8
TOP
100
AcDbLine
 10
8.803666666666667
 20
90.71039451419253
 30
0.0
 11
12.25
 21
92.71762239271874
 31
0.0
  0
LINE
  5
D3
330
17
100
AcDbEntity
  8
TOP
100
AcDbLine
 10
12.25
 20
92.71762239271874
 30
0.0
 11
15.696333333333332
 21
90.71039451419253
 31
0.0
  0
LINE
  5
D4
330
17
100
AcDbEntity
  8
TOP
100
AcDbLine
 10
16.970333333333333
 20
90.71039451419253
 30
0.0
 11
20.416666666666664
 21
92.71762239271874
 31
0.0
  0
LINE
  5
D5
330
17
100
AcDbEntity
  8
TOP
100
AcDbLine
 10
20.416666666666664
 20
92.71762239271874
 30
0.0
 11
23.863
 21
90.71039451419253
 31
0.0
  0
LINE
  5
D6
330
17
100
AcDbEntity
  8
TOP
100
AcDbLine
 10
0.0
 20
95.09262239271874
 30
0.0
 11
3.446333333333333
 21
93.08539451419253
 31
0.0
  0
LINE
  5
D7
330
17
100
AcDbEntity
  8
TOP
100
AcDbLine
 10
4.720333333333333
 20
93.08539451419253
 30
0.0
 11
8.166666666666666
 21
95.09262239271874
 31
0.0
  0
LINE
  5
D8
330
17
100
AcDbEntity
  8
TOP
100
AcDbLine
 10
8.166666666666666
 20
95.09262239271874
 30
0.0
 11
11.613
 21
93.08539451419253
 31
0.0
  0
LINE
  5
D9
330
17
100
AcDbEntity
  8
TOP
100
AcDbLine
 10
12.887
 20
93.08539451419253
 30
0.0
 11
16.333333333333332
 21
95.09262239271874
 31
0.0
  0
LINE
  5
DA
330
17
100
AcDbEntity
  8
TOP
100
AcDbLine
 10
16.333333333333332
 20
95.09262239271874
 30
0.0
 11
19.779666666666664
 21
93.08539451419253
 31
0.0
  0
LINE
  5
DB
330
17
100
AcDbEntity
  8
TOP
100
AcDbLine
 10
21.053666666666665
 20
93.08539451419253
 30
0.0
 11
24.5
 21
95.09262239271874
 31
0.0
  0
LINE
  5
DC
330
17
100
AcDbEntity
  8
TOP
100
AcDbLine
 10
0.637
 20
95.46039451419253
 30
0.0
 11
4.083333333333333
 21
97.46762239271874
 31
0.0
  0
LINE
  5
DD
330
17
100
AcDbEntity
  8
TOP
100
AcDbLine
 10
4.083333333333333
 20
97.46762239271874
 30
0.0
 11
7.529666666666666
 21
95.46039451419253
 31
0.0
  0
LINE
  5
DE
330
17
100
AcDbEntity
  8
TOP
100
AcDbLine
 10
8.803666666666667
 20
95.46039451419253
 30
0.0
 11
12.25
 21
97.46762239271874
 31
0.0
  0
LINE
  5
DF
330
17
100
AcDbEntity
  8
TOP
100
AcDbLine
 10
12.25
 20
97.46762239271874
 30
0.0
 11
15.696333333333332
 21
95.46039451419253
 31
0.0
  0
LINE
  5
E0
330
17
100
AcDbEntity
  8
TOP
100
AcDbLine
 10
16.970333333333333
 20
95.46039451419253
 30
0.0
 11
20.416666666666664
 21
97.46762239271874
 31
0.0
  0
LINE
  5
E1
330
17
100
AcDbEntity
  8
TOP
100
AcDbLine
 10
20.416666666666664
 20
97.46762239271874
 30
0.0
 11
23.863
 21
95.46039451419253
 31
0.0
  0
LINE
  5
E2
330
17
100
AcDbEntity
  8
TOP
100
AcDbLine
 10
0.0
 20
99.84262239271874
 30
0.0
 11
3.446333333333333
 21
97.83539451419253
 31
0.0
  0
LINE
  5
E3
330
17
100
AcDbEntity
  8
TOP
100
AcDbLine
 10
4.720333333333333
 20
97.83539451419253
 30
0.0
 11
8.166666666666666
 21
99.84262239271874
 31
0.0
  0
LINE
  5
E4
330
17
100
AcDbEntity
  8
TOP
100
AcDbLine
 10
8.166666666666666
 20
99.84262239271874
 30
0.0
 11
11.613
 21
97.83539451419253
 31
0.0
  0
LINE
  5
E5
330
17
100
AcDbEntity
  8
TOP
100
AcDbLine
 10
12.887
 20
97.83539451419253
 30
0.0
 11
16.333333333333332
 21
99.84262239271874
 31
0.0
  0
LINE
  5
E6
330
17
100
AcDbEntity
  8
TOP
100
AcDbLine
 10
16.333333333333332
 20
99.84262239271874
 30
0.0
 11
19.779666666666664
 21
97.83539451419253
 31
0.0
  0
LINE
  5
E7
330
17
100
AcDbEntity
  8
TOP
100
AcDbLine
 10
21.053666666666665
 20
97.83539451419253
 30
0.0
 11
24.5
 21
99.84262239271874
 31
0.0
  0
LINE
  5
E8
330
17
100
AcDbEntity
  8
TOP
100
AcDbLine
 10
0.637
 20
100.21039451419253
 30
0.0
 11
4.083333333333333
 21
102.21762239271874
 31
0.0
  0
LINE
  5
E9
330
17
100
AcDbEntity
  8
TOP
100
AcDbLine
 10
4.083333333333333
 20
102.21762239271874
 30
0.0
 11
7.529666666666666
 21
100.21039451419253
 31
0.0
  0
LINE
  5
EA
330
17
100
AcDbEntity
  8
TOP
100
AcDbLine
 10
8.803666666666667
 20
100.21039451419253
 30
0.0
 11
12.25
 21
102.21762239271874
 31
0.0
  0
LINE
  5
EB
330
17
100
AcDbEntity
  8
TOP
100
AcDbLine
 10
12.25
 20
102.21762239271874
 30
0.0
 11
15.696333333333332
 21
100.21039451419253
 31
0.0
  0
LINE
  5
EC
330
17
100
AcDbEntity
  8
TOP
100
AcDbLine
 10
16.970333333333333
 20
100.21039451419253
 30
0.0
 11
20.416666666666664
 21
102.21762239271874
 31
0.0
  0
LINE
  5
ED
330
17
100
AcDbEntity
  8
TOP
100
AcDbLine
 10
20.416666666666664
 20
102.21762239271874
 30
0.0
 11
23.863
 21
100.21039451419253
 31
0.0
  0
LINE
  5
EE
330
17
100
AcDbEntity
  8
TOP
100
AcDbLine
 10
0.0
 20
104.59262239271874
 30
0.0
 11
3.446333333333333
 21
102.58539451419253
 31
0.0
  0
LINE
  5
EF
330
17
100
AcDbEntity
  8
TOP
100
AcDbLine
 10
4.720333333333333
 20
102.58539451419253
 30
0.0
 11
8.166666666666666
 21
104.59262239271874
 31
0.0
  0
LINE
  5
F0
330
17
100
AcDbEntity
  8
TOP
100
AcDbLine
 10
8.166666666666666
 20
104.59262239271874
 30
0.0
 11
11.613
 21
102.58539451419253
 31
0.0
  0
LINE
  5
F1
330
17
100
AcDbEntity
  8
TOP
100
AcDbLine
 10
12.887
 20
102.58539451419253
 30
0.0
 11
16.333333333333332
 21
104.59262239271874
 31
0.0
  0
LINE
  5
F2
330
17
100
AcDbEntity
  8
TOP
100
AcDbLine
 10
16.333333333333332
 20
104.59262239271874
 30
0.0
 11
19.779666666666664
 21
102.58539451419253
 31
0.0
  0
LINE
  5
F3
330
17
100
AcDbEntity
  8
TOP
100
AcDbLine
 10
21.053666666666665
 20
102.58539451419253
 30
0.0
 11
24.5
 21
104.59262239271874
 31
0.0
  0
LINE
  5
F4
330
17
100
AcDbEntity
  8
TOP
100
AcDbLine
 10
0.637
 20
104.96039451419253
 30
0.0
 11
4.083333333333333
 21
106.96762239271874
 31
0.0
  0
LINE
  5
F5
330
17
100
AcDbEntity
  8
TOP
100
AcDbLine
 10
4.083333333333333
 20
106.96762239271874
 30
0.0
 11
7.529666666666666
 21
104.96039451419253
 31
0.0
  0
LINE
  5
F6
330
17
100
AcDbEntity
  8
TOP
100
AcDbLine
 10
8.803666666666667
 20
104.96039451419253
 30
0.0
 11
12.25
 21
106.96762239271874
 31
0.0
  0
LINE
  5
F7
330
17
100
AcDbEntity
  8
TOP
100
AcDbLine
 10
12.25
 20
106.96762239271874
 30
0.0
 11
15.696333333333332
 21
104.96039451419253
 31
0.0
  0
LINE
  5
F8
330
17
100
AcDbEntity
  8
TOP
100
AcDbLine
 10
16.970333333333333
 20
104.96039451419253
 30
0.0
 11
20.416666666666664
 21
106.96762239271874
 31
0.0
  0
LINE
  5
F9
330
17
100
AcDbEntity
  8
TOP
100
AcDbLine
 10
20.416666666666664
 20
106.96762239271874
 30
0.0
 11
23.863
 21
104.96039451419253
 31
0.0
  0
LINE
  5
FA
330
17
100
AcDbEntity
  8
TOP
100
AcDbLine
 10
0.0
 20
109.34262239271874
 30
0.0
 11
3.446333333333333
 21
107.33539451419253
 31
0.0
  0
LINE
  5
FB
330
17
100
AcDbEntity
  8
TOP
100
AcDbLine
 10
4.720333333333333
 20
107.33539451419253
 30
0.0
 11
8.166666666666666
 21
109.34262239271874
 31
0.0
  0
LINE
  5
FC
330
17
100
AcDbEntity
  8
TOP
100
AcDbLine
 10
8.166666666666666
 20
109.34262239271874
 30
0.0
 11
11.613
 21
107.33539451419253
 31
0.0
  0
LINE
  5
FD
330
17
100
AcDbEntity
  8
TOP
100
AcDbLine
 10
12.887
 20
107.33539451419253
 30
0.0
 11
16.333333333333332
 21
109.34262239271874
 31
0.0
  0
LINE
  5
FE
330
17
100
AcDbEntity
  8
TOP
100
AcDbLine
 10
16.333333333333332
 20
109.34262239271874
 30
0.0
 11
19.779666666666664
 21
107.33539451419253
 31
0.0
  0
LINE
  5
FF
330
17
100
AcDbEntity
  8
TOP
100
AcDbLine
 10
21.053666666666665
 20
107.33539451419253
 30
0.0
 11
24.5
 21
109.34262239271874
 31
0.0
  0
LINE
  5
100
330
17
100
AcDbEntity
  8
TOP
100
AcDbLine
 10
0.637
 20
109.71039451419253
 30
0.0
 11
4.083333333333333
 21
111.71762239271874
 31
0.0
  0
LINE
  5
101
330
17
100
AcDbEntity
  8
TOP
100
AcDbLine
 10
4.083333333333333
 20
111.71762239271874
 30
0.0
 11
7.529666666666666
 21
109.71039451419253
 31
0.0
  0
LINE
  5
102
330
17
100
AcDbEntity
  8
TOP
100
AcDbLine
 10
8.803666666666667
 20
109.71039451419253
 30
0.0
 11
12.25
 21
111.71762239271874
 31
0.0
  0
LINE
  5
103
330
17
100
AcDbEntity
  8
TOP
100
AcDbLine
 10
12.25
 20
111.71762239271874
 30
0.0
 11
15.696333333333332
 21
109.71039451419253
 31
0.0
  0
LINE
  5
104
330
17
100
AcDbEntity
  8
TOP
100
AcDbLine
 10
16.970333333333333
 20
109.71039451419253
 30
0.0
 11
20.416666666666664
 21
111.71762239271874
 31
0.0
  0
LINE
  5
105
330
17
100
AcDbEntity
  8
TOP
100
AcDbLine
 10
20.416666666666664
 20
111.71762239271874
 30
0.0
 11
23.863
 21
109.71039451419253
 31
0.0
  0
LINE
  5
106
330
17
100
AcDbEntity
  8
TOP
100
AcDbLine
 10
0.0
 20
114.09262239271874
 30
0.0
 11
3.446333333333333
 21
112.08539451419253
 31
0.0
  0
LINE
  5
107
330
17
100
AcDbEntity
  8
TOP
100
AcDbLine
 10
4.720333333333333
 20
112.08539451419253
 30
0.0
 11
8.166666666666666
 21
114.09262239271874
 31
0.0
  0
LINE
  5
108
330
17
100
AcDbEntity
  8
TOP
100
AcDbLine
 10
8.166666666666666
 20
114.09262239271874
 30
0.0
 11
11.613
 21
112.08539451419253
 31
0.0
  0
LINE
  5
109
330
17
100
AcDbEntity
  8
TOP
100
AcDbLine
 10
12.887
 20
112.08539451419253
 30
0.0
 11
16.333333333333332
 21
114.09262239271874
 31
0.0
  0
LINE
  5
10A
330
17
100
AcDbEntity
  8
TOP
100
AcDbLine
 10
16.333333333333332
 20
114.09262239271874
 30
0.0
 11
19.779666666666664
 21
112.08539451419253
 31
0.0
  0
LINE
  5
10B
330
17
100
AcDbEntity
  8
TOP
100
AcDbLine
 10
21.053666666666665
 20
112.08539451419253
 30
0.0
 11
24.5
 21
114.09262239271874
 31
0.0
  0
LINE
  5
10C
330
17
100
AcDbEntity
  8
TOP
100
AcDbLine
 10
0.637
 20
114.46039451419253
 30
0.0
 11
4.083333333333333
 21
116.46762239271874
 31
0.0
  0
LINE
  5
10D
330
17
100
AcDbEntity
  8
TOP
100
AcDbLine
 10
4.083333333333333
 20
116.46762239271874
 30
0.0
 11
7.529666666666666
 21
114.46039451419253
 31
0.0
  0
LINE
  5
10E
330
17
100
AcDbEntity
  8
TOP
100
AcDbLine
 10
8.803666666666667
 20
114.46039451419253
 30
0.0
 11
12.25
 21
116.46762239271874
 31
0.0
  0
LINE
  5
10F
330
17
100
AcDbEntity
  8
TOP
100
AcDbLine
 10
12.25
 20
116.46762239271874
 30
0.0
 11
15.696333333333332
 21
114.46039451419253
 31
0.0
  0
LINE
  5
110
330
17
100
AcDbEntity
  8
TOP
100
AcDbLine
 10
16.970333333333333
 20
114.46039451419253
 30
0.0
 11
20.416666666666664
 21
116.46762239271874
 31
0.0
  0
LINE
  5
111
330
17
100
AcDbEntity
  8
TOP
100
AcDbLine
 10
20.416666666666664
 20
116.46762239271874
 30
0.0
 11
23.863
 21
114.46039451419253
 31
0.0
  0
LINE
  5
112
330
17
100
AcDbEntity
  8
TOP
100
AcDbLine
 10
0.0
 20
118.84262239271874
 30
0.0
 11
3.446333333333333
 21
116.83539451419253
 31
0.0
  0
LINE
  5
113
330
17
100
AcDbEntity
  8
TOP
100
AcDbLine
 10
4.720333333333333
 20
116.83539451419253
 30
0.0
 11
8.166666666666666
 21
118.84262239271874
 31
0.0
  0
LINE
  5
114
330
17
100
AcDbEntity
  8
TOP
100
AcDbLine
 10
8.166666666666666
 20
118.84262239271874
 30
0.0
 11
11.613
 21
116.83539451419253
 31
0.0
  0
LINE
  5
115
330
17
100
AcDbEntity
  8
TOP
100
AcDbLine
 10
12.887
 20
116.83539451419253
 30
0.0
 11
16.333333333333332
 21
118.84262239271874
 31
0.0
  0
LINE
  5
116
330
17
100
AcDbEntity
  8
TOP
100
AcDbLine
 10
16.333333333333332
 20
118.84262239271874
 30
0.0
 11
19.779666666666664
 21
116.83539451419253
 31
0.0
  0
LINE
  5
117
330
17
100
AcDbEntity
  8
TOP
100
AcDbLine
 10
21.053666666666665
 20
116.83539451419253
 30
0.0
 11
24.5
 21
118.84262239271874
 31
0.0
  0
LINE
  5
118
330
17
100
AcDbEntity
  8
TOP
100
AcDbLine
 10
0.637
 20
119.21039451419253
 30
0.0
 11
4.083333333333333
 21
121.21762239271874
 31
0.0
  0
LINE
  5
119
330
17
100
AcDbEntity
  8
TOP
100
AcDbLine
 10
4.083333333333333
 20
121.21762239271874
 30
0.0
 11
7.529666666666666
 21
119.21039451419253
 31
0.0
  0
LINE
  5
11A
330
17
100
AcDbEntity
  8
TOP
100
AcDbLine
 10
8.803666666666667
 20
119.21039451419253
 30
0.0
 11
12.25
 21
121.21762239271874
 31
0.0
  0
LINE
  5
11B
330
17
100
AcDbEntity
  8
TOP
100
AcDbLine
 10
12.25
 20
121.21762239271874
 30
0.0
 11
15.696333333333332
 21
119.21039451419253
 31
0.0
  0
LINE
  5
11C
330
17
100
AcDbEntity
  8
TOP
100
AcDbLine
 10
16.970333333333333
 20
119.21039451419253
 30
0.0
 11
20.416666666666664
 21
121.21762239271874
 31
0.0
  0
LINE
  5
11D
330
17
100
AcDbEntity
  8
TOP
100
AcDbLine
 10
20.416666666666664
 20
121.21762239271874
 30
0.0
 11
23.863
 21
119.21039451419253
 31
0.0
  0
LINE
  5
11E
330
17
100
AcDbEntity
  8
TOP
100
AcDbLine
 10
0.0
 20
123.59262239271874
 30
0.0
 11
3.446333333333333
 21
121.58539451419253
 31
0.0
  0
LINE
  5
11F
330
17
100
AcDbEntity
  8
TOP
100
AcDbLine
 10
4.720333333333333
 20
121.58539451419253
 30
0.0
 11
8.166666666666666
 21
123.59262239271874
 31
0.0
  0
LINE
  5
120
330
17
100
AcDbEntity
  8
TOP
100
AcDbLine
 10
8.166666666666666
 20
123.59262239271874
 30
0.0
 11
11.613
 21
121.58539451419253
 31
0.0
  0
LINE
  5
121
330
17
100
AcDbEntity
  8
TOP
100
AcDbLine
 10
12.887
 20
121.58539451419253
 30
0.0
 11
16.333333333333332
 21
123.59262239271874
 31
0.0
  0
LINE
  5
122
330
17
100
AcDbEntity
  8
TOP
100
AcDbLine
 10
16.333333333333332
 20
123.59262239271874
 30
0.0
 11
19.779666666666664
 21
121.58539451419253
 31
0.0
  0
LINE
  5
123
330
17
100
AcDbEntity
  8
TOP
100
AcDbLine
 10
21.053666666666665
 20
121.58539451419253
 30
0.0
 11
24.5
 21
123.59262239271874
 31
0.0
  0
LINE
  5
124
330
17
100
AcDbEntity
  8
TOP
100
AcDbLine
 10
0.637
 20
123.96039451419253
 30
0.0
 11
4.083333333333333
 21
125.96762239271874
 31
0.0
  0
LINE
  5
125
330
17
100
AcDbEntity
  8
TOP
100
AcDbLine
 10
4.083333333333333
 20
125.96762239271874
 30
0.0
 11
7.529666666666666
 21
123.96039451419253
 31
0.0
  0
LINE
  5
126
330
17
100
AcDbEntity
  8
TOP
100
AcDbLine
 10
8.803666666666667
 20
123.96039451419253
 30
0.0
 11
12.25
 21
125.96762239271874
 31
0.0
  0
LINE
  5
127
330
17
100
AcDbEntity
  8
TOP
100
AcDbLine
 10
12.25
 20
125.96762239271874
 30
0.0
 11
15.696333333333332
 21
123.96039451419253
 31
0.0
  0
LINE
  5
128
330
17
100
AcDbEntity
  8
TOP
100
AcDbLine
 10
16.970333333333333
 20
123.96039451419253
 30
0.0
 11
20.416666666666664
 21
125.96762239271874
 31
0.0
  0
LINE
  5
129
330
17
100
AcDbEntity
  8
TOP
100
AcDbLine
 10
20.416666666666664
 20
125.96762239271874
 30
0.0
 11
23.863
 21
123.96039451419253
 31
0.0
  0
LINE
  5
12A
330
17
100
AcDbEntity
  8
TOP
100
AcDbLine
 10
0.0
 20
128.34262239271874
 30
0.0
 11
3.446333333333333
 21
126.33539451419253
 31
0.0
  0
LINE
  5
12B
330
17
100
AcDbEntity
  8
TOP
100
AcDbLine
 10
4.720333333333333
 20
126.33539451419253
 30
0.0
 11
8.166666666666666
 21
128.34262239271874
 31
0.0
  0
LINE
  5
12C
330
17
100
AcDbEntity
  8
TOP
100
AcDbLine
 10
8.166666666666666
 20
128.34262239271874
 30
0.0
 11
11.613
 21
126.33539451419253
 31
0.0
  0
LINE
  5
12D
330
17
100
AcDbEntity
  8
TOP
100
AcDbLine
 10
12.887
 20
126.33539451419253
 30
0.0
 11
16.333333333333332
 21
128.34262239271874
 31
0.0
  0
LINE
  5
12E
330
17
100
AcDbEntity
  8
TOP
100
AcDbLine
 10
16.333333333333332
 20
128.34262239271874
 30
0.0
 11
19.779666666666664
 21
126.33539451419253
 31
0.0
  0
LINE
  5
12F
330
17
100
AcDbEntity
  8
TOP
100
AcDbLine
 10
21.053666666666665
 20
126.33539451419253
 30
0.0
 11
24.5
 21
128.34262239271874
 31
0.0
  0
LINE
  5
130
330
17
100
AcDbEntity
  8
TOP
100
AcDbLine
 10
0.637
 20
128.71039451419253
 30
0.0
 11
4.083333333333333
 21
130.71762239271874
 31
0.0
  0
LINE
  5
131
330
17
100
AcDbEntity
  8
TOP
100
AcDbLine
 10
4.083333333333333
 20
130.71762239271874
 30
0.0
 11
7.529666666666666
 21
128.71039451419253
 31
0.0
  0
LINE
  5
132
330
17
100
AcDbEntity
  8
TOP
100
AcDbLine
 10
8.803666666666667
 20
128.71039451419253
 30
0.0
 11
12.25
 21
130.71762239271874
 31
0.0
  0
LINE
  5
133
330
17
100
AcDbEntity
  8
TOP
100
AcDbLine
 10
12.25
 20
130.71762239271874
 30
0.0
 11
15.696333333333332
 21
128.71039451419253
 31
0.0
  0
LINE
  5
134
330
17
100
AcDbEntity
  8
TOP
100
AcDbLine
 10
16.970333333333333
 20
128.71039451419253
 30
0.0
 11
20.416666666666664
 21
130.71762239271874
 31
0.0
  0
LINE
  5
135
330
17
100
AcDbEntity
  8
TOP
100
AcDbLine
 10
20.416666666666664
 20
130.71762239271874
 30
0.0
 11
23.863
 21
128.71039451419253
 31
0.0
  0
LINE
  5
136
330
17
100
AcDbEntity
  8
TOP
100
AcDbLine
 10
0.0
 20
133.09262239271874
 30
0.0
 11
3.446333333333333
 21
131.08539451419253
 31
0.0
  0
LINE
  5
137
330
17
100
AcDbEntity
  8
TOP
100
AcDbLine
 10
4.720333333333333
 20
131.08539451419253
 30
0.0
 11
8.166666666666666
 21
133.09262239271874
 31
0.0
  0
LINE
  5
138
330
17
100
AcDbEntity
  8
TOP
100
AcDbLine
 10
8.166666666666666
 20
133.09262239271874
 30
0.0
 11
11.613
 21
131.08539451419253
 31
0.0
  0
LINE
  5
139
330
17
100
AcDbEntity
  8
TOP
100
AcDbLine
 10
12.887
 20
131.08539451419253
 30
0.0
 11
16.333333333333332
 21
133.09262239271874
 31
0.0
  0
LINE
  5
13A
330
17
100
AcDbEntity
  8
TOP
100
AcDbLine
 10
16.333333333333332
 20
133.09262239271874
 30
0.0
 11
19.779666666666664
 21
131.08539451419253
 31
0.0
  0
LINE
  5
13B
330
17
100
AcDbEntity
  8
TOP
100
AcDbLine
 10
21.053666666666665
 20
131.08539451419253
 30
0.0
 11
24.5
 21
133.09262239271874
 31
0.0
  0
LINE
  5
13C
330
17
100
AcDbEntity
  8
TOP
100
AcDbLine
 10
0.637
 20
133.46039451419253
 30
0.0
 11
4.083333333333333
 21
135.46762239271874
 31
0.0
  0
LINE
  5
13D
330
17
100
AcDbEntity
  8
TOP
100
AcDbLine
 10
4.083333333333333
 20
135.46762239271874
 30
0.0
 11
7.529666666666666
 21
133.46039451419253
 31
0.0
  0
LINE
  5
13E
330
17
100
AcDbEntity
  8
TOP
100
AcDbLine
 10
8.803666666666667
 20
133.46039451419253
 30
0.0
 11
12.25
 21
135.46762239271874
 31
0.0
  0
LINE
  5
13F
330
17
100
AcDbEntity
  8
TOP
100
AcDbLine
 10
12.25
 20
135.46762239271874
 30
0.0
 11
15.696333333333332
 21
133.46039451419253
 31
0.0
  0
LINE
  5
140
330
17
100
AcDbEntity
  8
TOP
100
AcDbLine
 10
16.970333333333333
 20
133.46039451419253
 30
0.0
 11
20.416666666666664
 21
135.46762239271874
 31
0.0
  0
LINE
  5
141
330
17
100
AcDbEntity
  8
TOP
100
AcDbLine
 10
20.416666666666664
 20
135.46762239271874
 30
0.0
 11
23.863
 21
133.46039451419253
 31
0.0
  0
LINE
  5
142
330
17
100
AcDbEntity
  8
TOP
100
AcDbLine
 10
0.0
 20
137.84262239271874
 30
0.0
 11
3.446333333333333
 21
135.83539451419253
 31
0.0
  0
LINE
  5
143
330
17
100
AcDbEntity
  8
TOP
100
AcDbLine
 10
4.720333333333333
 20
135.83539451419253
 30
0.0
 11
8.166666666666666
 21
137.84262239271874
 31
0.0
  0
LINE
  5
144
330
17
100
AcDbEntity
  8
TOP
100
AcDbLine
 10
8.166666666666666
 20
137.84262239271874
 30
0.0
 11
11.613
 21
135.83539451419253
 31
0.0
  0
LINE
  5
145
330
17
100
AcDbEntity
  8
TOP
100
AcDbLine
 10
12.887
 20
135.83539451419253
 30
0.0
 11
16.333333333333332
 21
137.84262239271874
 31
0.0
  0
LINE
  5
146
330
17
100
AcDbEntity
  8
TOP
100
AcDbLine
 10
16.333333333333332
 20
137.84262239271874
 30
0.0
 11
19.779666666666664
 21
135.83539451419253
 31
0.0
  0
LINE
  5
147
330
17
100
AcDbEntity
  8
TOP
100
AcDbLine
 10
21.053666666666665
 20
135.83539451419253
 30
0.0
 11
24.5
 21
137.84262239271874
 31
0.0
  0
LINE
  5
148
330
17
100
AcDbEntity
  8
TOP
100
AcDbLine
 10
0.637
 20
138.21039451419253
 30
0.0
 11
4.083333333333333
 21
140.21762239271874
 31
0.0
  0
LINE
  5
149
330
17
100
AcDbEntity
  8
TOP
100
AcDbLine
 10
4.083333333333333
 20
140.21762239271874
 30
0.0
 11
7.529666666666666
 21
138.21039451419253
 31
0.0
  0
LINE
  5
14A
330
17
100
AcDbEntity
  8
TOP
100
AcDbLine
 10
8.803666666666667
 20
138.21039451419253
 30
0.0
 11
12.25
 21
140.21762239271874
 31
0.0
  0
LINE
  5
14B
330
17
100
AcDbEntity
  8
TOP
100
AcDbLine
 10
12.25
 20
140.21762239271874
 30
0.0
 11
15.696333333333332
 21
138.21039451419253
 31
0.0
  0
LINE
  5
14C
330
17
100
AcDbEntity
  8
TOP
100
AcDbLine
 10
16.970333333333333
 20
138.21039451419253
 30
0.0
 11
20.416666666666664
 21
140.21762239271874
 31
0.0
  0
LINE
  5
14D
330
17
100
AcDbEntity
  8
TOP
100
AcDbLine
 10
20.416666666666664
 20
140.21762239271874
 30
0.0
 11
23.863
 21
138.21039451419253
 31
0.0
  0
LINE
  5
14E
330
17
100
AcDbEntity
  8
TOP
100
AcDbLine
 10
0.0
 20
142.59262239271874
 30
0.0
 11
3.446333333333333
 21
140.58539451419253
 31
0.0
  0
LINE
  5
14F
330
17
100
AcDbEntity
  8
TOP
100
AcDbLine
 10
4.720333333333333
 20
140.58539451419253
 30
0.0
 11
8.166666666666666
 21
142.59262239271874
 31
0.0
  0
LINE
  5
150
330
17
100
AcDbEntity
  8
TOP
100
AcDbLine
 10
8.166666666666666
 20
142.59262239271874
 30
0.0
 11
11.613
 21
140.58539451419253
 31
0.0
  0
LINE
  5
151
330
17
100
AcDbEntity
  8
TOP
100
AcDbLine
 10
12.887
 20
140.58539451419253
 30
0.0
 11
16.333333333333332
 21
142.59262239271874
 31
0.0
  0
LINE
  5
152
330
17
100
AcDbEntity
  8
TOP
100
AcDbLine
 10
16.333333333333332
 20
142.59262239271874
 30
0.0
 11
19.779666666666664
 21
140.58539451419253
 31
0.0
  0
LINE
  5
153
330
17
100
AcDbEntity
  8
TOP
100
AcDbLine
 10
21.053666666666665
 20
140.58539451419253
 30
0.0
 11
24.5
 21
142.59262239271874
 31
0.0
  0
LINE
  5
154
330
17
100
AcDbEntity
  8
TOP
100
AcDbLine
 10
0.637
 20
142.96039451419253
 30
0.0
 11
4.083333333333333
 21
144.96762239271874
 31
0.0
  0
LINE
  5
155
330
17
100
AcDbEntity
  8
TOP
100
AcDbLine
 10
4.083333333333333
 20
144.96762239271874
 30
0.0
 11
7.529666666666666
 21
142.96039451419253
 31
0.0
  0
LINE
  5
156
330
17
100
AcDbEntity
  8
TOP
100
AcDbLine
 10
8.803666666666667
 20
142.96039451419253
 30
0.0
 11
12.25
 21
144.96762239271874
 31
0.0
  0
LINE
  5
157
330
17
100
AcDbEntity
  8
TOP
100
AcDbLine
 10
12.25
 20
144.96762239271874
 30
0.0
 11
15.696333333333332
 21
142.96039451419253
 31
0.0
  0
LINE
  5
158
330
17
100
AcDbEntity
  8
TOP
100
AcDbLine
 10
16.970333333333333
 20
142.96039451419253
 30
0.0
 11
20.416666666666664
 21
144.96762239271874
 31
0.0
  0
LINE
  5
159
330
17
100
AcDbEntity
  8
TOP
100
AcDbLine
 10
20.416666666666664
 20
144.96762239271874
 30
0.0
 11
23.863
 21
142.96039451419253
 31
0.0
  0
LINE
  5
15A
330
17
100
AcDbEntity
  8
TOP
100
AcDbLine
 10
0.0
 20
147.34262239271874
 30
0.0
 11
3.446333333333333
 21
145.33539451419253
 31
0.0
  0
LINE
  5
15B
330
17
100
AcDbEntity
  8
TOP
100
AcDbLine
 10
4.720333333333333
 20
145.33539451419253
 30
0.0
 11
8.166666666666666
 21
147.34262239271874
 31
0.0
  0
LINE
  5
15C
330
17
100
AcDbEntity
  8
TOP
100
AcDbLine
 10
8.166666666666666
 20
147.34262239271874
 30
0.0
 11
11.613
 21
145.33539451419253
 31
0.0
  0
LINE
  5
15D
330
17
100
AcDbEntity
  8
TOP
100
AcDbLine
 10
12.887
 20
145.33539451419253
 30
0.0
 11
16.333333333333332
 21
147.34262239271874
 31
0.0
  0
LINE
  5
15E
330
17
100
AcDbEntity
  8
TOP
100
AcDbLine
 10
16.333333333333332
 20
147.34262239271874
 30
0.0
 11
19.779666666666664
 21
145.33539451419253
 31
0.0
  0
LINE
  5
15F
330
17
100
AcDbEntity
  8
TOP
100
AcDbLine
 10
21.053666666666665
 20
145.33539451419253
 30
0.0
 11
24.5
 21
147.34262239271874
 31
0.0
  0
LINE
  5
160
330
17
100
AcDbEntity
  8
TOP
100
AcDbLine
 10
0.637
 20
147.71039451419253
 30
0.0
 11
4.083333333333333
 21
149.71762239271874
 31
0.0
  0
LINE
  5
161
330
17
100
AcDbEntity
  8
TOP
100
AcDbLine
 10
4.083333333333333
 20
149.71762239271874
 30
0.0
 11
7.529666666666666
 21
147.71039451419253
 31
0.0
  0
LINE
  5
162
330
17
100
AcDbEntity
  8
TOP
100
AcDbLine
 10
8.803666666666667
 20
147.71039451419253
 30
0.0
 11
12.25
 21
149.71762239271874
 31
0.0
  0
LINE
  5
163
330
17
100
AcDbEntity
  8
TOP
100
AcDbLine
 10
12.25
 20
149.71762239271874
 30
0.0
 11
15.696333333333332
 21
147.71039451419253
 31
0.0
  0
LINE
  5
164
330
17
100
AcDbEntity
  8
TOP
100
AcDbLine
 10
16.970333333333333
 20
147.71039451419253
 30
0.0
 11
20.416666666666664
 21
149.71762239271874
 31
0.0
  0
LINE
  5
165
330
17
100
AcDbEntity
  8
TOP
100
AcDbLine
 10
20.416666666666664
 20
149.71762239271874
 30
0.0
 11
23.863
 21
147.71039451419253
 31
0.0
  0
LINE
  5
166
330
17
100
AcDbEntity
  8
TOP
100
AcDbLine
 10
0.0
 20
152.09262239271874
 30
0.0
 11
3.446333333333333
 21
150.08539451419253
 31
0.0
  0
LINE
  5
167
330
17
100
AcDbEntity
  8
TOP
100
AcDbLine
 10
4.720333333333333
 20
150.08539451419253
 30
0.0
 11
8.166666666666666
 21
152.09262239271874
 31
0.0
  0
LINE
  5
168
330
17
100
AcDbEntity
  8
TOP
100
AcDbLine
 10
8.166666666666666
 20
152.09262239271874
 30
0.0
 11
11.613
 21
150.08539451419253
 31
0.0
  0
LINE
  5
169
330
17
100
AcDbEntity
  8
TOP
100
AcDbLine
 10
12.887
 20
150.08539451419253
 30
0.0
 11
16.333333333333332
 21
152.09262239271874
 31
0.0
  0
LINE
  5
16A
330
17
100
AcDbEntity
  8
TOP
100
AcDbLine
 10
16.333333333333332
 20
152.09262239271874
 30
0.0
 11
19.779666666666664
 21
150.08539451419253
 31
0.0
  0
LINE
  5
16B
330
17
100
AcDbEntity
  8
TOP
100
AcDbLine
 10
21.053666666666665
 20
150.08539451419253
 30
0.0
 11
24.5
 21
152.09262239271874
 31
0.0
  0
LINE
  5
16C
330
17
100
AcDbEntity
  8
TOP
100
AcDbLine
 10
0.637
 20
152.46039451419253
 30
0.0
 11
4.083333333333333
 21
154.46762239271874
 31
0.0
  0
LINE
  5
16D
330
17
100
AcDbEntity
  8
TOP
100
AcDbLine
 10
4.083333333333333
 20
154.46762239271874
 30
0.0
 11
7.529666666666666
 21
152.46039451419253
 31
0.0
  0
LINE
  5
16E
330
17
100
AcDbEntity
  8
TOP
100
AcDbLine
 10
8.803666666666667
 20
152.46039451419253
 30
0.0
 11
12.25
 21
154.46762239271874
 31
0.0
  0
LINE
  5
16F
330
17
100
AcDbEntity
  8
TOP
100
AcDbLine
 10
12.25
 20
154.46762239271874
 30
0.0
 11
15.696333333333332
 21
152.46039451419253
 31
0.0
  0
LINE
  5
170
330
17
100
AcDbEntity
  8
TOP
100
AcDbLine
 10
16.970333333333333
 20
152.46039451419253
 30
0.0
 11
20.416666666666664
 21
154.46762239271874
 31
0.0
  0
LINE
  5
171
330
17
100
AcDbEntity
  8
TOP
100
AcDbLine
 10
20.416666666666664
 20
154.46762239271874
 30
0.0
 11
23.863
 21
152.46039451419253
 31
0.0
  0
LINE
  5
172
330
17
100
AcDbEntity
  8
TOP
100
AcDbLine
 10
0.0
 20
156.84262239271874
 30
0.0
 11
3.446333333333333
 21
154.83539451419253
 31
0.0
  0
LINE
  5
173
330
17
100
AcDbEntity
  8
TOP
100
AcDbLine
 10
4.720333333333333
 20
154.83539451419253
 30
0.0
 11
8.166666666666666
 21
156.84262239271874
 31
0.0
  0
LINE
  5
174
330
17
100
AcDbEntity
  8
TOP
100
AcDbLine
 10
8.166666666666666
 20
156.84262239271874
 30
0.0
 11
11.613
 21
154.83539451419253
 31
0.0
  0
LINE
  5
175
330
17
100
AcDbEntity
  8
TOP
100
AcDbLine
 10
12.887
 20
154.83539451419253
 30
0.0
 11
16.333333333333332
 21
156.84262239271874
 31
0.0
  0
LINE
  5
176
330
17
100
AcDbEntity
  8
TOP
100
AcDbLine
 10
16.333333333333332
 20
156.84262239271874
 30
0.0
 11
19.779666666666664
 21
154.83539451419253
 31
0.0
  0
LINE
  5
177
330
17
100
AcDbEntity
  8
TOP
100
AcDbLine
 10
21.053666666666665
 20
154.83539451419253
 30
0.0
 11
24.5
 21
156.84262239271874
 31
0.0
  0
LINE
  5
178
330
17
100
AcDbEntity
  8
TOP
100
AcDbLine
 10
0.637
 20
157.21039451419253
 30
0.0
 11
4.083333333333333
 21
159.21762239271874
 31
0.0
  0
LINE
  5
179
330
17
100
AcDbEntity
  8
TOP
100
AcDbLine
 10
4.083333333333333
 20
159.21762239271874
 30
0.0
 11
7.529666666666666
 21
157.21039451419253
 31
0.0
  0
LINE
  5
17A
330
17
100
AcDbEntity
  8
TOP
100
AcDbLine
 10
8.803666666666667
 20
157.21039451419253
 30
0.0
 11
12.25
 21
159.21762239271874
 31
0.0
  0
LINE
  5
17B
330
17
100
AcDbEntity
  8
TOP
100
AcDbLine
 10
12.25
 20
159.21762239271874
 30
0.0
 11
15.696333333333332
 21
157.21039451419253
 31
0.0
  0
LINE
  5
17C
330
17
100
AcDbEntity
  8
TOP
100
AcDbLine
 10
16.970333333333333
 20
157.21039451419253
 30
0.0
 11
20.416666666666664
 21
159.21762239271874
 31
0.0
  0
LINE
  5
17D
330
17
100
AcDbEntity
  8
TOP
100
AcDbLine
 10
20.416666666666664
 20
159.21762239271874
 30
0.0
 11
23.863
 21
157.21039451419253
 31
0.0
  0
LINE
  5
17E
330
17
100
AcDbEntity
  8
TOP
100
AcDbLine
 10
0.0
 20
161.59262239271874
 30
0.0
 11
3.446333333333333
 21
159.58539451419253
 31
0.0
  0
LINE
  5
17F
330
17
100
AcDbEntity
  8
TOP
100
AcDbLine
 10
4.720333333333333
 20
159.58539451419253
 30
0.0
 11
8.166666666666666
 21
161.59262239271874
 31
0.0
  0
LINE
  5
180
330
17
100
AcDbEntity
  8
TOP
100
AcDbLine
 10
8.166666666666666
 20
161.59262239271874
 30
0.0
 11
11.613
 21
159.58539451419253
 31
0.0
  0
LINE
  5
181
330
17
100
AcDbEntity
  8
TOP
100
AcDbLine
 10
12.887
 20
159.58539451419253
 30
0.0
 11
16.333333333333332
 21
161.59262239271874
 31
0.0
  0
LINE
  5
182
330
17
100
AcDbEntity
  8
TOP
100
AcDbLine
 10
16.333333333333332
 20
161.59262239271874
 30
0.0
 11
19.779666666666664
 21
159.58539451419253
 31
0.0
  0
LINE
  5
183
330
17
100
AcDbEntity
  8
TOP
100
AcDbLine
 10
21.053666666666665
 20
159.58539451419253
 30
0.0
 11
24.5
 21
161.59262239271874
 31
0.0
  0
LINE
  5
184
330
17
100
AcDbEntity
  8
TOP
100
AcDbLine
 10
0.637
 20
161.96039451419253
 30
0.0
 11
4.083333333333333
 21
163.96762239271874
 31
0.0
  0
LINE
  5
185
330
17
100
AcDbEntity
  8
TOP
100
AcDbLine
 10
4.083333333333333
 20
163.96762239271874
 30
0.0
 11
7.529666666666666
 21
161.96039451419253
 31
0.0
  0
LINE
  5
186
330
17
100
AcDbEntity
  8
TOP
100
AcDbLine
 10
8.803666666666667
 20
161.96039451419253
 30
0.0
 11
12.25
 21
163.96762239271874
 31
0.0
  0
LINE
  5
187
330
17
100
AcDbEntity
  8
TOP
100
AcDbLine
 10
12.25
 20
163.96762239271874
 30
0.0
 11
15.696333333333332
 21
161.96039451419253
 31
0.0
  0
LINE
  5
188
330
17
100
AcDbEntity
  8
TOP
100
AcDbLine
 10
16.970333333333333
 20
161.96039451419253
 30
0.0
 11
20.416666666666664
 21
163.96762239271874
 31
0.0
  0
LINE
  5
189
330
17
100
AcDbEntity
  8
TOP
100
AcDbLine
 10
20.416666666666664
 20
163.96762239271874
 30
0.0
 11
23.863
 21
161.96039451419253
 31
0.0
  0
LINE
  5
18A
330
17
100
AcDbEntity
  8
TOP
100
AcDbLine
 10
0.0
 20
166.34262239271874
 30
0.0
 11
3.446333333333333
 21
164.33539451419253
 31
0.0
  0
LINE
  5
18B
330
17
100
AcDbEntity
  8
TOP
100
AcDbLine
 10
4.720333333333333
 20
164.33539451419253
 30
0.0
 11
8.166666666666666
 21
166.34262239271874
 31
0.0
  0
LINE
  5
18C
330
17
100
AcDbEntity
  8
TOP
100
AcDbLine
 10
8.166666666666666
 20
166.34262239271874
 30
0.0
 11
11.613
 21
164.33539451419253
 31
0.0
  0
LINE
  5
18D
330
17
100
AcDbEntity
  8
TOP
100
AcDbLine
 10
12.887
 20
164.33539451419253
 30
0.0
 11
16.333333333333332
 21
166.34262239271874
 31
0.0
  0
LINE
  5
18E
330
17
100
AcDbEntity
  8
TOP
100
AcDbLine
 10
16.333333333333332
 20
166.34262239271874
 30
0.0
 11
19.779666666666664
 21
164.33539451419253
 31
0.0
  0
LINE
  5
18F
330
17
100
AcDbEntity
  8
TOP
100
AcDbLine
 10
21.053666666666665
 20
164.33539451419253
 30
0.0
 11
24.5
 21
166.34262239271874
 31
0.0
  0
LINE
  5
190
330
17
100
AcDbEntity
  8
TOP
100
AcDbLine
 10
0.637
 20
166.71039451419253
 30
0.0
 11
4.083333333333333
 21
168.71762239271874
 31
0.0
  0
LINE
  5
191
330
17
100
AcDbEntity
  8
TOP
100
AcDbLine
 10
4.083333333333333
 20
168.71762239271874
 30
0.0
 11
7.529666666666666
 21
166.71039451419253
 31
0.0
  0
LINE
  5
192
330
17
100
AcDbEntity
  8
TOP
100
AcDbLine
 10
8.803666666666667
 20
166.71039451419253
 30
0.0
 11
12.25
 21
168.71762239271874
 31
0.0
  0
LINE
  5
193
330
17
100
AcDbEntity
  8
TOP
100
AcDbLine
 10
12.25
 20
168.71762239271874
 30
0.0
 11
15.696333333333332
 21
166.71039451419253
 31
0.0
  0
LINE
  5
194
330
17
100
AcDbEntity
  8
TOP
100
AcDbLine
 10
16.970333333333333
 20
166.71039451419253
 30
0.0
 11
20.416666666666664
 21
168.71762239271874
 31
0.0
  0
LINE
  5
195
330
17
100
AcDbEntity
  8
TOP
100
AcDbLine
 10
20.416666666666664
 20
168.71762239271874
 30
0.0
 11
23.863
 21
166.71039451419253
 31
0.0
  0
LINE
  5
196
330
17
100
AcDbEntity
  8
TOP
100
AcDbLine
 10
0.0
 20
171.09262239271874
 30
0.0
 11
3.446333333333333
 21
169.08539451419253
 31
0.0
  0
LINE
  5
197
330
17
100
AcDbEntity
  8
TOP
100
AcDbLine
 10
4.720333333333333
 20
169.08539451419253
 30
0.0
 11
8.166666666666666
 21
171.09262239271874
 31
0.0
  0
LINE
  5
198
330
17
100
AcDbEntity
  8
TOP
100
AcDbLine
 10
8.166666666666666
 20
171.09262239271874
 30
0.0
 11
11.613
 21
169.08539451419253
 31
0.0
  0
LINE
  5
199
330
17
100
AcDbEntity
  8
TOP
100
AcDbLine
 10
12.887
 20
169.08539451419253
 30
0.0
 11
16.333333333333332
 21
171.09262239271874
 31
0.0
  0
LINE
  5
19A
330
17
100
AcDbEntity
  8
TOP
100
AcDbLine
 10
16.333333333333332
 20
171.09262239271874
 30
0.0
 11
19.779666666666664
 21
169.08539451419253
 31
0.0
  0
LINE
  5
19B
330
17
100
AcDbEntity
  8
TOP
100
AcDbLine
 10
21.053666666666665
 20
169.08539451419253
 30
0.0
 11
24.5
 21
171.09262239271874
 31
0.0
  0
LINE
  5
19C
330
17
100
AcDbEntity
  8
TOP
100
AcDbLine
 10
0.637
 20
171.46039451419253
 30
0.0
 11
4.083333333333333
 21
173.46762239271874
 31
0.0
  0
LINE
  5
19D
330
17
100
AcDbEntity
  8
TOP
100
AcDbLine
 10
4.083333333333333
 20
173.46762239271874
 30
0.0
 11
7.529666666666666
 21
171.46039451419253
 31
0.0
  0
LINE
  5
19E
330
17
100
AcDbEntity
  8
TOP
100
AcDbLine
 10
8.803666666666667
 20
171.46039451419253
 30
0.0
 11
12.25
 21
173.46762239271874
 31
0.0
  0
LINE
  5
19F
330
17
100
AcDbEntity
  8
TOP
100
AcDbLine
 10
12.25
 20
173.46762239271874
 30
0.0
 11
15.696333333333332
 21
171.46039451419253
 31
0.0
  0
LINE
  5
1A0
330
17
100
AcDbEntity
  8
TOP
100
AcDbLine
 10
16.970333333333333
 20
171.46039451419253
 30
0.0
 11
20.416666666666664
 21
173.46762239271874
 31
0.0
  0
LINE
  5
1A1
330
17
100
AcDbEntity
  8
TOP
100
AcDbLine
 10
20.416666666666664
 20
173.46762239271874
 30
0.0
 11
23.863
 21
171.46039451419253
 31
0.0
  0
LINE
  5
1A2
330
17
100
AcDbEntity
  8
TOP
100
AcDbLine
 10
0.0
 20
175.84262239271874
 30
0.0
 11
3.446333333333333
 21
173.83539451419253
 31
0.0
  0
LINE
  5
1A3
330
17
100
AcDbEntity
  8
TOP
100
AcDbLine
 10
4.720333333333333
 20
173.83539451419253
 30
0.0
 11
8.166666666666666
 21
175.84262239271874
 31
0.0
  0
LINE
  5
1A4
330
17
100
AcDbEntity
  8
TOP
100
AcDbLine
 10
8.166666666666666
 20
175.84262239271874
 30
0.0
 11
11.613
 21
173.83539451419253
 31
0.0
  0
LINE
  5
1A5
330
17
100
AcDbEntity
  8
TOP
100
AcDbLine
 10
12.887
 20
173.83539451419253
 30
0.0
 11
16.333333333333332
 21
175.84262239271874
 31
0.0
  0
LINE
  5
1A6
330
17
100
AcDbEntity
  8
TOP
100
AcDbLine
 10
16.333333333333332
 20
175.84262239271874
 30
0.0
 11
19.779666666666664
 21
173.83539451419253
 31
0.0
  0
LINE
  5
1A7
330
17
100
AcDbEntity
  8
TOP
100
AcDbLine
 10
21.053666666666665
 20
173.83539451419253
 30
0.0
 11
24.5
 21
175.84262239271874
 31
0.0
  0
LINE
  5
1A8
330
17
100
AcDbEntity
  8
TOP
100
AcDbLine
 10
0.637
 20
176.21039451419253
 30
0.0
 11
4.083333333333333
 21
178.21762239271874
 31
0.0
  0
LINE
  5
1A9
330
17
100
AcDbEntity
  8
TOP
100
AcDbLine
 10
4.083333333333333
 20
178.21762239271874
 30
0.0
 11
7.529666666666666
 21
176.21039451419253
 31
0.0
  0
LINE
  5
1AA
330
17
100
AcDbEntity
  8
TOP
100
AcDbLine
 10
8.803666666666667
 20
176.21039451419253
 30
0.0
 11
12.25
 21
178.21762239271874
 31
0.0
  0
LINE
  5
1AB
330
17
100
AcDbEntity
  8
TOP
100
AcDbLine
 10
12.25
 20
178.21762239271874
 30
0.0
 11
15.696333333333332
 21
176.21039451419253
 31
0.0
  0
LINE
  5
1AC
330
17
100
AcDbEntity
  8
TOP
100
AcDbLine
 10
16.970333333333333
 20
176.21039451419253
 30
0.0
 11
20.416666666666664
 21
178.21762239271874
 31
0.0
  0
LINE
  5
1AD
330
17
100
AcDbEntity
  8
TOP
100
AcDbLine
 10
20.416666666666664
 20
178.21762239271874
 30
0.0
 11
23.863
 21
176.21039451419253
 31
0.0
  0
LINE
  5
1AE
330
17
100
AcDbEntity
  8
TOP
100
AcDbLine
 10
24.5
 20
28.592622392718745
 30
0.0
 11
27.94633333333333
 21
26.585394514192537
 31
0.0
  0
LINE
  5
1AF
330
17
100
AcDbEntity
  8
TOP
100
AcDbLine
 10
29.220333333333333
 20
26.585394514192537
 30
0.0
 11
32.666666666666664
 21
28.592622392718745
 31
0.0
  0
LINE
  5
1B0
330
17
100
AcDbEntity
  8
TOP
100
AcDbLine
 10
32.666666666666664
 20
28.592622392718745
 30
0.0
 11
36.113
 21
26.585394514192537
 31
0.0
  0
LINE
  5
1B1
330
17
100
AcDbEntity
  8
TOP
100
AcDbLine
 10
37.387
 20
26.585394514192537
 30
0.0
 11
40.83333333333333
 21
28.592622392718745
 31
0.0
  0
LINE
  5
1B2
330
17
100
AcDbEntity
  8
TOP
100
AcDbLine
 10
40.83333333333333
 20
28.592622392718745
 30
0.0
 11
44.279666666666664
 21
26.585394514192537
 31
0.0
  0
LINE
  5
1B3
330
17
100
AcDbEntity
  8
TOP
100
AcDbLine
 10
45.553666666666665
 20
26.585394514192537
 30
0.0
 11
49.0
 21
28.592622392718745
 31
0.0
  0
LINE
  5
1B4
330
17
100
AcDbEntity
  8
TOP
100
AcDbLine
 10
25.137
 20
28.960394514192537
 30
0.0
 11
28.583333333333332
 21
30.967622392718745
 31
0.0
  0
LINE
  5
1B5
330
17
100
AcDbEntity
  8
TOP
100
AcDbLine
 10
28.583333333333332
 20
30.967622392718745
 30
0.0
 11
32.029666666666664
 21
28.960394514192537
 31
0.0
  0
LINE
  5
1B6
330
17
100
AcDbEntity
  8
TOP
100
AcDbLine
 10
33.303666666666665
 20
28.960394514192537
 30
0.0
 11
36.75
 21
30.967622392718745
 31
0.0
  0
LINE
  5
1B7
330
17
100
AcDbEntity
  8
TOP
100
AcDbLine
 10
36.75
 20
30.967622392718745
 30
0.0
 11
40.19633333333333
 21
28.960394514192537
 31
0.0
  0
LINE
  5
1B8
330
17
100
AcDbEntity
  8
TOP
100
AcDbLine
 10
41.47033333333333
 20
28.960394514192537
 30
0.0
 11
44.916666666666664
 21
30.967622392718745
 31
0.0
  0
LINE
  5
1B9
330
17
100
AcDbEntity
  8
TOP
100
AcDbLine
 10
44.916666666666664
 20
30.967622392718745
 30
0.0
 11
48.363
 21
28.960394514192537
 31
0.0
  0
LINE
  5
1BA
330
17
100
AcDbEntity
  8
TOP
100
AcDbLine
 10
24.5
 20
33.342622392718745
 30
0.0
 11
27.94633333333333
 21
31.335394514192537
 31
0.0
  0
LINE
  5
1BB
330
17
100
AcDbEntity
  8
TOP
100
AcDbLine
 10
29.220333333333333
 20
31.335394514192537
 30
0.0
 11
32.666666666666664
 21
33.342622392718745
 31
0.0
  0
LINE
  5
1BC
330
17
100
AcDbEntity
  8
TOP
100
AcDbLine
 10
32.666666666666664
 20
33.342622392718745
 30
0.0
 11
36.113
 21
31.335394514192537
 31
0.0
  0
LINE
  5
1BD
330
17
100
AcDbEntity
  8
TOP
100
AcDbLine
 10
37.387
 20
31.335394514192537
 30
0.0
 11
40.83333333333333
 21
33.342622392718745
 31
0.0
  0
LINE
  5
1BE
330
17
100
AcDbEntity
  8
TOP
100
AcDbLine
 10
40.83333333333333
 20
33.342622392718745
 30
0.0
 11
44.279666666666664
 21
31.335394514192537
 31
0.0
  0
LINE
  5
1BF
330
17
100
AcDbEntity
  8
TOP
100
AcDbLine
 10
45.553666666666665
 20
31.335394514192537
 30
0.0
 11
49.0
 21
33.342622392718745
 31
0.0
  0
LINE
  5
1C0
330
17
100
AcDbEntity
  8
TOP
100
AcDbLine
 10
25.137
 20
33.71039451419254
 30
0.0
 11
28.583333333333332
 21
35.717622392718745
 31
0.0
  0
LINE
  5
1C1
330
17
100
AcDbEntity
  8
TOP
100
AcDbLine
 10
28.583333333333332
 20
35.717622392718745
 30
0.0
 11
32.029666666666664
 21
33.71039451419254
 31
0.0
  0
LINE
  5
1C2
330
17
100
AcDbEntity
  8
TOP
100
AcDbLine
 10
33.303666666666665
 20
33.71039451419254
 30
0.0
 11
36.75
 21
35.717622392718745
 31
0.0
  0
LINE
  5
1C3
330
17
100
AcDbEntity
  8
TOP
100
AcDbLine
 10
36.75
 20
35.717622392718745
 30
0.0
 11
40.19633333333333
 21
33.71039451419254
 31
0.0
  0
LINE
  5
1C4
330
17
100
AcDbEntity
  8
TOP
100
AcDbLine
 10
41.47033333333333
 20
33.71039451419254
 30
0.0
 11
44.916666666666664
 21
35.717622392718745
 31
0.0
  0
LINE
  5
1C5
330
17
100
AcDbEntity
  8
TOP
100
AcDbLine
 10
44.916666666666664
 20
35.717622392718745
 30
0.0
 11
48.363
 21
33.71039451419254
 31
0.0
  0
LINE
  5
1C6
330
17
100
AcDbEntity
  8
TOP
100
AcDbLine
 10
24.5
 20
38.092622392718745
 30
0.0
 11
27.94633333333333
 21
36.08539451419254
 31
0.0
  0
LINE
  5
1C7
330
17
100
AcDbEntity
  8
TOP
100
AcDbLine
 10
29.220333333333333
 20
36.08539451419254
 30
0.0
 11
32.666666666666664
 21
38.092622392718745
 31
0.0
  0
LINE
  5
1C8
330
17
100
AcDbEntity
  8
TOP
100
AcDbLine
 10
32.666666666666664
 20
38.092622392718745
 30
0.0
 11
36.113
 21
36.08539451419254
 31
0.0
  0
LINE
  5
1C9
330
17
100
AcDbEntity
  8
TOP
100
AcDbLine
 10
37.387
 20
36.08539451419254
 30
0.0
 11
40.83333333333333
 21
38.092622392718745
 31
0.0
  0
LINE
  5
1CA
330
17
100
AcDbEntity
  8
TOP
100
AcDbLine
 10
40.83333333333333
 20
38.092622392718745
 30
0.0
 11
44.279666666666664
 21
36.08539451419254
 31
0.0
  0
LINE
  5
1CB
330
17
100
AcDbEntity
  8
TOP
100
AcDbLine
 10
45.553666666666665
 20
36.08539451419254
 30
0.0
 11
49.0
 21
38.092622392718745
 31
0.0
  0
LINE
  5
1CC
330
17
100
AcDbEntity
  8
TOP
100
AcDbLine
 10
25.137
 20
38.46039451419254
 30
0.0
 11
28.583333333333332
 21
40.467622392718745
 31
0.0
  0
LINE
  5
1CD
330
17
100
AcDbEntity
  8
TOP
100
AcDbLine
 10
28.583333333333332
 20
40.467622392718745
 30
0.0
 11
32.029666666666664
 21
38.46039451419254
 31
0.0
  0
LINE
  5
1CE
330
17
100
AcDbEntity
  8
TOP
100
AcDbLine
 10
33.303666666666665
 20
38.46039451419254
 30
0.0
 11
36.75
 21
40.467622392718745
 31
0.0
  0
LINE
  5
1CF
330
17
100
AcDbEntity
  8
TOP
100
AcDbLine
 10
36.75
 20
40.467622392718745
 30
0.0
 11
40.19633333333333
 21
38.46039451419254
 31
0.0
  0
LINE
  5
1D0
330
17
100
AcDbEntity
  8
TOP
100
AcDbLine
 10
41.47033333333333
 20
38.46039451419254
 30
0.0
 11
44.916666666666664
 21
40.467622392718745
 31
0.0
  0
LINE
  5
1D1
330
17
100
AcDbEntity
  8
TOP
100
AcDbLine
 10
44.916666666666664
 20
40.467622392718745
 30
0.0
 11
48.363
 21
38.46039451419254
 31
0.0
  0
LINE
  5
1D2
330
17
100
AcDbEntity
  8
TOP
100
AcDbLine
 10
24.5
 20
42.842622392718745
 30
0.0
 11
27.94633333333333
 21
40.83539451419254
 31
0.0
  0
LINE
  5
1D3
330
17
100
AcDbEntity
  8
TOP
100
AcDbLine
 10
29.220333333333333
 20
40.83539451419254
 30
0.0
 11
32.666666666666664
 21
42.842622392718745
 31
0.0
  0
LINE
  5
1D4
330
17
100
AcDbEntity
  8
TOP
100
AcDbLine
 10
32.666666666666664
 20
42.842622392718745
 30
0.0
 11
36.113
 21
40.83539451419254
 31
0.0
  0
LINE
  5
1D5
330
17
100
AcDbEntity
  8
TOP
100
AcDbLine
 10
37.387
 20
40.83539451419254
 30
0.0
 11
40.83333333333333
 21
42.842622392718745
 31
0.0
  0
LINE
  5
1D6
330
17
100
AcDbEntity
  8
TOP
100
AcDbLine
 10
40.83333333333333
 20
42.842622392718745
 30
0.0
 11
44.279666666666664
 21
40.83539451419254
 31
0.0
  0
LINE
  5
1D7
330
17
100
AcDbEntity
  8
TOP
100
AcDbLine
 10
45.553666666666665
 20
40.83539451419254
 30
0.0
 11
49.0
 21
42.842622392718745
 31
0.0
  0
LINE
  5
1D8
330
17
100
AcDbEntity
  8
TOP
100
AcDbLine
 10
25.137
 20
43.21039451419254
 30
0.0
 11
28.583333333333332
 21
45.217622392718745
 31
0.0
  0
LINE
  5
1D9
330
17
100
AcDbEntity
  8
TOP
100
AcDbLine
 10
28.583333333333332
 20
45.217622392718745
 30
0.0
 11
32.029666666666664
 21
43.21039451419254
 31
0.0
  0
LINE
  5
1DA
330
17
100
AcDbEntity
  8
TOP
100
AcDbLine
 10
33.303666666666665
 20
43.21039451419254
 30
0.0
 11
36.75
 21
45.217622392718745
 31
0.0
  0
LINE
  5
1DB
330
17
100
AcDbEntity
  8
TOP
100
AcDbLine
 10
36.75
 20
45.217622392718745
 30
0.0
 11
40.19633333333333
 21
43.21039451419254
 31
0.0
  0
LINE
  5
1DC
330
17
100
AcDbEntity
  8
TOP
100
AcDbLine
 10
41.47033333333333
 20
43.21039451419254
 30
0.0
 11
44.916666666666664
 21
45.217622392718745
 31
0.0
  0
LINE
  5
1DD
330
17
100
AcDbEntity
  8
TOP
100
AcDbLine
 10
44.916666666666664
 20
45.217622392718745
 30
0.0
 11
48.363
 21
43.21039451419254
 31
0.0
  0
LINE
  5
1DE
330
17
100
AcDbEntity
  8
TOP
100
AcDbLine
 10
24.5
 20
47.592622392718745
 30
0.0
 11
27.94633333333333
 21
45.58539451419254
 31
0.0
  0
LINE
  5
1DF
330
17
100
AcDbEntity
  8
TOP
100
AcDbLine
 10
29.220333333333333
 20
45.58539451419254
 30
0.0
 11
32.666666666666664
 21
47.592622392718745
 31
0.0
  0
LINE
  5
1E0
330
17
100
AcDbEntity
  8
TOP
100
AcDbLine
 10
32.666666666666664
 20
47.592622392718745
 30
0.0
 11
36.113
 21
45.58539451419254
 31
0.0
  0
LINE
  5
1E1
330
17
100
AcDbEntity
  8
TOP
100
AcDbLine
 10
37.387
 20
45.58539451419254
 30
0.0
 11
40.83333333333333
 21
47.592622392718745
 31
0.0
  0
LINE
  5
1E2
330
17
100
AcDbEntity
  8
TOP
100
AcDbLine
 10
40.83333333333333
 20
47.592622392718745
 30
0.0
 11
44.279666666666664
 21
45.58539451419254
 31
0.0
  0
LINE
  5
1E3
330
17
100
AcDbEntity
  8
TOP
100
AcDbLine
 10
45.553666666666665
 20
45.58539451419254
 30
0.0
 11
49.0
 21
47.592622392718745
 31
0.0
  0
LINE
  5
1E4
330
17
100
AcDbEntity
  8
TOP
100
AcDbLine
 10
25.137
 20
47.96039451419254
 30
0.0
 11
28.583333333333332
 21
49.967622392718745
 31
0.0
  0
LINE
  5
1E5
330
17
100
AcDbEntity
  8
TOP
100
AcDbLine
 10
28.583333333333332
 20
49.967622392718745
 30
0.0
 11
32.029666666666664
 21
47.96039451419254
 31
0.0
  0
LINE
  5
1E6
330
17
100
AcDbEntity
  8
TOP
100
AcDbLine
 10
33.303666666666665
 20
47.96039451419254
 30
0.0
 11
36.75
 21
49.967622392718745
 31
0.0
  0
LINE
  5
1E7
330
17
100
AcDbEntity
  8
TOP
100
AcDbLine
 10
36.75
 20
49.967622392718745
 30
0.0
 11
40.19633333333333
 21
47.96039451419254
 31
0.0
  0
LINE
  5
1E8
330
17
100
AcDbEntity
  8
TOP
100
AcDbLine
 10
41.47033333333333
 20
47.96039451419254
 30
0.0
 11
44.916666666666664
 21
49.967622392718745
 31
0.0
  0
LINE
  5
1E9
330
17
100
AcDbEntity
  8
TOP
100
AcDbLine
 10
44.916666666666664
 20
49.967622392718745
 30
0.0
 11
48.363
 21
47.96039451419254
 31
0.0
  0
LINE
  5
1EA
330
17
100
AcDbEntity
  8
TOP
100
AcDbLine
 10
24.5
 20
52.342622392718745
 30
0.0
 11
27.94633333333333
 21
50.33539451419254
 31
0.0
  0
LINE
  5
1EB
330
17
100
AcDbEntity
  8
TOP
100
AcDbLine
 10
29.220333333333333
 20
50.33539451419254
 30
0.0
 11
32.666666666666664
 21
52.342622392718745
 31
0.0
  0
LINE
  5
1EC
330
17
100
AcDbEntity
  8
TOP
100
AcDbLine
 10
32.666666666666664
 20
52.342622392718745
 30
0.0
 11
36.113
 21
50.33539451419254
 31
0.0
  0
LINE
  5
1ED
330
17
100
AcDbEntity
  8
TOP
100
AcDbLine
 10
37.387
 20
50.33539451419254
 30
0.0
 11
40.83333333333333
 21
52.342622392718745
 31
0.0
  0
LINE
  5
1EE
330
17
100
AcDbEntity
  8
TOP
100
AcDbLine
 10
40.83333333333333
 20
52.342622392718745
 30
0.0
 11
44.279666666666664
 21
50.33539451419254
 31
0.0
  0
LINE
  5
1EF
330
17
100
AcDbEntity
  8
TOP
100
AcDbLine
 10
45.553666666666665
 20
50.33539451419254
 30
0.0
 11
49.0
 21
52.342622392718745
 31
0.0
  0
LINE
  5
1F0
330
17
100
AcDbEntity
  8
TOP
100
AcDbLine
 10
25.137
 20
52.71039451419254
 30
0.0
 11
28.583333333333332
 21
54.717622392718745
 31
0.0
  0
LINE
  5
1F1
330
17
100
AcDbEntity
  8
TOP
100
AcDbLine
 10
28.583333333333332
 20
54.717622392718745
 30
0.0
 11
32.029666666666664
 21
52.71039451419254
 31
0.0
  0
LINE
  5
1F2
330
17
100
AcDbEntity
  8
TOP
100
AcDbLine
 10
33.303666666666665
 20
52.71039451419254
 30
0.0
 11
36.75
 21
54.717622392718745
 31
0.0
  0
LINE
  5
1F3
330
17
100
AcDbEntity
  8
TOP
100
AcDbLine
 10
36.75
 20
54.717622392718745
 30
0.0
 11
40.19633333333333
 21
52.71039451419254
 31
0.0
  0
LINE
  5
1F4
330
17
100
AcDbEntity
  8
TOP
100
AcDbLine
 10
41.47033333333333
 20
52.71039451419254
 30
0.0
 11
44.916666666666664
 21
54.717622392718745
 31
0.0
  0
LINE
  5
1F5
330
17
100
AcDbEntity
  8
TOP
100
AcDbLine
 10
44.916666666666664
 20
54.717622392718745
 30
0.0
 11
48.363
 21
52.71039451419254
 31
0.0
  0
LINE
  5
1F6
330
17
100
AcDbEntity
  8
TOP
100
AcDbLine
 10
24.5
 20
57.092622392718745
 30
0.0
 11
27.94633333333333
 21
55.08539451419254
 31
0.0
  0
LINE
  5
1F7
330
17
100
AcDbEntity
  8
TOP
100
AcDbLine
 10
29.220333333333333
 20
55.08539451419254
 30
0.0
 11
32.666666666666664
 21
57.092622392718745
 31
0.0
  0
LINE
  5
1F8
330
17
100
AcDbEntity
  8
TOP
100
AcDbLine
 10
32.666666666666664
 20
57.092622392718745
 30
0.0
 11
36.113
 21
55.08539451419254
 31
0.0
  0
LINE
  5
1F9
330
17
100
AcDbEntity
  8
TOP
100
AcDbLine
 10
37.387
 20
55.08539451419254
 30
0.0
 11
40.83333333333333
 21
57.092622392718745
 31
0.0
  0
LINE
  5
1FA
330
17
100
AcDbEntity
  8
TOP
100
AcDbLine
 10
40.83333333333333
 20
57.092622392718745
 30
0.0
 11
44.279666666666664
 21
55.08539451419254
 31
0.0
  0
LINE
  5
1FB
330
17
100
AcDbEntity
  8
TOP
100
AcDbLine
 10
45.553666666666665
 20
55.08539451419254
 30
0.0
 11
49.0
 21
57.092622392718745
 31
0.0
  0
LINE
  5
1FC
330
17
100
AcDbEntity
  8
TOP
100
AcDbLine
 10
25.137
 20
57.46039451419254
 30
0.0
 11
28.583333333333332
 21
59.467622392718745
 31
0.0
  0
LINE
  5
1FD
330
17
100
AcDbEntity
  8
TOP
100
AcDbLine
 10
28.583333333333332
 20
59.467622392718745
 30
0.0
 11
32.029666666666664
 21
57.46039451419254
 31
0.0
  0
LINE
  5
1FE
330
17
100
AcDbEntity
  8
TOP
100
AcDbLine
 10
33.303666666666665
 20
57.46039451419254
 30
0.0
 11
36.75
 21
59.467622392718745
 31
0.0
  0
LINE
  5
1FF
330
17
100
AcDbEntity
  8
TOP
100
AcDbLine
 10
36.75
 20
59.467622392718745
 30
0.0
 11
40.19633333333333
 21
57.46039451419254
 31
0.0
  0
LINE
  5
200
330
17
100
AcDbEntity
  8
TOP
100
AcDbLine
 10
41.47033333333333
 20
57.46039451419254
 30
0.0
 11
44.916666666666664
 21
59.467622392718745
 31
0.0
  0
LINE
  5
201
330
17
100
AcDbEntity
  8
TOP
100
AcDbLine
 10
44.916666666666664
 20
59.467622392718745
 30
0.0
 11
48.363
 21
57.46039451419254
 31
0.0
  0
LINE
  5
202
330
17
100
AcDbEntity
  8
TOP
100
AcDbLine
 10
24.5
 20
61.842622392718745
 30
0.0
 11
27.94633333333333
 21
59.83539451419254
 31
0.0
  0
LINE
  5
203
330
17
100
AcDbEntity
  8
TOP
100
AcDbLine
 10
29.220333333333333
 20
59.83539451419254
 30
0.0
 11
32.666666666666664
 21
61.842622392718745
 31
0.0
  0
LINE
  5
204
330
17
100
AcDbEntity
  8
TOP
100
AcDbLine
 10
32.666666666666664
 20
61.842622392718745
 30
0.0
 11
36.113
 21
59.83539451419254
 31
0.0
  0
LINE
  5
205
330
17
100
AcDbEntity
  8
TOP
100
AcDbLine
 10
37.387
 20
59.83539451419254
 30
0.0
 11
40.83333333333333
 21
61.842622392718745
 31
0.0
  0
LINE
  5
206
330
17
100
AcDbEntity
  8
TOP
100
AcDbLine
 10
40.83333333333333
 20
61.842622392718745
 30
0.0
 11
44.279666666666664
 21
59.83539451419254
 31
0.0
  0
LINE
  5
207
330
17
100
AcDbEntity
  8
TOP
100
AcDbLine
 10
45.553666666666665
 20
59.83539451419254
 30
0.0
 11
49.0
 21
61.842622392718745
 31
0.0
  0
LINE
  5
208
330
17
100
AcDbEntity
  8
TOP
100
AcDbLine
 10
25.137
 20
62.21039451419254
 30
0.0
 11
28.583333333333332
 21
64.21762239271874
 31
0.0
  0
LINE
  5
209
330
17
100
AcDbEntity
  8
TOP
100
AcDbLine
 10
28.583333333333332
 20
64.21762239271874
 30
0.0
 11
32.029666666666664
 21
62.21039451419254
 31
0.0
  0
LINE
  5
20A
330
17
100
AcDbEntity
  8
TOP
100
AcDbLine
 10
33.303666666666665
 20
62.21039451419254
 30
0.0
 11
36.75
 21
64.21762239271874
 31
0.0
  0
LINE
  5
20B
330
17
100
AcDbEntity
  8
TOP
100
AcDbLine
 10
36.75
 20
64.21762239271874
 30
0.0
 11
40.19633333333333
 21
62.21039451419254
 31
0.0
  0
LINE
  5
20C
330
17
100
AcDbEntity
  8
TOP
100
AcDbLine
 10
41.47033333333333
 20
62.21039451419254
 30
0.0
 11
44.916666666666664
 21
64.21762239271874
 31
0.0
  0
LINE
  5
20D
330
17
100
AcDbEntity
  8
TOP
100
AcDbLine
 10
44.916666666666664
 20
64.21762239271874
 30
0.0
 11
48.363
 21
62.21039451419254
 31
0.0
  0
LINE
  5
20E
330
17
100
AcDbEntity
  8
TOP
100
AcDbLine
 10
24.5
 20
66.59262239271874
 30
0.0
 11
27.94633333333333
 21
64.58539451419253
 31
0.0
  0
LINE
  5
20F
330
17
100
AcDbEntity
  8
TOP
100
AcDbLine
 10
29.220333333333333
 20
64.58539451419253
 30
0.0
 11
32.666666666666664
 21
66.59262239271874
 31
0.0
  0
LINE
  5
210
330
17
100
AcDbEntity
  8
TOP
100
AcDbLine
 10
32.666666666666664
 20
66.59262239271874
 30
0.0
 11
36.113
 21
64.58539451419253
 31
0.0
  0
LINE
  5
211
330
17
100
AcDbEntity
  8
TOP
100
AcDbLine
 10
37.387
 20
64.58539451419253
 30
0.0
 11
40.83333333333333
 21
66.59262239271874
 31
0.0
  0
LINE
  5
212
330
17
100
AcDbEntity
  8
TOP
100
AcDbLine
 10
40.83333333333333
 20
66.59262239271874
 30
0.0
 11
44.279666666666664
 21
64.58539451419253
 31
0.0
  0
LINE
  5
213
330
17
100
AcDbEntity
  8
TOP
100
AcDbLine
 10
45.553666666666665
 20
64.58539451419253
 30
0.0
 11
49.0
 21
66.59262239271874
 31
0.0
  0
LINE
  5
214
330
17
100
AcDbEntity
  8
TOP
100
AcDbLine
 10
25.137
 20
66.96039451419253
 30
0.0
 11
28.583333333333332
 21
68.96762239271874
 31
0.0
  0
LINE
  5
215
330
17
100
AcDbEntity
  8
TOP
100
AcDbLine
 10
28.583333333333332
 20
68.96762239271874
 30
0.0
 11
32.029666666666664
 21
66.96039451419253
 31
0.0
  0
LINE
  5
216
330
17
100
AcDbEntity
  8
TOP
100
AcDbLine
 10
33.303666666666665
 20
66.96039451419253
 30
0.0
 11
36.75
 21
68.96762239271874
 31
0.0
  0
LINE
  5
217
330
17
100
AcDbEntity
  8
TOP
100
AcDbLine
 10
36.75
 20
68.96762239271874
 30
0.0
 11
40.19633333333333
 21
66.96039451419253
 31
0.0
  0
LINE
  5
218
330
17
100
AcDbEntity
  8
TOP
100
AcDbLine
 10
41.47033333333333
 20
66.96039451419253
 30
0.0
 11
44.916666666666664
 21
68.96762239271874
 31
0.0
  0
LINE
  5
219
330
17
100
AcDbEntity
  8
TOP
100
AcDbLine
 10
44.916666666666664
 20
68.96762239271874
 30
0.0
 11
48.363
 21
66.96039451419253
 31
0.0
  0
LINE
  5
21A
330
17
100
AcDbEntity
  8
TOP
100
AcDbLine
 10
24.5
 20
71.34262239271874
 30
0.0
 11
27.94633333333333
 21
69.33539451419253
 31
0.0
  0
LINE
  5
21B
330
17
100
AcDbEntity
  8
TOP
100
AcDbLine
 10
29.220333333333333
 20
69.33539451419253
 30
0.0
 11
32.666666666666664
 21
71.34262239271874
 31
0.0
  0
LINE
  5
21C
330
17
100
AcDbEntity
  8
TOP
100
AcDbLine
 10
32.666666666666664
 20
71.34262239271874
 30
0.0
 11
36.113
 21
69.33539451419253
 31
0.0
  0
LINE
  5
21D
330
17
100
AcDbEntity
  8
TOP
100
AcDbLine
 10
37.387
 20
69.33539451419253
 30
0.0
 11
40.83333333333333
 21
71.34262239271874
 31
0.0
  0
LINE
  5
21E
330
17
100
AcDbEntity
  8
TOP
100
AcDbLine
 10
40.83333333333333
 20
71.34262239271874
 30
0.0
 11
44.279666666666664
 21
69.33539451419253
 31
0.0
  0
LINE
  5
21F
330
17
100
AcDbEntity
  8
TOP
100
AcDbLine
 10
45.553666666666665
 20
69.33539451419253
 30
0.0
 11
49.0
 21
71.34262239271874
 31
0.0
  0
LINE
  5
220
330
17
100
AcDbEntity
  8
TOP
100
AcDbLine
 10
25.137
 20
71.71039451419253
 30
0.0
 11
28.583333333333332
 21
73.71762239271874
 31
0.0
  0
LINE
  5
221
330
17
100
AcDbEntity
  8
TOP
100
AcDbLine
 10
28.583333333333332
 20
73.71762239271874
 30
0.0
 11
32.029666666666664
 21
71.71039451419253
 31
0.0
  0
LINE
  5
222
330
17
100
AcDbEntity
  8
TOP
100
AcDbLine
 10
33.303666666666665
 20
71.71039451419253
 30
0.0
 11
36.75
 21
73.71762239271874
 31
0.0
  0
LINE
  5
223
330
17
100
AcDbEntity
  8
TOP
100
AcDbLine
 10
36.75
 20
73.71762239271874
 30
0.0
 11
40.19633333333333
 21
71.71039451419253
 31
0.0
  0
LINE
  5
224
330
17
100
AcDbEntity
  8
TOP
100
AcDbLine
 10
41.47033333333333
 20
71.71039451419253
 30
0.0
 11
44.916666666666664
 21
73.71762239271874
 31
0.0
  0
LINE
  5
225
330
17
100
AcDbEntity
  8
TOP
100
AcDbLine
 10
44.916666666666664
 20
73.71762239271874
 30
0.0
 11
48.363
 21
71.71039451419253
 31
0.0
  0
LINE
  5
226
330
17
100
AcDbEntity
  8
TOP
100
AcDbLine
 10
24.5
 20
76.09262239271874
 30
0.0
 11
27.94633333333333
 21
74.08539451419253
 31
0.0
  0
LINE
  5
227
330
17
100
AcDbEntity
  8
TOP
100
AcDbLine
 10
29.220333333333333
 20
74.08539451419253
 30
0.0
 11
32.666666666666664
 21
76.09262239271874
 31
0.0
  0
LINE
  5
228
330
17
100
AcDbEntity
  8
TOP
100
AcDbLine
 10
32.666666666666664
 20
76.09262239271874
 30
0.0
 11
36.113
 21
74.08539451419253
 31
0.0
  0
LINE
  5
229
330
17
100
AcDbEntity
  8
TOP
100
AcDbLine
 10
37.387
 20
74.08539451419253
 30
0.0
 11
40.83333333333333
 21
76.09262239271874
 31
0.0
  0
LINE
  5
22A
330
17
100
AcDbEntity
  8
TOP
100
AcDbLine
 10
40.83333333333333
 20
76.09262239271874
 30
0.0
 11
44.279666666666664
 21
74.08539451419253
 31
0.0
  0
LINE
  5
22B
330
17
100
AcDbEntity
  8
TOP
100
AcDbLine
 10
45.553666666666665
 20
74.08539451419253
 30
0.0
 11
49.0
 21
76.09262239271874
 31
0.0
  0
LINE
  5
22C
330
17
100
AcDbEntity
  8
TOP
100
AcDbLine
 10
25.137
 20
76.46039451419253
 30
0.0
 11
28.583333333333332
 21
78.46762239271874
 31
0.0
  0
LINE
  5
22D
330
17
100
AcDbEntity
  8
TOP
100
AcDbLine
 10
28.583333333333332
 20
78.46762239271874
 30
0.0
 11
32.029666666666664
 21
76.46039451419253
 31
0.0
  0
LINE
  5
22E
330
17
100
AcDbEntity
  8
TOP
100
AcDbLine
 10
33.303666666666665
 20
76.46039451419253
 30
0.0
 11
36.75
 21
78.46762239271874
 31
0.0
  0
LINE
  5
22F
330
17
100
AcDbEntity
  8
TOP
100
AcDbLine
 10
36.75
 20
78.46762239271874
 30
0.0
 11
40.19633333333333
 21
76.46039451419253
 31
0.0
  0
LINE
  5
230
330
17
100
AcDbEntity
  8
TOP
100
AcDbLine
 10
41.47033333333333
 20
76.46039451419253
 30
0.0
 11
44.916666666666664
 21
78.46762239271874
 31
0.0
  0
LINE
  5
231
330
17
100
AcDbEntity
  8
TOP
100
AcDbLine
 10
44.916666666666664
 20
78.46762239271874
 30
0.0
 11
48.363
 21
76.46039451419253
 31
0.0
  0
LINE
  5
232
330
17
100
AcDbEntity
  8
TOP
100
AcDbLine
 10
24.5
 20
80.84262239271874
 30
0.0
 11
27.94633333333333
 21
78.83539451419253
 31
0.0
  0
LINE
  5
233
330
17
100
AcDbEntity
  8
TOP
100
AcDbLine
 10
29.220333333333333
 20
78.83539451419253
 30
0.0
 11
32.666666666666664
 21
80.84262239271874
 31
0.0
  0
LINE
  5
234
330
17
100
AcDbEntity
  8
TOP
100
AcDbLine
 10
32.666666666666664
 20
80.84262239271874
 30
0.0
 11
36.113
 21
78.83539451419253
 31
0.0
  0
LINE
  5
235
330
17
100
AcDbEntity
  8
TOP
100
AcDbLine
 10
37.387
 20
78.83539451419253
 30
0.0
 11
40.83333333333333
 21
80.84262239271874
 31
0.0
  0
LINE
  5
236
330
17
100
AcDbEntity
  8
TOP
100
AcDbLine
 10
40.83333333333333
 20
80.84262239271874
 30
0.0
 11
44.279666666666664
 21
78.83539451419253
 31
0.0
  0
LINE
  5
237
330
17
100
AcDbEntity
  8
TOP
100
AcDbLine
 10
45.553666666666665
 20
78.83539451419253
 30
0.0
 11
49.0
 21
80.84262239271874
 31
0.0
  0
LINE
  5
238
330
17
100
AcDbEntity
  8
TOP
100
AcDbLine
 10
25.137
 20
81.21039451419253
 30
0.0
 11
28.583333333333332
 21
83.21762239271874
 31
0.0
  0
LINE
  5
239
330
17
100
AcDbEntity
  8
TOP
100
AcDbLine
 10
28.583333333333332
 20
83.21762239271874
 30
0.0
 11
32.029666666666664
 21
81.21039451419253
 31
0.0
  0
LINE
  5
23A
330
17
100
AcDbEntity
  8
TOP
100
AcDbLine
 10
33.303666666666665
 20
81.21039451419253
 30
0.0
 11
36.75
 21
83.21762239271874
 31
0.0
  0
LINE
  5
23B
330
17
100
AcDbEntity
  8
TOP
100
AcDbLine
 10
36.75
 20
83.21762239271874
 30
0.0
 11
40.19633333333333
 21
81.21039451419253
 31
0.0
  0
LINE
  5
23C
330
17
100
AcDbEntity
  8
TOP
100
AcDbLine
 10
41.47033333333333
 20
81.21039451419253
 30
0.0
 11
44.916666666666664
 21
83.21762239271874
 31
0.0
  0
LINE
  5
23D
330
17
100
AcDbEntity
  8
TOP
100
AcDbLine
 10
44.916666666666664
 20
83.21762239271874
 30
0.0
 11
48.363
 21
81.21039451419253
 31
0.0
  0
LINE
  5
23E
330
17
100
AcDbEntity
  8
TOP
100
AcDbLine
 10
24.5
 20
85.59262239271874
 30
0.0
 11
27.94633333333333
 21
83.58539451419253
 31
0.0
  0
LINE
  5
23F
330
17
100
AcDbEntity
  8
TOP
100
AcDbLine
 10
29.220333333333333
 20
83.58539451419253
 30
0.0
 11
32.666666666666664
 21
85.59262239271874
 31
0.0
  0
LINE
  5
240
330
17
100
AcDbEntity
  8
TOP
100
AcDbLine
 10
32.666666666666664
 20
85.59262239271874
 30
0.0
 11
36.113
 21
83.58539451419253
 31
0.0
  0
LINE
  5
241
330
17
100
AcDbEntity
  8
TOP
100
AcDbLine
 10
37.387
 20
83.58539451419253
 30
0.0
 11
40.83333333333333
 21
85.59262239271874
 31
0.0
  0
LINE
  5
242
330
17
100
AcDbEntity
  8
TOP
100
AcDbLine
 10
40.83333333333333
 20
85.59262239271874
 30
0.0
 11
44.279666666666664
 21
83.58539451419253
 31
0.0
  0
LINE
  5
243
330
17
100
AcDbEntity
  8
TOP
100
AcDbLine
 10
45.553666666666665
 20
83.58539451419253
 30
0.0
 11
49.0
 21
85.59262239271874
 31
0.0
  0
LINE
  5
244
330
17
100
AcDbEntity
  8
TOP
100
AcDbLine
 10
25.137
 20
85.96039451419253
 30
0.0
 11
28.583333333333332
 21
87.96762239271874
 31
0.0
  0
LINE
  5
245
330
17
100
AcDbEntity
  8
TOP
100
AcDbLine
 10
28.583333333333332
 20
87.96762239271874
 30
0.0
 11
32.029666666666664
 21
85.96039451419253
 31
0.0
  0
LINE
  5
246
330
17
100
AcDbEntity
  8
TOP
100
AcDbLine
 10
33.303666666666665
 20
85.96039451419253
 30
0.0
 11
36.75
 21
87.96762239271874
 31
0.0
  0
LINE
  5
247
330
17
100
AcDbEntity
  8
TOP
100
AcDbLine
 10
36.75
 20
87.96762239271874
 30
0.0
 11
40.19633333333333
 21
85.96039451419253
 31
0.0
  0
LINE
  5
248
330
17
100
AcDbEntity
  8
TOP
100
AcDbLine
 10
41.47033333333333
 20
85.96039451419253
 30
0.0
 11
44.916666666666664
 21
87.96762239271874
 31
0.0
  0
LINE
  5
249
330
17
100
AcDbEntity
  8
TOP
100
AcDbLine
 10
44.916666666666664
 20
87.96762239271874
 30
0.0
 11
48.363
 21
85.96039451419253
 31
0.0
  0
LINE
  5
24A
330
17
100
AcDbEntity
  8
TOP
100
AcDbLine
 10
24.5
 20
90.34262239271874
 30
0.0
 11
27.94633333333333
 21
88.33539451419253
 31
0.0
  0
LINE
  5
24B
330
17
100
AcDbEntity
  8
TOP
100
AcDbLine
 10
29.220333333333333
 20
88.33539451419253
 30
0.0
 11
32.666666666666664
 21
90.34262239271874
 31
0.0
  0
LINE
  5
24C
330
17
100
AcDbEntity
  8
TOP
100
AcDbLine
 10
32.666666666666664
 20
90.34262239271874
 30
0.0
 11
36.113
 21
88.33539451419253
 31
0.0
  0
LINE
  5
24D
330
17
100
AcDbEntity
  8
TOP
100
AcDbLine
 10
37.387
 20
88.33539451419253
 30
0.0
 11
40.83333333333333
 21
90.34262239271874
 31
0.0
  0
LINE
  5
24E
330
17
100
AcDbEntity
  8
TOP
100
AcDbLine
 10
40.83333333333333
 20
90.34262239271874
 30
0.0
 11
44.279666666666664
 21
88.33539451419253
 31
0.0
  0
LINE
  5
24F
330
17
100
AcDbEntity
  8
TOP
100
AcDbLine
 10
45.553666666666665
 20
88.33539451419253
 30
0.0
 11
49.0
 21
90.34262239271874
 31
0.0
  0
LINE
  5
250
330
17
100
AcDbEntity
  8
TOP
100
AcDbLine
 10
25.137
 20
90.71039451419253
 30
0.0
 11
28.583333333333332
 21
92.71762239271874
 31
0.0
  0
LINE
  5
251
330
17
100
AcDbEntity
  8
TOP
100
AcDbLine
 10
28.583333333333332
 20
92.71762239271874
 30
0.0
 11
32.029666666666664
 21
90.71039451419253
 31
0.0
  0
LINE
  5
252
330
17
100
AcDbEntity
  8
TOP
100
AcDbLine
 10
33.303666666666665
 20
90.71039451419253
 30
0.0
 11
36.75
 21
92.71762239271874
 31
0.0
  0
LINE
  5
253
330
17
100
AcDbEntity
  8
TOP
100
AcDbLine
 10
36.75
 20
92.71762239271874
 30
0.0
 11
40.19633333333333
 21
90.71039451419253
 31
0.0
  0
LINE
  5
254
330
17
100
AcDbEntity
  8
TOP
100
AcDbLine
 10
41.47033333333333
 20
90.71039451419253
 30
0.0
 11
44.916666666666664
 21
92.71762239271874
 31
0.0
  0
LINE
  5
255
330
17
100
AcDbEntity
  8
TOP
100
AcDbLine
 10
44.916666666666664
 20
92.71762239271874
 30
0.0
 11
48.363
 21
90.71039451419253
 31
0.0
  0
LINE
  5
256
330
17
100
AcDbEntity
  8
TOP
100
AcDbLine
 10
24.5
 20
95.09262239271874
 30
0.0
 11
27.94633333333333
 21
93.08539451419253
 31
0.0
  0
LINE
  5
257
330
17
100
AcDbEntity
  8
TOP
100
AcDbLine
 10
29.220333333333333
 20
93.08539451419253
 30
0.0
 11
32.666666666666664
 21
95.09262239271874
 31
0.0
  0
LINE
  5
258
330
17
100
AcDbEntity
  8
TOP
100
AcDbLine
 10
32.666666666666664
 20
95.09262239271874
 30
0.0
 11
36.113
 21
93.08539451419253
 31
0.0
  0
LINE
  5
259
330
17
100
AcDbEntity
  8
TOP
100
AcDbLine
 10
37.387
 20
93.08539451419253
 30
0.0
 11
40.83333333333333
 21
95.09262239271874
 31
0.0
  0
LINE
  5
25A
330
17
100
AcDbEntity
  8
TOP
100
AcDbLine
 10
40.83333333333333
 20
95.09262239271874
 30
0.0
 11
44.279666666666664
 21
93.08539451419253
 31
0.0
  0
LINE
  5
25B
330
17
100
AcDbEntity
  8
TOP
100
AcDbLine
 10
45.553666666666665
 20
93.08539451419253
 30
0.0
 11
49.0
 21
95.09262239271874
 31
0.0
  0
LINE
  5
25C
330
17
100
AcDbEntity
  8
TOP
100
AcDbLine
 10
25.137
 20
95.46039451419253
 30
0.0
 11
28.583333333333332
 21
97.46762239271874
 31
0.0
  0
LINE
  5
25D
330
17
100
AcDbEntity
  8
TOP
100
AcDbLine
 10
28.583333333333332
 20
97.46762239271874
 30
0.0
 11
32.029666666666664
 21
95.46039451419253
 31
0.0
  0
LINE
  5
25E
330
17
100
AcDbEntity
  8
TOP
100
AcDbLine
 10
33.303666666666665
 20
95.46039451419253
 30
0.0
 11
36.75
 21
97.46762239271874
 31
0.0
  0
LINE
  5
25F
330
17
100
AcDbEntity
  8
TOP
100
AcDbLine
 10
36.75
 20
97.46762239271874
 30
0.0
 11
40.19633333333333
 21
95.46039451419253
 31
0.0
  0
LINE
  5
260
330
17
100
AcDbEntity
  8
TOP
100
AcDbLine
 10
41.47033333333333
 20
95.46039451419253
 30
0.0
 11
44.916666666666664
 21
97.46762239271874
 31
0.0
  0
LINE
  5
261
330
17
100
AcDbEntity
  8
TOP
100
AcDbLine
 10
44.916666666666664
 20
97.46762239271874
 30
0.0
 11
48.363
 21
95.46039451419253
 31
0.0
  0
LINE
  5
262
330
17
100
AcDbEntity
  8
TOP
100
AcDbLine
 10
24.5
 20
99.84262239271874
 30
0.0
 11
27.94633333333333
 21
97.83539451419253
 31
0.0
  0
LINE
  5
263
330
17
100
AcDbEntity
  8
TOP
100
AcDbLine
 10
29.220333333333333
 20
97.83539451419253
 30
0.0
 11
32.666666666666664
 21
99.84262239271874
 31
0.0
  0
LINE
  5
264
330
17
100
AcDbEntity
  8
TOP
100
AcDbLine
 10
32.666666666666664
 20
99.84262239271874
 30
0.0
 11
36.113
 21
97.83539451419253
 31
0.0
  0
LINE
  5
265
330
17
100
AcDbEntity
  8
TOP
100
AcDbLine
 10
37.387
 20
97.83539451419253
 30
0.0
 11
40.83333333333333
 21
99.84262239271874
 31
0.0
  0
LINE
  5
266
330
17
100
AcDbEntity
  8
TOP
100
AcDbLine
 10
40.83333333333333
 20
99.84262239271874
 30
0.0
 11
44.279666666666664
 21
97.83539451419253
 31
0.0
  0
LINE
  5
267
330
17
100
AcDbEntity
  8
TOP
100
AcDbLine
 10
45.553666666666665
 20
97.83539451419253
 30
0.0
 11
49.0
 21
99.84262239271874
 31
0.0
  0
LINE
  5
268
330
17
100
AcDbEntity
  8
TOP
100
AcDbLine
 10
25.137
 20
100.21039451419253
 30
0.0
 11
28.583333333333332
 21
102.21762239271874
 31
0.0
  0
LINE
  5
269
330
17
100
AcDbEntity
  8
TOP
100
AcDbLine
 10
28.583333333333332
 20
102.21762239271874
 30
0.0
 11
32.029666666666664
 21
100.21039451419253
 31
0.0
  0
LINE
  5
26A
330
17
100
AcDbEntity
  8
TOP
100
AcDbLine
 10
33.303666666666665
 20
100.21039451419253
 30
0.0
 11
36.75
 21
102.21762239271874
 31
0.0
  0
LINE
  5
26B
330
17
100
AcDbEntity
  8
TOP
100
AcDbLine
 10
36.75
 20
102.21762239271874
 30
0.0
 11
40.19633333333333
 21
100.21039451419253
 31
0.0
  0
LINE
  5
26C
330
17
100
AcDbEntity
  8
TOP
100
AcDbLine
 10
41.47033333333333
 20
100.21039451419253
 30
0.0
 11
44.916666666666664
 21
102.21762239271874
 31
0.0
  0
LINE
  5
26D
330
17
100
AcDbEntity
  8
TOP
100
AcDbLine
 10
44.916666666666664
 20
102.21762239271874
 30
0.0
 11
48.363
 21
100.21039451419253
 31
0.0
  0
LINE
  5
26E
330
17
100
AcDbEntity
  8
TOP
100
AcDbLine
 10
24.5
 20
104.59262239271874
 30
0.0
 11
27.94633333333333
 21
102.58539451419253
 31
0.0
  0
LINE
  5
26F
330
17
100
AcDbEntity
  8
TOP
100
AcDbLine
 10
29.220333333333333
 20
102.58539451419253
 30
0.0
 11
32.666666666666664
 21
104.59262239271874
 31
0.0
  0
LINE
  5
270
330
17
100
AcDbEntity
  8
TOP
100
AcDbLine
 10
32.666666666666664
 20
104.59262239271874
 30
0.0
 11
36.113
 21
102.58539451419253
 31
0.0
  0
LINE
  5
271
330
17
100
AcDbEntity
  8
TOP
100
AcDbLine
 10
37.387
 20
102.58539451419253
 30
0.0
 11
40.83333333333333
 21
104.59262239271874
 31
0.0
  0
LINE
  5
272
330
17
100
AcDbEntity
  8
TOP
100
AcDbLine
 10
40.83333333333333
 20
104.59262239271874
 30
0.0
 11
44.279666666666664
 21
102.58539451419253
 31
0.0
  0
LINE
  5
273
330
17
100
AcDbEntity
  8
TOP
100
AcDbLine
 10
45.553666666666665
 20
102.58539451419253
 30
0.0
 11
49.0
 21
104.59262239271874
 31
0.0
  0
LINE
  5
274
330
17
100
AcDbEntity
  8
TOP
100
AcDbLine
 10
25.137
 20
104.96039451419253
 30
0.0
 11
28.583333333333332
 21
106.96762239271874
 31
0.0
  0
LINE
  5
275
330
17
100
AcDbEntity
  8
TOP
100
AcDbLine
 10
28.583333333333332
 20
106.96762239271874
 30
0.0
 11
32.029666666666664
 21
104.96039451419253
 31
0.0
  0
LINE
  5
276
330
17
100
AcDbEntity
  8
TOP
100
AcDbLine
 10
33.303666666666665
 20
104.96039451419253
 30
0.0
 11
36.75
 21
106.96762239271874
 31
0.0
  0
LINE
  5
277
330
17
100
AcDbEntity
  8
TOP
100
AcDbLine
 10
36.75
 20
106.96762239271874
 30
0.0
 11
40.19633333333333
 21
104.96039451419253
 31
0.0
  0
LINE
  5
278
330
17
100
AcDbEntity
  8
TOP
100
AcDbLine
 10
41.47033333333333
 20
104.96039451419253
 30
0.0
 11
44.916666666666664
 21
106.96762239271874
 31
0.0
  0
LINE
  5
279
330
17
100
AcDbEntity
  8
TOP
100
AcDbLine
 10
44.916666666666664
 20
106.96762239271874
 30
0.0
 11
48.363
 21
104.96039451419253
 31
0.0
  0
LINE
  5
27A
330
17
100
AcDbEntity
  8
TOP
100
AcDbLine
 10
24.5
 20
109.34262239271874
 30
0.0
 11
27.94633333333333
 21
107.33539451419253
 31
0.0
  0
LINE
  5
27B
330
17
100
AcDbEntity
  8
TOP
100
AcDbLine
 10
29.220333333333333
 20
107.33539451419253
 30
0.0
 11
32.666666666666664
 21
109.34262239271874
 31
0.0
  0
LINE
  5
27C
330
17
100
AcDbEntity
  8
TOP
100
AcDbLine
 10
32.666666666666664
 20
109.34262239271874
 30
0.0
 11
36.113
 21
107.33539451419253
 31
0.0
  0
LINE
  5
27D
330
17
100
AcDbEntity
  8
TOP
100
AcDbLine
 10
37.387
 20
107.33539451419253
 30
0.0
 11
40.83333333333333
 21
109.34262239271874
 31
0.0
  0
LINE
  5
27E
330
17
100
AcDbEntity
  8
TOP
100
AcDbLine
 10
40.83333333333333
 20
109.34262239271874
 30
0.0
 11
44.279666666666664
 21
107.33539451419253
 31
0.0
  0
LINE
  5
27F
330
17
100
AcDbEntity
  8
TOP
100
AcDbLine
 10
45.553666666666665
 20
107.33539451419253
 30
0.0
 11
49.0
 21
109.34262239271874
 31
0.0
  0
LINE
  5
280
330
17
100
AcDbEntity
  8
TOP
100
AcDbLine
 10
25.137
 20
109.71039451419253
 30
0.0
 11
28.583333333333332
 21
111.71762239271874
 31
0.0
  0
LINE
  5
281
330
17
100
AcDbEntity
  8
TOP
100
AcDbLine
 10
28.583333333333332
 20
111.71762239271874
 30
0.0
 11
32.029666666666664
 21
109.71039451419253
 31
0.0
  0
LINE
  5
282
330
17
100
AcDbEntity
  8
TOP
100
AcDbLine
 10
33.303666666666665
 20
109.71039451419253
 30
0.0
 11
36.75
 21
111.71762239271874
 31
0.0
  0
LINE
  5
283
330
17
100
AcDbEntity
  8
TOP
100
AcDbLine
 10
36.75
 20
111.71762239271874
 30
0.0
 11
40.19633333333333
 21
109.71039451419253
 31
0.0
  0
LINE
  5
284
330
17
100
AcDbEntity
  8
TOP
100
AcDbLine
 10
41.47033333333333
 20
109.71039451419253
 30
0.0
 11
44.916666666666664
 21
111.71762239271874
 31
0.0
  0
LINE
  5
285
330
17
100
AcDbEntity
  8
TOP
100
AcDbLine
 10
44.916666666666664
 20
111.71762239271874
 30
0.0
 11
48.363
 21
109.71039451419253
 31
0.0
  0
LINE
  5
286
330
17
100
AcDbEntity
  8
TOP
100
AcDbLine
 10
24.5
 20
114.09262239271874
 30
0.0
 11
27.94633333333333
 21
112.08539451419253
 31
0.0
  0
LINE
  5
287
330
17
100
AcDbEntity
  8
TOP
100
AcDbLine
 10
29.220333333333333
 20
112.08539451419253
 30
0.0
 11
32.666666666666664
 21
114.09262239271874
 31
0.0
  0
LINE
  5
288
330
17
100
AcDbEntity
  8
TOP
100
AcDbLine
 10
32.666666666666664
 20
114.09262239271874
 30
0.0
 11
36.113
 21
112.08539451419253
 31
0.0
  0
LINE
  5
289
330
17
100
AcDbEntity
  8
TOP
100
AcDbLine
 10
37.387
 20
112.08539451419253
 30
0.0
 11
40.83333333333333
 21
114.09262239271874
 31
0.0
  0
LINE
  5
28A
330
17
100
AcDbEntity
  8
TOP
100
AcDbLine
 10
40.83333333333333
 20
114.09262239271874
 30
0.0
 11
44.279666666666664
 21
112.08539451419253
 31
0.0
  0
LINE
  5
28B
330
17
100
AcDbEntity
  8
TOP
100
AcDbLine
 10
45.553666666666665
 20
112.08539451419253
 30
0.0
 11
49.0
 21
114.09262239271874
 31
0.0
  0
LINE
  5
28C
330
17
100
AcDbEntity
  8
TOP
100
AcDbLine
 10
25.137
 20
114.46039451419253
 30
0.0
 11
28.583333333333332
 21
116.46762239271874
 31
0.0
  0
LINE
  5
28D
330
17
100
AcDbEntity
  8
TOP
100
AcDbLine
 10
28.583333333333332
 20
116.46762239271874
 30
0.0
 11
32.029666666666664
 21
114.46039451419253
 31
0.0
  0
LINE
  5
28E
330
17
100
AcDbEntity
  8
TOP
100
AcDbLine
 10
33.303666666666665
 20
114.46039451419253
 30
0.0
 11
36.75
 21
116.46762239271874
 31
0.0
  0
LINE
  5
28F
330
17
100
AcDbEntity
  8
TOP
100
AcDbLine
 10
36.75
 20
116.46762239271874
 30
0.0
 11
40.19633333333333
 21
114.46039451419253
 31
0.0
  0
LINE
  5
290
330
17
100
AcDbEntity
  8
TOP
100
AcDbLine
 10
41.47033333333333
 20
114.46039451419253
 30
0.0
 11
44.916666666666664
 21
116.46762239271874
 31
0.0
  0
LINE
  5
291
330
17
100
AcDbEntity
  8
TOP
100
AcDbLine
 10
44.916666666666664
 20
116.46762239271874
 30
0.0
 11
48.363
 21
114.46039451419253
 31
0.0
  0
LINE
  5
292
330
17
100
AcDbEntity
  8
TOP
100
AcDbLine
 10
24.5
 20
118.84262239271874
 30
0.0
 11
27.94633333333333
 21
116.83539451419253
 31
0.0
  0
LINE
  5
293
330
17
100
AcDbEntity
  8
TOP
100
AcDbLine
 10
29.220333333333333
 20
116.83539451419253
 30
0.0
 11
32.666666666666664
 21
118.84262239271874
 31
0.0
  0
LINE
  5
294
330
17
100
AcDbEntity
  8
TOP
100
AcDbLine
 10
32.666666666666664
 20
118.84262239271874
 30
0.0
 11
36.113
 21
116.83539451419253
 31
0.0
  0
LINE
  5
295
330
17
100
AcDbEntity
  8
TOP
100
AcDbLine
 10
37.387
 20
116.83539451419253
 30
0.0
 11
40.83333333333333
 21
118.84262239271874
 31
0.0
  0
LINE
  5
296
330
17
100
AcDbEntity
  8
TOP
100
AcDbLine
 10
40.83333333333333
 20
118.84262239271874
 30
0.0
 11
44.279666666666664
 21
116.83539451419253
 31
0.0
  0
LINE
  5
297
330
17
100
AcDbEntity
  8
TOP
100
AcDbLine
 10
45.553666666666665
 20
116.83539451419253
 30
0.0
 11
49.0
 21
118.84262239271874
 31
0.0
  0
LINE
  5
298
330
17
100
AcDbEntity
  8
TOP
100
AcDbLine
 10
25.137
 20
119.21039451419253
 30
0.0
 11
28.583333333333332
 21
121.21762239271874
 31
0.0
  0
LINE
  5
299
330
17
100
AcDbEntity
  8
TOP
100
AcDbLine
 10
28.583333333333332
 20
121.21762239271874
 30
0.0
 11
32.029666666666664
 21
119.21039451419253
 31
0.0
  0
LINE
  5
29A
330
17
100
AcDbEntity
  8
TOP
100
AcDbLine
 10
33.303666666666665
 20
119.21039451419253
 30
0.0
 11
36.75
 21
121.21762239271874
 31
0.0
  0
LINE
  5
29B
330
17
100
AcDbEntity
  8
TOP
100
AcDbLine
 10
36.75
 20
121.21762239271874
 30
0.0
 11
40.19633333333333
 21
119.21039451419253
 31
0.0
  0
LINE
  5
29C
330
17
100
AcDbEntity
  8
TOP
100
AcDbLine
 10
41.47033333333333
 20
119.21039451419253
 30
0.0
 11
44.916666666666664
 21
121.21762239271874
 31
0.0
  0
LINE
  5
29D
330
17
100
AcDbEntity
  8
TOP
100
AcDbLine
 10
44.916666666666664
 20
121.21762239271874
 30
0.0
 11
48.363
 21
119.21039451419253
 31
0.0
  0
LINE
  5
29E
330
17
100
AcDbEntity
  8
TOP
100
AcDbLine
 10
24.5
 20
123.59262239271874
 30
0.0
 11
27.94633333333333
 21
121.58539451419253
 31
0.0
  0
LINE
  5
29F
330
17
100
AcDbEntity
  8
TOP
100
AcDbLine
 10
29.220333333333333
 20
121.58539451419253
 30
0.0
 11
32.666666666666664
 21
123.59262239271874
 31
0.0
  0
LINE
  5
2A0
330
17
100
AcDbEntity
  8
TOP
100
AcDbLine
 10
32.666666666666664
 20
123.59262239271874
 30
0.0
 11
36.113
 21
121.58539451419253
 31
0.0
  0
LINE
  5
2A1
330
17
100
AcDbEntity
  8
TOP
100
AcDbLine
 10
37.387
 20
121.58539451419253
 30
0.0
 11
40.83333333333333
 21
123.59262239271874
 31
0.0
  0
LINE
  5
2A2
330
17
100
AcDbEntity
  8
TOP
100
AcDbLine
 10
40.83333333333333
 20
123.59262239271874
 30
0.0
 11
44.279666666666664
 21
121.58539451419253
 31
0.0
  0
LINE
  5
2A3
330
17
100
AcDbEntity
  8
TOP
100
AcDbLine
 10
45.553666666666665
 20
121.58539451419253
 30
0.0
 11
49.0
 21
123.59262239271874
 31
0.0
  0
LINE
  5
2A4
330
17
100
AcDbEntity
  8
TOP
100
AcDbLine
 10
25.137
 20
123.96039451419253
 30
0.0
 11
28.583333333333332
 21
125.96762239271874
 31
0.0
  0
LINE
  5
2A5
330
17
100
AcDbEntity
  8
TOP
100
AcDbLine
 10
28.583333333333332
 20
125.96762239271874
 30
0.0
 11
32.029666666666664
 21
123.96039451419253
 31
0.0
  0
LINE
  5
2A6
330
17
100
AcDbEntity
  8
TOP
100
AcDbLine
 10
33.303666666666665
 20
123.96039451419253
 30
0.0
 11
36.75
 21
125.96762239271874
 31
0.0
  0
LINE
  5
2A7
330
17
100
AcDbEntity
  8
TOP
100
AcDbLine
 10
36.75
 20
125.96762239271874
 30
0.0
 11
40.19633333333333
 21
123.96039451419253
 31
0.0
  0
LINE
  5
2A8
330
17
100
AcDbEntity
  8
TOP
100
AcDbLine
 10
41.47033333333333
 20
123.96039451419253
 30
0.0
 11
44.916666666666664
 21
125.96762239271874
 31
0.0
  0
LINE
  5
2A9
330
17
100
AcDbEntity
  8
TOP
100
AcDbLine
 10
44.916666666666664
 20
125.96762239271874
 30
0.0
 11
48.363
 21
123.96039451419253
 31
0.0
  0
LINE
  5
2AA
330
17
100
AcDbEntity
  8
TOP
100
AcDbLine
 10
24.5
 20
128.34262239271874
 30
0.0
 11
27.94633333333333
 21
126.33539451419253
 31
0.0
  0
LINE
  5
2AB
330
17
100
AcDbEntity
  8
TOP
100
AcDbLine
 10
29.220333333333333
 20
126.33539451419253
 30
0.0
 11
32.666666666666664
 21
128.34262239271874
 31
0.0
  0
LINE
  5
2AC
330
17
100
AcDbEntity
  8
TOP
100
AcDbLine
 10
32.666666666666664
 20
128.34262239271874
 30
0.0
 11
36.113
 21
126.33539451419253
 31
0.0
  0
LINE
  5
2AD
330
17
100
AcDbEntity
  8
TOP
100
AcDbLine
 10
37.387
 20
126.33539451419253
 30
0.0
 11
40.83333333333333
 21
128.34262239271874
 31
0.0
  0
LINE
  5
2AE
330
17
100
AcDbEntity
  8
TOP
100
AcDbLine
 10
40.83333333333333
 20
128.34262239271874
 30
0.0
 11
44.279666666666664
 21
126.33539451419253
 31
0.0
  0
LINE
  5
2AF
330
17
100
AcDbEntity
  8
TOP
100
AcDbLine
 10
45.553666666666665
 20
126.33539451419253
 30
0.0
 11
49.0
 21
128.34262239271874
 31
0.0
  0
LINE
  5
2B0
330
17
100
AcDbEntity
  8
TOP
100
AcDbLine
 10
25.137
 20
128.71039451419253
 30
0.0
 11
28.583333333333332
 21
130.71762239271874
 31
0.0
  0
LINE
  5
2B1
330
17
100
AcDbEntity
  8
TOP
100
AcDbLine
 10
28.583333333333332
 20
130.71762239271874
 30
0.0
 11
32.029666666666664
 21
128.71039451419253
 31
0.0
  0
LINE
  5
2B2
330
17
100
AcDbEntity
  8
TOP
100
AcDbLine
 10
33.303666666666665
 20
128.71039451419253
 30
0.0
 11
36.75
 21
130.71762239271874
 31
0.0
  0
LINE
  5
2B3
330
17
100
AcDbEntity
  8
TOP
100
AcDbLine
 10
36.75
 20
130.71762239271874
 30
0.0
 11
40.19633333333333
 21
128.71039451419253
 31
0.0
  0
LINE
  5
2B4
330
17
100
AcDbEntity
  8
TOP
100
AcDbLine
 10
41.47033333333333
 20
128.71039451419253
 30
0.0
 11
44.916666666666664
 21
130.71762239271874
 31
0.0
  0
LINE
  5
2B5
330
17
100
AcDbEntity
  8
TOP
100
AcDbLine
 10
44.916666666666664
 20
130.71762239271874
 30
0.0
 11
48.363
 21
128.71039451419253
 31
0.0
  0
LINE
  5
2B6
330
17
100
AcDbEntity
  8
TOP
100
AcDbLine
 10
24.5
 20
133.09262239271874
 30
0.0
 11
27.94633333333333
 21
131.08539451419253
 31
0.0
  0
LINE
  5
2B7
330
17
100
AcDbEntity
  8
TOP
100
AcDbLine
 10
29.220333333333333
 20
131.08539451419253
 30
0.0
 11
32.666666666666664
 21
133.09262239271874
 31
0.0
  0
LINE
  5
2B8
330
17
100
AcDbEntity
  8
TOP
100
AcDbLine
 10
32.666666666666664
 20
133.09262239271874
 30
0.0
 11
36.113
 21
131.08539451419253
 31
0.0
  0
LINE
  5
2B9
330
17
100
AcDbEntity
  8
TOP
100
AcDbLine
 10
37.387
 20
131.08539451419253
 30
0.0
 11
40.83333333333333
 21
133.09262239271874
 31
0.0
  0
LINE
  5
2BA
330
17
100
AcDbEntity
  8
TOP
100
AcDbLine
 10
40.83333333333333
 20
133.09262239271874
 30
0.0
 11
44.279666666666664
 21
131.08539451419253
 31
0.0
  0
LINE
  5
2BB
330
17
100
AcDbEntity
  8
TOP
100
AcDbLine
 10
45.553666666666665
 20
131.08539451419253
 30
0.0
 11
49.0
 21
133.09262239271874
 31
0.0
  0
LINE
  5
2BC
330
17
100
AcDbEntity
  8
TOP
100
AcDbLine
 10
25.137
 20
133.46039451419253
 30
0.0
 11
28.583333333333332
 21
135.46762239271874
 31
0.0
  0
LINE
  5
2BD
330
17
100
AcDbEntity
  8
TOP
100
AcDbLine
 10
28.583333333333332
 20
135.46762239271874
 30
0.0
 11
32.029666666666664
 21
133.46039451419253
 31
0.0
  0
LINE
  5
2BE
330
17
100
AcDbEntity
  8
TOP
100
AcDbLine
 10
33.303666666666665
 20
133.46039451419253
 30
0.0
 11
36.75
 21
135.46762239271874
 31
0.0
  0
LINE
  5
2BF
330
17
100
AcDbEntity
  8
TOP
100
AcDbLine
 10
36.75
 20
135.46762239271874
 30
0.0
 11
40.19633333333333
 21
133.46039451419253
 31
0.0
  0
LINE
  5
2C0
330
17
100
AcDbEntity
  8
TOP
100
AcDbLine
 10
41.47033333333333
 20
133.46039451419253
 30
0.0
 11
44.916666666666664
 21
135.46762239271874
 31
0.0
  0
LINE
  5
2C1
330
17
100
AcDbEntity
  8
TOP
100
AcDbLine
 10
44.916666666666664
 20
135.46762239271874
 30
0.0
 11
48.363
 21
133.46039451419253
 31
0.0
  0
LINE
  5
2C2
330
17
100
AcDbEntity
  8
TOP
100
AcDbLine
 10
24.5
 20
137.84262239271874
 30
0.0
 11
27.94633333333333
 21
135.83539451419253
 31
0.0
  0
LINE
  5
2C3
330
17
100
AcDbEntity
  8
TOP
100
AcDbLine
 10
29.220333333333333
 20
135.83539451419253
 30
0.0
 11
32.666666666666664
 21
137.84262239271874
 31
0.0
  0
LINE
  5
2C4
330
17
100
AcDbEntity
  8
TOP
100
AcDbLine
 10
32.666666666666664
 20
137.84262239271874
 30
0.0
 11
36.113
 21
135.83539451419253
 31
0.0
  0
LINE
  5
2C5
330
17
100
AcDbEntity
  8
TOP
100
AcDbLine
 10
37.387
 20
135.83539451419253
 30
0.0
 11
40.83333333333333
 21
137.84262239271874
 31
0.0
  0
LINE
  5
2C6
330
17
100
AcDbEntity
  8
TOP
100
AcDbLine
 10
40.83333333333333
 20
137.84262239271874
 30
0.0
 11
44.279666666666664
 21
135.83539451419253
 31
0.0
  0
LINE
  5
2C7
330
17
100
AcDbEntity
  8
TOP
100
AcDbLine
 10
45.553666666666665
 20
135.83539451419253
 30
0.0
 11
49.0
 21
137.84262239271874
 31
0.0
  0
LINE
  5
2C8
330
17
100
AcDbEntity
  8
TOP
100
AcDbLine
 10
25.137
 20
138.21039451419253
 30
0.0
 11
28.583333333333332
 21
140.21762239271874
 31
0.0
  0
LINE
  5
2C9
330
17
100
AcDbEntity
  8
TOP
100
AcDbLine
 10
28.583333333333332
 20
140.21762239271874
 30
0.0
 11
32.029666666666664
 21
138.21039451419253
 31
0.0
  0
LINE
  5
2CA
330
17
100
AcDbEntity
  8
TOP
100
AcDbLine
 10
33.303666666666665
 20
138.21039451419253
 30
0.0
 11
36.75
 21
140.21762239271874
 31
0.0
  0
LINE
  5
2CB
330
17
100
AcDbEntity
  8
TOP
100
AcDbLine
 10
36.75
 20
140.21762239271874
 30
0.0
 11
40.19633333333333
 21
138.21039451419253
 31
0.0
  0
LINE
  5
2CC
330
17
100
AcDbEntity
  8
TOP
100
AcDbLine
 10
41.47033333333333
 20
138.21039451419253
 30
0.0
 11
44.916666666666664
 21
140.21762239271874
 31
0.0
  0
LINE
  5
2CD
330
17
100
AcDbEntity
  8
TOP
100
AcDbLine
 10
44.916666666666664
 20
140.21762239271874
 30
0.0
 11
48.363
 21
138.21039451419253
 31
0.0
  0
LINE
  5
2CE
330
17
100
AcDbEntity
  8
TOP
100
AcDbLine
 10
24.5
 20
142.59262239271874
 30
0.0
 11
27.94633333333333
 21
140.58539451419253
 31
0.0
  0
LINE
  5
2CF
330
17
100
AcDbEntity
  8
TOP
100
AcDbLine
 10
29.220333333333333
 20
140.58539451419253
 30
0.0
 11
32.666666666666664
 21
142.59262239271874
 31
0.0
  0
LINE
  5
2D0
330
17
100
AcDbEntity
  8
TOP
100
AcDbLine
 10
32.666666666666664
 20
142.59262239271874
 30
0.0
 11
36.113
 21
140.58539451419253
 31
0.0
  0
LINE
  5
2D1
330
17
100
AcDbEntity
  8
TOP
100
AcDbLine
 10
37.387
 20
140.58539451419253
 30
0.0
 11
40.83333333333333
 21
142.59262239271874
 31
0.0
  0
LINE
  5
2D2
330
17
100
AcDbEntity
  8
TOP
100
AcDbLine
 10
40.83333333333333
 20
142.59262239271874
 30
0.0
 11
44.279666666666664
 21
140.58539451419253
 31
0.0
  0
LINE
  5
2D3
330
17
100
AcDbEntity
  8
TOP
100
AcDbLine
 10
45.553666666666665
 20
140.58539451419253
 30
0.0
 11
49.0
 21
142.59262239271874
 31
0.0
  0
LINE
  5
2D4
330
17
100
AcDbEntity
  8
TOP
100
AcDbLine
 10
25.137
 20
142.96039451419253
 30
0.0
 11
28.583333333333332
 21
144.96762239271874
 31
0.0
  0
LINE
  5
2D5
330
17
100
AcDbEntity
  8
TOP
100
AcDbLine
 10
28.583333333333332
 20
144.96762239271874
 30
0.0
 11
32.029666666666664
 21
142.96039451419253
 31
0.0
  0
LINE
  5
2D6
330
17
100
AcDbEntity
  8
TOP
100
AcDbLine
 10
33.303666666666665
 20
142.96039451419253
 30
0.0
 11
36.75
 21
144.96762239271874
 31
0.0
  0
LINE
  5
2D7
330
17
100
AcDbEntity
  8
TOP
100
AcDbLine
 10
36.75
 20
144.96762239271874
 30
0.0
 11
40.19633333333333
 21
142.96039451419253
 31
0.0
  0
LINE
  5
2D8
330
17
100
AcDbEntity
  8
TOP
100
AcDbLine
 10
41.47033333333333
 20
142.96039451419253
 30
0.0
 11
44.916666666666664
 21
144.96762239271874
 31
0.0
  0
LINE
  5
2D9
330
17
100
AcDbEntity
  8
TOP
100
AcDbLine
 10
44.916666666666664
 20
144.96762239271874
 30
0.0
 11
48.363
 21
142.96039451419253
 31
0.0
  0
LINE
  5
2DA
330
17
100
AcDbEntity
  8
TOP
100
AcDbLine
 10
24.5
 20
147.34262239271874
 30
0.0
 11
27.94633333333333
 21
145.33539451419253
 31
0.0
  0
LINE
  5
2DB
330
17
100
AcDbEntity
  8
TOP
100
AcDbLine
 10
29.220333333333333
 20
145.33539451419253
 30
0.0
 11
32.666666666666664
 21
147.34262239271874
 31
0.0
  0
LINE
  5
2DC
330
17
100
AcDbEntity
  8
TOP
100
AcDbLine
 10
32.666666666666664
 20
147.34262239271874
 30
0.0
 11
36.113
 21
145.33539451419253
 31
0.0
  0
LINE
  5
2DD
330
17
100
AcDbEntity
  8
TOP
100
AcDbLine
 10
37.387
 20
145.33539451419253
 30
0.0
 11
40.83333333333333
 21
147.34262239271874
 31
0.0
  0
LINE
  5
2DE
330
17
100
AcDbEntity
  8
TOP
100
AcDbLine
 10
40.83333333333333
 20
147.34262239271874
 30
0.0
 11
44.279666666666664
 21
145.33539451419253
 31
0.0
  0
LINE
  5
2DF
330
17
100
AcDbEntity
  8
TOP
100
AcDbLine
 10
45.553666666666665
 20
145.33539451419253
 30
0.0
 11
49.0
 21
147.34262239271874
 31
0.0
  0
LINE
  5
2E0
330
17
100
AcDbEntity
  8
TOP
100
AcDbLine
 10
25.137
 20
147.71039451419253
 30
0.0
 11
28.583333333333332
 21
149.71762239271874
 31
0.0
  0
LINE
  5
2E1
330
17
100
AcDbEntity
  8
TOP
100
AcDbLine
 10
28.583333333333332
 20
149.71762239271874
 30
0.0
 11
32.029666666666664
 21
147.71039451419253
 31
0.0
  0
LINE
  5
2E2
330
17
100
AcDbEntity
  8
TOP
100
AcDbLine
 10
33.303666666666665
 20
147.71039451419253
 30
0.0
 11
36.75
 21
149.71762239271874
 31
0.0
  0
LINE
  5
2E3
330
17
100
AcDbEntity
  8
TOP
100
AcDbLine
 10
36.75
 20
149.71762239271874
 30
0.0
 11
40.19633333333333
 21
147.71039451419253
 31
0.0
  0
LINE
  5
2E4
330
17
100
AcDbEntity
  8
TOP
100
AcDbLine
 10
41.47033333333333
 20
147.71039451419253
 30
0.0
 11
44.916666666666664
 21
149.71762239271874
 31
0.0
  0
LINE
  5
2E5
330
17
100
AcDbEntity
  8
TOP
100
AcDbLine
 10
44.916666666666664
 20
149.71762239271874
 30
0.0
 11
48.363
 21
147.71039451419253
 31
0.0
  0
LINE
  5
2E6
330
17
100
AcDbEntity
  8
TOP
100
AcDbLine
 10
24.5
 20
152.09262239271874
 30
0.0
 11
27.94633333333333
 21
150.08539451419253
 31
0.0
  0
LINE
  5
2E7
330
17
100
AcDbEntity
  8
TOP
100
AcDbLine
 10
29.220333333333333
 20
150.08539451419253
 30
0.0
 11
32.666666666666664
 21
152.09262239271874
 31
0.0
  0
LINE
  5
2E8
330
17
100
AcDbEntity
  8
TOP
100
AcDbLine
 10
32.666666666666664
 20
152.09262239271874
 30
0.0
 11
36.113
 21
150.08539451419253
 31
0.0
  0
LINE
  5
2E9
330
17
100
AcDbEntity
  8
TOP
100
AcDbLine
 10
37.387
 20
150.08539451419253
 30
0.0
 11
40.83333333333333
 21
152.09262239271874
 31
0.0
  0
LINE
  5
2EA
330
17
100
AcDbEntity
  8
TOP
100
AcDbLine
 10
40.83333333333333
 20
152.09262239271874
 30
0.0
 11
44.279666666666664
 21
150.08539451419253
 31
0.0
  0
LINE
  5
2EB
330
17
100
AcDbEntity
  8
TOP
100
AcDbLine
 10
45.553666666666665
 20
150.08539451419253
 30
0.0
 11
49.0
 21
152.09262239271874
 31
0.0
  0
LINE
  5
2EC
330
17
100
AcDbEntity
  8
TOP
100
AcDbLine
 10
25.137
 20
152.46039451419253
 30
0.0
 11
28.583333333333332
 21
154.46762239271874
 31
0.0
  0
LINE
  5
2ED
330
17
100
AcDbEntity
  8
TOP
100
AcDbLine
 10
28.583333333333332
 20
154.46762239271874
 30
0.0
 11
32.029666666666664
 21
152.46039451419253
 31
0.0
  0
LINE
  5
2EE
330
17
100
AcDbEntity
  8
TOP
100
AcDbLine
 10
33.303666666666665
 20
152.46039451419253
 30
0.0
 11
36.75
 21
154.46762239271874
 31
0.0
  0
LINE
  5
2EF
330
17
100
AcDbEntity
  8
TOP
100
AcDbLine
 10
36.75
 20
154.46762239271874
 30
0.0
 11
40.19633333333333
 21
152.46039451419253
 31
0.0
  0
LINE
  5
2F0
330
17
100
AcDbEntity
  8
TOP
100
AcDbLine
 10
41.47033333333333
 20
152.46039451419253
 30
0.0
 11
44.916666666666664
 21
154.46762239271874
 31
0.0
  0
LINE
  5
2F1
330
17
100
AcDbEntity
  8
TOP
100
AcDbLine
 10
44.916666666666664
 20
154.46762239271874
 30
0.0
 11
48.363
 21
152.46039451419253
 31
0.0
  0
LINE
  5
2F2
330
17
100
AcDbEntity
  8
TOP
100
AcDbLine
 10
24.5
 20
156.84262239271874
 30
0.0
 11
27.94633333333333
 21
154.83539451419253
 31
0.0
  0
LINE
  5
2F3
330
17
100
AcDbEntity
  8
TOP
100
AcDbLine
 10
29.220333333333333
 20
154.83539451419253
 30
0.0
 11
32.666666666666664
 21
156.84262239271874
 31
0.0
  0
LINE
  5
2F4
330
17
100
AcDbEntity
  8
TOP
100
AcDbLine
 10
32.666666666666664
 20
156.84262239271874
 30
0.0
 11
36.113
 21
154.83539451419253
 31
0.0
  0
LINE
  5
2F5
330
17
100
AcDbEntity
  8
TOP
100
AcDbLine
 10
37.387
 20
154.83539451419253
 30
0.0
 11
40.83333333333333
 21
156.84262239271874
 31
0.0
  0
LINE
  5
2F6
330
17
100
AcDbEntity
  8
TOP
100
AcDbLine
 10
40.83333333333333
 20
156.84262239271874
 30
0.0
 11
44.279666666666664
 21
154.83539451419253
 31
0.0
  0
LINE
  5
2F7
330
17
100
AcDbEntity
  8
TOP
100
AcDbLine
 10
45.553666666666665
 20
154.83539451419253
 30
0.0
 11
49.0
 21
156.84262239271874
 31
0.0
  0
LINE
  5
2F8
330
17
100
AcDbEntity
  8
TOP
100
AcDbLine
 10
25.137
 20
157.21039451419253
 30
0.0
 11
28.583333333333332
 21
159.21762239271874
 31
0.0
  0
LINE
  5
2F9
330
17
100
AcDbEntity
  8
TOP
100
AcDbLine
 10
28.583333333333332
 20
159.21762239271874
 30
0.0
 11
32.029666666666664
 21
157.21039451419253
 31
0.0
  0
LINE
  5
2FA
330
17
100
AcDbEntity
  8
TOP
100
AcDbLine
 10
33.303666666666665
 20
157.21039451419253
 30
0.0
 11
36.75
 21
159.21762239271874
 31
0.0
  0
LINE
  5
2FB
330
17
100
AcDbEntity
  8
TOP
100
AcDbLine
 10
36.75
 20
159.21762239271874
 30
0.0
 11
40.19633333333333
 21
157.21039451419253
 31
0.0
  0
LINE
  5
2FC
330
17
100
AcDbEntity
  8
TOP
100
AcDbLine
 10
41.47033333333333
 20
157.21039451419253
 30
0.0
 11
44.916666666666664
 21
159.21762239271874
 31
0.0
  0
LINE
  5
2FD
330
17
100
AcDbEntity
  8
TOP
100
AcDbLine
 10
44.916666666666664
 20
159.21762239271874
 30
0.0
 11
48.363
 21
157.21039451419253
 31
0.0
  0
LINE
  5
2FE
330
17
100
AcDbEntity
  8
TOP
100
AcDbLine
 10
24.5
 20
161.59262239271874
 30
0.0
 11
27.94633333333333
 21
159.58539451419253
 31
0.0
  0
LINE
  5
2FF
330
17
100
AcDbEntity
  8
TOP
100
AcDbLine
 10
29.220333333333333
 20
159.58539451419253
 30
0.0
 11
32.666666666666664
 21
161.59262239271874
 31
0.0
  0
LINE
  5
300
330
17
100
AcDbEntity
  8
TOP
100
AcDbLine
 10
32.666666666666664
 20
161.59262239271874
 30
0.0
 11
36.113
 21
159.58539451419253
 31
0.0
  0
LINE
  5
301
330
17
100
AcDbEntity
  8
TOP
100
AcDbLine
 10
37.387
 20
159.58539451419253
 30
0.0
 11
40.83333333333333
 21
161.59262239271874
 31
0.0
  0
LINE
  5
302
330
17
100
AcDbEntity
  8
TOP
100
AcDbLine
 10
40.83333333333333
 20
161.59262239271874
 30
0.0
 11
44.279666666666664
 21
159.58539451419253
 31
0.0
  0
LINE
  5
303
330
17
100
AcDbEntity
  8
TOP
100
AcDbLine
 10
45.553666666666665
 20
159.58539451419253
 30
0.0
 11
49.0
 21
161.59262239271874
 31
0.0
  0
LINE
  5
304
330
17
100
AcDbEntity
  8
TOP
100
AcDbLine
 10
25.137
 20
161.96039451419253
 30
0.0
 11
28.583333333333332
 21
163.96762239271874
 31
0.0
  0
LINE
  5
305
330
17
100
AcDbEntity
  8
TOP
100
AcDbLine
 10
28.583333333333332
 20
163.96762239271874
 30
0.0
 11
32.029666666666664
 21
161.96039451419253
 31
0.0
  0
LINE
  5
306
330
17
100
AcDbEntity
  8
TOP
100
AcDbLine
 10
33.303666666666665
 20
161.96039451419253
 30
0.0
 11
36.75
 21
163.96762239271874
 31
0.0
  0
LINE
  5
307
330
17
100
AcDbEntity
  8
TOP
100
AcDbLine
 10
36.75
 20
163.96762239271874
 30
0.0
 11
40.19633333333333
 21
161.96039451419253
 31
0.0
  0
LINE
  5
308
330
17
100
AcDbEntity
  8
TOP
100
AcDbLine
 10
41.47033333333333
 20
161.96039451419253
 30
0.0
 11
44.916666666666664
 21
163.96762239271874
 31
0.0
  0
LINE
  5
309
330
17
100
AcDbEntity
  8
TOP
100
AcDbLine
 10
44.916666666666664
 20
163.96762239271874
 30
0.0
 11
48.363
 21
161.96039451419253
 31
0.0
  0
LINE
  5
30A
330
17
100
AcDbEntity
  8
TOP
100
AcDbLine
 10
24.5
 20
166.34262239271874
 30
0.0
 11
27.94633333333333
 21
164.33539451419253
 31
0.0
  0
LINE
  5
30B
330
17
100
AcDbEntity
  8
TOP
100
AcDbLine
 10
29.220333333333333
 20
164.33539451419253
 30
0.0
 11
32.666666666666664
 21
166.34262239271874
 31
0.0
  0
LINE
  5
30C
330
17
100
AcDbEntity
  8
TOP
100
AcDbLine
 10
32.666666666666664
 20
166.34262239271874
 30
0.0
 11
36.113
 21
164.33539451419253
 31
0.0
  0
LINE
  5
30D
330
17
100
AcDbEntity
  8
TOP
100
AcDbLine
 10
37.387
 20
164.33539451419253
 30
0.0
 11
40.83333333333333
 21
166.34262239271874
 31
0.0
  0
LINE
  5
30E
330
17
100
AcDbEntity
  8
TOP
100
AcDbLine
 10
40.83333333333333
 20
166.34262239271874
 30
0.0
 11
44.279666666666664
 21
164.33539451419253
 31
0.0
  0
LINE
  5
30F
330
17
100
AcDbEntity
  8
TOP
100
AcDbLine
 10
45.553666666666665
 20
164.33539451419253
 30
0.0
 11
49.0
 21
166.34262239271874
 31
0.0
  0
LINE
  5
310
330
17
100
AcDbEntity
  8
TOP
100
AcDbLine
 10
25.137
 20
166.71039451419253
 30
0.0
 11
28.583333333333332
 21
168.71762239271874
 31
0.0
  0
LINE
  5
311
330
17
100
AcDbEntity
  8
TOP
100
AcDbLine
 10
28.583333333333332
 20
168.71762239271874
 30
0.0
 11
32.029666666666664
 21
166.71039451419253
 31
0.0
  0
LINE
  5
312
330
17
100
AcDbEntity
  8
TOP
100
AcDbLine
 10
33.303666666666665
 20
166.71039451419253
 30
0.0
 11
36.75
 21
168.71762239271874
 31
0.0
  0
LINE
  5
313
330
17
100
AcDbEntity
  8
TOP
100
AcDbLine
 10
36.75
 20
168.71762239271874
 30
0.0
 11
40.19633333333333
 21
166.71039451419253
 31
0.0
  0
LINE
  5
314
330
17
100
AcDbEntity
  8
TOP
100
AcDbLine
 10
41.47033333333333
 20
166.71039451419253
 30
0.0
 11
44.916666666666664
 21
168.71762239271874
 31
0.0
  0
LINE
  5
315
330
17
100
AcDbEntity
  8
TOP
100
AcDbLine
 10
44.916666666666664
 20
168.71762239271874
 30
0.0
 11
48.363
 21
166.71039451419253
 31
0.0
  0
LINE
  5
316
330
17
100
AcDbEntity
  8
TOP
100
AcDbLine
 10
24.5
 20
171.09262239271874
 30
0.0
 11
27.94633333333333
 21
169.08539451419253
 31
0.0
  0
LINE
  5
317
330
17
100
AcDbEntity
  8
TOP
100
AcDbLine
 10
29.220333333333333
 20
169.08539451419253
 30
0.0
 11
32.666666666666664
 21
171.09262239271874
 31
0.0
  0
LINE
  5
318
330
17
100
AcDbEntity
  8
TOP
100
AcDbLine
 10
32.666666666666664
 20
171.09262239271874
 30
0.0
 11
36.113
 21
169.08539451419253
 31
0.0
  0
LINE
  5
319
330
17
100
AcDbEntity
  8
TOP
100
AcDbLine
 10
37.387
 20
169.08539451419253
 30
0.0
 11
40.83333333333333
 21
171.09262239271874
 31
0.0
  0
LINE
  5
31A
330
17
100
AcDbEntity
  8
TOP
100
AcDbLine
 10
40.83333333333333
 20
171.09262239271874
 30
0.0
 11
44.279666666666664
 21
169.08539451419253
 31
0.0
  0
LINE
  5
31B
330
17
100
AcDbEntity
  8
TOP
100
AcDbLine
 10
45.553666666666665
 20
169.08539451419253
 30
0.0
 11
49.0
 21
171.09262239271874
 31
0.0
  0
LINE
  5
31C
330
17
100
AcDbEntity
  8
TOP
100
AcDbLine
 10
25.137
 20
171.46039451419253
 30
0.0
 11
28.583333333333332
 21
173.46762239271874
 31
0.0
  0
LINE
  5
31D
330
17
100
AcDbEntity
  8
TOP
100
AcDbLine
 10
28.583333333333332
 20
173.46762239271874
 30
0.0
 11
32.029666666666664
 21
171.46039451419253
 31
0.0
  0
LINE
  5
31E
330
17
100
AcDbEntity
  8
TOP
100
AcDbLine
 10
33.303666666666665
 20
171.46039451419253
 30
0.0
 11
36.75
 21
173.46762239271874
 31
0.0
  0
LINE
  5
31F
330
17
100
AcDbEntity
  8
TOP
100
AcDbLine
 10
36.75
 20
173.46762239271874
 30
0.0
 11
40.19633333333333
 21
171.46039451419253
 31
0.0
  0
LINE
  5
320
330
17
100
AcDbEntity
  8
TOP
100
AcDbLine
 10
41.47033333333333
 20
171.46039451419253
 30
0.0
 11
44.916666666666664
 21
173.46762239271874
 31
0.0
  0
LINE
  5
321
330
17
100
AcDbEntity
  8
TOP
100
AcDbLine
 10
44.916666666666664
 20
173.46762239271874
 30
0.0
 11
48.363
 21
171.46039451419253
 31
0.0
  0
LINE
  5
322
330
17
100
AcDbEntity
  8
TOP
100
AcDbLine
 10
24.5
 20
175.84262239271874
 30
0.0
 11
27.94633333333333
 21
173.83539451419253
 31
0.0
  0
LINE
  5
323
330
17
100
AcDbEntity
  8
TOP
100
AcDbLine
 10
29.220333333333333
 20
173.83539451419253
 30
0.0
 11
32.666666666666664
 21
175.84262239271874
 31
0.0
  0
LINE
  5
324
330
17
100
AcDbEntity
  8
TOP
100
AcDbLine
 10
32.666666666666664
 20
175.84262239271874
 30
0.0
 11
36.113
 21
173.83539451419253
 31
0.0
  0
LINE
  5
325
330
17
100
AcDbEntity
  8
TOP
100
AcDbLine
 10
37.387
 20
173.83539451419253
 30
0.0
 11
40.83333333333333
 21
175.84262239271874
 31
0.0
  0
LINE
  5
326
330
17
100
AcDbEntity
  8
TOP
100
AcDbLine
 10
40.83333333333333
 20
175.84262239271874
 30
0.0
 11
44.279666666666664
 21
173.83539451419253
 31
0.0
  0
LINE
  5
327
330
17
100
AcDbEntity
  8
TOP
100
AcDbLine
 10
45.553666666666665
 20
173.83539451419253
 30
0.0
 11
49.0
 21
175.84262239271874
 31
0.0
  0
LINE
  5
328
330
17
100
AcDbEntity
  8
TOP
100
AcDbLine
 10
25.137
 20
176.21039451419253
 30
0.0
 11
28.583333333333332
 21
178.21762239271874
 31
0.0
  0
LINE
  5
329
330
17
100
AcDbEntity
  8
TOP
100
AcDbLine
 10
28.583333333333332
 20
178.21762239271874
 30
0.0
 11
32.029666666666664
 21
176.21039451419253
 31
0.0
  0
LINE
  5
32A
330
17
100
AcDbEntity
  8
TOP
100
AcDbLine
 10
33.303666666666665
 20
176.21039451419253
 30
0.0
 11
36.75
 21
178.21762239271874
 31
0.0
  0
LINE
  5
32B
330
17
100
AcDbEntity
  8
TOP
100
AcDbLine
 10
36.75
 20
178.21762239271874
 30
0.0
 11
40.19633333333333
 21
176.21039451419253
 31
0.0
  0
LINE
  5
32C
330
17
100
AcDbEntity
  8
TOP
100
AcDbLine
 10
41.47033333333333
 20
176.21039451419253
 30
0.0
 11
44.916666666666664
 21
178.21762239271874
 31
0.0
  0
LINE
  5
32D
330
17
100
AcDbEntity
  8
TOP
100
AcDbLine
 10
44.916666666666664
 20
178.21762239271874
 30
0.0
 11
48.363
 21
176.21039451419253
 31
0.0
  0
LINE
  5
32E
330
17
100
AcDbEntity
  8
TOP
100
AcDbLine
 10
49.0
 20
28.592622392718745
 30
0.0
 11
52.446333333333335
 21
26.585394514192537
 31
0.0
  0
LINE
  5
32F
330
17
100
AcDbEntity
  8
TOP
100
AcDbLine
 10
53.720333333333336
 20
26.585394514192537
 30
0.0
 11
57.166666666666664
 21
28.592622392718745
 31
0.0
  0
LINE
  5
330
330
17
100
AcDbEntity
  8
TOP
100
AcDbLine
 10
57.166666666666664
 20
28.592622392718745
 30
0.0
 11
60.613
 21
26.585394514192537
 31
0.0
  0
LINE
  5
331
330
17
100
AcDbEntity
  8
TOP
100
AcDbLine
 10
61.887
 20
26.585394514192537
 30
0.0
 11
65.33333333333333
 21
28.592622392718745
 31
0.0
  0
LINE
  5
332
330
17
100
AcDbEntity
  8
TOP
100
AcDbLine
 10
65.33333333333333
 20
28.592622392718745
 30
0.0
 11
68.77966666666666
 21
26.585394514192537
 31
0.0
  0
LINE
  5
333
330
17
100
AcDbEntity
  8
TOP
100
AcDbLine
 10
70.05366666666666
 20
26.585394514192537
 30
0.0
 11
73.5
 21
28.592622392718745
 31
0.0
  0
LINE
  5
334
330
17
100
AcDbEntity
  8
TOP
100
AcDbLine
 10
49.637
 20
28.960394514192537
 30
0.0
 11
53.083333333333336
 21
30.967622392718745
 31
0.0
  0
LINE
  5
335
330
17
100
AcDbEntity
  8
TOP
100
AcDbLine
 10
53.083333333333336
 20
30.967622392718745
 30
0.0
 11
56.529666666666664
 21
28.960394514192537
 31
0.0
  0
LINE
  5
336
330
17
100
AcDbEntity
  8
TOP
100
AcDbLine
 10
57.803666666666665
 20
28.960394514192537
 30
0.0
 11
61.25
 21
30.967622392718745
 31
0.0
  0
LINE
  5
337
330
17
100
AcDbEntity
  8
TOP
100
AcDbLine
 10
61.25
 20
30.967622392718745
 30
0.0
 11
64.69633333333333
 21
28.960394514192537
 31
0.0
  0
LINE
  5
338
330
17
100
AcDbEntity
  8
TOP
100
AcDbLine
 10
65.97033333333333
 20
28.960394514192537
 30
0.0
 11
69.41666666666666
 21
30.967622392718745
 31
0.0
  0
LINE
  5
339
330
17
100
AcDbEntity
  8
TOP
100
AcDbLine
 10
69.41666666666666
 20
30.967622392718745
 30
0.0
 11
72.863
 21
28.960394514192537
 31
0.0
  0
LINE
  5
33A
330
17
100
AcDbEntity
  8
TOP
100
AcDbLine
 10
49.0
 20
33.342622392718745
 30
0.0
 11
52.446333333333335
 21
31.335394514192537
 31
0.0
  0
LINE
  5
33B
330
17
100
AcDbEntity
  8
TOP
100
AcDbLine
 10
53.720333333333336
 20
31.335394514192537
 30
0.0
 11
57.166666666666664
 21
33.342622392718745
 31
0.0
  0
LINE
  5
33C
330
17
100
AcDbEntity
  8
TOP
100
AcDbLine
 10
57.166666666666664
 20
33.342622392718745
 30
0.0
 11
60.613
 21
31.335394514192537
 31
0.0
  0
LINE
  5
33D
330
17
100
AcDbEntity
  8
TOP
100
AcDbLine
 10
61.887
 20
31.335394514192537
 30
0.0
 11
65.33333333333333
 21
33.342622392718745
 31
0.0
  0
LINE
  5
33E
330
17
100
AcDbEntity
  8
TOP
100
AcDbLine
 10
65.33333333333333
 20
33.342622392718745
 30
0.0
 11
68.77966666666666
 21
31.335394514192537
 31
0.0
  0
LINE
  5
33F
330
17
100
AcDbEntity
  8
TOP
100
AcDbLine
 10
70.05366666666666
 20
31.335394514192537
 30
0.0
 11
73.5
 21
33.342622392718745
 31
0.0
  0
LINE
  5
340
330
17
100
AcDbEntity
  8
TOP
100
AcDbLine
 10
49.637
 20
33.71039451419254
 30
0.0
 11
53.083333333333336
 21
35.717622392718745
 31
0.0
  0
LINE
  5
341
330
17
100
AcDbEntity
  8
TOP
100
AcDbLine
 10
53.083333333333336
 20
35.717622392718745
 30
0.0
 11
56.529666666666664
 21
33.71039451419254
 31
0.0
  0
LINE
  5
342
330
17
100
AcDbEntity
  8
TOP
100
AcDbLine
 10
57.803666666666665
 20
33.71039451419254
 30
0.0
 11
61.25
 21
35.717622392718745
 31
0.0
  0
LINE
  5
343
330
17
100
AcDbEntity
  8
TOP
100
AcDbLine
 10
61.25
 20
35.717622392718745
 30
0.0
 11
64.69633333333333
 21
33.71039451419254
 31
0.0
  0
LINE
  5
344
330
17
100
AcDbEntity
  8
TOP
100
AcDbLine
 10
65.97033333333333
 20
33.71039451419254
 30
0.0
 11
69.41666666666666
 21
35.717622392718745
 31
0.0
  0
LINE
  5
345
330
17
100
AcDbEntity
  8
TOP
100
AcDbLine
 10
69.41666666666666
 20
35.717622392718745
 30
0.0
 11
72.863
 21
33.71039451419254
 31
0.0
  0
LINE
  5
346
330
17
100
AcDbEntity
  8
TOP
100
AcDbLine
 10
49.0
 20
38.092622392718745
 30
0.0
 11
52.446333333333335
 21
36.08539451419254
 31
0.0
  0
LINE
  5
347
330
17
100
AcDbEntity
  8
TOP
100
AcDbLine
 10
53.720333333333336
 20
36.08539451419254
 30
0.0
 11
57.166666666666664
 21
38.092622392718745
 31
0.0
  0
LINE
  5
348
330
17
100
AcDbEntity
  8
TOP
100
AcDbLine
 10
57.166666666666664
 20
38.092622392718745
 30
0.0
 11
60.613
 21
36.08539451419254
 31
0.0
  0
LINE
  5
349
330
17
100
AcDbEntity
  8
TOP
100
AcDbLine
 10
61.887
 20
36.08539451419254
 30
0.0
 11
65.33333333333333
 21
38.092622392718745
 31
0.0
  0
LINE
  5
34A
330
17
100
AcDbEntity
  8
TOP
100
AcDbLine
 10
65.33333333333333
 20
38.092622392718745
 30
0.0
 11
68.77966666666666
 21
36.08539451419254
 31
0.0
  0
LINE
  5
34B
330
17
100
AcDbEntity
  8
TOP
100
AcDbLine
 10
70.05366666666666
 20
36.08539451419254
 30
0.0
 11
73.5
 21
38.092622392718745
 31
0.0
  0
LINE
  5
34C
330
17
100
AcDbEntity
  8
TOP
100
AcDbLine
 10
49.637
 20
38.46039451419254
 30
0.0
 11
53.083333333333336
 21
40.467622392718745
 31
0.0
  0
LINE
  5
34D
330
17
100
AcDbEntity
  8
TOP
100
AcDbLine
 10
53.083333333333336
 20
40.467622392718745
 30
0.0
 11
56.529666666666664
 21
38.46039451419254
 31
0.0
  0
LINE
  5
34E
330
17
100
AcDbEntity
  8
TOP
100
AcDbLine
 10
57.803666666666665
 20
38.46039451419254
 30
0.0
 11
61.25
 21
40.467622392718745
 31
0.0
  0
LINE
  5
34F
330
17
100
AcDbEntity
  8
TOP
100
AcDbLine
 10
61.25
 20
40.467622392718745
 30
0.0
 11
64.69633333333333
 21
38.46039451419254
 31
0.0
  0
LINE
  5
350
330
17
100
AcDbEntity
  8
TOP
100
AcDbLine
 10
65.97033333333333
 20
38.46039451419254
 30
0.0
 11
69.41666666666666
 21
40.467622392718745
 31
0.0
  0
LINE
  5
351
330
17
100
AcDbEntity
  8
TOP
100
AcDbLine
 10
69.41666666666666
 20
40.467622392718745
 30
0.0
 11
72.863
 21
38.46039451419254
 31
0.0
  0
LINE
  5
352
330
17
100
AcDbEntity
  8
TOP
100
AcDbLine
 10
49.0
 20
42.842622392718745
 30
0.0
 11
52.446333333333335
 21
40.83539451419254
 31
0.0
  0
LINE
  5
353
330
17
100
AcDbEntity
  8
TOP
100
AcDbLine
 10
53.720333333333336
 20
40.83539451419254
 30
0.0
 11
57.166666666666664
 21
42.842622392718745
 31
0.0
  0
LINE
  5
354
330
17
100
AcDbEntity
  8
TOP
100
AcDbLine
 10
57.166666666666664
 20
42.842622392718745
 30
0.0
 11
60.613
 21
40.83539451419254
 31
0.0
  0
LINE
  5
355
330
17
100
AcDbEntity
  8
TOP
100
AcDbLine
 10
61.887
 20
40.83539451419254
 30
0.0
 11
65.33333333333333
 21
42.842622392718745
 31
0.0
  0
LINE
  5
356
330
17
100
AcDbEntity
  8
TOP
100
AcDbLine
 10
65.33333333333333
 20
42.842622392718745
 30
0.0
 11
68.77966666666666
 21
40.83539451419254
 31
0.0
  0
LINE
  5
357
330
17
100
AcDbEntity
  8
TOP
100
AcDbLine
 10
70.05366666666666
 20
40.83539451419254
 30
0.0
 11
73.5
 21
42.842622392718745
 31
0.0
  0
LINE
  5
358
330
17
100
AcDbEntity
  8
TOP
100
AcDbLine
 10
49.637
 20
43.21039451419254
 30
0.0
 11
53.083333333333336
 21
45.217622392718745
 31
0.0
  0
LINE
  5
359
330
17
100
AcDbEntity
  8
TOP
100
AcDbLine
 10
53.083333333333336
 20
45.217622392718745
 30
0.0
 11
56.529666666666664
 21
43.21039451419254
 31
0.0
  0
LINE
  5
35A
330
17
100
AcDbEntity
  8
TOP
100
AcDbLine
 10
57.803666666666665
 20
43.21039451419254
 30
0.0
 11
61.25
 21
45.217622392718745
 31
0.0
  0
LINE
  5
35B
330
17
100
AcDbEntity
  8
TOP
100
AcDbLine
 10
61.25
 20
45.217622392718745
 30
0.0
 11
64.69633333333333
 21
43.21039451419254
 31
0.0
  0
LINE
  5
35C
330
17
100
AcDbEntity
  8
TOP
100
AcDbLine
 10
65.97033333333333
 20
43.21039451419254
 30
0.0
 11
69.41666666666666
 21
45.217622392718745
 31
0.0
  0
LINE
  5
35D
330
17
100
AcDbEntity
  8
TOP
100
AcDbLine
 10
69.41666666666666
 20
45.217622392718745
 30
0.0
 11
72.863
 21
43.21039451419254
 31
0.0
  0
LINE
  5
35E
330
17
100
AcDbEntity
  8
TOP
100
AcDbLine
 10
49.0
 20
47.592622392718745
 30
0.0
 11
52.446333333333335
 21
45.58539451419254
 31
0.0
  0
LINE
  5
35F
330
17
100
AcDbEntity
  8
TOP
100
AcDbLine
 10
53.720333333333336
 20
45.58539451419254
 30
0.0
 11
57.166666666666664
 21
47.592622392718745
 31
0.0
  0
LINE
  5
360
330
17
100
AcDbEntity
  8
TOP
100
AcDbLine
 10
57.166666666666664
 20
47.592622392718745
 30
0.0
 11
60.613
 21
45.58539451419254
 31
0.0
  0
LINE
  5
361
330
17
100
AcDbEntity
  8
TOP
100
AcDbLine
 10
61.887
 20
45.58539451419254
 30
0.0
 11
65.33333333333333
 21
47.592622392718745
 31
0.0
  0
LINE
  5
362
330
17
100
AcDbEntity
  8
TOP
100
AcDbLine
 10
65.33333333333333
 20
47.592622392718745
 30
0.0
 11
68.77966666666666
 21
45.58539451419254
 31
0.0
  0
LINE
  5
363
330
17
100
AcDbEntity
  8
TOP
100
AcDbLine
 10
70.05366666666666
 20
45.58539451419254
 30
0.0
 11
73.5
 21
47.592622392718745
 31
0.0
  0
LINE
  5
364
330
17
100
AcDbEntity
  8
TOP
100
AcDbLine
 10
49.637
 20
47.96039451419254
 30
0.0
 11
53.083333333333336
 21
49.967622392718745
 31
0.0
  0
LINE
  5
365
330
17
100
AcDbEntity
  8
TOP
100
AcDbLine
 10
53.083333333333336
 20
49.967622392718745
 30
0.0
 11
56.529666666666664
 21
47.96039451419254
 31
0.0
  0
LINE
  5
366
330
17
100
AcDbEntity
  8
TOP
100
AcDbLine
 10
57.803666666666665
 20
47.96039451419254
 30
0.0
 11
61.25
 21
49.967622392718745
 31
0.0
  0
LINE
  5
367
330
17
100
AcDbEntity
  8
TOP
100
AcDbLine
 10
61.25
 20
49.967622392718745
 30
0.0
 11
64.69633333333333
 21
47.96039451419254
 31
0.0
  0
LINE
  5
368
330
17
100
AcDbEntity
  8
TOP
100
AcDbLine
 10
65.97033333333333
 20
47.96039451419254
 30
0.0
 11
69.41666666666666
 21
49.967622392718745
 31
0.0
  0
LINE
  5
369
330
17
100
AcDbEntity
  8
TOP
100
AcDbLine
 10
69.41666666666666
 20
49.967622392718745
 30
0.0
 11
72.863
 21
47.96039451419254
 31
0.0
  0
LINE
  5
36A
330
17
100
AcDbEntity
  8
TOP
100
AcDbLine
 10
49.0
 20
52.342622392718745
 30
0.0
 11
52.446333333333335
 21
50.33539451419254
 31
0.0
  0
LINE
  5
36B
330
17
100
AcDbEntity
  8
TOP
100
AcDbLine
 10
53.720333333333336
 20
50.33539451419254
 30
0.0
 11
57.166666666666664
 21
52.342622392718745
 31
0.0
  0
LINE
  5
36C
330
17
100
AcDbEntity
  8
TOP
100
AcDbLine
 10
57.166666666666664
 20
52.342622392718745
 30
0.0
 11
60.613
 21
50.33539451419254
 31
0.0
  0
LINE
  5
36D
330
17
100
AcDbEntity
  8
TOP
100
AcDbLine
 10
61.887
 20
50.33539451419254
 30
0.0
 11
65.33333333333333
 21
52.342622392718745
 31
0.0
  0
LINE
  5
36E
330
17
100
AcDbEntity
  8
TOP
100
AcDbLine
 10
65.33333333333333
 20
52.342622392718745
 30
0.0
 11
68.77966666666666
 21
50.33539451419254
 31
0.0
  0
LINE
  5
36F
330
17
100
AcDbEntity
  8
TOP
100
AcDbLine
 10
70.05366666666666
 20
50.33539451419254
 30
0.0
 11
73.5
 21
52.342622392718745
 31
0.0
  0
LINE
  5
370
330
17
100
AcDbEntity
  8
TOP
100
AcDbLine
 10
49.637
 20
52.71039451419254
 30
0.0
 11
53.083333333333336
 21
54.717622392718745
 31
0.0
  0
LINE
  5
371
330
17
100
AcDbEntity
  8
TOP
100
AcDbLine
 10
53.083333333333336
 20
54.717622392718745
 30
0.0
 11
56.529666666666664
 21
52.71039451419254
 31
0.0
  0
LINE
  5
372
330
17
100
AcDbEntity
  8
TOP
100
AcDbLine
 10
57.803666666666665
 20
52.71039451419254
 30
0.0
 11
61.25
 21
54.717622392718745
 31
0.0
  0
LINE
  5
373
330
17
100
AcDbEntity
  8
TOP
100
AcDbLine
 10
61.25
 20
54.717622392718745
 30
0.0
 11
64.69633333333333
 21
52.71039451419254
 31
0.0
  0
LINE
  5
374
330
17
100
AcDbEntity
  8
TOP
100
AcDbLine
 10
65.97033333333333
 20
52.71039451419254
 30
0.0
 11
69.41666666666666
 21
54.717622392718745
 31
0.0
  0
LINE
  5
375
330
17
100
AcDbEntity
  8
TOP
100
AcDbLine
 10
69.41666666666666
 20
54.717622392718745
 30
0.0
 11
72.863
 21
52.71039451419254
 31
0.0
  0
LINE
  5
376
330
17
100
AcDbEntity
  8
TOP
100
AcDbLine
 10
49.0
 20
57.092622392718745
 30
0.0
 11
52.446333333333335
 21
55.08539451419254
 31
0.0
  0
LINE
  5
377
330
17
100
AcDbEntity
  8
TOP
100
AcDbLine
 10
53.720333333333336
 20
55.08539451419254
 30
0.0
 11
57.166666666666664
 21
57.092622392718745
 31
0.0
  0
LINE
  5
378
330
17
100
AcDbEntity
  8
TOP
100
AcDbLine
 10
57.166666666666664
 20
57.092622392718745
 30
0.0
 11
60.613
 21
55.08539451419254
 31
0.0
  0
LINE
  5
379
330
17
100
AcDbEntity
  8
TOP
100
AcDbLine
 10
61.887
 20
55.08539451419254
 30
0.0
 11
65.33333333333333
 21
57.092622392718745
 31
0.0
  0
LINE
  5
37A
330
17
100
AcDbEntity
  8
TOP
100
AcDbLine
 10
65.33333333333333
 20
57.092622392718745
 30
0.0
 11
68.77966666666666
 21
55.08539451419254
 31
0.0
  0
LINE
  5
37B
330
17
100
AcDbEntity
  8
TOP
100
AcDbLine
 10
70.05366666666666
 20
55.08539451419254
 30
0.0
 11
73.5
 21
57.092622392718745
 31
0.0
  0
LINE
  5
37C
330
17
100
AcDbEntity
  8
TOP
100
AcDbLine
 10
49.637
 20
57.46039451419254
 30
0.0
 11
53.083333333333336
 21
59.467622392718745
 31
0.0
  0
LINE
  5
37D
330
17
100
AcDbEntity
  8
TOP
100
AcDbLine
 10
53.083333333333336
 20
59.467622392718745
 30
0.0
 11
56.529666666666664
 21
57.46039451419254
 31
0.0
  0
LINE
  5
37E
330
17
100
AcDbEntity
  8
TOP
100
AcDbLine
 10
57.803666666666665
 20
57.46039451419254
 30
0.0
 11
61.25
 21
59.467622392718745
 31
0.0
  0
LINE
  5
37F
330
17
100
AcDbEntity
  8
TOP
100
AcDbLine
 10
61.25
 20
59.467622392718745
 30
0.0
 11
64.69633333333333
 21
57.46039451419254
 31
0.0
  0
LINE
  5
380
330
17
100
AcDbEntity
  8
TOP
100
AcDbLine
 10
65.97033333333333
 20
57.46039451419254
 30
0.0
 11
69.41666666666666
 21
59.467622392718745
 31
0.0
  0
LINE
  5
381
330
17
100
AcDbEntity
  8
TOP
100
AcDbLine
 10
69.41666666666666
 20
59.467622392718745
 30
0.0
 11
72.863
 21
57.46039451419254
 31
0.0
  0
LINE
  5
382
330
17
100
AcDbEntity
  8
TOP
100
AcDbLine
 10
49.0
 20
61.842622392718745
 30
0.0
 11
52.446333333333335
 21
59.83539451419254
 31
0.0
  0
LINE
  5
383
330
17
100
AcDbEntity
  8
TOP
100
AcDbLine
 10
53.720333333333336
 20
59.83539451419254
 30
0.0
 11
57.166666666666664
 21
61.842622392718745
 31
0.0
  0
LINE
  5
384
330
17
100
AcDbEntity
  8
TOP
100
AcDbLine
 10
57.166666666666664
 20
61.842622392718745
 30
0.0
 11
60.613
 21
59.83539451419254
 31
0.0
  0
LINE
  5
385
330
17
100
AcDbEntity
  8
TOP
100
AcDbLine
 10
61.887
 20
59.83539451419254
 30
0.0
 11
65.33333333333333
 21
61.842622392718745
 31
0.0
  0
LINE
  5
386
330
17
100
AcDbEntity
  8
TOP
100
AcDbLine
 10
65.33333333333333
 20
61.842622392718745
 30
0.0
 11
68.77966666666666
 21
59.83539451419254
 31
0.0
  0
LINE
  5
387
330
17
100
AcDbEntity
  8
TOP
100
AcDbLine
 10
70.05366666666666
 20
59.83539451419254
 30
0.0
 11
73.5
 21
61.842622392718745
 31
0.0
  0
LINE
  5
388
330
17
100
AcDbEntity
  8
TOP
100
AcDbLine
 10
49.637
 20
62.21039451419254
 30
0.0
 11
53.083333333333336
 21
64.21762239271874
 31
0.0
  0
LINE
  5
389
330
17
100
AcDbEntity
  8
TOP
100
AcDbLine
 10
53.083333333333336
 20
64.21762239271874
 30
0.0
 11
56.529666666666664
 21
62.21039451419254
 31
0.0
  0
LINE
  5
38A
330
17
100
AcDbEntity
  8
TOP
100
AcDbLine
 10
57.803666666666665
 20
62.21039451419254
 30
0.0
 11
61.25
 21
64.21762239271874
 31
0.0
  0
LINE
  5
38B
330
17
100
AcDbEntity
  8
TOP
100
AcDbLine
 10
61.25
 20
64.21762239271874
 30
0.0
 11
64.69633333333333
 21
62.21039451419254
 31
0.0
  0
LINE
  5
38C
330
17
100
AcDbEntity
  8
TOP
100
AcDbLine
 10
65.97033333333333
 20
62.21039451419254
 30
0.0
 11
69.41666666666666
 21
64.21762239271874
 31
0.0
  0
LINE
  5
38D
330
17
100
AcDbEntity
  8
TOP
100
AcDbLine
 10
69.41666666666666
 20
64.21762239271874
 30
0.0
 11
72.863
 21
62.21039451419254
 31
0.0
  0
LINE
  5
38E
330
17
100
AcDbEntity
  8
TOP
100
AcDbLine
 10
49.0
 20
66.59262239271874
 30
0.0
 11
52.446333333333335
 21
64.58539451419253
 31
0.0
  0
LINE
  5
38F
330
17
100
AcDbEntity
  8
TOP
100
AcDbLine
 10
53.720333333333336
 20
64.58539451419253
 30
0.0
 11
57.166666666666664
 21
66.59262239271874
 31
0.0
  0
LINE
  5
390
330
17
100
AcDbEntity
  8
TOP
100
AcDbLine
 10
57.166666666666664
 20
66.59262239271874
 30
0.0
 11
60.613
 21
64.58539451419253
 31
0.0
  0
LINE
  5
391
330
17
100
AcDbEntity
  8
TOP
100
AcDbLine
 10
61.887
 20
64.58539451419253
 30
0.0
 11
65.33333333333333
 21
66.59262239271874
 31
0.0
  0
LINE
  5
392
330
17
100
AcDbEntity
  8
TOP
100
AcDbLine
 10
65.33333333333333
 20
66.59262239271874
 30
0.0
 11
68.77966666666666
 21
64.58539451419253
 31
0.0
  0
LINE
  5
393
330
17
100
AcDbEntity
  8
TOP
100
AcDbLine
 10
70.05366666666666
 20
64.58539451419253
 30
0.0
 11
73.5
 21
66.59262239271874
 31
0.0
  0
LINE
  5
394
330
17
100
AcDbEntity
  8
TOP
100
AcDbLine
 10
49.637
 20
66.96039451419253
 30
0.0
 11
53.083333333333336
 21
68.96762239271874
 31
0.0
  0
LINE
  5
395
330
17
100
AcDbEntity
  8
TOP
100
AcDbLine
 10
53.083333333333336
 20
68.96762239271874
 30
0.0
 11
56.529666666666664
 21
66.96039451419253
 31
0.0
  0
LINE
  5
396
330
17
100
AcDbEntity
  8
TOP
100
AcDbLine
 10
57.803666666666665
 20
66.96039451419253
 30
0.0
 11
61.25
 21
68.96762239271874
 31
0.0
  0
LINE
  5
397
330
17
100
AcDbEntity
  8
TOP
100
AcDbLine
 10
61.25
 20
68.96762239271874
 30
0.0
 11
64.69633333333333
 21
66.96039451419253
 31
0.0
  0
LINE
  5
398
330
17
100
AcDbEntity
  8
TOP
100
AcDbLine
 10
65.97033333333333
 20
66.96039451419253
 30
0.0
 11
69.41666666666666
 21
68.96762239271874
 31
0.0
  0
LINE
  5
399
330
17
100
AcDbEntity
  8
TOP
100
AcDbLine
 10
69.41666666666666
 20
68.96762239271874
 30
0.0
 11
72.863
 21
66.96039451419253
 31
0.0
  0
LINE
  5
39A
330
17
100
AcDbEntity
  8
TOP
100
AcDbLine
 10
49.0
 20
71.34262239271874
 30
0.0
 11
52.446333333333335
 21
69.33539451419253
 31
0.0
  0
LINE
  5
39B
330
17
100
AcDbEntity
  8
TOP
100
AcDbLine
 10
53.720333333333336
 20
69.33539451419253
 30
0.0
 11
57.166666666666664
 21
71.34262239271874
 31
0.0
  0
LINE
  5
39C
330
17
100
AcDbEntity
  8
TOP
100
AcDbLine
 10
57.166666666666664
 20
71.34262239271874
 30
0.0
 11
60.613
 21
69.33539451419253
 31
0.0
  0
LINE
  5
39D
330
17
100
AcDbEntity
  8
TOP
100
AcDbLine
 10
61.887
 20
69.33539451419253
 30
0.0
 11
65.33333333333333
 21
71.34262239271874
 31
0.0
  0
LINE
  5
39E
330
17
100
AcDbEntity
  8
TOP
100
AcDbLine
 10
65.33333333333333
 20
71.34262239271874
 30
0.0
 11
68.77966666666666
 21
69.33539451419253
 31
0.0
  0
LINE
  5
39F
330
17
100
AcDbEntity
  8
TOP
100
AcDbLine
 10
70.05366666666666
 20
69.33539451419253
 30
0.0
 11
73.5
 21
71.34262239271874
 31
0.0
  0
LINE
  5
3A0
330
17
100
AcDbEntity
  8
TOP
100
AcDbLine
 10
49.637
 20
71.71039451419253
 30
0.0
 11
53.083333333333336
 21
73.71762239271874
 31
0.0
  0
LINE
  5
3A1
330
17
100
AcDbEntity
  8
TOP
100
AcDbLine
 10
53.083333333333336
 20
73.71762239271874
 30
0.0
 11
56.529666666666664
 21
71.71039451419253
 31
0.0
  0
LINE
  5
3A2
330
17
100
AcDbEntity
  8
TOP
100
AcDbLine
 10
57.803666666666665
 20
71.71039451419253
 30
0.0
 11
61.25
 21
73.71762239271874
 31
0.0
  0
LINE
  5
3A3
330
17
100
AcDbEntity
  8
TOP
100
AcDbLine
 10
61.25
 20
73.71762239271874
 30
0.0
 11
64.69633333333333
 21
71.71039451419253
 31
0.0
  0
LINE
  5
3A4
330
17
100
AcDbEntity
  8
TOP
100
AcDbLine
 10
65.97033333333333
 20
71.71039451419253
 30
0.0
 11
69.41666666666666
 21
73.71762239271874
 31
0.0
  0
LINE
  5
3A5
330
17
100
AcDbEntity
  8
TOP
100
AcDbLine
 10
69.41666666666666
 20
73.71762239271874
 30
0.0
 11
72.863
 21
71.71039451419253
 31
0.0
  0
LINE
  5
3A6
330
17
100
AcDbEntity
  8
TOP
100
AcDbLine
 10
49.0
 20
76.09262239271874
 30
0.0
 11
52.446333333333335
 21
74.08539451419253
 31
0.0
  0
LINE
  5
3A7
330
17
100
AcDbEntity
  8
TOP
100
AcDbLine
 10
53.720333333333336
 20
74.08539451419253
 30
0.0
 11
57.166666666666664
 21
76.09262239271874
 31
0.0
  0
LINE
  5
3A8
330
17
100
AcDbEntity
  8
TOP
100
AcDbLine
 10
57.166666666666664
 20
76.09262239271874
 30
0.0
 11
60.613
 21
74.08539451419253
 31
0.0
  0
LINE
  5
3A9
330
17
100
AcDbEntity
  8
TOP
100
AcDbLine
 10
61.887
 20
74.08539451419253
 30
0.0
 11
65.33333333333333
 21
76.09262239271874
 31
0.0
  0
LINE
  5
3AA
330
17
100
AcDbEntity
  8
TOP
100
AcDbLine
 10
65.33333333333333
 20
76.09262239271874
 30
0.0
 11
68.77966666666666
 21
74.08539451419253
 31
0.0
  0
LINE
  5
3AB
330
17
100
AcDbEntity
  8
TOP
100
AcDbLine
 10
70.05366666666666
 20
74.08539451419253
 30
0.0
 11
73.5
 21
76.09262239271874
 31
0.0
  0
LINE
  5
3AC
330
17
100
AcDbEntity
  8
TOP
100
AcDbLine
 10
49.637
 20
76.46039451419253
 30
0.0
 11
53.083333333333336
 21
78.46762239271874
 31
0.0
  0
LINE
  5
3AD
330
17
100
AcDbEntity
  8
TOP
100
AcDbLine
 10
53.083333333333336
 20
78.46762239271874
 30
0.0
 11
56.529666666666664
 21
76.46039451419253
 31
0.0
  0
LINE
  5
3AE
330
17
100
AcDbEntity
  8
TOP
100
AcDbLine
 10
57.803666666666665
 20
76.46039451419253
 30
0.0
 11
61.25
 21
78.46762239271874
 31
0.0
  0
LINE
  5
3AF
330
17
100
AcDbEntity
  8
TOP
100
AcDbLine
 10
61.25
 20
78.46762239271874
 30
0.0
 11
64.69633333333333
 21
76.46039451419253
 31
0.0
  0
LINE
  5
3B0
330
17
100
AcDbEntity
  8
TOP
100
AcDbLine
 10
65.97033333333333
 20
76.46039451419253
 30
0.0
 11
69.41666666666666
 21
78.46762239271874
 31
0.0
  0
LINE
  5
3B1
330
17
100
AcDbEntity
  8
TOP
100
AcDbLine
 10
69.41666666666666
 20
78.46762239271874
 30
0.0
 11
72.863
 21
76.46039451419253
 31
0.0
  0
LINE
  5
3B2
330
17
100
AcDbEntity
  8
TOP
100
AcDbLine
 10
49.0
 20
80.84262239271874
 30
0.0
 11
52.446333333333335
 21
78.83539451419253
 31
0.0
  0
LINE
  5
3B3
330
17
100
AcDbEntity
  8
TOP
100
AcDbLine
 10
53.720333333333336
 20
78.83539451419253
 30
0.0
 11
57.166666666666664
 21
80.84262239271874
 31
0.0
  0
LINE
  5
3B4
330
17
100
AcDbEntity
  8
TOP
100
AcDbLine
 10
57.166666666666664
 20
80.84262239271874
 30
0.0
 11
60.613
 21
78.83539451419253
 31
0.0
  0
LINE
  5
3B5
330
17
100
AcDbEntity
  8
TOP
100
AcDbLine
 10
61.887
 20
78.83539451419253
 30
0.0
 11
65.33333333333333
 21
80.84262239271874
 31
0.0
  0
LINE
  5
3B6
330
17
100
AcDbEntity
  8
TOP
100
AcDbLine
 10
65.33333333333333
 20
80.84262239271874
 30
0.0
 11
68.77966666666666
 21
78.83539451419253
 31
0.0
  0
LINE
  5
3B7
330
17
100
AcDbEntity
  8
TOP
100
AcDbLine
 10
70.05366666666666
 20
78.83539451419253
 30
0.0
 11
73.5
 21
80.84262239271874
 31
0.0
  0
LINE
  5
3B8
330
17
100
AcDbEntity
  8
TOP
100
AcDbLine
 10
49.637
 20
81.21039451419253
 30
0.0
 11
53.083333333333336
 21
83.21762239271874
 31
0.0
  0
LINE
  5
3B9
330
17
100
AcDbEntity
  8
TOP
100
AcDbLine
 10
53.083333333333336
 20
83.21762239271874
 30
0.0
 11
56.529666666666664
 21
81.21039451419253
 31
0.0
  0
LINE
  5
3BA
330
17
100
AcDbEntity
  8
TOP
100
AcDbLine
 10
57.803666666666665
 20
81.21039451419253
 30
0.0
 11
61.25
 21
83.21762239271874
 31
0.0
  0
LINE
  5
3BB
330
17
100
AcDbEntity
  8
TOP
100
AcDbLine
 10
61.25
 20
83.21762239271874
 30
0.0
 11
64.69633333333333
 21
81.21039451419253
 31
0.0
  0
LINE
  5
3BC
330
17
100
AcDbEntity
  8
TOP
100
AcDbLine
 10
65.97033333333333
 20
81.21039451419253
 30
0.0
 11
69.41666666666666
 21
83.21762239271874
 31
0.0
  0
LINE
  5
3BD
330
17
100
AcDbEntity
  8
TOP
100
AcDbLine
 10
69.41666666666666
 20
83.21762239271874
 30
0.0
 11
72.863
 21
81.21039451419253
 31
0.0
  0
LINE
  5
3BE
330
17
100
AcDbEntity
  8
TOP
100
AcDbLine
 10
49.0
 20
85.59262239271874
 30
0.0
 11
52.446333333333335
 21
83.58539451419253
 31
0.0
  0
LINE
  5
3BF
330
17
100
AcDbEntity
  8
TOP
100
AcDbLine
 10
53.720333333333336
 20
83.58539451419253
 30
0.0
 11
57.166666666666664
 21
85.59262239271874
 31
0.0
  0
LINE
  5
3C0
330
17
100
AcDbEntity
  8
TOP
100
AcDbLine
 10
57.166666666666664
 20
85.59262239271874
 30
0.0
 11
60.613
 21
83.58539451419253
 31
0.0
  0
LINE
  5
3C1
330
17
100
AcDbEntity
  8
TOP
100
AcDbLine
 10
61.887
 20
83.58539451419253
 30
0.0
 11
65.33333333333333
 21
85.59262239271874
 31
0.0
  0
LINE
  5
3C2
330
17
100
AcDbEntity
  8
TOP
100
AcDbLine
 10
65.33333333333333
 20
85.59262239271874
 30
0.0
 11
68.77966666666666
 21
83.58539451419253
 31
0.0
  0
LINE
  5
3C3
330
17
100
AcDbEntity
  8
TOP
100
AcDbLine
 10
70.05366666666666
 20
83.58539451419253
 30
0.0
 11
73.5
 21
85.59262239271874
 31
0.0
  0
LINE
  5
3C4
330
17
100
AcDbEntity
  8
TOP
100
AcDbLine
 10
49.637
 20
85.96039451419253
 30
0.0
 11
53.083333333333336
 21
87.96762239271874
 31
0.0
  0
LINE
  5
3C5
330
17
100
AcDbEntity
  8
TOP
100
AcDbLine
 10
53.083333333333336
 20
87.96762239271874
 30
0.0
 11
56.529666666666664
 21
85.96039451419253
 31
0.0
  0
LINE
  5
3C6
330
17
100
AcDbEntity
  8
TOP
100
AcDbLine
 10
57.803666666666665
 20
85.96039451419253
 30
0.0
 11
61.25
 21
87.96762239271874
 31
0.0
  0
LINE
  5
3C7
330
17
100
AcDbEntity
  8
TOP
100
AcDbLine
 10
61.25
 20
87.96762239271874
 30
0.0
 11
64.69633333333333
 21
85.96039451419253
 31
0.0
  0
LINE
  5
3C8
330
17
100
AcDbEntity
  8
TOP
100
AcDbLine
 10
65.97033333333333
 20
85.96039451419253
 30
0.0
 11
69.41666666666666
 21
87.96762239271874
 31
0.0
  0
LINE
  5
3C9
330
17
100
AcDbEntity
  8
TOP
100
AcDbLine
 10
69.41666666666666
 20
87.96762239271874
 30
0.0
 11
72.863
 21
85.96039451419253
 31
0.0
  0
LINE
  5
3CA
330
17
100
AcDbEntity
  8
TOP
100
AcDbLine
 10
49.0
 20
90.34262239271874
 30
0.0
 11
52.446333333333335
 21
88.33539451419253
 31
0.0
  0
LINE
  5
3CB
330
17
100
AcDbEntity
  8
TOP
100
AcDbLine
 10
53.720333333333336
 20
88.33539451419253
 30
0.0
 11
57.166666666666664
 21
90.34262239271874
 31
0.0
  0
LINE
  5
3CC
330
17
100
AcDbEntity
  8
TOP
100
AcDbLine
 10
57.166666666666664
 20
90.34262239271874
 30
0.0
 11
60.613
 21
88.33539451419253
 31
0.0
  0
LINE
  5
3CD
330
17
100
AcDbEntity
  8
TOP
100
AcDbLine
 10
61.887
 20
88.33539451419253
 30
0.0
 11
65.33333333333333
 21
90.34262239271874
 31
0.0
  0
LINE
  5
3CE
330
17
100
AcDbEntity
  8
TOP
100
AcDbLine
 10
65.33333333333333
 20
90.34262239271874
 30
0.0
 11
68.77966666666666
 21
88.33539451419253
 31
0.0
  0
LINE
  5
3CF
330
17
100
AcDbEntity
  8
TOP
100
AcDbLine
 10
70.05366666666666
 20
88.33539451419253
 30
0.0
 11
73.5
 21
90.34262239271874
 31
0.0
  0
LINE
  5
3D0
330
17
100
AcDbEntity
  8
TOP
100
AcDbLine
 10
49.637
 20
90.71039451419253
 30
0.0
 11
53.083333333333336
 21
92.71762239271874
 31
0.0
  0
LINE
  5
3D1
330
17
100
AcDbEntity
  8
TOP
100
AcDbLine
 10
53.083333333333336
 20
92.71762239271874
 30
0.0
 11
56.529666666666664
 21
90.71039451419253
 31
0.0
  0
LINE
  5
3D2
330
17
100
AcDbEntity
  8
TOP
100
AcDbLine
 10
57.803666666666665
 20
90.71039451419253
 30
0.0
 11
61.25
 21
92.71762239271874
 31
0.0
  0
LINE
  5
3D3
330
17
100
AcDbEntity
  8
TOP
100
AcDbLine
 10
61.25
 20
92.71762239271874
 30
0.0
 11
64.69633333333333
 21
90.71039451419253
 31
0.0
  0
LINE
  5
3D4
330
17
100
AcDbEntity
  8
TOP
100
AcDbLine
 10
65.97033333333333
 20
90.71039451419253
 30
0.0
 11
69.41666666666666
 21
92.71762239271874
 31
0.0
  0
LINE
  5
3D5
330
17
100
AcDbEntity
  8
TOP
100
AcDbLine
 10
69.41666666666666
 20
92.71762239271874
 30
0.0
 11
72.863
 21
90.71039451419253
 31
0.0
  0
LINE
  5
3D6
330
17
100
AcDbEntity
  8
TOP
100
AcDbLine
 10
49.0
 20
95.09262239271874
 30
0.0
 11
52.446333333333335
 21
93.08539451419253
 31
0.0
  0
LINE
  5
3D7
330
17
100
AcDbEntity
  8
TOP
100
AcDbLine
 10
53.720333333333336
 20
93.08539451419253
 30
0.0
 11
57.166666666666664
 21
95.09262239271874
 31
0.0
  0
LINE
  5
3D8
330
17
100
AcDbEntity
  8
TOP
100
AcDbLine
 10
57.166666666666664
 20
95.09262239271874
 30
0.0
 11
60.613
 21
93.08539451419253
 31
0.0
  0
LINE
  5
3D9
330
17
100
AcDbEntity
  8
TOP
100
AcDbLine
 10
61.887
 20
93.08539451419253
 30
0.0
 11
65.33333333333333
 21
95.09262239271874
 31
0.0
  0
LINE
  5
3DA
330
17
100
AcDbEntity
  8
TOP
100
AcDbLine
 10
65.33333333333333
 20
95.09262239271874
 30
0.0
 11
68.77966666666666
 21
93.08539451419253
 31
0.0
  0
LINE
  5
3DB
330
17
100
AcDbEntity
  8
TOP
100
AcDbLine
 10
70.05366666666666
 20
93.08539451419253
 30
0.0
 11
73.5
 21
95.09262239271874
 31
0.0
  0
LINE
  5
3DC
330
17
100
AcDbEntity
  8
TOP
100
AcDbLine
 10
49.637
 20
95.46039451419253
 30
0.0
 11
53.083333333333336
 21
97.46762239271874
 31
0.0
  0
LINE
  5
3DD
330
17
100
AcDbEntity
  8
TOP
100
AcDbLine
 10
53.083333333333336
 20
97.46762239271874
 30
0.0
 11
56.529666666666664
 21
95.46039451419253
 31
0.0
  0
LINE
  5
3DE
330
17
100
AcDbEntity
  8
TOP
100
AcDbLine
 10
57.803666666666665
 20
95.46039451419253
 30
0.0
 11
61.25
 21
97.46762239271874
 31
0.0
  0
LINE
  5
3DF
330
17
100
AcDbEntity
  8
TOP
100
AcDbLine
 10
61.25
 20
97.46762239271874
 30
0.0
 11
64.69633333333333
 21
95.46039451419253
 31
0.0
  0
LINE
  5
3E0
330
17
100
AcDbEntity
  8
TOP
100
AcDbLine
 10
65.97033333333333
 20
95.46039451419253
 30
0.0
 11
69.41666666666666
 21
97.46762239271874
 31
0.0
  0
LINE
  5
3E1
330
17
100
AcDbEntity
  8
TOP
100
AcDbLine
 10
69.41666666666666
 20
97.46762239271874
 30
0.0
 11
72.863
 21
95.46039451419253
 31
0.0
  0
LINE
  5
3E2
330
17
100
AcDbEntity
  8
TOP
100
AcDbLine
 10
49.0
 20
99.84262239271874
 30
0.0
 11
52.446333333333335
 21
97.83539451419253
 31
0.0
  0
LINE
  5
3E3
330
17
100
AcDbEntity
  8
TOP
100
AcDbLine
 10
53.720333333333336
 20
97.83539451419253
 30
0.0
 11
57.166666666666664
 21
99.84262239271874
 31
0.0
  0
LINE
  5
3E4
330
17
100
AcDbEntity
  8
TOP
100
AcDbLine
 10
57.166666666666664
 20
99.84262239271874
 30
0.0
 11
60.613
 21
97.83539451419253
 31
0.0
  0
LINE
  5
3E5
330
17
100
AcDbEntity
  8
TOP
100
AcDbLine
 10
61.887
 20
97.83539451419253
 30
0.0
 11
65.33333333333333
 21
99.84262239271874
 31
0.0
  0
LINE
  5
3E6
330
17
100
AcDbEntity
  8
TOP
100
AcDbLine
 10
65.33333333333333
 20
99.84262239271874
 30
0.0
 11
68.77966666666666
 21
97.83539451419253
 31
0.0
  0
LINE
  5
3E7
330
17
100
AcDbEntity
  8
TOP
100
AcDbLine
 10
70.05366666666666
 20
97.83539451419253
 30
0.0
 11
73.5
 21
99.84262239271874
 31
0.0
  0
LINE
  5
3E8
330
17
100
AcDbEntity
  8
TOP
100
AcDbLine
 10
49.637
 20
100.21039451419253
 30
0.0
 11
53.083333333333336
 21
102.21762239271874
 31
0.0
  0
LINE
  5
3E9
330
17
100
AcDbEntity
  8
TOP
100
AcDbLine
 10
53.083333333333336
 20
102.21762239271874
 30
0.0
 11
56.529666666666664
 21
100.21039451419253
 31
0.0
  0
LINE
  5
3EA
330
17
100
AcDbEntity
  8
TOP
100
AcDbLine
 10
57.803666666666665
 20
100.21039451419253
 30
0.0
 11
61.25
 21
102.21762239271874
 31
0.0
  0
LINE
  5
3EB
330
17
100
AcDbEntity
  8
TOP
100
AcDbLine
 10
61.25
 20
102.21762239271874
 30
0.0
 11
64.69633333333333
 21
100.21039451419253
 31
0.0
  0
LINE
  5
3EC
330
17
100
AcDbEntity
  8
TOP
100
AcDbLine
 10
65.97033333333333
 20
100.21039451419253
 30
0.0
 11
69.41666666666666
 21
102.21762239271874
 31
0.0
  0
LINE
  5
3ED
330
17
100
AcDbEntity
  8
TOP
100
AcDbLine
 10
69.41666666666666
 20
102.21762239271874
 30
0.0
 11
72.863
 21
100.21039451419253
 31
0.0
  0
LINE
  5
3EE
330
17
100
AcDbEntity
  8
TOP
100
AcDbLine
 10
49.0
 20
104.59262239271874
 30
0.0
 11
52.446333333333335
 21
102.58539451419253
 31
0.0
  0
LINE
  5
3EF
330
17
100
AcDbEntity
  8
TOP
100
AcDbLine
 10
53.720333333333336
 20
102.58539451419253
 30
0.0
 11
57.166666666666664
 21
104.59262239271874
 31
0.0
  0
LINE
  5
3F0
330
17
100
AcDbEntity
  8
TOP
100
AcDbLine
 10
57.166666666666664
 20
104.59262239271874
 30
0.0
 11
60.613
 21
102.58539451419253
 31
0.0
  0
LINE
  5
3F1
330
17
100
AcDbEntity
  8
TOP
100
AcDbLine
 10
61.887
 20
102.58539451419253
 30
0.0
 11
65.33333333333333
 21
104.59262239271874
 31
0.0
  0
LINE
  5
3F2
330
17
100
AcDbEntity
  8
TOP
100
AcDbLine
 10
65.33333333333333
 20
104.59262239271874
 30
0.0
 11
68.77966666666666
 21
102.58539451419253
 31
0.0
  0
LINE
  5
3F3
330
17
100
AcDbEntity
  8
TOP
100
AcDbLine
 10
70.05366666666666
 20
102.58539451419253
 30
0.0
 11
73.5
 21
104.59262239271874
 31
0.0
  0
LINE
  5
3F4
330
17
100
AcDbEntity
  8
TOP
100
AcDbLine
 10
49.637
 20
104.96039451419253
 30
0.0
 11
53.083333333333336
 21
106.96762239271874
 31
0.0
  0
LINE
  5
3F5
330
17
100
AcDbEntity
  8
TOP
100
AcDbLine
 10
53.083333333333336
 20
106.96762239271874
 30
0.0
 11
56.529666666666664
 21
104.96039451419253
 31
0.0
  0
LINE
  5
3F6
330
17
100
AcDbEntity
  8
TOP
100
AcDbLine
 10
57.803666666666665
 20
104.96039451419253
 30
0.0
 11
61.25
 21
106.96762239271874
 31
0.0
  0
LINE
  5
3F7
330
17
100
AcDbEntity
  8
TOP
100
AcDbLine
 10
61.25
 20
106.96762239271874
 30
0.0
 11
64.69633333333333
 21
104.96039451419253
 31
0.0
  0
LINE
  5
3F8
330
17
100
AcDbEntity
  8
TOP
100
AcDbLine
 10
65.97033333333333
 20
104.96039451419253
 30
0.0
 11
69.41666666666666
 21
106.96762239271874
 31
0.0
  0
LINE
  5
3F9
330
17
100
AcDbEntity
  8
TOP
100
AcDbLine
 10
69.41666666666666
 20
106.96762239271874
 30
0.0
 11
72.863
 21
104.96039451419253
 31
0.0
  0
LINE
  5
3FA
330
17
100
AcDbEntity
  8
TOP
100
AcDbLine
 10
49.0
 20
109.34262239271874
 30
0.0
 11
52.446333333333335
 21
107.33539451419253
 31
0.0
  0
LINE
  5
3FB
330
17
100
AcDbEntity
  8
TOP
100
AcDbLine
 10
53.720333333333336
 20
107.33539451419253
 30
0.0
 11
57.166666666666664
 21
109.34262239271874
 31
0.0
  0
LINE
  5
3FC
330
17
100
AcDbEntity
  8
TOP
100
AcDbLine
 10
57.166666666666664
 20
109.34262239271874
 30
0.0
 11
60.613
 21
107.33539451419253
 31
0.0
  0
LINE
  5
3FD
330
17
100
AcDbEntity
  8
TOP
100
AcDbLine
 10
61.887
 20
107.33539451419253
 30
0.0
 11
65.33333333333333
 21
109.34262239271874
 31
0.0
  0
LINE
  5
3FE
330
17
100
AcDbEntity
  8
TOP
100
AcDbLine
 10
65.33333333333333
 20
109.34262239271874
 30
0.0
 11
68.77966666666666
 21
107.33539451419253
 31
0.0
  0
LINE
  5
3FF
330
17
100
AcDbEntity
  8
TOP
100
AcDbLine
 10
70.05366666666666
 20
107.33539451419253
 30
0.0
 11
73.5
 21
109.34262239271874
 31
0.0
  0
LINE
  5
400
330
17
100
AcDbEntity
  8
TOP
100
AcDbLine
 10
49.637
 20
109.71039451419253
 30
0.0
 11
53.083333333333336
 21
111.71762239271874
 31
0.0
  0
LINE
  5
401
330
17
100
AcDbEntity
  8
TOP
100
AcDbLine
 10
53.083333333333336
 20
111.71762239271874
 30
0.0
 11
56.529666666666664
 21
109.71039451419253
 31
0.0
  0
LINE
  5
402
330
17
100
AcDbEntity
  8
TOP
100
AcDbLine
 10
57.803666666666665
 20
109.71039451419253
 30
0.0
 11
61.25
 21
111.71762239271874
 31
0.0
  0
LINE
  5
403
330
17
100
AcDbEntity
  8
TOP
100
AcDbLine
 10
61.25
 20
111.71762239271874
 30
0.0
 11
64.69633333333333
 21
109.71039451419253
 31
0.0
  0
LINE
  5
404
330
17
100
AcDbEntity
  8
TOP
100
AcDbLine
 10
65.97033333333333
 20
109.71039451419253
 30
0.0
 11
69.41666666666666
 21
111.71762239271874
 31
0.0
  0
LINE
  5
405
330
17
100
AcDbEntity
  8
TOP
100
AcDbLine
 10
69.41666666666666
 20
111.71762239271874
 30
0.0
 11
72.863
 21
109.71039451419253
 31
0.0
  0
LINE
  5
406
330
17
100
AcDbEntity
  8
TOP
100
AcDbLine
 10
49.0
 20
114.09262239271874
 30
0.0
 11
52.446333333333335
 21
112.08539451419253
 31
0.0
  0
LINE
  5
407
330
17
100
AcDbEntity
  8
TOP
100
AcDbLine
 10
53.720333333333336
 20
112.08539451419253
 30
0.0
 11
57.166666666666664
 21
114.09262239271874
 31
0.0
  0
LINE
  5
408
330
17
100
AcDbEntity
  8
TOP
100
AcDbLine
 10
57.166666666666664
 20
114.09262239271874
 30
0.0
 11
60.613
 21
112.08539451419253
 31
0.0
  0
LINE
  5
409
330
17
100
AcDbEntity
  8
TOP
100
AcDbLine
 10
61.887
 20
112.08539451419253
 30
0.0
 11
65.33333333333333
 21
114.09262239271874
 31
0.0
  0
LINE
  5
40A
330
17
100
AcDbEntity
  8
TOP
100
AcDbLine
 10
65.33333333333333
 20
114.09262239271874
 30
0.0
 11
68.77966666666666
 21
112.08539451419253
 31
0.0
  0
LINE
  5
40B
330
17
100
AcDbEntity
  8
TOP
100
AcDbLine
 10
70.05366666666666
 20
112.08539451419253
 30
0.0
 11
73.5
 21
114.09262239271874
 31
0.0
  0
LINE
  5
40C
330
17
100
AcDbEntity
  8
TOP
100
AcDbLine
 10
49.637
 20
114.46039451419253
 30
0.0
 11
53.083333333333336
 21
116.46762239271874
 31
0.0
  0
LINE
  5
40D
330
17
100
AcDbEntity
  8
TOP
100
AcDbLine
 10
53.083333333333336
 20
116.46762239271874
 30
0.0
 11
56.529666666666664
 21
114.46039451419253
 31
0.0
  0
LINE
  5
40E
330
17
100
AcDbEntity
  8
TOP
100
AcDbLine
 10
57.803666666666665
 20
114.46039451419253
 30
0.0
 11
61.25
 21
116.46762239271874
 31
0.0
  0
LINE
  5
40F
330
17
100
AcDbEntity
  8
TOP
100
AcDbLine
 10
61.25
 20
116.46762239271874
 30
0.0
 11
64.69633333333333
 21
114.46039451419253
 31
0.0
  0
LINE
  5
410
330
17
100
AcDbEntity
  8
TOP
100
AcDbLine
 10
65.97033333333333
 20
114.46039451419253
 30
0.0
 11
69.41666666666666
 21
116.46762239271874
 31
0.0
  0
LINE
  5
411
330
17
100
AcDbEntity
  8
TOP
100
AcDbLine
 10
69.41666666666666
 20
116.46762239271874
 30
0.0
 11
72.863
 21
114.46039451419253
 31
0.0
  0
LINE
  5
412
330
17
100
AcDbEntity
  8
TOP
100
AcDbLine
 10
49.0
 20
118.84262239271874
 30
0.0
 11
52.446333333333335
 21
116.83539451419253
 31
0.0
  0
LINE
  5
413
330
17
100
AcDbEntity
  8
TOP
100
AcDbLine
 10
53.720333333333336
 20
116.83539451419253
 30
0.0
 11
57.166666666666664
 21
118.84262239271874
 31
0.0
  0
LINE
  5
414
330
17
100
AcDbEntity
  8
TOP
100
AcDbLine
 10
57.166666666666664
 20
118.84262239271874
 30
0.0
 11
60.613
 21
116.83539451419253
 31
0.0
  0
LINE
  5
415
330
17
100
AcDbEntity
  8
TOP
100
AcDbLine
 10
61.887
 20
116.83539451419253
 30
0.0
 11
65.33333333333333
 21
118.84262239271874
 31
0.0
  0
LINE
  5
416
330
17
100
AcDbEntity
  8
TOP
100
AcDbLine
 10
65.33333333333333
 20
118.84262239271874
 30
0.0
 11
68.77966666666666
 21
116.83539451419253
 31
0.0
  0
LINE
  5
417
330
17
100
AcDbEntity
  8
TOP
100
AcDbLine
 10
70.05366666666666
 20
116.83539451419253
 30
0.0
 11
73.5
 21
118.84262239271874
 31
0.0
  0
LINE
  5
418
330
17
100
AcDbEntity
  8
TOP
100
AcDbLine
 10
49.637
 20
119.21039451419253
 30
0.0
 11
53.083333333333336
 21
121.21762239271874
 31
0.0
  0
LINE
  5
419
330
17
100
AcDbEntity
  8
TOP
100
AcDbLine
 10
53.083333333333336
 20
121.21762239271874
 30
0.0
 11
56.529666666666664
 21
119.21039451419253
 31
0.0
  0
LINE
  5
41A
330
17
100
AcDbEntity
  8
TOP
100
AcDbLine
 10
57.803666666666665
 20
119.21039451419253
 30
0.0
 11
61.25
 21
121.21762239271874
 31
0.0
  0
LINE
  5
41B
330
17
100
AcDbEntity
  8
TOP
100
AcDbLine
 10
61.25
 20
121.21762239271874
 30
0.0
 11
64.69633333333333
 21
119.21039451419253
 31
0.0
  0
LINE
  5
41C
330
17
100
AcDbEntity
  8
TOP
100
AcDbLine
 10
65.97033333333333
 20
119.21039451419253
 30
0.0
 11
69.41666666666666
 21
121.21762239271874
 31
0.0
  0
LINE
  5
41D
330
17
100
AcDbEntity
  8
TOP
100
AcDbLine
 10
69.41666666666666
 20
121.21762239271874
 30
0.0
 11
72.863
 21
119.21039451419253
 31
0.0
  0
LINE
  5
41E
330
17
100
AcDbEntity
  8
TOP
100
AcDbLine
 10
49.0
 20
123.59262239271874
 30
0.0
 11
52.446333333333335
 21
121.58539451419253
 31
0.0
  0
LINE
  5
41F
330
17
100
AcDbEntity
  8
TOP
100
AcDbLine
 10
53.720333333333336
 20
121.58539451419253
 30
0.0
 11
57.166666666666664
 21
123.59262239271874
 31
0.0
  0
LINE
  5
420
330
17
100
AcDbEntity
  8
TOP
100
AcDbLine
 10
57.166666666666664
 20
123.59262239271874
 30
0.0
 11
60.613
 21
121.58539451419253
 31
0.0
  0
LINE
  5
421
330
17
100
AcDbEntity
  8
TOP
100
AcDbLine
 10
61.887
 20
121.58539451419253
 30
0.0
 11
65.33333333333333
 21
123.59262239271874
 31
0.0
  0
LINE
  5
422
330
17
100
AcDbEntity
  8
TOP
100
AcDbLine
 10
65.33333333333333
 20
123.59262239271874
 30
0.0
 11
68.77966666666666
 21
121.58539451419253
 31
0.0
  0
LINE
  5
423
330
17
100
AcDbEntity
  8
TOP
100
AcDbLine
 10
70.05366666666666
 20
121.58539451419253
 30
0.0
 11
73.5
 21
123.59262239271874
 31
0.0
  0
LINE
  5
424
330
17
100
AcDbEntity
  8
TOP
100
AcDbLine
 10
49.637
 20
123.96039451419253
 30
0.0
 11
53.083333333333336
 21
125.96762239271874
 31
0.0
  0
LINE
  5
425
330
17
100
AcDbEntity
  8
TOP
100
AcDbLine
 10
53.083333333333336
 20
125.96762239271874
 30
0.0
 11
56.529666666666664
 21
123.96039451419253
 31
0.0
  0
LINE
  5
426
330
17
100
AcDbEntity
  8
TOP
100
AcDbLine
 10
57.803666666666665
 20
123.96039451419253
 30
0.0
 11
61.25
 21
125.96762239271874
 31
0.0
  0
LINE
  5
427
330
17
100
AcDbEntity
  8
TOP
100
AcDbLine
 10
61.25
 20
125.96762239271874
 30
0.0
 11
64.69633333333333
 21
123.96039451419253
 31
0.0
  0
LINE
  5
428
330
17
100
AcDbEntity
  8
TOP
100
AcDbLine
 10
65.97033333333333
 20
123.96039451419253
 30
0.0
 11
69.41666666666666
 21
125.96762239271874
 31
0.0
  0
LINE
  5
429
330
17
100
AcDbEntity
  8
TOP
100
AcDbLine
 10
69.41666666666666
 20
125.96762239271874
 30
0.0
 11
72.863
 21
123.96039451419253
 31
0.0
  0
LINE
  5
42A
330
17
100
AcDbEntity
  8
TOP
100
AcDbLine
 10
49.0
 20
128.34262239271874
 30
0.0
 11
52.446333333333335
 21
126.33539451419253
 31
0.0
  0
LINE
  5
42B
330
17
100
AcDbEntity
  8
TOP
100
AcDbLine
 10
53.720333333333336
 20
126.33539451419253
 30
0.0
 11
57.166666666666664
 21
128.34262239271874
 31
0.0
  0
LINE
  5
42C
330
17
100
AcDbEntity
  8
TOP
100
AcDbLine
 10
57.166666666666664
 20
128.34262239271874
 30
0.0
 11
60.613
 21
126.33539451419253
 31
0.0
  0
LINE
  5
42D
330
17
100
AcDbEntity
  8
TOP
100
AcDbLine
 10
61.887
 20
126.33539451419253
 30
0.0
 11
65.33333333333333
 21
128.34262239271874
 31
0.0
  0
LINE
  5
42E
330
17
100
AcDbEntity
  8
TOP
100
AcDbLine
 10
65.33333333333333
 20
128.34262239271874
 30
0.0
 11
68.77966666666666
 21
126.33539451419253
 31
0.0
  0
LINE
  5
42F
330
17
100
AcDbEntity
  8
TOP
100
AcDbLine
 10
70.05366666666666
 20
126.33539451419253
 30
0.0
 11
73.5
 21
128.34262239271874
 31
0.0
  0
LINE
  5
430
330
17
100
AcDbEntity
  8
TOP
100
AcDbLine
 10
49.637
 20
128.71039451419253
 30
0.0
 11
53.083333333333336
 21
130.71762239271874
 31
0.0
  0
LINE
  5
431
330
17
100
AcDbEntity
  8
TOP
100
AcDbLine
 10
53.083333333333336
 20
130.71762239271874
 30
0.0
 11
56.529666666666664
 21
128.71039451419253
 31
0.0
  0
LINE
  5
432
330
17
100
AcDbEntity
  8
TOP
100
AcDbLine
 10
57.803666666666665
 20
128.71039451419253
 30
0.0
 11
61.25
 21
130.71762239271874
 31
0.0
  0
LINE
  5
433
330
17
100
AcDbEntity
  8
TOP
100
AcDbLine
 10
61.25
 20
130.71762239271874
 30
0.0
 11
64.69633333333333
 21
128.71039451419253
 31
0.0
  0
LINE
  5
434
330
17
100
AcDbEntity
  8
TOP
100
AcDbLine
 10
65.97033333333333
 20
128.71039451419253
 30
0.0
 11
69.41666666666666
 21
130.71762239271874
 31
0.0
  0
LINE
  5
435
330
17
100
AcDbEntity
  8
TOP
100
AcDbLine
 10
69.41666666666666
 20
130.71762239271874
 30
0.0
 11
72.863
 21
128.71039451419253
 31
0.0
  0
LINE
  5
436
330
17
100
AcDbEntity
  8
TOP
100
AcDbLine
 10
49.0
 20
133.09262239271874
 30
0.0
 11
52.446333333333335
 21
131.08539451419253
 31
0.0
  0
LINE
  5
437
330
17
100
AcDbEntity
  8
TOP
100
AcDbLine
 10
53.720333333333336
 20
131.08539451419253
 30
0.0
 11
57.166666666666664
 21
133.09262239271874
 31
0.0
  0
LINE
  5
438
330
17
100
AcDbEntity
  8
TOP
100
AcDbLine
 10
57.166666666666664
 20
133.09262239271874
 30
0.0
 11
60.613
 21
131.08539451419253
 31
0.0
  0
LINE
  5
439
330
17
100
AcDbEntity
  8
TOP
100
AcDbLine
 10
61.887
 20
131.08539451419253
 30
0.0
 11
65.33333333333333
 21
133.09262239271874
 31
0.0
  0
LINE
  5
43A
330
17
100
AcDbEntity
  8
TOP
100
AcDbLine
 10
65.33333333333333
 20
133.09262239271874
 30
0.0
 11
68.77966666666666
 21
131.08539451419253
 31
0.0
  0
LINE
  5
43B
330
17
100
AcDbEntity
  8
TOP
100
AcDbLine
 10
70.05366666666666
 20
131.08539451419253
 30
0.0
 11
73.5
 21
133.09262239271874
 31
0.0
  0
LINE
  5
43C
330
17
100
AcDbEntity
  8
TOP
100
AcDbLine
 10
49.637
 20
133.46039451419253
 30
0.0
 11
53.083333333333336
 21
135.46762239271874
 31
0.0
  0
LINE
  5
43D
330
17
100
AcDbEntity
  8
TOP
100
AcDbLine
 10
53.083333333333336
 20
135.46762239271874
 30
0.0
 11
56.529666666666664
 21
133.46039451419253
 31
0.0
  0
LINE
  5
43E
330
17
100
AcDbEntity
  8
TOP
100
AcDbLine
 10
57.803666666666665
 20
133.46039451419253
 30
0.0
 11
61.25
 21
135.46762239271874
 31
0.0
  0
LINE
  5
43F
330
17
100
AcDbEntity
  8
TOP
100
AcDbLine
 10
61.25
 20
135.46762239271874
 30
0.0
 11
64.69633333333333
 21
133.46039451419253
 31
0.0
  0
LINE
  5
440
330
17
100
AcDbEntity
  8
TOP
100
AcDbLine
 10
65.97033333333333
 20
133.46039451419253
 30
0.0
 11
69.41666666666666
 21
135.46762239271874
 31
0.0
  0
LINE
  5
441
330
17
100
AcDbEntity
  8
TOP
100
AcDbLine
 10
69.41666666666666
 20
135.46762239271874
 30
0.0
 11
72.863
 21
133.46039451419253
 31
0.0
  0
LINE
  5
442
330
17
100
AcDbEntity
  8
TOP
100
AcDbLine
 10
49.0
 20
137.84262239271874
 30
0.0
 11
52.446333333333335
 21
135.83539451419253
 31
0.0
  0
LINE
  5
443
330
17
100
AcDbEntity
  8
TOP
100
AcDbLine
 10
53.720333333333336
 20
135.83539451419253
 30
0.0
 11
57.166666666666664
 21
137.84262239271874
 31
0.0
  0
LINE
  5
444
330
17
100
AcDbEntity
  8
TOP
100
AcDbLine
 10
57.166666666666664
 20
137.84262239271874
 30
0.0
 11
60.613
 21
135.83539451419253
 31
0.0
  0
LINE
  5
445
330
17
100
AcDbEntity
  8
TOP
100
AcDbLine
 10
61.887
 20
135.83539451419253
 30
0.0
 11
65.33333333333333
 21
137.84262239271874
 31
0.0
  0
LINE
  5
446
330
17
100
AcDbEntity
  8
TOP
100
AcDbLine
 10
65.33333333333333
 20
137.84262239271874
 30
0.0
 11
68.77966666666666
 21
135.83539451419253
 31
0.0
  0
LINE
  5
447
330
17
100
AcDbEntity
  8
TOP
100
AcDbLine
 10
70.05366666666666
 20
135.83539451419253
 30
0.0
 11
73.5
 21
137.84262239271874
 31
0.0
  0
LINE
  5
448
330
17
100
AcDbEntity
  8
TOP
100
AcDbLine
 10
49.637
 20
138.21039451419253
 30
0.0
 11
53.083333333333336
 21
140.21762239271874
 31
0.0
  0
LINE
  5
449
330
17
100
AcDbEntity
  8
TOP
100
AcDbLine
 10
53.083333333333336
 20
140.21762239271874
 30
0.0
 11
56.529666666666664
 21
138.21039451419253
 31
0.0
  0
LINE
  5
44A
330
17
100
AcDbEntity
  8
TOP
100
AcDbLine
 10
57.803666666666665
 20
138.21039451419253
 30
0.0
 11
61.25
 21
140.21762239271874
 31
0.0
  0
LINE
  5
44B
330
17
100
AcDbEntity
  8
TOP
100
AcDbLine
 10
61.25
 20
140.21762239271874
 30
0.0
 11
64.69633333333333
 21
138.21039451419253
 31
0.0
  0
LINE
  5
44C
330
17
100
AcDbEntity
  8
TOP
100
AcDbLine
 10
65.97033333333333
 20
138.21039451419253
 30
0.0
 11
69.41666666666666
 21
140.21762239271874
 31
0.0
  0
LINE
  5
44D
330
17
100
AcDbEntity
  8
TOP
100
AcDbLine
 10
69.41666666666666
 20
140.21762239271874
 30
0.0
 11
72.863
 21
138.21039451419253
 31
0.0
  0
LINE
  5
44E
330
17
100
AcDbEntity
  8
TOP
100
AcDbLine
 10
49.0
 20
142.59262239271874
 30
0.0
 11
52.446333333333335
 21
140.58539451419253
 31
0.0
  0
LINE
  5
44F
330
17
100
AcDbEntity
  8
TOP
100
AcDbLine
 10
53.720333333333336
 20
140.58539451419253
 30
0.0
 11
57.166666666666664
 21
142.59262239271874
 31
0.0
  0
LINE
  5
450
330
17
100
AcDbEntity
  8
TOP
100
AcDbLine
 10
57.166666666666664
 20
142.59262239271874
 30
0.0
 11
60.613
 21
140.58539451419253
 31
0.0
  0
LINE
  5
451
330
17
100
AcDbEntity
  8
TOP
100
AcDbLine
 10
61.887
 20
140.58539451419253
 30
0.0
 11
65.33333333333333
 21
142.59262239271874
 31
0.0
  0
LINE
  5
452
330
17
100
AcDbEntity
  8
TOP
100
AcDbLine
 10
65.33333333333333
 20
142.59262239271874
 30
0.0
 11
68.77966666666666
 21
140.58539451419253
 31
0.0
  0
LINE
  5
453
330
17
100
AcDbEntity
  8
TOP
100
AcDbLine
 10
70.05366666666666
 20
140.58539451419253
 30
0.0
 11
73.5
 21
142.59262239271874
 31
0.0
  0
LINE
  5
454
330
17
100
AcDbEntity
  8
TOP
100
AcDbLine
 10
49.637
 20
142.96039451419253
 30
0.0
 11
53.083333333333336
 21
144.96762239271874
 31
0.0
  0
LINE
  5
455
330
17
100
AcDbEntity
  8
TOP
100
AcDbLine
 10
53.083333333333336
 20
144.96762239271874
 30
0.0
 11
56.529666666666664
 21
142.96039451419253
 31
0.0
  0
LINE
  5
456
330
17
100
AcDbEntity
  8
TOP
100
AcDbLine
 10
57.803666666666665
 20
142.96039451419253
 30
0.0
 11
61.25
 21
144.96762239271874
 31
0.0
  0
LINE
  5
457
330
17
100
AcDbEntity
  8
TOP
100
AcDbLine
 10
61.25
 20
144.96762239271874
 30
0.0
 11
64.69633333333333
 21
142.96039451419253
 31
0.0
  0
LINE
  5
458
330
17
100
AcDbEntity
  8
TOP
100
AcDbLine
 10
65.97033333333333
 20
142.96039451419253
 30
0.0
 11
69.41666666666666
 21
144.96762239271874
 31
0.0
  0
LINE
  5
459
330
17
100
AcDbEntity
  8
TOP
100
AcDbLine
 10
69.41666666666666
 20
144.96762239271874
 30
0.0
 11
72.863
 21
142.96039451419253
 31
0.0
  0
LINE
  5
45A
330
17
100
AcDbEntity
  8
TOP
100
AcDbLine
 10
49.0
 20
147.34262239271874
 30
0.0
 11
52.446333333333335
 21
145.33539451419253
 31
0.0
  0
LINE
  5
45B
330
17
100
AcDbEntity
  8
TOP
100
AcDbLine
 10
53.720333333333336
 20
145.33539451419253
 30
0.0
 11
57.166666666666664
 21
147.34262239271874
 31
0.0
  0
LINE
  5
45C
330
17
100
AcDbEntity
  8
TOP
100
AcDbLine
 10
57.166666666666664
 20
147.34262239271874
 30
0.0
 11
60.613
 21
145.33539451419253
 31
0.0
  0
LINE
  5
45D
330
17
100
AcDbEntity
  8
TOP
100
AcDbLine
 10
61.887
 20
145.33539451419253
 30
0.0
 11
65.33333333333333
 21
147.34262239271874
 31
0.0
  0
LINE
  5
45E
330
17
100
AcDbEntity
  8
TOP
100
AcDbLine
 10
65.33333333333333
 20
147.34262239271874
 30
0.0
 11
68.77966666666666
 21
145.33539451419253
 31
0.0
  0
LINE
  5
45F
330
17
100
AcDbEntity
  8
TOP
100
AcDbLine
 10
70.05366666666666
 20
145.33539451419253
 30
0.0
 11
73.5
 21
147.34262239271874
 31
0.0
  0
LINE
  5
460
330
17
100
AcDbEntity
  8
TOP
100
AcDbLine
 10
49.637
 20
147.71039451419253
 30
0.0
 11
53.083333333333336
 21
149.71762239271874
 31
0.0
  0
LINE
  5
461
330
17
100
AcDbEntity
  8
TOP
100
AcDbLine
 10
53.083333333333336
 20
149.71762239271874
 30
0.0
 11
56.529666666666664
 21
147.71039451419253
 31
0.0
  0
LINE
  5
462
330
17
100
AcDbEntity
  8
TOP
100
AcDbLine
 10
57.803666666666665
 20
147.71039451419253
 30
0.0
 11
61.25
 21
149.71762239271874
 31
0.0
  0
LINE
  5
463
330
17
100
AcDbEntity
  8
TOP
100
AcDbLine
 10
61.25
 20
149.71762239271874
 30
0.0
 11
64.69633333333333
 21
147.71039451419253
 31
0.0
  0
LINE
  5
464
330
17
100
AcDbEntity
  8
TOP
100
AcDbLine
 10
65.97033333333333
 20
147.71039451419253
 30
0.0
 11
69.41666666666666
 21
149.71762239271874
 31
0.0
  0
LINE
  5
465
330
17
100
AcDbEntity
  8
TOP
100
AcDbLine
 10
69.41666666666666
 20
149.71762239271874
 30
0.0
 11
72.863
 21
147.71039451419253
 31
0.0
  0
LINE
  5
466
330
17
100
AcDbEntity
  8
TOP
100
AcDbLine
 10
49.0
 20
152.09262239271874
 30
0.0
 11
52.446333333333335
 21
150.08539451419253
 31
0.0
  0
LINE
  5
467
330
17
100
AcDbEntity
  8
TOP
100
AcDbLine
 10
53.720333333333336
 20
150.08539451419253
 30
0.0
 11
57.166666666666664
 21
152.09262239271874
 31
0.0
  0
LINE
  5
468
330
17
100
AcDbEntity
  8
TOP
100
AcDbLine
 10
57.166666666666664
 20
152.09262239271874
 30
0.0
 11
60.613
 21
150.08539451419253
 31
0.0
  0
LINE
  5
469
330
17
100
AcDbEntity
  8
TOP
100
AcDbLine
 10
61.887
 20
150.08539451419253
 30
0.0
 11
65.33333333333333
 21
152.09262239271874
 31
0.0
  0
LINE
  5
46A
330
17
100
AcDbEntity
  8
TOP
100
AcDbLine
 10
65.33333333333333
 20
152.09262239271874
 30
0.0
 11
68.77966666666666
 21
150.08539451419253
 31
0.0
  0
LINE
  5
46B
330
17
100
AcDbEntity
  8
TOP
100
AcDbLine
 10
70.05366666666666
 20
150.08539451419253
 30
0.0
 11
73.5
 21
152.09262239271874
 31
0.0
  0
LINE
  5
46C
330
17
100
AcDbEntity
  8
TOP
100
AcDbLine
 10
49.637
 20
152.46039451419253
 30
0.0
 11
53.083333333333336
 21
154.46762239271874
 31
0.0
  0
LINE
  5
46D
330
17
100
AcDbEntity
  8
TOP
100
AcDbLine
 10
53.083333333333336
 20
154.46762239271874
 30
0.0
 11
56.529666666666664
 21
152.46039451419253
 31
0.0
  0
LINE
  5
46E
330
17
100
AcDbEntity
  8
TOP
100
AcDbLine
 10
57.803666666666665
 20
152.46039451419253
 30
0.0
 11
61.25
 21
154.46762239271874
 31
0.0
  0
LINE
  5
46F
330
17
100
AcDbEntity
  8
TOP
100
AcDbLine
 10
61.25
 20
154.46762239271874
 30
0.0
 11
64.69633333333333
 21
152.46039451419253
 31
0.0
  0
LINE
  5
470
330
17
100
AcDbEntity
  8
TOP
100
AcDbLine
 10
65.97033333333333
 20
152.46039451419253
 30
0.0
 11
69.41666666666666
 21
154.46762239271874
 31
0.0
  0
LINE
  5
471
330
17
100
AcDbEntity
  8
TOP
100
AcDbLine
 10
69.41666666666666
 20
154.46762239271874
 30
0.0
 11
72.863
 21
152.46039451419253
 31
0.0
  0
LINE
  5
472
330
17
100
AcDbEntity
  8
TOP
100
AcDbLine
 10
49.0
 20
156.84262239271874
 30
0.0
 11
52.446333333333335
 21
154.83539451419253
 31
0.0
  0
LINE
  5
473
330
17
100
AcDbEntity
  8
TOP
100
AcDbLine
 10
53.720333333333336
 20
154.83539451419253
 30
0.0
 11
57.166666666666664
 21
156.84262239271874
 31
0.0
  0
LINE
  5
474
330
17
100
AcDbEntity
  8
TOP
100
AcDbLine
 10
57.166666666666664
 20
156.84262239271874
 30
0.0
 11
60.613
 21
154.83539451419253
 31
0.0
  0
LINE
  5
475
330
17
100
AcDbEntity
  8
TOP
100
AcDbLine
 10
61.887
 20
154.83539451419253
 30
0.0
 11
65.33333333333333
 21
156.84262239271874
 31
0.0
  0
LINE
  5
476
330
17
100
AcDbEntity
  8
TOP
100
AcDbLine
 10
65.33333333333333
 20
156.84262239271874
 30
0.0
 11
68.77966666666666
 21
154.83539451419253
 31
0.0
  0
LINE
  5
477
330
17
100
AcDbEntity
  8
TOP
100
AcDbLine
 10
70.05366666666666
 20
154.83539451419253
 30
0.0
 11
73.5
 21
156.84262239271874
 31
0.0
  0
LINE
  5
478
330
17
100
AcDbEntity
  8
TOP
100
AcDbLine
 10
49.637
 20
157.21039451419253
 30
0.0
 11
53.083333333333336
 21
159.21762239271874
 31
0.0
  0
LINE
  5
479
330
17
100
AcDbEntity
  8
TOP
100
AcDbLine
 10
53.083333333333336
 20
159.21762239271874
 30
0.0
 11
56.529666666666664
 21
157.21039451419253
 31
0.0
  0
LINE
  5
47A
330
17
100
AcDbEntity
  8
TOP
100
AcDbLine
 10
57.803666666666665
 20
157.21039451419253
 30
0.0
 11
61.25
 21
159.21762239271874
 31
0.0
  0
LINE
  5
47B
330
17
100
AcDbEntity
  8
TOP
100
AcDbLine
 10
61.25
 20
159.21762239271874
 30
0.0
 11
64.69633333333333
 21
157.21039451419253
 31
0.0
  0
LINE
  5
47C
330
17
100
AcDbEntity
  8
TOP
100
AcDbLine
 10
65.97033333333333
 20
157.21039451419253
 30
0.0
 11
69.41666666666666
 21
159.21762239271874
 31
0.0
  0
LINE
  5
47D
330
17
100
AcDbEntity
  8
TOP
100
AcDbLine
 10
69.41666666666666
 20
159.21762239271874
 30
0.0
 11
72.863
 21
157.21039451419253
 31
0.0
  0
LINE
  5
47E
330
17
100
AcDbEntity
  8
TOP
100
AcDbLine
 10
49.0
 20
161.59262239271874
 30
0.0
 11
52.446333333333335
 21
159.58539451419253
 31
0.0
  0
LINE
  5
47F
330
17
100
AcDbEntity
  8
TOP
100
AcDbLine
 10
53.720333333333336
 20
159.58539451419253
 30
0.0
 11
57.166666666666664
 21
161.59262239271874
 31
0.0
  0
LINE
  5
480
330
17
100
AcDbEntity
  8
TOP
100
AcDbLine
 10
57.166666666666664
 20
161.59262239271874
 30
0.0
 11
60.613
 21
159.58539451419253
 31
0.0
  0
LINE
  5
481
330
17
100
AcDbEntity
  8
TOP
100
AcDbLine
 10
61.887
 20
159.58539451419253
 30
0.0
 11
65.33333333333333
 21
161.59262239271874
 31
0.0
  0
LINE
  5
482
330
17
100
AcDbEntity
  8
TOP
100
AcDbLine
 10
65.33333333333333
 20
161.59262239271874
 30
0.0
 11
68.77966666666666
 21
159.58539451419253
 31
0.0
  0
LINE
  5
483
330
17
100
AcDbEntity
  8
TOP
100
AcDbLine
 10
70.05366666666666
 20
159.58539451419253
 30
0.0
 11
73.5
 21
161.59262239271874
 31
0.0
  0
LINE
  5
484
330
17
100
AcDbEntity
  8
TOP
100
AcDbLine
 10
49.637
 20
161.96039451419253
 30
0.0
 11
53.083333333333336
 21
163.96762239271874
 31
0.0
  0
LINE
  5
485
330
17
100
AcDbEntity
  8
TOP
100
AcDbLine
 10
53.083333333333336
 20
163.96762239271874
 30
0.0
 11
56.529666666666664
 21
161.96039451419253
 31
0.0
  0
LINE
  5
486
330
17
100
AcDbEntity
  8
TOP
100
AcDbLine
 10
57.803666666666665
 20
161.96039451419253
 30
0.0
 11
61.25
 21
163.96762239271874
 31
0.0
  0
LINE
  5
487
330
17
100
AcDbEntity
  8
TOP
100
AcDbLine
 10
61.25
 20
163.96762239271874
 30
0.0
 11
64.69633333333333
 21
161.96039451419253
 31
0.0
  0
LINE
  5
488
330
17
100
AcDbEntity
  8
TOP
100
AcDbLine
 10
65.97033333333333
 20
161.96039451419253
 30
0.0
 11
69.41666666666666
 21
163.96762239271874
 31
0.0
  0
LINE
  5
489
330
17
100
AcDbEntity
  8
TOP
100
AcDbLine
 10
69.41666666666666
 20
163.96762239271874
 30
0.0
 11
72.863
 21
161.96039451419253
 31
0.0
  0
LINE
  5
48A
330
17
100
AcDbEntity
  8
TOP
100
AcDbLine
 10
49.0
 20
166.34262239271874
 30
0.0
 11
52.446333333333335
 21
164.33539451419253
 31
0.0
  0
LINE
  5
48B
330
17
100
AcDbEntity
  8
TOP
100
AcDbLine
 10
53.720333333333336
 20
164.33539451419253
 30
0.0
 11
57.166666666666664
 21
166.34262239271874
 31
0.0
  0
LINE
  5
48C
330
17
100
AcDbEntity
  8
TOP
100
AcDbLine
 10
57.166666666666664
 20
166.34262239271874
 30
0.0
 11
60.613
 21
164.33539451419253
 31
0.0
  0
LINE
  5
48D
330
17
100
AcDbEntity
  8
TOP
100
AcDbLine
 10
61.887
 20
164.33539451419253
 30
0.0
 11
65.33333333333333
 21
166.34262239271874
 31
0.0
  0
LINE
  5
48E
330
17
100
AcDbEntity
  8
TOP
100
AcDbLine
 10
65.33333333333333
 20
166.34262239271874
 30
0.0
 11
68.77966666666666
 21
164.33539451419253
 31
0.0
  0
LINE
  5
48F
330
17
100
AcDbEntity
  8
TOP
100
AcDbLine
 10
70.05366666666666
 20
164.33539451419253
 30
0.0
 11
73.5
 21
166.34262239271874
 31
0.0
  0
LINE
  5
490
330
17
100
AcDbEntity
  8
TOP
100
AcDbLine
 10
49.637
 20
166.71039451419253
 30
0.0
 11
53.083333333333336
 21
168.71762239271874
 31
0.0
  0
LINE
  5
491
330
17
100
AcDbEntity
  8
TOP
100
AcDbLine
 10
53.083333333333336
 20
168.71762239271874
 30
0.0
 11
56.529666666666664
 21
166.71039451419253
 31
0.0
  0
LINE
  5
492
330
17
100
AcDbEntity
  8
TOP
100
AcDbLine
 10
57.803666666666665
 20
166.71039451419253
 30
0.0
 11
61.25
 21
168.71762239271874
 31
0.0
  0
LINE
  5
493
330
17
100
AcDbEntity
  8
TOP
100
AcDbLine
 10
61.25
 20
168.71762239271874
 30
0.0
 11
64.69633333333333
 21
166.71039451419253
 31
0.0
  0
LINE
  5
494
330
17
100
AcDbEntity
  8
TOP
100
AcDbLine
 10
65.97033333333333
 20
166.71039451419253
 30
0.0
 11
69.41666666666666
 21
168.71762239271874
 31
0.0
  0
LINE
  5
495
330
17
100
AcDbEntity
  8
TOP
100
AcDbLine
 10
69.41666666666666
 20
168.71762239271874
 30
0.0
 11
72.863
 21
166.71039451419253
 31
0.0
  0
LINE
  5
496
330
17
100
AcDbEntity
  8
TOP
100
AcDbLine
 10
49.0
 20
171.09262239271874
 30
0.0
 11
52.446333333333335
 21
169.08539451419253
 31
0.0
  0
LINE
  5
497
330
17
100
AcDbEntity
  8
TOP
100
AcDbLine
 10
53.720333333333336
 20
169.08539451419253
 30
0.0
 11
57.166666666666664
 21
171.09262239271874
 31
0.0
  0
LINE
  5
498
330
17
100
AcDbEntity
  8
TOP
100
AcDbLine
 10
57.166666666666664
 20
171.09262239271874
 30
0.0
 11
60.613
 21
169.08539451419253
 31
0.0
  0
LINE
  5
499
330
17
100
AcDbEntity
  8
TOP
100
AcDbLine
 10
61.887
 20
169.08539451419253
 30
0.0
 11
65.33333333333333
 21
171.09262239271874
 31
0.0
  0
LINE
  5
49A
330
17
100
AcDbEntity
  8
TOP
100
AcDbLine
 10
65.33333333333333
 20
171.09262239271874
 30
0.0
 11
68.77966666666666
 21
169.08539451419253
 31
0.0
  0
LINE
  5
49B
330
17
100
AcDbEntity
  8
TOP
100
AcDbLine
 10
70.05366666666666
 20
169.08539451419253
 30
0.0
 11
73.5
 21
171.09262239271874
 31
0.0
  0
LINE
  5
49C
330
17
100
AcDbEntity
  8
TOP
100
AcDbLine
 10
49.637
 20
171.46039451419253
 30
0.0
 11
53.083333333333336
 21
173.46762239271874
 31
0.0
  0
LINE
  5
49D
330
17
100
AcDbEntity
  8
TOP
100
AcDbLine
 10
53.083333333333336
 20
173.46762239271874
 30
0.0
 11
56.529666666666664
 21
171.46039451419253
 31
0.0
  0
LINE
  5
49E
330
17
100
AcDbEntity
  8
TOP
100
AcDbLine
 10
57.803666666666665
 20
171.46039451419253
 30
0.0
 11
61.25
 21
173.46762239271874
 31
0.0
  0
LINE
  5
49F
330
17
100
AcDbEntity
  8
TOP
100
AcDbLine
 10
61.25
 20
173.46762239271874
 30
0.0
 11
64.69633333333333
 21
171.46039451419253
 31
0.0
  0
LINE
  5
4A0
330
17
100
AcDbEntity
  8
TOP
100
AcDbLine
 10
65.97033333333333
 20
171.46039451419253
 30
0.0
 11
69.41666666666666
 21
173.46762239271874
 31
0.0
  0
LINE
  5
4A1
330
17
100
AcDbEntity
  8
TOP
100
AcDbLine
 10
69.41666666666666
 20
173.46762239271874
 30
0.0
 11
72.863
 21
171.46039451419253
 31
0.0
  0
LINE
  5
4A2
330
17
100
AcDbEntity
  8
TOP
100
AcDbLine
 10
49.0
 20
175.84262239271874
 30
0.0
 11
52.446333333333335
 21
173.83539451419253
 31
0.0
  0
LINE
  5
4A3
330
17
100
AcDbEntity
  8
TOP
100
AcDbLine
 10
53.720333333333336
 20
173.83539451419253
 30
0.0
 11
57.166666666666664
 21
175.84262239271874
 31
0.0
  0
LINE
  5
4A4
330
17
100
AcDbEntity
  8
TOP
100
AcDbLine
 10
57.166666666666664
 20
175.84262239271874
 30
0.0
 11
60.613
 21
173.83539451419253
 31
0.0
  0
LINE
  5
4A5
330
17
100
AcDbEntity
  8
TOP
100
AcDbLine
 10
61.887
 20
173.83539451419253
 30
0.0
 11
65.33333333333333
 21
175.84262239271874
 31
0.0
  0
LINE
  5
4A6
330
17
100
AcDbEntity
  8
TOP
100
AcDbLine
 10
65.33333333333333
 20
175.84262239271874
 30
0.0
 11
68.77966666666666
 21
173.83539451419253
 31
0.0
  0
LINE
  5
4A7
330
17
100
AcDbEntity
  8
TOP
100
AcDbLine
 10
70.05366666666666
 20
173.83539451419253
 30
0.0
 11
73.5
 21
175.84262239271874
 31
0.0
  0
LINE
  5
4A8
330
17
100
AcDbEntity
  8
TOP
100
AcDbLine
 10
49.637
 20
176.21039451419253
 30
0.0
 11
53.083333333333336
 21
178.21762239271874
 31
0.0
  0
LINE
  5
4A9
330
17
100
AcDbEntity
  8
TOP
100
AcDbLine
 10
53.083333333333336
 20
178.21762239271874
 30
0.0
 11
56.529666666666664
 21
176.21039451419253
 31
0.0
  0
LINE
  5
4AA
330
17
100
AcDbEntity
  8
TOP
100
AcDbLine
 10
57.803666666666665
 20
176.21039451419253
 30
0.0
 11
61.25
 21
178.21762239271874
 31
0.0
  0
LINE
  5
4AB
330
17
100
AcDbEntity
  8
TOP
100
AcDbLine
 10
61.25
 20
178.21762239271874
 30
0.0
 11
64.69633333333333
 21
176.21039451419253
 31
0.0
  0
LINE
  5
4AC
330
17
100
AcDbEntity
  8
TOP
100
AcDbLine
 10
65.97033333333333
 20
176.21039451419253
 30
0.0
 11
69.41666666666666
 21
178.21762239271874
 31
0.0
  0
LINE
  5
4AD
330
17
100
AcDbEntity
  8
TOP
100
AcDbLine
 10
69.41666666666666
 20
178.21762239271874
 30
0.0
 11
72.863
 21
176.21039451419253
 31
0.0
  0
LINE
  5
4AE
330
17
100
AcDbEntity
  8
TOP
100
AcDbLine
 10
24.5
 20
11.417622392718743
 30
0.0
 11
24.5
 21
26.217622392718745
 31
0.0
  0
LINE
  5
4AF
330
17
100
AcDbEntity
  8
TOP
100
AcDbLine
 10
24.5
 20
178.21762239271874
 30
0.0
 11
24.5
 21
193.01762239271875
 31
0.0
  0
LINE
  5
4B0
330
17
100
AcDbEntity
  8
TOP
100
AcDbLine
 10
49.0
 20
11.417622392718743
 30
0.0
 11
49.0
 21
26.217622392718745
 31
0.0
  0
LINE
  5
4B1
330
17
100
AcDbEntity
  8
TOP
100
AcDbLine
 10
49.0
 20
178.21762239271874
 30
0.0
 11
49.0
 21
193.01762239271875
 31
0.0
  0
LINE
  5
4B2
330
17
100
AcDbEntity
  8
TOP
100
AcDbLine
 10
24.5
 20
11.417622392718743
 30
0.0
 11
26.949999999999996
 21
0.0
 31
0.0
  0
LINE
  5
4B3
330
17
100
AcDbEntity
  8
TOP
100
AcDbLine
 10
26.949999999999996
 20
0.0
 30
0.0
 11
46.550000000000004
 21
0.0
 31
0.0
  0
LINE
  5
4B4
330
17
100
AcDbEntity
  8
TOP
100
AcDbLine
 10
46.550000000000004
 20
0.0
 30
0.0
 11
49.0
 21
11.417622392718743
 31
0.0
  0
LINE
  5
4B5
330
17
100
AcDbEntity
  8
TOP
100
AcDbLine
 10
24.5
 20
193.01762239271875
 30
0.0
 11
26.949999999999996
 21
204.43524478543748
 31
0.0
  0
LINE
  5
4B6
330
17
100
AcDbEntity
  8
TOP
100
AcDbLine
 10
26.949999999999996
 20
204.43524478543748
 30
0.0
 11
46.550000000000004
 21
204.43524478543748
 31
0.0
  0
LINE
  5
4B7
330
17
100
AcDbEntity
  8
TOP
100
AcDbLine
 10
46.550000000000004
 20
204.43524478543748
 30
0.0
 11
49.0
 21
193.01762239271875
 31
0.0
  0
POLYLINE
  5
4B8
330
17
100
AcDbEntity
  8
TOP
100
AcDb2dPolyline
 66
1
 10
0.0
 20
0.0
 30
0.0
 70
1
  0
VERTEX
  5
4BA
330
17
100
AcDbEntity
  8
TOP
100
AcDbVertex
100
AcDb2dVertex
 10
0.0
 20
21.217622392718745
 30
0.0
 70
0
  0
VERTEX
  5
4BB
330
17
100
AcDbEntity
  8
TOP
100
AcDbVertex
100
AcDb2dVertex
 10
0.0
 20
183.21762239271874
 30
0.0
 70
0
  0
VERTEX
  5
4BC
330
17
100
AcDbEntity
  8
TOP
100
AcDbVertex
100
AcDb2dVertex
 10
73.5
 20
183.21762239271874
 30
0.0
 70
0
  0
VERTEX
  5
4BD
330
17
100
AcDbEntity
  8
TOP
100
AcDbVertex
100
AcDb2dVertex
 10
73.5
 20
21.217622392718745
 30
0.0
 70
0
  0
SEQEND
  5
4B9
330
17
100
AcDbEntity
  8
TOP
  0
ENDSEC
  0
SECTION
  2
OBJECTS
  0
DICTIONARY
  5
A
330
0
100
AcDbDictionary
281
1
  3
ACAD_COLOR
350
B
  3
ACAD_GROUP
350
C
  3
ACAD_LAYOUT
350
D
  3
ACAD_MATERIAL
350
E
  3
ACAD_MLEADERSTYLE
350
F
  3
ACAD_MLINESTYLE
350
10
  3
ACAD_PLOTSETTINGS
350
11
  3
ACAD_PLOTSTYLENAME
350
12
  3
ACAD_SCALELIST
350
14
  3
ACAD_TABLESTYLE
350
15
  3
ACAD_VISUALSTYLE
350
16
  0
DICTIONARY
  5
B
330
A
100
AcDbDictionary
281
1
  0
DICTIONARY
  5
C
330
A
100
AcDbDictionary
281
1
  0
DICTIONARY
  5
D
330
A
100
AcDbDictionary
281
1
  3
Model
350
1A
  3
Layout1
350
1E
  0
DICTIONARY
  5
E
330
A
100
AcDbDictionary
281
1
  3
ByBlock
350
1F
  3
ByLayer
350
20
  3
Global
350
21
  0
DICTIONARY
  5
F
330
A
100
AcDbDictionary
281
1
  3
Standard
350
2C
  0
DICTIONARY
  5
10
330
A
100
AcDbDictionary
281
1
  3
Standard
350
22
  0
DICTIONARY
  5
11
330
A
100
AcDbDictionary
281
1
  0
ACDBDICTIONARYWDFLT
  5
12
330
A
100
AcDbDictionary
281
1
  3
Normal
350
13
100
AcDbDictionaryWithDefault
340
13
  0
ACDBPLACEHOLDER
  5
13
330
12
  0
DICTIONARY
  5
14
330
A
100
AcDbDictionary
281
1
  0
DICTIONARY
  5
15
330
A
100
AcDbDictionary
281
1
  0
DICTIONARY
  5
16
330
A
100
AcDbDictionary
281
1
  0
LAYOUT
  5
1A
330
D
100
AcDbPlotSettings
  1

  2
Adobe PDF
  4
A3
  6

 40
7.5
 41
20.0
 42
7.5
 43
20.0
 44
420.0
 45
297.0
 46
0.0
 47
0.0
 48
0.0
 49
0.0
140
0.0
141
0.0
142
1.0
143
1.0
 70
1024
 72
1
 73
1
 74
5
  7

 75
16
 76
0
 77
2
 78
300
147
1.0
148
0.0
149
0.0
100
AcDbLayout
  1
Model
 70
1
 71
0
 10
0.0
 20
0.0
 11
420.0
 21
297.0
 12
0.0
 22
0.0
 32
0.0
 14
1e+20
 24
1e+20
 34
1e+20
 15
-1e+20
 25
-1e+20
 35
-1e+20
146
0.0
 13
0.0
 23
0.0
 33
0.0
 16
1.0
 26
0.0
 36
0.0
 17
0.0
 27
1.0
 37
0.0
 76
1
330
17
  0
LAYOUT
  5
1E
330
D
100
AcDbPlotSettings
  1

  2
Adobe PDF
  4
A3
  6

 40
7.5
 41
20.0
 42
7.5
 43
20.0
 44
420.0
 45
297.0
 46
0.0
 47
0.0
 48
0.0
 49
0.0
140
0.0
141
0.0
142
1.0
143
1.0
 70
0
 72
1
 73
1
 74
5
  7

 75
16
 76
0
 77
2
 78
300
147
1.0
148
0.0
149
0.0
100
AcDbLayout
  1
Layout1
 70
1
 71
1
 10
0.0
 20
0.0
 11
420.0
 21
297.0
 12
0.0
 22
0.0
 32
0.0
 14
1e+20
 24
1e+20
 34
1e+20
 15
-1e+20
 25
-1e+20
 35
-1e+20
146
0.0
 13
0.0
 23
0.0
 33
0.0
 16
1.0
 26
0.0
 36
0.0
 17
0.0
 27
1.0
 37
0.0
 76
1
330
1B
  0
MATERIAL
  5
1F
102
{ACAD_REACTORS
330
E
102
}
330
E
100
AcDbMaterial
  1
ByBlock
  2

 70
0
 40
1.0
 71
1
 41
1.0
 91
-1023410177
 42
1.0
 72
1
  3

 73
1
 74
1
 75
1
 44
0.5
 73
0
 45
1.0
 46
1.0
 77
1
  4

 78
1
 79
1
170
1
 48
1.0
171
1
  6

172
1
173
1
174
1
140
1.0
141
1.0
175
1
  7

176
1
177
1
178
1
143
1.0
179
1
  8

270
1
271
1
272
1
145
1.0
146
1.0
273
1
  9

274
1
275
1
276
1
 42
1.0
 72
1
  3

 73
1
 74
1
 75
1
 94
63
  0
MATERIAL
  5
20
102
{ACAD_REACTORS
330
E
102
}
330
E
100
AcDbMaterial
  1
ByLayer
  2

 70
0
 40
1.0
 71
1
 41
1.0
 91
-1023410177
 42
1.0
 72
1
  3

 73
1
 74
1
 75
1
 44
0.5
 73
0
 45
1.0
 46
1.0
 77
1
  4

 78
1
 79
1
170
1
 48
1.0
171
1
  6

172
1
173
1
174
1
140
1.0
141
1.0
175
1
  7

176
1
177
1
178
1
143
1.0
179
1
  8

270
1
271
1
272
1
145
1.0
146
1.0
273
1
  9

274
1
275
1
276
1
 42
1.0
 72
1
  3

 73
1
 74
1
 75
1
 94
63
  0
MATERIAL
  5
21
102
{ACAD_REACTORS
330
E
102
}
330
E
100
AcDbMaterial
  1
Global
  2

 70
0
 40
1.0
 71
1
 41
1.0
 91
-1023410177
 42
1.0
 72
1
  3

 73
1
 74
1
 75
1
 44
0.5
 73
0
 45
1.0
 46
1.0
 77
1
  4

 78
1
 79
1
170
1
 48
1.0
171
1
  6

172
1
173
1
174
1
140
1.0
141
1.0
175
1
  7

176
1
177
1
178
1
143
1.0
179
1
  8

270
1
271
1
272
1
145
1.0
146
1.0
273
1
  9

274
1
275
1
276
1
 42
1.0
 72
1
  3

 73
1
 74
1
 75
1
 94
63
  0
MLINESTYLE
  5
22
102
{ACAD_REACTORS
330
10
102
}
330
10
100
AcDbMlineStyle
  2
Standard
 70
0
  3

 62
256
 51
90.0
 52
90.0
 71
2
 49
0.5
 62
256
  6
BYLAYER
 49
-0.5
 62
256
  6
BYLAYER
  0
MLEADERSTYLE
  5
2C
102
{ACAD_REACTORS
330
F
102
}
330
F
100
AcDbMLeaderStyle
179
2
170
2
171
1
172
0
 90
2
 40
0.0
 41
0.0
173
1
 91
-1056964608
 92
-2
290
1
 42
2.0
291
1
 43
8.0
  3
Standard
 44
4.0
300

342
29
174
1
175
1
176
0
178
1
 93
-1056964608
 45
4.0
292
0
297
0
 46
4.0
 94
-1056964608
 47
1.0
 49
1.0
140
1.0
294
1
141
0.0
177
0
142
1.0
295
0
296
0
143
3.75
271
0
272
9
273
9
  0
ENDSEC
  0
EOF
