<?xml version="1.0" encoding="utf-8" ?>
<svg baseProfile="tiny" height="100%" version="1.2" width="100%" xmlns="http://www.w3.org/2000/svg" xmlns:ev="http://www.w3.org/2001/xml-events" xmlns:xlink="http://www.w3.org/1999/xlink"><defs /><line stroke="rgb(255,0,0)" stroke-width="1" x1="0" x2="0" y1="0" y2="300" /><line stroke="rgb(255,0,0)" stroke-width="1" x1="15" x2="15" y1="0" y2="300" /><line stroke="rgb(255,0,0)" stroke-width="1" x1="30" x2="30" y1="0" y2="300" /><line stroke="rgb(255,0,0)" stroke-width="1" x1="45" x2="45" y1="0" y2="300" /><line stroke="rgb(255,0,0)" stroke-width="1" x1="60" x2="60" y1="0" y2="300" /><line stroke="rgb(255,0,0)" stroke-width="1" x1="75" x2="75" y1="0" y2="300" /><line stroke="rgb(255,0,0)" stroke-width="1" x1="90" x2="90" y1="0" y2="300" /><line stroke="rgb(255,0,0)" stroke-width="1" x1="105" x2="105" y1="0" y2="300" /><line stroke="rgb(255,0,0)" stroke-width="1" x1="120" x2="120" y1="0" y2="300" /><line stroke="rgb(255,0,0)" stroke-width="1" x1="135" x2="135" y1="0" y2="300" /><line stroke="rgb(255,0,0)" stroke-width="1" x1="150" x2="150" y1="0" y2="300" /><line stroke="rgb(255,0,0)" stroke-width="1" x1="165" x2="165" y1="0" y2="300" /><line stroke="rgb(255,0,0)" stroke-width="1" x1="180" x2="180" y1="0" y2="300" /><line stroke="rgb(255,0,0)" stroke-width="1" x1="195" x2="195" y1="0" y2="300" /><line stroke="rgb(255,0,0)" stroke-width="1" x1="210" x2="210" y1="0" y2="300" /><line stroke="rgb(255,0,0)" stroke-width="1" x1="225" x2="225" y1="0" y2="300" /><line stroke="rgb(255,0,0)" stroke-width="1" x1="240" x2="240" y1="0" y2="300" /><line stroke="rgb(255,0,0)" stroke-width="1" x1="255" x2="255" y1="0" y2="300" /><line stroke="rgb(255,0,0)" stroke-width="1" x1="270" x2="270" y1="0" y2="300" /><line stroke="rgb(255,0,0)" stroke-width="1" x1="285" x2="285" y1="0" y2="300" /><line stroke="rgb(255,0,0)" stroke-width="1" x1="300" x2="300" y1="0" y2="300" /><line stroke="rgb(255,0,0)" stroke-width="1" x1="315" x2="315" y1="0" y2="300" /><line stroke="rgb(255,0,0)" stroke-width="1" x1="330" x2="330" y1="0" y2="300" /><line stroke="rgb(255,0,0)" stroke-width="1" x1="345" x2="345" y1="0" y2="300" /><line stroke="rgb(255,0,0)" stroke-width="1" x1="360" x2="360" y1="0" y2="300" /><line stroke="rgb(255,0,0)" stroke-width="1" x1="375" x2="375" y1="0" y2="300" /><line stroke="rgb(255,0,0)" stroke-width="1" x1="0" x2="375" y1="0" y2="0" /><line stroke="rgb(255,0,0)" stroke-width="1" x1="0" x2="375" y1="15" y2="15" /><line stroke="rgb(255,0,0)" stroke-width="1" x1="0" x2="375" y1="30" y2="30" /><line stroke="rgb(255,0,0)" stroke-width="1" x1="0" x2="375" y1="45" y2="45" /><line stroke="rgb(255,0,0)" stroke-width="1" x1="0" x2="375" y1="60" y2="60" /><line stroke="rgb(255,0,0)" stroke-width="1" x1="0" x2="375" y1="75" y2="75" /><line stroke="rgb(255,0,0)" stroke-width="1" x1="0" x2="375" y1="90" y2="90" /><line stroke="rgb(255,0,0)" stroke-width="1" x1="0" x2="375" y1="105" y2="105" /><line stroke="rgb(255,0,0)" stroke-width="1" x1="0" x2="375" y1="120" y2="120" /><line stroke="rgb(255,0,0)" stroke-width="1" x1="0" x2="375" y1="135" y2="135" /><line stroke="rgb(255,0,0)" stroke-width="1" x1="0" x2="375" y1="150" y2="150" /><line stroke="rgb(255,0,0)" stroke-width="1" x1="0" x2="375" y1="165" y2="165" /><line stroke="rgb(255,0,0)" stroke-width="1" x1="0" x2="375" y1="180" y2="180" /><line stroke="rgb(255,0,0)" stroke-width="1" x1="0" x2="375" y1="195" y2="195" /><line stroke="rgb(255,0,0)" stroke-width="1" x1="0" x2="375" y1="210" y2="210" /><line stroke="rgb(255,0,0)" stroke-width="1" x1="0" x2="375" y1="225" y2="225" /><line stroke="rgb(255,0,0)" stroke-width="1" x1="0" x2="375" y1="240" y2="240" /><line stroke="rgb(255,0,0)" stroke-width="1" x1="0" x2="375" y1="255" y2="255" /><line stroke="rgb(255,0,0)" stroke-width="1" x1="0" x2="375" y1="270" y2="270" /><line stroke="rgb(255,0,0)" stroke-width="1" x1="0" x2="375" y1="285" y2="285" /><line stroke="rgb(255,0,0)" stroke-width="1" x1="0" x2="375" y1="300" y2="300" /></svg>