<?xml version="1.0" encoding="utf-8" ?>
<svg baseProfile="tiny" height="100%" version="1.2" width="100%" xmlns="http://www.w3.org/2000/svg" xmlns:ev="http://www.w3.org/2001/xml-events" xmlns:xlink="http://www.w3.org/1999/xlink"><defs /><line stroke="rgb(255,0,0)" stroke-width="0.02" x1="2.5" x2="6.4978" y1="7.7742" y2="5.4266" /><line stroke="rgb(255,0,0)" stroke-width="0.02" x1="7.9757" x2="11.9735" y1="5.4266" y2="7.7742" /><line stroke="rgb(255,0,0)" stroke-width="0.02" x1="11.9735" x2="15.9712" y1="7.7742" y2="5.4266" /><line stroke="rgb(255,0,0)" stroke-width="0.02" x1="17.4491" x2="21.4469" y1="5.4266" y2="7.7742" /><line stroke="rgb(255,0,0)" stroke-width="0.02" x1="21.4469" x2="25.4447" y1="7.7742" y2="5.4266" /><line stroke="rgb(255,0,0)" stroke-width="0.02" x1="26.9226" x2="30.9204" y1="5.4266" y2="7.7742" /><line stroke="rgb(255,0,0)" stroke-width="0.02" x1="3.2389" x2="7.2367" y1="8.2008" y2="10.5484" /><line stroke="rgb(255,0,0)" stroke-width="0.02" x1="7.2367" x2="11.2345" y1="10.5484" y2="8.2008" /><line stroke="rgb(255,0,0)" stroke-width="0.02" x1="12.7124" x2="16.7102" y1="8.2008" y2="10.5484" /><line stroke="rgb(255,0,0)" stroke-width="0.02" x1="16.7102" x2="20.708" y1="10.5484" y2="8.2008" /><line stroke="rgb(255,0,0)" stroke-width="0.02" x1="22.1858" x2="26.1836" y1="8.2008" y2="10.5484" /><line stroke="rgb(255,0,0)" stroke-width="0.02" x1="26.1836" x2="30.1814" y1="10.5484" y2="8.2008" /><line stroke="rgb(255,0,0)" stroke-width="0.02" x1="2.5" x2="6.4978" y1="13.3226" y2="10.975" /><line stroke="rgb(255,0,0)" stroke-width="0.02" x1="7.9757" x2="11.9735" y1="10.975" y2="13.3226" /><line stroke="rgb(255,0,0)" stroke-width="0.02" x1="11.9735" x2="15.9712" y1="13.3226" y2="10.975" /><line stroke="rgb(255,0,0)" stroke-width="0.02" x1="17.4491" x2="21.4469" y1="10.975" y2="13.3226" /><line stroke="rgb(255,0,0)" stroke-width="0.02" x1="21.4469" x2="25.4447" y1="13.3226" y2="10.975" /><line stroke="rgb(255,0,0)" stroke-width="0.02" x1="26.9226" x2="30.9204" y1="10.975" y2="13.3226" /><line stroke="rgb(255,0,0)" stroke-width="0.02" x1="3.2389" x2="7.2367" y1="13.7492" y2="16.0968" /><line stroke="rgb(255,0,0)" stroke-width="0.02" x1="7.2367" x2="11.2345" y1="16.0968" y2="13.7492" /><line stroke="rgb(255,0,0)" stroke-width="0.02" x1="12.7124" x2="16.7102" y1="13.7492" y2="16.0968" /><line stroke="rgb(255,0,0)" stroke-width="0.02" x1="16.7102" x2="20.708" y1="16.0968" y2="13.7492" /><line stroke="rgb(255,0,0)" stroke-width="0.02" x1="22.1858" x2="26.1836" y1="13.7492" y2="16.0968" /><line stroke="rgb(255,0,0)" stroke-width="0.02" x1="26.1836" x2="30.1814" y1="16.0968" y2="13.7492" /><line stroke="rgb(255,0,0)" stroke-width="0.02" x1="2.5" x2="6.4978" y1="18.871" y2="16.5234" /><line stroke="rgb(255,0,0)" stroke-width="0.02" x1="7.9757" x2="11.9735" y1="16.5234" y2="18.871" /><line stroke="rgb(255,0,0)" stroke-width="0.02" x1="11.9735" x2="15.9712" y1="18.871" y2="16.5234" /><line stroke="rgb(255,0,0)" stroke-width="0.02" x1="17.4491" x2="21.4469" y1="16.5234" y2="18.871" /><line stroke="rgb(255,0,0)" stroke-width="0.02" x1="21.4469" x2="25.4447" y1="18.871" y2="16.5234" /><line stroke="rgb(255,0,0)" stroke-width="0.02" x1="26.9226" x2="30.9204" y1="16.5234" y2="18.871" /><line stroke="rgb(255,0,0)" stroke-width="0.02" x1="3.2389" x2="7.2367" y1="19.2976" y2="21.6452" /><line stroke="rgb(255,0,0)" stroke-width="0.02" x1="7.2367" x2="11.2345" y1="21.6452" y2="19.2976" /><line stroke="rgb(255,0,0)" stroke-width="0.02" x1="12.7124" x2="16.7102" y1="19.2976" y2="21.6452" /><line stroke="rgb(255,0,0)" stroke-width="0.02" x1="16.7102" x2="20.708" y1="21.6452" y2="19.2976" /><line stroke="rgb(255,0,0)" stroke-width="0.02" x1="22.1858" x2="26.1836" y1="19.2976" y2="21.6452" /><line stroke="rgb(255,0,0)" stroke-width="0.02" x1="26.1836" x2="30.1814" y1="21.6452" y2="19.2976" /><line stroke="rgb(255,0,0)" stroke-width="0.02" x1="2.5" x2="6.4978" y1="24.4194" y2="22.0718" /><line stroke="rgb(255,0,0)" stroke-width="0.02" x1="7.9757" x2="11.9735" y1="22.0718" y2="24.4194" /><line stroke="rgb(255,0,0)" stroke-width="0.02" x1="11.9735" x2="15.9712" y1="24.4194" y2="22.0718" /><line stroke="rgb(255,0,0)" stroke-width="0.02" x1="17.4491" x2="21.4469" y1="22.0718" y2="24.4194" /><line stroke="rgb(255,0,0)" stroke-width="0.02" x1="21.4469" x2="25.4447" y1="24.4194" y2="22.0718" /><line stroke="rgb(255,0,0)" stroke-width="0.02" x1="26.9226" x2="30.9204" y1="22.0718" y2="24.4194" /><line stroke="rgb(255,0,0)" stroke-width="0.02" x1="3.2389" x2="7.2367" y1="24.846" y2="27.1935" /><line stroke="rgb(255,0,0)" stroke-width="0.02" x1="7.2367" x2="11.2345" y1="27.1935" y2="24.846" /><line stroke="rgb(255,0,0)" stroke-width="0.02" x1="12.7124" x2="16.7102" y1="24.846" y2="27.1935" /><line stroke="rgb(255,0,0)" stroke-width="0.02" x1="16.7102" x2="20.708" y1="27.1935" y2="24.846" /><line stroke="rgb(255,0,0)" stroke-width="0.02" x1="22.1858" x2="26.1836" y1="24.846" y2="27.1935" /><line stroke="rgb(255,0,0)" stroke-width="0.02" x1="26.1836" x2="30.1814" y1="27.1935" y2="24.846" /><line stroke="rgb(255,0,0)" stroke-width="0.02" x1="2.5" x2="6.4978" y1="29.9677" y2="27.6202" /><line stroke="rgb(255,0,0)" stroke-width="0.02" x1="7.9757" x2="11.9735" y1="27.6202" y2="29.9677" /><line stroke="rgb(255,0,0)" stroke-width="0.02" x1="11.9735" x2="15.9712" y1="29.9677" y2="27.6202" /><line stroke="rgb(255,0,0)" stroke-width="0.02" x1="17.4491" x2="21.4469" y1="27.6202" y2="29.9677" /><line stroke="rgb(255,0,0)" stroke-width="0.02" x1="21.4469" x2="25.4447" y1="29.9677" y2="27.6202" /><line stroke="rgb(255,0,0)" stroke-width="0.02" x1="26.9226" x2="30.9204" y1="27.6202" y2="29.9677" /><line stroke="rgb(255,0,0)" stroke-width="0.02" x1="3.2389" x2="7.2367" y1="30.3944" y2="32.7419" /><line stroke="rgb(255,0,0)" stroke-width="0.02" x1="7.2367" x2="11.2345" y1="32.7419" y2="30.3944" /><line stroke="rgb(255,0,0)" stroke-width="0.02" x1="12.7124" x2="16.7102" y1="30.3944" y2="32.7419" /><line stroke="rgb(255,0,0)" stroke-width="0.02" x1="16.7102" x2="20.708" y1="32.7419" y2="30.3944" /><line stroke="rgb(255,0,0)" stroke-width="0.02" x1="22.1858" x2="26.1836" y1="30.3944" y2="32.7419" /><line stroke="rgb(255,0,0)" stroke-width="0.02" x1="26.1836" x2="30.1814" y1="32.7419" y2="30.3944" /><line stroke="rgb(255,0,0)" stroke-width="0.02" x1="2.5" x2="6.4978" y1="35.5161" y2="33.1686" /><line stroke="rgb(255,0,0)" stroke-width="0.02" x1="7.9757" x2="11.9735" y1="33.1686" y2="35.5161" /><line stroke="rgb(255,0,0)" stroke-width="0.02" x1="11.9735" x2="15.9712" y1="35.5161" y2="33.1686" /><line stroke="rgb(255,0,0)" stroke-width="0.02" x1="17.4491" x2="21.4469" y1="33.1686" y2="35.5161" /><line stroke="rgb(255,0,0)" stroke-width="0.02" x1="21.4469" x2="25.4447" y1="35.5161" y2="33.1686" /><line stroke="rgb(255,0,0)" stroke-width="0.02" x1="26.9226" x2="30.9204" y1="33.1686" y2="35.5161" /><line stroke="rgb(255,0,0)" stroke-width="0.02" x1="3.2389" x2="7.2367" y1="35.9427" y2="38.2903" /><line stroke="rgb(255,0,0)" stroke-width="0.02" x1="7.2367" x2="11.2345" y1="38.2903" y2="35.9427" /><line stroke="rgb(255,0,0)" stroke-width="0.02" x1="12.7124" x2="16.7102" y1="35.9427" y2="38.2903" /><line stroke="rgb(255,0,0)" stroke-width="0.02" x1="16.7102" x2="20.708" y1="38.2903" y2="35.9427" /><line stroke="rgb(255,0,0)" stroke-width="0.02" x1="22.1858" x2="26.1836" y1="35.9427" y2="38.2903" /><line stroke="rgb(255,0,0)" stroke-width="0.02" x1="26.1836" x2="30.1814" y1="38.2903" y2="35.9427" /><line stroke="rgb(255,0,0)" stroke-width="0.02" x1="2.5" x2="6.4978" y1="41.0645" y2="38.7169" /><line stroke="rgb(255,0,0)" stroke-width="0.02" x1="7.9757" x2="11.9735" y1="38.7169" y2="41.0645" /><line stroke="rgb(255,0,0)" stroke-width="0.02" x1="11.9735" x2="15.9712" y1="41.0645" y2="38.7169" /><line stroke="rgb(255,0,0)" stroke-width="0.02" x1="17.4491" x2="21.4469" y1="38.7169" y2="41.0645" /><line stroke="rgb(255,0,0)" stroke-width="0.02" x1="21.4469" x2="25.4447" y1="41.0645" y2="38.7169" /><line stroke="rgb(255,0,0)" stroke-width="0.02" x1="26.9226" x2="30.9204" y1="38.7169" y2="41.0645" /><line stroke="rgb(255,0,0)" stroke-width="0.02" x1="3.2389" x2="7.2367" y1="41.4911" y2="43.8387" /><line stroke="rgb(255,0,0)" stroke-width="0.02" x1="7.2367" x2="11.2345" y1="43.8387" y2="41.4911" /><line stroke="rgb(255,0,0)" stroke-width="0.02" x1="12.7124" x2="16.7102" y1="41.4911" y2="43.8387" /><line stroke="rgb(255,0,0)" stroke-width="0.02" x1="16.7102" x2="20.708" y1="43.8387" y2="41.4911" /><line stroke="rgb(255,0,0)" stroke-width="0.02" x1="22.1858" x2="26.1836" y1="41.4911" y2="43.8387" /><line stroke="rgb(255,0,0)" stroke-width="0.02" x1="26.1836" x2="30.1814" y1="43.8387" y2="41.4911" /><line stroke="rgb(255,0,0)" stroke-width="0.02" x1="2.5" x2="6.4978" y1="46.6129" y2="44.2653" /><line stroke="rgb(255,0,0)" stroke-width="0.02" x1="7.9757" x2="11.9735" y1="44.2653" y2="46.6129" /><line stroke="rgb(255,0,0)" stroke-width="0.02" x1="11.9735" x2="15.9712" y1="46.6129" y2="44.2653" /><line stroke="rgb(255,0,0)" stroke-width="0.02" x1="17.4491" x2="21.4469" y1="44.2653" y2="46.6129" /><line stroke="rgb(255,0,0)" stroke-width="0.02" x1="21.4469" x2="25.4447" y1="46.6129" y2="44.2653" /><line stroke="rgb(255,0,0)" stroke-width="0.02" x1="26.9226" x2="30.9204" y1="44.2653" y2="46.6129" /><line stroke="rgb(255,0,0)" stroke-width="0.02" x1="3.2389" x2="7.2367" y1="47.0395" y2="49.3871" /><line stroke="rgb(255,0,0)" stroke-width="0.02" x1="7.2367" x2="11.2345" y1="49.3871" y2="47.0395" /><line stroke="rgb(255,0,0)" stroke-width="0.02" x1="12.7124" x2="16.7102" y1="47.0395" y2="49.3871" /><line stroke="rgb(255,0,0)" stroke-width="0.02" x1="16.7102" x2="20.708" y1="49.3871" y2="47.0395" /><line stroke="rgb(255,0,0)" stroke-width="0.02" x1="22.1858" x2="26.1836" y1="47.0395" y2="49.3871" /><line stroke="rgb(255,0,0)" stroke-width="0.02" x1="26.1836" x2="30.1814" y1="49.3871" y2="47.0395" /><line stroke="rgb(255,0,0)" stroke-width="0.02" x1="2.5" x2="6.4978" y1="52.1613" y2="49.8137" /><line stroke="rgb(255,0,0)" stroke-width="0.02" x1="7.9757" x2="11.9735" y1="49.8137" y2="52.1613" /><line stroke="rgb(255,0,0)" stroke-width="0.02" x1="11.9735" x2="15.9712" y1="52.1613" y2="49.8137" /><line stroke="rgb(255,0,0)" stroke-width="0.02" x1="17.4491" x2="21.4469" y1="49.8137" y2="52.1613" /><line stroke="rgb(255,0,0)" stroke-width="0.02" x1="21.4469" x2="25.4447" y1="52.1613" y2="49.8137" /><line stroke="rgb(255,0,0)" stroke-width="0.02" x1="26.9226" x2="30.9204" y1="49.8137" y2="52.1613" /><line stroke="rgb(255,0,0)" stroke-width="0.02" x1="3.2389" x2="7.2367" y1="52.5879" y2="54.9355" /><line stroke="rgb(255,0,0)" stroke-width="0.02" x1="7.2367" x2="11.2345" y1="54.9355" y2="52.5879" /><line stroke="rgb(255,0,0)" stroke-width="0.02" x1="12.7124" x2="16.7102" y1="52.5879" y2="54.9355" /><line stroke="rgb(255,0,0)" stroke-width="0.02" x1="16.7102" x2="20.708" y1="54.9355" y2="52.5879" /><line stroke="rgb(255,0,0)" stroke-width="0.02" x1="22.1858" x2="26.1836" y1="52.5879" y2="54.9355" /><line stroke="rgb(255,0,0)" stroke-width="0.02" x1="26.1836" x2="30.1814" y1="54.9355" y2="52.5879" /><line stroke="rgb(255,0,0)" stroke-width="0.02" x1="2.5" x2="6.4978" y1="57.7097" y2="55.3621" /><line stroke="rgb(255,0,0)" stroke-width="0.02" x1="7.9757" x2="11.9735" y1="55.3621" y2="57.7097" /><line stroke="rgb(255,0,0)" stroke-width="0.02" x1="11.9735" x2="15.9712" y1="57.7097" y2="55.3621" /><line stroke="rgb(255,0,0)" stroke-width="0.02" x1="17.4491" x2="21.4469" y1="55.3621" y2="57.7097" /><line stroke="rgb(255,0,0)" stroke-width="0.02" x1="21.4469" x2="25.4447" y1="57.7097" y2="55.3621" /><line stroke="rgb(255,0,0)" stroke-width="0.02" x1="26.9226" x2="30.9204" y1="55.3621" y2="57.7097" /><line stroke="rgb(255,0,0)" stroke-width="0.02" x1="3.2389" x2="7.2367" y1="58.1363" y2="60.4839" /><line stroke="rgb(255,0,0)" stroke-width="0.02" x1="7.2367" x2="11.2345" y1="60.4839" y2="58.1363" /><line stroke="rgb(255,0,0)" stroke-width="0.02" x1="12.7124" x2="16.7102" y1="58.1363" y2="60.4839" /><line stroke="rgb(255,0,0)" stroke-width="0.02" x1="16.7102" x2="20.708" y1="60.4839" y2="58.1363" /><line stroke="rgb(255,0,0)" stroke-width="0.02" x1="22.1858" x2="26.1836" y1="58.1363" y2="60.4839" /><line stroke="rgb(255,0,0)" stroke-width="0.02" x1="26.1836" x2="30.1814" y1="60.4839" y2="58.1363" /><line stroke="rgb(255,0,0)" stroke-width="0.02" x1="2.5" x2="6.4978" y1="63.2581" y2="60.9105" /><line stroke="rgb(255,0,0)" stroke-width="0.02" x1="7.9757" x2="11.9735" y1="60.9105" y2="63.2581" /><line stroke="rgb(255,0,0)" stroke-width="0.02" x1="11.9735" x2="15.9712" y1="63.2581" y2="60.9105" /><line stroke="rgb(255,0,0)" stroke-width="0.02" x1="17.4491" x2="21.4469" y1="60.9105" y2="63.2581" /><line stroke="rgb(255,0,0)" stroke-width="0.02" x1="21.4469" x2="25.4447" y1="63.2581" y2="60.9105" /><line stroke="rgb(255,0,0)" stroke-width="0.02" x1="26.9226" x2="30.9204" y1="60.9105" y2="63.2581" /><line stroke="rgb(255,0,0)" stroke-width="0.02" x1="3.2389" x2="7.2367" y1="63.6847" y2="66.0323" /><line stroke="rgb(255,0,0)" stroke-width="0.02" x1="7.2367" x2="11.2345" y1="66.0323" y2="63.6847" /><line stroke="rgb(255,0,0)" stroke-width="0.02" x1="12.7124" x2="16.7102" y1="63.6847" y2="66.0323" /><line stroke="rgb(255,0,0)" stroke-width="0.02" x1="16.7102" x2="20.708" y1="66.0323" y2="63.6847" /><line stroke="rgb(255,0,0)" stroke-width="0.02" x1="22.1858" x2="26.1836" y1="63.6847" y2="66.0323" /><line stroke="rgb(255,0,0)" stroke-width="0.02" x1="26.1836" x2="30.1814" y1="66.0323" y2="63.6847" /><line stroke="rgb(255,0,0)" stroke-width="0.02" x1="2.5" x2="6.4978" y1="68.8065" y2="66.4589" /><line stroke="rgb(255,0,0)" stroke-width="0.02" x1="7.9757" x2="11.9735" y1="66.4589" y2="68.8065" /><line stroke="rgb(255,0,0)" stroke-width="0.02" x1="11.9735" x2="15.9712" y1="68.8065" y2="66.4589" /><line stroke="rgb(255,0,0)" stroke-width="0.02" x1="17.4491" x2="21.4469" y1="66.4589" y2="68.8065" /><line stroke="rgb(255,0,0)" stroke-width="0.02" x1="21.4469" x2="25.4447" y1="68.8065" y2="66.4589" /><line stroke="rgb(255,0,0)" stroke-width="0.02" x1="26.9226" x2="30.9204" y1="66.4589" y2="68.8065" /><line stroke="rgb(255,0,0)" stroke-width="0.02" x1="3.2389" x2="7.2367" y1="69.2331" y2="71.5806" /><line stroke="rgb(255,0,0)" stroke-width="0.02" x1="7.2367" x2="11.2345" y1="71.5806" y2="69.2331" /><line stroke="rgb(255,0,0)" stroke-width="0.02" x1="12.7124" x2="16.7102" y1="69.2331" y2="71.5806" /><line stroke="rgb(255,0,0)" stroke-width="0.02" x1="16.7102" x2="20.708" y1="71.5806" y2="69.2331" /><line stroke="rgb(255,0,0)" stroke-width="0.02" x1="22.1858" x2="26.1836" y1="69.2331" y2="71.5806" /><line stroke="rgb(255,0,0)" stroke-width="0.02" x1="26.1836" x2="30.1814" y1="71.5806" y2="69.2331" /><line stroke="rgb(255,0,0)" stroke-width="0.02" x1="2.5" x2="6.4978" y1="74.3548" y2="72.0073" /><line stroke="rgb(255,0,0)" stroke-width="0.02" x1="7.9757" x2="11.9735" y1="72.0073" y2="74.3548" /><line stroke="rgb(255,0,0)" stroke-width="0.02" x1="11.9735" x2="15.9712" y1="74.3548" y2="72.0073" /><line stroke="rgb(255,0,0)" stroke-width="0.02" x1="17.4491" x2="21.4469" y1="72.0073" y2="74.3548" /><line stroke="rgb(255,0,0)" stroke-width="0.02" x1="21.4469" x2="25.4447" y1="74.3548" y2="72.0073" /><line stroke="rgb(255,0,0)" stroke-width="0.02" x1="26.9226" x2="30.9204" y1="72.0073" y2="74.3548" /><line stroke="rgb(255,0,0)" stroke-width="0.02" x1="3.2389" x2="7.2367" y1="74.7815" y2="77.129" /><line stroke="rgb(255,0,0)" stroke-width="0.02" x1="7.2367" x2="11.2345" y1="77.129" y2="74.7815" /><line stroke="rgb(255,0,0)" stroke-width="0.02" x1="12.7124" x2="16.7102" y1="74.7815" y2="77.129" /><line stroke="rgb(255,0,0)" stroke-width="0.02" x1="16.7102" x2="20.708" y1="77.129" y2="74.7815" /><line stroke="rgb(255,0,0)" stroke-width="0.02" x1="22.1858" x2="26.1836" y1="74.7815" y2="77.129" /><line stroke="rgb(255,0,0)" stroke-width="0.02" x1="26.1836" x2="30.1814" y1="77.129" y2="74.7815" /><line stroke="rgb(255,0,0)" stroke-width="0.02" x1="2.5" x2="6.4978" y1="79.9032" y2="77.5557" /><line stroke="rgb(255,0,0)" stroke-width="0.02" x1="7.9757" x2="11.9735" y1="77.5557" y2="79.9032" /><line stroke="rgb(255,0,0)" stroke-width="0.02" x1="11.9735" x2="15.9712" y1="79.9032" y2="77.5557" /><line stroke="rgb(255,0,0)" stroke-width="0.02" x1="17.4491" x2="21.4469" y1="77.5557" y2="79.9032" /><line stroke="rgb(255,0,0)" stroke-width="0.02" x1="21.4469" x2="25.4447" y1="79.9032" y2="77.5557" /><line stroke="rgb(255,0,0)" stroke-width="0.02" x1="26.9226" x2="30.9204" y1="77.5557" y2="79.9032" /><line stroke="rgb(255,0,0)" stroke-width="0.02" x1="3.2389" x2="7.2367" y1="80.3298" y2="82.6774" /><line stroke="rgb(255,0,0)" stroke-width="0.02" x1="7.2367" x2="11.2345" y1="82.6774" y2="80.3298" /><line stroke="rgb(255,0,0)" stroke-width="0.02" x1="12.7124" x2="16.7102" y1="80.3298" y2="82.6774" /><line stroke="rgb(255,0,0)" stroke-width="0.02" x1="16.7102" x2="20.708" y1="82.6774" y2="80.3298" /><line stroke="rgb(255,0,0)" stroke-width="0.02" x1="22.1858" x2="26.1836" y1="80.3298" y2="82.6774" /><line stroke="rgb(255,0,0)" stroke-width="0.02" x1="26.1836" x2="30.1814" y1="82.6774" y2="80.3298" /><line stroke="rgb(255,0,0)" stroke-width="0.02" x1="2.5" x2="6.4978" y1="85.4516" y2="83.104" /><line stroke="rgb(255,0,0)" stroke-width="0.02" x1="7.9757" x2="11.9735" y1="83.104" y2="85.4516" /><line stroke="rgb(255,0,0)" stroke-width="0.02" x1="11.9735" x2="15.9712" y1="85.4516" y2="83.104" /><line stroke="rgb(255,0,0)" stroke-width="0.02" x1="17.4491" x2="21.4469" y1="83.104" y2="85.4516" /><line stroke="rgb(255,0,0)" stroke-width="0.02" x1="21.4469" x2="25.4447" y1="85.4516" y2="83.104" /><line stroke="rgb(255,0,0)" stroke-width="0.02" x1="26.9226" x2="30.9204" y1="83.104" y2="85.4516" /><line stroke="rgb(255,0,0)" stroke-width="0.02" x1="3.2389" x2="7.2367" y1="85.8782" y2="88.2258" /><line stroke="rgb(255,0,0)" stroke-width="0.02" x1="7.2367" x2="11.2345" y1="88.2258" y2="85.8782" /><line stroke="rgb(255,0,0)" stroke-width="0.02" x1="12.7124" x2="16.7102" y1="85.8782" y2="88.2258" /><line stroke="rgb(255,0,0)" stroke-width="0.02" x1="16.7102" x2="20.708" y1="88.2258" y2="85.8782" /><line stroke="rgb(255,0,0)" stroke-width="0.02" x1="22.1858" x2="26.1836" y1="85.8782" y2="88.2258" /><line stroke="rgb(255,0,0)" stroke-width="0.02" x1="26.1836" x2="30.1814" y1="88.2258" y2="85.8782" /><line stroke="rgb(255,0,0)" stroke-width="0.02" x1="2.5" x2="6.4978" y1="91.0" y2="88.6524" /><line stroke="rgb(255,0,0)" stroke-width="0.02" x1="7.9757" x2="11.9735" y1="88.6524" y2="91.0" /><line stroke="rgb(255,0,0)" stroke-width="0.02" x1="11.9735" x2="15.9712" y1="91.0" y2="88.6524" /><line stroke="rgb(255,0,0)" stroke-width="0.02" x1="17.4491" x2="21.4469" y1="88.6524" y2="91.0" /><line stroke="rgb(255,0,0)" stroke-width="0.02" x1="21.4469" x2="25.4447" y1="91.0" y2="88.6524" /><line stroke="rgb(255,0,0)" stroke-width="0.02" x1="26.9226" x2="30.9204" y1="88.6524" y2="91.0" /><line stroke="rgb(255,0,0)" stroke-width="0.02" x1="0" x2="0" y1="0" y2="96.0" /><line stroke="rgb(255,0,0)" stroke-width="0.02" x1="0" x2="33.4204" y1="96.0" y2="96.0" /><line stroke="rgb(255,0,0)" stroke-width="0.02" x1="33.4204" x2="33.4204" y1="96.0" y2="0" /><line stroke="rgb(255,0,0)" stroke-width="0.02" x1="33.4204" x2="0" y1="0" y2="0" /></svg>