<?xml version="1.0" encoding="utf-8" ?>
<svg baseProfile="tiny" height="100%" version="1.2" width="100%" xmlns="http://www.w3.org/2000/svg" xmlns:ev="http://www.w3.org/2001/xml-events" xmlns:xlink="http://www.w3.org/1999/xlink"><defs /><line stroke="rgb(255,0,0)" stroke-width="0.02" x1="2.5" x2="5.4983" y1="7.0976" y2="5.32" /><line stroke="rgb(255,0,0)" stroke-width="0.02" x1="6.6067" x2="9.6051" y1="5.32" y2="7.0976" /><line stroke="rgb(255,0,0)" stroke-width="0.02" x1="9.6051" x2="12.6034" y1="7.0976" y2="5.32" /><line stroke="rgb(255,0,0)" stroke-width="0.02" x1="13.7118" x2="16.7102" y1="5.32" y2="7.0976" /><line stroke="rgb(255,0,0)" stroke-width="0.02" x1="16.7102" x2="19.7085" y1="7.0976" y2="5.32" /><line stroke="rgb(255,0,0)" stroke-width="0.02" x1="20.8169" x2="23.8153" y1="5.32" y2="7.0976" /><line stroke="rgb(255,0,0)" stroke-width="0.02" x1="23.8153" x2="26.8136" y1="7.0976" y2="5.32" /><line stroke="rgb(255,0,0)" stroke-width="0.02" x1="27.922" x2="30.9204" y1="5.32" y2="7.0976" /><line stroke="rgb(255,0,0)" stroke-width="0.02" x1="3.0542" x2="6.0525" y1="7.4175" y2="9.1951" /><line stroke="rgb(255,0,0)" stroke-width="0.02" x1="6.0525" x2="9.0509" y1="9.1951" y2="7.4175" /><line stroke="rgb(255,0,0)" stroke-width="0.02" x1="10.1593" x2="13.1576" y1="7.4175" y2="9.1951" /><line stroke="rgb(255,0,0)" stroke-width="0.02" x1="13.1576" x2="16.156" y1="9.1951" y2="7.4175" /><line stroke="rgb(255,0,0)" stroke-width="0.02" x1="17.2644" x2="20.2627" y1="7.4175" y2="9.1951" /><line stroke="rgb(255,0,0)" stroke-width="0.02" x1="20.2627" x2="23.2611" y1="9.1951" y2="7.4175" /><line stroke="rgb(255,0,0)" stroke-width="0.02" x1="24.3695" x2="27.3678" y1="7.4175" y2="9.1951" /><line stroke="rgb(255,0,0)" stroke-width="0.02" x1="27.3678" x2="30.3662" y1="9.1951" y2="7.4175" /><line stroke="rgb(255,0,0)" stroke-width="0.02" x1="2.5" x2="5.4983" y1="11.2927" y2="9.5151" /><line stroke="rgb(255,0,0)" stroke-width="0.02" x1="6.6067" x2="9.6051" y1="9.5151" y2="11.2927" /><line stroke="rgb(255,0,0)" stroke-width="0.02" x1="9.6051" x2="12.6034" y1="11.2927" y2="9.5151" /><line stroke="rgb(255,0,0)" stroke-width="0.02" x1="13.7118" x2="16.7102" y1="9.5151" y2="11.2927" /><line stroke="rgb(255,0,0)" stroke-width="0.02" x1="16.7102" x2="19.7085" y1="11.2927" y2="9.5151" /><line stroke="rgb(255,0,0)" stroke-width="0.02" x1="20.8169" x2="23.8153" y1="9.5151" y2="11.2927" /><line stroke="rgb(255,0,0)" stroke-width="0.02" x1="23.8153" x2="26.8136" y1="11.2927" y2="9.5151" /><line stroke="rgb(255,0,0)" stroke-width="0.02" x1="27.922" x2="30.9204" y1="9.5151" y2="11.2927" /><line stroke="rgb(255,0,0)" stroke-width="0.02" x1="3.0542" x2="6.0525" y1="11.6126" y2="13.3902" /><line stroke="rgb(255,0,0)" stroke-width="0.02" x1="6.0525" x2="9.0509" y1="13.3902" y2="11.6126" /><line stroke="rgb(255,0,0)" stroke-width="0.02" x1="10.1593" x2="13.1576" y1="11.6126" y2="13.3902" /><line stroke="rgb(255,0,0)" stroke-width="0.02" x1="13.1576" x2="16.156" y1="13.3902" y2="11.6126" /><line stroke="rgb(255,0,0)" stroke-width="0.02" x1="17.2644" x2="20.2627" y1="11.6126" y2="13.3902" /><line stroke="rgb(255,0,0)" stroke-width="0.02" x1="20.2627" x2="23.2611" y1="13.3902" y2="11.6126" /><line stroke="rgb(255,0,0)" stroke-width="0.02" x1="24.3695" x2="27.3678" y1="11.6126" y2="13.3902" /><line stroke="rgb(255,0,0)" stroke-width="0.02" x1="27.3678" x2="30.3662" y1="13.3902" y2="11.6126" /><line stroke="rgb(255,0,0)" stroke-width="0.02" x1="2.5" x2="5.4983" y1="15.4878" y2="13.7102" /><line stroke="rgb(255,0,0)" stroke-width="0.02" x1="6.6067" x2="9.6051" y1="13.7102" y2="15.4878" /><line stroke="rgb(255,0,0)" stroke-width="0.02" x1="9.6051" x2="12.6034" y1="15.4878" y2="13.7102" /><line stroke="rgb(255,0,0)" stroke-width="0.02" x1="13.7118" x2="16.7102" y1="13.7102" y2="15.4878" /><line stroke="rgb(255,0,0)" stroke-width="0.02" x1="16.7102" x2="19.7085" y1="15.4878" y2="13.7102" /><line stroke="rgb(255,0,0)" stroke-width="0.02" x1="20.8169" x2="23.8153" y1="13.7102" y2="15.4878" /><line stroke="rgb(255,0,0)" stroke-width="0.02" x1="23.8153" x2="26.8136" y1="15.4878" y2="13.7102" /><line stroke="rgb(255,0,0)" stroke-width="0.02" x1="27.922" x2="30.9204" y1="13.7102" y2="15.4878" /><line stroke="rgb(255,0,0)" stroke-width="0.02" x1="3.0542" x2="6.0525" y1="15.8078" y2="17.5854" /><line stroke="rgb(255,0,0)" stroke-width="0.02" x1="6.0525" x2="9.0509" y1="17.5854" y2="15.8078" /><line stroke="rgb(255,0,0)" stroke-width="0.02" x1="10.1593" x2="13.1576" y1="15.8078" y2="17.5854" /><line stroke="rgb(255,0,0)" stroke-width="0.02" x1="13.1576" x2="16.156" y1="17.5854" y2="15.8078" /><line stroke="rgb(255,0,0)" stroke-width="0.02" x1="17.2644" x2="20.2627" y1="15.8078" y2="17.5854" /><line stroke="rgb(255,0,0)" stroke-width="0.02" x1="20.2627" x2="23.2611" y1="17.5854" y2="15.8078" /><line stroke="rgb(255,0,0)" stroke-width="0.02" x1="24.3695" x2="27.3678" y1="15.8078" y2="17.5854" /><line stroke="rgb(255,0,0)" stroke-width="0.02" x1="27.3678" x2="30.3662" y1="17.5854" y2="15.8078" /><line stroke="rgb(255,0,0)" stroke-width="0.02" x1="2.5" x2="5.4983" y1="19.6829" y2="17.9053" /><line stroke="rgb(255,0,0)" stroke-width="0.02" x1="6.6067" x2="9.6051" y1="17.9053" y2="19.6829" /><line stroke="rgb(255,0,0)" stroke-width="0.02" x1="9.6051" x2="12.6034" y1="19.6829" y2="17.9053" /><line stroke="rgb(255,0,0)" stroke-width="0.02" x1="13.7118" x2="16.7102" y1="17.9053" y2="19.6829" /><line stroke="rgb(255,0,0)" stroke-width="0.02" x1="16.7102" x2="19.7085" y1="19.6829" y2="17.9053" /><line stroke="rgb(255,0,0)" stroke-width="0.02" x1="20.8169" x2="23.8153" y1="17.9053" y2="19.6829" /><line stroke="rgb(255,0,0)" stroke-width="0.02" x1="23.8153" x2="26.8136" y1="19.6829" y2="17.9053" /><line stroke="rgb(255,0,0)" stroke-width="0.02" x1="27.922" x2="30.9204" y1="17.9053" y2="19.6829" /><line stroke="rgb(255,0,0)" stroke-width="0.02" x1="3.0542" x2="6.0525" y1="20.0029" y2="21.7805" /><line stroke="rgb(255,0,0)" stroke-width="0.02" x1="6.0525" x2="9.0509" y1="21.7805" y2="20.0029" /><line stroke="rgb(255,0,0)" stroke-width="0.02" x1="10.1593" x2="13.1576" y1="20.0029" y2="21.7805" /><line stroke="rgb(255,0,0)" stroke-width="0.02" x1="13.1576" x2="16.156" y1="21.7805" y2="20.0029" /><line stroke="rgb(255,0,0)" stroke-width="0.02" x1="17.2644" x2="20.2627" y1="20.0029" y2="21.7805" /><line stroke="rgb(255,0,0)" stroke-width="0.02" x1="20.2627" x2="23.2611" y1="21.7805" y2="20.0029" /><line stroke="rgb(255,0,0)" stroke-width="0.02" x1="24.3695" x2="27.3678" y1="20.0029" y2="21.7805" /><line stroke="rgb(255,0,0)" stroke-width="0.02" x1="27.3678" x2="30.3662" y1="21.7805" y2="20.0029" /><line stroke="rgb(255,0,0)" stroke-width="0.02" x1="2.5" x2="5.4983" y1="23.878" y2="22.1005" /><line stroke="rgb(255,0,0)" stroke-width="0.02" x1="6.6067" x2="9.6051" y1="22.1005" y2="23.878" /><line stroke="rgb(255,0,0)" stroke-width="0.02" x1="9.6051" x2="12.6034" y1="23.878" y2="22.1005" /><line stroke="rgb(255,0,0)" stroke-width="0.02" x1="13.7118" x2="16.7102" y1="22.1005" y2="23.878" /><line stroke="rgb(255,0,0)" stroke-width="0.02" x1="16.7102" x2="19.7085" y1="23.878" y2="22.1005" /><line stroke="rgb(255,0,0)" stroke-width="0.02" x1="20.8169" x2="23.8153" y1="22.1005" y2="23.878" /><line stroke="rgb(255,0,0)" stroke-width="0.02" x1="23.8153" x2="26.8136" y1="23.878" y2="22.1005" /><line stroke="rgb(255,0,0)" stroke-width="0.02" x1="27.922" x2="30.9204" y1="22.1005" y2="23.878" /><line stroke="rgb(255,0,0)" stroke-width="0.02" x1="3.0542" x2="6.0525" y1="24.198" y2="25.9756" /><line stroke="rgb(255,0,0)" stroke-width="0.02" x1="6.0525" x2="9.0509" y1="25.9756" y2="24.198" /><line stroke="rgb(255,0,0)" stroke-width="0.02" x1="10.1593" x2="13.1576" y1="24.198" y2="25.9756" /><line stroke="rgb(255,0,0)" stroke-width="0.02" x1="13.1576" x2="16.156" y1="25.9756" y2="24.198" /><line stroke="rgb(255,0,0)" stroke-width="0.02" x1="17.2644" x2="20.2627" y1="24.198" y2="25.9756" /><line stroke="rgb(255,0,0)" stroke-width="0.02" x1="20.2627" x2="23.2611" y1="25.9756" y2="24.198" /><line stroke="rgb(255,0,0)" stroke-width="0.02" x1="24.3695" x2="27.3678" y1="24.198" y2="25.9756" /><line stroke="rgb(255,0,0)" stroke-width="0.02" x1="27.3678" x2="30.3662" y1="25.9756" y2="24.198" /><line stroke="rgb(255,0,0)" stroke-width="0.02" x1="2.5" x2="5.4983" y1="28.0732" y2="26.2956" /><line stroke="rgb(255,0,0)" stroke-width="0.02" x1="6.6067" x2="9.6051" y1="26.2956" y2="28.0732" /><line stroke="rgb(255,0,0)" stroke-width="0.02" x1="9.6051" x2="12.6034" y1="28.0732" y2="26.2956" /><line stroke="rgb(255,0,0)" stroke-width="0.02" x1="13.7118" x2="16.7102" y1="26.2956" y2="28.0732" /><line stroke="rgb(255,0,0)" stroke-width="0.02" x1="16.7102" x2="19.7085" y1="28.0732" y2="26.2956" /><line stroke="rgb(255,0,0)" stroke-width="0.02" x1="20.8169" x2="23.8153" y1="26.2956" y2="28.0732" /><line stroke="rgb(255,0,0)" stroke-width="0.02" x1="23.8153" x2="26.8136" y1="28.0732" y2="26.2956" /><line stroke="rgb(255,0,0)" stroke-width="0.02" x1="27.922" x2="30.9204" y1="26.2956" y2="28.0732" /><line stroke="rgb(255,0,0)" stroke-width="0.02" x1="3.0542" x2="6.0525" y1="28.3931" y2="30.1707" /><line stroke="rgb(255,0,0)" stroke-width="0.02" x1="6.0525" x2="9.0509" y1="30.1707" y2="28.3931" /><line stroke="rgb(255,0,0)" stroke-width="0.02" x1="10.1593" x2="13.1576" y1="28.3931" y2="30.1707" /><line stroke="rgb(255,0,0)" stroke-width="0.02" x1="13.1576" x2="16.156" y1="30.1707" y2="28.3931" /><line stroke="rgb(255,0,0)" stroke-width="0.02" x1="17.2644" x2="20.2627" y1="28.3931" y2="30.1707" /><line stroke="rgb(255,0,0)" stroke-width="0.02" x1="20.2627" x2="23.2611" y1="30.1707" y2="28.3931" /><line stroke="rgb(255,0,0)" stroke-width="0.02" x1="24.3695" x2="27.3678" y1="28.3931" y2="30.1707" /><line stroke="rgb(255,0,0)" stroke-width="0.02" x1="27.3678" x2="30.3662" y1="30.1707" y2="28.3931" /><line stroke="rgb(255,0,0)" stroke-width="0.02" x1="2.5" x2="5.4983" y1="32.2683" y2="30.4907" /><line stroke="rgb(255,0,0)" stroke-width="0.02" x1="6.6067" x2="9.6051" y1="30.4907" y2="32.2683" /><line stroke="rgb(255,0,0)" stroke-width="0.02" x1="9.6051" x2="12.6034" y1="32.2683" y2="30.4907" /><line stroke="rgb(255,0,0)" stroke-width="0.02" x1="13.7118" x2="16.7102" y1="30.4907" y2="32.2683" /><line stroke="rgb(255,0,0)" stroke-width="0.02" x1="16.7102" x2="19.7085" y1="32.2683" y2="30.4907" /><line stroke="rgb(255,0,0)" stroke-width="0.02" x1="20.8169" x2="23.8153" y1="30.4907" y2="32.2683" /><line stroke="rgb(255,0,0)" stroke-width="0.02" x1="23.8153" x2="26.8136" y1="32.2683" y2="30.4907" /><line stroke="rgb(255,0,0)" stroke-width="0.02" x1="27.922" x2="30.9204" y1="30.4907" y2="32.2683" /><line stroke="rgb(255,0,0)" stroke-width="0.02" x1="3.0542" x2="6.0525" y1="32.5883" y2="34.3659" /><line stroke="rgb(255,0,0)" stroke-width="0.02" x1="6.0525" x2="9.0509" y1="34.3659" y2="32.5883" /><line stroke="rgb(255,0,0)" stroke-width="0.02" x1="10.1593" x2="13.1576" y1="32.5883" y2="34.3659" /><line stroke="rgb(255,0,0)" stroke-width="0.02" x1="13.1576" x2="16.156" y1="34.3659" y2="32.5883" /><line stroke="rgb(255,0,0)" stroke-width="0.02" x1="17.2644" x2="20.2627" y1="32.5883" y2="34.3659" /><line stroke="rgb(255,0,0)" stroke-width="0.02" x1="20.2627" x2="23.2611" y1="34.3659" y2="32.5883" /><line stroke="rgb(255,0,0)" stroke-width="0.02" x1="24.3695" x2="27.3678" y1="32.5883" y2="34.3659" /><line stroke="rgb(255,0,0)" stroke-width="0.02" x1="27.3678" x2="30.3662" y1="34.3659" y2="32.5883" /><line stroke="rgb(255,0,0)" stroke-width="0.02" x1="2.5" x2="5.4983" y1="36.4634" y2="34.6858" /><line stroke="rgb(255,0,0)" stroke-width="0.02" x1="6.6067" x2="9.6051" y1="34.6858" y2="36.4634" /><line stroke="rgb(255,0,0)" stroke-width="0.02" x1="9.6051" x2="12.6034" y1="36.4634" y2="34.6858" /><line stroke="rgb(255,0,0)" stroke-width="0.02" x1="13.7118" x2="16.7102" y1="34.6858" y2="36.4634" /><line stroke="rgb(255,0,0)" stroke-width="0.02" x1="16.7102" x2="19.7085" y1="36.4634" y2="34.6858" /><line stroke="rgb(255,0,0)" stroke-width="0.02" x1="20.8169" x2="23.8153" y1="34.6858" y2="36.4634" /><line stroke="rgb(255,0,0)" stroke-width="0.02" x1="23.8153" x2="26.8136" y1="36.4634" y2="34.6858" /><line stroke="rgb(255,0,0)" stroke-width="0.02" x1="27.922" x2="30.9204" y1="34.6858" y2="36.4634" /><line stroke="rgb(255,0,0)" stroke-width="0.02" x1="3.0542" x2="6.0525" y1="36.7834" y2="38.561" /><line stroke="rgb(255,0,0)" stroke-width="0.02" x1="6.0525" x2="9.0509" y1="38.561" y2="36.7834" /><line stroke="rgb(255,0,0)" stroke-width="0.02" x1="10.1593" x2="13.1576" y1="36.7834" y2="38.561" /><line stroke="rgb(255,0,0)" stroke-width="0.02" x1="13.1576" x2="16.156" y1="38.561" y2="36.7834" /><line stroke="rgb(255,0,0)" stroke-width="0.02" x1="17.2644" x2="20.2627" y1="36.7834" y2="38.561" /><line stroke="rgb(255,0,0)" stroke-width="0.02" x1="20.2627" x2="23.2611" y1="38.561" y2="36.7834" /><line stroke="rgb(255,0,0)" stroke-width="0.02" x1="24.3695" x2="27.3678" y1="36.7834" y2="38.561" /><line stroke="rgb(255,0,0)" stroke-width="0.02" x1="27.3678" x2="30.3662" y1="38.561" y2="36.7834" /><line stroke="rgb(255,0,0)" stroke-width="0.02" x1="2.5" x2="5.4983" y1="40.6585" y2="38.8809" /><line stroke="rgb(255,0,0)" stroke-width="0.02" x1="6.6067" x2="9.6051" y1="38.8809" y2="40.6585" /><line stroke="rgb(255,0,0)" stroke-width="0.02" x1="9.6051" x2="12.6034" y1="40.6585" y2="38.8809" /><line stroke="rgb(255,0,0)" stroke-width="0.02" x1="13.7118" x2="16.7102" y1="38.8809" y2="40.6585" /><line stroke="rgb(255,0,0)" stroke-width="0.02" x1="16.7102" x2="19.7085" y1="40.6585" y2="38.8809" /><line stroke="rgb(255,0,0)" stroke-width="0.02" x1="20.8169" x2="23.8153" y1="38.8809" y2="40.6585" /><line stroke="rgb(255,0,0)" stroke-width="0.02" x1="23.8153" x2="26.8136" y1="40.6585" y2="38.8809" /><line stroke="rgb(255,0,0)" stroke-width="0.02" x1="27.922" x2="30.9204" y1="38.8809" y2="40.6585" /><line stroke="rgb(255,0,0)" stroke-width="0.02" x1="3.0542" x2="6.0525" y1="40.9785" y2="42.7561" /><line stroke="rgb(255,0,0)" stroke-width="0.02" x1="6.0525" x2="9.0509" y1="42.7561" y2="40.9785" /><line stroke="rgb(255,0,0)" stroke-width="0.02" x1="10.1593" x2="13.1576" y1="40.9785" y2="42.7561" /><line stroke="rgb(255,0,0)" stroke-width="0.02" x1="13.1576" x2="16.156" y1="42.7561" y2="40.9785" /><line stroke="rgb(255,0,0)" stroke-width="0.02" x1="17.2644" x2="20.2627" y1="40.9785" y2="42.7561" /><line stroke="rgb(255,0,0)" stroke-width="0.02" x1="20.2627" x2="23.2611" y1="42.7561" y2="40.9785" /><line stroke="rgb(255,0,0)" stroke-width="0.02" x1="24.3695" x2="27.3678" y1="40.9785" y2="42.7561" /><line stroke="rgb(255,0,0)" stroke-width="0.02" x1="27.3678" x2="30.3662" y1="42.7561" y2="40.9785" /><line stroke="rgb(255,0,0)" stroke-width="0.02" x1="2.5" x2="5.4983" y1="44.8537" y2="43.0761" /><line stroke="rgb(255,0,0)" stroke-width="0.02" x1="6.6067" x2="9.6051" y1="43.0761" y2="44.8537" /><line stroke="rgb(255,0,0)" stroke-width="0.02" x1="9.6051" x2="12.6034" y1="44.8537" y2="43.0761" /><line stroke="rgb(255,0,0)" stroke-width="0.02" x1="13.7118" x2="16.7102" y1="43.0761" y2="44.8537" /><line stroke="rgb(255,0,0)" stroke-width="0.02" x1="16.7102" x2="19.7085" y1="44.8537" y2="43.0761" /><line stroke="rgb(255,0,0)" stroke-width="0.02" x1="20.8169" x2="23.8153" y1="43.0761" y2="44.8537" /><line stroke="rgb(255,0,0)" stroke-width="0.02" x1="23.8153" x2="26.8136" y1="44.8537" y2="43.0761" /><line stroke="rgb(255,0,0)" stroke-width="0.02" x1="27.922" x2="30.9204" y1="43.0761" y2="44.8537" /><line stroke="rgb(255,0,0)" stroke-width="0.02" x1="3.0542" x2="6.0525" y1="45.1736" y2="46.9512" /><line stroke="rgb(255,0,0)" stroke-width="0.02" x1="6.0525" x2="9.0509" y1="46.9512" y2="45.1736" /><line stroke="rgb(255,0,0)" stroke-width="0.02" x1="10.1593" x2="13.1576" y1="45.1736" y2="46.9512" /><line stroke="rgb(255,0,0)" stroke-width="0.02" x1="13.1576" x2="16.156" y1="46.9512" y2="45.1736" /><line stroke="rgb(255,0,0)" stroke-width="0.02" x1="17.2644" x2="20.2627" y1="45.1736" y2="46.9512" /><line stroke="rgb(255,0,0)" stroke-width="0.02" x1="20.2627" x2="23.2611" y1="46.9512" y2="45.1736" /><line stroke="rgb(255,0,0)" stroke-width="0.02" x1="24.3695" x2="27.3678" y1="45.1736" y2="46.9512" /><line stroke="rgb(255,0,0)" stroke-width="0.02" x1="27.3678" x2="30.3662" y1="46.9512" y2="45.1736" /><line stroke="rgb(255,0,0)" stroke-width="0.02" x1="2.5" x2="5.4983" y1="49.0488" y2="47.2712" /><line stroke="rgb(255,0,0)" stroke-width="0.02" x1="6.6067" x2="9.6051" y1="47.2712" y2="49.0488" /><line stroke="rgb(255,0,0)" stroke-width="0.02" x1="9.6051" x2="12.6034" y1="49.0488" y2="47.2712" /><line stroke="rgb(255,0,0)" stroke-width="0.02" x1="13.7118" x2="16.7102" y1="47.2712" y2="49.0488" /><line stroke="rgb(255,0,0)" stroke-width="0.02" x1="16.7102" x2="19.7085" y1="49.0488" y2="47.2712" /><line stroke="rgb(255,0,0)" stroke-width="0.02" x1="20.8169" x2="23.8153" y1="47.2712" y2="49.0488" /><line stroke="rgb(255,0,0)" stroke-width="0.02" x1="23.8153" x2="26.8136" y1="49.0488" y2="47.2712" /><line stroke="rgb(255,0,0)" stroke-width="0.02" x1="27.922" x2="30.9204" y1="47.2712" y2="49.0488" /><line stroke="rgb(255,0,0)" stroke-width="0.02" x1="3.0542" x2="6.0525" y1="49.3687" y2="51.1463" /><line stroke="rgb(255,0,0)" stroke-width="0.02" x1="6.0525" x2="9.0509" y1="51.1463" y2="49.3687" /><line stroke="rgb(255,0,0)" stroke-width="0.02" x1="10.1593" x2="13.1576" y1="49.3687" y2="51.1463" /><line stroke="rgb(255,0,0)" stroke-width="0.02" x1="13.1576" x2="16.156" y1="51.1463" y2="49.3687" /><line stroke="rgb(255,0,0)" stroke-width="0.02" x1="17.2644" x2="20.2627" y1="49.3687" y2="51.1463" /><line stroke="rgb(255,0,0)" stroke-width="0.02" x1="20.2627" x2="23.2611" y1="51.1463" y2="49.3687" /><line stroke="rgb(255,0,0)" stroke-width="0.02" x1="24.3695" x2="27.3678" y1="49.3687" y2="51.1463" /><line stroke="rgb(255,0,0)" stroke-width="0.02" x1="27.3678" x2="30.3662" y1="51.1463" y2="49.3687" /><line stroke="rgb(255,0,0)" stroke-width="0.02" x1="2.5" x2="5.4983" y1="53.2439" y2="51.4663" /><line stroke="rgb(255,0,0)" stroke-width="0.02" x1="6.6067" x2="9.6051" y1="51.4663" y2="53.2439" /><line stroke="rgb(255,0,0)" stroke-width="0.02" x1="9.6051" x2="12.6034" y1="53.2439" y2="51.4663" /><line stroke="rgb(255,0,0)" stroke-width="0.02" x1="13.7118" x2="16.7102" y1="51.4663" y2="53.2439" /><line stroke="rgb(255,0,0)" stroke-width="0.02" x1="16.7102" x2="19.7085" y1="53.2439" y2="51.4663" /><line stroke="rgb(255,0,0)" stroke-width="0.02" x1="20.8169" x2="23.8153" y1="51.4663" y2="53.2439" /><line stroke="rgb(255,0,0)" stroke-width="0.02" x1="23.8153" x2="26.8136" y1="53.2439" y2="51.4663" /><line stroke="rgb(255,0,0)" stroke-width="0.02" x1="27.922" x2="30.9204" y1="51.4663" y2="53.2439" /><line stroke="rgb(255,0,0)" stroke-width="0.02" x1="3.0542" x2="6.0525" y1="53.5639" y2="55.3415" /><line stroke="rgb(255,0,0)" stroke-width="0.02" x1="6.0525" x2="9.0509" y1="55.3415" y2="53.5639" /><line stroke="rgb(255,0,0)" stroke-width="0.02" x1="10.1593" x2="13.1576" y1="53.5639" y2="55.3415" /><line stroke="rgb(255,0,0)" stroke-width="0.02" x1="13.1576" x2="16.156" y1="55.3415" y2="53.5639" /><line stroke="rgb(255,0,0)" stroke-width="0.02" x1="17.2644" x2="20.2627" y1="53.5639" y2="55.3415" /><line stroke="rgb(255,0,0)" stroke-width="0.02" x1="20.2627" x2="23.2611" y1="55.3415" y2="53.5639" /><line stroke="rgb(255,0,0)" stroke-width="0.02" x1="24.3695" x2="27.3678" y1="53.5639" y2="55.3415" /><line stroke="rgb(255,0,0)" stroke-width="0.02" x1="27.3678" x2="30.3662" y1="55.3415" y2="53.5639" /><line stroke="rgb(255,0,0)" stroke-width="0.02" x1="2.5" x2="5.4983" y1="57.439" y2="55.6614" /><line stroke="rgb(255,0,0)" stroke-width="0.02" x1="6.6067" x2="9.6051" y1="55.6614" y2="57.439" /><line stroke="rgb(255,0,0)" stroke-width="0.02" x1="9.6051" x2="12.6034" y1="57.439" y2="55.6614" /><line stroke="rgb(255,0,0)" stroke-width="0.02" x1="13.7118" x2="16.7102" y1="55.6614" y2="57.439" /><line stroke="rgb(255,0,0)" stroke-width="0.02" x1="16.7102" x2="19.7085" y1="57.439" y2="55.6614" /><line stroke="rgb(255,0,0)" stroke-width="0.02" x1="20.8169" x2="23.8153" y1="55.6614" y2="57.439" /><line stroke="rgb(255,0,0)" stroke-width="0.02" x1="23.8153" x2="26.8136" y1="57.439" y2="55.6614" /><line stroke="rgb(255,0,0)" stroke-width="0.02" x1="27.922" x2="30.9204" y1="55.6614" y2="57.439" /><line stroke="rgb(255,0,0)" stroke-width="0.02" x1="3.0542" x2="6.0525" y1="57.759" y2="59.5366" /><line stroke="rgb(255,0,0)" stroke-width="0.02" x1="6.0525" x2="9.0509" y1="59.5366" y2="57.759" /><line stroke="rgb(255,0,0)" stroke-width="0.02" x1="10.1593" x2="13.1576" y1="57.759" y2="59.5366" /><line stroke="rgb(255,0,0)" stroke-width="0.02" x1="13.1576" x2="16.156" y1="59.5366" y2="57.759" /><line stroke="rgb(255,0,0)" stroke-width="0.02" x1="17.2644" x2="20.2627" y1="57.759" y2="59.5366" /><line stroke="rgb(255,0,0)" stroke-width="0.02" x1="20.2627" x2="23.2611" y1="59.5366" y2="57.759" /><line stroke="rgb(255,0,0)" stroke-width="0.02" x1="24.3695" x2="27.3678" y1="57.759" y2="59.5366" /><line stroke="rgb(255,0,0)" stroke-width="0.02" x1="27.3678" x2="30.3662" y1="59.5366" y2="57.759" /><line stroke="rgb(255,0,0)" stroke-width="0.02" x1="2.5" x2="5.4983" y1="61.6341" y2="59.8566" /><line stroke="rgb(255,0,0)" stroke-width="0.02" x1="6.6067" x2="9.6051" y1="59.8566" y2="61.6341" /><line stroke="rgb(255,0,0)" stroke-width="0.02" x1="9.6051" x2="12.6034" y1="61.6341" y2="59.8566" /><line stroke="rgb(255,0,0)" stroke-width="0.02" x1="13.7118" x2="16.7102" y1="59.8566" y2="61.6341" /><line stroke="rgb(255,0,0)" stroke-width="0.02" x1="16.7102" x2="19.7085" y1="61.6341" y2="59.8566" /><line stroke="rgb(255,0,0)" stroke-width="0.02" x1="20.8169" x2="23.8153" y1="59.8566" y2="61.6341" /><line stroke="rgb(255,0,0)" stroke-width="0.02" x1="23.8153" x2="26.8136" y1="61.6341" y2="59.8566" /><line stroke="rgb(255,0,0)" stroke-width="0.02" x1="27.922" x2="30.9204" y1="59.8566" y2="61.6341" /><line stroke="rgb(255,0,0)" stroke-width="0.02" x1="3.0542" x2="6.0525" y1="61.9541" y2="63.7317" /><line stroke="rgb(255,0,0)" stroke-width="0.02" x1="6.0525" x2="9.0509" y1="63.7317" y2="61.9541" /><line stroke="rgb(255,0,0)" stroke-width="0.02" x1="10.1593" x2="13.1576" y1="61.9541" y2="63.7317" /><line stroke="rgb(255,0,0)" stroke-width="0.02" x1="13.1576" x2="16.156" y1="63.7317" y2="61.9541" /><line stroke="rgb(255,0,0)" stroke-width="0.02" x1="17.2644" x2="20.2627" y1="61.9541" y2="63.7317" /><line stroke="rgb(255,0,0)" stroke-width="0.02" x1="20.2627" x2="23.2611" y1="63.7317" y2="61.9541" /><line stroke="rgb(255,0,0)" stroke-width="0.02" x1="24.3695" x2="27.3678" y1="61.9541" y2="63.7317" /><line stroke="rgb(255,0,0)" stroke-width="0.02" x1="27.3678" x2="30.3662" y1="63.7317" y2="61.9541" /><line stroke="rgb(255,0,0)" stroke-width="0.02" x1="2.5" x2="5.4983" y1="65.8293" y2="64.0517" /><line stroke="rgb(255,0,0)" stroke-width="0.02" x1="6.6067" x2="9.6051" y1="64.0517" y2="65.8293" /><line stroke="rgb(255,0,0)" stroke-width="0.02" x1="9.6051" x2="12.6034" y1="65.8293" y2="64.0517" /><line stroke="rgb(255,0,0)" stroke-width="0.02" x1="13.7118" x2="16.7102" y1="64.0517" y2="65.8293" /><line stroke="rgb(255,0,0)" stroke-width="0.02" x1="16.7102" x2="19.7085" y1="65.8293" y2="64.0517" /><line stroke="rgb(255,0,0)" stroke-width="0.02" x1="20.8169" x2="23.8153" y1="64.0517" y2="65.8293" /><line stroke="rgb(255,0,0)" stroke-width="0.02" x1="23.8153" x2="26.8136" y1="65.8293" y2="64.0517" /><line stroke="rgb(255,0,0)" stroke-width="0.02" x1="27.922" x2="30.9204" y1="64.0517" y2="65.8293" /><line stroke="rgb(255,0,0)" stroke-width="0.02" x1="3.0542" x2="6.0525" y1="66.1492" y2="67.9268" /><line stroke="rgb(255,0,0)" stroke-width="0.02" x1="6.0525" x2="9.0509" y1="67.9268" y2="66.1492" /><line stroke="rgb(255,0,0)" stroke-width="0.02" x1="10.1593" x2="13.1576" y1="66.1492" y2="67.9268" /><line stroke="rgb(255,0,0)" stroke-width="0.02" x1="13.1576" x2="16.156" y1="67.9268" y2="66.1492" /><line stroke="rgb(255,0,0)" stroke-width="0.02" x1="17.2644" x2="20.2627" y1="66.1492" y2="67.9268" /><line stroke="rgb(255,0,0)" stroke-width="0.02" x1="20.2627" x2="23.2611" y1="67.9268" y2="66.1492" /><line stroke="rgb(255,0,0)" stroke-width="0.02" x1="24.3695" x2="27.3678" y1="66.1492" y2="67.9268" /><line stroke="rgb(255,0,0)" stroke-width="0.02" x1="27.3678" x2="30.3662" y1="67.9268" y2="66.1492" /><line stroke="rgb(255,0,0)" stroke-width="0.02" x1="2.5" x2="5.4983" y1="70.0244" y2="68.2468" /><line stroke="rgb(255,0,0)" stroke-width="0.02" x1="6.6067" x2="9.6051" y1="68.2468" y2="70.0244" /><line stroke="rgb(255,0,0)" stroke-width="0.02" x1="9.6051" x2="12.6034" y1="70.0244" y2="68.2468" /><line stroke="rgb(255,0,0)" stroke-width="0.02" x1="13.7118" x2="16.7102" y1="68.2468" y2="70.0244" /><line stroke="rgb(255,0,0)" stroke-width="0.02" x1="16.7102" x2="19.7085" y1="70.0244" y2="68.2468" /><line stroke="rgb(255,0,0)" stroke-width="0.02" x1="20.8169" x2="23.8153" y1="68.2468" y2="70.0244" /><line stroke="rgb(255,0,0)" stroke-width="0.02" x1="23.8153" x2="26.8136" y1="70.0244" y2="68.2468" /><line stroke="rgb(255,0,0)" stroke-width="0.02" x1="27.922" x2="30.9204" y1="68.2468" y2="70.0244" /><line stroke="rgb(255,0,0)" stroke-width="0.02" x1="3.0542" x2="6.0525" y1="70.3444" y2="72.122" /><line stroke="rgb(255,0,0)" stroke-width="0.02" x1="6.0525" x2="9.0509" y1="72.122" y2="70.3444" /><line stroke="rgb(255,0,0)" stroke-width="0.02" x1="10.1593" x2="13.1576" y1="70.3444" y2="72.122" /><line stroke="rgb(255,0,0)" stroke-width="0.02" x1="13.1576" x2="16.156" y1="72.122" y2="70.3444" /><line stroke="rgb(255,0,0)" stroke-width="0.02" x1="17.2644" x2="20.2627" y1="70.3444" y2="72.122" /><line stroke="rgb(255,0,0)" stroke-width="0.02" x1="20.2627" x2="23.2611" y1="72.122" y2="70.3444" /><line stroke="rgb(255,0,0)" stroke-width="0.02" x1="24.3695" x2="27.3678" y1="70.3444" y2="72.122" /><line stroke="rgb(255,0,0)" stroke-width="0.02" x1="27.3678" x2="30.3662" y1="72.122" y2="70.3444" /><line stroke="rgb(255,0,0)" stroke-width="0.02" x1="2.5" x2="5.4983" y1="74.2195" y2="72.4419" /><line stroke="rgb(255,0,0)" stroke-width="0.02" x1="6.6067" x2="9.6051" y1="72.4419" y2="74.2195" /><line stroke="rgb(255,0,0)" stroke-width="0.02" x1="9.6051" x2="12.6034" y1="74.2195" y2="72.4419" /><line stroke="rgb(255,0,0)" stroke-width="0.02" x1="13.7118" x2="16.7102" y1="72.4419" y2="74.2195" /><line stroke="rgb(255,0,0)" stroke-width="0.02" x1="16.7102" x2="19.7085" y1="74.2195" y2="72.4419" /><line stroke="rgb(255,0,0)" stroke-width="0.02" x1="20.8169" x2="23.8153" y1="72.4419" y2="74.2195" /><line stroke="rgb(255,0,0)" stroke-width="0.02" x1="23.8153" x2="26.8136" y1="74.2195" y2="72.4419" /><line stroke="rgb(255,0,0)" stroke-width="0.02" x1="27.922" x2="30.9204" y1="72.4419" y2="74.2195" /><line stroke="rgb(255,0,0)" stroke-width="0.02" x1="3.0542" x2="6.0525" y1="74.5395" y2="76.3171" /><line stroke="rgb(255,0,0)" stroke-width="0.02" x1="6.0525" x2="9.0509" y1="76.3171" y2="74.5395" /><line stroke="rgb(255,0,0)" stroke-width="0.02" x1="10.1593" x2="13.1576" y1="74.5395" y2="76.3171" /><line stroke="rgb(255,0,0)" stroke-width="0.02" x1="13.1576" x2="16.156" y1="76.3171" y2="74.5395" /><line stroke="rgb(255,0,0)" stroke-width="0.02" x1="17.2644" x2="20.2627" y1="74.5395" y2="76.3171" /><line stroke="rgb(255,0,0)" stroke-width="0.02" x1="20.2627" x2="23.2611" y1="76.3171" y2="74.5395" /><line stroke="rgb(255,0,0)" stroke-width="0.02" x1="24.3695" x2="27.3678" y1="74.5395" y2="76.3171" /><line stroke="rgb(255,0,0)" stroke-width="0.02" x1="27.3678" x2="30.3662" y1="76.3171" y2="74.5395" /><line stroke="rgb(255,0,0)" stroke-width="0.02" x1="2.5" x2="5.4983" y1="78.4146" y2="76.637" /><line stroke="rgb(255,0,0)" stroke-width="0.02" x1="6.6067" x2="9.6051" y1="76.637" y2="78.4146" /><line stroke="rgb(255,0,0)" stroke-width="0.02" x1="9.6051" x2="12.6034" y1="78.4146" y2="76.637" /><line stroke="rgb(255,0,0)" stroke-width="0.02" x1="13.7118" x2="16.7102" y1="76.637" y2="78.4146" /><line stroke="rgb(255,0,0)" stroke-width="0.02" x1="16.7102" x2="19.7085" y1="78.4146" y2="76.637" /><line stroke="rgb(255,0,0)" stroke-width="0.02" x1="20.8169" x2="23.8153" y1="76.637" y2="78.4146" /><line stroke="rgb(255,0,0)" stroke-width="0.02" x1="23.8153" x2="26.8136" y1="78.4146" y2="76.637" /><line stroke="rgb(255,0,0)" stroke-width="0.02" x1="27.922" x2="30.9204" y1="76.637" y2="78.4146" /><line stroke="rgb(255,0,0)" stroke-width="0.02" x1="3.0542" x2="6.0525" y1="78.7346" y2="80.5122" /><line stroke="rgb(255,0,0)" stroke-width="0.02" x1="6.0525" x2="9.0509" y1="80.5122" y2="78.7346" /><line stroke="rgb(255,0,0)" stroke-width="0.02" x1="10.1593" x2="13.1576" y1="78.7346" y2="80.5122" /><line stroke="rgb(255,0,0)" stroke-width="0.02" x1="13.1576" x2="16.156" y1="80.5122" y2="78.7346" /><line stroke="rgb(255,0,0)" stroke-width="0.02" x1="17.2644" x2="20.2627" y1="78.7346" y2="80.5122" /><line stroke="rgb(255,0,0)" stroke-width="0.02" x1="20.2627" x2="23.2611" y1="80.5122" y2="78.7346" /><line stroke="rgb(255,0,0)" stroke-width="0.02" x1="24.3695" x2="27.3678" y1="78.7346" y2="80.5122" /><line stroke="rgb(255,0,0)" stroke-width="0.02" x1="27.3678" x2="30.3662" y1="80.5122" y2="78.7346" /><line stroke="rgb(255,0,0)" stroke-width="0.02" x1="2.5" x2="5.4983" y1="82.6098" y2="80.8322" /><line stroke="rgb(255,0,0)" stroke-width="0.02" x1="6.6067" x2="9.6051" y1="80.8322" y2="82.6098" /><line stroke="rgb(255,0,0)" stroke-width="0.02" x1="9.6051" x2="12.6034" y1="82.6098" y2="80.8322" /><line stroke="rgb(255,0,0)" stroke-width="0.02" x1="13.7118" x2="16.7102" y1="80.8322" y2="82.6098" /><line stroke="rgb(255,0,0)" stroke-width="0.02" x1="16.7102" x2="19.7085" y1="82.6098" y2="80.8322" /><line stroke="rgb(255,0,0)" stroke-width="0.02" x1="20.8169" x2="23.8153" y1="80.8322" y2="82.6098" /><line stroke="rgb(255,0,0)" stroke-width="0.02" x1="23.8153" x2="26.8136" y1="82.6098" y2="80.8322" /><line stroke="rgb(255,0,0)" stroke-width="0.02" x1="27.922" x2="30.9204" y1="80.8322" y2="82.6098" /><line stroke="rgb(255,0,0)" stroke-width="0.02" x1="3.0542" x2="6.0525" y1="82.9297" y2="84.7073" /><line stroke="rgb(255,0,0)" stroke-width="0.02" x1="6.0525" x2="9.0509" y1="84.7073" y2="82.9297" /><line stroke="rgb(255,0,0)" stroke-width="0.02" x1="10.1593" x2="13.1576" y1="82.9297" y2="84.7073" /><line stroke="rgb(255,0,0)" stroke-width="0.02" x1="13.1576" x2="16.156" y1="84.7073" y2="82.9297" /><line stroke="rgb(255,0,0)" stroke-width="0.02" x1="17.2644" x2="20.2627" y1="82.9297" y2="84.7073" /><line stroke="rgb(255,0,0)" stroke-width="0.02" x1="20.2627" x2="23.2611" y1="84.7073" y2="82.9297" /><line stroke="rgb(255,0,0)" stroke-width="0.02" x1="24.3695" x2="27.3678" y1="82.9297" y2="84.7073" /><line stroke="rgb(255,0,0)" stroke-width="0.02" x1="27.3678" x2="30.3662" y1="84.7073" y2="82.9297" /><line stroke="rgb(255,0,0)" stroke-width="0.02" x1="2.5" x2="5.4983" y1="86.8049" y2="85.0273" /><line stroke="rgb(255,0,0)" stroke-width="0.02" x1="6.6067" x2="9.6051" y1="85.0273" y2="86.8049" /><line stroke="rgb(255,0,0)" stroke-width="0.02" x1="9.6051" x2="12.6034" y1="86.8049" y2="85.0273" /><line stroke="rgb(255,0,0)" stroke-width="0.02" x1="13.7118" x2="16.7102" y1="85.0273" y2="86.8049" /><line stroke="rgb(255,0,0)" stroke-width="0.02" x1="16.7102" x2="19.7085" y1="86.8049" y2="85.0273" /><line stroke="rgb(255,0,0)" stroke-width="0.02" x1="20.8169" x2="23.8153" y1="85.0273" y2="86.8049" /><line stroke="rgb(255,0,0)" stroke-width="0.02" x1="23.8153" x2="26.8136" y1="86.8049" y2="85.0273" /><line stroke="rgb(255,0,0)" stroke-width="0.02" x1="27.922" x2="30.9204" y1="85.0273" y2="86.8049" /><line stroke="rgb(255,0,0)" stroke-width="0.02" x1="3.0542" x2="6.0525" y1="87.1248" y2="88.9024" /><line stroke="rgb(255,0,0)" stroke-width="0.02" x1="6.0525" x2="9.0509" y1="88.9024" y2="87.1248" /><line stroke="rgb(255,0,0)" stroke-width="0.02" x1="10.1593" x2="13.1576" y1="87.1248" y2="88.9024" /><line stroke="rgb(255,0,0)" stroke-width="0.02" x1="13.1576" x2="16.156" y1="88.9024" y2="87.1248" /><line stroke="rgb(255,0,0)" stroke-width="0.02" x1="17.2644" x2="20.2627" y1="87.1248" y2="88.9024" /><line stroke="rgb(255,0,0)" stroke-width="0.02" x1="20.2627" x2="23.2611" y1="88.9024" y2="87.1248" /><line stroke="rgb(255,0,0)" stroke-width="0.02" x1="24.3695" x2="27.3678" y1="87.1248" y2="88.9024" /><line stroke="rgb(255,0,0)" stroke-width="0.02" x1="27.3678" x2="30.3662" y1="88.9024" y2="87.1248" /><line stroke="rgb(255,0,0)" stroke-width="0.02" x1="2.5" x2="5.4983" y1="91.0" y2="89.2224" /><line stroke="rgb(255,0,0)" stroke-width="0.02" x1="6.6067" x2="9.6051" y1="89.2224" y2="91.0" /><line stroke="rgb(255,0,0)" stroke-width="0.02" x1="9.6051" x2="12.6034" y1="91.0" y2="89.2224" /><line stroke="rgb(255,0,0)" stroke-width="0.02" x1="13.7118" x2="16.7102" y1="89.2224" y2="91.0" /><line stroke="rgb(255,0,0)" stroke-width="0.02" x1="16.7102" x2="19.7085" y1="91.0" y2="89.2224" /><line stroke="rgb(255,0,0)" stroke-width="0.02" x1="20.8169" x2="23.8153" y1="89.2224" y2="91.0" /><line stroke="rgb(255,0,0)" stroke-width="0.02" x1="23.8153" x2="26.8136" y1="91.0" y2="89.2224" /><line stroke="rgb(255,0,0)" stroke-width="0.02" x1="27.922" x2="30.9204" y1="89.2224" y2="91.0" /><line stroke="rgb(255,0,0)" stroke-width="0.02" x1="0" x2="0" y1="0" y2="96.0" /><line stroke="rgb(255,0,0)" stroke-width="0.02" x1="0" x2="33.4204" y1="96.0" y2="96.0" /><line stroke="rgb(255,0,0)" stroke-width="0.02" x1="33.4204" x2="33.4204" y1="96.0" y2="0" /><line stroke="rgb(255,0,0)" stroke-width="0.02" x1="33.4204" x2="0" y1="0" y2="0" /></svg>