  0
SECTION
  2
HEADER
  9
$ACADVER
  1
AC1024
  9
$ACADMAINTVER
 70
6
  9
$DWGCODEPAGE
  3
ANSI_1252
  9
$LASTSAVEDBY
  1
ezdxf
  9
$INSBASE
 10
0.0
 20
0.0
 30
0.0
  9
$EXTMIN
 10
1e+20
 20
1e+20
 30
1e+20
  9
$EXTMAX
 10
-1e+20
 20
-1e+20
 30
-1e+20
  9
$LIMMIN
 10
0.0
 20
0.0
  9
$LIMMAX
 10
420.0
 20
297.0
  9
$ORTHOMODE
 70
0
  9
$REGENMODE
 70
1
  9
$FILLMODE
 70
1
  9
$QTEXTMODE
 70
0
  9
$MIRRTEXT
 70
1
  9
$LTSCALE
 40
1.0
  9
$ATTMODE
 70
1
  9
$TEXTSIZE
 40
2.5
  9
$TRACEWID
 40
1.0
  9
$TEXTSTYLE
  7
Standard
  9
$CLAYER
  8
0
  9
$CELTYPE
  6
ByLayer
  9
$CECOLOR
 62
256
  9
$CELTSCALE
 40
1.0
  9
$DISPSILH
 70
0
  9
$DIMSCALE
 40
1.0
  9
$DIMASZ
 40
2.5
  9
$DIMEXO
 40
0.625
  9
$DIMDLI
 40
3.75
  9
$DIMRND
 40
0.0
  9
$DIMDLE
 40
0.0
  9
$DIMEXE
 40
1.25
  9
$DIMTP
 40
0.0
  9
$DIMTM
 40
0.0
  9
$DIMTXT
 40
2.5
  9
$DIMCEN
 40
2.5
  9
$DIMTSZ
 40
0.0
  9
$DIMTOL
 70
0
  9
$DIMLIM
 70
0
  9
$DIMTIH
 70
0
  9
$DIMTOH
 70
0
  9
$DIMSE1
 70
0
  9
$DIMSE2
 70
0
  9
$DIMTAD
 70
1
  9
$DIMZIN
 70
8
  9
$DIMBLK
  1

  9
$DIMASO
 70
1
  9
$DIMSHO
 70
1
  9
$DIMPOST
  1

  9
$DIMAPOST
  1

  9
$DIMALT
 70
0
  9
$DIMALTD
 70
3
  9
$DIMALTF
 40
0.03937007874
  9
$DIMLFAC
 40
1.0
  9
$DIMTOFL
 70
1
  9
$DIMTVP
 40
0.0
  9
$DIMTIX
 70
0
  9
$DIMSOXD
 70
0
  9
$DIMSAH
 70
0
  9
$DIMBLK1
  1

  9
$DIMBLK2
  1

  9
$DIMSTYLE
  2
ISO-25
  9
$DIMCLRD
 70
0
  9
$DIMCLRE
 70
0
  9
$DIMCLRT
 70
0
  9
$DIMTFAC
 40
1.0
  9
$DIMGAP
 40
0.625
  9
$DIMJUST
 70
0
  9
$DIMSD1
 70
0
  9
$DIMSD2
 70
0
  9
$DIMTOLJ
 70
0
  9
$DIMTZIN
 70
8
  9
$DIMALTZ
 70
0
  9
$DIMALTTZ
 70
0
  9
$DIMUPT
 70
0
  9
$DIMDEC
 70
2
  9
$DIMTDEC
 70
2
  9
$DIMALTU
 70
2
  9
$DIMALTTD
 70
3
  9
$DIMTXSTY
  7
Standard
  9
$DIMAUNIT
 70
0
  9
$DIMADEC
 70
0
  9
$DIMALTRND
 40
0.0
  9
$DIMAZIN
 70
0
  9
$DIMDSEP
 70
44
  9
$DIMATFIT
 70
3
  9
$DIMFRAC
 70
0
  9
$DIMLDRBLK
  1

  9
$DIMLUNIT
 70
2
  9
$DIMLWD
 70
-2
  9
$DIMLWE
 70
-2
  9
$DIMTMOVE
 70
0
  9
$DIMFXL
 40
1.0
  9
$DIMFXLON
 70
0
  9
$DIMJOGANG
 40
0.785398163397
  9
$DIMTFILL
 70
0
  9
$DIMTFILLCLR
 70
0
  9
$DIMARCSYM
 70
0
  9
$DIMLTYPE
  6

  9
$DIMLTEX1
  6

  9
$DIMLTEX2
  6

  9
$DIMTXTDIRECTION
 70
0
  9
$LUNITS
 70
2
  9
$LUPREC
 70
4
  9
$SKETCHINC
 40
1.0
  9
$FILLETRAD
 40
10.0
  9
$AUNITS
 70
0
  9
$AUPREC
 70
2
  9
$MENU
  1
.
  9
$ELEVATION
 40
0.0
  9
$PELEVATION
 40
0.0
  9
$THICKNESS
 40
0.0
  9
$LIMCHECK
 70
0
  9
$CHAMFERA
 40
0.0
  9
$CHAMFERB
 40
0.0
  9
$CHAMFERC
 40
0.0
  9
$CHAMFERD
 40
0.0
  9
$SKPOLY
 70
0
  9
$TDCREATE
 40
2459635.683460648
  9
$TDUCREATE
 40
2458532.153996898
  9
$TDUPDATE
 40
2459635.683460648
  9
$TDUUPDATE
 40
2458532.1544311
  9
$TDINDWG
 40
0.0
  9
$TDUSRTIMER
 40
0.0
  9
$USRTIMER
 70
1
  9
$ANGBASE
 50
0.0
  9
$ANGDIR
 70
0
  9
$PDMODE
 70
0
  9
$PDSIZE
 40
0.0
  9
$PLINEWID
 40
0.0
  9
$SPLFRAME
 70
0
  9
$SPLINETYPE
 70
6
  9
$SPLINESEGS
 70
8
  9
$HANDSEED
  5
14D
  9
$SURFTAB1
 70
6
  9
$SURFTAB2
 70
6
  9
$SURFTYPE
 70
6
  9
$SURFU
 70
6
  9
$SURFV
 70
6
  9
$UCSBASE
  2

  9
$UCSNAME
  2

  9
$UCSORG
 10
0.0
 20
0.0
 30
0.0
  9
$UCSXDIR
 10
1.0
 20
0.0
 30
0.0
  9
$UCSYDIR
 10
0.0
 20
1.0
 30
0.0
  9
$UCSORTHOREF
  2

  9
$UCSORTHOVIEW
 70
0
  9
$UCSORGTOP
 10
0.0
 20
0.0
 30
0.0
  9
$UCSORGBOTTOM
 10
0.0
 20
0.0
 30
0.0
  9
$UCSORGLEFT
 10
0.0
 20
0.0
 30
0.0
  9
$UCSORGRIGHT
 10
0.0
 20
0.0
 30
0.0
  9
$UCSORGFRONT
 10
0.0
 20
0.0
 30
0.0
  9
$UCSORGBACK
 10
0.0
 20
0.0
 30
0.0
  9
$PUCSBASE
  2

  9
$PUCSNAME
  2

  9
$PUCSORG
 10
0.0
 20
0.0
 30
0.0
  9
$PUCSXDIR
 10
1.0
 20
0.0
 30
0.0
  9
$PUCSYDIR
 10
0.0
 20
1.0
 30
0.0
  9
$PUCSORTHOREF
  2

  9
$PUCSORTHOVIEW
 70
0
  9
$PUCSORGTOP
 10
0.0
 20
0.0
 30
0.0
  9
$PUCSORGBOTTOM
 10
0.0
 20
0.0
 30
0.0
  9
$PUCSORGLEFT
 10
0.0
 20
0.0
 30
0.0
  9
$PUCSORGRIGHT
 10
0.0
 20
0.0
 30
0.0
  9
$PUCSORGFRONT
 10
0.0
 20
0.0
 30
0.0
  9
$PUCSORGBACK
 10
0.0
 20
0.0
 30
0.0
  9
$USERI1
 70
0
  9
$USERI2
 70
0
  9
$USERI3
 70
0
  9
$USERI4
 70
0
  9
$USERI5
 70
0
  9
$USERR1
 40
0.0
  9
$USERR2
 40
0.0
  9
$USERR3
 40
0.0
  9
$USERR4
 40
0.0
  9
$USERR5
 40
0.0
  9
$WORLDVIEW
 70
1
  9
$SHADEDGE
 70
3
  9
$SHADEDIF
 70
70
  9
$TILEMODE
 70
1
  9
$MAXACTVP
 70
64
  9
$PINSBASE
 10
0.0
 20
0.0
 30
0.0
  9
$PLIMCHECK
 70
0
  9
$PEXTMIN
 10
1e+20
 20
1e+20
 30
1e+20
  9
$PEXTMAX
 10
-1e+20
 20
-1e+20
 30
-1e+20
  9
$PLIMMIN
 10
0.0
 20
0.0
  9
$PLIMMAX
 10
420.0
 20
297.0
  9
$UNITMODE
 70
0
  9
$VISRETAIN
 70
1
  9
$PLINEGEN
 70
0
  9
$PSLTSCALE
 70
1
  9
$TREEDEPTH
 70
3020
  9
$CMLSTYLE
  2
Standard
  9
$CMLJUST
 70
0
  9
$CMLSCALE
 40
20.0
  9
$PROXYGRAPHICS
 70
1
  9
$MEASUREMENT
 70
1
  9
$CELWEIGHT
370
-1
  9
$ENDCAPS
280
0
  9
$JOINSTYLE
280
0
  9
$LWDISPLAY
290
0
  9
$INSUNITS
 70
6
  9
$HYPERLINKBASE
  1

  9
$STYLESHEET
  1

  9
$XEDIT
290
1
  9
$CEPSNTYPE
380
0
  9
$PSTYLEMODE
290
1
  9
$FINGERPRINTGUID
  2
{2ED9E2A7-0747-451D-8E20-3B334A87DB3E}
  9
$VERSIONGUID
  2
{C452DA72-3F71-4D63-AF4C-55AD006F2017}
  9
$EXTNAMES
290
1
  9
$PSVPSCALE
 40
0.0
  9
$OLESTARTUP
290
0
  9
$SORTENTS
280
127
  9
$INDEXCTL
280
0
  9
$HIDETEXT
280
1
  9
$XCLIPFRAME
280
0
  9
$HALOGAP
280
0
  9
$OBSCOLOR
 70
257
  9
$OBSLTYPE
280
0
  9
$INTERSECTIONDISPLAY
280
0
  9
$INTERSECTIONCOLOR
 70
257
  9
$DIMASSOC
280
2
  9
$PROJECTNAME
  1

  9
$CAMERADISPLAY
290
0
  9
$LENSLENGTH
 40
50.0
  9
$CAMERAHEIGHT
 40
0.0
  9
$STEPSPERSEC
 40
24.0
  9
$STEPSIZE
 40
100.0
  9
$3DDWFPREC
 40
2.0
  9
$PSOLWIDTH
 40
0.005
  9
$PSOLHEIGHT
 40
0.08
  9
$LOFTANG1
 40
1.570796326795
  9
$LOFTANG2
 40
1.570796326795
  9
$LOFTMAG1
 40
0.0
  9
$LOFTMAG2
 40
0.0
  9
$LOFTPARAM
 70
7
  9
$LOFTNORMALS
280
1
  9
$LATITUDE
 40
37.795
  9
$LONGITUDE
 40
-122.394
  9
$NORTHDIRECTION
 40
0.0
  9
$TIMEZONE
 70
-8000
  9
$LIGHTGLYPHDISPLAY
280
1
  9
$TILEMODELIGHTSYNCH
280
1
  9
$CMATERIAL
347
20
  9
$SOLIDHIST
280
0
  9
$SHOWHIST
280
1
  9
$DWFFRAME
280
2
  9
$DGNFRAME
280
2
  9
$REALWORLDSCALE
290
1
  9
$INTERFERECOLOR
 62
256
  9
$CSHADOW
280
0
  9
$SHADOWPLANELOCATION
 40
0.0
  0
ENDSEC
  0
SECTION
  2
CLASSES
  0
CLASS
  1
ACDBDICTIONARYWDFLT
  2
AcDbDictionaryWithDefault
  3
ObjectDBX Classes
 90
0
 91
0
280
0
281
0
  0
CLASS
  1
SUN
  2
AcDbSun
  3
SCENEOE
 90
1153
 91
0
280
0
281
0
  0
CLASS
  1
VISUALSTYLE
  2
AcDbVisualStyle
  3
ObjectDBX Classes
 90
4095
 91
0
280
0
281
0
  0
CLASS
  1
MATERIAL
  2
AcDbMaterial
  3
ObjectDBX Classes
 90
1153
 91
0
280
0
281
0
  0
CLASS
  1
SCALE
  2
AcDbScale
  3
ObjectDBX Classes
 90
1153
 91
0
280
0
281
0
  0
CLASS
  1
TABLESTYLE
  2
AcDbTableStyle
  3
ObjectDBX Classes
 90
4095
 91
0
280
0
281
0
  0
CLASS
  1
MLEADERSTYLE
  2
AcDbMLeaderStyle
  3
ACDB_MLEADERSTYLE_CLASS
 90
4095
 91
0
280
0
281
0
  0
CLASS
  1
DICTIONARYVAR
  2
AcDbDictionaryVar
  3
ObjectDBX Classes
 90
0
 91
0
280
0
281
0
  0
CLASS
  1
CELLSTYLEMAP
  2
AcDbCellStyleMap
  3
ObjectDBX Classes
 90
1152
 91
0
280
0
281
0
  0
CLASS
  1
MENTALRAYRENDERSETTINGS
  2
AcDbMentalRayRenderSettings
  3
SCENEOE
 90
1024
 91
0
280
0
281
0
  0
CLASS
  1
ACDBDETAILVIEWSTYLE
  2
AcDbDetailViewStyle
  3
ObjectDBX Classes
 90
1025
 91
0
280
0
281
0
  0
CLASS
  1
ACDBSECTIONVIEWSTYLE
  2
AcDbSectionViewStyle
  3
ObjectDBX Classes
 90
1025
 91
0
280
0
281
0
  0
CLASS
  1
RASTERVARIABLES
  2
AcDbRasterVariables
  3
ISM
 90
0
 91
0
280
0
281
0
  0
CLASS
  1
LAYOUT
  2
AcDbLayout
  3
ObjectDBX Classes
 90
0
 91
0
280
0
281
0
  0
CLASS
  1
ACDBPLACEHOLDER
  2
AcDbPlaceHolder
  3
ObjectDBX Classes
 90
0
 91
0
280
0
281
0
  0
ENDSEC
  0
SECTION
  2
TABLES
  0
TABLE
  2
VPORT
  5
8
330
0
100
AcDbSymbolTable
 70
1
  0
VPORT
  5
23
330
8
100
AcDbSymbolTableRecord
100
AcDbViewportTableRecord
  2
*Active
 70
0
 10
0.0
 20
0.0
 11
1.0
 21
1.0
 12
344.2
 22
148.5
 13
0.0
 23
0.0
 14
0.5
 24
0.5
 15
0.5
 25
0.5
 16
0.0
 26
0.0
 36
1.0
 17
0.0
 27
0.0
 37
0.0
 40
297.0
 41
1.34
 42
50.0
 43
0.0
 44
0.0
 50
0.0
 51
0.0
 71
0
 72
1000
 73
1
 74
3
 75
0
 76
0
 77
0
 78
0
281
0
 65
0
146
0.0
  0
ENDTAB
  0
TABLE
  2
LTYPE
  5
2
330
0
100
AcDbSymbolTable
 70
3
  0
LTYPE
  5
24
330
2
100
AcDbSymbolTableRecord
100
AcDbLinetypeTableRecord
  2
ByBlock
 70
0
  3

 72
65
 73
0
 40
0.0
  0
LTYPE
  5
25
330
2
100
AcDbSymbolTableRecord
100
AcDbLinetypeTableRecord
  2
ByLayer
 70
0
  3

 72
65
 73
0
 40
0.0
  0
LTYPE
  5
26
330
2
100
AcDbSymbolTableRecord
100
AcDbLinetypeTableRecord
  2
Continuous
 70
0
  3

 72
65
 73
0
 40
0.0
  0
ENDTAB
  0
TABLE
  2
LAYER
  5
1
330
0
100
AcDbSymbolTable
 70
3
  0
LAYER
  5
27
330
1
100
AcDbSymbolTableRecord
100
AcDbLayerTableRecord
  2
0
 70
0
 62
7
  6
Continuous
370
-3
390
13
347
21
  0
LAYER
  5
28
330
1
100
AcDbSymbolTableRecord
100
AcDbLayerTableRecord
  2
Defpoints
 70
0
 62
7
  6
Continuous
290
0
370
-3
390
13
347
21
  0
LAYER
  5
2D
330
1
100
AcDbSymbolTableRecord
100
AcDbLayerTableRecord
  2
TOP
 70
0
 62
1
  6
Continuous
370
0
390
13
347
21
  0
ENDTAB
  0
TABLE
  2
STYLE
  5
5
330
0
100
AcDbSymbolTable
 70
1
  0
STYLE
  5
29
330
5
100
AcDbSymbolTableRecord
100
AcDbTextStyleTableRecord
  2
Standard
 70
0
 40
0.0
 41
1.0
 50
0.0
 71
0
 42
2.5
  3
txt
  4

  0
ENDTAB
  0
TABLE
  2
VIEW
  5
7
330
0
100
AcDbSymbolTable
 70
0
  0
ENDTAB
  0
TABLE
  2
UCS
  5
6
330
0
100
AcDbSymbolTable
 70
0
  0
ENDTAB
  0
TABLE
  2
APPID
  5
3
330
0
100
AcDbSymbolTable
 70
2
  0
APPID
  5
2A
330
3
100
AcDbSymbolTableRecord
100
AcDbRegAppTableRecord
  2
ACAD
 70
0
  0
APPID
  5
14C
330
3
100
AcDbSymbolTableRecord
100
AcDbRegAppTableRecord
  2
HATCHBACKGROUNDCOLOR
 70
0
  0
ENDTAB
  0
TABLE
  2
DIMSTYLE
  5
4
330
0
100
AcDbSymbolTable
 70
1
100
AcDbDimStyleTable
  0
DIMSTYLE
105
2B
330
4
100
AcDbSymbolTableRecord
100
AcDbDimStyleTableRecord
  2
Standard
 70
0
 40
1.0
 41
2.5
 42
0.625
 43
3.75
 44
1.25
 45
0.0
 46
0.0
 47
0.0
 48
0.0
 49
2.5
140
2.5
141
2.5
142
0.0
143
0.03937007874
144
1.0
145
0.0
146
1.0
147
0.625
148
0.0
 69
0
 70
0
 71
0
 72
0
 73
0
 74
0
 75
0
 76
0
 77
1
 78
8
 79
0
170
0
171
3
172
1
173
0
174
0
175
0
176
0
177
0
178
0
179
0
271
0
272
2
273
2
274
3
275
0
276
0
277
2
278
44
279
0
280
0
281
0
282
0
283
0
284
8
285
0
286
0
288
0
289
3
290
0
371
-2
372
-2
  0
ENDTAB
  0
TABLE
  2
BLOCK_RECORD
  5
9
330
0
100
AcDbSymbolTable
 70
2
  0
BLOCK_RECORD
  5
17
330
9
100
AcDbSymbolTableRecord
100
AcDbBlockTableRecord
  2
*Model_Space
340
1A
 70
0
280
1
281
0
  0
BLOCK_RECORD
  5
1B
330
9
100
AcDbSymbolTableRecord
100
AcDbBlockTableRecord
  2
*Paper_Space
340
1E
 70
0
280
1
281
0
  0
ENDTAB
  0
ENDSEC
  0
SECTION
  2
BLOCKS
  0
BLOCK
  5
18
330
17
100
AcDbEntity
  8
0
100
AcDbBlockBegin
  2
*Model_Space
 70
0
 10
0.0
 20
0.0
 30
0.0
  3
*Model_Space
  1

  0
ENDBLK
  5
19
330
17
100
AcDbEntity
  8
0
100
AcDbBlockEnd
  0
BLOCK
  5
1C
330
1B
100
AcDbEntity
  8
0
100
AcDbBlockBegin
  2
*Paper_Space
 70
0
 10
0.0
 20
0.0
 30
0.0
  3
*Paper_Space
  1

  0
ENDBLK
  5
1D
330
1B
100
AcDbEntity
  8
0
100
AcDbBlockEnd
  0
ENDSEC
  0
SECTION
  2
ENTITIES
  0
LINE
  5
2E
330
17
100
AcDbEntity
  8
TOP
100
AcDbLine
 10
0.0
 20
7.457142857142857
 30
0.0
 11
3.525847162199201
 21
5.376257362656257
 31
0.0
  0
LINE
  5
2F
330
17
100
AcDbEntity
  8
TOP
100
AcDbLine
 10
4.829240899884214
 20
5.376257362656257
 30
0.0
 11
8.355088062083414
 21
7.457142857142857
 31
0.0
  0
LINE
  5
30
330
17
100
AcDbEntity
  8
TOP
100
AcDbLine
 10
8.355088062083414
 20
7.457142857142857
 30
0.0
 11
11.880935224282615
 21
5.376257362656257
 31
0.0
  0
LINE
  5
31
330
17
100
AcDbEntity
  8
TOP
100
AcDbLine
 10
13.184328961967628
 20
5.376257362656257
 30
0.0
 11
16.71017612416683
 21
7.457142857142857
 31
0.0
  0
LINE
  5
32
330
17
100
AcDbEntity
  8
TOP
100
AcDbLine
 10
16.71017612416683
 20
7.457142857142857
 30
0.0
 11
20.236023286366027
 21
5.376257362656257
 31
0.0
  0
LINE
  5
33
330
17
100
AcDbEntity
  8
TOP
100
AcDbLine
 10
21.53941702405104
 20
5.376257362656257
 30
0.0
 11
25.065264186250243
 21
7.457142857142857
 31
0.0
  0
LINE
  5
34
330
17
100
AcDbEntity
  8
TOP
100
AcDbLine
 10
25.065264186250243
 20
7.457142857142857
 30
0.0
 11
28.591111348449445
 21
5.376257362656257
 31
0.0
  0
LINE
  5
35
330
17
100
AcDbEntity
  8
TOP
100
AcDbLine
 10
29.89450508613446
 20
5.376257362656257
 30
0.0
 11
33.42035224833366
 21
7.457142857142857
 31
0.0
  0
LINE
  5
36
330
17
100
AcDbEntity
  8
TOP
100
AcDbLine
 10
0.6516968688425063
 20
7.833400219799115
 30
0.0
 11
4.177544031041707
 21
9.914285714285715
 31
0.0
  0
LINE
  5
37
330
17
100
AcDbEntity
  8
TOP
100
AcDbLine
 10
4.177544031041707
 20
9.914285714285715
 30
0.0
 11
7.703391193240908
 21
7.833400219799115
 31
0.0
  0
LINE
  5
38
330
17
100
AcDbEntity
  8
TOP
100
AcDbLine
 10
9.006784930925921
 20
7.833400219799115
 30
0.0
 11
12.532632093125121
 21
9.914285714285715
 31
0.0
  0
LINE
  5
39
330
17
100
AcDbEntity
  8
TOP
100
AcDbLine
 10
12.532632093125121
 20
9.914285714285715
 30
0.0
 11
16.058479255324322
 21
7.833400219799115
 31
0.0
  0
LINE
  5
3A
330
17
100
AcDbEntity
  8
TOP
100
AcDbLine
 10
17.361872993009335
 20
7.833400219799115
 30
0.0
 11
20.887720155208534
 21
9.914285714285715
 31
0.0
  0
LINE
  5
3B
330
17
100
AcDbEntity
  8
TOP
100
AcDbLine
 10
20.887720155208534
 20
9.914285714285715
 30
0.0
 11
24.413567317407736
 21
7.833400219799115
 31
0.0
  0
LINE
  5
3C
330
17
100
AcDbEntity
  8
TOP
100
AcDbLine
 10
25.71696105509275
 20
7.833400219799115
 30
0.0
 11
29.24280821729195
 21
9.914285714285715
 31
0.0
  0
LINE
  5
3D
330
17
100
AcDbEntity
  8
TOP
100
AcDbLine
 10
29.24280821729195
 20
9.914285714285715
 30
0.0
 11
32.76865537949115
 21
7.833400219799115
 31
0.0
  0
LINE
  5
3E
330
17
100
AcDbEntity
  8
TOP
100
AcDbLine
 10
0.0
 20
12.371428571428572
 30
0.0
 11
3.525847162199201
 21
10.290543076941972
 31
0.0
  0
LINE
  5
3F
330
17
100
AcDbEntity
  8
TOP
100
AcDbLine
 10
4.829240899884214
 20
10.290543076941972
 30
0.0
 11
8.355088062083414
 21
12.371428571428572
 31
0.0
  0
LINE
  5
40
330
17
100
AcDbEntity
  8
TOP
100
AcDbLine
 10
8.355088062083414
 20
12.371428571428572
 30
0.0
 11
11.880935224282615
 21
10.290543076941972
 31
0.0
  0
LINE
  5
41
330
17
100
AcDbEntity
  8
TOP
100
AcDbLine
 10
13.184328961967628
 20
10.290543076941972
 30
0.0
 11
16.71017612416683
 21
12.371428571428572
 31
0.0
  0
LINE
  5
42
330
17
100
AcDbEntity
  8
TOP
100
AcDbLine
 10
16.71017612416683
 20
12.371428571428572
 30
0.0
 11
20.236023286366027
 21
10.290543076941972
 31
0.0
  0
LINE
  5
43
330
17
100
AcDbEntity
  8
TOP
100
AcDbLine
 10
21.53941702405104
 20
10.290543076941972
 30
0.0
 11
25.065264186250243
 21
12.371428571428572
 31
0.0
  0
LINE
  5
44
330
17
100
AcDbEntity
  8
TOP
100
AcDbLine
 10
25.065264186250243
 20
12.371428571428572
 30
0.0
 11
28.591111348449445
 21
10.290543076941972
 31
0.0
  0
LINE
  5
45
330
17
100
AcDbEntity
  8
TOP
100
AcDbLine
 10
29.89450508613446
 20
10.290543076941972
 30
0.0
 11
33.42035224833366
 21
12.371428571428572
 31
0.0
  0
LINE
  5
46
330
17
100
AcDbEntity
  8
TOP
100
AcDbLine
 10
0.6516968688425063
 20
12.747685934084828
 30
0.0
 11
4.177544031041707
 21
14.82857142857143
 31
0.0
  0
LINE
  5
47
330
17
100
AcDbEntity
  8
TOP
100
AcDbLine
 10
4.177544031041707
 20
14.82857142857143
 30
0.0
 11
7.703391193240908
 21
12.747685934084828
 31
0.0
  0
LINE
  5
48
330
17
100
AcDbEntity
  8
TOP
100
AcDbLine
 10
9.006784930925921
 20
12.747685934084828
 30
0.0
 11
12.532632093125121
 21
14.82857142857143
 31
0.0
  0
LINE
  5
49
330
17
100
AcDbEntity
  8
TOP
100
AcDbLine
 10
12.532632093125121
 20
14.82857142857143
 30
0.0
 11
16.058479255324322
 21
12.747685934084828
 31
0.0
  0
LINE
  5
4A
330
17
100
AcDbEntity
  8
TOP
100
AcDbLine
 10
17.361872993009335
 20
12.747685934084828
 30
0.0
 11
20.887720155208534
 21
14.82857142857143
 31
0.0
  0
LINE
  5
4B
330
17
100
AcDbEntity
  8
TOP
100
AcDbLine
 10
20.887720155208534
 20
14.82857142857143
 30
0.0
 11
24.413567317407736
 21
12.747685934084828
 31
0.0
  0
LINE
  5
4C
330
17
100
AcDbEntity
  8
TOP
100
AcDbLine
 10
25.71696105509275
 20
12.747685934084828
 30
0.0
 11
29.24280821729195
 21
14.82857142857143
 31
0.0
  0
LINE
  5
4D
330
17
100
AcDbEntity
  8
TOP
100
AcDbLine
 10
29.24280821729195
 20
14.82857142857143
 30
0.0
 11
32.76865537949115
 21
12.747685934084828
 31
0.0
  0
LINE
  5
4E
330
17
100
AcDbEntity
  8
TOP
100
AcDbLine
 10
0.0
 20
17.285714285714285
 30
0.0
 11
3.525847162199201
 21
15.204828791227687
 31
0.0
  0
LINE
  5
4F
330
17
100
AcDbEntity
  8
TOP
100
AcDbLine
 10
4.829240899884214
 20
15.204828791227687
 30
0.0
 11
8.355088062083414
 21
17.285714285714285
 31
0.0
  0
LINE
  5
50
330
17
100
AcDbEntity
  8
TOP
100
AcDbLine
 10
8.355088062083414
 20
17.285714285714285
 30
0.0
 11
11.880935224282615
 21
15.204828791227687
 31
0.0
  0
LINE
  5
51
330
17
100
AcDbEntity
  8
TOP
100
AcDbLine
 10
13.184328961967628
 20
15.204828791227687
 30
0.0
 11
16.71017612416683
 21
17.285714285714285
 31
0.0
  0
LINE
  5
52
330
17
100
AcDbEntity
  8
TOP
100
AcDbLine
 10
16.71017612416683
 20
17.285714285714285
 30
0.0
 11
20.236023286366027
 21
15.204828791227687
 31
0.0
  0
LINE
  5
53
330
17
100
AcDbEntity
  8
TOP
100
AcDbLine
 10
21.53941702405104
 20
15.204828791227687
 30
0.0
 11
25.065264186250243
 21
17.285714285714285
 31
0.0
  0
LINE
  5
54
330
17
100
AcDbEntity
  8
TOP
100
AcDbLine
 10
25.065264186250243
 20
17.285714285714285
 30
0.0
 11
28.591111348449445
 21
15.204828791227687
 31
0.0
  0
LINE
  5
55
330
17
100
AcDbEntity
  8
TOP
100
AcDbLine
 10
29.89450508613446
 20
15.204828791227687
 30
0.0
 11
33.42035224833366
 21
17.285714285714285
 31
0.0
  0
LINE
  5
56
330
17
100
AcDbEntity
  8
TOP
100
AcDbLine
 10
0.6516968688425063
 20
17.661971648370546
 30
0.0
 11
4.177544031041707
 21
19.742857142857144
 31
0.0
  0
LINE
  5
57
330
17
100
AcDbEntity
  8
TOP
100
AcDbLine
 10
4.177544031041707
 20
19.742857142857144
 30
0.0
 11
7.703391193240908
 21
17.661971648370546
 31
0.0
  0
LINE
  5
58
330
17
100
AcDbEntity
  8
TOP
100
AcDbLine
 10
9.006784930925921
 20
17.661971648370546
 30
0.0
 11
12.532632093125121
 21
19.742857142857144
 31
0.0
  0
LINE
  5
59
330
17
100
AcDbEntity
  8
TOP
100
AcDbLine
 10
12.532632093125121
 20
19.742857142857144
 30
0.0
 11
16.058479255324322
 21
17.661971648370546
 31
0.0
  0
LINE
  5
5A
330
17
100
AcDbEntity
  8
TOP
100
AcDbLine
 10
17.361872993009335
 20
17.661971648370546
 30
0.0
 11
20.887720155208534
 21
19.742857142857144
 31
0.0
  0
LINE
  5
5B
330
17
100
AcDbEntity
  8
TOP
100
AcDbLine
 10
20.887720155208534
 20
19.742857142857144
 30
0.0
 11
24.413567317407736
 21
17.661971648370546
 31
0.0
  0
LINE
  5
5C
330
17
100
AcDbEntity
  8
TOP
100
AcDbLine
 10
25.71696105509275
 20
17.661971648370546
 30
0.0
 11
29.24280821729195
 21
19.742857142857144
 31
0.0
  0
LINE
  5
5D
330
17
100
AcDbEntity
  8
TOP
100
AcDbLine
 10
29.24280821729195
 20
19.742857142857144
 30
0.0
 11
32.76865537949115
 21
17.661971648370546
 31
0.0
  0
LINE
  5
5E
330
17
100
AcDbEntity
  8
TOP
100
AcDbLine
 10
0.0
 20
22.200000000000003
 30
0.0
 11
3.525847162199201
 21
20.1191145055134
 31
0.0
  0
LINE
  5
5F
330
17
100
AcDbEntity
  8
TOP
100
AcDbLine
 10
4.829240899884214
 20
20.1191145055134
 30
0.0
 11
8.355088062083414
 21
22.200000000000003
 31
0.0
  0
LINE
  5
60
330
17
100
AcDbEntity
  8
TOP
100
AcDbLine
 10
8.355088062083414
 20
22.200000000000003
 30
0.0
 11
11.880935224282615
 21
20.1191145055134
 31
0.0
  0
LINE
  5
61
330
17
100
AcDbEntity
  8
TOP
100
AcDbLine
 10
13.184328961967628
 20
20.1191145055134
 30
0.0
 11
16.71017612416683
 21
22.200000000000003
 31
0.0
  0
LINE
  5
62
330
17
100
AcDbEntity
  8
TOP
100
AcDbLine
 10
16.71017612416683
 20
22.200000000000003
 30
0.0
 11
20.236023286366027
 21
20.1191145055134
 31
0.0
  0
LINE
  5
63
330
17
100
AcDbEntity
  8
TOP
100
AcDbLine
 10
21.53941702405104
 20
20.1191145055134
 30
0.0
 11
25.065264186250243
 21
22.200000000000003
 31
0.0
  0
LINE
  5
64
330
17
100
AcDbEntity
  8
TOP
100
AcDbLine
 10
25.065264186250243
 20
22.200000000000003
 30
0.0
 11
28.591111348449445
 21
20.1191145055134
 31
0.0
  0
LINE
  5
65
330
17
100
AcDbEntity
  8
TOP
100
AcDbLine
 10
29.89450508613446
 20
20.1191145055134
 30
0.0
 11
33.42035224833366
 21
22.200000000000003
 31
0.0
  0
LINE
  5
66
330
17
100
AcDbEntity
  8
TOP
100
AcDbLine
 10
0.6516968688425063
 20
22.57625736265626
 30
0.0
 11
4.177544031041707
 21
24.65714285714286
 31
0.0
  0
LINE
  5
67
330
17
100
AcDbEntity
  8
TOP
100
AcDbLine
 10
4.177544031041707
 20
24.65714285714286
 30
0.0
 11
7.703391193240908
 21
22.57625736265626
 31
0.0
  0
LINE
  5
68
330
17
100
AcDbEntity
  8
TOP
100
AcDbLine
 10
9.006784930925921
 20
22.57625736265626
 30
0.0
 11
12.532632093125121
 21
24.65714285714286
 31
0.0
  0
LINE
  5
69
330
17
100
AcDbEntity
  8
TOP
100
AcDbLine
 10
12.532632093125121
 20
24.65714285714286
 30
0.0
 11
16.058479255324322
 21
22.57625736265626
 31
0.0
  0
LINE
  5
6A
330
17
100
AcDbEntity
  8
TOP
100
AcDbLine
 10
17.361872993009335
 20
22.57625736265626
 30
0.0
 11
20.887720155208534
 21
24.65714285714286
 31
0.0
  0
LINE
  5
6B
330
17
100
AcDbEntity
  8
TOP
100
AcDbLine
 10
20.887720155208534
 20
24.65714285714286
 30
0.0
 11
24.413567317407736
 21
22.57625736265626
 31
0.0
  0
LINE
  5
6C
330
17
100
AcDbEntity
  8
TOP
100
AcDbLine
 10
25.71696105509275
 20
22.57625736265626
 30
0.0
 11
29.24280821729195
 21
24.65714285714286
 31
0.0
  0
LINE
  5
6D
330
17
100
AcDbEntity
  8
TOP
100
AcDbLine
 10
29.24280821729195
 20
24.65714285714286
 30
0.0
 11
32.76865537949115
 21
22.57625736265626
 31
0.0
  0
LINE
  5
6E
330
17
100
AcDbEntity
  8
TOP
100
AcDbLine
 10
0.0
 20
27.114285714285714
 30
0.0
 11
3.525847162199201
 21
25.033400219799116
 31
0.0
  0
LINE
  5
6F
330
17
100
AcDbEntity
  8
TOP
100
AcDbLine
 10
4.829240899884214
 20
25.033400219799116
 30
0.0
 11
8.355088062083414
 21
27.114285714285714
 31
0.0
  0
LINE
  5
70
330
17
100
AcDbEntity
  8
TOP
100
AcDbLine
 10
8.355088062083414
 20
27.114285714285714
 30
0.0
 11
11.880935224282615
 21
25.033400219799116
 31
0.0
  0
LINE
  5
71
330
17
100
AcDbEntity
  8
TOP
100
AcDbLine
 10
13.184328961967628
 20
25.033400219799116
 30
0.0
 11
16.71017612416683
 21
27.114285714285714
 31
0.0
  0
LINE
  5
72
330
17
100
AcDbEntity
  8
TOP
100
AcDbLine
 10
16.71017612416683
 20
27.114285714285714
 30
0.0
 11
20.236023286366027
 21
25.033400219799116
 31
0.0
  0
LINE
  5
73
330
17
100
AcDbEntity
  8
TOP
100
AcDbLine
 10
21.53941702405104
 20
25.033400219799116
 30
0.0
 11
25.065264186250243
 21
27.114285714285714
 31
0.0
  0
LINE
  5
74
330
17
100
AcDbEntity
  8
TOP
100
AcDbLine
 10
25.065264186250243
 20
27.114285714285714
 30
0.0
 11
28.591111348449445
 21
25.033400219799116
 31
0.0
  0
LINE
  5
75
330
17
100
AcDbEntity
  8
TOP
100
AcDbLine
 10
29.89450508613446
 20
25.033400219799116
 30
0.0
 11
33.42035224833366
 21
27.114285714285714
 31
0.0
  0
LINE
  5
76
330
17
100
AcDbEntity
  8
TOP
100
AcDbLine
 10
0.6516968688425063
 20
27.49054307694197
 30
0.0
 11
4.177544031041707
 21
29.571428571428573
 31
0.0
  0
LINE
  5
77
330
17
100
AcDbEntity
  8
TOP
100
AcDbLine
 10
4.177544031041707
 20
29.571428571428573
 30
0.0
 11
7.703391193240908
 21
27.49054307694197
 31
0.0
  0
LINE
  5
78
330
17
100
AcDbEntity
  8
TOP
100
AcDbLine
 10
9.006784930925921
 20
27.49054307694197
 30
0.0
 11
12.532632093125121
 21
29.571428571428573
 31
0.0
  0
LINE
  5
79
330
17
100
AcDbEntity
  8
TOP
100
AcDbLine
 10
12.532632093125121
 20
29.571428571428573
 30
0.0
 11
16.058479255324322
 21
27.49054307694197
 31
0.0
  0
LINE
  5
7A
330
17
100
AcDbEntity
  8
TOP
100
AcDbLine
 10
17.361872993009335
 20
27.49054307694197
 30
0.0
 11
20.887720155208534
 21
29.571428571428573
 31
0.0
  0
LINE
  5
7B
330
17
100
AcDbEntity
  8
TOP
100
AcDbLine
 10
20.887720155208534
 20
29.571428571428573
 30
0.0
 11
24.413567317407736
 21
27.49054307694197
 31
0.0
  0
LINE
  5
7C
330
17
100
AcDbEntity
  8
TOP
100
AcDbLine
 10
25.71696105509275
 20
27.49054307694197
 30
0.0
 11
29.24280821729195
 21
29.571428571428573
 31
0.0
  0
LINE
  5
7D
330
17
100
AcDbEntity
  8
TOP
100
AcDbLine
 10
29.24280821729195
 20
29.571428571428573
 30
0.0
 11
32.76865537949115
 21
27.49054307694197
 31
0.0
  0
LINE
  5
7E
330
17
100
AcDbEntity
  8
TOP
100
AcDbLine
 10
0.0
 20
32.02857142857143
 30
0.0
 11
3.525847162199201
 21
29.94768593408483
 31
0.0
  0
LINE
  5
7F
330
17
100
AcDbEntity
  8
TOP
100
AcDbLine
 10
4.829240899884214
 20
29.94768593408483
 30
0.0
 11
8.355088062083414
 21
32.02857142857143
 31
0.0
  0
LINE
  5
80
330
17
100
AcDbEntity
  8
TOP
100
AcDbLine
 10
8.355088062083414
 20
32.02857142857143
 30
0.0
 11
11.880935224282615
 21
29.94768593408483
 31
0.0
  0
LINE
  5
81
330
17
100
AcDbEntity
  8
TOP
100
AcDbLine
 10
13.184328961967628
 20
29.94768593408483
 30
0.0
 11
16.71017612416683
 21
32.02857142857143
 31
0.0
  0
LINE
  5
82
330
17
100
AcDbEntity
  8
TOP
100
AcDbLine
 10
16.71017612416683
 20
32.02857142857143
 30
0.0
 11
20.236023286366027
 21
29.94768593408483
 31
0.0
  0
LINE
  5
83
330
17
100
AcDbEntity
  8
TOP
100
AcDbLine
 10
21.53941702405104
 20
29.94768593408483
 30
0.0
 11
25.065264186250243
 21
32.02857142857143
 31
0.0
  0
LINE
  5
84
330
17
100
AcDbEntity
  8
TOP
100
AcDbLine
 10
25.065264186250243
 20
32.02857142857143
 30
0.0
 11
28.591111348449445
 21
29.94768593408483
 31
0.0
  0
LINE
  5
85
330
17
100
AcDbEntity
  8
TOP
100
AcDbLine
 10
29.89450508613446
 20
29.94768593408483
 30
0.0
 11
33.42035224833366
 21
32.02857142857143
 31
0.0
  0
LINE
  5
86
330
17
100
AcDbEntity
  8
TOP
100
AcDbLine
 10
0.6516968688425063
 20
32.404828791227686
 30
0.0
 11
4.177544031041707
 21
34.48571428571429
 31
0.0
  0
LINE
  5
87
330
17
100
AcDbEntity
  8
TOP
100
AcDbLine
 10
4.177544031041707
 20
34.48571428571429
 30
0.0
 11
7.703391193240908
 21
32.404828791227686
 31
0.0
  0
LINE
  5
88
330
17
100
AcDbEntity
  8
TOP
100
AcDbLine
 10
9.006784930925921
 20
32.404828791227686
 30
0.0
 11
12.532632093125121
 21
34.48571428571429
 31
0.0
  0
LINE
  5
89
330
17
100
AcDbEntity
  8
TOP
100
AcDbLine
 10
12.532632093125121
 20
34.48571428571429
 30
0.0
 11
16.058479255324322
 21
32.404828791227686
 31
0.0
  0
LINE
  5
8A
330
17
100
AcDbEntity
  8
TOP
100
AcDbLine
 10
17.361872993009335
 20
32.404828791227686
 30
0.0
 11
20.887720155208534
 21
34.48571428571429
 31
0.0
  0
LINE
  5
8B
330
17
100
AcDbEntity
  8
TOP
100
AcDbLine
 10
20.887720155208534
 20
34.48571428571429
 30
0.0
 11
24.413567317407736
 21
32.404828791227686
 31
0.0
  0
LINE
  5
8C
330
17
100
AcDbEntity
  8
TOP
100
AcDbLine
 10
25.71696105509275
 20
32.404828791227686
 30
0.0
 11
29.24280821729195
 21
34.48571428571429
 31
0.0
  0
LINE
  5
8D
330
17
100
AcDbEntity
  8
TOP
100
AcDbLine
 10
29.24280821729195
 20
34.48571428571429
 30
0.0
 11
32.76865537949115
 21
32.404828791227686
 31
0.0
  0
LINE
  5
8E
330
17
100
AcDbEntity
  8
TOP
100
AcDbLine
 10
0.0
 20
36.94285714285714
 30
0.0
 11
3.525847162199201
 21
34.86197164837054
 31
0.0
  0
LINE
  5
8F
330
17
100
AcDbEntity
  8
TOP
100
AcDbLine
 10
4.829240899884214
 20
34.86197164837054
 30
0.0
 11
8.355088062083414
 21
36.94285714285714
 31
0.0
  0
LINE
  5
90
330
17
100
AcDbEntity
  8
TOP
100
AcDbLine
 10
8.355088062083414
 20
36.94285714285714
 30
0.0
 11
11.880935224282615
 21
34.86197164837054
 31
0.0
  0
LINE
  5
91
330
17
100
AcDbEntity
  8
TOP
100
AcDbLine
 10
13.184328961967628
 20
34.86197164837054
 30
0.0
 11
16.71017612416683
 21
36.94285714285714
 31
0.0
  0
LINE
  5
92
330
17
100
AcDbEntity
  8
TOP
100
AcDbLine
 10
16.71017612416683
 20
36.94285714285714
 30
0.0
 11
20.236023286366027
 21
34.86197164837054
 31
0.0
  0
LINE
  5
93
330
17
100
AcDbEntity
  8
TOP
100
AcDbLine
 10
21.53941702405104
 20
34.86197164837054
 30
0.0
 11
25.065264186250243
 21
36.94285714285714
 31
0.0
  0
LINE
  5
94
330
17
100
AcDbEntity
  8
TOP
100
AcDbLine
 10
25.065264186250243
 20
36.94285714285714
 30
0.0
 11
28.591111348449445
 21
34.86197164837054
 31
0.0
  0
LINE
  5
95
330
17
100
AcDbEntity
  8
TOP
100
AcDbLine
 10
29.89450508613446
 20
34.86197164837054
 30
0.0
 11
33.42035224833366
 21
36.94285714285714
 31
0.0
  0
LINE
  5
96
330
17
100
AcDbEntity
  8
TOP
100
AcDbLine
 10
0.6516968688425063
 20
37.3191145055134
 30
0.0
 11
4.177544031041707
 21
39.400000000000006
 31
0.0
  0
LINE
  5
97
330
17
100
AcDbEntity
  8
TOP
100
AcDbLine
 10
4.177544031041707
 20
39.400000000000006
 30
0.0
 11
7.703391193240908
 21
37.3191145055134
 31
0.0
  0
LINE
  5
98
330
17
100
AcDbEntity
  8
TOP
100
AcDbLine
 10
9.006784930925921
 20
37.3191145055134
 30
0.0
 11
12.532632093125121
 21
39.400000000000006
 31
0.0
  0
LINE
  5
99
330
17
100
AcDbEntity
  8
TOP
100
AcDbLine
 10
12.532632093125121
 20
39.400000000000006
 30
0.0
 11
16.058479255324322
 21
37.3191145055134
 31
0.0
  0
LINE
  5
9A
330
17
100
AcDbEntity
  8
TOP
100
AcDbLine
 10
17.361872993009335
 20
37.3191145055134
 30
0.0
 11
20.887720155208534
 21
39.400000000000006
 31
0.0
  0
LINE
  5
9B
330
17
100
AcDbEntity
  8
TOP
100
AcDbLine
 10
20.887720155208534
 20
39.400000000000006
 30
0.0
 11
24.413567317407736
 21
37.3191145055134
 31
0.0
  0
LINE
  5
9C
330
17
100
AcDbEntity
  8
TOP
100
AcDbLine
 10
25.71696105509275
 20
37.3191145055134
 30
0.0
 11
29.24280821729195
 21
39.400000000000006
 31
0.0
  0
LINE
  5
9D
330
17
100
AcDbEntity
  8
TOP
100
AcDbLine
 10
29.24280821729195
 20
39.400000000000006
 30
0.0
 11
32.76865537949115
 21
37.3191145055134
 31
0.0
  0
LINE
  5
9E
330
17
100
AcDbEntity
  8
TOP
100
AcDbLine
 10
0.0
 20
41.85714285714286
 30
0.0
 11
3.525847162199201
 21
39.77625736265626
 31
0.0
  0
LINE
  5
9F
330
17
100
AcDbEntity
  8
TOP
100
AcDbLine
 10
4.829240899884214
 20
39.77625736265626
 30
0.0
 11
8.355088062083414
 21
41.85714285714286
 31
0.0
  0
LINE
  5
A0
330
17
100
AcDbEntity
  8
TOP
100
AcDbLine
 10
8.355088062083414
 20
41.85714285714286
 30
0.0
 11
11.880935224282615
 21
39.77625736265626
 31
0.0
  0
LINE
  5
A1
330
17
100
AcDbEntity
  8
TOP
100
AcDbLine
 10
13.184328961967628
 20
39.77625736265626
 30
0.0
 11
16.71017612416683
 21
41.85714285714286
 31
0.0
  0
LINE
  5
A2
330
17
100
AcDbEntity
  8
TOP
100
AcDbLine
 10
16.71017612416683
 20
41.85714285714286
 30
0.0
 11
20.236023286366027
 21
39.77625736265626
 31
0.0
  0
LINE
  5
A3
330
17
100
AcDbEntity
  8
TOP
100
AcDbLine
 10
21.53941702405104
 20
39.77625736265626
 30
0.0
 11
25.065264186250243
 21
41.85714285714286
 31
0.0
  0
LINE
  5
A4
330
17
100
AcDbEntity
  8
TOP
100
AcDbLine
 10
25.065264186250243
 20
41.85714285714286
 30
0.0
 11
28.591111348449445
 21
39.77625736265626
 31
0.0
  0
LINE
  5
A5
330
17
100
AcDbEntity
  8
TOP
100
AcDbLine
 10
29.89450508613446
 20
39.77625736265626
 30
0.0
 11
33.42035224833366
 21
41.85714285714286
 31
0.0
  0
LINE
  5
A6
330
17
100
AcDbEntity
  8
TOP
100
AcDbLine
 10
0.6516968688425063
 20
42.233400219799115
 30
0.0
 11
4.177544031041707
 21
44.31428571428572
 31
0.0
  0
LINE
  5
A7
330
17
100
AcDbEntity
  8
TOP
100
AcDbLine
 10
4.177544031041707
 20
44.31428571428572
 30
0.0
 11
7.703391193240908
 21
42.233400219799115
 31
0.0
  0
LINE
  5
A8
330
17
100
AcDbEntity
  8
TOP
100
AcDbLine
 10
9.006784930925921
 20
42.233400219799115
 30
0.0
 11
12.532632093125121
 21
44.31428571428572
 31
0.0
  0
LINE
  5
A9
330
17
100
AcDbEntity
  8
TOP
100
AcDbLine
 10
12.532632093125121
 20
44.31428571428572
 30
0.0
 11
16.058479255324322
 21
42.233400219799115
 31
0.0
  0
LINE
  5
AA
330
17
100
AcDbEntity
  8
TOP
100
AcDbLine
 10
17.361872993009335
 20
42.233400219799115
 30
0.0
 11
20.887720155208534
 21
44.31428571428572
 31
0.0
  0
LINE
  5
AB
330
17
100
AcDbEntity
  8
TOP
100
AcDbLine
 10
20.887720155208534
 20
44.31428571428572
 30
0.0
 11
24.413567317407736
 21
42.233400219799115
 31
0.0
  0
LINE
  5
AC
330
17
100
AcDbEntity
  8
TOP
100
AcDbLine
 10
25.71696105509275
 20
42.233400219799115
 30
0.0
 11
29.24280821729195
 21
44.31428571428572
 31
0.0
  0
LINE
  5
AD
330
17
100
AcDbEntity
  8
TOP
100
AcDbLine
 10
29.24280821729195
 20
44.31428571428572
 30
0.0
 11
32.76865537949115
 21
42.233400219799115
 31
0.0
  0
LINE
  5
AE
330
17
100
AcDbEntity
  8
TOP
100
AcDbLine
 10
0.0
 20
46.77142857142857
 30
0.0
 11
3.525847162199201
 21
44.69054307694197
 31
0.0
  0
LINE
  5
AF
330
17
100
AcDbEntity
  8
TOP
100
AcDbLine
 10
4.829240899884214
 20
44.69054307694197
 30
0.0
 11
8.355088062083414
 21
46.77142857142857
 31
0.0
  0
LINE
  5
B0
330
17
100
AcDbEntity
  8
TOP
100
AcDbLine
 10
8.355088062083414
 20
46.77142857142857
 30
0.0
 11
11.880935224282615
 21
44.69054307694197
 31
0.0
  0
LINE
  5
B1
330
17
100
AcDbEntity
  8
TOP
100
AcDbLine
 10
13.184328961967628
 20
44.69054307694197
 30
0.0
 11
16.71017612416683
 21
46.77142857142857
 31
0.0
  0
LINE
  5
B2
330
17
100
AcDbEntity
  8
TOP
100
AcDbLine
 10
16.71017612416683
 20
46.77142857142857
 30
0.0
 11
20.236023286366027
 21
44.69054307694197
 31
0.0
  0
LINE
  5
B3
330
17
100
AcDbEntity
  8
TOP
100
AcDbLine
 10
21.53941702405104
 20
44.69054307694197
 30
0.0
 11
25.065264186250243
 21
46.77142857142857
 31
0.0
  0
LINE
  5
B4
330
17
100
AcDbEntity
  8
TOP
100
AcDbLine
 10
25.065264186250243
 20
46.77142857142857
 30
0.0
 11
28.591111348449445
 21
44.69054307694197
 31
0.0
  0
LINE
  5
B5
330
17
100
AcDbEntity
  8
TOP
100
AcDbLine
 10
29.89450508613446
 20
44.69054307694197
 30
0.0
 11
33.42035224833366
 21
46.77142857142857
 31
0.0
  0
LINE
  5
B6
330
17
100
AcDbEntity
  8
TOP
100
AcDbLine
 10
0.6516968688425063
 20
47.147685934084826
 30
0.0
 11
4.177544031041707
 21
49.22857142857143
 31
0.0
  0
LINE
  5
B7
330
17
100
AcDbEntity
  8
TOP
100
AcDbLine
 10
4.177544031041707
 20
49.22857142857143
 30
0.0
 11
7.703391193240908
 21
47.147685934084826
 31
0.0
  0
LINE
  5
B8
330
17
100
AcDbEntity
  8
TOP
100
AcDbLine
 10
9.006784930925921
 20
47.147685934084826
 30
0.0
 11
12.532632093125121
 21
49.22857142857143
 31
0.0
  0
LINE
  5
B9
330
17
100
AcDbEntity
  8
TOP
100
AcDbLine
 10
12.532632093125121
 20
49.22857142857143
 30
0.0
 11
16.058479255324322
 21
47.147685934084826
 31
0.0
  0
LINE
  5
BA
330
17
100
AcDbEntity
  8
TOP
100
AcDbLine
 10
17.361872993009335
 20
47.147685934084826
 30
0.0
 11
20.887720155208534
 21
49.22857142857143
 31
0.0
  0
LINE
  5
BB
330
17
100
AcDbEntity
  8
TOP
100
AcDbLine
 10
20.887720155208534
 20
49.22857142857143
 30
0.0
 11
24.413567317407736
 21
47.147685934084826
 31
0.0
  0
LINE
  5
BC
330
17
100
AcDbEntity
  8
TOP
100
AcDbLine
 10
25.71696105509275
 20
47.147685934084826
 30
0.0
 11
29.24280821729195
 21
49.22857142857143
 31
0.0
  0
LINE
  5
BD
330
17
100
AcDbEntity
  8
TOP
100
AcDbLine
 10
29.24280821729195
 20
49.22857142857143
 30
0.0
 11
32.76865537949115
 21
47.147685934084826
 31
0.0
  0
LINE
  5
BE
330
17
100
AcDbEntity
  8
TOP
100
AcDbLine
 10
0.0
 20
51.68571428571429
 30
0.0
 11
3.525847162199201
 21
49.60482879122768
 31
0.0
  0
LINE
  5
BF
330
17
100
AcDbEntity
  8
TOP
100
AcDbLine
 10
4.829240899884214
 20
49.60482879122768
 30
0.0
 11
8.355088062083414
 21
51.68571428571429
 31
0.0
  0
LINE
  5
C0
330
17
100
AcDbEntity
  8
TOP
100
AcDbLine
 10
8.355088062083414
 20
51.68571428571429
 30
0.0
 11
11.880935224282615
 21
49.60482879122768
 31
0.0
  0
LINE
  5
C1
330
17
100
AcDbEntity
  8
TOP
100
AcDbLine
 10
13.184328961967628
 20
49.60482879122768
 30
0.0
 11
16.71017612416683
 21
51.68571428571429
 31
0.0
  0
LINE
  5
C2
330
17
100
AcDbEntity
  8
TOP
100
AcDbLine
 10
16.71017612416683
 20
51.68571428571429
 30
0.0
 11
20.236023286366027
 21
49.60482879122768
 31
0.0
  0
LINE
  5
C3
330
17
100
AcDbEntity
  8
TOP
100
AcDbLine
 10
21.53941702405104
 20
49.60482879122768
 30
0.0
 11
25.065264186250243
 21
51.68571428571429
 31
0.0
  0
LINE
  5
C4
330
17
100
AcDbEntity
  8
TOP
100
AcDbLine
 10
25.065264186250243
 20
51.68571428571429
 30
0.0
 11
28.591111348449445
 21
49.60482879122768
 31
0.0
  0
LINE
  5
C5
330
17
100
AcDbEntity
  8
TOP
100
AcDbLine
 10
29.89450508613446
 20
49.60482879122768
 30
0.0
 11
33.42035224833366
 21
51.68571428571429
 31
0.0
  0
LINE
  5
C6
330
17
100
AcDbEntity
  8
TOP
100
AcDbLine
 10
0.6516968688425063
 20
52.061971648370545
 30
0.0
 11
4.177544031041707
 21
54.142857142857146
 31
0.0
  0
LINE
  5
C7
330
17
100
AcDbEntity
  8
TOP
100
AcDbLine
 10
4.177544031041707
 20
54.142857142857146
 30
0.0
 11
7.703391193240908
 21
52.061971648370545
 31
0.0
  0
LINE
  5
C8
330
17
100
AcDbEntity
  8
TOP
100
AcDbLine
 10
9.006784930925921
 20
52.061971648370545
 30
0.0
 11
12.532632093125121
 21
54.142857142857146
 31
0.0
  0
LINE
  5
C9
330
17
100
AcDbEntity
  8
TOP
100
AcDbLine
 10
12.532632093125121
 20
54.142857142857146
 30
0.0
 11
16.058479255324322
 21
52.061971648370545
 31
0.0
  0
LINE
  5
CA
330
17
100
AcDbEntity
  8
TOP
100
AcDbLine
 10
17.361872993009335
 20
52.061971648370545
 30
0.0
 11
20.887720155208534
 21
54.142857142857146
 31
0.0
  0
LINE
  5
CB
330
17
100
AcDbEntity
  8
TOP
100
AcDbLine
 10
20.887720155208534
 20
54.142857142857146
 30
0.0
 11
24.413567317407736
 21
52.061971648370545
 31
0.0
  0
LINE
  5
CC
330
17
100
AcDbEntity
  8
TOP
100
AcDbLine
 10
25.71696105509275
 20
52.061971648370545
 30
0.0
 11
29.24280821729195
 21
54.142857142857146
 31
0.0
  0
LINE
  5
CD
330
17
100
AcDbEntity
  8
TOP
100
AcDbLine
 10
29.24280821729195
 20
54.142857142857146
 30
0.0
 11
32.76865537949115
 21
52.061971648370545
 31
0.0
  0
LINE
  5
CE
330
17
100
AcDbEntity
  8
TOP
100
AcDbLine
 10
0.0
 20
56.6
 30
0.0
 11
3.525847162199201
 21
54.5191145055134
 31
0.0
  0
LINE
  5
CF
330
17
100
AcDbEntity
  8
TOP
100
AcDbLine
 10
4.829240899884214
 20
54.5191145055134
 30
0.0
 11
8.355088062083414
 21
56.6
 31
0.0
  0
LINE
  5
D0
330
17
100
AcDbEntity
  8
TOP
100
AcDbLine
 10
8.355088062083414
 20
56.6
 30
0.0
 11
11.880935224282615
 21
54.5191145055134
 31
0.0
  0
LINE
  5
D1
330
17
100
AcDbEntity
  8
TOP
100
AcDbLine
 10
13.184328961967628
 20
54.5191145055134
 30
0.0
 11
16.71017612416683
 21
56.6
 31
0.0
  0
LINE
  5
D2
330
17
100
AcDbEntity
  8
TOP
100
AcDbLine
 10
16.71017612416683
 20
56.6
 30
0.0
 11
20.236023286366027
 21
54.5191145055134
 31
0.0
  0
LINE
  5
D3
330
17
100
AcDbEntity
  8
TOP
100
AcDbLine
 10
21.53941702405104
 20
54.5191145055134
 30
0.0
 11
25.065264186250243
 21
56.6
 31
0.0
  0
LINE
  5
D4
330
17
100
AcDbEntity
  8
TOP
100
AcDbLine
 10
25.065264186250243
 20
56.6
 30
0.0
 11
28.591111348449445
 21
54.5191145055134
 31
0.0
  0
LINE
  5
D5
330
17
100
AcDbEntity
  8
TOP
100
AcDbLine
 10
29.89450508613446
 20
54.5191145055134
 30
0.0
 11
33.42035224833366
 21
56.6
 31
0.0
  0
LINE
  5
D6
330
17
100
AcDbEntity
  8
TOP
100
AcDbLine
 10
0.6516968688425063
 20
56.976257362656256
 30
0.0
 11
4.177544031041707
 21
59.057142857142864
 31
0.0
  0
LINE
  5
D7
330
17
100
AcDbEntity
  8
TOP
100
AcDbLine
 10
4.177544031041707
 20
59.057142857142864
 30
0.0
 11
7.703391193240908
 21
56.976257362656256
 31
0.0
  0
LINE
  5
D8
330
17
100
AcDbEntity
  8
TOP
100
AcDbLine
 10
9.006784930925921
 20
56.976257362656256
 30
0.0
 11
12.532632093125121
 21
59.057142857142864
 31
0.0
  0
LINE
  5
D9
330
17
100
AcDbEntity
  8
TOP
100
AcDbLine
 10
12.532632093125121
 20
59.057142857142864
 30
0.0
 11
16.058479255324322
 21
56.976257362656256
 31
0.0
  0
LINE
  5
DA
330
17
100
AcDbEntity
  8
TOP
100
AcDbLine
 10
17.361872993009335
 20
56.976257362656256
 30
0.0
 11
20.887720155208534
 21
59.057142857142864
 31
0.0
  0
LINE
  5
DB
330
17
100
AcDbEntity
  8
TOP
100
AcDbLine
 10
20.887720155208534
 20
59.057142857142864
 30
0.0
 11
24.413567317407736
 21
56.976257362656256
 31
0.0
  0
LINE
  5
DC
330
17
100
AcDbEntity
  8
TOP
100
AcDbLine
 10
25.71696105509275
 20
56.976257362656256
 30
0.0
 11
29.24280821729195
 21
59.057142857142864
 31
0.0
  0
LINE
  5
DD
330
17
100
AcDbEntity
  8
TOP
100
AcDbLine
 10
29.24280821729195
 20
59.057142857142864
 30
0.0
 11
32.76865537949115
 21
56.976257362656256
 31
0.0
  0
LINE
  5
DE
330
17
100
AcDbEntity
  8
TOP
100
AcDbLine
 10
0.0
 20
61.51428571428572
 30
0.0
 11
3.525847162199201
 21
59.43340021979912
 31
0.0
  0
LINE
  5
DF
330
17
100
AcDbEntity
  8
TOP
100
AcDbLine
 10
4.829240899884214
 20
59.43340021979912
 30
0.0
 11
8.355088062083414
 21
61.51428571428572
 31
0.0
  0
LINE
  5
E0
330
17
100
AcDbEntity
  8
TOP
100
AcDbLine
 10
8.355088062083414
 20
61.51428571428572
 30
0.0
 11
11.880935224282615
 21
59.43340021979912
 31
0.0
  0
LINE
  5
E1
330
17
100
AcDbEntity
  8
TOP
100
AcDbLine
 10
13.184328961967628
 20
59.43340021979912
 30
0.0
 11
16.71017612416683
 21
61.51428571428572
 31
0.0
  0
LINE
  5
E2
330
17
100
AcDbEntity
  8
TOP
100
AcDbLine
 10
16.71017612416683
 20
61.51428571428572
 30
0.0
 11
20.236023286366027
 21
59.43340021979912
 31
0.0
  0
LINE
  5
E3
330
17
100
AcDbEntity
  8
TOP
100
AcDbLine
 10
21.53941702405104
 20
59.43340021979912
 30
0.0
 11
25.065264186250243
 21
61.51428571428572
 31
0.0
  0
LINE
  5
E4
330
17
100
AcDbEntity
  8
TOP
100
AcDbLine
 10
25.065264186250243
 20
61.51428571428572
 30
0.0
 11
28.591111348449445
 21
59.43340021979912
 31
0.0
  0
LINE
  5
E5
330
17
100
AcDbEntity
  8
TOP
100
AcDbLine
 10
29.89450508613446
 20
59.43340021979912
 30
0.0
 11
33.42035224833366
 21
61.51428571428572
 31
0.0
  0
LINE
  5
E6
330
17
100
AcDbEntity
  8
TOP
100
AcDbLine
 10
0.6516968688425063
 20
61.890543076941974
 30
0.0
 11
4.177544031041707
 21
63.971428571428575
 31
0.0
  0
LINE
  5
E7
330
17
100
AcDbEntity
  8
TOP
100
AcDbLine
 10
4.177544031041707
 20
63.971428571428575
 30
0.0
 11
7.703391193240908
 21
61.890543076941974
 31
0.0
  0
LINE
  5
E8
330
17
100
AcDbEntity
  8
TOP
100
AcDbLine
 10
9.006784930925921
 20
61.890543076941974
 30
0.0
 11
12.532632093125121
 21
63.971428571428575
 31
0.0
  0
LINE
  5
E9
330
17
100
AcDbEntity
  8
TOP
100
AcDbLine
 10
12.532632093125121
 20
63.971428571428575
 30
0.0
 11
16.058479255324322
 21
61.890543076941974
 31
0.0
  0
LINE
  5
EA
330
17
100
AcDbEntity
  8
TOP
100
AcDbLine
 10
17.361872993009335
 20
61.890543076941974
 30
0.0
 11
20.887720155208534
 21
63.971428571428575
 31
0.0
  0
LINE
  5
EB
330
17
100
AcDbEntity
  8
TOP
100
AcDbLine
 10
20.887720155208534
 20
63.971428571428575
 30
0.0
 11
24.413567317407736
 21
61.890543076941974
 31
0.0
  0
LINE
  5
EC
330
17
100
AcDbEntity
  8
TOP
100
AcDbLine
 10
25.71696105509275
 20
61.890543076941974
 30
0.0
 11
29.24280821729195
 21
63.971428571428575
 31
0.0
  0
LINE
  5
ED
330
17
100
AcDbEntity
  8
TOP
100
AcDbLine
 10
29.24280821729195
 20
63.971428571428575
 30
0.0
 11
32.76865537949115
 21
61.890543076941974
 31
0.0
  0
LINE
  5
EE
330
17
100
AcDbEntity
  8
TOP
100
AcDbLine
 10
0.0
 20
66.42857142857143
 30
0.0
 11
3.525847162199201
 21
64.34768593408484
 31
0.0
  0
LINE
  5
EF
330
17
100
AcDbEntity
  8
TOP
100
AcDbLine
 10
4.829240899884214
 20
64.34768593408484
 30
0.0
 11
8.355088062083414
 21
66.42857142857143
 31
0.0
  0
LINE
  5
F0
330
17
100
AcDbEntity
  8
TOP
100
AcDbLine
 10
8.355088062083414
 20
66.42857142857143
 30
0.0
 11
11.880935224282615
 21
64.34768593408484
 31
0.0
  0
LINE
  5
F1
330
17
100
AcDbEntity
  8
TOP
100
AcDbLine
 10
13.184328961967628
 20
64.34768593408484
 30
0.0
 11
16.71017612416683
 21
66.42857142857143
 31
0.0
  0
LINE
  5
F2
330
17
100
AcDbEntity
  8
TOP
100
AcDbLine
 10
16.71017612416683
 20
66.42857142857143
 30
0.0
 11
20.236023286366027
 21
64.34768593408484
 31
0.0
  0
LINE
  5
F3
330
17
100
AcDbEntity
  8
TOP
100
AcDbLine
 10
21.53941702405104
 20
64.34768593408484
 30
0.0
 11
25.065264186250243
 21
66.42857142857143
 31
0.0
  0
LINE
  5
F4
330
17
100
AcDbEntity
  8
TOP
100
AcDbLine
 10
25.065264186250243
 20
66.42857142857143
 30
0.0
 11
28.591111348449445
 21
64.34768593408484
 31
0.0
  0
LINE
  5
F5
330
17
100
AcDbEntity
  8
TOP
100
AcDbLine
 10
29.89450508613446
 20
64.34768593408484
 30
0.0
 11
33.42035224833366
 21
66.42857142857143
 31
0.0
  0
LINE
  5
F6
330
17
100
AcDbEntity
  8
TOP
100
AcDbLine
 10
0.6516968688425063
 20
66.80482879122769
 30
0.0
 11
4.177544031041707
 21
68.88571428571429
 31
0.0
  0
LINE
  5
F7
330
17
100
AcDbEntity
  8
TOP
100
AcDbLine
 10
4.177544031041707
 20
68.88571428571429
 30
0.0
 11
7.703391193240908
 21
66.80482879122769
 31
0.0
  0
LINE
  5
F8
330
17
100
AcDbEntity
  8
TOP
100
AcDbLine
 10
9.006784930925921
 20
66.80482879122769
 30
0.0
 11
12.532632093125121
 21
68.88571428571429
 31
0.0
  0
LINE
  5
F9
330
17
100
AcDbEntity
  8
TOP
100
AcDbLine
 10
12.532632093125121
 20
68.88571428571429
 30
0.0
 11
16.058479255324322
 21
66.80482879122769
 31
0.0
  0
LINE
  5
FA
330
17
100
AcDbEntity
  8
TOP
100
AcDbLine
 10
17.361872993009335
 20
66.80482879122769
 30
0.0
 11
20.887720155208534
 21
68.88571428571429
 31
0.0
  0
LINE
  5
FB
330
17
100
AcDbEntity
  8
TOP
100
AcDbLine
 10
20.887720155208534
 20
68.88571428571429
 30
0.0
 11
24.413567317407736
 21
66.80482879122769
 31
0.0
  0
LINE
  5
FC
330
17
100
AcDbEntity
  8
TOP
100
AcDbLine
 10
25.71696105509275
 20
66.80482879122769
 30
0.0
 11
29.24280821729195
 21
68.88571428571429
 31
0.0
  0
LINE
  5
FD
330
17
100
AcDbEntity
  8
TOP
100
AcDbLine
 10
29.24280821729195
 20
68.88571428571429
 30
0.0
 11
32.76865537949115
 21
66.80482879122769
 31
0.0
  0
LINE
  5
FE
330
17
100
AcDbEntity
  8
TOP
100
AcDbLine
 10
0.0
 20
71.34285714285714
 30
0.0
 11
3.525847162199201
 21
69.26197164837055
 31
0.0
  0
LINE
  5
FF
330
17
100
AcDbEntity
  8
TOP
100
AcDbLine
 10
4.829240899884214
 20
69.26197164837055
 30
0.0
 11
8.355088062083414
 21
71.34285714285714
 31
0.0
  0
LINE
  5
100
330
17
100
AcDbEntity
  8
TOP
100
AcDbLine
 10
8.355088062083414
 20
71.34285714285714
 30
0.0
 11
11.880935224282615
 21
69.26197164837055
 31
0.0
  0
LINE
  5
101
330
17
100
AcDbEntity
  8
TOP
100
AcDbLine
 10
13.184328961967628
 20
69.26197164837055
 30
0.0
 11
16.71017612416683
 21
71.34285714285714
 31
0.0
  0
LINE
  5
102
330
17
100
AcDbEntity
  8
TOP
100
AcDbLine
 10
16.71017612416683
 20
71.34285714285714
 30
0.0
 11
20.236023286366027
 21
69.26197164837055
 31
0.0
  0
LINE
  5
103
330
17
100
AcDbEntity
  8
TOP
100
AcDbLine
 10
21.53941702405104
 20
69.26197164837055
 30
0.0
 11
25.065264186250243
 21
71.34285714285714
 31
0.0
  0
LINE
  5
104
330
17
100
AcDbEntity
  8
TOP
100
AcDbLine
 10
25.065264186250243
 20
71.34285714285714
 30
0.0
 11
28.591111348449445
 21
69.26197164837055
 31
0.0
  0
LINE
  5
105
330
17
100
AcDbEntity
  8
TOP
100
AcDbLine
 10
29.89450508613446
 20
69.26197164837055
 30
0.0
 11
33.42035224833366
 21
71.34285714285714
 31
0.0
  0
LINE
  5
106
330
17
100
AcDbEntity
  8
TOP
100
AcDbLine
 10
0.6516968688425063
 20
71.7191145055134
 30
0.0
 11
4.177544031041707
 21
73.80000000000001
 31
0.0
  0
LINE
  5
107
330
17
100
AcDbEntity
  8
TOP
100
AcDbLine
 10
4.177544031041707
 20
73.80000000000001
 30
0.0
 11
7.703391193240908
 21
71.7191145055134
 31
0.0
  0
LINE
  5
108
330
17
100
AcDbEntity
  8
TOP
100
AcDbLine
 10
9.006784930925921
 20
71.7191145055134
 30
0.0
 11
12.532632093125121
 21
73.80000000000001
 31
0.0
  0
LINE
  5
109
330
17
100
AcDbEntity
  8
TOP
100
AcDbLine
 10
12.532632093125121
 20
73.80000000000001
 30
0.0
 11
16.058479255324322
 21
71.7191145055134
 31
0.0
  0
LINE
  5
10A
330
17
100
AcDbEntity
  8
TOP
100
AcDbLine
 10
17.361872993009335
 20
71.7191145055134
 30
0.0
 11
20.887720155208534
 21
73.80000000000001
 31
0.0
  0
LINE
  5
10B
330
17
100
AcDbEntity
  8
TOP
100
AcDbLine
 10
20.887720155208534
 20
73.80000000000001
 30
0.0
 11
24.413567317407736
 21
71.7191145055134
 31
0.0
  0
LINE
  5
10C
330
17
100
AcDbEntity
  8
TOP
100
AcDbLine
 10
25.71696105509275
 20
71.7191145055134
 30
0.0
 11
29.24280821729195
 21
73.80000000000001
 31
0.0
  0
LINE
  5
10D
330
17
100
AcDbEntity
  8
TOP
100
AcDbLine
 10
29.24280821729195
 20
73.80000000000001
 30
0.0
 11
32.76865537949115
 21
71.7191145055134
 31
0.0
  0
LINE
  5
10E
330
17
100
AcDbEntity
  8
TOP
100
AcDbLine
 10
0.0
 20
76.25714285714287
 30
0.0
 11
3.525847162199201
 21
74.17625736265627
 31
0.0
  0
LINE
  5
10F
330
17
100
AcDbEntity
  8
TOP
100
AcDbLine
 10
4.829240899884214
 20
74.17625736265627
 30
0.0
 11
8.355088062083414
 21
76.25714285714287
 31
0.0
  0
LINE
  5
110
330
17
100
AcDbEntity
  8
TOP
100
AcDbLine
 10
8.355088062083414
 20
76.25714285714287
 30
0.0
 11
11.880935224282615
 21
74.17625736265627
 31
0.0
  0
LINE
  5
111
330
17
100
AcDbEntity
  8
TOP
100
AcDbLine
 10
13.184328961967628
 20
74.17625736265627
 30
0.0
 11
16.71017612416683
 21
76.25714285714287
 31
0.0
  0
LINE
  5
112
330
17
100
AcDbEntity
  8
TOP
100
AcDbLine
 10
16.71017612416683
 20
76.25714285714287
 30
0.0
 11
20.236023286366027
 21
74.17625736265627
 31
0.0
  0
LINE
  5
113
330
17
100
AcDbEntity
  8
TOP
100
AcDbLine
 10
21.53941702405104
 20
74.17625736265627
 30
0.0
 11
25.065264186250243
 21
76.25714285714287
 31
0.0
  0
LINE
  5
114
330
17
100
AcDbEntity
  8
TOP
100
AcDbLine
 10
25.065264186250243
 20
76.25714285714287
 30
0.0
 11
28.591111348449445
 21
74.17625736265627
 31
0.0
  0
LINE
  5
115
330
17
100
AcDbEntity
  8
TOP
100
AcDbLine
 10
29.89450508613446
 20
74.17625736265627
 30
0.0
 11
33.42035224833366
 21
76.25714285714287
 31
0.0
  0
LINE
  5
116
330
17
100
AcDbEntity
  8
TOP
100
AcDbLine
 10
0.6516968688425063
 20
76.63340021979913
 30
0.0
 11
4.177544031041707
 21
78.71428571428572
 31
0.0
  0
LINE
  5
117
330
17
100
AcDbEntity
  8
TOP
100
AcDbLine
 10
4.177544031041707
 20
78.71428571428572
 30
0.0
 11
7.703391193240908
 21
76.63340021979913
 31
0.0
  0
LINE
  5
118
330
17
100
AcDbEntity
  8
TOP
100
AcDbLine
 10
9.006784930925921
 20
76.63340021979913
 30
0.0
 11
12.532632093125121
 21
78.71428571428572
 31
0.0
  0
LINE
  5
119
330
17
100
AcDbEntity
  8
TOP
100
AcDbLine
 10
12.532632093125121
 20
78.71428571428572
 30
0.0
 11
16.058479255324322
 21
76.63340021979913
 31
0.0
  0
LINE
  5
11A
330
17
100
AcDbEntity
  8
TOP
100
AcDbLine
 10
17.361872993009335
 20
76.63340021979913
 30
0.0
 11
20.887720155208534
 21
78.71428571428572
 31
0.0
  0
LINE
  5
11B
330
17
100
AcDbEntity
  8
TOP
100
AcDbLine
 10
20.887720155208534
 20
78.71428571428572
 30
0.0
 11
24.413567317407736
 21
76.63340021979913
 31
0.0
  0
LINE
  5
11C
330
17
100
AcDbEntity
  8
TOP
100
AcDbLine
 10
25.71696105509275
 20
76.63340021979913
 30
0.0
 11
29.24280821729195
 21
78.71428571428572
 31
0.0
  0
LINE
  5
11D
330
17
100
AcDbEntity
  8
TOP
100
AcDbLine
 10
29.24280821729195
 20
78.71428571428572
 30
0.0
 11
32.76865537949115
 21
76.63340021979913
 31
0.0
  0
LINE
  5
11E
330
17
100
AcDbEntity
  8
TOP
100
AcDbLine
 10
0.0
 20
81.17142857142858
 30
0.0
 11
3.525847162199201
 21
79.09054307694198
 31
0.0
  0
LINE
  5
11F
330
17
100
AcDbEntity
  8
TOP
100
AcDbLine
 10
4.829240899884214
 20
79.09054307694198
 30
0.0
 11
8.355088062083414
 21
81.17142857142858
 31
0.0
  0
LINE
  5
120
330
17
100
AcDbEntity
  8
TOP
100
AcDbLine
 10
8.355088062083414
 20
81.17142857142858
 30
0.0
 11
11.880935224282615
 21
79.09054307694198
 31
0.0
  0
LINE
  5
121
330
17
100
AcDbEntity
  8
TOP
100
AcDbLine
 10
13.184328961967628
 20
79.09054307694198
 30
0.0
 11
16.71017612416683
 21
81.17142857142858
 31
0.0
  0
LINE
  5
122
330
17
100
AcDbEntity
  8
TOP
100
AcDbLine
 10
16.71017612416683
 20
81.17142857142858
 30
0.0
 11
20.236023286366027
 21
79.09054307694198
 31
0.0
  0
LINE
  5
123
330
17
100
AcDbEntity
  8
TOP
100
AcDbLine
 10
21.53941702405104
 20
79.09054307694198
 30
0.0
 11
25.065264186250243
 21
81.17142857142858
 31
0.0
  0
LINE
  5
124
330
17
100
AcDbEntity
  8
TOP
100
AcDbLine
 10
25.065264186250243
 20
81.17142857142858
 30
0.0
 11
28.591111348449445
 21
79.09054307694198
 31
0.0
  0
LINE
  5
125
330
17
100
AcDbEntity
  8
TOP
100
AcDbLine
 10
29.89450508613446
 20
79.09054307694198
 30
0.0
 11
33.42035224833366
 21
81.17142857142858
 31
0.0
  0
LINE
  5
126
330
17
100
AcDbEntity
  8
TOP
100
AcDbLine
 10
0.6516968688425063
 20
81.54768593408484
 30
0.0
 11
4.177544031041707
 21
83.62857142857143
 31
0.0
  0
LINE
  5
127
330
17
100
AcDbEntity
  8
TOP
100
AcDbLine
 10
4.177544031041707
 20
83.62857142857143
 30
0.0
 11
7.703391193240908
 21
81.54768593408484
 31
0.0
  0
LINE
  5
128
330
17
100
AcDbEntity
  8
TOP
100
AcDbLine
 10
9.006784930925921
 20
81.54768593408484
 30
0.0
 11
12.532632093125121
 21
83.62857142857143
 31
0.0
  0
LINE
  5
129
330
17
100
AcDbEntity
  8
TOP
100
AcDbLine
 10
12.532632093125121
 20
83.62857142857143
 30
0.0
 11
16.058479255324322
 21
81.54768593408484
 31
0.0
  0
LINE
  5
12A
330
17
100
AcDbEntity
  8
TOP
100
AcDbLine
 10
17.361872993009335
 20
81.54768593408484
 30
0.0
 11
20.887720155208534
 21
83.62857142857143
 31
0.0
  0
LINE
  5
12B
330
17
100
AcDbEntity
  8
TOP
100
AcDbLine
 10
20.887720155208534
 20
83.62857142857143
 30
0.0
 11
24.413567317407736
 21
81.54768593408484
 31
0.0
  0
LINE
  5
12C
330
17
100
AcDbEntity
  8
TOP
100
AcDbLine
 10
25.71696105509275
 20
81.54768593408484
 30
0.0
 11
29.24280821729195
 21
83.62857142857143
 31
0.0
  0
LINE
  5
12D
330
17
100
AcDbEntity
  8
TOP
100
AcDbLine
 10
29.24280821729195
 20
83.62857142857143
 30
0.0
 11
32.76865537949115
 21
81.54768593408484
 31
0.0
  0
LINE
  5
12E
330
17
100
AcDbEntity
  8
TOP
100
AcDbLine
 10
0.0
 20
86.08571428571429
 30
0.0
 11
3.525847162199201
 21
84.0048287912277
 31
0.0
  0
LINE
  5
12F
330
17
100
AcDbEntity
  8
TOP
100
AcDbLine
 10
4.829240899884214
 20
84.0048287912277
 30
0.0
 11
8.355088062083414
 21
86.08571428571429
 31
0.0
  0
LINE
  5
130
330
17
100
AcDbEntity
  8
TOP
100
AcDbLine
 10
8.355088062083414
 20
86.08571428571429
 30
0.0
 11
11.880935224282615
 21
84.0048287912277
 31
0.0
  0
LINE
  5
131
330
17
100
AcDbEntity
  8
TOP
100
AcDbLine
 10
13.184328961967628
 20
84.0048287912277
 30
0.0
 11
16.71017612416683
 21
86.08571428571429
 31
0.0
  0
LINE
  5
132
330
17
100
AcDbEntity
  8
TOP
100
AcDbLine
 10
16.71017612416683
 20
86.08571428571429
 30
0.0
 11
20.236023286366027
 21
84.0048287912277
 31
0.0
  0
LINE
  5
133
330
17
100
AcDbEntity
  8
TOP
100
AcDbLine
 10
21.53941702405104
 20
84.0048287912277
 30
0.0
 11
25.065264186250243
 21
86.08571428571429
 31
0.0
  0
LINE
  5
134
330
17
100
AcDbEntity
  8
TOP
100
AcDbLine
 10
25.065264186250243
 20
86.08571428571429
 30
0.0
 11
28.591111348449445
 21
84.0048287912277
 31
0.0
  0
LINE
  5
135
330
17
100
AcDbEntity
  8
TOP
100
AcDbLine
 10
29.89450508613446
 20
84.0048287912277
 30
0.0
 11
33.42035224833366
 21
86.08571428571429
 31
0.0
  0
LINE
  5
136
330
17
100
AcDbEntity
  8
TOP
100
AcDbLine
 10
0.6516968688425063
 20
86.46197164837055
 30
0.0
 11
4.177544031041707
 21
88.54285714285714
 31
0.0
  0
LINE
  5
137
330
17
100
AcDbEntity
  8
TOP
100
AcDbLine
 10
4.177544031041707
 20
88.54285714285714
 30
0.0
 11
7.703391193240908
 21
86.46197164837055
 31
0.0
  0
LINE
  5
138
330
17
100
AcDbEntity
  8
TOP
100
AcDbLine
 10
9.006784930925921
 20
86.46197164837055
 30
0.0
 11
12.532632093125121
 21
88.54285714285714
 31
0.0
  0
LINE
  5
139
330
17
100
AcDbEntity
  8
TOP
100
AcDbLine
 10
12.532632093125121
 20
88.54285714285714
 30
0.0
 11
16.058479255324322
 21
86.46197164837055
 31
0.0
  0
LINE
  5
13A
330
17
100
AcDbEntity
  8
TOP
100
AcDbLine
 10
17.361872993009335
 20
86.46197164837055
 30
0.0
 11
20.887720155208534
 21
88.54285714285714
 31
0.0
  0
LINE
  5
13B
330
17
100
AcDbEntity
  8
TOP
100
AcDbLine
 10
20.887720155208534
 20
88.54285714285714
 30
0.0
 11
24.413567317407736
 21
86.46197164837055
 31
0.0
  0
LINE
  5
13C
330
17
100
AcDbEntity
  8
TOP
100
AcDbLine
 10
25.71696105509275
 20
86.46197164837055
 30
0.0
 11
29.24280821729195
 21
88.54285714285714
 31
0.0
  0
LINE
  5
13D
330
17
100
AcDbEntity
  8
TOP
100
AcDbLine
 10
29.24280821729195
 20
88.54285714285714
 30
0.0
 11
32.76865537949115
 21
86.46197164837055
 31
0.0
  0
LINE
  5
13E
330
17
100
AcDbEntity
  8
TOP
100
AcDbLine
 10
0.0
 20
91.0
 30
0.0
 11
3.525847162199201
 21
88.9191145055134
 31
0.0
  0
LINE
  5
13F
330
17
100
AcDbEntity
  8
TOP
100
AcDbLine
 10
4.829240899884214
 20
88.9191145055134
 30
0.0
 11
8.355088062083414
 21
91.0
 31
0.0
  0
LINE
  5
140
330
17
100
AcDbEntity
  8
TOP
100
AcDbLine
 10
8.355088062083414
 20
91.0
 30
0.0
 11
11.880935224282615
 21
88.9191145055134
 31
0.0
  0
LINE
  5
141
330
17
100
AcDbEntity
  8
TOP
100
AcDbLine
 10
13.184328961967628
 20
88.9191145055134
 30
0.0
 11
16.71017612416683
 21
91.0
 31
0.0
  0
LINE
  5
142
330
17
100
AcDbEntity
  8
TOP
100
AcDbLine
 10
16.71017612416683
 20
91.0
 30
0.0
 11
20.236023286366027
 21
88.9191145055134
 31
0.0
  0
LINE
  5
143
330
17
100
AcDbEntity
  8
TOP
100
AcDbLine
 10
21.53941702405104
 20
88.9191145055134
 30
0.0
 11
25.065264186250243
 21
91.0
 31
0.0
  0
LINE
  5
144
330
17
100
AcDbEntity
  8
TOP
100
AcDbLine
 10
25.065264186250243
 20
91.0
 30
0.0
 11
28.591111348449445
 21
88.9191145055134
 31
0.0
  0
LINE
  5
145
330
17
100
AcDbEntity
  8
TOP
100
AcDbLine
 10
29.89450508613446
 20
88.9191145055134
 30
0.0
 11
33.42035224833366
 21
91.0
 31
0.0
  0
POLYLINE
  5
146
330
17
100
AcDbEntity
  8
TOP
100
AcDb2dPolyline
 66
1
 10
0.0
 20
0.0
 30
0.0
 70
1
  0
VERTEX
  5
148
330
17
100
AcDbEntity
  8
TOP
100
AcDbVertex
100
AcDb2dVertex
 10
0.0
 20
0.0
 30
0.0
 70
0
  0
VERTEX
  5
149
330
17
100
AcDbEntity
  8
TOP
100
AcDbVertex
100
AcDb2dVertex
 10
0.0
 20
96.0
 30
0.0
 70
0
  0
VERTEX
  5
14A
330
17
100
AcDbEntity
  8
TOP
100
AcDbVertex
100
AcDb2dVertex
 10
33.42035224833366
 20
96.0
 30
0.0
 70
0
  0
VERTEX
  5
14B
330
17
100
AcDbEntity
  8
TOP
100
AcDbVertex
100
AcDb2dVertex
 10
33.42035224833366
 20
0.0
 30
0.0
 70
0
  0
SEQEND
  5
147
330
17
100
AcDbEntity
  8
TOP
  0
ENDSEC
  0
SECTION
  2
OBJECTS
  0
DICTIONARY
  5
A
330
0
100
AcDbDictionary
281
1
  3
ACAD_COLOR
350
B
  3
ACAD_GROUP
350
C
  3
ACAD_LAYOUT
350
D
  3
ACAD_MATERIAL
350
E
  3
ACAD_MLEADERSTYLE
350
F
  3
ACAD_MLINESTYLE
350
10
  3
ACAD_PLOTSETTINGS
350
11
  3
ACAD_PLOTSTYLENAME
350
12
  3
ACAD_SCALELIST
350
14
  3
ACAD_TABLESTYLE
350
15
  3
ACAD_VISUALSTYLE
350
16
  0
DICTIONARY
  5
B
330
A
100
AcDbDictionary
281
1
  0
DICTIONARY
  5
C
330
A
100
AcDbDictionary
281
1
  0
DICTIONARY
  5
D
330
A
100
AcDbDictionary
281
1
  3
Model
350
1A
  3
Layout1
350
1E
  0
DICTIONARY
  5
E
330
A
100
AcDbDictionary
281
1
  3
ByBlock
350
1F
  3
ByLayer
350
20
  3
Global
350
21
  0
DICTIONARY
  5
F
330
A
100
AcDbDictionary
281
1
  3
Standard
350
2C
  0
DICTIONARY
  5
10
330
A
100
AcDbDictionary
281
1
  3
Standard
350
22
  0
DICTIONARY
  5
11
330
A
100
AcDbDictionary
281
1
  0
ACDBDICTIONARYWDFLT
  5
12
330
A
100
AcDbDictionary
281
1
  3
Normal
350
13
100
AcDbDictionaryWithDefault
340
13
  0
ACDBPLACEHOLDER
  5
13
330
12
  0
DICTIONARY
  5
14
330
A
100
AcDbDictionary
281
1
  0
DICTIONARY
  5
15
330
A
100
AcDbDictionary
281
1
  0
DICTIONARY
  5
16
330
A
100
AcDbDictionary
281
1
  0
LAYOUT
  5
1A
330
D
100
AcDbPlotSettings
  1

  2
Adobe PDF
  4
A3
  6

 40
7.5
 41
20.0
 42
7.5
 43
20.0
 44
420.0
 45
297.0
 46
0.0
 47
0.0
 48
0.0
 49
0.0
140
0.0
141
0.0
142
1.0
143
1.0
 70
1024
 72
1
 73
1
 74
5
  7

 75
16
 76
0
 77
2
 78
300
147
1.0
148
0.0
149
0.0
100
AcDbLayout
  1
Model
 70
1
 71
0
 10
0.0
 20
0.0
 11
420.0
 21
297.0
 12
0.0
 22
0.0
 32
0.0
 14
1e+20
 24
1e+20
 34
1e+20
 15
-1e+20
 25
-1e+20
 35
-1e+20
146
0.0
 13
0.0
 23
0.0
 33
0.0
 16
1.0
 26
0.0
 36
0.0
 17
0.0
 27
1.0
 37
0.0
 76
1
330
17
  0
LAYOUT
  5
1E
330
D
100
AcDbPlotSettings
  1

  2
Adobe PDF
  4
A3
  6

 40
7.5
 41
20.0
 42
7.5
 43
20.0
 44
420.0
 45
297.0
 46
0.0
 47
0.0
 48
0.0
 49
0.0
140
0.0
141
0.0
142
1.0
143
1.0
 70
0
 72
1
 73
1
 74
5
  7

 75
16
 76
0
 77
2
 78
300
147
1.0
148
0.0
149
0.0
100
AcDbLayout
  1
Layout1
 70
1
 71
1
 10
0.0
 20
0.0
 11
420.0
 21
297.0
 12
0.0
 22
0.0
 32
0.0
 14
1e+20
 24
1e+20
 34
1e+20
 15
-1e+20
 25
-1e+20
 35
-1e+20
146
0.0
 13
0.0
 23
0.0
 33
0.0
 16
1.0
 26
0.0
 36
0.0
 17
0.0
 27
1.0
 37
0.0
 76
1
330
1B
  0
MATERIAL
  5
1F
102
{ACAD_REACTORS
330
E
102
}
330
E
100
AcDbMaterial
  1
ByBlock
  2

 70
0
 40
1.0
 71
1
 41
1.0
 91
-1023410177
 42
1.0
 72
1
  3

 73
1
 74
1
 75
1
 44
0.5
 73
0
 45
1.0
 46
1.0
 77
1
  4

 78
1
 79
1
170
1
 48
1.0
171
1
  6

172
1
173
1
174
1
140
1.0
141
1.0
175
1
  7

176
1
177
1
178
1
143
1.0
179
1
  8

270
1
271
1
272
1
145
1.0
146
1.0
273
1
  9

274
1
275
1
276
1
 42
1.0
 72
1
  3

 73
1
 74
1
 75
1
 94
63
  0
MATERIAL
  5
20
102
{ACAD_REACTORS
330
E
102
}
330
E
100
AcDbMaterial
  1
ByLayer
  2

 70
0
 40
1.0
 71
1
 41
1.0
 91
-1023410177
 42
1.0
 72
1
  3

 73
1
 74
1
 75
1
 44
0.5
 73
0
 45
1.0
 46
1.0
 77
1
  4

 78
1
 79
1
170
1
 48
1.0
171
1
  6

172
1
173
1
174
1
140
1.0
141
1.0
175
1
  7

176
1
177
1
178
1
143
1.0
179
1
  8

270
1
271
1
272
1
145
1.0
146
1.0
273
1
  9

274
1
275
1
276
1
 42
1.0
 72
1
  3

 73
1
 74
1
 75
1
 94
63
  0
MATERIAL
  5
21
102
{ACAD_REACTORS
330
E
102
}
330
E
100
AcDbMaterial
  1
Global
  2

 70
0
 40
1.0
 71
1
 41
1.0
 91
-1023410177
 42
1.0
 72
1
  3

 73
1
 74
1
 75
1
 44
0.5
 73
0
 45
1.0
 46
1.0
 77
1
  4

 78
1
 79
1
170
1
 48
1.0
171
1
  6

172
1
173
1
174
1
140
1.0
141
1.0
175
1
  7

176
1
177
1
178
1
143
1.0
179
1
  8

270
1
271
1
272
1
145
1.0
146
1.0
273
1
  9

274
1
275
1
276
1
 42
1.0
 72
1
  3

 73
1
 74
1
 75
1
 94
63
  0
MLINESTYLE
  5
22
102
{ACAD_REACTORS
330
10
102
}
330
10
100
AcDbMlineStyle
  2
Standard
 70
0
  3

 62
256
 51
90.0
 52
90.0
 71
2
 49
0.5
 62
256
  6
BYLAYER
 49
-0.5
 62
256
  6
BYLAYER
  0
MLEADERSTYLE
  5
2C
102
{ACAD_REACTORS
330
F
102
}
330
F
100
AcDbMLeaderStyle
179
2
170
2
171
1
172
0
 90
2
 40
0.0
 41
0.0
173
1
 91
-1056964608
 92
-2
290
1
 42
2.0
291
1
 43
8.0
  3
Standard
 44
4.0
300

342
29
174
1
175
1
176
0
178
1
 93
-1056964608
 45
4.0
292
0
297
0
 46
4.0
 94
-1056964608
 47
1.0
 49
1.0
140
1.0
294
1
141
0.0
177
0
142
1.0
295
0
296
0
143
3.75
271
0
272
9
273
9
  0
ENDSEC
  0
EOF
