  0
SECTION
  2
HEADER
  9
$ACADVER
  1
AC1024
  9
$ACADMAINTVER
 70
6
  9
$DWGCODEPAGE
  3
ANSI_1252
  9
$LASTSAVEDBY
  1
ezdxf
  9
$INSBASE
 10
0.0
 20
0.0
 30
0.0
  9
$EXTMIN
 10
1e+20
 20
1e+20
 30
1e+20
  9
$EXTMAX
 10
-1e+20
 20
-1e+20
 30
-1e+20
  9
$LIMMIN
 10
0.0
 20
0.0
  9
$LIMMAX
 10
420.0
 20
297.0
  9
$ORTHOMODE
 70
0
  9
$REGENMODE
 70
1
  9
$FILLMODE
 70
1
  9
$QTEXTMODE
 70
0
  9
$MIRRTEXT
 70
1
  9
$LTSCALE
 40
1.0
  9
$ATTMODE
 70
1
  9
$TEXTSIZE
 40
2.5
  9
$TRACEWID
 40
1.0
  9
$TEXTSTYLE
  7
Standard
  9
$CLAYER
  8
0
  9
$CELTYPE
  6
ByLayer
  9
$CECOLOR
 62
256
  9
$CELTSCALE
 40
1.0
  9
$DISPSILH
 70
0
  9
$DIMSCALE
 40
1.0
  9
$DIMASZ
 40
2.5
  9
$DIMEXO
 40
0.625
  9
$DIMDLI
 40
3.75
  9
$DIMRND
 40
0.0
  9
$DIMDLE
 40
0.0
  9
$DIMEXE
 40
1.25
  9
$DIMTP
 40
0.0
  9
$DIMTM
 40
0.0
  9
$DIMTXT
 40
2.5
  9
$DIMCEN
 40
2.5
  9
$DIMTSZ
 40
0.0
  9
$DIMTOL
 70
0
  9
$DIMLIM
 70
0
  9
$DIMTIH
 70
0
  9
$DIMTOH
 70
0
  9
$DIMSE1
 70
0
  9
$DIMSE2
 70
0
  9
$DIMTAD
 70
1
  9
$DIMZIN
 70
8
  9
$DIMBLK
  1

  9
$DIMASO
 70
1
  9
$DIMSHO
 70
1
  9
$DIMPOST
  1

  9
$DIMAPOST
  1

  9
$DIMALT
 70
0
  9
$DIMALTD
 70
3
  9
$DIMALTF
 40
0.03937007874
  9
$DIMLFAC
 40
1.0
  9
$DIMTOFL
 70
1
  9
$DIMTVP
 40
0.0
  9
$DIMTIX
 70
0
  9
$DIMSOXD
 70
0
  9
$DIMSAH
 70
0
  9
$DIMBLK1
  1

  9
$DIMBLK2
  1

  9
$DIMSTYLE
  2
ISO-25
  9
$DIMCLRD
 70
0
  9
$DIMCLRE
 70
0
  9
$DIMCLRT
 70
0
  9
$DIMTFAC
 40
1.0
  9
$DIMGAP
 40
0.625
  9
$DIMJUST
 70
0
  9
$DIMSD1
 70
0
  9
$DIMSD2
 70
0
  9
$DIMTOLJ
 70
0
  9
$DIMTZIN
 70
8
  9
$DIMALTZ
 70
0
  9
$DIMALTTZ
 70
0
  9
$DIMUPT
 70
0
  9
$DIMDEC
 70
2
  9
$DIMTDEC
 70
2
  9
$DIMALTU
 70
2
  9
$DIMALTTD
 70
3
  9
$DIMTXSTY
  7
Standard
  9
$DIMAUNIT
 70
0
  9
$DIMADEC
 70
0
  9
$DIMALTRND
 40
0.0
  9
$DIMAZIN
 70
0
  9
$DIMDSEP
 70
44
  9
$DIMATFIT
 70
3
  9
$DIMFRAC
 70
0
  9
$DIMLDRBLK
  1

  9
$DIMLUNIT
 70
2
  9
$DIMLWD
 70
-2
  9
$DIMLWE
 70
-2
  9
$DIMTMOVE
 70
0
  9
$DIMFXL
 40
1.0
  9
$DIMFXLON
 70
0
  9
$DIMJOGANG
 40
0.785398163397
  9
$DIMTFILL
 70
0
  9
$DIMTFILLCLR
 70
0
  9
$DIMARCSYM
 70
0
  9
$DIMLTYPE
  6

  9
$DIMLTEX1
  6

  9
$DIMLTEX2
  6

  9
$DIMTXTDIRECTION
 70
0
  9
$LUNITS
 70
2
  9
$LUPREC
 70
4
  9
$SKETCHINC
 40
1.0
  9
$FILLETRAD
 40
10.0
  9
$AUNITS
 70
0
  9
$AUPREC
 70
2
  9
$MENU
  1
.
  9
$ELEVATION
 40
0.0
  9
$PELEVATION
 40
0.0
  9
$THICKNESS
 40
0.0
  9
$LIMCHECK
 70
0
  9
$CHAMFERA
 40
0.0
  9
$CHAMFERB
 40
0.0
  9
$CHAMFERC
 40
0.0
  9
$CHAMFERD
 40
0.0
  9
$SKPOLY
 70
0
  9
$TDCREATE
 40
2459635.6834143517
  9
$TDUCREATE
 40
2458532.153996898
  9
$TDUPDATE
 40
2459635.6834143517
  9
$TDUUPDATE
 40
2458532.1544311
  9
$TDINDWG
 40
0.0
  9
$TDUSRTIMER
 40
0.0
  9
$USRTIMER
 70
1
  9
$ANGBASE
 50
0.0
  9
$ANGDIR
 70
0
  9
$PDMODE
 70
0
  9
$PDSIZE
 40
0.0
  9
$PLINEWID
 40
0.0
  9
$SPLFRAME
 70
0
  9
$SPLINETYPE
 70
6
  9
$SPLINESEGS
 70
8
  9
$HANDSEED
  5
30D
  9
$SURFTAB1
 70
6
  9
$SURFTAB2
 70
6
  9
$SURFTYPE
 70
6
  9
$SURFU
 70
6
  9
$SURFV
 70
6
  9
$UCSBASE
  2

  9
$UCSNAME
  2

  9
$UCSORG
 10
0.0
 20
0.0
 30
0.0
  9
$UCSXDIR
 10
1.0
 20
0.0
 30
0.0
  9
$UCSYDIR
 10
0.0
 20
1.0
 30
0.0
  9
$UCSORTHOREF
  2

  9
$UCSORTHOVIEW
 70
0
  9
$UCSORGTOP
 10
0.0
 20
0.0
 30
0.0
  9
$UCSORGBOTTOM
 10
0.0
 20
0.0
 30
0.0
  9
$UCSORGLEFT
 10
0.0
 20
0.0
 30
0.0
  9
$UCSORGRIGHT
 10
0.0
 20
0.0
 30
0.0
  9
$UCSORGFRONT
 10
0.0
 20
0.0
 30
0.0
  9
$UCSORGBACK
 10
0.0
 20
0.0
 30
0.0
  9
$PUCSBASE
  2

  9
$PUCSNAME
  2

  9
$PUCSORG
 10
0.0
 20
0.0
 30
0.0
  9
$PUCSXDIR
 10
1.0
 20
0.0
 30
0.0
  9
$PUCSYDIR
 10
0.0
 20
1.0
 30
0.0
  9
$PUCSORTHOREF
  2

  9
$PUCSORTHOVIEW
 70
0
  9
$PUCSORGTOP
 10
0.0
 20
0.0
 30
0.0
  9
$PUCSORGBOTTOM
 10
0.0
 20
0.0
 30
0.0
  9
$PUCSORGLEFT
 10
0.0
 20
0.0
 30
0.0
  9
$PUCSORGRIGHT
 10
0.0
 20
0.0
 30
0.0
  9
$PUCSORGFRONT
 10
0.0
 20
0.0
 30
0.0
  9
$PUCSORGBACK
 10
0.0
 20
0.0
 30
0.0
  9
$USERI1
 70
0
  9
$USERI2
 70
0
  9
$USERI3
 70
0
  9
$USERI4
 70
0
  9
$USERI5
 70
0
  9
$USERR1
 40
0.0
  9
$USERR2
 40
0.0
  9
$USERR3
 40
0.0
  9
$USERR4
 40
0.0
  9
$USERR5
 40
0.0
  9
$WORLDVIEW
 70
1
  9
$SHADEDGE
 70
3
  9
$SHADEDIF
 70
70
  9
$TILEMODE
 70
1
  9
$MAXACTVP
 70
64
  9
$PINSBASE
 10
0.0
 20
0.0
 30
0.0
  9
$PLIMCHECK
 70
0
  9
$PEXTMIN
 10
1e+20
 20
1e+20
 30
1e+20
  9
$PEXTMAX
 10
-1e+20
 20
-1e+20
 30
-1e+20
  9
$PLIMMIN
 10
0.0
 20
0.0
  9
$PLIMMAX
 10
420.0
 20
297.0
  9
$UNITMODE
 70
0
  9
$VISRETAIN
 70
1
  9
$PLINEGEN
 70
0
  9
$PSLTSCALE
 70
1
  9
$TREEDEPTH
 70
3020
  9
$CMLSTYLE
  2
Standard
  9
$CMLJUST
 70
0
  9
$CMLSCALE
 40
20.0
  9
$PROXYGRAPHICS
 70
1
  9
$MEASUREMENT
 70
1
  9
$CELWEIGHT
370
-1
  9
$ENDCAPS
280
0
  9
$JOINSTYLE
280
0
  9
$LWDISPLAY
290
0
  9
$INSUNITS
 70
6
  9
$HYPERLINKBASE
  1

  9
$STYLESHEET
  1

  9
$XEDIT
290
1
  9
$CEPSNTYPE
380
0
  9
$PSTYLEMODE
290
1
  9
$FINGERPRINTGUID
  2
{10BED0E4-D2DA-4200-8018-DB7D3B581F31}
  9
$VERSIONGUID
  2
{943DA9E6-5736-4D97-A27E-9559391BFCC8}
  9
$EXTNAMES
290
1
  9
$PSVPSCALE
 40
0.0
  9
$OLESTARTUP
290
0
  9
$SORTENTS
280
127
  9
$INDEXCTL
280
0
  9
$HIDETEXT
280
1
  9
$XCLIPFRAME
280
0
  9
$HALOGAP
280
0
  9
$OBSCOLOR
 70
257
  9
$OBSLTYPE
280
0
  9
$INTERSECTIONDISPLAY
280
0
  9
$INTERSECTIONCOLOR
 70
257
  9
$DIMASSOC
280
2
  9
$PROJECTNAME
  1

  9
$CAMERADISPLAY
290
0
  9
$LENSLENGTH
 40
50.0
  9
$CAMERAHEIGHT
 40
0.0
  9
$STEPSPERSEC
 40
24.0
  9
$STEPSIZE
 40
100.0
  9
$3DDWFPREC
 40
2.0
  9
$PSOLWIDTH
 40
0.005
  9
$PSOLHEIGHT
 40
0.08
  9
$LOFTANG1
 40
1.570796326795
  9
$LOFTANG2
 40
1.570796326795
  9
$LOFTMAG1
 40
0.0
  9
$LOFTMAG2
 40
0.0
  9
$LOFTPARAM
 70
7
  9
$LOFTNORMALS
280
1
  9
$LATITUDE
 40
37.795
  9
$LONGITUDE
 40
-122.394
  9
$NORTHDIRECTION
 40
0.0
  9
$TIMEZONE
 70
-8000
  9
$LIGHTGLYPHDISPLAY
280
1
  9
$TILEMODELIGHTSYNCH
280
1
  9
$CMATERIAL
347
20
  9
$SOLIDHIST
280
0
  9
$SHOWHIST
280
1
  9
$DWFFRAME
280
2
  9
$DGNFRAME
280
2
  9
$REALWORLDSCALE
290
1
  9
$INTERFERECOLOR
 62
256
  9
$CSHADOW
280
0
  9
$SHADOWPLANELOCATION
 40
0.0
  0
ENDSEC
  0
SECTION
  2
CLASSES
  0
CLASS
  1
ACDBDICTIONARYWDFLT
  2
AcDbDictionaryWithDefault
  3
ObjectDBX Classes
 90
0
 91
0
280
0
281
0
  0
CLASS
  1
SUN
  2
AcDbSun
  3
SCENEOE
 90
1153
 91
0
280
0
281
0
  0
CLASS
  1
VISUALSTYLE
  2
AcDbVisualStyle
  3
ObjectDBX Classes
 90
4095
 91
0
280
0
281
0
  0
CLASS
  1
MATERIAL
  2
AcDbMaterial
  3
ObjectDBX Classes
 90
1153
 91
0
280
0
281
0
  0
CLASS
  1
SCALE
  2
AcDbScale
  3
ObjectDBX Classes
 90
1153
 91
0
280
0
281
0
  0
CLASS
  1
TABLESTYLE
  2
AcDbTableStyle
  3
ObjectDBX Classes
 90
4095
 91
0
280
0
281
0
  0
CLASS
  1
MLEADERSTYLE
  2
AcDbMLeaderStyle
  3
ACDB_MLEADERSTYLE_CLASS
 90
4095
 91
0
280
0
281
0
  0
CLASS
  1
DICTIONARYVAR
  2
AcDbDictionaryVar
  3
ObjectDBX Classes
 90
0
 91
0
280
0
281
0
  0
CLASS
  1
CELLSTYLEMAP
  2
AcDbCellStyleMap
  3
ObjectDBX Classes
 90
1152
 91
0
280
0
281
0
  0
CLASS
  1
MENTALRAYRENDERSETTINGS
  2
AcDbMentalRayRenderSettings
  3
SCENEOE
 90
1024
 91
0
280
0
281
0
  0
CLASS
  1
ACDBDETAILVIEWSTYLE
  2
AcDbDetailViewStyle
  3
ObjectDBX Classes
 90
1025
 91
0
280
0
281
0
  0
CLASS
  1
ACDBSECTIONVIEWSTYLE
  2
AcDbSectionViewStyle
  3
ObjectDBX Classes
 90
1025
 91
0
280
0
281
0
  0
CLASS
  1
RASTERVARIABLES
  2
AcDbRasterVariables
  3
ISM
 90
0
 91
0
280
0
281
0
  0
CLASS
  1
LAYOUT
  2
AcDbLayout
  3
ObjectDBX Classes
 90
0
 91
0
280
0
281
0
  0
CLASS
  1
ACDBPLACEHOLDER
  2
AcDbPlaceHolder
  3
ObjectDBX Classes
 90
0
 91
0
280
0
281
0
  0
ENDSEC
  0
SECTION
  2
TABLES
  0
TABLE
  2
VPORT
  5
8
330
0
100
AcDbSymbolTable
 70
1
  0
VPORT
  5
23
330
8
100
AcDbSymbolTableRecord
100
AcDbViewportTableRecord
  2
*Active
 70
0
 10
0.0
 20
0.0
 11
1.0
 21
1.0
 12
344.2
 22
148.5
 13
0.0
 23
0.0
 14
0.5
 24
0.5
 15
0.5
 25
0.5
 16
0.0
 26
0.0
 36
1.0
 17
0.0
 27
0.0
 37
0.0
 40
297.0
 41
1.34
 42
50.0
 43
0.0
 44
0.0
 50
0.0
 51
0.0
 71
0
 72
1000
 73
1
 74
3
 75
0
 76
0
 77
0
 78
0
281
0
 65
0
146
0.0
  0
ENDTAB
  0
TABLE
  2
LTYPE
  5
2
330
0
100
AcDbSymbolTable
 70
3
  0
LTYPE
  5
24
330
2
100
AcDbSymbolTableRecord
100
AcDbLinetypeTableRecord
  2
ByBlock
 70
0
  3

 72
65
 73
0
 40
0.0
  0
LTYPE
  5
25
330
2
100
AcDbSymbolTableRecord
100
AcDbLinetypeTableRecord
  2
ByLayer
 70
0
  3

 72
65
 73
0
 40
0.0
  0
LTYPE
  5
26
330
2
100
AcDbSymbolTableRecord
100
AcDbLinetypeTableRecord
  2
Continuous
 70
0
  3

 72
65
 73
0
 40
0.0
  0
ENDTAB
  0
TABLE
  2
LAYER
  5
1
330
0
100
AcDbSymbolTable
 70
3
  0
LAYER
  5
27
330
1
100
AcDbSymbolTableRecord
100
AcDbLayerTableRecord
  2
0
 70
0
 62
7
  6
Continuous
370
-3
390
13
347
21
  0
LAYER
  5
28
330
1
100
AcDbSymbolTableRecord
100
AcDbLayerTableRecord
  2
Defpoints
 70
0
 62
7
  6
Continuous
290
0
370
-3
390
13
347
21
  0
LAYER
  5
2D
330
1
100
AcDbSymbolTableRecord
100
AcDbLayerTableRecord
  2
TOP
 70
0
 62
1
  6
Continuous
370
0
390
13
347
21
  0
ENDTAB
  0
TABLE
  2
STYLE
  5
5
330
0
100
AcDbSymbolTable
 70
1
  0
STYLE
  5
29
330
5
100
AcDbSymbolTableRecord
100
AcDbTextStyleTableRecord
  2
Standard
 70
0
 40
0.0
 41
1.0
 50
0.0
 71
0
 42
2.5
  3
txt
  4

  0
ENDTAB
  0
TABLE
  2
VIEW
  5
7
330
0
100
AcDbSymbolTable
 70
0
  0
ENDTAB
  0
TABLE
  2
UCS
  5
6
330
0
100
AcDbSymbolTable
 70
0
  0
ENDTAB
  0
TABLE
  2
APPID
  5
3
330
0
100
AcDbSymbolTable
 70
2
  0
APPID
  5
2A
330
3
100
AcDbSymbolTableRecord
100
AcDbRegAppTableRecord
  2
ACAD
 70
0
  0
APPID
  5
30C
330
3
100
AcDbSymbolTableRecord
100
AcDbRegAppTableRecord
  2
HATCHBACKGROUNDCOLOR
 70
0
  0
ENDTAB
  0
TABLE
  2
DIMSTYLE
  5
4
330
0
100
AcDbSymbolTable
 70
1
100
AcDbDimStyleTable
  0
DIMSTYLE
105
2B
330
4
100
AcDbSymbolTableRecord
100
AcDbDimStyleTableRecord
  2
Standard
 70
0
 40
1.0
 41
2.5
 42
0.625
 43
3.75
 44
1.25
 45
0.0
 46
0.0
 47
0.0
 48
0.0
 49
2.5
140
2.5
141
2.5
142
0.0
143
0.03937007874
144
1.0
145
0.0
146
1.0
147
0.625
148
0.0
 69
0
 70
0
 71
0
 72
0
 73
0
 74
0
 75
0
 76
0
 77
1
 78
8
 79
0
170
0
171
3
172
1
173
0
174
0
175
0
176
0
177
0
178
0
179
0
271
0
272
2
273
2
274
3
275
0
276
0
277
2
278
44
279
0
280
0
281
0
282
0
283
0
284
8
285
0
286
0
288
0
289
3
290
0
371
-2
372
-2
  0
ENDTAB
  0
TABLE
  2
BLOCK_RECORD
  5
9
330
0
100
AcDbSymbolTable
 70
2
  0
BLOCK_RECORD
  5
17
330
9
100
AcDbSymbolTableRecord
100
AcDbBlockTableRecord
  2
*Model_Space
340
1A
 70
0
280
1
281
0
  0
BLOCK_RECORD
  5
1B
330
9
100
AcDbSymbolTableRecord
100
AcDbBlockTableRecord
  2
*Paper_Space
340
1E
 70
0
280
1
281
0
  0
ENDTAB
  0
ENDSEC
  0
SECTION
  2
BLOCKS
  0
BLOCK
  5
18
330
17
100
AcDbEntity
  8
0
100
AcDbBlockBegin
  2
*Model_Space
 70
0
 10
0.0
 20
0.0
 30
0.0
  3
*Model_Space
  1

  0
ENDBLK
  5
19
330
17
100
AcDbEntity
  8
0
100
AcDbBlockEnd
  0
BLOCK
  5
1C
330
1B
100
AcDbEntity
  8
0
100
AcDbBlockBegin
  2
*Paper_Space
 70
0
 10
0.0
 20
0.0
 30
0.0
  3
*Paper_Space
  1

  0
ENDBLK
  5
1D
330
1B
100
AcDbEntity
  8
0
100
AcDbBlockEnd
  0
ENDSEC
  0
SECTION
  2
ENTITIES
  0
LINE
  5
2E
330
17
100
AcDbEntity
  8
TOP
100
AcDbLine
 10
0.0
 20
5.945054945054945
 30
0.0
 11
1.3715
 21
5.14635829323957
 31
0.0
  0
LINE
  5
2F
330
17
100
AcDbEntity
  8
TOP
100
AcDbLine
 10
1.8785
 20
5.14635829323957
 30
0.0
 11
3.25
 21
5.945054945054945
 31
0.0
  0
LINE
  5
30
330
17
100
AcDbEntity
  8
TOP
100
AcDbLine
 10
3.25
 20
5.945054945054945
 30
0.0
 11
4.6215
 21
5.14635829323957
 31
0.0
  0
LINE
  5
31
330
17
100
AcDbEntity
  8
TOP
100
AcDbLine
 10
5.1285
 20
5.14635829323957
 30
0.0
 11
6.5
 21
5.945054945054945
 31
0.0
  0
LINE
  5
32
330
17
100
AcDbEntity
  8
TOP
100
AcDbLine
 10
6.5
 20
5.945054945054945
 30
0.0
 11
7.8715
 21
5.14635829323957
 31
0.0
  0
LINE
  5
33
330
17
100
AcDbEntity
  8
TOP
100
AcDbLine
 10
8.3785
 20
5.14635829323957
 30
0.0
 11
9.75
 21
5.945054945054945
 31
0.0
  0
LINE
  5
34
330
17
100
AcDbEntity
  8
TOP
100
AcDbLine
 10
9.75
 20
5.945054945054945
 30
0.0
 11
11.1215
 21
5.14635829323957
 31
0.0
  0
LINE
  5
35
330
17
100
AcDbEntity
  8
TOP
100
AcDbLine
 10
11.6285
 20
5.14635829323957
 30
0.0
 11
13.0
 21
5.945054945054945
 31
0.0
  0
LINE
  5
36
330
17
100
AcDbEntity
  8
TOP
100
AcDbLine
 10
0.2535
 20
6.091413238294515
 30
0.0
 11
1.625
 21
6.8901098901098905
 31
0.0
  0
LINE
  5
37
330
17
100
AcDbEntity
  8
TOP
100
AcDbLine
 10
1.625
 20
6.8901098901098905
 30
0.0
 11
2.9965
 21
6.091413238294515
 31
0.0
  0
LINE
  5
38
330
17
100
AcDbEntity
  8
TOP
100
AcDbLine
 10
3.5035
 20
6.091413238294515
 30
0.0
 11
4.875
 21
6.8901098901098905
 31
0.0
  0
LINE
  5
39
330
17
100
AcDbEntity
  8
TOP
100
AcDbLine
 10
4.875
 20
6.8901098901098905
 30
0.0
 11
6.2465
 21
6.091413238294515
 31
0.0
  0
LINE
  5
3A
330
17
100
AcDbEntity
  8
TOP
100
AcDbLine
 10
6.7535
 20
6.091413238294515
 30
0.0
 11
8.125
 21
6.8901098901098905
 31
0.0
  0
LINE
  5
3B
330
17
100
AcDbEntity
  8
TOP
100
AcDbLine
 10
8.125
 20
6.8901098901098905
 30
0.0
 11
9.4965
 21
6.091413238294515
 31
0.0
  0
LINE
  5
3C
330
17
100
AcDbEntity
  8
TOP
100
AcDbLine
 10
10.0035
 20
6.091413238294515
 30
0.0
 11
11.375
 21
6.8901098901098905
 31
0.0
  0
LINE
  5
3D
330
17
100
AcDbEntity
  8
TOP
100
AcDbLine
 10
11.375
 20
6.8901098901098905
 30
0.0
 11
12.7465
 21
6.091413238294515
 31
0.0
  0
LINE
  5
3E
330
17
100
AcDbEntity
  8
TOP
100
AcDbLine
 10
0.0
 20
7.835164835164835
 30
0.0
 11
1.3715
 21
7.03646818334946
 31
0.0
  0
LINE
  5
3F
330
17
100
AcDbEntity
  8
TOP
100
AcDbLine
 10
1.8785
 20
7.03646818334946
 30
0.0
 11
3.25
 21
7.835164835164835
 31
0.0
  0
LINE
  5
40
330
17
100
AcDbEntity
  8
TOP
100
AcDbLine
 10
3.25
 20
7.835164835164835
 30
0.0
 11
4.6215
 21
7.03646818334946
 31
0.0
  0
LINE
  5
41
330
17
100
AcDbEntity
  8
TOP
100
AcDbLine
 10
5.1285
 20
7.03646818334946
 30
0.0
 11
6.5
 21
7.835164835164835
 31
0.0
  0
LINE
  5
42
330
17
100
AcDbEntity
  8
TOP
100
AcDbLine
 10
6.5
 20
7.835164835164835
 30
0.0
 11
7.8715
 21
7.03646818334946
 31
0.0
  0
LINE
  5
43
330
17
100
AcDbEntity
  8
TOP
100
AcDbLine
 10
8.3785
 20
7.03646818334946
 30
0.0
 11
9.75
 21
7.835164835164835
 31
0.0
  0
LINE
  5
44
330
17
100
AcDbEntity
  8
TOP
100
AcDbLine
 10
9.75
 20
7.835164835164835
 30
0.0
 11
11.1215
 21
7.03646818334946
 31
0.0
  0
LINE
  5
45
330
17
100
AcDbEntity
  8
TOP
100
AcDbLine
 10
11.6285
 20
7.03646818334946
 30
0.0
 11
13.0
 21
7.835164835164835
 31
0.0
  0
LINE
  5
46
330
17
100
AcDbEntity
  8
TOP
100
AcDbLine
 10
0.2535
 20
7.981523128404405
 30
0.0
 11
1.625
 21
8.780219780219781
 31
0.0
  0
LINE
  5
47
330
17
100
AcDbEntity
  8
TOP
100
AcDbLine
 10
1.625
 20
8.780219780219781
 30
0.0
 11
2.9965
 21
7.981523128404405
 31
0.0
  0
LINE
  5
48
330
17
100
AcDbEntity
  8
TOP
100
AcDbLine
 10
3.5035
 20
7.981523128404405
 30
0.0
 11
4.875
 21
8.780219780219781
 31
0.0
  0
LINE
  5
49
330
17
100
AcDbEntity
  8
TOP
100
AcDbLine
 10
4.875
 20
8.780219780219781
 30
0.0
 11
6.2465
 21
7.981523128404405
 31
0.0
  0
LINE
  5
4A
330
17
100
AcDbEntity
  8
TOP
100
AcDbLine
 10
6.7535
 20
7.981523128404405
 30
0.0
 11
8.125
 21
8.780219780219781
 31
0.0
  0
LINE
  5
4B
330
17
100
AcDbEntity
  8
TOP
100
AcDbLine
 10
8.125
 20
8.780219780219781
 30
0.0
 11
9.4965
 21
7.981523128404405
 31
0.0
  0
LINE
  5
4C
330
17
100
AcDbEntity
  8
TOP
100
AcDbLine
 10
10.0035
 20
7.981523128404405
 30
0.0
 11
11.375
 21
8.780219780219781
 31
0.0
  0
LINE
  5
4D
330
17
100
AcDbEntity
  8
TOP
100
AcDbLine
 10
11.375
 20
8.780219780219781
 30
0.0
 11
12.7465
 21
7.981523128404405
 31
0.0
  0
LINE
  5
4E
330
17
100
AcDbEntity
  8
TOP
100
AcDbLine
 10
0.0
 20
9.725274725274726
 30
0.0
 11
1.3715
 21
8.92657807345935
 31
0.0
  0
LINE
  5
4F
330
17
100
AcDbEntity
  8
TOP
100
AcDbLine
 10
1.8785
 20
8.92657807345935
 30
0.0
 11
3.25
 21
9.725274725274726
 31
0.0
  0
LINE
  5
50
330
17
100
AcDbEntity
  8
TOP
100
AcDbLine
 10
3.25
 20
9.725274725274726
 30
0.0
 11
4.6215
 21
8.92657807345935
 31
0.0
  0
LINE
  5
51
330
17
100
AcDbEntity
  8
TOP
100
AcDbLine
 10
5.1285
 20
8.92657807345935
 30
0.0
 11
6.5
 21
9.725274725274726
 31
0.0
  0
LINE
  5
52
330
17
100
AcDbEntity
  8
TOP
100
AcDbLine
 10
6.5
 20
9.725274725274726
 30
0.0
 11
7.8715
 21
8.92657807345935
 31
0.0
  0
LINE
  5
53
330
17
100
AcDbEntity
  8
TOP
100
AcDbLine
 10
8.3785
 20
8.92657807345935
 30
0.0
 11
9.75
 21
9.725274725274726
 31
0.0
  0
LINE
  5
54
330
17
100
AcDbEntity
  8
TOP
100
AcDbLine
 10
9.75
 20
9.725274725274726
 30
0.0
 11
11.1215
 21
8.92657807345935
 31
0.0
  0
LINE
  5
55
330
17
100
AcDbEntity
  8
TOP
100
AcDbLine
 10
11.6285
 20
8.92657807345935
 30
0.0
 11
13.0
 21
9.725274725274726
 31
0.0
  0
LINE
  5
56
330
17
100
AcDbEntity
  8
TOP
100
AcDbLine
 10
0.2535
 20
9.871633018514295
 30
0.0
 11
1.625
 21
10.67032967032967
 31
0.0
  0
LINE
  5
57
330
17
100
AcDbEntity
  8
TOP
100
AcDbLine
 10
1.625
 20
10.67032967032967
 30
0.0
 11
2.9965
 21
9.871633018514295
 31
0.0
  0
LINE
  5
58
330
17
100
AcDbEntity
  8
TOP
100
AcDbLine
 10
3.5035
 20
9.871633018514295
 30
0.0
 11
4.875
 21
10.67032967032967
 31
0.0
  0
LINE
  5
59
330
17
100
AcDbEntity
  8
TOP
100
AcDbLine
 10
4.875
 20
10.67032967032967
 30
0.0
 11
6.2465
 21
9.871633018514295
 31
0.0
  0
LINE
  5
5A
330
17
100
AcDbEntity
  8
TOP
100
AcDbLine
 10
6.7535
 20
9.871633018514295
 30
0.0
 11
8.125
 21
10.67032967032967
 31
0.0
  0
LINE
  5
5B
330
17
100
AcDbEntity
  8
TOP
100
AcDbLine
 10
8.125
 20
10.67032967032967
 30
0.0
 11
9.4965
 21
9.871633018514295
 31
0.0
  0
LINE
  5
5C
330
17
100
AcDbEntity
  8
TOP
100
AcDbLine
 10
10.0035
 20
9.871633018514295
 30
0.0
 11
11.375
 21
10.67032967032967
 31
0.0
  0
LINE
  5
5D
330
17
100
AcDbEntity
  8
TOP
100
AcDbLine
 10
11.375
 20
10.67032967032967
 30
0.0
 11
12.7465
 21
9.871633018514295
 31
0.0
  0
LINE
  5
5E
330
17
100
AcDbEntity
  8
TOP
100
AcDbLine
 10
0.0
 20
11.615384615384615
 30
0.0
 11
1.3715
 21
10.81668796356924
 31
0.0
  0
LINE
  5
5F
330
17
100
AcDbEntity
  8
TOP
100
AcDbLine
 10
1.8785
 20
10.81668796356924
 30
0.0
 11
3.25
 21
11.615384615384615
 31
0.0
  0
LINE
  5
60
330
17
100
AcDbEntity
  8
TOP
100
AcDbLine
 10
3.25
 20
11.615384615384615
 30
0.0
 11
4.6215
 21
10.81668796356924
 31
0.0
  0
LINE
  5
61
330
17
100
AcDbEntity
  8
TOP
100
AcDbLine
 10
5.1285
 20
10.81668796356924
 30
0.0
 11
6.5
 21
11.615384615384615
 31
0.0
  0
LINE
  5
62
330
17
100
AcDbEntity
  8
TOP
100
AcDbLine
 10
6.5
 20
11.615384615384615
 30
0.0
 11
7.8715
 21
10.81668796356924
 31
0.0
  0
LINE
  5
63
330
17
100
AcDbEntity
  8
TOP
100
AcDbLine
 10
8.3785
 20
10.81668796356924
 30
0.0
 11
9.75
 21
11.615384615384615
 31
0.0
  0
LINE
  5
64
330
17
100
AcDbEntity
  8
TOP
100
AcDbLine
 10
9.75
 20
11.615384615384615
 30
0.0
 11
11.1215
 21
10.81668796356924
 31
0.0
  0
LINE
  5
65
330
17
100
AcDbEntity
  8
TOP
100
AcDbLine
 10
11.6285
 20
10.81668796356924
 30
0.0
 11
13.0
 21
11.615384615384615
 31
0.0
  0
LINE
  5
66
330
17
100
AcDbEntity
  8
TOP
100
AcDbLine
 10
0.2535
 20
11.761742908624186
 30
0.0
 11
1.625
 21
12.56043956043956
 31
0.0
  0
LINE
  5
67
330
17
100
AcDbEntity
  8
TOP
100
AcDbLine
 10
1.625
 20
12.56043956043956
 30
0.0
 11
2.9965
 21
11.761742908624186
 31
0.0
  0
LINE
  5
68
330
17
100
AcDbEntity
  8
TOP
100
AcDbLine
 10
3.5035
 20
11.761742908624186
 30
0.0
 11
4.875
 21
12.56043956043956
 31
0.0
  0
LINE
  5
69
330
17
100
AcDbEntity
  8
TOP
100
AcDbLine
 10
4.875
 20
12.56043956043956
 30
0.0
 11
6.2465
 21
11.761742908624186
 31
0.0
  0
LINE
  5
6A
330
17
100
AcDbEntity
  8
TOP
100
AcDbLine
 10
6.7535
 20
11.761742908624186
 30
0.0
 11
8.125
 21
12.56043956043956
 31
0.0
  0
LINE
  5
6B
330
17
100
AcDbEntity
  8
TOP
100
AcDbLine
 10
8.125
 20
12.56043956043956
 30
0.0
 11
9.4965
 21
11.761742908624186
 31
0.0
  0
LINE
  5
6C
330
17
100
AcDbEntity
  8
TOP
100
AcDbLine
 10
10.0035
 20
11.761742908624186
 30
0.0
 11
11.375
 21
12.56043956043956
 31
0.0
  0
LINE
  5
6D
330
17
100
AcDbEntity
  8
TOP
100
AcDbLine
 10
11.375
 20
12.56043956043956
 30
0.0
 11
12.7465
 21
11.761742908624186
 31
0.0
  0
LINE
  5
6E
330
17
100
AcDbEntity
  8
TOP
100
AcDbLine
 10
0.0
 20
13.505494505494505
 30
0.0
 11
1.3715
 21
12.70679785367913
 31
0.0
  0
LINE
  5
6F
330
17
100
AcDbEntity
  8
TOP
100
AcDbLine
 10
1.8785
 20
12.70679785367913
 30
0.0
 11
3.25
 21
13.505494505494505
 31
0.0
  0
LINE
  5
70
330
17
100
AcDbEntity
  8
TOP
100
AcDbLine
 10
3.25
 20
13.505494505494505
 30
0.0
 11
4.6215
 21
12.70679785367913
 31
0.0
  0
LINE
  5
71
330
17
100
AcDbEntity
  8
TOP
100
AcDbLine
 10
5.1285
 20
12.70679785367913
 30
0.0
 11
6.5
 21
13.505494505494505
 31
0.0
  0
LINE
  5
72
330
17
100
AcDbEntity
  8
TOP
100
AcDbLine
 10
6.5
 20
13.505494505494505
 30
0.0
 11
7.8715
 21
12.70679785367913
 31
0.0
  0
LINE
  5
73
330
17
100
AcDbEntity
  8
TOP
100
AcDbLine
 10
8.3785
 20
12.70679785367913
 30
0.0
 11
9.75
 21
13.505494505494505
 31
0.0
  0
LINE
  5
74
330
17
100
AcDbEntity
  8
TOP
100
AcDbLine
 10
9.75
 20
13.505494505494505
 30
0.0
 11
11.1215
 21
12.70679785367913
 31
0.0
  0
LINE
  5
75
330
17
100
AcDbEntity
  8
TOP
100
AcDbLine
 10
11.6285
 20
12.70679785367913
 30
0.0
 11
13.0
 21
13.505494505494505
 31
0.0
  0
LINE
  5
76
330
17
100
AcDbEntity
  8
TOP
100
AcDbLine
 10
0.2535
 20
13.651852798734076
 30
0.0
 11
1.625
 21
14.45054945054945
 31
0.0
  0
LINE
  5
77
330
17
100
AcDbEntity
  8
TOP
100
AcDbLine
 10
1.625
 20
14.45054945054945
 30
0.0
 11
2.9965
 21
13.651852798734076
 31
0.0
  0
LINE
  5
78
330
17
100
AcDbEntity
  8
TOP
100
AcDbLine
 10
3.5035
 20
13.651852798734076
 30
0.0
 11
4.875
 21
14.45054945054945
 31
0.0
  0
LINE
  5
79
330
17
100
AcDbEntity
  8
TOP
100
AcDbLine
 10
4.875
 20
14.45054945054945
 30
0.0
 11
6.2465
 21
13.651852798734076
 31
0.0
  0
LINE
  5
7A
330
17
100
AcDbEntity
  8
TOP
100
AcDbLine
 10
6.7535
 20
13.651852798734076
 30
0.0
 11
8.125
 21
14.45054945054945
 31
0.0
  0
LINE
  5
7B
330
17
100
AcDbEntity
  8
TOP
100
AcDbLine
 10
8.125
 20
14.45054945054945
 30
0.0
 11
9.4965
 21
13.651852798734076
 31
0.0
  0
LINE
  5
7C
330
17
100
AcDbEntity
  8
TOP
100
AcDbLine
 10
10.0035
 20
13.651852798734076
 30
0.0
 11
11.375
 21
14.45054945054945
 31
0.0
  0
LINE
  5
7D
330
17
100
AcDbEntity
  8
TOP
100
AcDbLine
 10
11.375
 20
14.45054945054945
 30
0.0
 11
12.7465
 21
13.651852798734076
 31
0.0
  0
LINE
  5
7E
330
17
100
AcDbEntity
  8
TOP
100
AcDbLine
 10
0.0
 20
15.395604395604396
 30
0.0
 11
1.3715
 21
14.596907743789021
 31
0.0
  0
LINE
  5
7F
330
17
100
AcDbEntity
  8
TOP
100
AcDbLine
 10
1.8785
 20
14.596907743789021
 30
0.0
 11
3.25
 21
15.395604395604396
 31
0.0
  0
LINE
  5
80
330
17
100
AcDbEntity
  8
TOP
100
AcDbLine
 10
3.25
 20
15.395604395604396
 30
0.0
 11
4.6215
 21
14.596907743789021
 31
0.0
  0
LINE
  5
81
330
17
100
AcDbEntity
  8
TOP
100
AcDbLine
 10
5.1285
 20
14.596907743789021
 30
0.0
 11
6.5
 21
15.395604395604396
 31
0.0
  0
LINE
  5
82
330
17
100
AcDbEntity
  8
TOP
100
AcDbLine
 10
6.5
 20
15.395604395604396
 30
0.0
 11
7.8715
 21
14.596907743789021
 31
0.0
  0
LINE
  5
83
330
17
100
AcDbEntity
  8
TOP
100
AcDbLine
 10
8.3785
 20
14.596907743789021
 30
0.0
 11
9.75
 21
15.395604395604396
 31
0.0
  0
LINE
  5
84
330
17
100
AcDbEntity
  8
TOP
100
AcDbLine
 10
9.75
 20
15.395604395604396
 30
0.0
 11
11.1215
 21
14.596907743789021
 31
0.0
  0
LINE
  5
85
330
17
100
AcDbEntity
  8
TOP
100
AcDbLine
 10
11.6285
 20
14.596907743789021
 30
0.0
 11
13.0
 21
15.395604395604396
 31
0.0
  0
LINE
  5
86
330
17
100
AcDbEntity
  8
TOP
100
AcDbLine
 10
0.2535
 20
15.541962688843967
 30
0.0
 11
1.625
 21
16.34065934065934
 31
0.0
  0
LINE
  5
87
330
17
100
AcDbEntity
  8
TOP
100
AcDbLine
 10
1.625
 20
16.34065934065934
 30
0.0
 11
2.9965
 21
15.541962688843967
 31
0.0
  0
LINE
  5
88
330
17
100
AcDbEntity
  8
TOP
100
AcDbLine
 10
3.5035
 20
15.541962688843967
 30
0.0
 11
4.875
 21
16.34065934065934
 31
0.0
  0
LINE
  5
89
330
17
100
AcDbEntity
  8
TOP
100
AcDbLine
 10
4.875
 20
16.34065934065934
 30
0.0
 11
6.2465
 21
15.541962688843967
 31
0.0
  0
LINE
  5
8A
330
17
100
AcDbEntity
  8
TOP
100
AcDbLine
 10
6.7535
 20
15.541962688843967
 30
0.0
 11
8.125
 21
16.34065934065934
 31
0.0
  0
LINE
  5
8B
330
17
100
AcDbEntity
  8
TOP
100
AcDbLine
 10
8.125
 20
16.34065934065934
 30
0.0
 11
9.4965
 21
15.541962688843967
 31
0.0
  0
LINE
  5
8C
330
17
100
AcDbEntity
  8
TOP
100
AcDbLine
 10
10.0035
 20
15.541962688843967
 30
0.0
 11
11.375
 21
16.34065934065934
 31
0.0
  0
LINE
  5
8D
330
17
100
AcDbEntity
  8
TOP
100
AcDbLine
 10
11.375
 20
16.34065934065934
 30
0.0
 11
12.7465
 21
15.541962688843967
 31
0.0
  0
LINE
  5
8E
330
17
100
AcDbEntity
  8
TOP
100
AcDbLine
 10
0.0
 20
17.285714285714285
 30
0.0
 11
1.3715
 21
16.48701763389891
 31
0.0
  0
LINE
  5
8F
330
17
100
AcDbEntity
  8
TOP
100
AcDbLine
 10
1.8785
 20
16.48701763389891
 30
0.0
 11
3.25
 21
17.285714285714285
 31
0.0
  0
LINE
  5
90
330
17
100
AcDbEntity
  8
TOP
100
AcDbLine
 10
3.25
 20
17.285714285714285
 30
0.0
 11
4.6215
 21
16.48701763389891
 31
0.0
  0
LINE
  5
91
330
17
100
AcDbEntity
  8
TOP
100
AcDbLine
 10
5.1285
 20
16.48701763389891
 30
0.0
 11
6.5
 21
17.285714285714285
 31
0.0
  0
LINE
  5
92
330
17
100
AcDbEntity
  8
TOP
100
AcDbLine
 10
6.5
 20
17.285714285714285
 30
0.0
 11
7.8715
 21
16.48701763389891
 31
0.0
  0
LINE
  5
93
330
17
100
AcDbEntity
  8
TOP
100
AcDbLine
 10
8.3785
 20
16.48701763389891
 30
0.0
 11
9.75
 21
17.285714285714285
 31
0.0
  0
LINE
  5
94
330
17
100
AcDbEntity
  8
TOP
100
AcDbLine
 10
9.75
 20
17.285714285714285
 30
0.0
 11
11.1215
 21
16.48701763389891
 31
0.0
  0
LINE
  5
95
330
17
100
AcDbEntity
  8
TOP
100
AcDbLine
 10
11.6285
 20
16.48701763389891
 30
0.0
 11
13.0
 21
17.285714285714285
 31
0.0
  0
LINE
  5
96
330
17
100
AcDbEntity
  8
TOP
100
AcDbLine
 10
0.2535
 20
17.432072578953857
 30
0.0
 11
1.625
 21
18.23076923076923
 31
0.0
  0
LINE
  5
97
330
17
100
AcDbEntity
  8
TOP
100
AcDbLine
 10
1.625
 20
18.23076923076923
 30
0.0
 11
2.9965
 21
17.432072578953857
 31
0.0
  0
LINE
  5
98
330
17
100
AcDbEntity
  8
TOP
100
AcDbLine
 10
3.5035
 20
17.432072578953857
 30
0.0
 11
4.875
 21
18.23076923076923
 31
0.0
  0
LINE
  5
99
330
17
100
AcDbEntity
  8
TOP
100
AcDbLine
 10
4.875
 20
18.23076923076923
 30
0.0
 11
6.2465
 21
17.432072578953857
 31
0.0
  0
LINE
  5
9A
330
17
100
AcDbEntity
  8
TOP
100
AcDbLine
 10
6.7535
 20
17.432072578953857
 30
0.0
 11
8.125
 21
18.23076923076923
 31
0.0
  0
LINE
  5
9B
330
17
100
AcDbEntity
  8
TOP
100
AcDbLine
 10
8.125
 20
18.23076923076923
 30
0.0
 11
9.4965
 21
17.432072578953857
 31
0.0
  0
LINE
  5
9C
330
17
100
AcDbEntity
  8
TOP
100
AcDbLine
 10
10.0035
 20
17.432072578953857
 30
0.0
 11
11.375
 21
18.23076923076923
 31
0.0
  0
LINE
  5
9D
330
17
100
AcDbEntity
  8
TOP
100
AcDbLine
 10
11.375
 20
18.23076923076923
 30
0.0
 11
12.7465
 21
17.432072578953857
 31
0.0
  0
LINE
  5
9E
330
17
100
AcDbEntity
  8
TOP
100
AcDbLine
 10
0.0
 20
19.175824175824175
 30
0.0
 11
1.3715
 21
18.3771275240088
 31
0.0
  0
LINE
  5
9F
330
17
100
AcDbEntity
  8
TOP
100
AcDbLine
 10
1.8785
 20
18.3771275240088
 30
0.0
 11
3.25
 21
19.175824175824175
 31
0.0
  0
LINE
  5
A0
330
17
100
AcDbEntity
  8
TOP
100
AcDbLine
 10
3.25
 20
19.175824175824175
 30
0.0
 11
4.6215
 21
18.3771275240088
 31
0.0
  0
LINE
  5
A1
330
17
100
AcDbEntity
  8
TOP
100
AcDbLine
 10
5.1285
 20
18.3771275240088
 30
0.0
 11
6.5
 21
19.175824175824175
 31
0.0
  0
LINE
  5
A2
330
17
100
AcDbEntity
  8
TOP
100
AcDbLine
 10
6.5
 20
19.175824175824175
 30
0.0
 11
7.8715
 21
18.3771275240088
 31
0.0
  0
LINE
  5
A3
330
17
100
AcDbEntity
  8
TOP
100
AcDbLine
 10
8.3785
 20
18.3771275240088
 30
0.0
 11
9.75
 21
19.175824175824175
 31
0.0
  0
LINE
  5
A4
330
17
100
AcDbEntity
  8
TOP
100
AcDbLine
 10
9.75
 20
19.175824175824175
 30
0.0
 11
11.1215
 21
18.3771275240088
 31
0.0
  0
LINE
  5
A5
330
17
100
AcDbEntity
  8
TOP
100
AcDbLine
 10
11.6285
 20
18.3771275240088
 30
0.0
 11
13.0
 21
19.175824175824175
 31
0.0
  0
LINE
  5
A6
330
17
100
AcDbEntity
  8
TOP
100
AcDbLine
 10
0.2535
 20
19.322182469063748
 30
0.0
 11
1.625
 21
20.12087912087912
 31
0.0
  0
LINE
  5
A7
330
17
100
AcDbEntity
  8
TOP
100
AcDbLine
 10
1.625
 20
20.12087912087912
 30
0.0
 11
2.9965
 21
19.322182469063748
 31
0.0
  0
LINE
  5
A8
330
17
100
AcDbEntity
  8
TOP
100
AcDbLine
 10
3.5035
 20
19.322182469063748
 30
0.0
 11
4.875
 21
20.12087912087912
 31
0.0
  0
LINE
  5
A9
330
17
100
AcDbEntity
  8
TOP
100
AcDbLine
 10
4.875
 20
20.12087912087912
 30
0.0
 11
6.2465
 21
19.322182469063748
 31
0.0
  0
LINE
  5
AA
330
17
100
AcDbEntity
  8
TOP
100
AcDbLine
 10
6.7535
 20
19.322182469063748
 30
0.0
 11
8.125
 21
20.12087912087912
 31
0.0
  0
LINE
  5
AB
330
17
100
AcDbEntity
  8
TOP
100
AcDbLine
 10
8.125
 20
20.12087912087912
 30
0.0
 11
9.4965
 21
19.322182469063748
 31
0.0
  0
LINE
  5
AC
330
17
100
AcDbEntity
  8
TOP
100
AcDbLine
 10
10.0035
 20
19.322182469063748
 30
0.0
 11
11.375
 21
20.12087912087912
 31
0.0
  0
LINE
  5
AD
330
17
100
AcDbEntity
  8
TOP
100
AcDbLine
 10
11.375
 20
20.12087912087912
 30
0.0
 11
12.7465
 21
19.322182469063748
 31
0.0
  0
LINE
  5
AE
330
17
100
AcDbEntity
  8
TOP
100
AcDbLine
 10
0.0
 20
21.065934065934066
 30
0.0
 11
1.3715
 21
20.26723741411869
 31
0.0
  0
LINE
  5
AF
330
17
100
AcDbEntity
  8
TOP
100
AcDbLine
 10
1.8785
 20
20.26723741411869
 30
0.0
 11
3.25
 21
21.065934065934066
 31
0.0
  0
LINE
  5
B0
330
17
100
AcDbEntity
  8
TOP
100
AcDbLine
 10
3.25
 20
21.065934065934066
 30
0.0
 11
4.6215
 21
20.26723741411869
 31
0.0
  0
LINE
  5
B1
330
17
100
AcDbEntity
  8
TOP
100
AcDbLine
 10
5.1285
 20
20.26723741411869
 30
0.0
 11
6.5
 21
21.065934065934066
 31
0.0
  0
LINE
  5
B2
330
17
100
AcDbEntity
  8
TOP
100
AcDbLine
 10
6.5
 20
21.065934065934066
 30
0.0
 11
7.8715
 21
20.26723741411869
 31
0.0
  0
LINE
  5
B3
330
17
100
AcDbEntity
  8
TOP
100
AcDbLine
 10
8.3785
 20
20.26723741411869
 30
0.0
 11
9.75
 21
21.065934065934066
 31
0.0
  0
LINE
  5
B4
330
17
100
AcDbEntity
  8
TOP
100
AcDbLine
 10
9.75
 20
21.065934065934066
 30
0.0
 11
11.1215
 21
20.26723741411869
 31
0.0
  0
LINE
  5
B5
330
17
100
AcDbEntity
  8
TOP
100
AcDbLine
 10
11.6285
 20
20.26723741411869
 30
0.0
 11
13.0
 21
21.065934065934066
 31
0.0
  0
LINE
  5
B6
330
17
100
AcDbEntity
  8
TOP
100
AcDbLine
 10
0.2535
 20
21.212292359173635
 30
0.0
 11
1.625
 21
22.01098901098901
 31
0.0
  0
LINE
  5
B7
330
17
100
AcDbEntity
  8
TOP
100
AcDbLine
 10
1.625
 20
22.01098901098901
 30
0.0
 11
2.9965
 21
21.212292359173635
 31
0.0
  0
LINE
  5
B8
330
17
100
AcDbEntity
  8
TOP
100
AcDbLine
 10
3.5035
 20
21.212292359173635
 30
0.0
 11
4.875
 21
22.01098901098901
 31
0.0
  0
LINE
  5
B9
330
17
100
AcDbEntity
  8
TOP
100
AcDbLine
 10
4.875
 20
22.01098901098901
 30
0.0
 11
6.2465
 21
21.212292359173635
 31
0.0
  0
LINE
  5
BA
330
17
100
AcDbEntity
  8
TOP
100
AcDbLine
 10
6.7535
 20
21.212292359173635
 30
0.0
 11
8.125
 21
22.01098901098901
 31
0.0
  0
LINE
  5
BB
330
17
100
AcDbEntity
  8
TOP
100
AcDbLine
 10
8.125
 20
22.01098901098901
 30
0.0
 11
9.4965
 21
21.212292359173635
 31
0.0
  0
LINE
  5
BC
330
17
100
AcDbEntity
  8
TOP
100
AcDbLine
 10
10.0035
 20
21.212292359173635
 30
0.0
 11
11.375
 21
22.01098901098901
 31
0.0
  0
LINE
  5
BD
330
17
100
AcDbEntity
  8
TOP
100
AcDbLine
 10
11.375
 20
22.01098901098901
 30
0.0
 11
12.7465
 21
21.212292359173635
 31
0.0
  0
LINE
  5
BE
330
17
100
AcDbEntity
  8
TOP
100
AcDbLine
 10
0.0
 20
22.956043956043956
 30
0.0
 11
1.3715
 21
22.15734730422858
 31
0.0
  0
LINE
  5
BF
330
17
100
AcDbEntity
  8
TOP
100
AcDbLine
 10
1.8785
 20
22.15734730422858
 30
0.0
 11
3.25
 21
22.956043956043956
 31
0.0
  0
LINE
  5
C0
330
17
100
AcDbEntity
  8
TOP
100
AcDbLine
 10
3.25
 20
22.956043956043956
 30
0.0
 11
4.6215
 21
22.15734730422858
 31
0.0
  0
LINE
  5
C1
330
17
100
AcDbEntity
  8
TOP
100
AcDbLine
 10
5.1285
 20
22.15734730422858
 30
0.0
 11
6.5
 21
22.956043956043956
 31
0.0
  0
LINE
  5
C2
330
17
100
AcDbEntity
  8
TOP
100
AcDbLine
 10
6.5
 20
22.956043956043956
 30
0.0
 11
7.8715
 21
22.15734730422858
 31
0.0
  0
LINE
  5
C3
330
17
100
AcDbEntity
  8
TOP
100
AcDbLine
 10
8.3785
 20
22.15734730422858
 30
0.0
 11
9.75
 21
22.956043956043956
 31
0.0
  0
LINE
  5
C4
330
17
100
AcDbEntity
  8
TOP
100
AcDbLine
 10
9.75
 20
22.956043956043956
 30
0.0
 11
11.1215
 21
22.15734730422858
 31
0.0
  0
LINE
  5
C5
330
17
100
AcDbEntity
  8
TOP
100
AcDbLine
 10
11.6285
 20
22.15734730422858
 30
0.0
 11
13.0
 21
22.956043956043956
 31
0.0
  0
LINE
  5
C6
330
17
100
AcDbEntity
  8
TOP
100
AcDbLine
 10
0.2535
 20
23.102402249283525
 30
0.0
 11
1.625
 21
23.9010989010989
 31
0.0
  0
LINE
  5
C7
330
17
100
AcDbEntity
  8
TOP
100
AcDbLine
 10
1.625
 20
23.9010989010989
 30
0.0
 11
2.9965
 21
23.102402249283525
 31
0.0
  0
LINE
  5
C8
330
17
100
AcDbEntity
  8
TOP
100
AcDbLine
 10
3.5035
 20
23.102402249283525
 30
0.0
 11
4.875
 21
23.9010989010989
 31
0.0
  0
LINE
  5
C9
330
17
100
AcDbEntity
  8
TOP
100
AcDbLine
 10
4.875
 20
23.9010989010989
 30
0.0
 11
6.2465
 21
23.102402249283525
 31
0.0
  0
LINE
  5
CA
330
17
100
AcDbEntity
  8
TOP
100
AcDbLine
 10
6.7535
 20
23.102402249283525
 30
0.0
 11
8.125
 21
23.9010989010989
 31
0.0
  0
LINE
  5
CB
330
17
100
AcDbEntity
  8
TOP
100
AcDbLine
 10
8.125
 20
23.9010989010989
 30
0.0
 11
9.4965
 21
23.102402249283525
 31
0.0
  0
LINE
  5
CC
330
17
100
AcDbEntity
  8
TOP
100
AcDbLine
 10
10.0035
 20
23.102402249283525
 30
0.0
 11
11.375
 21
23.9010989010989
 31
0.0
  0
LINE
  5
CD
330
17
100
AcDbEntity
  8
TOP
100
AcDbLine
 10
11.375
 20
23.9010989010989
 30
0.0
 11
12.7465
 21
23.102402249283525
 31
0.0
  0
LINE
  5
CE
330
17
100
AcDbEntity
  8
TOP
100
AcDbLine
 10
0.0
 20
24.846153846153847
 30
0.0
 11
1.3715
 21
24.04745719433847
 31
0.0
  0
LINE
  5
CF
330
17
100
AcDbEntity
  8
TOP
100
AcDbLine
 10
1.8785
 20
24.04745719433847
 30
0.0
 11
3.25
 21
24.846153846153847
 31
0.0
  0
LINE
  5
D0
330
17
100
AcDbEntity
  8
TOP
100
AcDbLine
 10
3.25
 20
24.846153846153847
 30
0.0
 11
4.6215
 21
24.04745719433847
 31
0.0
  0
LINE
  5
D1
330
17
100
AcDbEntity
  8
TOP
100
AcDbLine
 10
5.1285
 20
24.04745719433847
 30
0.0
 11
6.5
 21
24.846153846153847
 31
0.0
  0
LINE
  5
D2
330
17
100
AcDbEntity
  8
TOP
100
AcDbLine
 10
6.5
 20
24.846153846153847
 30
0.0
 11
7.8715
 21
24.04745719433847
 31
0.0
  0
LINE
  5
D3
330
17
100
AcDbEntity
  8
TOP
100
AcDbLine
 10
8.3785
 20
24.04745719433847
 30
0.0
 11
9.75
 21
24.846153846153847
 31
0.0
  0
LINE
  5
D4
330
17
100
AcDbEntity
  8
TOP
100
AcDbLine
 10
9.75
 20
24.846153846153847
 30
0.0
 11
11.1215
 21
24.04745719433847
 31
0.0
  0
LINE
  5
D5
330
17
100
AcDbEntity
  8
TOP
100
AcDbLine
 10
11.6285
 20
24.04745719433847
 30
0.0
 11
13.0
 21
24.846153846153847
 31
0.0
  0
LINE
  5
D6
330
17
100
AcDbEntity
  8
TOP
100
AcDbLine
 10
0.2535
 20
24.992512139393416
 30
0.0
 11
1.625
 21
25.791208791208792
 31
0.0
  0
LINE
  5
D7
330
17
100
AcDbEntity
  8
TOP
100
AcDbLine
 10
1.625
 20
25.791208791208792
 30
0.0
 11
2.9965
 21
24.992512139393416
 31
0.0
  0
LINE
  5
D8
330
17
100
AcDbEntity
  8
TOP
100
AcDbLine
 10
3.5035
 20
24.992512139393416
 30
0.0
 11
4.875
 21
25.791208791208792
 31
0.0
  0
LINE
  5
D9
330
17
100
AcDbEntity
  8
TOP
100
AcDbLine
 10
4.875
 20
25.791208791208792
 30
0.0
 11
6.2465
 21
24.992512139393416
 31
0.0
  0
LINE
  5
DA
330
17
100
AcDbEntity
  8
TOP
100
AcDbLine
 10
6.7535
 20
24.992512139393416
 30
0.0
 11
8.125
 21
25.791208791208792
 31
0.0
  0
LINE
  5
DB
330
17
100
AcDbEntity
  8
TOP
100
AcDbLine
 10
8.125
 20
25.791208791208792
 30
0.0
 11
9.4965
 21
24.992512139393416
 31
0.0
  0
LINE
  5
DC
330
17
100
AcDbEntity
  8
TOP
100
AcDbLine
 10
10.0035
 20
24.992512139393416
 30
0.0
 11
11.375
 21
25.791208791208792
 31
0.0
  0
LINE
  5
DD
330
17
100
AcDbEntity
  8
TOP
100
AcDbLine
 10
11.375
 20
25.791208791208792
 30
0.0
 11
12.7465
 21
24.992512139393416
 31
0.0
  0
LINE
  5
DE
330
17
100
AcDbEntity
  8
TOP
100
AcDbLine
 10
0.0
 20
26.736263736263737
 30
0.0
 11
1.3715
 21
25.93756708444836
 31
0.0
  0
LINE
  5
DF
330
17
100
AcDbEntity
  8
TOP
100
AcDbLine
 10
1.8785
 20
25.93756708444836
 30
0.0
 11
3.25
 21
26.736263736263737
 31
0.0
  0
LINE
  5
E0
330
17
100
AcDbEntity
  8
TOP
100
AcDbLine
 10
3.25
 20
26.736263736263737
 30
0.0
 11
4.6215
 21
25.93756708444836
 31
0.0
  0
LINE
  5
E1
330
17
100
AcDbEntity
  8
TOP
100
AcDbLine
 10
5.1285
 20
25.93756708444836
 30
0.0
 11
6.5
 21
26.736263736263737
 31
0.0
  0
LINE
  5
E2
330
17
100
AcDbEntity
  8
TOP
100
AcDbLine
 10
6.5
 20
26.736263736263737
 30
0.0
 11
7.8715
 21
25.93756708444836
 31
0.0
  0
LINE
  5
E3
330
17
100
AcDbEntity
  8
TOP
100
AcDbLine
 10
8.3785
 20
25.93756708444836
 30
0.0
 11
9.75
 21
26.736263736263737
 31
0.0
  0
LINE
  5
E4
330
17
100
AcDbEntity
  8
TOP
100
AcDbLine
 10
9.75
 20
26.736263736263737
 30
0.0
 11
11.1215
 21
25.93756708444836
 31
0.0
  0
LINE
  5
E5
330
17
100
AcDbEntity
  8
TOP
100
AcDbLine
 10
11.6285
 20
25.93756708444836
 30
0.0
 11
13.0
 21
26.736263736263737
 31
0.0
  0
LINE
  5
E6
330
17
100
AcDbEntity
  8
TOP
100
AcDbLine
 10
0.2535
 20
26.882622029503306
 30
0.0
 11
1.625
 21
27.68131868131868
 31
0.0
  0
LINE
  5
E7
330
17
100
AcDbEntity
  8
TOP
100
AcDbLine
 10
1.625
 20
27.68131868131868
 30
0.0
 11
2.9965
 21
26.882622029503306
 31
0.0
  0
LINE
  5
E8
330
17
100
AcDbEntity
  8
TOP
100
AcDbLine
 10
3.5035
 20
26.882622029503306
 30
0.0
 11
4.875
 21
27.68131868131868
 31
0.0
  0
LINE
  5
E9
330
17
100
AcDbEntity
  8
TOP
100
AcDbLine
 10
4.875
 20
27.68131868131868
 30
0.0
 11
6.2465
 21
26.882622029503306
 31
0.0
  0
LINE
  5
EA
330
17
100
AcDbEntity
  8
TOP
100
AcDbLine
 10
6.7535
 20
26.882622029503306
 30
0.0
 11
8.125
 21
27.68131868131868
 31
0.0
  0
LINE
  5
EB
330
17
100
AcDbEntity
  8
TOP
100
AcDbLine
 10
8.125
 20
27.68131868131868
 30
0.0
 11
9.4965
 21
26.882622029503306
 31
0.0
  0
LINE
  5
EC
330
17
100
AcDbEntity
  8
TOP
100
AcDbLine
 10
10.0035
 20
26.882622029503306
 30
0.0
 11
11.375
 21
27.68131868131868
 31
0.0
  0
LINE
  5
ED
330
17
100
AcDbEntity
  8
TOP
100
AcDbLine
 10
11.375
 20
27.68131868131868
 30
0.0
 11
12.7465
 21
26.882622029503306
 31
0.0
  0
LINE
  5
EE
330
17
100
AcDbEntity
  8
TOP
100
AcDbLine
 10
0.0
 20
28.626373626373624
 30
0.0
 11
1.3715
 21
27.827676974558248
 31
0.0
  0
LINE
  5
EF
330
17
100
AcDbEntity
  8
TOP
100
AcDbLine
 10
1.8785
 20
27.827676974558248
 30
0.0
 11
3.25
 21
28.626373626373624
 31
0.0
  0
LINE
  5
F0
330
17
100
AcDbEntity
  8
TOP
100
AcDbLine
 10
3.25
 20
28.626373626373624
 30
0.0
 11
4.6215
 21
27.827676974558248
 31
0.0
  0
LINE
  5
F1
330
17
100
AcDbEntity
  8
TOP
100
AcDbLine
 10
5.1285
 20
27.827676974558248
 30
0.0
 11
6.5
 21
28.626373626373624
 31
0.0
  0
LINE
  5
F2
330
17
100
AcDbEntity
  8
TOP
100
AcDbLine
 10
6.5
 20
28.626373626373624
 30
0.0
 11
7.8715
 21
27.827676974558248
 31
0.0
  0
LINE
  5
F3
330
17
100
AcDbEntity
  8
TOP
100
AcDbLine
 10
8.3785
 20
27.827676974558248
 30
0.0
 11
9.75
 21
28.626373626373624
 31
0.0
  0
LINE
  5
F4
330
17
100
AcDbEntity
  8
TOP
100
AcDbLine
 10
9.75
 20
28.626373626373624
 30
0.0
 11
11.1215
 21
27.827676974558248
 31
0.0
  0
LINE
  5
F5
330
17
100
AcDbEntity
  8
TOP
100
AcDbLine
 10
11.6285
 20
27.827676974558248
 30
0.0
 11
13.0
 21
28.626373626373624
 31
0.0
  0
LINE
  5
F6
330
17
100
AcDbEntity
  8
TOP
100
AcDbLine
 10
0.2535
 20
28.772731919613193
 30
0.0
 11
1.625
 21
29.57142857142857
 31
0.0
  0
LINE
  5
F7
330
17
100
AcDbEntity
  8
TOP
100
AcDbLine
 10
1.625
 20
29.57142857142857
 30
0.0
 11
2.9965
 21
28.772731919613193
 31
0.0
  0
LINE
  5
F8
330
17
100
AcDbEntity
  8
TOP
100
AcDbLine
 10
3.5035
 20
28.772731919613193
 30
0.0
 11
4.875
 21
29.57142857142857
 31
0.0
  0
LINE
  5
F9
330
17
100
AcDbEntity
  8
TOP
100
AcDbLine
 10
4.875
 20
29.57142857142857
 30
0.0
 11
6.2465
 21
28.772731919613193
 31
0.0
  0
LINE
  5
FA
330
17
100
AcDbEntity
  8
TOP
100
AcDbLine
 10
6.7535
 20
28.772731919613193
 30
0.0
 11
8.125
 21
29.57142857142857
 31
0.0
  0
LINE
  5
FB
330
17
100
AcDbEntity
  8
TOP
100
AcDbLine
 10
8.125
 20
29.57142857142857
 30
0.0
 11
9.4965
 21
28.772731919613193
 31
0.0
  0
LINE
  5
FC
330
17
100
AcDbEntity
  8
TOP
100
AcDbLine
 10
10.0035
 20
28.772731919613193
 30
0.0
 11
11.375
 21
29.57142857142857
 31
0.0
  0
LINE
  5
FD
330
17
100
AcDbEntity
  8
TOP
100
AcDbLine
 10
11.375
 20
29.57142857142857
 30
0.0
 11
12.7465
 21
28.772731919613193
 31
0.0
  0
LINE
  5
FE
330
17
100
AcDbEntity
  8
TOP
100
AcDbLine
 10
0.0
 20
30.516483516483515
 30
0.0
 11
1.3715
 21
29.71778686466814
 31
0.0
  0
LINE
  5
FF
330
17
100
AcDbEntity
  8
TOP
100
AcDbLine
 10
1.8785
 20
29.71778686466814
 30
0.0
 11
3.25
 21
30.516483516483515
 31
0.0
  0
LINE
  5
100
330
17
100
AcDbEntity
  8
TOP
100
AcDbLine
 10
3.25
 20
30.516483516483515
 30
0.0
 11
4.6215
 21
29.71778686466814
 31
0.0
  0
LINE
  5
101
330
17
100
AcDbEntity
  8
TOP
100
AcDbLine
 10
5.1285
 20
29.71778686466814
 30
0.0
 11
6.5
 21
30.516483516483515
 31
0.0
  0
LINE
  5
102
330
17
100
AcDbEntity
  8
TOP
100
AcDbLine
 10
6.5
 20
30.516483516483515
 30
0.0
 11
7.8715
 21
29.71778686466814
 31
0.0
  0
LINE
  5
103
330
17
100
AcDbEntity
  8
TOP
100
AcDbLine
 10
8.3785
 20
29.71778686466814
 30
0.0
 11
9.75
 21
30.516483516483515
 31
0.0
  0
LINE
  5
104
330
17
100
AcDbEntity
  8
TOP
100
AcDbLine
 10
9.75
 20
30.516483516483515
 30
0.0
 11
11.1215
 21
29.71778686466814
 31
0.0
  0
LINE
  5
105
330
17
100
AcDbEntity
  8
TOP
100
AcDbLine
 10
11.6285
 20
29.71778686466814
 30
0.0
 11
13.0
 21
30.516483516483515
 31
0.0
  0
LINE
  5
106
330
17
100
AcDbEntity
  8
TOP
100
AcDbLine
 10
0.2535
 20
30.662841809723083
 30
0.0
 11
1.625
 21
31.46153846153846
 31
0.0
  0
LINE
  5
107
330
17
100
AcDbEntity
  8
TOP
100
AcDbLine
 10
1.625
 20
31.46153846153846
 30
0.0
 11
2.9965
 21
30.662841809723083
 31
0.0
  0
LINE
  5
108
330
17
100
AcDbEntity
  8
TOP
100
AcDbLine
 10
3.5035
 20
30.662841809723083
 30
0.0
 11
4.875
 21
31.46153846153846
 31
0.0
  0
LINE
  5
109
330
17
100
AcDbEntity
  8
TOP
100
AcDbLine
 10
4.875
 20
31.46153846153846
 30
0.0
 11
6.2465
 21
30.662841809723083
 31
0.0
  0
LINE
  5
10A
330
17
100
AcDbEntity
  8
TOP
100
AcDbLine
 10
6.7535
 20
30.662841809723083
 30
0.0
 11
8.125
 21
31.46153846153846
 31
0.0
  0
LINE
  5
10B
330
17
100
AcDbEntity
  8
TOP
100
AcDbLine
 10
8.125
 20
31.46153846153846
 30
0.0
 11
9.4965
 21
30.662841809723083
 31
0.0
  0
LINE
  5
10C
330
17
100
AcDbEntity
  8
TOP
100
AcDbLine
 10
10.0035
 20
30.662841809723083
 30
0.0
 11
11.375
 21
31.46153846153846
 31
0.0
  0
LINE
  5
10D
330
17
100
AcDbEntity
  8
TOP
100
AcDbLine
 10
11.375
 20
31.46153846153846
 30
0.0
 11
12.7465
 21
30.662841809723083
 31
0.0
  0
LINE
  5
10E
330
17
100
AcDbEntity
  8
TOP
100
AcDbLine
 10
0.0
 20
32.4065934065934
 30
0.0
 11
1.3715
 21
31.60789675477803
 31
0.0
  0
LINE
  5
10F
330
17
100
AcDbEntity
  8
TOP
100
AcDbLine
 10
1.8785
 20
31.60789675477803
 30
0.0
 11
3.25
 21
32.4065934065934
 31
0.0
  0
LINE
  5
110
330
17
100
AcDbEntity
  8
TOP
100
AcDbLine
 10
3.25
 20
32.4065934065934
 30
0.0
 11
4.6215
 21
31.60789675477803
 31
0.0
  0
LINE
  5
111
330
17
100
AcDbEntity
  8
TOP
100
AcDbLine
 10
5.1285
 20
31.60789675477803
 30
0.0
 11
6.5
 21
32.4065934065934
 31
0.0
  0
LINE
  5
112
330
17
100
AcDbEntity
  8
TOP
100
AcDbLine
 10
6.5
 20
32.4065934065934
 30
0.0
 11
7.8715
 21
31.60789675477803
 31
0.0
  0
LINE
  5
113
330
17
100
AcDbEntity
  8
TOP
100
AcDbLine
 10
8.3785
 20
31.60789675477803
 30
0.0
 11
9.75
 21
32.4065934065934
 31
0.0
  0
LINE
  5
114
330
17
100
AcDbEntity
  8
TOP
100
AcDbLine
 10
9.75
 20
32.4065934065934
 30
0.0
 11
11.1215
 21
31.60789675477803
 31
0.0
  0
LINE
  5
115
330
17
100
AcDbEntity
  8
TOP
100
AcDbLine
 10
11.6285
 20
31.60789675477803
 30
0.0
 11
13.0
 21
32.4065934065934
 31
0.0
  0
LINE
  5
116
330
17
100
AcDbEntity
  8
TOP
100
AcDbLine
 10
0.2535
 20
32.552951699832974
 30
0.0
 11
1.625
 21
33.35164835164835
 31
0.0
  0
LINE
  5
117
330
17
100
AcDbEntity
  8
TOP
100
AcDbLine
 10
1.625
 20
33.35164835164835
 30
0.0
 11
2.9965
 21
32.552951699832974
 31
0.0
  0
LINE
  5
118
330
17
100
AcDbEntity
  8
TOP
100
AcDbLine
 10
3.5035
 20
32.552951699832974
 30
0.0
 11
4.875
 21
33.35164835164835
 31
0.0
  0
LINE
  5
119
330
17
100
AcDbEntity
  8
TOP
100
AcDbLine
 10
4.875
 20
33.35164835164835
 30
0.0
 11
6.2465
 21
32.552951699832974
 31
0.0
  0
LINE
  5
11A
330
17
100
AcDbEntity
  8
TOP
100
AcDbLine
 10
6.7535
 20
32.552951699832974
 30
0.0
 11
8.125
 21
33.35164835164835
 31
0.0
  0
LINE
  5
11B
330
17
100
AcDbEntity
  8
TOP
100
AcDbLine
 10
8.125
 20
33.35164835164835
 30
0.0
 11
9.4965
 21
32.552951699832974
 31
0.0
  0
LINE
  5
11C
330
17
100
AcDbEntity
  8
TOP
100
AcDbLine
 10
10.0035
 20
32.552951699832974
 30
0.0
 11
11.375
 21
33.35164835164835
 31
0.0
  0
LINE
  5
11D
330
17
100
AcDbEntity
  8
TOP
100
AcDbLine
 10
11.375
 20
33.35164835164835
 30
0.0
 11
12.7465
 21
32.552951699832974
 31
0.0
  0
LINE
  5
11E
330
17
100
AcDbEntity
  8
TOP
100
AcDbLine
 10
0.0
 20
34.2967032967033
 30
0.0
 11
1.3715
 21
33.49800664488792
 31
0.0
  0
LINE
  5
11F
330
17
100
AcDbEntity
  8
TOP
100
AcDbLine
 10
1.8785
 20
33.49800664488792
 30
0.0
 11
3.25
 21
34.2967032967033
 31
0.0
  0
LINE
  5
120
330
17
100
AcDbEntity
  8
TOP
100
AcDbLine
 10
3.25
 20
34.2967032967033
 30
0.0
 11
4.6215
 21
33.49800664488792
 31
0.0
  0
LINE
  5
121
330
17
100
AcDbEntity
  8
TOP
100
AcDbLine
 10
5.1285
 20
33.49800664488792
 30
0.0
 11
6.5
 21
34.2967032967033
 31
0.0
  0
LINE
  5
122
330
17
100
AcDbEntity
  8
TOP
100
AcDbLine
 10
6.5
 20
34.2967032967033
 30
0.0
 11
7.8715
 21
33.49800664488792
 31
0.0
  0
LINE
  5
123
330
17
100
AcDbEntity
  8
TOP
100
AcDbLine
 10
8.3785
 20
33.49800664488792
 30
0.0
 11
9.75
 21
34.2967032967033
 31
0.0
  0
LINE
  5
124
330
17
100
AcDbEntity
  8
TOP
100
AcDbLine
 10
9.75
 20
34.2967032967033
 30
0.0
 11
11.1215
 21
33.49800664488792
 31
0.0
  0
LINE
  5
125
330
17
100
AcDbEntity
  8
TOP
100
AcDbLine
 10
11.6285
 20
33.49800664488792
 30
0.0
 11
13.0
 21
34.2967032967033
 31
0.0
  0
LINE
  5
126
330
17
100
AcDbEntity
  8
TOP
100
AcDbLine
 10
0.2535
 20
34.443061589942864
 30
0.0
 11
1.625
 21
35.24175824175824
 31
0.0
  0
LINE
  5
127
330
17
100
AcDbEntity
  8
TOP
100
AcDbLine
 10
1.625
 20
35.24175824175824
 30
0.0
 11
2.9965
 21
34.443061589942864
 31
0.0
  0
LINE
  5
128
330
17
100
AcDbEntity
  8
TOP
100
AcDbLine
 10
3.5035
 20
34.443061589942864
 30
0.0
 11
4.875
 21
35.24175824175824
 31
0.0
  0
LINE
  5
129
330
17
100
AcDbEntity
  8
TOP
100
AcDbLine
 10
4.875
 20
35.24175824175824
 30
0.0
 11
6.2465
 21
34.443061589942864
 31
0.0
  0
LINE
  5
12A
330
17
100
AcDbEntity
  8
TOP
100
AcDbLine
 10
6.7535
 20
34.443061589942864
 30
0.0
 11
8.125
 21
35.24175824175824
 31
0.0
  0
LINE
  5
12B
330
17
100
AcDbEntity
  8
TOP
100
AcDbLine
 10
8.125
 20
35.24175824175824
 30
0.0
 11
9.4965
 21
34.443061589942864
 31
0.0
  0
LINE
  5
12C
330
17
100
AcDbEntity
  8
TOP
100
AcDbLine
 10
10.0035
 20
34.443061589942864
 30
0.0
 11
11.375
 21
35.24175824175824
 31
0.0
  0
LINE
  5
12D
330
17
100
AcDbEntity
  8
TOP
100
AcDbLine
 10
11.375
 20
35.24175824175824
 30
0.0
 11
12.7465
 21
34.443061589942864
 31
0.0
  0
LINE
  5
12E
330
17
100
AcDbEntity
  8
TOP
100
AcDbLine
 10
0.0
 20
36.18681318681318
 30
0.0
 11
1.3715
 21
35.388116534997806
 31
0.0
  0
LINE
  5
12F
330
17
100
AcDbEntity
  8
TOP
100
AcDbLine
 10
1.8785
 20
35.388116534997806
 30
0.0
 11
3.25
 21
36.18681318681318
 31
0.0
  0
LINE
  5
130
330
17
100
AcDbEntity
  8
TOP
100
AcDbLine
 10
3.25
 20
36.18681318681318
 30
0.0
 11
4.6215
 21
35.388116534997806
 31
0.0
  0
LINE
  5
131
330
17
100
AcDbEntity
  8
TOP
100
AcDbLine
 10
5.1285
 20
35.388116534997806
 30
0.0
 11
6.5
 21
36.18681318681318
 31
0.0
  0
LINE
  5
132
330
17
100
AcDbEntity
  8
TOP
100
AcDbLine
 10
6.5
 20
36.18681318681318
 30
0.0
 11
7.8715
 21
35.388116534997806
 31
0.0
  0
LINE
  5
133
330
17
100
AcDbEntity
  8
TOP
100
AcDbLine
 10
8.3785
 20
35.388116534997806
 30
0.0
 11
9.75
 21
36.18681318681318
 31
0.0
  0
LINE
  5
134
330
17
100
AcDbEntity
  8
TOP
100
AcDbLine
 10
9.75
 20
36.18681318681318
 30
0.0
 11
11.1215
 21
35.388116534997806
 31
0.0
  0
LINE
  5
135
330
17
100
AcDbEntity
  8
TOP
100
AcDbLine
 10
11.6285
 20
35.388116534997806
 30
0.0
 11
13.0
 21
36.18681318681318
 31
0.0
  0
LINE
  5
136
330
17
100
AcDbEntity
  8
TOP
100
AcDbLine
 10
0.2535
 20
36.333171480052755
 30
0.0
 11
1.625
 21
37.13186813186813
 31
0.0
  0
LINE
  5
137
330
17
100
AcDbEntity
  8
TOP
100
AcDbLine
 10
1.625
 20
37.13186813186813
 30
0.0
 11
2.9965
 21
36.333171480052755
 31
0.0
  0
LINE
  5
138
330
17
100
AcDbEntity
  8
TOP
100
AcDbLine
 10
3.5035
 20
36.333171480052755
 30
0.0
 11
4.875
 21
37.13186813186813
 31
0.0
  0
LINE
  5
139
330
17
100
AcDbEntity
  8
TOP
100
AcDbLine
 10
4.875
 20
37.13186813186813
 30
0.0
 11
6.2465
 21
36.333171480052755
 31
0.0
  0
LINE
  5
13A
330
17
100
AcDbEntity
  8
TOP
100
AcDbLine
 10
6.7535
 20
36.333171480052755
 30
0.0
 11
8.125
 21
37.13186813186813
 31
0.0
  0
LINE
  5
13B
330
17
100
AcDbEntity
  8
TOP
100
AcDbLine
 10
8.125
 20
37.13186813186813
 30
0.0
 11
9.4965
 21
36.333171480052755
 31
0.0
  0
LINE
  5
13C
330
17
100
AcDbEntity
  8
TOP
100
AcDbLine
 10
10.0035
 20
36.333171480052755
 30
0.0
 11
11.375
 21
37.13186813186813
 31
0.0
  0
LINE
  5
13D
330
17
100
AcDbEntity
  8
TOP
100
AcDbLine
 10
11.375
 20
37.13186813186813
 30
0.0
 11
12.7465
 21
36.333171480052755
 31
0.0
  0
LINE
  5
13E
330
17
100
AcDbEntity
  8
TOP
100
AcDbLine
 10
0.0
 20
38.07692307692307
 30
0.0
 11
1.3715
 21
37.278226425107704
 31
0.0
  0
LINE
  5
13F
330
17
100
AcDbEntity
  8
TOP
100
AcDbLine
 10
1.8785
 20
37.278226425107704
 30
0.0
 11
3.25
 21
38.07692307692307
 31
0.0
  0
LINE
  5
140
330
17
100
AcDbEntity
  8
TOP
100
AcDbLine
 10
3.25
 20
38.07692307692307
 30
0.0
 11
4.6215
 21
37.278226425107704
 31
0.0
  0
LINE
  5
141
330
17
100
AcDbEntity
  8
TOP
100
AcDbLine
 10
5.1285
 20
37.278226425107704
 30
0.0
 11
6.5
 21
38.07692307692307
 31
0.0
  0
LINE
  5
142
330
17
100
AcDbEntity
  8
TOP
100
AcDbLine
 10
6.5
 20
38.07692307692307
 30
0.0
 11
7.8715
 21
37.278226425107704
 31
0.0
  0
LINE
  5
143
330
17
100
AcDbEntity
  8
TOP
100
AcDbLine
 10
8.3785
 20
37.278226425107704
 30
0.0
 11
9.75
 21
38.07692307692307
 31
0.0
  0
LINE
  5
144
330
17
100
AcDbEntity
  8
TOP
100
AcDbLine
 10
9.75
 20
38.07692307692307
 30
0.0
 11
11.1215
 21
37.278226425107704
 31
0.0
  0
LINE
  5
145
330
17
100
AcDbEntity
  8
TOP
100
AcDbLine
 10
11.6285
 20
37.278226425107704
 30
0.0
 11
13.0
 21
38.07692307692307
 31
0.0
  0
LINE
  5
146
330
17
100
AcDbEntity
  8
TOP
100
AcDbLine
 10
0.2535
 20
38.223281370162645
 30
0.0
 11
1.625
 21
39.02197802197802
 31
0.0
  0
LINE
  5
147
330
17
100
AcDbEntity
  8
TOP
100
AcDbLine
 10
1.625
 20
39.02197802197802
 30
0.0
 11
2.9965
 21
38.223281370162645
 31
0.0
  0
LINE
  5
148
330
17
100
AcDbEntity
  8
TOP
100
AcDbLine
 10
3.5035
 20
38.223281370162645
 30
0.0
 11
4.875
 21
39.02197802197802
 31
0.0
  0
LINE
  5
149
330
17
100
AcDbEntity
  8
TOP
100
AcDbLine
 10
4.875
 20
39.02197802197802
 30
0.0
 11
6.2465
 21
38.223281370162645
 31
0.0
  0
LINE
  5
14A
330
17
100
AcDbEntity
  8
TOP
100
AcDbLine
 10
6.7535
 20
38.223281370162645
 30
0.0
 11
8.125
 21
39.02197802197802
 31
0.0
  0
LINE
  5
14B
330
17
100
AcDbEntity
  8
TOP
100
AcDbLine
 10
8.125
 20
39.02197802197802
 30
0.0
 11
9.4965
 21
38.223281370162645
 31
0.0
  0
LINE
  5
14C
330
17
100
AcDbEntity
  8
TOP
100
AcDbLine
 10
10.0035
 20
38.223281370162645
 30
0.0
 11
11.375
 21
39.02197802197802
 31
0.0
  0
LINE
  5
14D
330
17
100
AcDbEntity
  8
TOP
100
AcDbLine
 10
11.375
 20
39.02197802197802
 30
0.0
 11
12.7465
 21
38.223281370162645
 31
0.0
  0
LINE
  5
14E
330
17
100
AcDbEntity
  8
TOP
100
AcDbLine
 10
0.0
 20
39.967032967032964
 30
0.0
 11
1.3715
 21
39.168336315217594
 31
0.0
  0
LINE
  5
14F
330
17
100
AcDbEntity
  8
TOP
100
AcDbLine
 10
1.8785
 20
39.168336315217594
 30
0.0
 11
3.25
 21
39.967032967032964
 31
0.0
  0
LINE
  5
150
330
17
100
AcDbEntity
  8
TOP
100
AcDbLine
 10
3.25
 20
39.967032967032964
 30
0.0
 11
4.6215
 21
39.168336315217594
 31
0.0
  0
LINE
  5
151
330
17
100
AcDbEntity
  8
TOP
100
AcDbLine
 10
5.1285
 20
39.168336315217594
 30
0.0
 11
6.5
 21
39.967032967032964
 31
0.0
  0
LINE
  5
152
330
17
100
AcDbEntity
  8
TOP
100
AcDbLine
 10
6.5
 20
39.967032967032964
 30
0.0
 11
7.8715
 21
39.168336315217594
 31
0.0
  0
LINE
  5
153
330
17
100
AcDbEntity
  8
TOP
100
AcDbLine
 10
8.3785
 20
39.168336315217594
 30
0.0
 11
9.75
 21
39.967032967032964
 31
0.0
  0
LINE
  5
154
330
17
100
AcDbEntity
  8
TOP
100
AcDbLine
 10
9.75
 20
39.967032967032964
 30
0.0
 11
11.1215
 21
39.168336315217594
 31
0.0
  0
LINE
  5
155
330
17
100
AcDbEntity
  8
TOP
100
AcDbLine
 10
11.6285
 20
39.168336315217594
 30
0.0
 11
13.0
 21
39.967032967032964
 31
0.0
  0
LINE
  5
156
330
17
100
AcDbEntity
  8
TOP
100
AcDbLine
 10
0.2535
 20
40.113391260272536
 30
0.0
 11
1.625
 21
40.91208791208791
 31
0.0
  0
LINE
  5
157
330
17
100
AcDbEntity
  8
TOP
100
AcDbLine
 10
1.625
 20
40.91208791208791
 30
0.0
 11
2.9965
 21
40.113391260272536
 31
0.0
  0
LINE
  5
158
330
17
100
AcDbEntity
  8
TOP
100
AcDbLine
 10
3.5035
 20
40.113391260272536
 30
0.0
 11
4.875
 21
40.91208791208791
 31
0.0
  0
LINE
  5
159
330
17
100
AcDbEntity
  8
TOP
100
AcDbLine
 10
4.875
 20
40.91208791208791
 30
0.0
 11
6.2465
 21
40.113391260272536
 31
0.0
  0
LINE
  5
15A
330
17
100
AcDbEntity
  8
TOP
100
AcDbLine
 10
6.7535
 20
40.113391260272536
 30
0.0
 11
8.125
 21
40.91208791208791
 31
0.0
  0
LINE
  5
15B
330
17
100
AcDbEntity
  8
TOP
100
AcDbLine
 10
8.125
 20
40.91208791208791
 30
0.0
 11
9.4965
 21
40.113391260272536
 31
0.0
  0
LINE
  5
15C
330
17
100
AcDbEntity
  8
TOP
100
AcDbLine
 10
10.0035
 20
40.113391260272536
 30
0.0
 11
11.375
 21
40.91208791208791
 31
0.0
  0
LINE
  5
15D
330
17
100
AcDbEntity
  8
TOP
100
AcDbLine
 10
11.375
 20
40.91208791208791
 30
0.0
 11
12.7465
 21
40.113391260272536
 31
0.0
  0
LINE
  5
15E
330
17
100
AcDbEntity
  8
TOP
100
AcDbLine
 10
0.0
 20
41.857142857142854
 30
0.0
 11
1.3715
 21
41.058446205327485
 31
0.0
  0
LINE
  5
15F
330
17
100
AcDbEntity
  8
TOP
100
AcDbLine
 10
1.8785
 20
41.058446205327485
 30
0.0
 11
3.25
 21
41.857142857142854
 31
0.0
  0
LINE
  5
160
330
17
100
AcDbEntity
  8
TOP
100
AcDbLine
 10
3.25
 20
41.857142857142854
 30
0.0
 11
4.6215
 21
41.058446205327485
 31
0.0
  0
LINE
  5
161
330
17
100
AcDbEntity
  8
TOP
100
AcDbLine
 10
5.1285
 20
41.058446205327485
 30
0.0
 11
6.5
 21
41.857142857142854
 31
0.0
  0
LINE
  5
162
330
17
100
AcDbEntity
  8
TOP
100
AcDbLine
 10
6.5
 20
41.857142857142854
 30
0.0
 11
7.8715
 21
41.058446205327485
 31
0.0
  0
LINE
  5
163
330
17
100
AcDbEntity
  8
TOP
100
AcDbLine
 10
8.3785
 20
41.058446205327485
 30
0.0
 11
9.75
 21
41.857142857142854
 31
0.0
  0
LINE
  5
164
330
17
100
AcDbEntity
  8
TOP
100
AcDbLine
 10
9.75
 20
41.857142857142854
 30
0.0
 11
11.1215
 21
41.058446205327485
 31
0.0
  0
LINE
  5
165
330
17
100
AcDbEntity
  8
TOP
100
AcDbLine
 10
11.6285
 20
41.058446205327485
 30
0.0
 11
13.0
 21
41.857142857142854
 31
0.0
  0
LINE
  5
166
330
17
100
AcDbEntity
  8
TOP
100
AcDbLine
 10
0.2535
 20
42.00350115038243
 30
0.0
 11
1.625
 21
42.8021978021978
 31
0.0
  0
LINE
  5
167
330
17
100
AcDbEntity
  8
TOP
100
AcDbLine
 10
1.625
 20
42.8021978021978
 30
0.0
 11
2.9965
 21
42.00350115038243
 31
0.0
  0
LINE
  5
168
330
17
100
AcDbEntity
  8
TOP
100
AcDbLine
 10
3.5035
 20
42.00350115038243
 30
0.0
 11
4.875
 21
42.8021978021978
 31
0.0
  0
LINE
  5
169
330
17
100
AcDbEntity
  8
TOP
100
AcDbLine
 10
4.875
 20
42.8021978021978
 30
0.0
 11
6.2465
 21
42.00350115038243
 31
0.0
  0
LINE
  5
16A
330
17
100
AcDbEntity
  8
TOP
100
AcDbLine
 10
6.7535
 20
42.00350115038243
 30
0.0
 11
8.125
 21
42.8021978021978
 31
0.0
  0
LINE
  5
16B
330
17
100
AcDbEntity
  8
TOP
100
AcDbLine
 10
8.125
 20
42.8021978021978
 30
0.0
 11
9.4965
 21
42.00350115038243
 31
0.0
  0
LINE
  5
16C
330
17
100
AcDbEntity
  8
TOP
100
AcDbLine
 10
10.0035
 20
42.00350115038243
 30
0.0
 11
11.375
 21
42.8021978021978
 31
0.0
  0
LINE
  5
16D
330
17
100
AcDbEntity
  8
TOP
100
AcDbLine
 10
11.375
 20
42.8021978021978
 30
0.0
 11
12.7465
 21
42.00350115038243
 31
0.0
  0
LINE
  5
16E
330
17
100
AcDbEntity
  8
TOP
100
AcDbLine
 10
0.0
 20
43.747252747252745
 30
0.0
 11
1.3715
 21
42.948556095437375
 31
0.0
  0
LINE
  5
16F
330
17
100
AcDbEntity
  8
TOP
100
AcDbLine
 10
1.8785
 20
42.948556095437375
 30
0.0
 11
3.25
 21
43.747252747252745
 31
0.0
  0
LINE
  5
170
330
17
100
AcDbEntity
  8
TOP
100
AcDbLine
 10
3.25
 20
43.747252747252745
 30
0.0
 11
4.6215
 21
42.948556095437375
 31
0.0
  0
LINE
  5
171
330
17
100
AcDbEntity
  8
TOP
100
AcDbLine
 10
5.1285
 20
42.948556095437375
 30
0.0
 11
6.5
 21
43.747252747252745
 31
0.0
  0
LINE
  5
172
330
17
100
AcDbEntity
  8
TOP
100
AcDbLine
 10
6.5
 20
43.747252747252745
 30
0.0
 11
7.8715
 21
42.948556095437375
 31
0.0
  0
LINE
  5
173
330
17
100
AcDbEntity
  8
TOP
100
AcDbLine
 10
8.3785
 20
42.948556095437375
 30
0.0
 11
9.75
 21
43.747252747252745
 31
0.0
  0
LINE
  5
174
330
17
100
AcDbEntity
  8
TOP
100
AcDbLine
 10
9.75
 20
43.747252747252745
 30
0.0
 11
11.1215
 21
42.948556095437375
 31
0.0
  0
LINE
  5
175
330
17
100
AcDbEntity
  8
TOP
100
AcDbLine
 10
11.6285
 20
42.948556095437375
 30
0.0
 11
13.0
 21
43.747252747252745
 31
0.0
  0
LINE
  5
176
330
17
100
AcDbEntity
  8
TOP
100
AcDbLine
 10
0.2535
 20
43.89361104049232
 30
0.0
 11
1.625
 21
44.69230769230769
 31
0.0
  0
LINE
  5
177
330
17
100
AcDbEntity
  8
TOP
100
AcDbLine
 10
1.625
 20
44.69230769230769
 30
0.0
 11
2.9965
 21
43.89361104049232
 31
0.0
  0
LINE
  5
178
330
17
100
AcDbEntity
  8
TOP
100
AcDbLine
 10
3.5035
 20
43.89361104049232
 30
0.0
 11
4.875
 21
44.69230769230769
 31
0.0
  0
LINE
  5
179
330
17
100
AcDbEntity
  8
TOP
100
AcDbLine
 10
4.875
 20
44.69230769230769
 30
0.0
 11
6.2465
 21
43.89361104049232
 31
0.0
  0
LINE
  5
17A
330
17
100
AcDbEntity
  8
TOP
100
AcDbLine
 10
6.7535
 20
43.89361104049232
 30
0.0
 11
8.125
 21
44.69230769230769
 31
0.0
  0
LINE
  5
17B
330
17
100
AcDbEntity
  8
TOP
100
AcDbLine
 10
8.125
 20
44.69230769230769
 30
0.0
 11
9.4965
 21
43.89361104049232
 31
0.0
  0
LINE
  5
17C
330
17
100
AcDbEntity
  8
TOP
100
AcDbLine
 10
10.0035
 20
43.89361104049232
 30
0.0
 11
11.375
 21
44.69230769230769
 31
0.0
  0
LINE
  5
17D
330
17
100
AcDbEntity
  8
TOP
100
AcDbLine
 10
11.375
 20
44.69230769230769
 30
0.0
 11
12.7465
 21
43.89361104049232
 31
0.0
  0
LINE
  5
17E
330
17
100
AcDbEntity
  8
TOP
100
AcDbLine
 10
0.0
 20
45.637362637362635
 30
0.0
 11
1.3715
 21
44.838665985547266
 31
0.0
  0
LINE
  5
17F
330
17
100
AcDbEntity
  8
TOP
100
AcDbLine
 10
1.8785
 20
44.838665985547266
 30
0.0
 11
3.25
 21
45.637362637362635
 31
0.0
  0
LINE
  5
180
330
17
100
AcDbEntity
  8
TOP
100
AcDbLine
 10
3.25
 20
45.637362637362635
 30
0.0
 11
4.6215
 21
44.838665985547266
 31
0.0
  0
LINE
  5
181
330
17
100
AcDbEntity
  8
TOP
100
AcDbLine
 10
5.1285
 20
44.838665985547266
 30
0.0
 11
6.5
 21
45.637362637362635
 31
0.0
  0
LINE
  5
182
330
17
100
AcDbEntity
  8
TOP
100
AcDbLine
 10
6.5
 20
45.637362637362635
 30
0.0
 11
7.8715
 21
44.838665985547266
 31
0.0
  0
LINE
  5
183
330
17
100
AcDbEntity
  8
TOP
100
AcDbLine
 10
8.3785
 20
44.838665985547266
 30
0.0
 11
9.75
 21
45.637362637362635
 31
0.0
  0
LINE
  5
184
330
17
100
AcDbEntity
  8
TOP
100
AcDbLine
 10
9.75
 20
45.637362637362635
 30
0.0
 11
11.1215
 21
44.838665985547266
 31
0.0
  0
LINE
  5
185
330
17
100
AcDbEntity
  8
TOP
100
AcDbLine
 10
11.6285
 20
44.838665985547266
 30
0.0
 11
13.0
 21
45.637362637362635
 31
0.0
  0
LINE
  5
186
330
17
100
AcDbEntity
  8
TOP
100
AcDbLine
 10
0.2535
 20
45.78372093060221
 30
0.0
 11
1.625
 21
46.582417582417584
 31
0.0
  0
LINE
  5
187
330
17
100
AcDbEntity
  8
TOP
100
AcDbLine
 10
1.625
 20
46.582417582417584
 30
0.0
 11
2.9965
 21
45.78372093060221
 31
0.0
  0
LINE
  5
188
330
17
100
AcDbEntity
  8
TOP
100
AcDbLine
 10
3.5035
 20
45.78372093060221
 30
0.0
 11
4.875
 21
46.582417582417584
 31
0.0
  0
LINE
  5
189
330
17
100
AcDbEntity
  8
TOP
100
AcDbLine
 10
4.875
 20
46.582417582417584
 30
0.0
 11
6.2465
 21
45.78372093060221
 31
0.0
  0
LINE
  5
18A
330
17
100
AcDbEntity
  8
TOP
100
AcDbLine
 10
6.7535
 20
45.78372093060221
 30
0.0
 11
8.125
 21
46.582417582417584
 31
0.0
  0
LINE
  5
18B
330
17
100
AcDbEntity
  8
TOP
100
AcDbLine
 10
8.125
 20
46.582417582417584
 30
0.0
 11
9.4965
 21
45.78372093060221
 31
0.0
  0
LINE
  5
18C
330
17
100
AcDbEntity
  8
TOP
100
AcDbLine
 10
10.0035
 20
45.78372093060221
 30
0.0
 11
11.375
 21
46.582417582417584
 31
0.0
  0
LINE
  5
18D
330
17
100
AcDbEntity
  8
TOP
100
AcDbLine
 10
11.375
 20
46.582417582417584
 30
0.0
 11
12.7465
 21
45.78372093060221
 31
0.0
  0
LINE
  5
18E
330
17
100
AcDbEntity
  8
TOP
100
AcDbLine
 10
0.0
 20
47.527472527472526
 30
0.0
 11
1.3715
 21
46.728775875657156
 31
0.0
  0
LINE
  5
18F
330
17
100
AcDbEntity
  8
TOP
100
AcDbLine
 10
1.8785
 20
46.728775875657156
 30
0.0
 11
3.25
 21
47.527472527472526
 31
0.0
  0
LINE
  5
190
330
17
100
AcDbEntity
  8
TOP
100
AcDbLine
 10
3.25
 20
47.527472527472526
 30
0.0
 11
4.6215
 21
46.728775875657156
 31
0.0
  0
LINE
  5
191
330
17
100
AcDbEntity
  8
TOP
100
AcDbLine
 10
5.1285
 20
46.728775875657156
 30
0.0
 11
6.5
 21
47.527472527472526
 31
0.0
  0
LINE
  5
192
330
17
100
AcDbEntity
  8
TOP
100
AcDbLine
 10
6.5
 20
47.527472527472526
 30
0.0
 11
7.8715
 21
46.728775875657156
 31
0.0
  0
LINE
  5
193
330
17
100
AcDbEntity
  8
TOP
100
AcDbLine
 10
8.3785
 20
46.728775875657156
 30
0.0
 11
9.75
 21
47.527472527472526
 31
0.0
  0
LINE
  5
194
330
17
100
AcDbEntity
  8
TOP
100
AcDbLine
 10
9.75
 20
47.527472527472526
 30
0.0
 11
11.1215
 21
46.728775875657156
 31
0.0
  0
LINE
  5
195
330
17
100
AcDbEntity
  8
TOP
100
AcDbLine
 10
11.6285
 20
46.728775875657156
 30
0.0
 11
13.0
 21
47.527472527472526
 31
0.0
  0
LINE
  5
196
330
17
100
AcDbEntity
  8
TOP
100
AcDbLine
 10
0.2535
 20
47.6738308207121
 30
0.0
 11
1.625
 21
48.472527472527474
 31
0.0
  0
LINE
  5
197
330
17
100
AcDbEntity
  8
TOP
100
AcDbLine
 10
1.625
 20
48.472527472527474
 30
0.0
 11
2.9965
 21
47.6738308207121
 31
0.0
  0
LINE
  5
198
330
17
100
AcDbEntity
  8
TOP
100
AcDbLine
 10
3.5035
 20
47.6738308207121
 30
0.0
 11
4.875
 21
48.472527472527474
 31
0.0
  0
LINE
  5
199
330
17
100
AcDbEntity
  8
TOP
100
AcDbLine
 10
4.875
 20
48.472527472527474
 30
0.0
 11
6.2465
 21
47.6738308207121
 31
0.0
  0
LINE
  5
19A
330
17
100
AcDbEntity
  8
TOP
100
AcDbLine
 10
6.7535
 20
47.6738308207121
 30
0.0
 11
8.125
 21
48.472527472527474
 31
0.0
  0
LINE
  5
19B
330
17
100
AcDbEntity
  8
TOP
100
AcDbLine
 10
8.125
 20
48.472527472527474
 30
0.0
 11
9.4965
 21
47.6738308207121
 31
0.0
  0
LINE
  5
19C
330
17
100
AcDbEntity
  8
TOP
100
AcDbLine
 10
10.0035
 20
47.6738308207121
 30
0.0
 11
11.375
 21
48.472527472527474
 31
0.0
  0
LINE
  5
19D
330
17
100
AcDbEntity
  8
TOP
100
AcDbLine
 10
11.375
 20
48.472527472527474
 30
0.0
 11
12.7465
 21
47.6738308207121
 31
0.0
  0
LINE
  5
19E
330
17
100
AcDbEntity
  8
TOP
100
AcDbLine
 10
0.0
 20
49.417582417582416
 30
0.0
 11
1.3715
 21
48.61888576576705
 31
0.0
  0
LINE
  5
19F
330
17
100
AcDbEntity
  8
TOP
100
AcDbLine
 10
1.8785
 20
48.61888576576705
 30
0.0
 11
3.25
 21
49.417582417582416
 31
0.0
  0
LINE
  5
1A0
330
17
100
AcDbEntity
  8
TOP
100
AcDbLine
 10
3.25
 20
49.417582417582416
 30
0.0
 11
4.6215
 21
48.61888576576705
 31
0.0
  0
LINE
  5
1A1
330
17
100
AcDbEntity
  8
TOP
100
AcDbLine
 10
5.1285
 20
48.61888576576705
 30
0.0
 11
6.5
 21
49.417582417582416
 31
0.0
  0
LINE
  5
1A2
330
17
100
AcDbEntity
  8
TOP
100
AcDbLine
 10
6.5
 20
49.417582417582416
 30
0.0
 11
7.8715
 21
48.61888576576705
 31
0.0
  0
LINE
  5
1A3
330
17
100
AcDbEntity
  8
TOP
100
AcDbLine
 10
8.3785
 20
48.61888576576705
 30
0.0
 11
9.75
 21
49.417582417582416
 31
0.0
  0
LINE
  5
1A4
330
17
100
AcDbEntity
  8
TOP
100
AcDbLine
 10
9.75
 20
49.417582417582416
 30
0.0
 11
11.1215
 21
48.61888576576705
 31
0.0
  0
LINE
  5
1A5
330
17
100
AcDbEntity
  8
TOP
100
AcDbLine
 10
11.6285
 20
48.61888576576705
 30
0.0
 11
13.0
 21
49.417582417582416
 31
0.0
  0
LINE
  5
1A6
330
17
100
AcDbEntity
  8
TOP
100
AcDbLine
 10
0.2535
 20
49.56394071082199
 30
0.0
 11
1.625
 21
50.36263736263736
 31
0.0
  0
LINE
  5
1A7
330
17
100
AcDbEntity
  8
TOP
100
AcDbLine
 10
1.625
 20
50.36263736263736
 30
0.0
 11
2.9965
 21
49.56394071082199
 31
0.0
  0
LINE
  5
1A8
330
17
100
AcDbEntity
  8
TOP
100
AcDbLine
 10
3.5035
 20
49.56394071082199
 30
0.0
 11
4.875
 21
50.36263736263736
 31
0.0
  0
LINE
  5
1A9
330
17
100
AcDbEntity
  8
TOP
100
AcDbLine
 10
4.875
 20
50.36263736263736
 30
0.0
 11
6.2465
 21
49.56394071082199
 31
0.0
  0
LINE
  5
1AA
330
17
100
AcDbEntity
  8
TOP
100
AcDbLine
 10
6.7535
 20
49.56394071082199
 30
0.0
 11
8.125
 21
50.36263736263736
 31
0.0
  0
LINE
  5
1AB
330
17
100
AcDbEntity
  8
TOP
100
AcDbLine
 10
8.125
 20
50.36263736263736
 30
0.0
 11
9.4965
 21
49.56394071082199
 31
0.0
  0
LINE
  5
1AC
330
17
100
AcDbEntity
  8
TOP
100
AcDbLine
 10
10.0035
 20
49.56394071082199
 30
0.0
 11
11.375
 21
50.36263736263736
 31
0.0
  0
LINE
  5
1AD
330
17
100
AcDbEntity
  8
TOP
100
AcDbLine
 10
11.375
 20
50.36263736263736
 30
0.0
 11
12.7465
 21
49.56394071082199
 31
0.0
  0
LINE
  5
1AE
330
17
100
AcDbEntity
  8
TOP
100
AcDbLine
 10
0.0
 20
51.30769230769231
 30
0.0
 11
1.3715
 21
50.50899565587693
 31
0.0
  0
LINE
  5
1AF
330
17
100
AcDbEntity
  8
TOP
100
AcDbLine
 10
1.8785
 20
50.50899565587693
 30
0.0
 11
3.25
 21
51.30769230769231
 31
0.0
  0
LINE
  5
1B0
330
17
100
AcDbEntity
  8
TOP
100
AcDbLine
 10
3.25
 20
51.30769230769231
 30
0.0
 11
4.6215
 21
50.50899565587693
 31
0.0
  0
LINE
  5
1B1
330
17
100
AcDbEntity
  8
TOP
100
AcDbLine
 10
5.1285
 20
50.50899565587693
 30
0.0
 11
6.5
 21
51.30769230769231
 31
0.0
  0
LINE
  5
1B2
330
17
100
AcDbEntity
  8
TOP
100
AcDbLine
 10
6.5
 20
51.30769230769231
 30
0.0
 11
7.8715
 21
50.50899565587693
 31
0.0
  0
LINE
  5
1B3
330
17
100
AcDbEntity
  8
TOP
100
AcDbLine
 10
8.3785
 20
50.50899565587693
 30
0.0
 11
9.75
 21
51.30769230769231
 31
0.0
  0
LINE
  5
1B4
330
17
100
AcDbEntity
  8
TOP
100
AcDbLine
 10
9.75
 20
51.30769230769231
 30
0.0
 11
11.1215
 21
50.50899565587693
 31
0.0
  0
LINE
  5
1B5
330
17
100
AcDbEntity
  8
TOP
100
AcDbLine
 10
11.6285
 20
50.50899565587693
 30
0.0
 11
13.0
 21
51.30769230769231
 31
0.0
  0
LINE
  5
1B6
330
17
100
AcDbEntity
  8
TOP
100
AcDbLine
 10
0.2535
 20
51.45405060093188
 30
0.0
 11
1.625
 21
52.25274725274725
 31
0.0
  0
LINE
  5
1B7
330
17
100
AcDbEntity
  8
TOP
100
AcDbLine
 10
1.625
 20
52.25274725274725
 30
0.0
 11
2.9965
 21
51.45405060093188
 31
0.0
  0
LINE
  5
1B8
330
17
100
AcDbEntity
  8
TOP
100
AcDbLine
 10
3.5035
 20
51.45405060093188
 30
0.0
 11
4.875
 21
52.25274725274725
 31
0.0
  0
LINE
  5
1B9
330
17
100
AcDbEntity
  8
TOP
100
AcDbLine
 10
4.875
 20
52.25274725274725
 30
0.0
 11
6.2465
 21
51.45405060093188
 31
0.0
  0
LINE
  5
1BA
330
17
100
AcDbEntity
  8
TOP
100
AcDbLine
 10
6.7535
 20
51.45405060093188
 30
0.0
 11
8.125
 21
52.25274725274725
 31
0.0
  0
LINE
  5
1BB
330
17
100
AcDbEntity
  8
TOP
100
AcDbLine
 10
8.125
 20
52.25274725274725
 30
0.0
 11
9.4965
 21
51.45405060093188
 31
0.0
  0
LINE
  5
1BC
330
17
100
AcDbEntity
  8
TOP
100
AcDbLine
 10
10.0035
 20
51.45405060093188
 30
0.0
 11
11.375
 21
52.25274725274725
 31
0.0
  0
LINE
  5
1BD
330
17
100
AcDbEntity
  8
TOP
100
AcDbLine
 10
11.375
 20
52.25274725274725
 30
0.0
 11
12.7465
 21
51.45405060093188
 31
0.0
  0
LINE
  5
1BE
330
17
100
AcDbEntity
  8
TOP
100
AcDbLine
 10
0.0
 20
53.1978021978022
 30
0.0
 11
1.3715
 21
52.39910554598682
 31
0.0
  0
LINE
  5
1BF
330
17
100
AcDbEntity
  8
TOP
100
AcDbLine
 10
1.8785
 20
52.39910554598682
 30
0.0
 11
3.25
 21
53.1978021978022
 31
0.0
  0
LINE
  5
1C0
330
17
100
AcDbEntity
  8
TOP
100
AcDbLine
 10
3.25
 20
53.1978021978022
 30
0.0
 11
4.6215
 21
52.39910554598682
 31
0.0
  0
LINE
  5
1C1
330
17
100
AcDbEntity
  8
TOP
100
AcDbLine
 10
5.1285
 20
52.39910554598682
 30
0.0
 11
6.5
 21
53.1978021978022
 31
0.0
  0
LINE
  5
1C2
330
17
100
AcDbEntity
  8
TOP
100
AcDbLine
 10
6.5
 20
53.1978021978022
 30
0.0
 11
7.8715
 21
52.39910554598682
 31
0.0
  0
LINE
  5
1C3
330
17
100
AcDbEntity
  8
TOP
100
AcDbLine
 10
8.3785
 20
52.39910554598682
 30
0.0
 11
9.75
 21
53.1978021978022
 31
0.0
  0
LINE
  5
1C4
330
17
100
AcDbEntity
  8
TOP
100
AcDbLine
 10
9.75
 20
53.1978021978022
 30
0.0
 11
11.1215
 21
52.39910554598682
 31
0.0
  0
LINE
  5
1C5
330
17
100
AcDbEntity
  8
TOP
100
AcDbLine
 10
11.6285
 20
52.39910554598682
 30
0.0
 11
13.0
 21
53.1978021978022
 31
0.0
  0
LINE
  5
1C6
330
17
100
AcDbEntity
  8
TOP
100
AcDbLine
 10
0.2535
 20
53.34416049104177
 30
0.0
 11
1.625
 21
54.14285714285714
 31
0.0
  0
LINE
  5
1C7
330
17
100
AcDbEntity
  8
TOP
100
AcDbLine
 10
1.625
 20
54.14285714285714
 30
0.0
 11
2.9965
 21
53.34416049104177
 31
0.0
  0
LINE
  5
1C8
330
17
100
AcDbEntity
  8
TOP
100
AcDbLine
 10
3.5035
 20
53.34416049104177
 30
0.0
 11
4.875
 21
54.14285714285714
 31
0.0
  0
LINE
  5
1C9
330
17
100
AcDbEntity
  8
TOP
100
AcDbLine
 10
4.875
 20
54.14285714285714
 30
0.0
 11
6.2465
 21
53.34416049104177
 31
0.0
  0
LINE
  5
1CA
330
17
100
AcDbEntity
  8
TOP
100
AcDbLine
 10
6.7535
 20
53.34416049104177
 30
0.0
 11
8.125
 21
54.14285714285714
 31
0.0
  0
LINE
  5
1CB
330
17
100
AcDbEntity
  8
TOP
100
AcDbLine
 10
8.125
 20
54.14285714285714
 30
0.0
 11
9.4965
 21
53.34416049104177
 31
0.0
  0
LINE
  5
1CC
330
17
100
AcDbEntity
  8
TOP
100
AcDbLine
 10
10.0035
 20
53.34416049104177
 30
0.0
 11
11.375
 21
54.14285714285714
 31
0.0
  0
LINE
  5
1CD
330
17
100
AcDbEntity
  8
TOP
100
AcDbLine
 10
11.375
 20
54.14285714285714
 30
0.0
 11
12.7465
 21
53.34416049104177
 31
0.0
  0
LINE
  5
1CE
330
17
100
AcDbEntity
  8
TOP
100
AcDbLine
 10
0.0
 20
55.08791208791209
 30
0.0
 11
1.3715
 21
54.28921543609671
 31
0.0
  0
LINE
  5
1CF
330
17
100
AcDbEntity
  8
TOP
100
AcDbLine
 10
1.8785
 20
54.28921543609671
 30
0.0
 11
3.25
 21
55.08791208791209
 31
0.0
  0
LINE
  5
1D0
330
17
100
AcDbEntity
  8
TOP
100
AcDbLine
 10
3.25
 20
55.08791208791209
 30
0.0
 11
4.6215
 21
54.28921543609671
 31
0.0
  0
LINE
  5
1D1
330
17
100
AcDbEntity
  8
TOP
100
AcDbLine
 10
5.1285
 20
54.28921543609671
 30
0.0
 11
6.5
 21
55.08791208791209
 31
0.0
  0
LINE
  5
1D2
330
17
100
AcDbEntity
  8
TOP
100
AcDbLine
 10
6.5
 20
55.08791208791209
 30
0.0
 11
7.8715
 21
54.28921543609671
 31
0.0
  0
LINE
  5
1D3
330
17
100
AcDbEntity
  8
TOP
100
AcDbLine
 10
8.3785
 20
54.28921543609671
 30
0.0
 11
9.75
 21
55.08791208791209
 31
0.0
  0
LINE
  5
1D4
330
17
100
AcDbEntity
  8
TOP
100
AcDbLine
 10
9.75
 20
55.08791208791209
 30
0.0
 11
11.1215
 21
54.28921543609671
 31
0.0
  0
LINE
  5
1D5
330
17
100
AcDbEntity
  8
TOP
100
AcDbLine
 10
11.6285
 20
54.28921543609671
 30
0.0
 11
13.0
 21
55.08791208791209
 31
0.0
  0
LINE
  5
1D6
330
17
100
AcDbEntity
  8
TOP
100
AcDbLine
 10
0.2535
 20
55.23427038115166
 30
0.0
 11
1.625
 21
56.03296703296703
 31
0.0
  0
LINE
  5
1D7
330
17
100
AcDbEntity
  8
TOP
100
AcDbLine
 10
1.625
 20
56.03296703296703
 30
0.0
 11
2.9965
 21
55.23427038115166
 31
0.0
  0
LINE
  5
1D8
330
17
100
AcDbEntity
  8
TOP
100
AcDbLine
 10
3.5035
 20
55.23427038115166
 30
0.0
 11
4.875
 21
56.03296703296703
 31
0.0
  0
LINE
  5
1D9
330
17
100
AcDbEntity
  8
TOP
100
AcDbLine
 10
4.875
 20
56.03296703296703
 30
0.0
 11
6.2465
 21
55.23427038115166
 31
0.0
  0
LINE
  5
1DA
330
17
100
AcDbEntity
  8
TOP
100
AcDbLine
 10
6.7535
 20
55.23427038115166
 30
0.0
 11
8.125
 21
56.03296703296703
 31
0.0
  0
LINE
  5
1DB
330
17
100
AcDbEntity
  8
TOP
100
AcDbLine
 10
8.125
 20
56.03296703296703
 30
0.0
 11
9.4965
 21
55.23427038115166
 31
0.0
  0
LINE
  5
1DC
330
17
100
AcDbEntity
  8
TOP
100
AcDbLine
 10
10.0035
 20
55.23427038115166
 30
0.0
 11
11.375
 21
56.03296703296703
 31
0.0
  0
LINE
  5
1DD
330
17
100
AcDbEntity
  8
TOP
100
AcDbLine
 10
11.375
 20
56.03296703296703
 30
0.0
 11
12.7465
 21
55.23427038115166
 31
0.0
  0
LINE
  5
1DE
330
17
100
AcDbEntity
  8
TOP
100
AcDbLine
 10
0.0
 20
56.97802197802198
 30
0.0
 11
1.3715
 21
56.1793253262066
 31
0.0
  0
LINE
  5
1DF
330
17
100
AcDbEntity
  8
TOP
100
AcDbLine
 10
1.8785
 20
56.1793253262066
 30
0.0
 11
3.25
 21
56.97802197802198
 31
0.0
  0
LINE
  5
1E0
330
17
100
AcDbEntity
  8
TOP
100
AcDbLine
 10
3.25
 20
56.97802197802198
 30
0.0
 11
4.6215
 21
56.1793253262066
 31
0.0
  0
LINE
  5
1E1
330
17
100
AcDbEntity
  8
TOP
100
AcDbLine
 10
5.1285
 20
56.1793253262066
 30
0.0
 11
6.5
 21
56.97802197802198
 31
0.0
  0
LINE
  5
1E2
330
17
100
AcDbEntity
  8
TOP
100
AcDbLine
 10
6.5
 20
56.97802197802198
 30
0.0
 11
7.8715
 21
56.1793253262066
 31
0.0
  0
LINE
  5
1E3
330
17
100
AcDbEntity
  8
TOP
100
AcDbLine
 10
8.3785
 20
56.1793253262066
 30
0.0
 11
9.75
 21
56.97802197802198
 31
0.0
  0
LINE
  5
1E4
330
17
100
AcDbEntity
  8
TOP
100
AcDbLine
 10
9.75
 20
56.97802197802198
 30
0.0
 11
11.1215
 21
56.1793253262066
 31
0.0
  0
LINE
  5
1E5
330
17
100
AcDbEntity
  8
TOP
100
AcDbLine
 10
11.6285
 20
56.1793253262066
 30
0.0
 11
13.0
 21
56.97802197802198
 31
0.0
  0
LINE
  5
1E6
330
17
100
AcDbEntity
  8
TOP
100
AcDbLine
 10
0.2535
 20
57.12438027126155
 30
0.0
 11
1.625
 21
57.92307692307692
 31
0.0
  0
LINE
  5
1E7
330
17
100
AcDbEntity
  8
TOP
100
AcDbLine
 10
1.625
 20
57.92307692307692
 30
0.0
 11
2.9965
 21
57.12438027126155
 31
0.0
  0
LINE
  5
1E8
330
17
100
AcDbEntity
  8
TOP
100
AcDbLine
 10
3.5035
 20
57.12438027126155
 30
0.0
 11
4.875
 21
57.92307692307692
 31
0.0
  0
LINE
  5
1E9
330
17
100
AcDbEntity
  8
TOP
100
AcDbLine
 10
4.875
 20
57.92307692307692
 30
0.0
 11
6.2465
 21
57.12438027126155
 31
0.0
  0
LINE
  5
1EA
330
17
100
AcDbEntity
  8
TOP
100
AcDbLine
 10
6.7535
 20
57.12438027126155
 30
0.0
 11
8.125
 21
57.92307692307692
 31
0.0
  0
LINE
  5
1EB
330
17
100
AcDbEntity
  8
TOP
100
AcDbLine
 10
8.125
 20
57.92307692307692
 30
0.0
 11
9.4965
 21
57.12438027126155
 31
0.0
  0
LINE
  5
1EC
330
17
100
AcDbEntity
  8
TOP
100
AcDbLine
 10
10.0035
 20
57.12438027126155
 30
0.0
 11
11.375
 21
57.92307692307692
 31
0.0
  0
LINE
  5
1ED
330
17
100
AcDbEntity
  8
TOP
100
AcDbLine
 10
11.375
 20
57.92307692307692
 30
0.0
 11
12.7465
 21
57.12438027126155
 31
0.0
  0
LINE
  5
1EE
330
17
100
AcDbEntity
  8
TOP
100
AcDbLine
 10
0.0
 20
58.86813186813187
 30
0.0
 11
1.3715
 21
58.06943521631649
 31
0.0
  0
LINE
  5
1EF
330
17
100
AcDbEntity
  8
TOP
100
AcDbLine
 10
1.8785
 20
58.06943521631649
 30
0.0
 11
3.25
 21
58.86813186813187
 31
0.0
  0
LINE
  5
1F0
330
17
100
AcDbEntity
  8
TOP
100
AcDbLine
 10
3.25
 20
58.86813186813187
 30
0.0
 11
4.6215
 21
58.06943521631649
 31
0.0
  0
LINE
  5
1F1
330
17
100
AcDbEntity
  8
TOP
100
AcDbLine
 10
5.1285
 20
58.06943521631649
 30
0.0
 11
6.5
 21
58.86813186813187
 31
0.0
  0
LINE
  5
1F2
330
17
100
AcDbEntity
  8
TOP
100
AcDbLine
 10
6.5
 20
58.86813186813187
 30
0.0
 11
7.8715
 21
58.06943521631649
 31
0.0
  0
LINE
  5
1F3
330
17
100
AcDbEntity
  8
TOP
100
AcDbLine
 10
8.3785
 20
58.06943521631649
 30
0.0
 11
9.75
 21
58.86813186813187
 31
0.0
  0
LINE
  5
1F4
330
17
100
AcDbEntity
  8
TOP
100
AcDbLine
 10
9.75
 20
58.86813186813187
 30
0.0
 11
11.1215
 21
58.06943521631649
 31
0.0
  0
LINE
  5
1F5
330
17
100
AcDbEntity
  8
TOP
100
AcDbLine
 10
11.6285
 20
58.06943521631649
 30
0.0
 11
13.0
 21
58.86813186813187
 31
0.0
  0
LINE
  5
1F6
330
17
100
AcDbEntity
  8
TOP
100
AcDbLine
 10
0.2535
 20
59.01449016137144
 30
0.0
 11
1.625
 21
59.81318681318681
 31
0.0
  0
LINE
  5
1F7
330
17
100
AcDbEntity
  8
TOP
100
AcDbLine
 10
1.625
 20
59.81318681318681
 30
0.0
 11
2.9965
 21
59.01449016137144
 31
0.0
  0
LINE
  5
1F8
330
17
100
AcDbEntity
  8
TOP
100
AcDbLine
 10
3.5035
 20
59.01449016137144
 30
0.0
 11
4.875
 21
59.81318681318681
 31
0.0
  0
LINE
  5
1F9
330
17
100
AcDbEntity
  8
TOP
100
AcDbLine
 10
4.875
 20
59.81318681318681
 30
0.0
 11
6.2465
 21
59.01449016137144
 31
0.0
  0
LINE
  5
1FA
330
17
100
AcDbEntity
  8
TOP
100
AcDbLine
 10
6.7535
 20
59.01449016137144
 30
0.0
 11
8.125
 21
59.81318681318681
 31
0.0
  0
LINE
  5
1FB
330
17
100
AcDbEntity
  8
TOP
100
AcDbLine
 10
8.125
 20
59.81318681318681
 30
0.0
 11
9.4965
 21
59.01449016137144
 31
0.0
  0
LINE
  5
1FC
330
17
100
AcDbEntity
  8
TOP
100
AcDbLine
 10
10.0035
 20
59.01449016137144
 30
0.0
 11
11.375
 21
59.81318681318681
 31
0.0
  0
LINE
  5
1FD
330
17
100
AcDbEntity
  8
TOP
100
AcDbLine
 10
11.375
 20
59.81318681318681
 30
0.0
 11
12.7465
 21
59.01449016137144
 31
0.0
  0
LINE
  5
1FE
330
17
100
AcDbEntity
  8
TOP
100
AcDbLine
 10
0.0
 20
60.75824175824176
 30
0.0
 11
1.3715
 21
59.95954510642638
 31
0.0
  0
LINE
  5
1FF
330
17
100
AcDbEntity
  8
TOP
100
AcDbLine
 10
1.8785
 20
59.95954510642638
 30
0.0
 11
3.25
 21
60.75824175824176
 31
0.0
  0
LINE
  5
200
330
17
100
AcDbEntity
  8
TOP
100
AcDbLine
 10
3.25
 20
60.75824175824176
 30
0.0
 11
4.6215
 21
59.95954510642638
 31
0.0
  0
LINE
  5
201
330
17
100
AcDbEntity
  8
TOP
100
AcDbLine
 10
5.1285
 20
59.95954510642638
 30
0.0
 11
6.5
 21
60.75824175824176
 31
0.0
  0
LINE
  5
202
330
17
100
AcDbEntity
  8
TOP
100
AcDbLine
 10
6.5
 20
60.75824175824176
 30
0.0
 11
7.8715
 21
59.95954510642638
 31
0.0
  0
LINE
  5
203
330
17
100
AcDbEntity
  8
TOP
100
AcDbLine
 10
8.3785
 20
59.95954510642638
 30
0.0
 11
9.75
 21
60.75824175824176
 31
0.0
  0
LINE
  5
204
330
17
100
AcDbEntity
  8
TOP
100
AcDbLine
 10
9.75
 20
60.75824175824176
 30
0.0
 11
11.1215
 21
59.95954510642638
 31
0.0
  0
LINE
  5
205
330
17
100
AcDbEntity
  8
TOP
100
AcDbLine
 10
11.6285
 20
59.95954510642638
 30
0.0
 11
13.0
 21
60.75824175824176
 31
0.0
  0
LINE
  5
206
330
17
100
AcDbEntity
  8
TOP
100
AcDbLine
 10
0.2535
 20
60.90460005148133
 30
0.0
 11
1.625
 21
61.7032967032967
 31
0.0
  0
LINE
  5
207
330
17
100
AcDbEntity
  8
TOP
100
AcDbLine
 10
1.625
 20
61.7032967032967
 30
0.0
 11
2.9965
 21
60.90460005148133
 31
0.0
  0
LINE
  5
208
330
17
100
AcDbEntity
  8
TOP
100
AcDbLine
 10
3.5035
 20
60.90460005148133
 30
0.0
 11
4.875
 21
61.7032967032967
 31
0.0
  0
LINE
  5
209
330
17
100
AcDbEntity
  8
TOP
100
AcDbLine
 10
4.875
 20
61.7032967032967
 30
0.0
 11
6.2465
 21
60.90460005148133
 31
0.0
  0
LINE
  5
20A
330
17
100
AcDbEntity
  8
TOP
100
AcDbLine
 10
6.7535
 20
60.90460005148133
 30
0.0
 11
8.125
 21
61.7032967032967
 31
0.0
  0
LINE
  5
20B
330
17
100
AcDbEntity
  8
TOP
100
AcDbLine
 10
8.125
 20
61.7032967032967
 30
0.0
 11
9.4965
 21
60.90460005148133
 31
0.0
  0
LINE
  5
20C
330
17
100
AcDbEntity
  8
TOP
100
AcDbLine
 10
10.0035
 20
60.90460005148133
 30
0.0
 11
11.375
 21
61.7032967032967
 31
0.0
  0
LINE
  5
20D
330
17
100
AcDbEntity
  8
TOP
100
AcDbLine
 10
11.375
 20
61.7032967032967
 30
0.0
 11
12.7465
 21
60.90460005148133
 31
0.0
  0
LINE
  5
20E
330
17
100
AcDbEntity
  8
TOP
100
AcDbLine
 10
0.0
 20
62.64835164835165
 30
0.0
 11
1.3715
 21
61.84965499653627
 31
0.0
  0
LINE
  5
20F
330
17
100
AcDbEntity
  8
TOP
100
AcDbLine
 10
1.8785
 20
61.84965499653627
 30
0.0
 11
3.25
 21
62.64835164835165
 31
0.0
  0
LINE
  5
210
330
17
100
AcDbEntity
  8
TOP
100
AcDbLine
 10
3.25
 20
62.64835164835165
 30
0.0
 11
4.6215
 21
61.84965499653627
 31
0.0
  0
LINE
  5
211
330
17
100
AcDbEntity
  8
TOP
100
AcDbLine
 10
5.1285
 20
61.84965499653627
 30
0.0
 11
6.5
 21
62.64835164835165
 31
0.0
  0
LINE
  5
212
330
17
100
AcDbEntity
  8
TOP
100
AcDbLine
 10
6.5
 20
62.64835164835165
 30
0.0
 11
7.8715
 21
61.84965499653627
 31
0.0
  0
LINE
  5
213
330
17
100
AcDbEntity
  8
TOP
100
AcDbLine
 10
8.3785
 20
61.84965499653627
 30
0.0
 11
9.75
 21
62.64835164835165
 31
0.0
  0
LINE
  5
214
330
17
100
AcDbEntity
  8
TOP
100
AcDbLine
 10
9.75
 20
62.64835164835165
 30
0.0
 11
11.1215
 21
61.84965499653627
 31
0.0
  0
LINE
  5
215
330
17
100
AcDbEntity
  8
TOP
100
AcDbLine
 10
11.6285
 20
61.84965499653627
 30
0.0
 11
13.0
 21
62.64835164835165
 31
0.0
  0
LINE
  5
216
330
17
100
AcDbEntity
  8
TOP
100
AcDbLine
 10
0.2535
 20
62.79470994159122
 30
0.0
 11
1.625
 21
63.59340659340659
 31
0.0
  0
LINE
  5
217
330
17
100
AcDbEntity
  8
TOP
100
AcDbLine
 10
1.625
 20
63.59340659340659
 30
0.0
 11
2.9965
 21
62.79470994159122
 31
0.0
  0
LINE
  5
218
330
17
100
AcDbEntity
  8
TOP
100
AcDbLine
 10
3.5035
 20
62.79470994159122
 30
0.0
 11
4.875
 21
63.59340659340659
 31
0.0
  0
LINE
  5
219
330
17
100
AcDbEntity
  8
TOP
100
AcDbLine
 10
4.875
 20
63.59340659340659
 30
0.0
 11
6.2465
 21
62.79470994159122
 31
0.0
  0
LINE
  5
21A
330
17
100
AcDbEntity
  8
TOP
100
AcDbLine
 10
6.7535
 20
62.79470994159122
 30
0.0
 11
8.125
 21
63.59340659340659
 31
0.0
  0
LINE
  5
21B
330
17
100
AcDbEntity
  8
TOP
100
AcDbLine
 10
8.125
 20
63.59340659340659
 30
0.0
 11
9.4965
 21
62.79470994159122
 31
0.0
  0
LINE
  5
21C
330
17
100
AcDbEntity
  8
TOP
100
AcDbLine
 10
10.0035
 20
62.79470994159122
 30
0.0
 11
11.375
 21
63.59340659340659
 31
0.0
  0
LINE
  5
21D
330
17
100
AcDbEntity
  8
TOP
100
AcDbLine
 10
11.375
 20
63.59340659340659
 30
0.0
 11
12.7465
 21
62.79470994159122
 31
0.0
  0
LINE
  5
21E
330
17
100
AcDbEntity
  8
TOP
100
AcDbLine
 10
0.0
 20
64.53846153846155
 30
0.0
 11
1.3715
 21
63.739764886646164
 31
0.0
  0
LINE
  5
21F
330
17
100
AcDbEntity
  8
TOP
100
AcDbLine
 10
1.8785
 20
63.739764886646164
 30
0.0
 11
3.25
 21
64.53846153846155
 31
0.0
  0
LINE
  5
220
330
17
100
AcDbEntity
  8
TOP
100
AcDbLine
 10
3.25
 20
64.53846153846155
 30
0.0
 11
4.6215
 21
63.739764886646164
 31
0.0
  0
LINE
  5
221
330
17
100
AcDbEntity
  8
TOP
100
AcDbLine
 10
5.1285
 20
63.739764886646164
 30
0.0
 11
6.5
 21
64.53846153846155
 31
0.0
  0
LINE
  5
222
330
17
100
AcDbEntity
  8
TOP
100
AcDbLine
 10
6.5
 20
64.53846153846155
 30
0.0
 11
7.8715
 21
63.739764886646164
 31
0.0
  0
LINE
  5
223
330
17
100
AcDbEntity
  8
TOP
100
AcDbLine
 10
8.3785
 20
63.739764886646164
 30
0.0
 11
9.75
 21
64.53846153846155
 31
0.0
  0
LINE
  5
224
330
17
100
AcDbEntity
  8
TOP
100
AcDbLine
 10
9.75
 20
64.53846153846155
 30
0.0
 11
11.1215
 21
63.739764886646164
 31
0.0
  0
LINE
  5
225
330
17
100
AcDbEntity
  8
TOP
100
AcDbLine
 10
11.6285
 20
63.739764886646164
 30
0.0
 11
13.0
 21
64.53846153846155
 31
0.0
  0
LINE
  5
226
330
17
100
AcDbEntity
  8
TOP
100
AcDbLine
 10
0.2535
 20
64.6848198317011
 30
0.0
 11
1.625
 21
65.48351648351648
 31
0.0
  0
LINE
  5
227
330
17
100
AcDbEntity
  8
TOP
100
AcDbLine
 10
1.625
 20
65.48351648351648
 30
0.0
 11
2.9965
 21
64.6848198317011
 31
0.0
  0
LINE
  5
228
330
17
100
AcDbEntity
  8
TOP
100
AcDbLine
 10
3.5035
 20
64.6848198317011
 30
0.0
 11
4.875
 21
65.48351648351648
 31
0.0
  0
LINE
  5
229
330
17
100
AcDbEntity
  8
TOP
100
AcDbLine
 10
4.875
 20
65.48351648351648
 30
0.0
 11
6.2465
 21
64.6848198317011
 31
0.0
  0
LINE
  5
22A
330
17
100
AcDbEntity
  8
TOP
100
AcDbLine
 10
6.7535
 20
64.6848198317011
 30
0.0
 11
8.125
 21
65.48351648351648
 31
0.0
  0
LINE
  5
22B
330
17
100
AcDbEntity
  8
TOP
100
AcDbLine
 10
8.125
 20
65.48351648351648
 30
0.0
 11
9.4965
 21
64.6848198317011
 31
0.0
  0
LINE
  5
22C
330
17
100
AcDbEntity
  8
TOP
100
AcDbLine
 10
10.0035
 20
64.6848198317011
 30
0.0
 11
11.375
 21
65.48351648351648
 31
0.0
  0
LINE
  5
22D
330
17
100
AcDbEntity
  8
TOP
100
AcDbLine
 10
11.375
 20
65.48351648351648
 30
0.0
 11
12.7465
 21
64.6848198317011
 31
0.0
  0
LINE
  5
22E
330
17
100
AcDbEntity
  8
TOP
100
AcDbLine
 10
0.0
 20
66.42857142857142
 30
0.0
 11
1.3715
 21
65.62987477675605
 31
0.0
  0
LINE
  5
22F
330
17
100
AcDbEntity
  8
TOP
100
AcDbLine
 10
1.8785
 20
65.62987477675605
 30
0.0
 11
3.25
 21
66.42857142857142
 31
0.0
  0
LINE
  5
230
330
17
100
AcDbEntity
  8
TOP
100
AcDbLine
 10
3.25
 20
66.42857142857142
 30
0.0
 11
4.6215
 21
65.62987477675605
 31
0.0
  0
LINE
  5
231
330
17
100
AcDbEntity
  8
TOP
100
AcDbLine
 10
5.1285
 20
65.62987477675605
 30
0.0
 11
6.5
 21
66.42857142857142
 31
0.0
  0
LINE
  5
232
330
17
100
AcDbEntity
  8
TOP
100
AcDbLine
 10
6.5
 20
66.42857142857142
 30
0.0
 11
7.8715
 21
65.62987477675605
 31
0.0
  0
LINE
  5
233
330
17
100
AcDbEntity
  8
TOP
100
AcDbLine
 10
8.3785
 20
65.62987477675605
 30
0.0
 11
9.75
 21
66.42857142857142
 31
0.0
  0
LINE
  5
234
330
17
100
AcDbEntity
  8
TOP
100
AcDbLine
 10
9.75
 20
66.42857142857142
 30
0.0
 11
11.1215
 21
65.62987477675605
 31
0.0
  0
LINE
  5
235
330
17
100
AcDbEntity
  8
TOP
100
AcDbLine
 10
11.6285
 20
65.62987477675605
 30
0.0
 11
13.0
 21
66.42857142857142
 31
0.0
  0
LINE
  5
236
330
17
100
AcDbEntity
  8
TOP
100
AcDbLine
 10
0.2535
 20
66.574929721811
 30
0.0
 11
1.625
 21
67.37362637362637
 31
0.0
  0
LINE
  5
237
330
17
100
AcDbEntity
  8
TOP
100
AcDbLine
 10
1.625
 20
67.37362637362637
 30
0.0
 11
2.9965
 21
66.574929721811
 31
0.0
  0
LINE
  5
238
330
17
100
AcDbEntity
  8
TOP
100
AcDbLine
 10
3.5035
 20
66.574929721811
 30
0.0
 11
4.875
 21
67.37362637362637
 31
0.0
  0
LINE
  5
239
330
17
100
AcDbEntity
  8
TOP
100
AcDbLine
 10
4.875
 20
67.37362637362637
 30
0.0
 11
6.2465
 21
66.574929721811
 31
0.0
  0
LINE
  5
23A
330
17
100
AcDbEntity
  8
TOP
100
AcDbLine
 10
6.7535
 20
66.574929721811
 30
0.0
 11
8.125
 21
67.37362637362637
 31
0.0
  0
LINE
  5
23B
330
17
100
AcDbEntity
  8
TOP
100
AcDbLine
 10
8.125
 20
67.37362637362637
 30
0.0
 11
9.4965
 21
66.574929721811
 31
0.0
  0
LINE
  5
23C
330
17
100
AcDbEntity
  8
TOP
100
AcDbLine
 10
10.0035
 20
66.574929721811
 30
0.0
 11
11.375
 21
67.37362637362637
 31
0.0
  0
LINE
  5
23D
330
17
100
AcDbEntity
  8
TOP
100
AcDbLine
 10
11.375
 20
67.37362637362637
 30
0.0
 11
12.7465
 21
66.574929721811
 31
0.0
  0
LINE
  5
23E
330
17
100
AcDbEntity
  8
TOP
100
AcDbLine
 10
0.0
 20
68.31868131868131
 30
0.0
 11
1.3715
 21
67.51998466686595
 31
0.0
  0
LINE
  5
23F
330
17
100
AcDbEntity
  8
TOP
100
AcDbLine
 10
1.8785
 20
67.51998466686595
 30
0.0
 11
3.25
 21
68.31868131868131
 31
0.0
  0
LINE
  5
240
330
17
100
AcDbEntity
  8
TOP
100
AcDbLine
 10
3.25
 20
68.31868131868131
 30
0.0
 11
4.6215
 21
67.51998466686595
 31
0.0
  0
LINE
  5
241
330
17
100
AcDbEntity
  8
TOP
100
AcDbLine
 10
5.1285
 20
67.51998466686595
 30
0.0
 11
6.5
 21
68.31868131868131
 31
0.0
  0
LINE
  5
242
330
17
100
AcDbEntity
  8
TOP
100
AcDbLine
 10
6.5
 20
68.31868131868131
 30
0.0
 11
7.8715
 21
67.51998466686595
 31
0.0
  0
LINE
  5
243
330
17
100
AcDbEntity
  8
TOP
100
AcDbLine
 10
8.3785
 20
67.51998466686595
 30
0.0
 11
9.75
 21
68.31868131868131
 31
0.0
  0
LINE
  5
244
330
17
100
AcDbEntity
  8
TOP
100
AcDbLine
 10
9.75
 20
68.31868131868131
 30
0.0
 11
11.1215
 21
67.51998466686595
 31
0.0
  0
LINE
  5
245
330
17
100
AcDbEntity
  8
TOP
100
AcDbLine
 10
11.6285
 20
67.51998466686595
 30
0.0
 11
13.0
 21
68.31868131868131
 31
0.0
  0
LINE
  5
246
330
17
100
AcDbEntity
  8
TOP
100
AcDbLine
 10
0.2535
 20
68.46503961192089
 30
0.0
 11
1.625
 21
69.26373626373626
 31
0.0
  0
LINE
  5
247
330
17
100
AcDbEntity
  8
TOP
100
AcDbLine
 10
1.625
 20
69.26373626373626
 30
0.0
 11
2.9965
 21
68.46503961192089
 31
0.0
  0
LINE
  5
248
330
17
100
AcDbEntity
  8
TOP
100
AcDbLine
 10
3.5035
 20
68.46503961192089
 30
0.0
 11
4.875
 21
69.26373626373626
 31
0.0
  0
LINE
  5
249
330
17
100
AcDbEntity
  8
TOP
100
AcDbLine
 10
4.875
 20
69.26373626373626
 30
0.0
 11
6.2465
 21
68.46503961192089
 31
0.0
  0
LINE
  5
24A
330
17
100
AcDbEntity
  8
TOP
100
AcDbLine
 10
6.7535
 20
68.46503961192089
 30
0.0
 11
8.125
 21
69.26373626373626
 31
0.0
  0
LINE
  5
24B
330
17
100
AcDbEntity
  8
TOP
100
AcDbLine
 10
8.125
 20
69.26373626373626
 30
0.0
 11
9.4965
 21
68.46503961192089
 31
0.0
  0
LINE
  5
24C
330
17
100
AcDbEntity
  8
TOP
100
AcDbLine
 10
10.0035
 20
68.46503961192089
 30
0.0
 11
11.375
 21
69.26373626373626
 31
0.0
  0
LINE
  5
24D
330
17
100
AcDbEntity
  8
TOP
100
AcDbLine
 10
11.375
 20
69.26373626373626
 30
0.0
 11
12.7465
 21
68.46503961192089
 31
0.0
  0
LINE
  5
24E
330
17
100
AcDbEntity
  8
TOP
100
AcDbLine
 10
0.0
 20
70.20879120879121
 30
0.0
 11
1.3715
 21
69.41009455697584
 31
0.0
  0
LINE
  5
24F
330
17
100
AcDbEntity
  8
TOP
100
AcDbLine
 10
1.8785
 20
69.41009455697584
 30
0.0
 11
3.25
 21
70.20879120879121
 31
0.0
  0
LINE
  5
250
330
17
100
AcDbEntity
  8
TOP
100
AcDbLine
 10
3.25
 20
70.20879120879121
 30
0.0
 11
4.6215
 21
69.41009455697584
 31
0.0
  0
LINE
  5
251
330
17
100
AcDbEntity
  8
TOP
100
AcDbLine
 10
5.1285
 20
69.41009455697584
 30
0.0
 11
6.5
 21
70.20879120879121
 31
0.0
  0
LINE
  5
252
330
17
100
AcDbEntity
  8
TOP
100
AcDbLine
 10
6.5
 20
70.20879120879121
 30
0.0
 11
7.8715
 21
69.41009455697584
 31
0.0
  0
LINE
  5
253
330
17
100
AcDbEntity
  8
TOP
100
AcDbLine
 10
8.3785
 20
69.41009455697584
 30
0.0
 11
9.75
 21
70.20879120879121
 31
0.0
  0
LINE
  5
254
330
17
100
AcDbEntity
  8
TOP
100
AcDbLine
 10
9.75
 20
70.20879120879121
 30
0.0
 11
11.1215
 21
69.41009455697584
 31
0.0
  0
LINE
  5
255
330
17
100
AcDbEntity
  8
TOP
100
AcDbLine
 10
11.6285
 20
69.41009455697584
 30
0.0
 11
13.0
 21
70.20879120879121
 31
0.0
  0
LINE
  5
256
330
17
100
AcDbEntity
  8
TOP
100
AcDbLine
 10
0.2535
 20
70.35514950203078
 30
0.0
 11
1.625
 21
71.15384615384615
 31
0.0
  0
LINE
  5
257
330
17
100
AcDbEntity
  8
TOP
100
AcDbLine
 10
1.625
 20
71.15384615384615
 30
0.0
 11
2.9965
 21
70.35514950203078
 31
0.0
  0
LINE
  5
258
330
17
100
AcDbEntity
  8
TOP
100
AcDbLine
 10
3.5035
 20
70.35514950203078
 30
0.0
 11
4.875
 21
71.15384615384615
 31
0.0
  0
LINE
  5
259
330
17
100
AcDbEntity
  8
TOP
100
AcDbLine
 10
4.875
 20
71.15384615384615
 30
0.0
 11
6.2465
 21
70.35514950203078
 31
0.0
  0
LINE
  5
25A
330
17
100
AcDbEntity
  8
TOP
100
AcDbLine
 10
6.7535
 20
70.35514950203078
 30
0.0
 11
8.125
 21
71.15384615384615
 31
0.0
  0
LINE
  5
25B
330
17
100
AcDbEntity
  8
TOP
100
AcDbLine
 10
8.125
 20
71.15384615384615
 30
0.0
 11
9.4965
 21
70.35514950203078
 31
0.0
  0
LINE
  5
25C
330
17
100
AcDbEntity
  8
TOP
100
AcDbLine
 10
10.0035
 20
70.35514950203078
 30
0.0
 11
11.375
 21
71.15384615384615
 31
0.0
  0
LINE
  5
25D
330
17
100
AcDbEntity
  8
TOP
100
AcDbLine
 10
11.375
 20
71.15384615384615
 30
0.0
 11
12.7465
 21
70.35514950203078
 31
0.0
  0
LINE
  5
25E
330
17
100
AcDbEntity
  8
TOP
100
AcDbLine
 10
0.0
 20
72.0989010989011
 30
0.0
 11
1.3715
 21
71.30020444708572
 31
0.0
  0
LINE
  5
25F
330
17
100
AcDbEntity
  8
TOP
100
AcDbLine
 10
1.8785
 20
71.30020444708572
 30
0.0
 11
3.25
 21
72.0989010989011
 31
0.0
  0
LINE
  5
260
330
17
100
AcDbEntity
  8
TOP
100
AcDbLine
 10
3.25
 20
72.0989010989011
 30
0.0
 11
4.6215
 21
71.30020444708572
 31
0.0
  0
LINE
  5
261
330
17
100
AcDbEntity
  8
TOP
100
AcDbLine
 10
5.1285
 20
71.30020444708572
 30
0.0
 11
6.5
 21
72.0989010989011
 31
0.0
  0
LINE
  5
262
330
17
100
AcDbEntity
  8
TOP
100
AcDbLine
 10
6.5
 20
72.0989010989011
 30
0.0
 11
7.8715
 21
71.30020444708572
 31
0.0
  0
LINE
  5
263
330
17
100
AcDbEntity
  8
TOP
100
AcDbLine
 10
8.3785
 20
71.30020444708572
 30
0.0
 11
9.75
 21
72.0989010989011
 31
0.0
  0
LINE
  5
264
330
17
100
AcDbEntity
  8
TOP
100
AcDbLine
 10
9.75
 20
72.0989010989011
 30
0.0
 11
11.1215
 21
71.30020444708572
 31
0.0
  0
LINE
  5
265
330
17
100
AcDbEntity
  8
TOP
100
AcDbLine
 10
11.6285
 20
71.30020444708572
 30
0.0
 11
13.0
 21
72.0989010989011
 31
0.0
  0
LINE
  5
266
330
17
100
AcDbEntity
  8
TOP
100
AcDbLine
 10
0.2535
 20
72.24525939214067
 30
0.0
 11
1.625
 21
73.04395604395604
 31
0.0
  0
LINE
  5
267
330
17
100
AcDbEntity
  8
TOP
100
AcDbLine
 10
1.625
 20
73.04395604395604
 30
0.0
 11
2.9965
 21
72.24525939214067
 31
0.0
  0
LINE
  5
268
330
17
100
AcDbEntity
  8
TOP
100
AcDbLine
 10
3.5035
 20
72.24525939214067
 30
0.0
 11
4.875
 21
73.04395604395604
 31
0.0
  0
LINE
  5
269
330
17
100
AcDbEntity
  8
TOP
100
AcDbLine
 10
4.875
 20
73.04395604395604
 30
0.0
 11
6.2465
 21
72.24525939214067
 31
0.0
  0
LINE
  5
26A
330
17
100
AcDbEntity
  8
TOP
100
AcDbLine
 10
6.7535
 20
72.24525939214067
 30
0.0
 11
8.125
 21
73.04395604395604
 31
0.0
  0
LINE
  5
26B
330
17
100
AcDbEntity
  8
TOP
100
AcDbLine
 10
8.125
 20
73.04395604395604
 30
0.0
 11
9.4965
 21
72.24525939214067
 31
0.0
  0
LINE
  5
26C
330
17
100
AcDbEntity
  8
TOP
100
AcDbLine
 10
10.0035
 20
72.24525939214067
 30
0.0
 11
11.375
 21
73.04395604395604
 31
0.0
  0
LINE
  5
26D
330
17
100
AcDbEntity
  8
TOP
100
AcDbLine
 10
11.375
 20
73.04395604395604
 30
0.0
 11
12.7465
 21
72.24525939214067
 31
0.0
  0
LINE
  5
26E
330
17
100
AcDbEntity
  8
TOP
100
AcDbLine
 10
0.0
 20
73.98901098901099
 30
0.0
 11
1.3715
 21
73.19031433719562
 31
0.0
  0
LINE
  5
26F
330
17
100
AcDbEntity
  8
TOP
100
AcDbLine
 10
1.8785
 20
73.19031433719562
 30
0.0
 11
3.25
 21
73.98901098901099
 31
0.0
  0
LINE
  5
270
330
17
100
AcDbEntity
  8
TOP
100
AcDbLine
 10
3.25
 20
73.98901098901099
 30
0.0
 11
4.6215
 21
73.19031433719562
 31
0.0
  0
LINE
  5
271
330
17
100
AcDbEntity
  8
TOP
100
AcDbLine
 10
5.1285
 20
73.19031433719562
 30
0.0
 11
6.5
 21
73.98901098901099
 31
0.0
  0
LINE
  5
272
330
17
100
AcDbEntity
  8
TOP
100
AcDbLine
 10
6.5
 20
73.98901098901099
 30
0.0
 11
7.8715
 21
73.19031433719562
 31
0.0
  0
LINE
  5
273
330
17
100
AcDbEntity
  8
TOP
100
AcDbLine
 10
8.3785
 20
73.19031433719562
 30
0.0
 11
9.75
 21
73.98901098901099
 31
0.0
  0
LINE
  5
274
330
17
100
AcDbEntity
  8
TOP
100
AcDbLine
 10
9.75
 20
73.98901098901099
 30
0.0
 11
11.1215
 21
73.19031433719562
 31
0.0
  0
LINE
  5
275
330
17
100
AcDbEntity
  8
TOP
100
AcDbLine
 10
11.6285
 20
73.19031433719562
 30
0.0
 11
13.0
 21
73.98901098901099
 31
0.0
  0
LINE
  5
276
330
17
100
AcDbEntity
  8
TOP
100
AcDbLine
 10
0.2535
 20
74.13536928225056
 30
0.0
 11
1.625
 21
74.93406593406593
 31
0.0
  0
LINE
  5
277
330
17
100
AcDbEntity
  8
TOP
100
AcDbLine
 10
1.625
 20
74.93406593406593
 30
0.0
 11
2.9965
 21
74.13536928225056
 31
0.0
  0
LINE
  5
278
330
17
100
AcDbEntity
  8
TOP
100
AcDbLine
 10
3.5035
 20
74.13536928225056
 30
0.0
 11
4.875
 21
74.93406593406593
 31
0.0
  0
LINE
  5
279
330
17
100
AcDbEntity
  8
TOP
100
AcDbLine
 10
4.875
 20
74.93406593406593
 30
0.0
 11
6.2465
 21
74.13536928225056
 31
0.0
  0
LINE
  5
27A
330
17
100
AcDbEntity
  8
TOP
100
AcDbLine
 10
6.7535
 20
74.13536928225056
 30
0.0
 11
8.125
 21
74.93406593406593
 31
0.0
  0
LINE
  5
27B
330
17
100
AcDbEntity
  8
TOP
100
AcDbLine
 10
8.125
 20
74.93406593406593
 30
0.0
 11
9.4965
 21
74.13536928225056
 31
0.0
  0
LINE
  5
27C
330
17
100
AcDbEntity
  8
TOP
100
AcDbLine
 10
10.0035
 20
74.13536928225056
 30
0.0
 11
11.375
 21
74.93406593406593
 31
0.0
  0
LINE
  5
27D
330
17
100
AcDbEntity
  8
TOP
100
AcDbLine
 10
11.375
 20
74.93406593406593
 30
0.0
 11
12.7465
 21
74.13536928225056
 31
0.0
  0
LINE
  5
27E
330
17
100
AcDbEntity
  8
TOP
100
AcDbLine
 10
0.0
 20
75.87912087912088
 30
0.0
 11
1.3715
 21
75.0804242273055
 31
0.0
  0
LINE
  5
27F
330
17
100
AcDbEntity
  8
TOP
100
AcDbLine
 10
1.8785
 20
75.0804242273055
 30
0.0
 11
3.25
 21
75.87912087912088
 31
0.0
  0
LINE
  5
280
330
17
100
AcDbEntity
  8
TOP
100
AcDbLine
 10
3.25
 20
75.87912087912088
 30
0.0
 11
4.6215
 21
75.0804242273055
 31
0.0
  0
LINE
  5
281
330
17
100
AcDbEntity
  8
TOP
100
AcDbLine
 10
5.1285
 20
75.0804242273055
 30
0.0
 11
6.5
 21
75.87912087912088
 31
0.0
  0
LINE
  5
282
330
17
100
AcDbEntity
  8
TOP
100
AcDbLine
 10
6.5
 20
75.87912087912088
 30
0.0
 11
7.8715
 21
75.0804242273055
 31
0.0
  0
LINE
  5
283
330
17
100
AcDbEntity
  8
TOP
100
AcDbLine
 10
8.3785
 20
75.0804242273055
 30
0.0
 11
9.75
 21
75.87912087912088
 31
0.0
  0
LINE
  5
284
330
17
100
AcDbEntity
  8
TOP
100
AcDbLine
 10
9.75
 20
75.87912087912088
 30
0.0
 11
11.1215
 21
75.0804242273055
 31
0.0
  0
LINE
  5
285
330
17
100
AcDbEntity
  8
TOP
100
AcDbLine
 10
11.6285
 20
75.0804242273055
 30
0.0
 11
13.0
 21
75.87912087912088
 31
0.0
  0
LINE
  5
286
330
17
100
AcDbEntity
  8
TOP
100
AcDbLine
 10
0.2535
 20
76.02547917236045
 30
0.0
 11
1.625
 21
76.82417582417582
 31
0.0
  0
LINE
  5
287
330
17
100
AcDbEntity
  8
TOP
100
AcDbLine
 10
1.625
 20
76.82417582417582
 30
0.0
 11
2.9965
 21
76.02547917236045
 31
0.0
  0
LINE
  5
288
330
17
100
AcDbEntity
  8
TOP
100
AcDbLine
 10
3.5035
 20
76.02547917236045
 30
0.0
 11
4.875
 21
76.82417582417582
 31
0.0
  0
LINE
  5
289
330
17
100
AcDbEntity
  8
TOP
100
AcDbLine
 10
4.875
 20
76.82417582417582
 30
0.0
 11
6.2465
 21
76.02547917236045
 31
0.0
  0
LINE
  5
28A
330
17
100
AcDbEntity
  8
TOP
100
AcDbLine
 10
6.7535
 20
76.02547917236045
 30
0.0
 11
8.125
 21
76.82417582417582
 31
0.0
  0
LINE
  5
28B
330
17
100
AcDbEntity
  8
TOP
100
AcDbLine
 10
8.125
 20
76.82417582417582
 30
0.0
 11
9.4965
 21
76.02547917236045
 31
0.0
  0
LINE
  5
28C
330
17
100
AcDbEntity
  8
TOP
100
AcDbLine
 10
10.0035
 20
76.02547917236045
 30
0.0
 11
11.375
 21
76.82417582417582
 31
0.0
  0
LINE
  5
28D
330
17
100
AcDbEntity
  8
TOP
100
AcDbLine
 10
11.375
 20
76.82417582417582
 30
0.0
 11
12.7465
 21
76.02547917236045
 31
0.0
  0
LINE
  5
28E
330
17
100
AcDbEntity
  8
TOP
100
AcDbLine
 10
0.0
 20
77.76923076923077
 30
0.0
 11
1.3715
 21
76.9705341174154
 31
0.0
  0
LINE
  5
28F
330
17
100
AcDbEntity
  8
TOP
100
AcDbLine
 10
1.8785
 20
76.9705341174154
 30
0.0
 11
3.25
 21
77.76923076923077
 31
0.0
  0
LINE
  5
290
330
17
100
AcDbEntity
  8
TOP
100
AcDbLine
 10
3.25
 20
77.76923076923077
 30
0.0
 11
4.6215
 21
76.9705341174154
 31
0.0
  0
LINE
  5
291
330
17
100
AcDbEntity
  8
TOP
100
AcDbLine
 10
5.1285
 20
76.9705341174154
 30
0.0
 11
6.5
 21
77.76923076923077
 31
0.0
  0
LINE
  5
292
330
17
100
AcDbEntity
  8
TOP
100
AcDbLine
 10
6.5
 20
77.76923076923077
 30
0.0
 11
7.8715
 21
76.9705341174154
 31
0.0
  0
LINE
  5
293
330
17
100
AcDbEntity
  8
TOP
100
AcDbLine
 10
8.3785
 20
76.9705341174154
 30
0.0
 11
9.75
 21
77.76923076923077
 31
0.0
  0
LINE
  5
294
330
17
100
AcDbEntity
  8
TOP
100
AcDbLine
 10
9.75
 20
77.76923076923077
 30
0.0
 11
11.1215
 21
76.9705341174154
 31
0.0
  0
LINE
  5
295
330
17
100
AcDbEntity
  8
TOP
100
AcDbLine
 10
11.6285
 20
76.9705341174154
 30
0.0
 11
13.0
 21
77.76923076923077
 31
0.0
  0
LINE
  5
296
330
17
100
AcDbEntity
  8
TOP
100
AcDbLine
 10
0.2535
 20
77.91558906247035
 30
0.0
 11
1.625
 21
78.71428571428571
 31
0.0
  0
LINE
  5
297
330
17
100
AcDbEntity
  8
TOP
100
AcDbLine
 10
1.625
 20
78.71428571428571
 30
0.0
 11
2.9965
 21
77.91558906247035
 31
0.0
  0
LINE
  5
298
330
17
100
AcDbEntity
  8
TOP
100
AcDbLine
 10
3.5035
 20
77.91558906247035
 30
0.0
 11
4.875
 21
78.71428571428571
 31
0.0
  0
LINE
  5
299
330
17
100
AcDbEntity
  8
TOP
100
AcDbLine
 10
4.875
 20
78.71428571428571
 30
0.0
 11
6.2465
 21
77.91558906247035
 31
0.0
  0
LINE
  5
29A
330
17
100
AcDbEntity
  8
TOP
100
AcDbLine
 10
6.7535
 20
77.91558906247035
 30
0.0
 11
8.125
 21
78.71428571428571
 31
0.0
  0
LINE
  5
29B
330
17
100
AcDbEntity
  8
TOP
100
AcDbLine
 10
8.125
 20
78.71428571428571
 30
0.0
 11
9.4965
 21
77.91558906247035
 31
0.0
  0
LINE
  5
29C
330
17
100
AcDbEntity
  8
TOP
100
AcDbLine
 10
10.0035
 20
77.91558906247035
 30
0.0
 11
11.375
 21
78.71428571428571
 31
0.0
  0
LINE
  5
29D
330
17
100
AcDbEntity
  8
TOP
100
AcDbLine
 10
11.375
 20
78.71428571428571
 30
0.0
 11
12.7465
 21
77.91558906247035
 31
0.0
  0
LINE
  5
29E
330
17
100
AcDbEntity
  8
TOP
100
AcDbLine
 10
0.0
 20
79.65934065934066
 30
0.0
 11
1.3715
 21
78.86064400752528
 31
0.0
  0
LINE
  5
29F
330
17
100
AcDbEntity
  8
TOP
100
AcDbLine
 10
1.8785
 20
78.86064400752528
 30
0.0
 11
3.25
 21
79.65934065934066
 31
0.0
  0
LINE
  5
2A0
330
17
100
AcDbEntity
  8
TOP
100
AcDbLine
 10
3.25
 20
79.65934065934066
 30
0.0
 11
4.6215
 21
78.86064400752528
 31
0.0
  0
LINE
  5
2A1
330
17
100
AcDbEntity
  8
TOP
100
AcDbLine
 10
5.1285
 20
78.86064400752528
 30
0.0
 11
6.5
 21
79.65934065934066
 31
0.0
  0
LINE
  5
2A2
330
17
100
AcDbEntity
  8
TOP
100
AcDbLine
 10
6.5
 20
79.65934065934066
 30
0.0
 11
7.8715
 21
78.86064400752528
 31
0.0
  0
LINE
  5
2A3
330
17
100
AcDbEntity
  8
TOP
100
AcDbLine
 10
8.3785
 20
78.86064400752528
 30
0.0
 11
9.75
 21
79.65934065934066
 31
0.0
  0
LINE
  5
2A4
330
17
100
AcDbEntity
  8
TOP
100
AcDbLine
 10
9.75
 20
79.65934065934066
 30
0.0
 11
11.1215
 21
78.86064400752528
 31
0.0
  0
LINE
  5
2A5
330
17
100
AcDbEntity
  8
TOP
100
AcDbLine
 10
11.6285
 20
78.86064400752528
 30
0.0
 11
13.0
 21
79.65934065934066
 31
0.0
  0
LINE
  5
2A6
330
17
100
AcDbEntity
  8
TOP
100
AcDbLine
 10
0.2535
 20
79.80569895258023
 30
0.0
 11
1.625
 21
80.6043956043956
 31
0.0
  0
LINE
  5
2A7
330
17
100
AcDbEntity
  8
TOP
100
AcDbLine
 10
1.625
 20
80.6043956043956
 30
0.0
 11
2.9965
 21
79.80569895258023
 31
0.0
  0
LINE
  5
2A8
330
17
100
AcDbEntity
  8
TOP
100
AcDbLine
 10
3.5035
 20
79.80569895258023
 30
0.0
 11
4.875
 21
80.6043956043956
 31
0.0
  0
LINE
  5
2A9
330
17
100
AcDbEntity
  8
TOP
100
AcDbLine
 10
4.875
 20
80.6043956043956
 30
0.0
 11
6.2465
 21
79.80569895258023
 31
0.0
  0
LINE
  5
2AA
330
17
100
AcDbEntity
  8
TOP
100
AcDbLine
 10
6.7535
 20
79.80569895258023
 30
0.0
 11
8.125
 21
80.6043956043956
 31
0.0
  0
LINE
  5
2AB
330
17
100
AcDbEntity
  8
TOP
100
AcDbLine
 10
8.125
 20
80.6043956043956
 30
0.0
 11
9.4965
 21
79.80569895258023
 31
0.0
  0
LINE
  5
2AC
330
17
100
AcDbEntity
  8
TOP
100
AcDbLine
 10
10.0035
 20
79.80569895258023
 30
0.0
 11
11.375
 21
80.6043956043956
 31
0.0
  0
LINE
  5
2AD
330
17
100
AcDbEntity
  8
TOP
100
AcDbLine
 10
11.375
 20
80.6043956043956
 30
0.0
 11
12.7465
 21
79.80569895258023
 31
0.0
  0
LINE
  5
2AE
330
17
100
AcDbEntity
  8
TOP
100
AcDbLine
 10
0.0
 20
81.54945054945054
 30
0.0
 11
1.3715
 21
80.75075389763518
 31
0.0
  0
LINE
  5
2AF
330
17
100
AcDbEntity
  8
TOP
100
AcDbLine
 10
1.8785
 20
80.75075389763518
 30
0.0
 11
3.25
 21
81.54945054945054
 31
0.0
  0
LINE
  5
2B0
330
17
100
AcDbEntity
  8
TOP
100
AcDbLine
 10
3.25
 20
81.54945054945054
 30
0.0
 11
4.6215
 21
80.75075389763518
 31
0.0
  0
LINE
  5
2B1
330
17
100
AcDbEntity
  8
TOP
100
AcDbLine
 10
5.1285
 20
80.75075389763518
 30
0.0
 11
6.5
 21
81.54945054945054
 31
0.0
  0
LINE
  5
2B2
330
17
100
AcDbEntity
  8
TOP
100
AcDbLine
 10
6.5
 20
81.54945054945054
 30
0.0
 11
7.8715
 21
80.75075389763518
 31
0.0
  0
LINE
  5
2B3
330
17
100
AcDbEntity
  8
TOP
100
AcDbLine
 10
8.3785
 20
80.75075389763518
 30
0.0
 11
9.75
 21
81.54945054945054
 31
0.0
  0
LINE
  5
2B4
330
17
100
AcDbEntity
  8
TOP
100
AcDbLine
 10
9.75
 20
81.54945054945054
 30
0.0
 11
11.1215
 21
80.75075389763518
 31
0.0
  0
LINE
  5
2B5
330
17
100
AcDbEntity
  8
TOP
100
AcDbLine
 10
11.6285
 20
80.75075389763518
 30
0.0
 11
13.0
 21
81.54945054945054
 31
0.0
  0
LINE
  5
2B6
330
17
100
AcDbEntity
  8
TOP
100
AcDbLine
 10
0.2535
 20
81.69580884269011
 30
0.0
 11
1.625
 21
82.49450549450549
 31
0.0
  0
LINE
  5
2B7
330
17
100
AcDbEntity
  8
TOP
100
AcDbLine
 10
1.625
 20
82.49450549450549
 30
0.0
 11
2.9965
 21
81.69580884269011
 31
0.0
  0
LINE
  5
2B8
330
17
100
AcDbEntity
  8
TOP
100
AcDbLine
 10
3.5035
 20
81.69580884269011
 30
0.0
 11
4.875
 21
82.49450549450549
 31
0.0
  0
LINE
  5
2B9
330
17
100
AcDbEntity
  8
TOP
100
AcDbLine
 10
4.875
 20
82.49450549450549
 30
0.0
 11
6.2465
 21
81.69580884269011
 31
0.0
  0
LINE
  5
2BA
330
17
100
AcDbEntity
  8
TOP
100
AcDbLine
 10
6.7535
 20
81.69580884269011
 30
0.0
 11
8.125
 21
82.49450549450549
 31
0.0
  0
LINE
  5
2BB
330
17
100
AcDbEntity
  8
TOP
100
AcDbLine
 10
8.125
 20
82.49450549450549
 30
0.0
 11
9.4965
 21
81.69580884269011
 31
0.0
  0
LINE
  5
2BC
330
17
100
AcDbEntity
  8
TOP
100
AcDbLine
 10
10.0035
 20
81.69580884269011
 30
0.0
 11
11.375
 21
82.49450549450549
 31
0.0
  0
LINE
  5
2BD
330
17
100
AcDbEntity
  8
TOP
100
AcDbLine
 10
11.375
 20
82.49450549450549
 30
0.0
 11
12.7465
 21
81.69580884269011
 31
0.0
  0
LINE
  5
2BE
330
17
100
AcDbEntity
  8
TOP
100
AcDbLine
 10
0.0
 20
83.43956043956044
 30
0.0
 11
1.3715
 21
82.64086378774506
 31
0.0
  0
LINE
  5
2BF
330
17
100
AcDbEntity
  8
TOP
100
AcDbLine
 10
1.8785
 20
82.64086378774506
 30
0.0
 11
3.25
 21
83.43956043956044
 31
0.0
  0
LINE
  5
2C0
330
17
100
AcDbEntity
  8
TOP
100
AcDbLine
 10
3.25
 20
83.43956043956044
 30
0.0
 11
4.6215
 21
82.64086378774506
 31
0.0
  0
LINE
  5
2C1
330
17
100
AcDbEntity
  8
TOP
100
AcDbLine
 10
5.1285
 20
82.64086378774506
 30
0.0
 11
6.5
 21
83.43956043956044
 31
0.0
  0
LINE
  5
2C2
330
17
100
AcDbEntity
  8
TOP
100
AcDbLine
 10
6.5
 20
83.43956043956044
 30
0.0
 11
7.8715
 21
82.64086378774506
 31
0.0
  0
LINE
  5
2C3
330
17
100
AcDbEntity
  8
TOP
100
AcDbLine
 10
8.3785
 20
82.64086378774506
 30
0.0
 11
9.75
 21
83.43956043956044
 31
0.0
  0
LINE
  5
2C4
330
17
100
AcDbEntity
  8
TOP
100
AcDbLine
 10
9.75
 20
83.43956043956044
 30
0.0
 11
11.1215
 21
82.64086378774506
 31
0.0
  0
LINE
  5
2C5
330
17
100
AcDbEntity
  8
TOP
100
AcDbLine
 10
11.6285
 20
82.64086378774506
 30
0.0
 11
13.0
 21
83.43956043956044
 31
0.0
  0
LINE
  5
2C6
330
17
100
AcDbEntity
  8
TOP
100
AcDbLine
 10
0.2535
 20
83.58591873280001
 30
0.0
 11
1.625
 21
84.38461538461539
 31
0.0
  0
LINE
  5
2C7
330
17
100
AcDbEntity
  8
TOP
100
AcDbLine
 10
1.625
 20
84.38461538461539
 30
0.0
 11
2.9965
 21
83.58591873280001
 31
0.0
  0
LINE
  5
2C8
330
17
100
AcDbEntity
  8
TOP
100
AcDbLine
 10
3.5035
 20
83.58591873280001
 30
0.0
 11
4.875
 21
84.38461538461539
 31
0.0
  0
LINE
  5
2C9
330
17
100
AcDbEntity
  8
TOP
100
AcDbLine
 10
4.875
 20
84.38461538461539
 30
0.0
 11
6.2465
 21
83.58591873280001
 31
0.0
  0
LINE
  5
2CA
330
17
100
AcDbEntity
  8
TOP
100
AcDbLine
 10
6.7535
 20
83.58591873280001
 30
0.0
 11
8.125
 21
84.38461538461539
 31
0.0
  0
LINE
  5
2CB
330
17
100
AcDbEntity
  8
TOP
100
AcDbLine
 10
8.125
 20
84.38461538461539
 30
0.0
 11
9.4965
 21
83.58591873280001
 31
0.0
  0
LINE
  5
2CC
330
17
100
AcDbEntity
  8
TOP
100
AcDbLine
 10
10.0035
 20
83.58591873280001
 30
0.0
 11
11.375
 21
84.38461538461539
 31
0.0
  0
LINE
  5
2CD
330
17
100
AcDbEntity
  8
TOP
100
AcDbLine
 10
11.375
 20
84.38461538461539
 30
0.0
 11
12.7465
 21
83.58591873280001
 31
0.0
  0
LINE
  5
2CE
330
17
100
AcDbEntity
  8
TOP
100
AcDbLine
 10
0.0
 20
85.32967032967032
 30
0.0
 11
1.3715
 21
84.53097367785496
 31
0.0
  0
LINE
  5
2CF
330
17
100
AcDbEntity
  8
TOP
100
AcDbLine
 10
1.8785
 20
84.53097367785496
 30
0.0
 11
3.25
 21
85.32967032967032
 31
0.0
  0
LINE
  5
2D0
330
17
100
AcDbEntity
  8
TOP
100
AcDbLine
 10
3.25
 20
85.32967032967032
 30
0.0
 11
4.6215
 21
84.53097367785496
 31
0.0
  0
LINE
  5
2D1
330
17
100
AcDbEntity
  8
TOP
100
AcDbLine
 10
5.1285
 20
84.53097367785496
 30
0.0
 11
6.5
 21
85.32967032967032
 31
0.0
  0
LINE
  5
2D2
330
17
100
AcDbEntity
  8
TOP
100
AcDbLine
 10
6.5
 20
85.32967032967032
 30
0.0
 11
7.8715
 21
84.53097367785496
 31
0.0
  0
LINE
  5
2D3
330
17
100
AcDbEntity
  8
TOP
100
AcDbLine
 10
8.3785
 20
84.53097367785496
 30
0.0
 11
9.75
 21
85.32967032967032
 31
0.0
  0
LINE
  5
2D4
330
17
100
AcDbEntity
  8
TOP
100
AcDbLine
 10
9.75
 20
85.32967032967032
 30
0.0
 11
11.1215
 21
84.53097367785496
 31
0.0
  0
LINE
  5
2D5
330
17
100
AcDbEntity
  8
TOP
100
AcDbLine
 10
11.6285
 20
84.53097367785496
 30
0.0
 11
13.0
 21
85.32967032967032
 31
0.0
  0
LINE
  5
2D6
330
17
100
AcDbEntity
  8
TOP
100
AcDbLine
 10
0.2535
 20
85.4760286229099
 30
0.0
 11
1.625
 21
86.27472527472527
 31
0.0
  0
LINE
  5
2D7
330
17
100
AcDbEntity
  8
TOP
100
AcDbLine
 10
1.625
 20
86.27472527472527
 30
0.0
 11
2.9965
 21
85.4760286229099
 31
0.0
  0
LINE
  5
2D8
330
17
100
AcDbEntity
  8
TOP
100
AcDbLine
 10
3.5035
 20
85.4760286229099
 30
0.0
 11
4.875
 21
86.27472527472527
 31
0.0
  0
LINE
  5
2D9
330
17
100
AcDbEntity
  8
TOP
100
AcDbLine
 10
4.875
 20
86.27472527472527
 30
0.0
 11
6.2465
 21
85.4760286229099
 31
0.0
  0
LINE
  5
2DA
330
17
100
AcDbEntity
  8
TOP
100
AcDbLine
 10
6.7535
 20
85.4760286229099
 30
0.0
 11
8.125
 21
86.27472527472527
 31
0.0
  0
LINE
  5
2DB
330
17
100
AcDbEntity
  8
TOP
100
AcDbLine
 10
8.125
 20
86.27472527472527
 30
0.0
 11
9.4965
 21
85.4760286229099
 31
0.0
  0
LINE
  5
2DC
330
17
100
AcDbEntity
  8
TOP
100
AcDbLine
 10
10.0035
 20
85.4760286229099
 30
0.0
 11
11.375
 21
86.27472527472527
 31
0.0
  0
LINE
  5
2DD
330
17
100
AcDbEntity
  8
TOP
100
AcDbLine
 10
11.375
 20
86.27472527472527
 30
0.0
 11
12.7465
 21
85.4760286229099
 31
0.0
  0
LINE
  5
2DE
330
17
100
AcDbEntity
  8
TOP
100
AcDbLine
 10
0.0
 20
87.21978021978022
 30
0.0
 11
1.3715
 21
86.42108356796484
 31
0.0
  0
LINE
  5
2DF
330
17
100
AcDbEntity
  8
TOP
100
AcDbLine
 10
1.8785
 20
86.42108356796484
 30
0.0
 11
3.25
 21
87.21978021978022
 31
0.0
  0
LINE
  5
2E0
330
17
100
AcDbEntity
  8
TOP
100
AcDbLine
 10
3.25
 20
87.21978021978022
 30
0.0
 11
4.6215
 21
86.42108356796484
 31
0.0
  0
LINE
  5
2E1
330
17
100
AcDbEntity
  8
TOP
100
AcDbLine
 10
5.1285
 20
86.42108356796484
 30
0.0
 11
6.5
 21
87.21978021978022
 31
0.0
  0
LINE
  5
2E2
330
17
100
AcDbEntity
  8
TOP
100
AcDbLine
 10
6.5
 20
87.21978021978022
 30
0.0
 11
7.8715
 21
86.42108356796484
 31
0.0
  0
LINE
  5
2E3
330
17
100
AcDbEntity
  8
TOP
100
AcDbLine
 10
8.3785
 20
86.42108356796484
 30
0.0
 11
9.75
 21
87.21978021978022
 31
0.0
  0
LINE
  5
2E4
330
17
100
AcDbEntity
  8
TOP
100
AcDbLine
 10
9.75
 20
87.21978021978022
 30
0.0
 11
11.1215
 21
86.42108356796484
 31
0.0
  0
LINE
  5
2E5
330
17
100
AcDbEntity
  8
TOP
100
AcDbLine
 10
11.6285
 20
86.42108356796484
 30
0.0
 11
13.0
 21
87.21978021978022
 31
0.0
  0
LINE
  5
2E6
330
17
100
AcDbEntity
  8
TOP
100
AcDbLine
 10
0.2535
 20
87.36613851301979
 30
0.0
 11
1.625
 21
88.16483516483517
 31
0.0
  0
LINE
  5
2E7
330
17
100
AcDbEntity
  8
TOP
100
AcDbLine
 10
1.625
 20
88.16483516483517
 30
0.0
 11
2.9965
 21
87.36613851301979
 31
0.0
  0
LINE
  5
2E8
330
17
100
AcDbEntity
  8
TOP
100
AcDbLine
 10
3.5035
 20
87.36613851301979
 30
0.0
 11
4.875
 21
88.16483516483517
 31
0.0
  0
LINE
  5
2E9
330
17
100
AcDbEntity
  8
TOP
100
AcDbLine
 10
4.875
 20
88.16483516483517
 30
0.0
 11
6.2465
 21
87.36613851301979
 31
0.0
  0
LINE
  5
2EA
330
17
100
AcDbEntity
  8
TOP
100
AcDbLine
 10
6.7535
 20
87.36613851301979
 30
0.0
 11
8.125
 21
88.16483516483517
 31
0.0
  0
LINE
  5
2EB
330
17
100
AcDbEntity
  8
TOP
100
AcDbLine
 10
8.125
 20
88.16483516483517
 30
0.0
 11
9.4965
 21
87.36613851301979
 31
0.0
  0
LINE
  5
2EC
330
17
100
AcDbEntity
  8
TOP
100
AcDbLine
 10
10.0035
 20
87.36613851301979
 30
0.0
 11
11.375
 21
88.16483516483517
 31
0.0
  0
LINE
  5
2ED
330
17
100
AcDbEntity
  8
TOP
100
AcDbLine
 10
11.375
 20
88.16483516483517
 30
0.0
 11
12.7465
 21
87.36613851301979
 31
0.0
  0
LINE
  5
2EE
330
17
100
AcDbEntity
  8
TOP
100
AcDbLine
 10
0.0
 20
89.1098901098901
 30
0.0
 11
1.3715
 21
88.31119345807474
 31
0.0
  0
LINE
  5
2EF
330
17
100
AcDbEntity
  8
TOP
100
AcDbLine
 10
1.8785
 20
88.31119345807474
 30
0.0
 11
3.25
 21
89.1098901098901
 31
0.0
  0
LINE
  5
2F0
330
17
100
AcDbEntity
  8
TOP
100
AcDbLine
 10
3.25
 20
89.1098901098901
 30
0.0
 11
4.6215
 21
88.31119345807474
 31
0.0
  0
LINE
  5
2F1
330
17
100
AcDbEntity
  8
TOP
100
AcDbLine
 10
5.1285
 20
88.31119345807474
 30
0.0
 11
6.5
 21
89.1098901098901
 31
0.0
  0
LINE
  5
2F2
330
17
100
AcDbEntity
  8
TOP
100
AcDbLine
 10
6.5
 20
89.1098901098901
 30
0.0
 11
7.8715
 21
88.31119345807474
 31
0.0
  0
LINE
  5
2F3
330
17
100
AcDbEntity
  8
TOP
100
AcDbLine
 10
8.3785
 20
88.31119345807474
 30
0.0
 11
9.75
 21
89.1098901098901
 31
0.0
  0
LINE
  5
2F4
330
17
100
AcDbEntity
  8
TOP
100
AcDbLine
 10
9.75
 20
89.1098901098901
 30
0.0
 11
11.1215
 21
88.31119345807474
 31
0.0
  0
LINE
  5
2F5
330
17
100
AcDbEntity
  8
TOP
100
AcDbLine
 10
11.6285
 20
88.31119345807474
 30
0.0
 11
13.0
 21
89.1098901098901
 31
0.0
  0
LINE
  5
2F6
330
17
100
AcDbEntity
  8
TOP
100
AcDbLine
 10
0.2535
 20
89.25624840312967
 30
0.0
 11
1.625
 21
90.05494505494505
 31
0.0
  0
LINE
  5
2F7
330
17
100
AcDbEntity
  8
TOP
100
AcDbLine
 10
1.625
 20
90.05494505494505
 30
0.0
 11
2.9965
 21
89.25624840312967
 31
0.0
  0
LINE
  5
2F8
330
17
100
AcDbEntity
  8
TOP
100
AcDbLine
 10
3.5035
 20
89.25624840312967
 30
0.0
 11
4.875
 21
90.05494505494505
 31
0.0
  0
LINE
  5
2F9
330
17
100
AcDbEntity
  8
TOP
100
AcDbLine
 10
4.875
 20
90.05494505494505
 30
0.0
 11
6.2465
 21
89.25624840312967
 31
0.0
  0
LINE
  5
2FA
330
17
100
AcDbEntity
  8
TOP
100
AcDbLine
 10
6.7535
 20
89.25624840312967
 30
0.0
 11
8.125
 21
90.05494505494505
 31
0.0
  0
LINE
  5
2FB
330
17
100
AcDbEntity
  8
TOP
100
AcDbLine
 10
8.125
 20
90.05494505494505
 30
0.0
 11
9.4965
 21
89.25624840312967
 31
0.0
  0
LINE
  5
2FC
330
17
100
AcDbEntity
  8
TOP
100
AcDbLine
 10
10.0035
 20
89.25624840312967
 30
0.0
 11
11.375
 21
90.05494505494505
 31
0.0
  0
LINE
  5
2FD
330
17
100
AcDbEntity
  8
TOP
100
AcDbLine
 10
11.375
 20
90.05494505494505
 30
0.0
 11
12.7465
 21
89.25624840312967
 31
0.0
  0
LINE
  5
2FE
330
17
100
AcDbEntity
  8
TOP
100
AcDbLine
 10
0.0
 20
91.0
 30
0.0
 11
1.3715
 21
90.20130334818462
 31
0.0
  0
LINE
  5
2FF
330
17
100
AcDbEntity
  8
TOP
100
AcDbLine
 10
1.8785
 20
90.20130334818462
 30
0.0
 11
3.25
 21
91.0
 31
0.0
  0
LINE
  5
300
330
17
100
AcDbEntity
  8
TOP
100
AcDbLine
 10
3.25
 20
91.0
 30
0.0
 11
4.6215
 21
90.20130334818462
 31
0.0
  0
LINE
  5
301
330
17
100
AcDbEntity
  8
TOP
100
AcDbLine
 10
5.1285
 20
90.20130334818462
 30
0.0
 11
6.5
 21
91.0
 31
0.0
  0
LINE
  5
302
330
17
100
AcDbEntity
  8
TOP
100
AcDbLine
 10
6.5
 20
91.0
 30
0.0
 11
7.8715
 21
90.20130334818462
 31
0.0
  0
LINE
  5
303
330
17
100
AcDbEntity
  8
TOP
100
AcDbLine
 10
8.3785
 20
90.20130334818462
 30
0.0
 11
9.75
 21
91.0
 31
0.0
  0
LINE
  5
304
330
17
100
AcDbEntity
  8
TOP
100
AcDbLine
 10
9.75
 20
91.0
 30
0.0
 11
11.1215
 21
90.20130334818462
 31
0.0
  0
LINE
  5
305
330
17
100
AcDbEntity
  8
TOP
100
AcDbLine
 10
11.6285
 20
90.20130334818462
 30
0.0
 11
13.0
 21
91.0
 31
0.0
  0
POLYLINE
  5
306
330
17
100
AcDbEntity
  8
TOP
100
AcDb2dPolyline
 66
1
 10
0.0
 20
0.0
 30
0.0
 70
1
  0
VERTEX
  5
308
330
17
100
AcDbEntity
  8
TOP
100
AcDbVertex
100
AcDb2dVertex
 10
0.0
 20
0.0
 30
0.0
 70
0
  0
VERTEX
  5
309
330
17
100
AcDbEntity
  8
TOP
100
AcDbVertex
100
AcDb2dVertex
 10
0.0
 20
96.0
 30
0.0
 70
0
  0
VERTEX
  5
30A
330
17
100
AcDbEntity
  8
TOP
100
AcDbVertex
100
AcDb2dVertex
 10
13.0
 20
96.0
 30
0.0
 70
0
  0
VERTEX
  5
30B
330
17
100
AcDbEntity
  8
TOP
100
AcDbVertex
100
AcDb2dVertex
 10
13.0
 20
0.0
 30
0.0
 70
0
  0
SEQEND
  5
307
330
17
100
AcDbEntity
  8
TOP
  0
ENDSEC
  0
SECTION
  2
OBJECTS
  0
DICTIONARY
  5
A
330
0
100
AcDbDictionary
281
1
  3
ACAD_COLOR
350
B
  3
ACAD_GROUP
350
C
  3
ACAD_LAYOUT
350
D
  3
ACAD_MATERIAL
350
E
  3
ACAD_MLEADERSTYLE
350
F
  3
ACAD_MLINESTYLE
350
10
  3
ACAD_PLOTSETTINGS
350
11
  3
ACAD_PLOTSTYLENAME
350
12
  3
ACAD_SCALELIST
350
14
  3
ACAD_TABLESTYLE
350
15
  3
ACAD_VISUALSTYLE
350
16
  0
DICTIONARY
  5
B
330
A
100
AcDbDictionary
281
1
  0
DICTIONARY
  5
C
330
A
100
AcDbDictionary
281
1
  0
DICTIONARY
  5
D
330
A
100
AcDbDictionary
281
1
  3
Model
350
1A
  3
Layout1
350
1E
  0
DICTIONARY
  5
E
330
A
100
AcDbDictionary
281
1
  3
ByBlock
350
1F
  3
ByLayer
350
20
  3
Global
350
21
  0
DICTIONARY
  5
F
330
A
100
AcDbDictionary
281
1
  3
Standard
350
2C
  0
DICTIONARY
  5
10
330
A
100
AcDbDictionary
281
1
  3
Standard
350
22
  0
DICTIONARY
  5
11
330
A
100
AcDbDictionary
281
1
  0
ACDBDICTIONARYWDFLT
  5
12
330
A
100
AcDbDictionary
281
1
  3
Normal
350
13
100
AcDbDictionaryWithDefault
340
13
  0
ACDBPLACEHOLDER
  5
13
330
12
  0
DICTIONARY
  5
14
330
A
100
AcDbDictionary
281
1
  0
DICTIONARY
  5
15
330
A
100
AcDbDictionary
281
1
  0
DICTIONARY
  5
16
330
A
100
AcDbDictionary
281
1
  0
LAYOUT
  5
1A
330
D
100
AcDbPlotSettings
  1

  2
Adobe PDF
  4
A3
  6

 40
7.5
 41
20.0
 42
7.5
 43
20.0
 44
420.0
 45
297.0
 46
0.0
 47
0.0
 48
0.0
 49
0.0
140
0.0
141
0.0
142
1.0
143
1.0
 70
1024
 72
1
 73
1
 74
5
  7

 75
16
 76
0
 77
2
 78
300
147
1.0
148
0.0
149
0.0
100
AcDbLayout
  1
Model
 70
1
 71
0
 10
0.0
 20
0.0
 11
420.0
 21
297.0
 12
0.0
 22
0.0
 32
0.0
 14
1e+20
 24
1e+20
 34
1e+20
 15
-1e+20
 25
-1e+20
 35
-1e+20
146
0.0
 13
0.0
 23
0.0
 33
0.0
 16
1.0
 26
0.0
 36
0.0
 17
0.0
 27
1.0
 37
0.0
 76
1
330
17
  0
LAYOUT
  5
1E
330
D
100
AcDbPlotSettings
  1

  2
Adobe PDF
  4
A3
  6

 40
7.5
 41
20.0
 42
7.5
 43
20.0
 44
420.0
 45
297.0
 46
0.0
 47
0.0
 48
0.0
 49
0.0
140
0.0
141
0.0
142
1.0
143
1.0
 70
0
 72
1
 73
1
 74
5
  7

 75
16
 76
0
 77
2
 78
300
147
1.0
148
0.0
149
0.0
100
AcDbLayout
  1
Layout1
 70
1
 71
1
 10
0.0
 20
0.0
 11
420.0
 21
297.0
 12
0.0
 22
0.0
 32
0.0
 14
1e+20
 24
1e+20
 34
1e+20
 15
-1e+20
 25
-1e+20
 35
-1e+20
146
0.0
 13
0.0
 23
0.0
 33
0.0
 16
1.0
 26
0.0
 36
0.0
 17
0.0
 27
1.0
 37
0.0
 76
1
330
1B
  0
MATERIAL
  5
1F
102
{ACAD_REACTORS
330
E
102
}
330
E
100
AcDbMaterial
  1
ByBlock
  2

 70
0
 40
1.0
 71
1
 41
1.0
 91
-1023410177
 42
1.0
 72
1
  3

 73
1
 74
1
 75
1
 44
0.5
 73
0
 45
1.0
 46
1.0
 77
1
  4

 78
1
 79
1
170
1
 48
1.0
171
1
  6

172
1
173
1
174
1
140
1.0
141
1.0
175
1
  7

176
1
177
1
178
1
143
1.0
179
1
  8

270
1
271
1
272
1
145
1.0
146
1.0
273
1
  9

274
1
275
1
276
1
 42
1.0
 72
1
  3

 73
1
 74
1
 75
1
 94
63
  0
MATERIAL
  5
20
102
{ACAD_REACTORS
330
E
102
}
330
E
100
AcDbMaterial
  1
ByLayer
  2

 70
0
 40
1.0
 71
1
 41
1.0
 91
-1023410177
 42
1.0
 72
1
  3

 73
1
 74
1
 75
1
 44
0.5
 73
0
 45
1.0
 46
1.0
 77
1
  4

 78
1
 79
1
170
1
 48
1.0
171
1
  6

172
1
173
1
174
1
140
1.0
141
1.0
175
1
  7

176
1
177
1
178
1
143
1.0
179
1
  8

270
1
271
1
272
1
145
1.0
146
1.0
273
1
  9

274
1
275
1
276
1
 42
1.0
 72
1
  3

 73
1
 74
1
 75
1
 94
63
  0
MATERIAL
  5
21
102
{ACAD_REACTORS
330
E
102
}
330
E
100
AcDbMaterial
  1
Global
  2

 70
0
 40
1.0
 71
1
 41
1.0
 91
-1023410177
 42
1.0
 72
1
  3

 73
1
 74
1
 75
1
 44
0.5
 73
0
 45
1.0
 46
1.0
 77
1
  4

 78
1
 79
1
170
1
 48
1.0
171
1
  6

172
1
173
1
174
1
140
1.0
141
1.0
175
1
  7

176
1
177
1
178
1
143
1.0
179
1
  8

270
1
271
1
272
1
145
1.0
146
1.0
273
1
  9

274
1
275
1
276
1
 42
1.0
 72
1
  3

 73
1
 74
1
 75
1
 94
63
  0
MLINESTYLE
  5
22
102
{ACAD_REACTORS
330
10
102
}
330
10
100
AcDbMlineStyle
  2
Standard
 70
0
  3

 62
256
 51
90.0
 52
90.0
 71
2
 49
0.5
 62
256
  6
BYLAYER
 49
-0.5
 62
256
  6
BYLAYER
  0
MLEADERSTYLE
  5
2C
102
{ACAD_REACTORS
330
F
102
}
330
F
100
AcDbMLeaderStyle
179
2
170
2
171
1
172
0
 90
2
 40
0.0
 41
0.0
173
1
 91
-1056964608
 92
-2
290
1
 42
2.0
291
1
 43
8.0
  3
Standard
 44
4.0
300

342
29
174
1
175
1
176
0
178
1
 93
-1056964608
 45
4.0
292
0
297
0
 46
4.0
 94
-1056964608
 47
1.0
 49
1.0
140
1.0
294
1
141
0.0
177
0
142
1.0
295
0
296
0
143
3.75
271
0
272
9
273
9
  0
ENDSEC
  0
EOF
