  0
SECTION
  2
HEADER
  9
$ACADVER
  1
AC1024
  9
$ACADMAINTVER
 70
6
  9
$DWGCODEPAGE
  3
ANSI_1252
  9
$LASTSAVEDBY
  1
ezdxf
  9
$INSBASE
 10
0.0
 20
0.0
 30
0.0
  9
$EXTMIN
 10
1e+20
 20
1e+20
 30
1e+20
  9
$EXTMAX
 10
-1e+20
 20
-1e+20
 30
-1e+20
  9
$LIMMIN
 10
0.0
 20
0.0
  9
$LIMMAX
 10
420.0
 20
297.0
  9
$ORTHOMODE
 70
0
  9
$REGENMODE
 70
1
  9
$FILLMODE
 70
1
  9
$QTEXTMODE
 70
0
  9
$MIRRTEXT
 70
1
  9
$LTSCALE
 40
1.0
  9
$ATTMODE
 70
1
  9
$TEXTSIZE
 40
2.5
  9
$TRACEWID
 40
1.0
  9
$TEXTSTYLE
  7
Standard
  9
$CLAYER
  8
0
  9
$CELTYPE
  6
ByLayer
  9
$CECOLOR
 62
256
  9
$CELTSCALE
 40
1.0
  9
$DISPSILH
 70
0
  9
$DIMSCALE
 40
1.0
  9
$DIMASZ
 40
2.5
  9
$DIMEXO
 40
0.625
  9
$DIMDLI
 40
3.75
  9
$DIMRND
 40
0.0
  9
$DIMDLE
 40
0.0
  9
$DIMEXE
 40
1.25
  9
$DIMTP
 40
0.0
  9
$DIMTM
 40
0.0
  9
$DIMTXT
 40
2.5
  9
$DIMCEN
 40
2.5
  9
$DIMTSZ
 40
0.0
  9
$DIMTOL
 70
0
  9
$DIMLIM
 70
0
  9
$DIMTIH
 70
0
  9
$DIMTOH
 70
0
  9
$DIMSE1
 70
0
  9
$DIMSE2
 70
0
  9
$DIMTAD
 70
1
  9
$DIMZIN
 70
8
  9
$DIMBLK
  1

  9
$DIMASO
 70
1
  9
$DIMSHO
 70
1
  9
$DIMPOST
  1

  9
$DIMAPOST
  1

  9
$DIMALT
 70
0
  9
$DIMALTD
 70
3
  9
$DIMALTF
 40
0.03937007874
  9
$DIMLFAC
 40
1.0
  9
$DIMTOFL
 70
1
  9
$DIMTVP
 40
0.0
  9
$DIMTIX
 70
0
  9
$DIMSOXD
 70
0
  9
$DIMSAH
 70
0
  9
$DIMBLK1
  1

  9
$DIMBLK2
  1

  9
$DIMSTYLE
  2
ISO-25
  9
$DIMCLRD
 70
0
  9
$DIMCLRE
 70
0
  9
$DIMCLRT
 70
0
  9
$DIMTFAC
 40
1.0
  9
$DIMGAP
 40
0.625
  9
$DIMJUST
 70
0
  9
$DIMSD1
 70
0
  9
$DIMSD2
 70
0
  9
$DIMTOLJ
 70
0
  9
$DIMTZIN
 70
8
  9
$DIMALTZ
 70
0
  9
$DIMALTTZ
 70
0
  9
$DIMUPT
 70
0
  9
$DIMDEC
 70
2
  9
$DIMTDEC
 70
2
  9
$DIMALTU
 70
2
  9
$DIMALTTD
 70
3
  9
$DIMTXSTY
  7
Standard
  9
$DIMAUNIT
 70
0
  9
$DIMADEC
 70
0
  9
$DIMALTRND
 40
0.0
  9
$DIMAZIN
 70
0
  9
$DIMDSEP
 70
44
  9
$DIMATFIT
 70
3
  9
$DIMFRAC
 70
0
  9
$DIMLDRBLK
  1

  9
$DIMLUNIT
 70
2
  9
$DIMLWD
 70
-2
  9
$DIMLWE
 70
-2
  9
$DIMTMOVE
 70
0
  9
$DIMFXL
 40
1.0
  9
$DIMFXLON
 70
0
  9
$DIMJOGANG
 40
0.785398163397
  9
$DIMTFILL
 70
0
  9
$DIMTFILLCLR
 70
0
  9
$DIMARCSYM
 70
0
  9
$DIMLTYPE
  6

  9
$DIMLTEX1
  6

  9
$DIMLTEX2
  6

  9
$DIMTXTDIRECTION
 70
0
  9
$LUNITS
 70
2
  9
$LUPREC
 70
4
  9
$SKETCHINC
 40
1.0
  9
$FILLETRAD
 40
10.0
  9
$AUNITS
 70
0
  9
$AUPREC
 70
2
  9
$MENU
  1
.
  9
$ELEVATION
 40
0.0
  9
$PELEVATION
 40
0.0
  9
$THICKNESS
 40
0.0
  9
$LIMCHECK
 70
0
  9
$CHAMFERA
 40
0.0
  9
$CHAMFERB
 40
0.0
  9
$CHAMFERC
 40
0.0
  9
$CHAMFERD
 40
0.0
  9
$SKPOLY
 70
0
  9
$TDCREATE
 40
2459642.6280208332
  9
$TDUCREATE
 40
2458532.153996898
  9
$TDUPDATE
 40
2459642.6280208332
  9
$TDUUPDATE
 40
2458532.1544311
  9
$TDINDWG
 40
0.0
  9
$TDUSRTIMER
 40
0.0
  9
$USRTIMER
 70
1
  9
$ANGBASE
 50
0.0
  9
$ANGDIR
 70
0
  9
$PDMODE
 70
0
  9
$PDSIZE
 40
0.0
  9
$PLINEWID
 40
0.0
  9
$SPLFRAME
 70
0
  9
$SPLINETYPE
 70
6
  9
$SPLINESEGS
 70
8
  9
$HANDSEED
  5
4F9
  9
$SURFTAB1
 70
6
  9
$SURFTAB2
 70
6
  9
$SURFTYPE
 70
6
  9
$SURFU
 70
6
  9
$SURFV
 70
6
  9
$UCSBASE
  2

  9
$UCSNAME
  2

  9
$UCSORG
 10
0.0
 20
0.0
 30
0.0
  9
$UCSXDIR
 10
1.0
 20
0.0
 30
0.0
  9
$UCSYDIR
 10
0.0
 20
1.0
 30
0.0
  9
$UCSORTHOREF
  2

  9
$UCSORTHOVIEW
 70
0
  9
$UCSORGTOP
 10
0.0
 20
0.0
 30
0.0
  9
$UCSORGBOTTOM
 10
0.0
 20
0.0
 30
0.0
  9
$UCSORGLEFT
 10
0.0
 20
0.0
 30
0.0
  9
$UCSORGRIGHT
 10
0.0
 20
0.0
 30
0.0
  9
$UCSORGFRONT
 10
0.0
 20
0.0
 30
0.0
  9
$UCSORGBACK
 10
0.0
 20
0.0
 30
0.0
  9
$PUCSBASE
  2

  9
$PUCSNAME
  2

  9
$PUCSORG
 10
0.0
 20
0.0
 30
0.0
  9
$PUCSXDIR
 10
1.0
 20
0.0
 30
0.0
  9
$PUCSYDIR
 10
0.0
 20
1.0
 30
0.0
  9
$PUCSORTHOREF
  2

  9
$PUCSORTHOVIEW
 70
0
  9
$PUCSORGTOP
 10
0.0
 20
0.0
 30
0.0
  9
$PUCSORGBOTTOM
 10
0.0
 20
0.0
 30
0.0
  9
$PUCSORGLEFT
 10
0.0
 20
0.0
 30
0.0
  9
$PUCSORGRIGHT
 10
0.0
 20
0.0
 30
0.0
  9
$PUCSORGFRONT
 10
0.0
 20
0.0
 30
0.0
  9
$PUCSORGBACK
 10
0.0
 20
0.0
 30
0.0
  9
$USERI1
 70
0
  9
$USERI2
 70
0
  9
$USERI3
 70
0
  9
$USERI4
 70
0
  9
$USERI5
 70
0
  9
$USERR1
 40
0.0
  9
$USERR2
 40
0.0
  9
$USERR3
 40
0.0
  9
$USERR4
 40
0.0
  9
$USERR5
 40
0.0
  9
$WORLDVIEW
 70
1
  9
$SHADEDGE
 70
3
  9
$SHADEDIF
 70
70
  9
$TILEMODE
 70
1
  9
$MAXACTVP
 70
64
  9
$PINSBASE
 10
0.0
 20
0.0
 30
0.0
  9
$PLIMCHECK
 70
0
  9
$PEXTMIN
 10
1e+20
 20
1e+20
 30
1e+20
  9
$PEXTMAX
 10
-1e+20
 20
-1e+20
 30
-1e+20
  9
$PLIMMIN
 10
0.0
 20
0.0
  9
$PLIMMAX
 10
420.0
 20
297.0
  9
$UNITMODE
 70
0
  9
$VISRETAIN
 70
1
  9
$PLINEGEN
 70
0
  9
$PSLTSCALE
 70
1
  9
$TREEDEPTH
 70
3020
  9
$CMLSTYLE
  2
Standard
  9
$CMLJUST
 70
0
  9
$CMLSCALE
 40
20.0
  9
$PROXYGRAPHICS
 70
1
  9
$MEASUREMENT
 70
1
  9
$CELWEIGHT
370
-1
  9
$ENDCAPS
280
0
  9
$JOINSTYLE
280
0
  9
$LWDISPLAY
290
0
  9
$INSUNITS
 70
6
  9
$HYPERLINKBASE
  1

  9
$STYLESHEET
  1

  9
$XEDIT
290
1
  9
$CEPSNTYPE
380
0
  9
$PSTYLEMODE
290
1
  9
$FINGERPRINTGUID
  2
{FB0A8CBA-7D5D-4620-95C2-47480BAE920B}
  9
$VERSIONGUID
  2
{E98516E4-5B00-4642-AA8E-0EEE4B7B412F}
  9
$EXTNAMES
290
1
  9
$PSVPSCALE
 40
0.0
  9
$OLESTARTUP
290
0
  9
$SORTENTS
280
127
  9
$INDEXCTL
280
0
  9
$HIDETEXT
280
1
  9
$XCLIPFRAME
280
0
  9
$HALOGAP
280
0
  9
$OBSCOLOR
 70
257
  9
$OBSLTYPE
280
0
  9
$INTERSECTIONDISPLAY
280
0
  9
$INTERSECTIONCOLOR
 70
257
  9
$DIMASSOC
280
2
  9
$PROJECTNAME
  1

  9
$CAMERADISPLAY
290
0
  9
$LENSLENGTH
 40
50.0
  9
$CAMERAHEIGHT
 40
0.0
  9
$STEPSPERSEC
 40
24.0
  9
$STEPSIZE
 40
100.0
  9
$3DDWFPREC
 40
2.0
  9
$PSOLWIDTH
 40
0.005
  9
$PSOLHEIGHT
 40
0.08
  9
$LOFTANG1
 40
1.570796326795
  9
$LOFTANG2
 40
1.570796326795
  9
$LOFTMAG1
 40
0.0
  9
$LOFTMAG2
 40
0.0
  9
$LOFTPARAM
 70
7
  9
$LOFTNORMALS
280
1
  9
$LATITUDE
 40
37.795
  9
$LONGITUDE
 40
-122.394
  9
$NORTHDIRECTION
 40
0.0
  9
$TIMEZONE
 70
-8000
  9
$LIGHTGLYPHDISPLAY
280
1
  9
$TILEMODELIGHTSYNCH
280
1
  9
$CMATERIAL
347
20
  9
$SOLIDHIST
280
0
  9
$SHOWHIST
280
1
  9
$DWFFRAME
280
2
  9
$DGNFRAME
280
2
  9
$REALWORLDSCALE
290
1
  9
$INTERFERECOLOR
 62
256
  9
$CSHADOW
280
0
  9
$SHADOWPLANELOCATION
 40
0.0
  0
ENDSEC
  0
SECTION
  2
CLASSES
  0
CLASS
  1
ACDBDICTIONARYWDFLT
  2
AcDbDictionaryWithDefault
  3
ObjectDBX Classes
 90
0
 91
0
280
0
281
0
  0
CLASS
  1
SUN
  2
AcDbSun
  3
SCENEOE
 90
1153
 91
0
280
0
281
0
  0
CLASS
  1
VISUALSTYLE
  2
AcDbVisualStyle
  3
ObjectDBX Classes
 90
4095
 91
0
280
0
281
0
  0
CLASS
  1
MATERIAL
  2
AcDbMaterial
  3
ObjectDBX Classes
 90
1153
 91
0
280
0
281
0
  0
CLASS
  1
SCALE
  2
AcDbScale
  3
ObjectDBX Classes
 90
1153
 91
0
280
0
281
0
  0
CLASS
  1
TABLESTYLE
  2
AcDbTableStyle
  3
ObjectDBX Classes
 90
4095
 91
0
280
0
281
0
  0
CLASS
  1
MLEADERSTYLE
  2
AcDbMLeaderStyle
  3
ACDB_MLEADERSTYLE_CLASS
 90
4095
 91
0
280
0
281
0
  0
CLASS
  1
DICTIONARYVAR
  2
AcDbDictionaryVar
  3
ObjectDBX Classes
 90
0
 91
0
280
0
281
0
  0
CLASS
  1
CELLSTYLEMAP
  2
AcDbCellStyleMap
  3
ObjectDBX Classes
 90
1152
 91
0
280
0
281
0
  0
CLASS
  1
MENTALRAYRENDERSETTINGS
  2
AcDbMentalRayRenderSettings
  3
SCENEOE
 90
1024
 91
0
280
0
281
0
  0
CLASS
  1
ACDBDETAILVIEWSTYLE
  2
AcDbDetailViewStyle
  3
ObjectDBX Classes
 90
1025
 91
0
280
0
281
0
  0
CLASS
  1
ACDBSECTIONVIEWSTYLE
  2
AcDbSectionViewStyle
  3
ObjectDBX Classes
 90
1025
 91
0
280
0
281
0
  0
CLASS
  1
RASTERVARIABLES
  2
AcDbRasterVariables
  3
ISM
 90
0
 91
0
280
0
281
0
  0
CLASS
  1
ACDBPLACEHOLDER
  2
AcDbPlaceHolder
  3
ObjectDBX Classes
 90
0
 91
0
280
0
281
0
  0
CLASS
  1
LAYOUT
  2
AcDbLayout
  3
ObjectDBX Classes
 90
0
 91
0
280
0
281
0
  0
ENDSEC
  0
SECTION
  2
TABLES
  0
TABLE
  2
VPORT
  5
8
330
0
100
AcDbSymbolTable
 70
1
  0
VPORT
  5
23
330
8
100
AcDbSymbolTableRecord
100
AcDbViewportTableRecord
  2
*Active
 70
0
 10
0.0
 20
0.0
 11
1.0
 21
1.0
 12
344.2
 22
148.5
 13
0.0
 23
0.0
 14
0.5
 24
0.5
 15
0.5
 25
0.5
 16
0.0
 26
0.0
 36
1.0
 17
0.0
 27
0.0
 37
0.0
 40
297.0
 41
1.34
 42
50.0
 43
0.0
 44
0.0
 50
0.0
 51
0.0
 71
0
 72
1000
 73
1
 74
3
 75
0
 76
0
 77
0
 78
0
281
0
 65
0
146
0.0
  0
ENDTAB
  0
TABLE
  2
LTYPE
  5
2
330
0
100
AcDbSymbolTable
 70
3
  0
LTYPE
  5
24
330
2
100
AcDbSymbolTableRecord
100
AcDbLinetypeTableRecord
  2
ByBlock
 70
0
  3

 72
65
 73
0
 40
0.0
  0
LTYPE
  5
25
330
2
100
AcDbSymbolTableRecord
100
AcDbLinetypeTableRecord
  2
ByLayer
 70
0
  3

 72
65
 73
0
 40
0.0
  0
LTYPE
  5
26
330
2
100
AcDbSymbolTableRecord
100
AcDbLinetypeTableRecord
  2
Continuous
 70
0
  3

 72
65
 73
0
 40
0.0
  0
ENDTAB
  0
TABLE
  2
LAYER
  5
1
330
0
100
AcDbSymbolTable
 70
3
  0
LAYER
  5
27
330
1
100
AcDbSymbolTableRecord
100
AcDbLayerTableRecord
  2
0
 70
0
 62
7
  6
Continuous
370
-3
390
13
347
21
  0
LAYER
  5
28
330
1
100
AcDbSymbolTableRecord
100
AcDbLayerTableRecord
  2
Defpoints
 70
0
 62
7
  6
Continuous
290
0
370
-3
390
13
347
21
  0
LAYER
  5
2D
330
1
100
AcDbSymbolTableRecord
100
AcDbLayerTableRecord
  2
TOP
 70
0
 62
1
  6
Continuous
370
0
390
13
347
21
  0
ENDTAB
  0
TABLE
  2
STYLE
  5
5
330
0
100
AcDbSymbolTable
 70
1
  0
STYLE
  5
29
330
5
100
AcDbSymbolTableRecord
100
AcDbTextStyleTableRecord
  2
Standard
 70
0
 40
0.0
 41
1.0
 50
0.0
 71
0
 42
2.5
  3
txt
  4

  0
ENDTAB
  0
TABLE
  2
VIEW
  5
7
330
0
100
AcDbSymbolTable
 70
0
  0
ENDTAB
  0
TABLE
  2
UCS
  5
6
330
0
100
AcDbSymbolTable
 70
0
  0
ENDTAB
  0
TABLE
  2
APPID
  5
3
330
0
100
AcDbSymbolTable
 70
2
  0
APPID
  5
2A
330
3
100
AcDbSymbolTableRecord
100
AcDbRegAppTableRecord
  2
ACAD
 70
0
  0
APPID
  5
4F8
330
3
100
AcDbSymbolTableRecord
100
AcDbRegAppTableRecord
  2
HATCHBACKGROUNDCOLOR
 70
0
  0
ENDTAB
  0
TABLE
  2
DIMSTYLE
  5
4
330
0
100
AcDbSymbolTable
 70
1
100
AcDbDimStyleTable
  0
DIMSTYLE
105
2B
330
4
100
AcDbSymbolTableRecord
100
AcDbDimStyleTableRecord
  2
Standard
 70
0
 40
1.0
 41
2.5
 42
0.625
 43
3.75
 44
1.25
 45
0.0
 46
0.0
 47
0.0
 48
0.0
 49
2.5
140
2.5
141
2.5
142
0.0
143
0.03937007874
144
1.0
145
0.0
146
1.0
147
0.625
148
0.0
 69
0
 70
0
 71
0
 72
0
 73
0
 74
0
 75
0
 76
0
 77
1
 78
8
 79
0
170
0
171
3
172
1
173
0
174
0
175
0
176
0
177
0
178
0
179
0
271
0
272
2
273
2
274
3
275
0
276
0
277
2
278
44
279
0
280
0
281
0
282
0
283
0
284
8
285
0
286
0
288
0
289
3
290
0
371
-2
372
-2
  0
ENDTAB
  0
TABLE
  2
BLOCK_RECORD
  5
9
330
0
100
AcDbSymbolTable
 70
2
  0
BLOCK_RECORD
  5
17
330
9
100
AcDbSymbolTableRecord
100
AcDbBlockTableRecord
  2
*Model_Space
340
1A
 70
0
280
1
281
0
  0
BLOCK_RECORD
  5
1B
330
9
100
AcDbSymbolTableRecord
100
AcDbBlockTableRecord
  2
*Paper_Space
340
1E
 70
0
280
1
281
0
  0
ENDTAB
  0
ENDSEC
  0
SECTION
  2
BLOCKS
  0
BLOCK
  5
18
330
17
100
AcDbEntity
  8
0
100
AcDbBlockBegin
  2
*Model_Space
 70
0
 10
0.0
 20
0.0
 30
0.0
  3
*Model_Space
  1

  0
ENDBLK
  5
19
330
17
100
AcDbEntity
  8
0
100
AcDbBlockEnd
  0
BLOCK
  5
1C
330
1B
100
AcDbEntity
  8
0
100
AcDbBlockBegin
  2
*Paper_Space
 70
0
 10
0.0
 20
0.0
 30
0.0
  3
*Paper_Space
  1

  0
ENDBLK
  5
1D
330
1B
100
AcDbEntity
  8
0
100
AcDbBlockEnd
  0
ENDSEC
  0
SECTION
  2
ENTITIES
  0
LINE
  5
2E
330
17
100
AcDbEntity
  8
TOP
100
AcDbLine
 10
0.0
 20
6.245901639344263
 30
0.0
 11
1.8179759999999998
 21
5.194003546854175
 31
0.0
  0
LINE
  5
2F
330
17
100
AcDbEntity
  8
TOP
100
AcDbLine
 10
2.490024
 20
5.194003546854175
 30
0.0
 11
4.308
 21
6.245901639344263
 31
0.0
  0
LINE
  5
30
330
17
100
AcDbEntity
  8
TOP
100
AcDbLine
 10
4.308
 20
6.245901639344263
 30
0.0
 11
6.125976
 21
5.194003546854175
 31
0.0
  0
LINE
  5
31
330
17
100
AcDbEntity
  8
TOP
100
AcDbLine
 10
6.798024
 20
5.194003546854175
 30
0.0
 11
8.616
 21
6.245901639344263
 31
0.0
  0
LINE
  5
32
330
17
100
AcDbEntity
  8
TOP
100
AcDbLine
 10
8.616
 20
6.245901639344263
 30
0.0
 11
10.433976
 21
5.194003546854175
 31
0.0
  0
LINE
  5
33
330
17
100
AcDbEntity
  8
TOP
100
AcDbLine
 10
11.106024
 20
5.194003546854175
 30
0.0
 11
12.924
 21
6.245901639344263
 31
0.0
  0
LINE
  5
34
330
17
100
AcDbEntity
  8
TOP
100
AcDbLine
 10
12.924
 20
6.245901639344263
 30
0.0
 11
14.741976
 21
5.194003546854175
 31
0.0
  0
LINE
  5
35
330
17
100
AcDbEntity
  8
TOP
100
AcDbLine
 10
15.414024
 20
5.194003546854175
 30
0.0
 11
17.232
 21
6.245901639344263
 31
0.0
  0
LINE
  5
36
330
17
100
AcDbEntity
  8
TOP
100
AcDbLine
 10
17.232
 20
6.245901639344263
 30
0.0
 11
19.049976
 21
5.194003546854175
 31
0.0
  0
LINE
  5
37
330
17
100
AcDbEntity
  8
TOP
100
AcDbLine
 10
19.722023999999998
 20
5.194003546854175
 30
0.0
 11
21.54
 21
6.245901639344263
 31
0.0
  0
LINE
  5
38
330
17
100
AcDbEntity
  8
TOP
100
AcDbLine
 10
0.336024
 20
6.4399051861984375
 30
0.0
 11
2.154
 21
7.491803278688525
 31
0.0
  0
LINE
  5
39
330
17
100
AcDbEntity
  8
TOP
100
AcDbLine
 10
2.154
 20
7.491803278688525
 30
0.0
 11
3.9719759999999997
 21
6.4399051861984375
 31
0.0
  0
LINE
  5
3A
330
17
100
AcDbEntity
  8
TOP
100
AcDbLine
 10
4.644024
 20
6.4399051861984375
 30
0.0
 11
6.462
 21
7.491803278688525
 31
0.0
  0
LINE
  5
3B
330
17
100
AcDbEntity
  8
TOP
100
AcDbLine
 10
6.462
 20
7.491803278688525
 30
0.0
 11
8.279976
 21
6.4399051861984375
 31
0.0
  0
LINE
  5
3C
330
17
100
AcDbEntity
  8
TOP
100
AcDbLine
 10
8.952024
 20
6.4399051861984375
 30
0.0
 11
10.77
 21
7.491803278688525
 31
0.0
  0
LINE
  5
3D
330
17
100
AcDbEntity
  8
TOP
100
AcDbLine
 10
10.77
 20
7.491803278688525
 30
0.0
 11
12.587976
 21
6.4399051861984375
 31
0.0
  0
LINE
  5
3E
330
17
100
AcDbEntity
  8
TOP
100
AcDbLine
 10
13.260024
 20
6.4399051861984375
 30
0.0
 11
15.078
 21
7.491803278688525
 31
0.0
  0
LINE
  5
3F
330
17
100
AcDbEntity
  8
TOP
100
AcDbLine
 10
15.078
 20
7.491803278688525
 30
0.0
 11
16.895976
 21
6.4399051861984375
 31
0.0
  0
LINE
  5
40
330
17
100
AcDbEntity
  8
TOP
100
AcDbLine
 10
17.568023999999998
 20
6.4399051861984375
 30
0.0
 11
19.386
 21
7.491803278688525
 31
0.0
  0
LINE
  5
41
330
17
100
AcDbEntity
  8
TOP
100
AcDbLine
 10
19.386
 20
7.491803278688525
 30
0.0
 11
21.203976
 21
6.4399051861984375
 31
0.0
  0
LINE
  5
42
330
17
100
AcDbEntity
  8
TOP
100
AcDbLine
 10
0.0
 20
8.737704918032787
 30
0.0
 11
1.8179759999999998
 21
7.6858068255426994
 31
0.0
  0
LINE
  5
43
330
17
100
AcDbEntity
  8
TOP
100
AcDbLine
 10
2.490024
 20
7.6858068255426994
 30
0.0
 11
4.308
 21
8.737704918032787
 31
0.0
  0
LINE
  5
44
330
17
100
AcDbEntity
  8
TOP
100
AcDbLine
 10
4.308
 20
8.737704918032787
 30
0.0
 11
6.125976
 21
7.6858068255426994
 31
0.0
  0
LINE
  5
45
330
17
100
AcDbEntity
  8
TOP
100
AcDbLine
 10
6.798024
 20
7.6858068255426994
 30
0.0
 11
8.616
 21
8.737704918032787
 31
0.0
  0
LINE
  5
46
330
17
100
AcDbEntity
  8
TOP
100
AcDbLine
 10
8.616
 20
8.737704918032787
 30
0.0
 11
10.433976
 21
7.6858068255426994
 31
0.0
  0
LINE
  5
47
330
17
100
AcDbEntity
  8
TOP
100
AcDbLine
 10
11.106024
 20
7.6858068255426994
 30
0.0
 11
12.924
 21
8.737704918032787
 31
0.0
  0
LINE
  5
48
330
17
100
AcDbEntity
  8
TOP
100
AcDbLine
 10
12.924
 20
8.737704918032787
 30
0.0
 11
14.741976
 21
7.6858068255426994
 31
0.0
  0
LINE
  5
49
330
17
100
AcDbEntity
  8
TOP
100
AcDbLine
 10
15.414024
 20
7.6858068255426994
 30
0.0
 11
17.232
 21
8.737704918032787
 31
0.0
  0
LINE
  5
4A
330
17
100
AcDbEntity
  8
TOP
100
AcDbLine
 10
17.232
 20
8.737704918032787
 30
0.0
 11
19.049976
 21
7.6858068255426994
 31
0.0
  0
LINE
  5
4B
330
17
100
AcDbEntity
  8
TOP
100
AcDbLine
 10
19.722023999999998
 20
7.6858068255426994
 30
0.0
 11
21.54
 21
8.737704918032787
 31
0.0
  0
LINE
  5
4C
330
17
100
AcDbEntity
  8
TOP
100
AcDbLine
 10
0.336024
 20
8.931708464886961
 30
0.0
 11
2.154
 21
9.98360655737705
 31
0.0
  0
LINE
  5
4D
330
17
100
AcDbEntity
  8
TOP
100
AcDbLine
 10
2.154
 20
9.98360655737705
 30
0.0
 11
3.9719759999999997
 21
8.931708464886961
 31
0.0
  0
LINE
  5
4E
330
17
100
AcDbEntity
  8
TOP
100
AcDbLine
 10
4.644024
 20
8.931708464886961
 30
0.0
 11
6.462
 21
9.98360655737705
 31
0.0
  0
LINE
  5
4F
330
17
100
AcDbEntity
  8
TOP
100
AcDbLine
 10
6.462
 20
9.98360655737705
 30
0.0
 11
8.279976
 21
8.931708464886961
 31
0.0
  0
LINE
  5
50
330
17
100
AcDbEntity
  8
TOP
100
AcDbLine
 10
8.952024
 20
8.931708464886961
 30
0.0
 11
10.77
 21
9.98360655737705
 31
0.0
  0
LINE
  5
51
330
17
100
AcDbEntity
  8
TOP
100
AcDbLine
 10
10.77
 20
9.98360655737705
 30
0.0
 11
12.587976
 21
8.931708464886961
 31
0.0
  0
LINE
  5
52
330
17
100
AcDbEntity
  8
TOP
100
AcDbLine
 10
13.260024
 20
8.931708464886961
 30
0.0
 11
15.078
 21
9.98360655737705
 31
0.0
  0
LINE
  5
53
330
17
100
AcDbEntity
  8
TOP
100
AcDbLine
 10
15.078
 20
9.98360655737705
 30
0.0
 11
16.895976
 21
8.931708464886961
 31
0.0
  0
LINE
  5
54
330
17
100
AcDbEntity
  8
TOP
100
AcDbLine
 10
17.568023999999998
 20
8.931708464886961
 30
0.0
 11
19.386
 21
9.98360655737705
 31
0.0
  0
LINE
  5
55
330
17
100
AcDbEntity
  8
TOP
100
AcDbLine
 10
19.386
 20
9.98360655737705
 30
0.0
 11
21.203976
 21
8.931708464886961
 31
0.0
  0
LINE
  5
56
330
17
100
AcDbEntity
  8
TOP
100
AcDbLine
 10
0.0
 20
11.229508196721312
 30
0.0
 11
1.8179759999999998
 21
10.177610104231224
 31
0.0
  0
LINE
  5
57
330
17
100
AcDbEntity
  8
TOP
100
AcDbLine
 10
2.490024
 20
10.177610104231224
 30
0.0
 11
4.308
 21
11.229508196721312
 31
0.0
  0
LINE
  5
58
330
17
100
AcDbEntity
  8
TOP
100
AcDbLine
 10
4.308
 20
11.229508196721312
 30
0.0
 11
6.125976
 21
10.177610104231224
 31
0.0
  0
LINE
  5
59
330
17
100
AcDbEntity
  8
TOP
100
AcDbLine
 10
6.798024
 20
10.177610104231224
 30
0.0
 11
8.616
 21
11.229508196721312
 31
0.0
  0
LINE
  5
5A
330
17
100
AcDbEntity
  8
TOP
100
AcDbLine
 10
8.616
 20
11.229508196721312
 30
0.0
 11
10.433976
 21
10.177610104231224
 31
0.0
  0
LINE
  5
5B
330
17
100
AcDbEntity
  8
TOP
100
AcDbLine
 10
11.106024
 20
10.177610104231224
 30
0.0
 11
12.924
 21
11.229508196721312
 31
0.0
  0
LINE
  5
5C
330
17
100
AcDbEntity
  8
TOP
100
AcDbLine
 10
12.924
 20
11.229508196721312
 30
0.0
 11
14.741976
 21
10.177610104231224
 31
0.0
  0
LINE
  5
5D
330
17
100
AcDbEntity
  8
TOP
100
AcDbLine
 10
15.414024
 20
10.177610104231224
 30
0.0
 11
17.232
 21
11.229508196721312
 31
0.0
  0
LINE
  5
5E
330
17
100
AcDbEntity
  8
TOP
100
AcDbLine
 10
17.232
 20
11.229508196721312
 30
0.0
 11
19.049976
 21
10.177610104231224
 31
0.0
  0
LINE
  5
5F
330
17
100
AcDbEntity
  8
TOP
100
AcDbLine
 10
19.722023999999998
 20
10.177610104231224
 30
0.0
 11
21.54
 21
11.229508196721312
 31
0.0
  0
LINE
  5
60
330
17
100
AcDbEntity
  8
TOP
100
AcDbLine
 10
0.336024
 20
11.423511743575487
 30
0.0
 11
2.154
 21
12.475409836065573
 31
0.0
  0
LINE
  5
61
330
17
100
AcDbEntity
  8
TOP
100
AcDbLine
 10
2.154
 20
12.475409836065573
 30
0.0
 11
3.9719759999999997
 21
11.423511743575487
 31
0.0
  0
LINE
  5
62
330
17
100
AcDbEntity
  8
TOP
100
AcDbLine
 10
4.644024
 20
11.423511743575487
 30
0.0
 11
6.462
 21
12.475409836065573
 31
0.0
  0
LINE
  5
63
330
17
100
AcDbEntity
  8
TOP
100
AcDbLine
 10
6.462
 20
12.475409836065573
 30
0.0
 11
8.279976
 21
11.423511743575487
 31
0.0
  0
LINE
  5
64
330
17
100
AcDbEntity
  8
TOP
100
AcDbLine
 10
8.952024
 20
11.423511743575487
 30
0.0
 11
10.77
 21
12.475409836065573
 31
0.0
  0
LINE
  5
65
330
17
100
AcDbEntity
  8
TOP
100
AcDbLine
 10
10.77
 20
12.475409836065573
 30
0.0
 11
12.587976
 21
11.423511743575487
 31
0.0
  0
LINE
  5
66
330
17
100
AcDbEntity
  8
TOP
100
AcDbLine
 10
13.260024
 20
11.423511743575487
 30
0.0
 11
15.078
 21
12.475409836065573
 31
0.0
  0
LINE
  5
67
330
17
100
AcDbEntity
  8
TOP
100
AcDbLine
 10
15.078
 20
12.475409836065573
 30
0.0
 11
16.895976
 21
11.423511743575487
 31
0.0
  0
LINE
  5
68
330
17
100
AcDbEntity
  8
TOP
100
AcDbLine
 10
17.568023999999998
 20
11.423511743575487
 30
0.0
 11
19.386
 21
12.475409836065573
 31
0.0
  0
LINE
  5
69
330
17
100
AcDbEntity
  8
TOP
100
AcDbLine
 10
19.386
 20
12.475409836065573
 30
0.0
 11
21.203976
 21
11.423511743575487
 31
0.0
  0
LINE
  5
6A
330
17
100
AcDbEntity
  8
TOP
100
AcDbLine
 10
0.0
 20
13.721311475409836
 30
0.0
 11
1.8179759999999998
 21
12.66941338291975
 31
0.0
  0
LINE
  5
6B
330
17
100
AcDbEntity
  8
TOP
100
AcDbLine
 10
2.490024
 20
12.66941338291975
 30
0.0
 11
4.308
 21
13.721311475409836
 31
0.0
  0
LINE
  5
6C
330
17
100
AcDbEntity
  8
TOP
100
AcDbLine
 10
4.308
 20
13.721311475409836
 30
0.0
 11
6.125976
 21
12.66941338291975
 31
0.0
  0
LINE
  5
6D
330
17
100
AcDbEntity
  8
TOP
100
AcDbLine
 10
6.798024
 20
12.66941338291975
 30
0.0
 11
8.616
 21
13.721311475409836
 31
0.0
  0
LINE
  5
6E
330
17
100
AcDbEntity
  8
TOP
100
AcDbLine
 10
8.616
 20
13.721311475409836
 30
0.0
 11
10.433976
 21
12.66941338291975
 31
0.0
  0
LINE
  5
6F
330
17
100
AcDbEntity
  8
TOP
100
AcDbLine
 10
11.106024
 20
12.66941338291975
 30
0.0
 11
12.924
 21
13.721311475409836
 31
0.0
  0
LINE
  5
70
330
17
100
AcDbEntity
  8
TOP
100
AcDbLine
 10
12.924
 20
13.721311475409836
 30
0.0
 11
14.741976
 21
12.66941338291975
 31
0.0
  0
LINE
  5
71
330
17
100
AcDbEntity
  8
TOP
100
AcDbLine
 10
15.414024
 20
12.66941338291975
 30
0.0
 11
17.232
 21
13.721311475409836
 31
0.0
  0
LINE
  5
72
330
17
100
AcDbEntity
  8
TOP
100
AcDbLine
 10
17.232
 20
13.721311475409836
 30
0.0
 11
19.049976
 21
12.66941338291975
 31
0.0
  0
LINE
  5
73
330
17
100
AcDbEntity
  8
TOP
100
AcDbLine
 10
19.722023999999998
 20
12.66941338291975
 30
0.0
 11
21.54
 21
13.721311475409836
 31
0.0
  0
LINE
  5
74
330
17
100
AcDbEntity
  8
TOP
100
AcDbLine
 10
0.336024
 20
13.91531502226401
 30
0.0
 11
2.154
 21
14.967213114754099
 31
0.0
  0
LINE
  5
75
330
17
100
AcDbEntity
  8
TOP
100
AcDbLine
 10
2.154
 20
14.967213114754099
 30
0.0
 11
3.9719759999999997
 21
13.91531502226401
 31
0.0
  0
LINE
  5
76
330
17
100
AcDbEntity
  8
TOP
100
AcDbLine
 10
4.644024
 20
13.91531502226401
 30
0.0
 11
6.462
 21
14.967213114754099
 31
0.0
  0
LINE
  5
77
330
17
100
AcDbEntity
  8
TOP
100
AcDbLine
 10
6.462
 20
14.967213114754099
 30
0.0
 11
8.279976
 21
13.91531502226401
 31
0.0
  0
LINE
  5
78
330
17
100
AcDbEntity
  8
TOP
100
AcDbLine
 10
8.952024
 20
13.91531502226401
 30
0.0
 11
10.77
 21
14.967213114754099
 31
0.0
  0
LINE
  5
79
330
17
100
AcDbEntity
  8
TOP
100
AcDbLine
 10
10.77
 20
14.967213114754099
 30
0.0
 11
12.587976
 21
13.91531502226401
 31
0.0
  0
LINE
  5
7A
330
17
100
AcDbEntity
  8
TOP
100
AcDbLine
 10
13.260024
 20
13.91531502226401
 30
0.0
 11
15.078
 21
14.967213114754099
 31
0.0
  0
LINE
  5
7B
330
17
100
AcDbEntity
  8
TOP
100
AcDbLine
 10
15.078
 20
14.967213114754099
 30
0.0
 11
16.895976
 21
13.91531502226401
 31
0.0
  0
LINE
  5
7C
330
17
100
AcDbEntity
  8
TOP
100
AcDbLine
 10
17.568023999999998
 20
13.91531502226401
 30
0.0
 11
19.386
 21
14.967213114754099
 31
0.0
  0
LINE
  5
7D
330
17
100
AcDbEntity
  8
TOP
100
AcDbLine
 10
19.386
 20
14.967213114754099
 30
0.0
 11
21.203976
 21
13.91531502226401
 31
0.0
  0
LINE
  5
7E
330
17
100
AcDbEntity
  8
TOP
100
AcDbLine
 10
0.0
 20
16.213114754098363
 30
0.0
 11
1.8179759999999998
 21
15.161216661608274
 31
0.0
  0
LINE
  5
7F
330
17
100
AcDbEntity
  8
TOP
100
AcDbLine
 10
2.490024
 20
15.161216661608274
 30
0.0
 11
4.308
 21
16.213114754098363
 31
0.0
  0
LINE
  5
80
330
17
100
AcDbEntity
  8
TOP
100
AcDbLine
 10
4.308
 20
16.213114754098363
 30
0.0
 11
6.125976
 21
15.161216661608274
 31
0.0
  0
LINE
  5
81
330
17
100
AcDbEntity
  8
TOP
100
AcDbLine
 10
6.798024
 20
15.161216661608274
 30
0.0
 11
8.616
 21
16.213114754098363
 31
0.0
  0
LINE
  5
82
330
17
100
AcDbEntity
  8
TOP
100
AcDbLine
 10
8.616
 20
16.213114754098363
 30
0.0
 11
10.433976
 21
15.161216661608274
 31
0.0
  0
LINE
  5
83
330
17
100
AcDbEntity
  8
TOP
100
AcDbLine
 10
11.106024
 20
15.161216661608274
 30
0.0
 11
12.924
 21
16.213114754098363
 31
0.0
  0
LINE
  5
84
330
17
100
AcDbEntity
  8
TOP
100
AcDbLine
 10
12.924
 20
16.213114754098363
 30
0.0
 11
14.741976
 21
15.161216661608274
 31
0.0
  0
LINE
  5
85
330
17
100
AcDbEntity
  8
TOP
100
AcDbLine
 10
15.414024
 20
15.161216661608274
 30
0.0
 11
17.232
 21
16.213114754098363
 31
0.0
  0
LINE
  5
86
330
17
100
AcDbEntity
  8
TOP
100
AcDbLine
 10
17.232
 20
16.213114754098363
 30
0.0
 11
19.049976
 21
15.161216661608274
 31
0.0
  0
LINE
  5
87
330
17
100
AcDbEntity
  8
TOP
100
AcDbLine
 10
19.722023999999998
 20
15.161216661608274
 30
0.0
 11
21.54
 21
16.213114754098363
 31
0.0
  0
LINE
  5
88
330
17
100
AcDbEntity
  8
TOP
100
AcDbLine
 10
0.336024
 20
16.407118300952536
 30
0.0
 11
2.154
 21
17.459016393442624
 31
0.0
  0
LINE
  5
89
330
17
100
AcDbEntity
  8
TOP
100
AcDbLine
 10
2.154
 20
17.459016393442624
 30
0.0
 11
3.9719759999999997
 21
16.407118300952536
 31
0.0
  0
LINE
  5
8A
330
17
100
AcDbEntity
  8
TOP
100
AcDbLine
 10
4.644024
 20
16.407118300952536
 30
0.0
 11
6.462
 21
17.459016393442624
 31
0.0
  0
LINE
  5
8B
330
17
100
AcDbEntity
  8
TOP
100
AcDbLine
 10
6.462
 20
17.459016393442624
 30
0.0
 11
8.279976
 21
16.407118300952536
 31
0.0
  0
LINE
  5
8C
330
17
100
AcDbEntity
  8
TOP
100
AcDbLine
 10
8.952024
 20
16.407118300952536
 30
0.0
 11
10.77
 21
17.459016393442624
 31
0.0
  0
LINE
  5
8D
330
17
100
AcDbEntity
  8
TOP
100
AcDbLine
 10
10.77
 20
17.459016393442624
 30
0.0
 11
12.587976
 21
16.407118300952536
 31
0.0
  0
LINE
  5
8E
330
17
100
AcDbEntity
  8
TOP
100
AcDbLine
 10
13.260024
 20
16.407118300952536
 30
0.0
 11
15.078
 21
17.459016393442624
 31
0.0
  0
LINE
  5
8F
330
17
100
AcDbEntity
  8
TOP
100
AcDbLine
 10
15.078
 20
17.459016393442624
 30
0.0
 11
16.895976
 21
16.407118300952536
 31
0.0
  0
LINE
  5
90
330
17
100
AcDbEntity
  8
TOP
100
AcDbLine
 10
17.568023999999998
 20
16.407118300952536
 30
0.0
 11
19.386
 21
17.459016393442624
 31
0.0
  0
LINE
  5
91
330
17
100
AcDbEntity
  8
TOP
100
AcDbLine
 10
19.386
 20
17.459016393442624
 30
0.0
 11
21.203976
 21
16.407118300952536
 31
0.0
  0
LINE
  5
92
330
17
100
AcDbEntity
  8
TOP
100
AcDbLine
 10
0.0
 20
18.704918032786885
 30
0.0
 11
1.8179759999999998
 21
17.6530199402968
 31
0.0
  0
LINE
  5
93
330
17
100
AcDbEntity
  8
TOP
100
AcDbLine
 10
2.490024
 20
17.6530199402968
 30
0.0
 11
4.308
 21
18.704918032786885
 31
0.0
  0
LINE
  5
94
330
17
100
AcDbEntity
  8
TOP
100
AcDbLine
 10
4.308
 20
18.704918032786885
 30
0.0
 11
6.125976
 21
17.6530199402968
 31
0.0
  0
LINE
  5
95
330
17
100
AcDbEntity
  8
TOP
100
AcDbLine
 10
6.798024
 20
17.6530199402968
 30
0.0
 11
8.616
 21
18.704918032786885
 31
0.0
  0
LINE
  5
96
330
17
100
AcDbEntity
  8
TOP
100
AcDbLine
 10
8.616
 20
18.704918032786885
 30
0.0
 11
10.433976
 21
17.6530199402968
 31
0.0
  0
LINE
  5
97
330
17
100
AcDbEntity
  8
TOP
100
AcDbLine
 10
11.106024
 20
17.6530199402968
 30
0.0
 11
12.924
 21
18.704918032786885
 31
0.0
  0
LINE
  5
98
330
17
100
AcDbEntity
  8
TOP
100
AcDbLine
 10
12.924
 20
18.704918032786885
 30
0.0
 11
14.741976
 21
17.6530199402968
 31
0.0
  0
LINE
  5
99
330
17
100
AcDbEntity
  8
TOP
100
AcDbLine
 10
15.414024
 20
17.6530199402968
 30
0.0
 11
17.232
 21
18.704918032786885
 31
0.0
  0
LINE
  5
9A
330
17
100
AcDbEntity
  8
TOP
100
AcDbLine
 10
17.232
 20
18.704918032786885
 30
0.0
 11
19.049976
 21
17.6530199402968
 31
0.0
  0
LINE
  5
9B
330
17
100
AcDbEntity
  8
TOP
100
AcDbLine
 10
19.722023999999998
 20
17.6530199402968
 30
0.0
 11
21.54
 21
18.704918032786885
 31
0.0
  0
LINE
  5
9C
330
17
100
AcDbEntity
  8
TOP
100
AcDbLine
 10
0.336024
 20
18.898921579641062
 30
0.0
 11
2.154
 21
19.950819672131146
 31
0.0
  0
LINE
  5
9D
330
17
100
AcDbEntity
  8
TOP
100
AcDbLine
 10
2.154
 20
19.950819672131146
 30
0.0
 11
3.9719759999999997
 21
18.898921579641062
 31
0.0
  0
LINE
  5
9E
330
17
100
AcDbEntity
  8
TOP
100
AcDbLine
 10
4.644024
 20
18.898921579641062
 30
0.0
 11
6.462
 21
19.950819672131146
 31
0.0
  0
LINE
  5
9F
330
17
100
AcDbEntity
  8
TOP
100
AcDbLine
 10
6.462
 20
19.950819672131146
 30
0.0
 11
8.279976
 21
18.898921579641062
 31
0.0
  0
LINE
  5
A0
330
17
100
AcDbEntity
  8
TOP
100
AcDbLine
 10
8.952024
 20
18.898921579641062
 30
0.0
 11
10.77
 21
19.950819672131146
 31
0.0
  0
LINE
  5
A1
330
17
100
AcDbEntity
  8
TOP
100
AcDbLine
 10
10.77
 20
19.950819672131146
 30
0.0
 11
12.587976
 21
18.898921579641062
 31
0.0
  0
LINE
  5
A2
330
17
100
AcDbEntity
  8
TOP
100
AcDbLine
 10
13.260024
 20
18.898921579641062
 30
0.0
 11
15.078
 21
19.950819672131146
 31
0.0
  0
LINE
  5
A3
330
17
100
AcDbEntity
  8
TOP
100
AcDbLine
 10
15.078
 20
19.950819672131146
 30
0.0
 11
16.895976
 21
18.898921579641062
 31
0.0
  0
LINE
  5
A4
330
17
100
AcDbEntity
  8
TOP
100
AcDbLine
 10
17.568023999999998
 20
18.898921579641062
 30
0.0
 11
19.386
 21
19.950819672131146
 31
0.0
  0
LINE
  5
A5
330
17
100
AcDbEntity
  8
TOP
100
AcDbLine
 10
19.386
 20
19.950819672131146
 30
0.0
 11
21.203976
 21
18.898921579641062
 31
0.0
  0
LINE
  5
A6
330
17
100
AcDbEntity
  8
TOP
100
AcDbLine
 10
0.0
 20
21.19672131147541
 30
0.0
 11
1.8179759999999998
 21
20.144823218985323
 31
0.0
  0
LINE
  5
A7
330
17
100
AcDbEntity
  8
TOP
100
AcDbLine
 10
2.490024
 20
20.144823218985323
 30
0.0
 11
4.308
 21
21.19672131147541
 31
0.0
  0
LINE
  5
A8
330
17
100
AcDbEntity
  8
TOP
100
AcDbLine
 10
4.308
 20
21.19672131147541
 30
0.0
 11
6.125976
 21
20.144823218985323
 31
0.0
  0
LINE
  5
A9
330
17
100
AcDbEntity
  8
TOP
100
AcDbLine
 10
6.798024
 20
20.144823218985323
 30
0.0
 11
8.616
 21
21.19672131147541
 31
0.0
  0
LINE
  5
AA
330
17
100
AcDbEntity
  8
TOP
100
AcDbLine
 10
8.616
 20
21.19672131147541
 30
0.0
 11
10.433976
 21
20.144823218985323
 31
0.0
  0
LINE
  5
AB
330
17
100
AcDbEntity
  8
TOP
100
AcDbLine
 10
11.106024
 20
20.144823218985323
 30
0.0
 11
12.924
 21
21.19672131147541
 31
0.0
  0
LINE
  5
AC
330
17
100
AcDbEntity
  8
TOP
100
AcDbLine
 10
12.924
 20
21.19672131147541
 30
0.0
 11
14.741976
 21
20.144823218985323
 31
0.0
  0
LINE
  5
AD
330
17
100
AcDbEntity
  8
TOP
100
AcDbLine
 10
15.414024
 20
20.144823218985323
 30
0.0
 11
17.232
 21
21.19672131147541
 31
0.0
  0
LINE
  5
AE
330
17
100
AcDbEntity
  8
TOP
100
AcDbLine
 10
17.232
 20
21.19672131147541
 30
0.0
 11
19.049976
 21
20.144823218985323
 31
0.0
  0
LINE
  5
AF
330
17
100
AcDbEntity
  8
TOP
100
AcDbLine
 10
19.722023999999998
 20
20.144823218985323
 30
0.0
 11
21.54
 21
21.19672131147541
 31
0.0
  0
LINE
  5
B0
330
17
100
AcDbEntity
  8
TOP
100
AcDbLine
 10
0.336024
 20
21.390724858329584
 30
0.0
 11
2.154
 21
22.442622950819672
 31
0.0
  0
LINE
  5
B1
330
17
100
AcDbEntity
  8
TOP
100
AcDbLine
 10
2.154
 20
22.442622950819672
 30
0.0
 11
3.9719759999999997
 21
21.390724858329584
 31
0.0
  0
LINE
  5
B2
330
17
100
AcDbEntity
  8
TOP
100
AcDbLine
 10
4.644024
 20
21.390724858329584
 30
0.0
 11
6.462
 21
22.442622950819672
 31
0.0
  0
LINE
  5
B3
330
17
100
AcDbEntity
  8
TOP
100
AcDbLine
 10
6.462
 20
22.442622950819672
 30
0.0
 11
8.279976
 21
21.390724858329584
 31
0.0
  0
LINE
  5
B4
330
17
100
AcDbEntity
  8
TOP
100
AcDbLine
 10
8.952024
 20
21.390724858329584
 30
0.0
 11
10.77
 21
22.442622950819672
 31
0.0
  0
LINE
  5
B5
330
17
100
AcDbEntity
  8
TOP
100
AcDbLine
 10
10.77
 20
22.442622950819672
 30
0.0
 11
12.587976
 21
21.390724858329584
 31
0.0
  0
LINE
  5
B6
330
17
100
AcDbEntity
  8
TOP
100
AcDbLine
 10
13.260024
 20
21.390724858329584
 30
0.0
 11
15.078
 21
22.442622950819672
 31
0.0
  0
LINE
  5
B7
330
17
100
AcDbEntity
  8
TOP
100
AcDbLine
 10
15.078
 20
22.442622950819672
 30
0.0
 11
16.895976
 21
21.390724858329584
 31
0.0
  0
LINE
  5
B8
330
17
100
AcDbEntity
  8
TOP
100
AcDbLine
 10
17.568023999999998
 20
21.390724858329584
 30
0.0
 11
19.386
 21
22.442622950819672
 31
0.0
  0
LINE
  5
B9
330
17
100
AcDbEntity
  8
TOP
100
AcDbLine
 10
19.386
 20
22.442622950819672
 30
0.0
 11
21.203976
 21
21.390724858329584
 31
0.0
  0
LINE
  5
BA
330
17
100
AcDbEntity
  8
TOP
100
AcDbLine
 10
0.0
 20
23.688524590163937
 30
0.0
 11
1.8179759999999998
 21
22.636626497673845
 31
0.0
  0
LINE
  5
BB
330
17
100
AcDbEntity
  8
TOP
100
AcDbLine
 10
2.490024
 20
22.636626497673845
 30
0.0
 11
4.308
 21
23.688524590163937
 31
0.0
  0
LINE
  5
BC
330
17
100
AcDbEntity
  8
TOP
100
AcDbLine
 10
4.308
 20
23.688524590163937
 30
0.0
 11
6.125976
 21
22.636626497673845
 31
0.0
  0
LINE
  5
BD
330
17
100
AcDbEntity
  8
TOP
100
AcDbLine
 10
6.798024
 20
22.636626497673845
 30
0.0
 11
8.616
 21
23.688524590163937
 31
0.0
  0
LINE
  5
BE
330
17
100
AcDbEntity
  8
TOP
100
AcDbLine
 10
8.616
 20
23.688524590163937
 30
0.0
 11
10.433976
 21
22.636626497673845
 31
0.0
  0
LINE
  5
BF
330
17
100
AcDbEntity
  8
TOP
100
AcDbLine
 10
11.106024
 20
22.636626497673845
 30
0.0
 11
12.924
 21
23.688524590163937
 31
0.0
  0
LINE
  5
C0
330
17
100
AcDbEntity
  8
TOP
100
AcDbLine
 10
12.924
 20
23.688524590163937
 30
0.0
 11
14.741976
 21
22.636626497673845
 31
0.0
  0
LINE
  5
C1
330
17
100
AcDbEntity
  8
TOP
100
AcDbLine
 10
15.414024
 20
22.636626497673845
 30
0.0
 11
17.232
 21
23.688524590163937
 31
0.0
  0
LINE
  5
C2
330
17
100
AcDbEntity
  8
TOP
100
AcDbLine
 10
17.232
 20
23.688524590163937
 30
0.0
 11
19.049976
 21
22.636626497673845
 31
0.0
  0
LINE
  5
C3
330
17
100
AcDbEntity
  8
TOP
100
AcDbLine
 10
19.722023999999998
 20
22.636626497673845
 30
0.0
 11
21.54
 21
23.688524590163937
 31
0.0
  0
LINE
  5
C4
330
17
100
AcDbEntity
  8
TOP
100
AcDbLine
 10
0.336024
 20
23.882528137018113
 30
0.0
 11
2.154
 21
24.934426229508198
 31
0.0
  0
LINE
  5
C5
330
17
100
AcDbEntity
  8
TOP
100
AcDbLine
 10
2.154
 20
24.934426229508198
 30
0.0
 11
3.9719759999999997
 21
23.882528137018113
 31
0.0
  0
LINE
  5
C6
330
17
100
AcDbEntity
  8
TOP
100
AcDbLine
 10
4.644024
 20
23.882528137018113
 30
0.0
 11
6.462
 21
24.934426229508198
 31
0.0
  0
LINE
  5
C7
330
17
100
AcDbEntity
  8
TOP
100
AcDbLine
 10
6.462
 20
24.934426229508198
 30
0.0
 11
8.279976
 21
23.882528137018113
 31
0.0
  0
LINE
  5
C8
330
17
100
AcDbEntity
  8
TOP
100
AcDbLine
 10
8.952024
 20
23.882528137018113
 30
0.0
 11
10.77
 21
24.934426229508198
 31
0.0
  0
LINE
  5
C9
330
17
100
AcDbEntity
  8
TOP
100
AcDbLine
 10
10.77
 20
24.934426229508198
 30
0.0
 11
12.587976
 21
23.882528137018113
 31
0.0
  0
LINE
  5
CA
330
17
100
AcDbEntity
  8
TOP
100
AcDbLine
 10
13.260024
 20
23.882528137018113
 30
0.0
 11
15.078
 21
24.934426229508198
 31
0.0
  0
LINE
  5
CB
330
17
100
AcDbEntity
  8
TOP
100
AcDbLine
 10
15.078
 20
24.934426229508198
 30
0.0
 11
16.895976
 21
23.882528137018113
 31
0.0
  0
LINE
  5
CC
330
17
100
AcDbEntity
  8
TOP
100
AcDbLine
 10
17.568023999999998
 20
23.882528137018113
 30
0.0
 11
19.386
 21
24.934426229508198
 31
0.0
  0
LINE
  5
CD
330
17
100
AcDbEntity
  8
TOP
100
AcDbLine
 10
19.386
 20
24.934426229508198
 30
0.0
 11
21.203976
 21
23.882528137018113
 31
0.0
  0
LINE
  5
CE
330
17
100
AcDbEntity
  8
TOP
100
AcDbLine
 10
0.0
 20
26.18032786885246
 30
0.0
 11
1.8179759999999998
 21
25.128429776362374
 31
0.0
  0
LINE
  5
CF
330
17
100
AcDbEntity
  8
TOP
100
AcDbLine
 10
2.490024
 20
25.128429776362374
 30
0.0
 11
4.308
 21
26.18032786885246
 31
0.0
  0
LINE
  5
D0
330
17
100
AcDbEntity
  8
TOP
100
AcDbLine
 10
4.308
 20
26.18032786885246
 30
0.0
 11
6.125976
 21
25.128429776362374
 31
0.0
  0
LINE
  5
D1
330
17
100
AcDbEntity
  8
TOP
100
AcDbLine
 10
6.798024
 20
25.128429776362374
 30
0.0
 11
8.616
 21
26.18032786885246
 31
0.0
  0
LINE
  5
D2
330
17
100
AcDbEntity
  8
TOP
100
AcDbLine
 10
8.616
 20
26.18032786885246
 30
0.0
 11
10.433976
 21
25.128429776362374
 31
0.0
  0
LINE
  5
D3
330
17
100
AcDbEntity
  8
TOP
100
AcDbLine
 10
11.106024
 20
25.128429776362374
 30
0.0
 11
12.924
 21
26.18032786885246
 31
0.0
  0
LINE
  5
D4
330
17
100
AcDbEntity
  8
TOP
100
AcDbLine
 10
12.924
 20
26.18032786885246
 30
0.0
 11
14.741976
 21
25.128429776362374
 31
0.0
  0
LINE
  5
D5
330
17
100
AcDbEntity
  8
TOP
100
AcDbLine
 10
15.414024
 20
25.128429776362374
 30
0.0
 11
17.232
 21
26.18032786885246
 31
0.0
  0
LINE
  5
D6
330
17
100
AcDbEntity
  8
TOP
100
AcDbLine
 10
17.232
 20
26.18032786885246
 30
0.0
 11
19.049976
 21
25.128429776362374
 31
0.0
  0
LINE
  5
D7
330
17
100
AcDbEntity
  8
TOP
100
AcDbLine
 10
19.722023999999998
 20
25.128429776362374
 30
0.0
 11
21.54
 21
26.18032786885246
 31
0.0
  0
LINE
  5
D8
330
17
100
AcDbEntity
  8
TOP
100
AcDbLine
 10
0.336024
 20
26.374331415706635
 30
0.0
 11
2.154
 21
27.426229508196723
 31
0.0
  0
LINE
  5
D9
330
17
100
AcDbEntity
  8
TOP
100
AcDbLine
 10
2.154
 20
27.426229508196723
 30
0.0
 11
3.9719759999999997
 21
26.374331415706635
 31
0.0
  0
LINE
  5
DA
330
17
100
AcDbEntity
  8
TOP
100
AcDbLine
 10
4.644024
 20
26.374331415706635
 30
0.0
 11
6.462
 21
27.426229508196723
 31
0.0
  0
LINE
  5
DB
330
17
100
AcDbEntity
  8
TOP
100
AcDbLine
 10
6.462
 20
27.426229508196723
 30
0.0
 11
8.279976
 21
26.374331415706635
 31
0.0
  0
LINE
  5
DC
330
17
100
AcDbEntity
  8
TOP
100
AcDbLine
 10
8.952024
 20
26.374331415706635
 30
0.0
 11
10.77
 21
27.426229508196723
 31
0.0
  0
LINE
  5
DD
330
17
100
AcDbEntity
  8
TOP
100
AcDbLine
 10
10.77
 20
27.426229508196723
 30
0.0
 11
12.587976
 21
26.374331415706635
 31
0.0
  0
LINE
  5
DE
330
17
100
AcDbEntity
  8
TOP
100
AcDbLine
 10
13.260024
 20
26.374331415706635
 30
0.0
 11
15.078
 21
27.426229508196723
 31
0.0
  0
LINE
  5
DF
330
17
100
AcDbEntity
  8
TOP
100
AcDbLine
 10
15.078
 20
27.426229508196723
 30
0.0
 11
16.895976
 21
26.374331415706635
 31
0.0
  0
LINE
  5
E0
330
17
100
AcDbEntity
  8
TOP
100
AcDbLine
 10
17.568023999999998
 20
26.374331415706635
 30
0.0
 11
19.386
 21
27.426229508196723
 31
0.0
  0
LINE
  5
E1
330
17
100
AcDbEntity
  8
TOP
100
AcDbLine
 10
19.386
 20
27.426229508196723
 30
0.0
 11
21.203976
 21
26.374331415706635
 31
0.0
  0
LINE
  5
E2
330
17
100
AcDbEntity
  8
TOP
100
AcDbLine
 10
0.0
 20
28.672131147540984
 30
0.0
 11
1.8179759999999998
 21
27.620233055050896
 31
0.0
  0
LINE
  5
E3
330
17
100
AcDbEntity
  8
TOP
100
AcDbLine
 10
2.490024
 20
27.620233055050896
 30
0.0
 11
4.308
 21
28.672131147540984
 31
0.0
  0
LINE
  5
E4
330
17
100
AcDbEntity
  8
TOP
100
AcDbLine
 10
4.308
 20
28.672131147540984
 30
0.0
 11
6.125976
 21
27.620233055050896
 31
0.0
  0
LINE
  5
E5
330
17
100
AcDbEntity
  8
TOP
100
AcDbLine
 10
6.798024
 20
27.620233055050896
 30
0.0
 11
8.616
 21
28.672131147540984
 31
0.0
  0
LINE
  5
E6
330
17
100
AcDbEntity
  8
TOP
100
AcDbLine
 10
8.616
 20
28.672131147540984
 30
0.0
 11
10.433976
 21
27.620233055050896
 31
0.0
  0
LINE
  5
E7
330
17
100
AcDbEntity
  8
TOP
100
AcDbLine
 10
11.106024
 20
27.620233055050896
 30
0.0
 11
12.924
 21
28.672131147540984
 31
0.0
  0
LINE
  5
E8
330
17
100
AcDbEntity
  8
TOP
100
AcDbLine
 10
12.924
 20
28.672131147540984
 30
0.0
 11
14.741976
 21
27.620233055050896
 31
0.0
  0
LINE
  5
E9
330
17
100
AcDbEntity
  8
TOP
100
AcDbLine
 10
15.414024
 20
27.620233055050896
 30
0.0
 11
17.232
 21
28.672131147540984
 31
0.0
  0
LINE
  5
EA
330
17
100
AcDbEntity
  8
TOP
100
AcDbLine
 10
17.232
 20
28.672131147540984
 30
0.0
 11
19.049976
 21
27.620233055050896
 31
0.0
  0
LINE
  5
EB
330
17
100
AcDbEntity
  8
TOP
100
AcDbLine
 10
19.722023999999998
 20
27.620233055050896
 30
0.0
 11
21.54
 21
28.672131147540984
 31
0.0
  0
LINE
  5
EC
330
17
100
AcDbEntity
  8
TOP
100
AcDbLine
 10
0.336024
 20
28.866134694395157
 30
0.0
 11
2.154
 21
29.91803278688525
 31
0.0
  0
LINE
  5
ED
330
17
100
AcDbEntity
  8
TOP
100
AcDbLine
 10
2.154
 20
29.91803278688525
 30
0.0
 11
3.9719759999999997
 21
28.866134694395157
 31
0.0
  0
LINE
  5
EE
330
17
100
AcDbEntity
  8
TOP
100
AcDbLine
 10
4.644024
 20
28.866134694395157
 30
0.0
 11
6.462
 21
29.91803278688525
 31
0.0
  0
LINE
  5
EF
330
17
100
AcDbEntity
  8
TOP
100
AcDbLine
 10
6.462
 20
29.91803278688525
 30
0.0
 11
8.279976
 21
28.866134694395157
 31
0.0
  0
LINE
  5
F0
330
17
100
AcDbEntity
  8
TOP
100
AcDbLine
 10
8.952024
 20
28.866134694395157
 30
0.0
 11
10.77
 21
29.91803278688525
 31
0.0
  0
LINE
  5
F1
330
17
100
AcDbEntity
  8
TOP
100
AcDbLine
 10
10.77
 20
29.91803278688525
 30
0.0
 11
12.587976
 21
28.866134694395157
 31
0.0
  0
LINE
  5
F2
330
17
100
AcDbEntity
  8
TOP
100
AcDbLine
 10
13.260024
 20
28.866134694395157
 30
0.0
 11
15.078
 21
29.91803278688525
 31
0.0
  0
LINE
  5
F3
330
17
100
AcDbEntity
  8
TOP
100
AcDbLine
 10
15.078
 20
29.91803278688525
 30
0.0
 11
16.895976
 21
28.866134694395157
 31
0.0
  0
LINE
  5
F4
330
17
100
AcDbEntity
  8
TOP
100
AcDbLine
 10
17.568023999999998
 20
28.866134694395157
 30
0.0
 11
19.386
 21
29.91803278688525
 31
0.0
  0
LINE
  5
F5
330
17
100
AcDbEntity
  8
TOP
100
AcDbLine
 10
19.386
 20
29.91803278688525
 30
0.0
 11
21.203976
 21
28.866134694395157
 31
0.0
  0
LINE
  5
F6
330
17
100
AcDbEntity
  8
TOP
100
AcDbLine
 10
0.0
 20
31.16393442622951
 30
0.0
 11
1.8179759999999998
 21
30.112036333739425
 31
0.0
  0
LINE
  5
F7
330
17
100
AcDbEntity
  8
TOP
100
AcDbLine
 10
2.490024
 20
30.112036333739425
 30
0.0
 11
4.308
 21
31.16393442622951
 31
0.0
  0
LINE
  5
F8
330
17
100
AcDbEntity
  8
TOP
100
AcDbLine
 10
4.308
 20
31.16393442622951
 30
0.0
 11
6.125976
 21
30.112036333739425
 31
0.0
  0
LINE
  5
F9
330
17
100
AcDbEntity
  8
TOP
100
AcDbLine
 10
6.798024
 20
30.112036333739425
 30
0.0
 11
8.616
 21
31.16393442622951
 31
0.0
  0
LINE
  5
FA
330
17
100
AcDbEntity
  8
TOP
100
AcDbLine
 10
8.616
 20
31.16393442622951
 30
0.0
 11
10.433976
 21
30.112036333739425
 31
0.0
  0
LINE
  5
FB
330
17
100
AcDbEntity
  8
TOP
100
AcDbLine
 10
11.106024
 20
30.112036333739425
 30
0.0
 11
12.924
 21
31.16393442622951
 31
0.0
  0
LINE
  5
FC
330
17
100
AcDbEntity
  8
TOP
100
AcDbLine
 10
12.924
 20
31.16393442622951
 30
0.0
 11
14.741976
 21
30.112036333739425
 31
0.0
  0
LINE
  5
FD
330
17
100
AcDbEntity
  8
TOP
100
AcDbLine
 10
15.414024
 20
30.112036333739425
 30
0.0
 11
17.232
 21
31.16393442622951
 31
0.0
  0
LINE
  5
FE
330
17
100
AcDbEntity
  8
TOP
100
AcDbLine
 10
17.232
 20
31.16393442622951
 30
0.0
 11
19.049976
 21
30.112036333739425
 31
0.0
  0
LINE
  5
FF
330
17
100
AcDbEntity
  8
TOP
100
AcDbLine
 10
19.722023999999998
 20
30.112036333739425
 30
0.0
 11
21.54
 21
31.16393442622951
 31
0.0
  0
LINE
  5
100
330
17
100
AcDbEntity
  8
TOP
100
AcDbLine
 10
0.336024
 20
31.357937973083686
 30
0.0
 11
2.154
 21
32.40983606557377
 31
0.0
  0
LINE
  5
101
330
17
100
AcDbEntity
  8
TOP
100
AcDbLine
 10
2.154
 20
32.40983606557377
 30
0.0
 11
3.9719759999999997
 21
31.357937973083686
 31
0.0
  0
LINE
  5
102
330
17
100
AcDbEntity
  8
TOP
100
AcDbLine
 10
4.644024
 20
31.357937973083686
 30
0.0
 11
6.462
 21
32.40983606557377
 31
0.0
  0
LINE
  5
103
330
17
100
AcDbEntity
  8
TOP
100
AcDbLine
 10
6.462
 20
32.40983606557377
 30
0.0
 11
8.279976
 21
31.357937973083686
 31
0.0
  0
LINE
  5
104
330
17
100
AcDbEntity
  8
TOP
100
AcDbLine
 10
8.952024
 20
31.357937973083686
 30
0.0
 11
10.77
 21
32.40983606557377
 31
0.0
  0
LINE
  5
105
330
17
100
AcDbEntity
  8
TOP
100
AcDbLine
 10
10.77
 20
32.40983606557377
 30
0.0
 11
12.587976
 21
31.357937973083686
 31
0.0
  0
LINE
  5
106
330
17
100
AcDbEntity
  8
TOP
100
AcDbLine
 10
13.260024
 20
31.357937973083686
 30
0.0
 11
15.078
 21
32.40983606557377
 31
0.0
  0
LINE
  5
107
330
17
100
AcDbEntity
  8
TOP
100
AcDbLine
 10
15.078
 20
32.40983606557377
 30
0.0
 11
16.895976
 21
31.357937973083686
 31
0.0
  0
LINE
  5
108
330
17
100
AcDbEntity
  8
TOP
100
AcDbLine
 10
17.568023999999998
 20
31.357937973083686
 30
0.0
 11
19.386
 21
32.40983606557377
 31
0.0
  0
LINE
  5
109
330
17
100
AcDbEntity
  8
TOP
100
AcDbLine
 10
19.386
 20
32.40983606557377
 30
0.0
 11
21.203976
 21
31.357937973083686
 31
0.0
  0
LINE
  5
10A
330
17
100
AcDbEntity
  8
TOP
100
AcDbLine
 10
0.0
 20
33.65573770491804
 30
0.0
 11
1.8179759999999998
 21
32.60383961242795
 31
0.0
  0
LINE
  5
10B
330
17
100
AcDbEntity
  8
TOP
100
AcDbLine
 10
2.490024
 20
32.60383961242795
 30
0.0
 11
4.308
 21
33.65573770491804
 31
0.0
  0
LINE
  5
10C
330
17
100
AcDbEntity
  8
TOP
100
AcDbLine
 10
4.308
 20
33.65573770491804
 30
0.0
 11
6.125976
 21
32.60383961242795
 31
0.0
  0
LINE
  5
10D
330
17
100
AcDbEntity
  8
TOP
100
AcDbLine
 10
6.798024
 20
32.60383961242795
 30
0.0
 11
8.616
 21
33.65573770491804
 31
0.0
  0
LINE
  5
10E
330
17
100
AcDbEntity
  8
TOP
100
AcDbLine
 10
8.616
 20
33.65573770491804
 30
0.0
 11
10.433976
 21
32.60383961242795
 31
0.0
  0
LINE
  5
10F
330
17
100
AcDbEntity
  8
TOP
100
AcDbLine
 10
11.106024
 20
32.60383961242795
 30
0.0
 11
12.924
 21
33.65573770491804
 31
0.0
  0
LINE
  5
110
330
17
100
AcDbEntity
  8
TOP
100
AcDbLine
 10
12.924
 20
33.65573770491804
 30
0.0
 11
14.741976
 21
32.60383961242795
 31
0.0
  0
LINE
  5
111
330
17
100
AcDbEntity
  8
TOP
100
AcDbLine
 10
15.414024
 20
32.60383961242795
 30
0.0
 11
17.232
 21
33.65573770491804
 31
0.0
  0
LINE
  5
112
330
17
100
AcDbEntity
  8
TOP
100
AcDbLine
 10
17.232
 20
33.65573770491804
 30
0.0
 11
19.049976
 21
32.60383961242795
 31
0.0
  0
LINE
  5
113
330
17
100
AcDbEntity
  8
TOP
100
AcDbLine
 10
19.722023999999998
 20
32.60383961242795
 30
0.0
 11
21.54
 21
33.65573770491804
 31
0.0
  0
LINE
  5
114
330
17
100
AcDbEntity
  8
TOP
100
AcDbLine
 10
0.336024
 20
33.84974125177221
 30
0.0
 11
2.154
 21
34.90163934426229
 31
0.0
  0
LINE
  5
115
330
17
100
AcDbEntity
  8
TOP
100
AcDbLine
 10
2.154
 20
34.90163934426229
 30
0.0
 11
3.9719759999999997
 21
33.84974125177221
 31
0.0
  0
LINE
  5
116
330
17
100
AcDbEntity
  8
TOP
100
AcDbLine
 10
4.644024
 20
33.84974125177221
 30
0.0
 11
6.462
 21
34.90163934426229
 31
0.0
  0
LINE
  5
117
330
17
100
AcDbEntity
  8
TOP
100
AcDbLine
 10
6.462
 20
34.90163934426229
 30
0.0
 11
8.279976
 21
33.84974125177221
 31
0.0
  0
LINE
  5
118
330
17
100
AcDbEntity
  8
TOP
100
AcDbLine
 10
8.952024
 20
33.84974125177221
 30
0.0
 11
10.77
 21
34.90163934426229
 31
0.0
  0
LINE
  5
119
330
17
100
AcDbEntity
  8
TOP
100
AcDbLine
 10
10.77
 20
34.90163934426229
 30
0.0
 11
12.587976
 21
33.84974125177221
 31
0.0
  0
LINE
  5
11A
330
17
100
AcDbEntity
  8
TOP
100
AcDbLine
 10
13.260024
 20
33.84974125177221
 30
0.0
 11
15.078
 21
34.90163934426229
 31
0.0
  0
LINE
  5
11B
330
17
100
AcDbEntity
  8
TOP
100
AcDbLine
 10
15.078
 20
34.90163934426229
 30
0.0
 11
16.895976
 21
33.84974125177221
 31
0.0
  0
LINE
  5
11C
330
17
100
AcDbEntity
  8
TOP
100
AcDbLine
 10
17.568023999999998
 20
33.84974125177221
 30
0.0
 11
19.386
 21
34.90163934426229
 31
0.0
  0
LINE
  5
11D
330
17
100
AcDbEntity
  8
TOP
100
AcDbLine
 10
19.386
 20
34.90163934426229
 30
0.0
 11
21.203976
 21
33.84974125177221
 31
0.0
  0
LINE
  5
11E
330
17
100
AcDbEntity
  8
TOP
100
AcDbLine
 10
0.0
 20
36.14754098360656
 30
0.0
 11
1.8179759999999998
 21
35.09564289111647
 31
0.0
  0
LINE
  5
11F
330
17
100
AcDbEntity
  8
TOP
100
AcDbLine
 10
2.490024
 20
35.09564289111647
 30
0.0
 11
4.308
 21
36.14754098360656
 31
0.0
  0
LINE
  5
120
330
17
100
AcDbEntity
  8
TOP
100
AcDbLine
 10
4.308
 20
36.14754098360656
 30
0.0
 11
6.125976
 21
35.09564289111647
 31
0.0
  0
LINE
  5
121
330
17
100
AcDbEntity
  8
TOP
100
AcDbLine
 10
6.798024
 20
35.09564289111647
 30
0.0
 11
8.616
 21
36.14754098360656
 31
0.0
  0
LINE
  5
122
330
17
100
AcDbEntity
  8
TOP
100
AcDbLine
 10
8.616
 20
36.14754098360656
 30
0.0
 11
10.433976
 21
35.09564289111647
 31
0.0
  0
LINE
  5
123
330
17
100
AcDbEntity
  8
TOP
100
AcDbLine
 10
11.106024
 20
35.09564289111647
 30
0.0
 11
12.924
 21
36.14754098360656
 31
0.0
  0
LINE
  5
124
330
17
100
AcDbEntity
  8
TOP
100
AcDbLine
 10
12.924
 20
36.14754098360656
 30
0.0
 11
14.741976
 21
35.09564289111647
 31
0.0
  0
LINE
  5
125
330
17
100
AcDbEntity
  8
TOP
100
AcDbLine
 10
15.414024
 20
35.09564289111647
 30
0.0
 11
17.232
 21
36.14754098360656
 31
0.0
  0
LINE
  5
126
330
17
100
AcDbEntity
  8
TOP
100
AcDbLine
 10
17.232
 20
36.14754098360656
 30
0.0
 11
19.049976
 21
35.09564289111647
 31
0.0
  0
LINE
  5
127
330
17
100
AcDbEntity
  8
TOP
100
AcDbLine
 10
19.722023999999998
 20
35.09564289111647
 30
0.0
 11
21.54
 21
36.14754098360656
 31
0.0
  0
LINE
  5
128
330
17
100
AcDbEntity
  8
TOP
100
AcDbLine
 10
0.336024
 20
36.34154453046073
 30
0.0
 11
2.154
 21
37.39344262295082
 31
0.0
  0
LINE
  5
129
330
17
100
AcDbEntity
  8
TOP
100
AcDbLine
 10
2.154
 20
37.39344262295082
 30
0.0
 11
3.9719759999999997
 21
36.34154453046073
 31
0.0
  0
LINE
  5
12A
330
17
100
AcDbEntity
  8
TOP
100
AcDbLine
 10
4.644024
 20
36.34154453046073
 30
0.0
 11
6.462
 21
37.39344262295082
 31
0.0
  0
LINE
  5
12B
330
17
100
AcDbEntity
  8
TOP
100
AcDbLine
 10
6.462
 20
37.39344262295082
 30
0.0
 11
8.279976
 21
36.34154453046073
 31
0.0
  0
LINE
  5
12C
330
17
100
AcDbEntity
  8
TOP
100
AcDbLine
 10
8.952024
 20
36.34154453046073
 30
0.0
 11
10.77
 21
37.39344262295082
 31
0.0
  0
LINE
  5
12D
330
17
100
AcDbEntity
  8
TOP
100
AcDbLine
 10
10.77
 20
37.39344262295082
 30
0.0
 11
12.587976
 21
36.34154453046073
 31
0.0
  0
LINE
  5
12E
330
17
100
AcDbEntity
  8
TOP
100
AcDbLine
 10
13.260024
 20
36.34154453046073
 30
0.0
 11
15.078
 21
37.39344262295082
 31
0.0
  0
LINE
  5
12F
330
17
100
AcDbEntity
  8
TOP
100
AcDbLine
 10
15.078
 20
37.39344262295082
 30
0.0
 11
16.895976
 21
36.34154453046073
 31
0.0
  0
LINE
  5
130
330
17
100
AcDbEntity
  8
TOP
100
AcDbLine
 10
17.568023999999998
 20
36.34154453046073
 30
0.0
 11
19.386
 21
37.39344262295082
 31
0.0
  0
LINE
  5
131
330
17
100
AcDbEntity
  8
TOP
100
AcDbLine
 10
19.386
 20
37.39344262295082
 30
0.0
 11
21.203976
 21
36.34154453046073
 31
0.0
  0
LINE
  5
132
330
17
100
AcDbEntity
  8
TOP
100
AcDbLine
 10
0.0
 20
38.63934426229508
 30
0.0
 11
1.8179759999999998
 21
37.587446169805
 31
0.0
  0
LINE
  5
133
330
17
100
AcDbEntity
  8
TOP
100
AcDbLine
 10
2.490024
 20
37.587446169805
 30
0.0
 11
4.308
 21
38.63934426229508
 31
0.0
  0
LINE
  5
134
330
17
100
AcDbEntity
  8
TOP
100
AcDbLine
 10
4.308
 20
38.63934426229508
 30
0.0
 11
6.125976
 21
37.587446169805
 31
0.0
  0
LINE
  5
135
330
17
100
AcDbEntity
  8
TOP
100
AcDbLine
 10
6.798024
 20
37.587446169805
 30
0.0
 11
8.616
 21
38.63934426229508
 31
0.0
  0
LINE
  5
136
330
17
100
AcDbEntity
  8
TOP
100
AcDbLine
 10
8.616
 20
38.63934426229508
 30
0.0
 11
10.433976
 21
37.587446169805
 31
0.0
  0
LINE
  5
137
330
17
100
AcDbEntity
  8
TOP
100
AcDbLine
 10
11.106024
 20
37.587446169805
 30
0.0
 11
12.924
 21
38.63934426229508
 31
0.0
  0
LINE
  5
138
330
17
100
AcDbEntity
  8
TOP
100
AcDbLine
 10
12.924
 20
38.63934426229508
 30
0.0
 11
14.741976
 21
37.587446169805
 31
0.0
  0
LINE
  5
139
330
17
100
AcDbEntity
  8
TOP
100
AcDbLine
 10
15.414024
 20
37.587446169805
 30
0.0
 11
17.232
 21
38.63934426229508
 31
0.0
  0
LINE
  5
13A
330
17
100
AcDbEntity
  8
TOP
100
AcDbLine
 10
17.232
 20
38.63934426229508
 30
0.0
 11
19.049976
 21
37.587446169805
 31
0.0
  0
LINE
  5
13B
330
17
100
AcDbEntity
  8
TOP
100
AcDbLine
 10
19.722023999999998
 20
37.587446169805
 30
0.0
 11
21.54
 21
38.63934426229508
 31
0.0
  0
LINE
  5
13C
330
17
100
AcDbEntity
  8
TOP
100
AcDbLine
 10
0.336024
 20
38.83334780914926
 30
0.0
 11
2.154
 21
39.885245901639344
 31
0.0
  0
LINE
  5
13D
330
17
100
AcDbEntity
  8
TOP
100
AcDbLine
 10
2.154
 20
39.885245901639344
 30
0.0
 11
3.9719759999999997
 21
38.83334780914926
 31
0.0
  0
LINE
  5
13E
330
17
100
AcDbEntity
  8
TOP
100
AcDbLine
 10
4.644024
 20
38.83334780914926
 30
0.0
 11
6.462
 21
39.885245901639344
 31
0.0
  0
LINE
  5
13F
330
17
100
AcDbEntity
  8
TOP
100
AcDbLine
 10
6.462
 20
39.885245901639344
 30
0.0
 11
8.279976
 21
38.83334780914926
 31
0.0
  0
LINE
  5
140
330
17
100
AcDbEntity
  8
TOP
100
AcDbLine
 10
8.952024
 20
38.83334780914926
 30
0.0
 11
10.77
 21
39.885245901639344
 31
0.0
  0
LINE
  5
141
330
17
100
AcDbEntity
  8
TOP
100
AcDbLine
 10
10.77
 20
39.885245901639344
 30
0.0
 11
12.587976
 21
38.83334780914926
 31
0.0
  0
LINE
  5
142
330
17
100
AcDbEntity
  8
TOP
100
AcDbLine
 10
13.260024
 20
38.83334780914926
 30
0.0
 11
15.078
 21
39.885245901639344
 31
0.0
  0
LINE
  5
143
330
17
100
AcDbEntity
  8
TOP
100
AcDbLine
 10
15.078
 20
39.885245901639344
 30
0.0
 11
16.895976
 21
38.83334780914926
 31
0.0
  0
LINE
  5
144
330
17
100
AcDbEntity
  8
TOP
100
AcDbLine
 10
17.568023999999998
 20
38.83334780914926
 30
0.0
 11
19.386
 21
39.885245901639344
 31
0.0
  0
LINE
  5
145
330
17
100
AcDbEntity
  8
TOP
100
AcDbLine
 10
19.386
 20
39.885245901639344
 30
0.0
 11
21.203976
 21
38.83334780914926
 31
0.0
  0
LINE
  5
146
330
17
100
AcDbEntity
  8
TOP
100
AcDbLine
 10
0.0
 20
41.131147540983605
 30
0.0
 11
1.8179759999999998
 21
40.07924944849352
 31
0.0
  0
LINE
  5
147
330
17
100
AcDbEntity
  8
TOP
100
AcDbLine
 10
2.490024
 20
40.07924944849352
 30
0.0
 11
4.308
 21
41.131147540983605
 31
0.0
  0
LINE
  5
148
330
17
100
AcDbEntity
  8
TOP
100
AcDbLine
 10
4.308
 20
41.131147540983605
 30
0.0
 11
6.125976
 21
40.07924944849352
 31
0.0
  0
LINE
  5
149
330
17
100
AcDbEntity
  8
TOP
100
AcDbLine
 10
6.798024
 20
40.07924944849352
 30
0.0
 11
8.616
 21
41.131147540983605
 31
0.0
  0
LINE
  5
14A
330
17
100
AcDbEntity
  8
TOP
100
AcDbLine
 10
8.616
 20
41.131147540983605
 30
0.0
 11
10.433976
 21
40.07924944849352
 31
0.0
  0
LINE
  5
14B
330
17
100
AcDbEntity
  8
TOP
100
AcDbLine
 10
11.106024
 20
40.07924944849352
 30
0.0
 11
12.924
 21
41.131147540983605
 31
0.0
  0
LINE
  5
14C
330
17
100
AcDbEntity
  8
TOP
100
AcDbLine
 10
12.924
 20
41.131147540983605
 30
0.0
 11
14.741976
 21
40.07924944849352
 31
0.0
  0
LINE
  5
14D
330
17
100
AcDbEntity
  8
TOP
100
AcDbLine
 10
15.414024
 20
40.07924944849352
 30
0.0
 11
17.232
 21
41.131147540983605
 31
0.0
  0
LINE
  5
14E
330
17
100
AcDbEntity
  8
TOP
100
AcDbLine
 10
17.232
 20
41.131147540983605
 30
0.0
 11
19.049976
 21
40.07924944849352
 31
0.0
  0
LINE
  5
14F
330
17
100
AcDbEntity
  8
TOP
100
AcDbLine
 10
19.722023999999998
 20
40.07924944849352
 30
0.0
 11
21.54
 21
41.131147540983605
 31
0.0
  0
LINE
  5
150
330
17
100
AcDbEntity
  8
TOP
100
AcDbLine
 10
0.336024
 20
41.32515108783778
 30
0.0
 11
2.154
 21
42.37704918032787
 31
0.0
  0
LINE
  5
151
330
17
100
AcDbEntity
  8
TOP
100
AcDbLine
 10
2.154
 20
42.37704918032787
 30
0.0
 11
3.9719759999999997
 21
41.32515108783778
 31
0.0
  0
LINE
  5
152
330
17
100
AcDbEntity
  8
TOP
100
AcDbLine
 10
4.644024
 20
41.32515108783778
 30
0.0
 11
6.462
 21
42.37704918032787
 31
0.0
  0
LINE
  5
153
330
17
100
AcDbEntity
  8
TOP
100
AcDbLine
 10
6.462
 20
42.37704918032787
 30
0.0
 11
8.279976
 21
41.32515108783778
 31
0.0
  0
LINE
  5
154
330
17
100
AcDbEntity
  8
TOP
100
AcDbLine
 10
8.952024
 20
41.32515108783778
 30
0.0
 11
10.77
 21
42.37704918032787
 31
0.0
  0
LINE
  5
155
330
17
100
AcDbEntity
  8
TOP
100
AcDbLine
 10
10.77
 20
42.37704918032787
 30
0.0
 11
12.587976
 21
41.32515108783778
 31
0.0
  0
LINE
  5
156
330
17
100
AcDbEntity
  8
TOP
100
AcDbLine
 10
13.260024
 20
41.32515108783778
 30
0.0
 11
15.078
 21
42.37704918032787
 31
0.0
  0
LINE
  5
157
330
17
100
AcDbEntity
  8
TOP
100
AcDbLine
 10
15.078
 20
42.37704918032787
 30
0.0
 11
16.895976
 21
41.32515108783778
 31
0.0
  0
LINE
  5
158
330
17
100
AcDbEntity
  8
TOP
100
AcDbLine
 10
17.568023999999998
 20
41.32515108783778
 30
0.0
 11
19.386
 21
42.37704918032787
 31
0.0
  0
LINE
  5
159
330
17
100
AcDbEntity
  8
TOP
100
AcDbLine
 10
19.386
 20
42.37704918032787
 30
0.0
 11
21.203976
 21
41.32515108783778
 31
0.0
  0
LINE
  5
15A
330
17
100
AcDbEntity
  8
TOP
100
AcDbLine
 10
0.0
 20
43.622950819672134
 30
0.0
 11
1.8179759999999998
 21
42.57105272718205
 31
0.0
  0
LINE
  5
15B
330
17
100
AcDbEntity
  8
TOP
100
AcDbLine
 10
2.490024
 20
42.57105272718205
 30
0.0
 11
4.308
 21
43.622950819672134
 31
0.0
  0
LINE
  5
15C
330
17
100
AcDbEntity
  8
TOP
100
AcDbLine
 10
4.308
 20
43.622950819672134
 30
0.0
 11
6.125976
 21
42.57105272718205
 31
0.0
  0
LINE
  5
15D
330
17
100
AcDbEntity
  8
TOP
100
AcDbLine
 10
6.798024
 20
42.57105272718205
 30
0.0
 11
8.616
 21
43.622950819672134
 31
0.0
  0
LINE
  5
15E
330
17
100
AcDbEntity
  8
TOP
100
AcDbLine
 10
8.616
 20
43.622950819672134
 30
0.0
 11
10.433976
 21
42.57105272718205
 31
0.0
  0
LINE
  5
15F
330
17
100
AcDbEntity
  8
TOP
100
AcDbLine
 10
11.106024
 20
42.57105272718205
 30
0.0
 11
12.924
 21
43.622950819672134
 31
0.0
  0
LINE
  5
160
330
17
100
AcDbEntity
  8
TOP
100
AcDbLine
 10
12.924
 20
43.622950819672134
 30
0.0
 11
14.741976
 21
42.57105272718205
 31
0.0
  0
LINE
  5
161
330
17
100
AcDbEntity
  8
TOP
100
AcDbLine
 10
15.414024
 20
42.57105272718205
 30
0.0
 11
17.232
 21
43.622950819672134
 31
0.0
  0
LINE
  5
162
330
17
100
AcDbEntity
  8
TOP
100
AcDbLine
 10
17.232
 20
43.622950819672134
 30
0.0
 11
19.049976
 21
42.57105272718205
 31
0.0
  0
LINE
  5
163
330
17
100
AcDbEntity
  8
TOP
100
AcDbLine
 10
19.722023999999998
 20
42.57105272718205
 30
0.0
 11
21.54
 21
43.622950819672134
 31
0.0
  0
LINE
  5
164
330
17
100
AcDbEntity
  8
TOP
100
AcDbLine
 10
0.336024
 20
43.81695436652631
 30
0.0
 11
2.154
 21
44.868852459016395
 31
0.0
  0
LINE
  5
165
330
17
100
AcDbEntity
  8
TOP
100
AcDbLine
 10
2.154
 20
44.868852459016395
 30
0.0
 11
3.9719759999999997
 21
43.81695436652631
 31
0.0
  0
LINE
  5
166
330
17
100
AcDbEntity
  8
TOP
100
AcDbLine
 10
4.644024
 20
43.81695436652631
 30
0.0
 11
6.462
 21
44.868852459016395
 31
0.0
  0
LINE
  5
167
330
17
100
AcDbEntity
  8
TOP
100
AcDbLine
 10
6.462
 20
44.868852459016395
 30
0.0
 11
8.279976
 21
43.81695436652631
 31
0.0
  0
LINE
  5
168
330
17
100
AcDbEntity
  8
TOP
100
AcDbLine
 10
8.952024
 20
43.81695436652631
 30
0.0
 11
10.77
 21
44.868852459016395
 31
0.0
  0
LINE
  5
169
330
17
100
AcDbEntity
  8
TOP
100
AcDbLine
 10
10.77
 20
44.868852459016395
 30
0.0
 11
12.587976
 21
43.81695436652631
 31
0.0
  0
LINE
  5
16A
330
17
100
AcDbEntity
  8
TOP
100
AcDbLine
 10
13.260024
 20
43.81695436652631
 30
0.0
 11
15.078
 21
44.868852459016395
 31
0.0
  0
LINE
  5
16B
330
17
100
AcDbEntity
  8
TOP
100
AcDbLine
 10
15.078
 20
44.868852459016395
 30
0.0
 11
16.895976
 21
43.81695436652631
 31
0.0
  0
LINE
  5
16C
330
17
100
AcDbEntity
  8
TOP
100
AcDbLine
 10
17.568023999999998
 20
43.81695436652631
 30
0.0
 11
19.386
 21
44.868852459016395
 31
0.0
  0
LINE
  5
16D
330
17
100
AcDbEntity
  8
TOP
100
AcDbLine
 10
19.386
 20
44.868852459016395
 30
0.0
 11
21.203976
 21
43.81695436652631
 31
0.0
  0
LINE
  5
16E
330
17
100
AcDbEntity
  8
TOP
100
AcDbLine
 10
0.0
 20
46.114754098360656
 30
0.0
 11
1.8179759999999998
 21
45.06285600587057
 31
0.0
  0
LINE
  5
16F
330
17
100
AcDbEntity
  8
TOP
100
AcDbLine
 10
2.490024
 20
45.06285600587057
 30
0.0
 11
4.308
 21
46.114754098360656
 31
0.0
  0
LINE
  5
170
330
17
100
AcDbEntity
  8
TOP
100
AcDbLine
 10
4.308
 20
46.114754098360656
 30
0.0
 11
6.125976
 21
45.06285600587057
 31
0.0
  0
LINE
  5
171
330
17
100
AcDbEntity
  8
TOP
100
AcDbLine
 10
6.798024
 20
45.06285600587057
 30
0.0
 11
8.616
 21
46.114754098360656
 31
0.0
  0
LINE
  5
172
330
17
100
AcDbEntity
  8
TOP
100
AcDbLine
 10
8.616
 20
46.114754098360656
 30
0.0
 11
10.433976
 21
45.06285600587057
 31
0.0
  0
LINE
  5
173
330
17
100
AcDbEntity
  8
TOP
100
AcDbLine
 10
11.106024
 20
45.06285600587057
 30
0.0
 11
12.924
 21
46.114754098360656
 31
0.0
  0
LINE
  5
174
330
17
100
AcDbEntity
  8
TOP
100
AcDbLine
 10
12.924
 20
46.114754098360656
 30
0.0
 11
14.741976
 21
45.06285600587057
 31
0.0
  0
LINE
  5
175
330
17
100
AcDbEntity
  8
TOP
100
AcDbLine
 10
15.414024
 20
45.06285600587057
 30
0.0
 11
17.232
 21
46.114754098360656
 31
0.0
  0
LINE
  5
176
330
17
100
AcDbEntity
  8
TOP
100
AcDbLine
 10
17.232
 20
46.114754098360656
 30
0.0
 11
19.049976
 21
45.06285600587057
 31
0.0
  0
LINE
  5
177
330
17
100
AcDbEntity
  8
TOP
100
AcDbLine
 10
19.722023999999998
 20
45.06285600587057
 30
0.0
 11
21.54
 21
46.114754098360656
 31
0.0
  0
LINE
  5
178
330
17
100
AcDbEntity
  8
TOP
100
AcDbLine
 10
0.336024
 20
46.30875764521483
 30
0.0
 11
2.154
 21
47.36065573770492
 31
0.0
  0
LINE
  5
179
330
17
100
AcDbEntity
  8
TOP
100
AcDbLine
 10
2.154
 20
47.36065573770492
 30
0.0
 11
3.9719759999999997
 21
46.30875764521483
 31
0.0
  0
LINE
  5
17A
330
17
100
AcDbEntity
  8
TOP
100
AcDbLine
 10
4.644024
 20
46.30875764521483
 30
0.0
 11
6.462
 21
47.36065573770492
 31
0.0
  0
LINE
  5
17B
330
17
100
AcDbEntity
  8
TOP
100
AcDbLine
 10
6.462
 20
47.36065573770492
 30
0.0
 11
8.279976
 21
46.30875764521483
 31
0.0
  0
LINE
  5
17C
330
17
100
AcDbEntity
  8
TOP
100
AcDbLine
 10
8.952024
 20
46.30875764521483
 30
0.0
 11
10.77
 21
47.36065573770492
 31
0.0
  0
LINE
  5
17D
330
17
100
AcDbEntity
  8
TOP
100
AcDbLine
 10
10.77
 20
47.36065573770492
 30
0.0
 11
12.587976
 21
46.30875764521483
 31
0.0
  0
LINE
  5
17E
330
17
100
AcDbEntity
  8
TOP
100
AcDbLine
 10
13.260024
 20
46.30875764521483
 30
0.0
 11
15.078
 21
47.36065573770492
 31
0.0
  0
LINE
  5
17F
330
17
100
AcDbEntity
  8
TOP
100
AcDbLine
 10
15.078
 20
47.36065573770492
 30
0.0
 11
16.895976
 21
46.30875764521483
 31
0.0
  0
LINE
  5
180
330
17
100
AcDbEntity
  8
TOP
100
AcDbLine
 10
17.568023999999998
 20
46.30875764521483
 30
0.0
 11
19.386
 21
47.36065573770492
 31
0.0
  0
LINE
  5
181
330
17
100
AcDbEntity
  8
TOP
100
AcDbLine
 10
19.386
 20
47.36065573770492
 30
0.0
 11
21.203976
 21
46.30875764521483
 31
0.0
  0
LINE
  5
182
330
17
100
AcDbEntity
  8
TOP
100
AcDbLine
 10
0.0
 20
48.606557377049185
 30
0.0
 11
1.8179759999999998
 21
47.554659284559094
 31
0.0
  0
LINE
  5
183
330
17
100
AcDbEntity
  8
TOP
100
AcDbLine
 10
2.490024
 20
47.554659284559094
 30
0.0
 11
4.308
 21
48.606557377049185
 31
0.0
  0
LINE
  5
184
330
17
100
AcDbEntity
  8
TOP
100
AcDbLine
 10
4.308
 20
48.606557377049185
 30
0.0
 11
6.125976
 21
47.554659284559094
 31
0.0
  0
LINE
  5
185
330
17
100
AcDbEntity
  8
TOP
100
AcDbLine
 10
6.798024
 20
47.554659284559094
 30
0.0
 11
8.616
 21
48.606557377049185
 31
0.0
  0
LINE
  5
186
330
17
100
AcDbEntity
  8
TOP
100
AcDbLine
 10
8.616
 20
48.606557377049185
 30
0.0
 11
10.433976
 21
47.554659284559094
 31
0.0
  0
LINE
  5
187
330
17
100
AcDbEntity
  8
TOP
100
AcDbLine
 10
11.106024
 20
47.554659284559094
 30
0.0
 11
12.924
 21
48.606557377049185
 31
0.0
  0
LINE
  5
188
330
17
100
AcDbEntity
  8
TOP
100
AcDbLine
 10
12.924
 20
48.606557377049185
 30
0.0
 11
14.741976
 21
47.554659284559094
 31
0.0
  0
LINE
  5
189
330
17
100
AcDbEntity
  8
TOP
100
AcDbLine
 10
15.414024
 20
47.554659284559094
 30
0.0
 11
17.232
 21
48.606557377049185
 31
0.0
  0
LINE
  5
18A
330
17
100
AcDbEntity
  8
TOP
100
AcDbLine
 10
17.232
 20
48.606557377049185
 30
0.0
 11
19.049976
 21
47.554659284559094
 31
0.0
  0
LINE
  5
18B
330
17
100
AcDbEntity
  8
TOP
100
AcDbLine
 10
19.722023999999998
 20
47.554659284559094
 30
0.0
 11
21.54
 21
48.606557377049185
 31
0.0
  0
LINE
  5
18C
330
17
100
AcDbEntity
  8
TOP
100
AcDbLine
 10
0.336024
 20
48.80056092390336
 30
0.0
 11
2.154
 21
49.852459016393446
 31
0.0
  0
LINE
  5
18D
330
17
100
AcDbEntity
  8
TOP
100
AcDbLine
 10
2.154
 20
49.852459016393446
 30
0.0
 11
3.9719759999999997
 21
48.80056092390336
 31
0.0
  0
LINE
  5
18E
330
17
100
AcDbEntity
  8
TOP
100
AcDbLine
 10
4.644024
 20
48.80056092390336
 30
0.0
 11
6.462
 21
49.852459016393446
 31
0.0
  0
LINE
  5
18F
330
17
100
AcDbEntity
  8
TOP
100
AcDbLine
 10
6.462
 20
49.852459016393446
 30
0.0
 11
8.279976
 21
48.80056092390336
 31
0.0
  0
LINE
  5
190
330
17
100
AcDbEntity
  8
TOP
100
AcDbLine
 10
8.952024
 20
48.80056092390336
 30
0.0
 11
10.77
 21
49.852459016393446
 31
0.0
  0
LINE
  5
191
330
17
100
AcDbEntity
  8
TOP
100
AcDbLine
 10
10.77
 20
49.852459016393446
 30
0.0
 11
12.587976
 21
48.80056092390336
 31
0.0
  0
LINE
  5
192
330
17
100
AcDbEntity
  8
TOP
100
AcDbLine
 10
13.260024
 20
48.80056092390336
 30
0.0
 11
15.078
 21
49.852459016393446
 31
0.0
  0
LINE
  5
193
330
17
100
AcDbEntity
  8
TOP
100
AcDbLine
 10
15.078
 20
49.852459016393446
 30
0.0
 11
16.895976
 21
48.80056092390336
 31
0.0
  0
LINE
  5
194
330
17
100
AcDbEntity
  8
TOP
100
AcDbLine
 10
17.568023999999998
 20
48.80056092390336
 30
0.0
 11
19.386
 21
49.852459016393446
 31
0.0
  0
LINE
  5
195
330
17
100
AcDbEntity
  8
TOP
100
AcDbLine
 10
19.386
 20
49.852459016393446
 30
0.0
 11
21.203976
 21
48.80056092390336
 31
0.0
  0
LINE
  5
196
330
17
100
AcDbEntity
  8
TOP
100
AcDbLine
 10
0.0
 20
51.09836065573771
 30
0.0
 11
1.8179759999999998
 21
50.04646256324762
 31
0.0
  0
LINE
  5
197
330
17
100
AcDbEntity
  8
TOP
100
AcDbLine
 10
2.490024
 20
50.04646256324762
 30
0.0
 11
4.308
 21
51.09836065573771
 31
0.0
  0
LINE
  5
198
330
17
100
AcDbEntity
  8
TOP
100
AcDbLine
 10
4.308
 20
51.09836065573771
 30
0.0
 11
6.125976
 21
50.04646256324762
 31
0.0
  0
LINE
  5
199
330
17
100
AcDbEntity
  8
TOP
100
AcDbLine
 10
6.798024
 20
50.04646256324762
 30
0.0
 11
8.616
 21
51.09836065573771
 31
0.0
  0
LINE
  5
19A
330
17
100
AcDbEntity
  8
TOP
100
AcDbLine
 10
8.616
 20
51.09836065573771
 30
0.0
 11
10.433976
 21
50.04646256324762
 31
0.0
  0
LINE
  5
19B
330
17
100
AcDbEntity
  8
TOP
100
AcDbLine
 10
11.106024
 20
50.04646256324762
 30
0.0
 11
12.924
 21
51.09836065573771
 31
0.0
  0
LINE
  5
19C
330
17
100
AcDbEntity
  8
TOP
100
AcDbLine
 10
12.924
 20
51.09836065573771
 30
0.0
 11
14.741976
 21
50.04646256324762
 31
0.0
  0
LINE
  5
19D
330
17
100
AcDbEntity
  8
TOP
100
AcDbLine
 10
15.414024
 20
50.04646256324762
 30
0.0
 11
17.232
 21
51.09836065573771
 31
0.0
  0
LINE
  5
19E
330
17
100
AcDbEntity
  8
TOP
100
AcDbLine
 10
17.232
 20
51.09836065573771
 30
0.0
 11
19.049976
 21
50.04646256324762
 31
0.0
  0
LINE
  5
19F
330
17
100
AcDbEntity
  8
TOP
100
AcDbLine
 10
19.722023999999998
 20
50.04646256324762
 30
0.0
 11
21.54
 21
51.09836065573771
 31
0.0
  0
LINE
  5
1A0
330
17
100
AcDbEntity
  8
TOP
100
AcDbLine
 10
0.336024
 20
51.292364202591884
 30
0.0
 11
2.154
 21
52.34426229508197
 31
0.0
  0
LINE
  5
1A1
330
17
100
AcDbEntity
  8
TOP
100
AcDbLine
 10
2.154
 20
52.34426229508197
 30
0.0
 11
3.9719759999999997
 21
51.292364202591884
 31
0.0
  0
LINE
  5
1A2
330
17
100
AcDbEntity
  8
TOP
100
AcDbLine
 10
4.644024
 20
51.292364202591884
 30
0.0
 11
6.462
 21
52.34426229508197
 31
0.0
  0
LINE
  5
1A3
330
17
100
AcDbEntity
  8
TOP
100
AcDbLine
 10
6.462
 20
52.34426229508197
 30
0.0
 11
8.279976
 21
51.292364202591884
 31
0.0
  0
LINE
  5
1A4
330
17
100
AcDbEntity
  8
TOP
100
AcDbLine
 10
8.952024
 20
51.292364202591884
 30
0.0
 11
10.77
 21
52.34426229508197
 31
0.0
  0
LINE
  5
1A5
330
17
100
AcDbEntity
  8
TOP
100
AcDbLine
 10
10.77
 20
52.34426229508197
 30
0.0
 11
12.587976
 21
51.292364202591884
 31
0.0
  0
LINE
  5
1A6
330
17
100
AcDbEntity
  8
TOP
100
AcDbLine
 10
13.260024
 20
51.292364202591884
 30
0.0
 11
15.078
 21
52.34426229508197
 31
0.0
  0
LINE
  5
1A7
330
17
100
AcDbEntity
  8
TOP
100
AcDbLine
 10
15.078
 20
52.34426229508197
 30
0.0
 11
16.895976
 21
51.292364202591884
 31
0.0
  0
LINE
  5
1A8
330
17
100
AcDbEntity
  8
TOP
100
AcDbLine
 10
17.568023999999998
 20
51.292364202591884
 30
0.0
 11
19.386
 21
52.34426229508197
 31
0.0
  0
LINE
  5
1A9
330
17
100
AcDbEntity
  8
TOP
100
AcDbLine
 10
19.386
 20
52.34426229508197
 30
0.0
 11
21.203976
 21
51.292364202591884
 31
0.0
  0
LINE
  5
1AA
330
17
100
AcDbEntity
  8
TOP
100
AcDbLine
 10
0.0
 20
53.59016393442623
 30
0.0
 11
1.8179759999999998
 21
52.538265841936145
 31
0.0
  0
LINE
  5
1AB
330
17
100
AcDbEntity
  8
TOP
100
AcDbLine
 10
2.490024
 20
52.538265841936145
 30
0.0
 11
4.308
 21
53.59016393442623
 31
0.0
  0
LINE
  5
1AC
330
17
100
AcDbEntity
  8
TOP
100
AcDbLine
 10
4.308
 20
53.59016393442623
 30
0.0
 11
6.125976
 21
52.538265841936145
 31
0.0
  0
LINE
  5
1AD
330
17
100
AcDbEntity
  8
TOP
100
AcDbLine
 10
6.798024
 20
52.538265841936145
 30
0.0
 11
8.616
 21
53.59016393442623
 31
0.0
  0
LINE
  5
1AE
330
17
100
AcDbEntity
  8
TOP
100
AcDbLine
 10
8.616
 20
53.59016393442623
 30
0.0
 11
10.433976
 21
52.538265841936145
 31
0.0
  0
LINE
  5
1AF
330
17
100
AcDbEntity
  8
TOP
100
AcDbLine
 10
11.106024
 20
52.538265841936145
 30
0.0
 11
12.924
 21
53.59016393442623
 31
0.0
  0
LINE
  5
1B0
330
17
100
AcDbEntity
  8
TOP
100
AcDbLine
 10
12.924
 20
53.59016393442623
 30
0.0
 11
14.741976
 21
52.538265841936145
 31
0.0
  0
LINE
  5
1B1
330
17
100
AcDbEntity
  8
TOP
100
AcDbLine
 10
15.414024
 20
52.538265841936145
 30
0.0
 11
17.232
 21
53.59016393442623
 31
0.0
  0
LINE
  5
1B2
330
17
100
AcDbEntity
  8
TOP
100
AcDbLine
 10
17.232
 20
53.59016393442623
 30
0.0
 11
19.049976
 21
52.538265841936145
 31
0.0
  0
LINE
  5
1B3
330
17
100
AcDbEntity
  8
TOP
100
AcDbLine
 10
19.722023999999998
 20
52.538265841936145
 30
0.0
 11
21.54
 21
53.59016393442623
 31
0.0
  0
LINE
  5
1B4
330
17
100
AcDbEntity
  8
TOP
100
AcDbLine
 10
0.336024
 20
53.784167481280406
 30
0.0
 11
2.154
 21
54.8360655737705
 31
0.0
  0
LINE
  5
1B5
330
17
100
AcDbEntity
  8
TOP
100
AcDbLine
 10
2.154
 20
54.8360655737705
 30
0.0
 11
3.9719759999999997
 21
53.784167481280406
 31
0.0
  0
LINE
  5
1B6
330
17
100
AcDbEntity
  8
TOP
100
AcDbLine
 10
4.644024
 20
53.784167481280406
 30
0.0
 11
6.462
 21
54.8360655737705
 31
0.0
  0
LINE
  5
1B7
330
17
100
AcDbEntity
  8
TOP
100
AcDbLine
 10
6.462
 20
54.8360655737705
 30
0.0
 11
8.279976
 21
53.784167481280406
 31
0.0
  0
LINE
  5
1B8
330
17
100
AcDbEntity
  8
TOP
100
AcDbLine
 10
8.952024
 20
53.784167481280406
 30
0.0
 11
10.77
 21
54.8360655737705
 31
0.0
  0
LINE
  5
1B9
330
17
100
AcDbEntity
  8
TOP
100
AcDbLine
 10
10.77
 20
54.8360655737705
 30
0.0
 11
12.587976
 21
53.784167481280406
 31
0.0
  0
LINE
  5
1BA
330
17
100
AcDbEntity
  8
TOP
100
AcDbLine
 10
13.260024
 20
53.784167481280406
 30
0.0
 11
15.078
 21
54.8360655737705
 31
0.0
  0
LINE
  5
1BB
330
17
100
AcDbEntity
  8
TOP
100
AcDbLine
 10
15.078
 20
54.8360655737705
 30
0.0
 11
16.895976
 21
53.784167481280406
 31
0.0
  0
LINE
  5
1BC
330
17
100
AcDbEntity
  8
TOP
100
AcDbLine
 10
17.568023999999998
 20
53.784167481280406
 30
0.0
 11
19.386
 21
54.8360655737705
 31
0.0
  0
LINE
  5
1BD
330
17
100
AcDbEntity
  8
TOP
100
AcDbLine
 10
19.386
 20
54.8360655737705
 30
0.0
 11
21.203976
 21
53.784167481280406
 31
0.0
  0
LINE
  5
1BE
330
17
100
AcDbEntity
  8
TOP
100
AcDbLine
 10
0.0
 20
56.08196721311476
 30
0.0
 11
1.8179759999999998
 21
55.030069120624674
 31
0.0
  0
LINE
  5
1BF
330
17
100
AcDbEntity
  8
TOP
100
AcDbLine
 10
2.490024
 20
55.030069120624674
 30
0.0
 11
4.308
 21
56.08196721311476
 31
0.0
  0
LINE
  5
1C0
330
17
100
AcDbEntity
  8
TOP
100
AcDbLine
 10
4.308
 20
56.08196721311476
 30
0.0
 11
6.125976
 21
55.030069120624674
 31
0.0
  0
LINE
  5
1C1
330
17
100
AcDbEntity
  8
TOP
100
AcDbLine
 10
6.798024
 20
55.030069120624674
 30
0.0
 11
8.616
 21
56.08196721311476
 31
0.0
  0
LINE
  5
1C2
330
17
100
AcDbEntity
  8
TOP
100
AcDbLine
 10
8.616
 20
56.08196721311476
 30
0.0
 11
10.433976
 21
55.030069120624674
 31
0.0
  0
LINE
  5
1C3
330
17
100
AcDbEntity
  8
TOP
100
AcDbLine
 10
11.106024
 20
55.030069120624674
 30
0.0
 11
12.924
 21
56.08196721311476
 31
0.0
  0
LINE
  5
1C4
330
17
100
AcDbEntity
  8
TOP
100
AcDbLine
 10
12.924
 20
56.08196721311476
 30
0.0
 11
14.741976
 21
55.030069120624674
 31
0.0
  0
LINE
  5
1C5
330
17
100
AcDbEntity
  8
TOP
100
AcDbLine
 10
15.414024
 20
55.030069120624674
 30
0.0
 11
17.232
 21
56.08196721311476
 31
0.0
  0
LINE
  5
1C6
330
17
100
AcDbEntity
  8
TOP
100
AcDbLine
 10
17.232
 20
56.08196721311476
 30
0.0
 11
19.049976
 21
55.030069120624674
 31
0.0
  0
LINE
  5
1C7
330
17
100
AcDbEntity
  8
TOP
100
AcDbLine
 10
19.722023999999998
 20
55.030069120624674
 30
0.0
 11
21.54
 21
56.08196721311476
 31
0.0
  0
LINE
  5
1C8
330
17
100
AcDbEntity
  8
TOP
100
AcDbLine
 10
0.336024
 20
56.275970759968935
 30
0.0
 11
2.154
 21
57.32786885245902
 31
0.0
  0
LINE
  5
1C9
330
17
100
AcDbEntity
  8
TOP
100
AcDbLine
 10
2.154
 20
57.32786885245902
 30
0.0
 11
3.9719759999999997
 21
56.275970759968935
 31
0.0
  0
LINE
  5
1CA
330
17
100
AcDbEntity
  8
TOP
100
AcDbLine
 10
4.644024
 20
56.275970759968935
 30
0.0
 11
6.462
 21
57.32786885245902
 31
0.0
  0
LINE
  5
1CB
330
17
100
AcDbEntity
  8
TOP
100
AcDbLine
 10
6.462
 20
57.32786885245902
 30
0.0
 11
8.279976
 21
56.275970759968935
 31
0.0
  0
LINE
  5
1CC
330
17
100
AcDbEntity
  8
TOP
100
AcDbLine
 10
8.952024
 20
56.275970759968935
 30
0.0
 11
10.77
 21
57.32786885245902
 31
0.0
  0
LINE
  5
1CD
330
17
100
AcDbEntity
  8
TOP
100
AcDbLine
 10
10.77
 20
57.32786885245902
 30
0.0
 11
12.587976
 21
56.275970759968935
 31
0.0
  0
LINE
  5
1CE
330
17
100
AcDbEntity
  8
TOP
100
AcDbLine
 10
13.260024
 20
56.275970759968935
 30
0.0
 11
15.078
 21
57.32786885245902
 31
0.0
  0
LINE
  5
1CF
330
17
100
AcDbEntity
  8
TOP
100
AcDbLine
 10
15.078
 20
57.32786885245902
 30
0.0
 11
16.895976
 21
56.275970759968935
 31
0.0
  0
LINE
  5
1D0
330
17
100
AcDbEntity
  8
TOP
100
AcDbLine
 10
17.568023999999998
 20
56.275970759968935
 30
0.0
 11
19.386
 21
57.32786885245902
 31
0.0
  0
LINE
  5
1D1
330
17
100
AcDbEntity
  8
TOP
100
AcDbLine
 10
19.386
 20
57.32786885245902
 30
0.0
 11
21.203976
 21
56.275970759968935
 31
0.0
  0
LINE
  5
1D2
330
17
100
AcDbEntity
  8
TOP
100
AcDbLine
 10
0.0
 20
58.57377049180328
 30
0.0
 11
1.8179759999999998
 21
57.521872399313196
 31
0.0
  0
LINE
  5
1D3
330
17
100
AcDbEntity
  8
TOP
100
AcDbLine
 10
2.490024
 20
57.521872399313196
 30
0.0
 11
4.308
 21
58.57377049180328
 31
0.0
  0
LINE
  5
1D4
330
17
100
AcDbEntity
  8
TOP
100
AcDbLine
 10
4.308
 20
58.57377049180328
 30
0.0
 11
6.125976
 21
57.521872399313196
 31
0.0
  0
LINE
  5
1D5
330
17
100
AcDbEntity
  8
TOP
100
AcDbLine
 10
6.798024
 20
57.521872399313196
 30
0.0
 11
8.616
 21
58.57377049180328
 31
0.0
  0
LINE
  5
1D6
330
17
100
AcDbEntity
  8
TOP
100
AcDbLine
 10
8.616
 20
58.57377049180328
 30
0.0
 11
10.433976
 21
57.521872399313196
 31
0.0
  0
LINE
  5
1D7
330
17
100
AcDbEntity
  8
TOP
100
AcDbLine
 10
11.106024
 20
57.521872399313196
 30
0.0
 11
12.924
 21
58.57377049180328
 31
0.0
  0
LINE
  5
1D8
330
17
100
AcDbEntity
  8
TOP
100
AcDbLine
 10
12.924
 20
58.57377049180328
 30
0.0
 11
14.741976
 21
57.521872399313196
 31
0.0
  0
LINE
  5
1D9
330
17
100
AcDbEntity
  8
TOP
100
AcDbLine
 10
15.414024
 20
57.521872399313196
 30
0.0
 11
17.232
 21
58.57377049180328
 31
0.0
  0
LINE
  5
1DA
330
17
100
AcDbEntity
  8
TOP
100
AcDbLine
 10
17.232
 20
58.57377049180328
 30
0.0
 11
19.049976
 21
57.521872399313196
 31
0.0
  0
LINE
  5
1DB
330
17
100
AcDbEntity
  8
TOP
100
AcDbLine
 10
19.722023999999998
 20
57.521872399313196
 30
0.0
 11
21.54
 21
58.57377049180328
 31
0.0
  0
LINE
  5
1DC
330
17
100
AcDbEntity
  8
TOP
100
AcDbLine
 10
0.336024
 20
58.76777403865746
 30
0.0
 11
2.154
 21
59.81967213114754
 31
0.0
  0
LINE
  5
1DD
330
17
100
AcDbEntity
  8
TOP
100
AcDbLine
 10
2.154
 20
59.81967213114754
 30
0.0
 11
3.9719759999999997
 21
58.76777403865746
 31
0.0
  0
LINE
  5
1DE
330
17
100
AcDbEntity
  8
TOP
100
AcDbLine
 10
4.644024
 20
58.76777403865746
 30
0.0
 11
6.462
 21
59.81967213114754
 31
0.0
  0
LINE
  5
1DF
330
17
100
AcDbEntity
  8
TOP
100
AcDbLine
 10
6.462
 20
59.81967213114754
 30
0.0
 11
8.279976
 21
58.76777403865746
 31
0.0
  0
LINE
  5
1E0
330
17
100
AcDbEntity
  8
TOP
100
AcDbLine
 10
8.952024
 20
58.76777403865746
 30
0.0
 11
10.77
 21
59.81967213114754
 31
0.0
  0
LINE
  5
1E1
330
17
100
AcDbEntity
  8
TOP
100
AcDbLine
 10
10.77
 20
59.81967213114754
 30
0.0
 11
12.587976
 21
58.76777403865746
 31
0.0
  0
LINE
  5
1E2
330
17
100
AcDbEntity
  8
TOP
100
AcDbLine
 10
13.260024
 20
58.76777403865746
 30
0.0
 11
15.078
 21
59.81967213114754
 31
0.0
  0
LINE
  5
1E3
330
17
100
AcDbEntity
  8
TOP
100
AcDbLine
 10
15.078
 20
59.81967213114754
 30
0.0
 11
16.895976
 21
58.76777403865746
 31
0.0
  0
LINE
  5
1E4
330
17
100
AcDbEntity
  8
TOP
100
AcDbLine
 10
17.568023999999998
 20
58.76777403865746
 30
0.0
 11
19.386
 21
59.81967213114754
 31
0.0
  0
LINE
  5
1E5
330
17
100
AcDbEntity
  8
TOP
100
AcDbLine
 10
19.386
 20
59.81967213114754
 30
0.0
 11
21.203976
 21
58.76777403865746
 31
0.0
  0
LINE
  5
1E6
330
17
100
AcDbEntity
  8
TOP
100
AcDbLine
 10
0.0
 20
61.0655737704918
 30
0.0
 11
1.8179759999999998
 21
60.01367567800172
 31
0.0
  0
LINE
  5
1E7
330
17
100
AcDbEntity
  8
TOP
100
AcDbLine
 10
2.490024
 20
60.01367567800172
 30
0.0
 11
4.308
 21
61.0655737704918
 31
0.0
  0
LINE
  5
1E8
330
17
100
AcDbEntity
  8
TOP
100
AcDbLine
 10
4.308
 20
61.0655737704918
 30
0.0
 11
6.125976
 21
60.01367567800172
 31
0.0
  0
LINE
  5
1E9
330
17
100
AcDbEntity
  8
TOP
100
AcDbLine
 10
6.798024
 20
60.01367567800172
 30
0.0
 11
8.616
 21
61.0655737704918
 31
0.0
  0
LINE
  5
1EA
330
17
100
AcDbEntity
  8
TOP
100
AcDbLine
 10
8.616
 20
61.0655737704918
 30
0.0
 11
10.433976
 21
60.01367567800172
 31
0.0
  0
LINE
  5
1EB
330
17
100
AcDbEntity
  8
TOP
100
AcDbLine
 10
11.106024
 20
60.01367567800172
 30
0.0
 11
12.924
 21
61.0655737704918
 31
0.0
  0
LINE
  5
1EC
330
17
100
AcDbEntity
  8
TOP
100
AcDbLine
 10
12.924
 20
61.0655737704918
 30
0.0
 11
14.741976
 21
60.01367567800172
 31
0.0
  0
LINE
  5
1ED
330
17
100
AcDbEntity
  8
TOP
100
AcDbLine
 10
15.414024
 20
60.01367567800172
 30
0.0
 11
17.232
 21
61.0655737704918
 31
0.0
  0
LINE
  5
1EE
330
17
100
AcDbEntity
  8
TOP
100
AcDbLine
 10
17.232
 20
61.0655737704918
 30
0.0
 11
19.049976
 21
60.01367567800172
 31
0.0
  0
LINE
  5
1EF
330
17
100
AcDbEntity
  8
TOP
100
AcDbLine
 10
19.722023999999998
 20
60.01367567800172
 30
0.0
 11
21.54
 21
61.0655737704918
 31
0.0
  0
LINE
  5
1F0
330
17
100
AcDbEntity
  8
TOP
100
AcDbLine
 10
0.336024
 20
61.25957731734598
 30
0.0
 11
2.154
 21
62.31147540983607
 31
0.0
  0
LINE
  5
1F1
330
17
100
AcDbEntity
  8
TOP
100
AcDbLine
 10
2.154
 20
62.31147540983607
 30
0.0
 11
3.9719759999999997
 21
61.25957731734598
 31
0.0
  0
LINE
  5
1F2
330
17
100
AcDbEntity
  8
TOP
100
AcDbLine
 10
4.644024
 20
61.25957731734598
 30
0.0
 11
6.462
 21
62.31147540983607
 31
0.0
  0
LINE
  5
1F3
330
17
100
AcDbEntity
  8
TOP
100
AcDbLine
 10
6.462
 20
62.31147540983607
 30
0.0
 11
8.279976
 21
61.25957731734598
 31
0.0
  0
LINE
  5
1F4
330
17
100
AcDbEntity
  8
TOP
100
AcDbLine
 10
8.952024
 20
61.25957731734598
 30
0.0
 11
10.77
 21
62.31147540983607
 31
0.0
  0
LINE
  5
1F5
330
17
100
AcDbEntity
  8
TOP
100
AcDbLine
 10
10.77
 20
62.31147540983607
 30
0.0
 11
12.587976
 21
61.25957731734598
 31
0.0
  0
LINE
  5
1F6
330
17
100
AcDbEntity
  8
TOP
100
AcDbLine
 10
13.260024
 20
61.25957731734598
 30
0.0
 11
15.078
 21
62.31147540983607
 31
0.0
  0
LINE
  5
1F7
330
17
100
AcDbEntity
  8
TOP
100
AcDbLine
 10
15.078
 20
62.31147540983607
 30
0.0
 11
16.895976
 21
61.25957731734598
 31
0.0
  0
LINE
  5
1F8
330
17
100
AcDbEntity
  8
TOP
100
AcDbLine
 10
17.568023999999998
 20
61.25957731734598
 30
0.0
 11
19.386
 21
62.31147540983607
 31
0.0
  0
LINE
  5
1F9
330
17
100
AcDbEntity
  8
TOP
100
AcDbLine
 10
19.386
 20
62.31147540983607
 30
0.0
 11
21.203976
 21
61.25957731734598
 31
0.0
  0
LINE
  5
1FA
330
17
100
AcDbEntity
  8
TOP
100
AcDbLine
 10
0.0
 20
63.55737704918033
 30
0.0
 11
1.8179759999999998
 21
62.50547895669025
 31
0.0
  0
LINE
  5
1FB
330
17
100
AcDbEntity
  8
TOP
100
AcDbLine
 10
2.490024
 20
62.50547895669025
 30
0.0
 11
4.308
 21
63.55737704918033
 31
0.0
  0
LINE
  5
1FC
330
17
100
AcDbEntity
  8
TOP
100
AcDbLine
 10
4.308
 20
63.55737704918033
 30
0.0
 11
6.125976
 21
62.50547895669025
 31
0.0
  0
LINE
  5
1FD
330
17
100
AcDbEntity
  8
TOP
100
AcDbLine
 10
6.798024
 20
62.50547895669025
 30
0.0
 11
8.616
 21
63.55737704918033
 31
0.0
  0
LINE
  5
1FE
330
17
100
AcDbEntity
  8
TOP
100
AcDbLine
 10
8.616
 20
63.55737704918033
 30
0.0
 11
10.433976
 21
62.50547895669025
 31
0.0
  0
LINE
  5
1FF
330
17
100
AcDbEntity
  8
TOP
100
AcDbLine
 10
11.106024
 20
62.50547895669025
 30
0.0
 11
12.924
 21
63.55737704918033
 31
0.0
  0
LINE
  5
200
330
17
100
AcDbEntity
  8
TOP
100
AcDbLine
 10
12.924
 20
63.55737704918033
 30
0.0
 11
14.741976
 21
62.50547895669025
 31
0.0
  0
LINE
  5
201
330
17
100
AcDbEntity
  8
TOP
100
AcDbLine
 10
15.414024
 20
62.50547895669025
 30
0.0
 11
17.232
 21
63.55737704918033
 31
0.0
  0
LINE
  5
202
330
17
100
AcDbEntity
  8
TOP
100
AcDbLine
 10
17.232
 20
63.55737704918033
 30
0.0
 11
19.049976
 21
62.50547895669025
 31
0.0
  0
LINE
  5
203
330
17
100
AcDbEntity
  8
TOP
100
AcDbLine
 10
19.722023999999998
 20
62.50547895669025
 30
0.0
 11
21.54
 21
63.55737704918033
 31
0.0
  0
LINE
  5
204
330
17
100
AcDbEntity
  8
TOP
100
AcDbLine
 10
0.336024
 20
63.75138059603451
 30
0.0
 11
2.154
 21
64.80327868852459
 31
0.0
  0
LINE
  5
205
330
17
100
AcDbEntity
  8
TOP
100
AcDbLine
 10
2.154
 20
64.80327868852459
 30
0.0
 11
3.9719759999999997
 21
63.75138059603451
 31
0.0
  0
LINE
  5
206
330
17
100
AcDbEntity
  8
TOP
100
AcDbLine
 10
4.644024
 20
63.75138059603451
 30
0.0
 11
6.462
 21
64.80327868852459
 31
0.0
  0
LINE
  5
207
330
17
100
AcDbEntity
  8
TOP
100
AcDbLine
 10
6.462
 20
64.80327868852459
 30
0.0
 11
8.279976
 21
63.75138059603451
 31
0.0
  0
LINE
  5
208
330
17
100
AcDbEntity
  8
TOP
100
AcDbLine
 10
8.952024
 20
63.75138059603451
 30
0.0
 11
10.77
 21
64.80327868852459
 31
0.0
  0
LINE
  5
209
330
17
100
AcDbEntity
  8
TOP
100
AcDbLine
 10
10.77
 20
64.80327868852459
 30
0.0
 11
12.587976
 21
63.75138059603451
 31
0.0
  0
LINE
  5
20A
330
17
100
AcDbEntity
  8
TOP
100
AcDbLine
 10
13.260024
 20
63.75138059603451
 30
0.0
 11
15.078
 21
64.80327868852459
 31
0.0
  0
LINE
  5
20B
330
17
100
AcDbEntity
  8
TOP
100
AcDbLine
 10
15.078
 20
64.80327868852459
 30
0.0
 11
16.895976
 21
63.75138059603451
 31
0.0
  0
LINE
  5
20C
330
17
100
AcDbEntity
  8
TOP
100
AcDbLine
 10
17.568023999999998
 20
63.75138059603451
 30
0.0
 11
19.386
 21
64.80327868852459
 31
0.0
  0
LINE
  5
20D
330
17
100
AcDbEntity
  8
TOP
100
AcDbLine
 10
19.386
 20
64.80327868852459
 30
0.0
 11
21.203976
 21
63.75138059603451
 31
0.0
  0
LINE
  5
20E
330
17
100
AcDbEntity
  8
TOP
100
AcDbLine
 10
0.0
 20
66.04918032786885
 30
0.0
 11
1.8179759999999998
 21
64.99728223537878
 31
0.0
  0
LINE
  5
20F
330
17
100
AcDbEntity
  8
TOP
100
AcDbLine
 10
2.490024
 20
64.99728223537878
 30
0.0
 11
4.308
 21
66.04918032786885
 31
0.0
  0
LINE
  5
210
330
17
100
AcDbEntity
  8
TOP
100
AcDbLine
 10
4.308
 20
66.04918032786885
 30
0.0
 11
6.125976
 21
64.99728223537878
 31
0.0
  0
LINE
  5
211
330
17
100
AcDbEntity
  8
TOP
100
AcDbLine
 10
6.798024
 20
64.99728223537878
 30
0.0
 11
8.616
 21
66.04918032786885
 31
0.0
  0
LINE
  5
212
330
17
100
AcDbEntity
  8
TOP
100
AcDbLine
 10
8.616
 20
66.04918032786885
 30
0.0
 11
10.433976
 21
64.99728223537878
 31
0.0
  0
LINE
  5
213
330
17
100
AcDbEntity
  8
TOP
100
AcDbLine
 10
11.106024
 20
64.99728223537878
 30
0.0
 11
12.924
 21
66.04918032786885
 31
0.0
  0
LINE
  5
214
330
17
100
AcDbEntity
  8
TOP
100
AcDbLine
 10
12.924
 20
66.04918032786885
 30
0.0
 11
14.741976
 21
64.99728223537878
 31
0.0
  0
LINE
  5
215
330
17
100
AcDbEntity
  8
TOP
100
AcDbLine
 10
15.414024
 20
64.99728223537878
 30
0.0
 11
17.232
 21
66.04918032786885
 31
0.0
  0
LINE
  5
216
330
17
100
AcDbEntity
  8
TOP
100
AcDbLine
 10
17.232
 20
66.04918032786885
 30
0.0
 11
19.049976
 21
64.99728223537878
 31
0.0
  0
LINE
  5
217
330
17
100
AcDbEntity
  8
TOP
100
AcDbLine
 10
19.722023999999998
 20
64.99728223537878
 30
0.0
 11
21.54
 21
66.04918032786885
 31
0.0
  0
LINE
  5
218
330
17
100
AcDbEntity
  8
TOP
100
AcDbLine
 10
0.336024
 20
66.24318387472303
 30
0.0
 11
2.154
 21
67.29508196721312
 31
0.0
  0
LINE
  5
219
330
17
100
AcDbEntity
  8
TOP
100
AcDbLine
 10
2.154
 20
67.29508196721312
 30
0.0
 11
3.9719759999999997
 21
66.24318387472303
 31
0.0
  0
LINE
  5
21A
330
17
100
AcDbEntity
  8
TOP
100
AcDbLine
 10
4.644024
 20
66.24318387472303
 30
0.0
 11
6.462
 21
67.29508196721312
 31
0.0
  0
LINE
  5
21B
330
17
100
AcDbEntity
  8
TOP
100
AcDbLine
 10
6.462
 20
67.29508196721312
 30
0.0
 11
8.279976
 21
66.24318387472303
 31
0.0
  0
LINE
  5
21C
330
17
100
AcDbEntity
  8
TOP
100
AcDbLine
 10
8.952024
 20
66.24318387472303
 30
0.0
 11
10.77
 21
67.29508196721312
 31
0.0
  0
LINE
  5
21D
330
17
100
AcDbEntity
  8
TOP
100
AcDbLine
 10
10.77
 20
67.29508196721312
 30
0.0
 11
12.587976
 21
66.24318387472303
 31
0.0
  0
LINE
  5
21E
330
17
100
AcDbEntity
  8
TOP
100
AcDbLine
 10
13.260024
 20
66.24318387472303
 30
0.0
 11
15.078
 21
67.29508196721312
 31
0.0
  0
LINE
  5
21F
330
17
100
AcDbEntity
  8
TOP
100
AcDbLine
 10
15.078
 20
67.29508196721312
 30
0.0
 11
16.895976
 21
66.24318387472303
 31
0.0
  0
LINE
  5
220
330
17
100
AcDbEntity
  8
TOP
100
AcDbLine
 10
17.568023999999998
 20
66.24318387472303
 30
0.0
 11
19.386
 21
67.29508196721312
 31
0.0
  0
LINE
  5
221
330
17
100
AcDbEntity
  8
TOP
100
AcDbLine
 10
19.386
 20
67.29508196721312
 30
0.0
 11
21.203976
 21
66.24318387472303
 31
0.0
  0
LINE
  5
222
330
17
100
AcDbEntity
  8
TOP
100
AcDbLine
 10
0.0
 20
68.54098360655738
 30
0.0
 11
1.8179759999999998
 21
67.48908551406728
 31
0.0
  0
LINE
  5
223
330
17
100
AcDbEntity
  8
TOP
100
AcDbLine
 10
2.490024
 20
67.48908551406728
 30
0.0
 11
4.308
 21
68.54098360655738
 31
0.0
  0
LINE
  5
224
330
17
100
AcDbEntity
  8
TOP
100
AcDbLine
 10
4.308
 20
68.54098360655738
 30
0.0
 11
6.125976
 21
67.48908551406728
 31
0.0
  0
LINE
  5
225
330
17
100
AcDbEntity
  8
TOP
100
AcDbLine
 10
6.798024
 20
67.48908551406728
 30
0.0
 11
8.616
 21
68.54098360655738
 31
0.0
  0
LINE
  5
226
330
17
100
AcDbEntity
  8
TOP
100
AcDbLine
 10
8.616
 20
68.54098360655738
 30
0.0
 11
10.433976
 21
67.48908551406728
 31
0.0
  0
LINE
  5
227
330
17
100
AcDbEntity
  8
TOP
100
AcDbLine
 10
11.106024
 20
67.48908551406728
 30
0.0
 11
12.924
 21
68.54098360655738
 31
0.0
  0
LINE
  5
228
330
17
100
AcDbEntity
  8
TOP
100
AcDbLine
 10
12.924
 20
68.54098360655738
 30
0.0
 11
14.741976
 21
67.48908551406728
 31
0.0
  0
LINE
  5
229
330
17
100
AcDbEntity
  8
TOP
100
AcDbLine
 10
15.414024
 20
67.48908551406728
 30
0.0
 11
17.232
 21
68.54098360655738
 31
0.0
  0
LINE
  5
22A
330
17
100
AcDbEntity
  8
TOP
100
AcDbLine
 10
17.232
 20
68.54098360655738
 30
0.0
 11
19.049976
 21
67.48908551406728
 31
0.0
  0
LINE
  5
22B
330
17
100
AcDbEntity
  8
TOP
100
AcDbLine
 10
19.722023999999998
 20
67.48908551406728
 30
0.0
 11
21.54
 21
68.54098360655738
 31
0.0
  0
LINE
  5
22C
330
17
100
AcDbEntity
  8
TOP
100
AcDbLine
 10
0.336024
 20
68.73498715341157
 30
0.0
 11
2.154
 21
69.78688524590164
 31
0.0
  0
LINE
  5
22D
330
17
100
AcDbEntity
  8
TOP
100
AcDbLine
 10
2.154
 20
69.78688524590164
 30
0.0
 11
3.9719759999999997
 21
68.73498715341157
 31
0.0
  0
LINE
  5
22E
330
17
100
AcDbEntity
  8
TOP
100
AcDbLine
 10
4.644024
 20
68.73498715341157
 30
0.0
 11
6.462
 21
69.78688524590164
 31
0.0
  0
LINE
  5
22F
330
17
100
AcDbEntity
  8
TOP
100
AcDbLine
 10
6.462
 20
69.78688524590164
 30
0.0
 11
8.279976
 21
68.73498715341157
 31
0.0
  0
LINE
  5
230
330
17
100
AcDbEntity
  8
TOP
100
AcDbLine
 10
8.952024
 20
68.73498715341157
 30
0.0
 11
10.77
 21
69.78688524590164
 31
0.0
  0
LINE
  5
231
330
17
100
AcDbEntity
  8
TOP
100
AcDbLine
 10
10.77
 20
69.78688524590164
 30
0.0
 11
12.587976
 21
68.73498715341157
 31
0.0
  0
LINE
  5
232
330
17
100
AcDbEntity
  8
TOP
100
AcDbLine
 10
13.260024
 20
68.73498715341157
 30
0.0
 11
15.078
 21
69.78688524590164
 31
0.0
  0
LINE
  5
233
330
17
100
AcDbEntity
  8
TOP
100
AcDbLine
 10
15.078
 20
69.78688524590164
 30
0.0
 11
16.895976
 21
68.73498715341157
 31
0.0
  0
LINE
  5
234
330
17
100
AcDbEntity
  8
TOP
100
AcDbLine
 10
17.568023999999998
 20
68.73498715341157
 30
0.0
 11
19.386
 21
69.78688524590164
 31
0.0
  0
LINE
  5
235
330
17
100
AcDbEntity
  8
TOP
100
AcDbLine
 10
19.386
 20
69.78688524590164
 30
0.0
 11
21.203976
 21
68.73498715341157
 31
0.0
  0
LINE
  5
236
330
17
100
AcDbEntity
  8
TOP
100
AcDbLine
 10
0.0
 20
71.0327868852459
 30
0.0
 11
1.8179759999999998
 21
69.98088879275582
 31
0.0
  0
LINE
  5
237
330
17
100
AcDbEntity
  8
TOP
100
AcDbLine
 10
2.490024
 20
69.98088879275582
 30
0.0
 11
4.308
 21
71.0327868852459
 31
0.0
  0
LINE
  5
238
330
17
100
AcDbEntity
  8
TOP
100
AcDbLine
 10
4.308
 20
71.0327868852459
 30
0.0
 11
6.125976
 21
69.98088879275582
 31
0.0
  0
LINE
  5
239
330
17
100
AcDbEntity
  8
TOP
100
AcDbLine
 10
6.798024
 20
69.98088879275582
 30
0.0
 11
8.616
 21
71.0327868852459
 31
0.0
  0
LINE
  5
23A
330
17
100
AcDbEntity
  8
TOP
100
AcDbLine
 10
8.616
 20
71.0327868852459
 30
0.0
 11
10.433976
 21
69.98088879275582
 31
0.0
  0
LINE
  5
23B
330
17
100
AcDbEntity
  8
TOP
100
AcDbLine
 10
11.106024
 20
69.98088879275582
 30
0.0
 11
12.924
 21
71.0327868852459
 31
0.0
  0
LINE
  5
23C
330
17
100
AcDbEntity
  8
TOP
100
AcDbLine
 10
12.924
 20
71.0327868852459
 30
0.0
 11
14.741976
 21
69.98088879275582
 31
0.0
  0
LINE
  5
23D
330
17
100
AcDbEntity
  8
TOP
100
AcDbLine
 10
15.414024
 20
69.98088879275582
 30
0.0
 11
17.232
 21
71.0327868852459
 31
0.0
  0
LINE
  5
23E
330
17
100
AcDbEntity
  8
TOP
100
AcDbLine
 10
17.232
 20
71.0327868852459
 30
0.0
 11
19.049976
 21
69.98088879275582
 31
0.0
  0
LINE
  5
23F
330
17
100
AcDbEntity
  8
TOP
100
AcDbLine
 10
19.722023999999998
 20
69.98088879275582
 30
0.0
 11
21.54
 21
71.0327868852459
 31
0.0
  0
LINE
  5
240
330
17
100
AcDbEntity
  8
TOP
100
AcDbLine
 10
0.336024
 20
71.22679043210007
 30
0.0
 11
2.154
 21
72.27868852459017
 31
0.0
  0
LINE
  5
241
330
17
100
AcDbEntity
  8
TOP
100
AcDbLine
 10
2.154
 20
72.27868852459017
 30
0.0
 11
3.9719759999999997
 21
71.22679043210007
 31
0.0
  0
LINE
  5
242
330
17
100
AcDbEntity
  8
TOP
100
AcDbLine
 10
4.644024
 20
71.22679043210007
 30
0.0
 11
6.462
 21
72.27868852459017
 31
0.0
  0
LINE
  5
243
330
17
100
AcDbEntity
  8
TOP
100
AcDbLine
 10
6.462
 20
72.27868852459017
 30
0.0
 11
8.279976
 21
71.22679043210007
 31
0.0
  0
LINE
  5
244
330
17
100
AcDbEntity
  8
TOP
100
AcDbLine
 10
8.952024
 20
71.22679043210007
 30
0.0
 11
10.77
 21
72.27868852459017
 31
0.0
  0
LINE
  5
245
330
17
100
AcDbEntity
  8
TOP
100
AcDbLine
 10
10.77
 20
72.27868852459017
 30
0.0
 11
12.587976
 21
71.22679043210007
 31
0.0
  0
LINE
  5
246
330
17
100
AcDbEntity
  8
TOP
100
AcDbLine
 10
13.260024
 20
71.22679043210007
 30
0.0
 11
15.078
 21
72.27868852459017
 31
0.0
  0
LINE
  5
247
330
17
100
AcDbEntity
  8
TOP
100
AcDbLine
 10
15.078
 20
72.27868852459017
 30
0.0
 11
16.895976
 21
71.22679043210007
 31
0.0
  0
LINE
  5
248
330
17
100
AcDbEntity
  8
TOP
100
AcDbLine
 10
17.568023999999998
 20
71.22679043210007
 30
0.0
 11
19.386
 21
72.27868852459017
 31
0.0
  0
LINE
  5
249
330
17
100
AcDbEntity
  8
TOP
100
AcDbLine
 10
19.386
 20
72.27868852459017
 30
0.0
 11
21.203976
 21
71.22679043210007
 31
0.0
  0
LINE
  5
24A
330
17
100
AcDbEntity
  8
TOP
100
AcDbLine
 10
0.0
 20
73.52459016393443
 30
0.0
 11
1.8179759999999998
 21
72.47269207144434
 31
0.0
  0
LINE
  5
24B
330
17
100
AcDbEntity
  8
TOP
100
AcDbLine
 10
2.490024
 20
72.47269207144434
 30
0.0
 11
4.308
 21
73.52459016393443
 31
0.0
  0
LINE
  5
24C
330
17
100
AcDbEntity
  8
TOP
100
AcDbLine
 10
4.308
 20
73.52459016393443
 30
0.0
 11
6.125976
 21
72.47269207144434
 31
0.0
  0
LINE
  5
24D
330
17
100
AcDbEntity
  8
TOP
100
AcDbLine
 10
6.798024
 20
72.47269207144434
 30
0.0
 11
8.616
 21
73.52459016393443
 31
0.0
  0
LINE
  5
24E
330
17
100
AcDbEntity
  8
TOP
100
AcDbLine
 10
8.616
 20
73.52459016393443
 30
0.0
 11
10.433976
 21
72.47269207144434
 31
0.0
  0
LINE
  5
24F
330
17
100
AcDbEntity
  8
TOP
100
AcDbLine
 10
11.106024
 20
72.47269207144434
 30
0.0
 11
12.924
 21
73.52459016393443
 31
0.0
  0
LINE
  5
250
330
17
100
AcDbEntity
  8
TOP
100
AcDbLine
 10
12.924
 20
73.52459016393443
 30
0.0
 11
14.741976
 21
72.47269207144434
 31
0.0
  0
LINE
  5
251
330
17
100
AcDbEntity
  8
TOP
100
AcDbLine
 10
15.414024
 20
72.47269207144434
 30
0.0
 11
17.232
 21
73.52459016393443
 31
0.0
  0
LINE
  5
252
330
17
100
AcDbEntity
  8
TOP
100
AcDbLine
 10
17.232
 20
73.52459016393443
 30
0.0
 11
19.049976
 21
72.47269207144434
 31
0.0
  0
LINE
  5
253
330
17
100
AcDbEntity
  8
TOP
100
AcDbLine
 10
19.722023999999998
 20
72.47269207144434
 30
0.0
 11
21.54
 21
73.52459016393443
 31
0.0
  0
LINE
  5
254
330
17
100
AcDbEntity
  8
TOP
100
AcDbLine
 10
0.336024
 20
73.71859371078861
 30
0.0
 11
2.154
 21
74.77049180327869
 31
0.0
  0
LINE
  5
255
330
17
100
AcDbEntity
  8
TOP
100
AcDbLine
 10
2.154
 20
74.77049180327869
 30
0.0
 11
3.9719759999999997
 21
73.71859371078861
 31
0.0
  0
LINE
  5
256
330
17
100
AcDbEntity
  8
TOP
100
AcDbLine
 10
4.644024
 20
73.71859371078861
 30
0.0
 11
6.462
 21
74.77049180327869
 31
0.0
  0
LINE
  5
257
330
17
100
AcDbEntity
  8
TOP
100
AcDbLine
 10
6.462
 20
74.77049180327869
 30
0.0
 11
8.279976
 21
73.71859371078861
 31
0.0
  0
LINE
  5
258
330
17
100
AcDbEntity
  8
TOP
100
AcDbLine
 10
8.952024
 20
73.71859371078861
 30
0.0
 11
10.77
 21
74.77049180327869
 31
0.0
  0
LINE
  5
259
330
17
100
AcDbEntity
  8
TOP
100
AcDbLine
 10
10.77
 20
74.77049180327869
 30
0.0
 11
12.587976
 21
73.71859371078861
 31
0.0
  0
LINE
  5
25A
330
17
100
AcDbEntity
  8
TOP
100
AcDbLine
 10
13.260024
 20
73.71859371078861
 30
0.0
 11
15.078
 21
74.77049180327869
 31
0.0
  0
LINE
  5
25B
330
17
100
AcDbEntity
  8
TOP
100
AcDbLine
 10
15.078
 20
74.77049180327869
 30
0.0
 11
16.895976
 21
73.71859371078861
 31
0.0
  0
LINE
  5
25C
330
17
100
AcDbEntity
  8
TOP
100
AcDbLine
 10
17.568023999999998
 20
73.71859371078861
 30
0.0
 11
19.386
 21
74.77049180327869
 31
0.0
  0
LINE
  5
25D
330
17
100
AcDbEntity
  8
TOP
100
AcDbLine
 10
19.386
 20
74.77049180327869
 30
0.0
 11
21.203976
 21
73.71859371078861
 31
0.0
  0
LINE
  5
25E
330
17
100
AcDbEntity
  8
TOP
100
AcDbLine
 10
0.0
 20
76.01639344262296
 30
0.0
 11
1.8179759999999998
 21
74.96449535013286
 31
0.0
  0
LINE
  5
25F
330
17
100
AcDbEntity
  8
TOP
100
AcDbLine
 10
2.490024
 20
74.96449535013286
 30
0.0
 11
4.308
 21
76.01639344262296
 31
0.0
  0
LINE
  5
260
330
17
100
AcDbEntity
  8
TOP
100
AcDbLine
 10
4.308
 20
76.01639344262296
 30
0.0
 11
6.125976
 21
74.96449535013286
 31
0.0
  0
LINE
  5
261
330
17
100
AcDbEntity
  8
TOP
100
AcDbLine
 10
6.798024
 20
74.96449535013286
 30
0.0
 11
8.616
 21
76.01639344262296
 31
0.0
  0
LINE
  5
262
330
17
100
AcDbEntity
  8
TOP
100
AcDbLine
 10
8.616
 20
76.01639344262296
 30
0.0
 11
10.433976
 21
74.96449535013286
 31
0.0
  0
LINE
  5
263
330
17
100
AcDbEntity
  8
TOP
100
AcDbLine
 10
11.106024
 20
74.96449535013286
 30
0.0
 11
12.924
 21
76.01639344262296
 31
0.0
  0
LINE
  5
264
330
17
100
AcDbEntity
  8
TOP
100
AcDbLine
 10
12.924
 20
76.01639344262296
 30
0.0
 11
14.741976
 21
74.96449535013286
 31
0.0
  0
LINE
  5
265
330
17
100
AcDbEntity
  8
TOP
100
AcDbLine
 10
15.414024
 20
74.96449535013286
 30
0.0
 11
17.232
 21
76.01639344262296
 31
0.0
  0
LINE
  5
266
330
17
100
AcDbEntity
  8
TOP
100
AcDbLine
 10
17.232
 20
76.01639344262296
 30
0.0
 11
19.049976
 21
74.96449535013286
 31
0.0
  0
LINE
  5
267
330
17
100
AcDbEntity
  8
TOP
100
AcDbLine
 10
19.722023999999998
 20
74.96449535013286
 30
0.0
 11
21.54
 21
76.01639344262296
 31
0.0
  0
LINE
  5
268
330
17
100
AcDbEntity
  8
TOP
100
AcDbLine
 10
0.336024
 20
76.21039698947713
 30
0.0
 11
2.154
 21
77.26229508196721
 31
0.0
  0
LINE
  5
269
330
17
100
AcDbEntity
  8
TOP
100
AcDbLine
 10
2.154
 20
77.26229508196721
 30
0.0
 11
3.9719759999999997
 21
76.21039698947713
 31
0.0
  0
LINE
  5
26A
330
17
100
AcDbEntity
  8
TOP
100
AcDbLine
 10
4.644024
 20
76.21039698947713
 30
0.0
 11
6.462
 21
77.26229508196721
 31
0.0
  0
LINE
  5
26B
330
17
100
AcDbEntity
  8
TOP
100
AcDbLine
 10
6.462
 20
77.26229508196721
 30
0.0
 11
8.279976
 21
76.21039698947713
 31
0.0
  0
LINE
  5
26C
330
17
100
AcDbEntity
  8
TOP
100
AcDbLine
 10
8.952024
 20
76.21039698947713
 30
0.0
 11
10.77
 21
77.26229508196721
 31
0.0
  0
LINE
  5
26D
330
17
100
AcDbEntity
  8
TOP
100
AcDbLine
 10
10.77
 20
77.26229508196721
 30
0.0
 11
12.587976
 21
76.21039698947713
 31
0.0
  0
LINE
  5
26E
330
17
100
AcDbEntity
  8
TOP
100
AcDbLine
 10
13.260024
 20
76.21039698947713
 30
0.0
 11
15.078
 21
77.26229508196721
 31
0.0
  0
LINE
  5
26F
330
17
100
AcDbEntity
  8
TOP
100
AcDbLine
 10
15.078
 20
77.26229508196721
 30
0.0
 11
16.895976
 21
76.21039698947713
 31
0.0
  0
LINE
  5
270
330
17
100
AcDbEntity
  8
TOP
100
AcDbLine
 10
17.568023999999998
 20
76.21039698947713
 30
0.0
 11
19.386
 21
77.26229508196721
 31
0.0
  0
LINE
  5
271
330
17
100
AcDbEntity
  8
TOP
100
AcDbLine
 10
19.386
 20
77.26229508196721
 30
0.0
 11
21.203976
 21
76.21039698947713
 31
0.0
  0
LINE
  5
272
330
17
100
AcDbEntity
  8
TOP
100
AcDbLine
 10
0.0
 20
78.50819672131148
 30
0.0
 11
1.8179759999999998
 21
77.45629862882139
 31
0.0
  0
LINE
  5
273
330
17
100
AcDbEntity
  8
TOP
100
AcDbLine
 10
2.490024
 20
77.45629862882139
 30
0.0
 11
4.308
 21
78.50819672131148
 31
0.0
  0
LINE
  5
274
330
17
100
AcDbEntity
  8
TOP
100
AcDbLine
 10
4.308
 20
78.50819672131148
 30
0.0
 11
6.125976
 21
77.45629862882139
 31
0.0
  0
LINE
  5
275
330
17
100
AcDbEntity
  8
TOP
100
AcDbLine
 10
6.798024
 20
77.45629862882139
 30
0.0
 11
8.616
 21
78.50819672131148
 31
0.0
  0
LINE
  5
276
330
17
100
AcDbEntity
  8
TOP
100
AcDbLine
 10
8.616
 20
78.50819672131148
 30
0.0
 11
10.433976
 21
77.45629862882139
 31
0.0
  0
LINE
  5
277
330
17
100
AcDbEntity
  8
TOP
100
AcDbLine
 10
11.106024
 20
77.45629862882139
 30
0.0
 11
12.924
 21
78.50819672131148
 31
0.0
  0
LINE
  5
278
330
17
100
AcDbEntity
  8
TOP
100
AcDbLine
 10
12.924
 20
78.50819672131148
 30
0.0
 11
14.741976
 21
77.45629862882139
 31
0.0
  0
LINE
  5
279
330
17
100
AcDbEntity
  8
TOP
100
AcDbLine
 10
15.414024
 20
77.45629862882139
 30
0.0
 11
17.232
 21
78.50819672131148
 31
0.0
  0
LINE
  5
27A
330
17
100
AcDbEntity
  8
TOP
100
AcDbLine
 10
17.232
 20
78.50819672131148
 30
0.0
 11
19.049976
 21
77.45629862882139
 31
0.0
  0
LINE
  5
27B
330
17
100
AcDbEntity
  8
TOP
100
AcDbLine
 10
19.722023999999998
 20
77.45629862882139
 30
0.0
 11
21.54
 21
78.50819672131148
 31
0.0
  0
LINE
  5
27C
330
17
100
AcDbEntity
  8
TOP
100
AcDbLine
 10
0.336024
 20
78.70220026816565
 30
0.0
 11
2.154
 21
79.75409836065575
 31
0.0
  0
LINE
  5
27D
330
17
100
AcDbEntity
  8
TOP
100
AcDbLine
 10
2.154
 20
79.75409836065575
 30
0.0
 11
3.9719759999999997
 21
78.70220026816565
 31
0.0
  0
LINE
  5
27E
330
17
100
AcDbEntity
  8
TOP
100
AcDbLine
 10
4.644024
 20
78.70220026816565
 30
0.0
 11
6.462
 21
79.75409836065575
 31
0.0
  0
LINE
  5
27F
330
17
100
AcDbEntity
  8
TOP
100
AcDbLine
 10
6.462
 20
79.75409836065575
 30
0.0
 11
8.279976
 21
78.70220026816565
 31
0.0
  0
LINE
  5
280
330
17
100
AcDbEntity
  8
TOP
100
AcDbLine
 10
8.952024
 20
78.70220026816565
 30
0.0
 11
10.77
 21
79.75409836065575
 31
0.0
  0
LINE
  5
281
330
17
100
AcDbEntity
  8
TOP
100
AcDbLine
 10
10.77
 20
79.75409836065575
 30
0.0
 11
12.587976
 21
78.70220026816565
 31
0.0
  0
LINE
  5
282
330
17
100
AcDbEntity
  8
TOP
100
AcDbLine
 10
13.260024
 20
78.70220026816565
 30
0.0
 11
15.078
 21
79.75409836065575
 31
0.0
  0
LINE
  5
283
330
17
100
AcDbEntity
  8
TOP
100
AcDbLine
 10
15.078
 20
79.75409836065575
 30
0.0
 11
16.895976
 21
78.70220026816565
 31
0.0
  0
LINE
  5
284
330
17
100
AcDbEntity
  8
TOP
100
AcDbLine
 10
17.568023999999998
 20
78.70220026816565
 30
0.0
 11
19.386
 21
79.75409836065575
 31
0.0
  0
LINE
  5
285
330
17
100
AcDbEntity
  8
TOP
100
AcDbLine
 10
19.386
 20
79.75409836065575
 30
0.0
 11
21.203976
 21
78.70220026816565
 31
0.0
  0
LINE
  5
286
330
17
100
AcDbEntity
  8
TOP
100
AcDbLine
 10
0.0
 20
81.0
 30
0.0
 11
1.8179759999999998
 21
79.94810190750992
 31
0.0
  0
LINE
  5
287
330
17
100
AcDbEntity
  8
TOP
100
AcDbLine
 10
2.490024
 20
79.94810190750992
 30
0.0
 11
4.308
 21
81.0
 31
0.0
  0
LINE
  5
288
330
17
100
AcDbEntity
  8
TOP
100
AcDbLine
 10
4.308
 20
81.0
 30
0.0
 11
6.125976
 21
79.94810190750992
 31
0.0
  0
LINE
  5
289
330
17
100
AcDbEntity
  8
TOP
100
AcDbLine
 10
6.798024
 20
79.94810190750992
 30
0.0
 11
8.616
 21
81.0
 31
0.0
  0
LINE
  5
28A
330
17
100
AcDbEntity
  8
TOP
100
AcDbLine
 10
8.616
 20
81.0
 30
0.0
 11
10.433976
 21
79.94810190750992
 31
0.0
  0
LINE
  5
28B
330
17
100
AcDbEntity
  8
TOP
100
AcDbLine
 10
11.106024
 20
79.94810190750992
 30
0.0
 11
12.924
 21
81.0
 31
0.0
  0
LINE
  5
28C
330
17
100
AcDbEntity
  8
TOP
100
AcDbLine
 10
12.924
 20
81.0
 30
0.0
 11
14.741976
 21
79.94810190750992
 31
0.0
  0
LINE
  5
28D
330
17
100
AcDbEntity
  8
TOP
100
AcDbLine
 10
15.414024
 20
79.94810190750992
 30
0.0
 11
17.232
 21
81.0
 31
0.0
  0
LINE
  5
28E
330
17
100
AcDbEntity
  8
TOP
100
AcDbLine
 10
17.232
 20
81.0
 30
0.0
 11
19.049976
 21
79.94810190750992
 31
0.0
  0
LINE
  5
28F
330
17
100
AcDbEntity
  8
TOP
100
AcDbLine
 10
19.722023999999998
 20
79.94810190750992
 30
0.0
 11
21.54
 21
81.0
 31
0.0
  0
LINE
  5
290
330
17
100
AcDbEntity
  8
TOP
100
AcDbLine
 10
0.336024
 20
81.19400354685418
 30
0.0
 11
2.154
 21
82.24590163934427
 31
0.0
  0
LINE
  5
291
330
17
100
AcDbEntity
  8
TOP
100
AcDbLine
 10
2.154
 20
82.24590163934427
 30
0.0
 11
3.9719759999999997
 21
81.19400354685418
 31
0.0
  0
LINE
  5
292
330
17
100
AcDbEntity
  8
TOP
100
AcDbLine
 10
4.644024
 20
81.19400354685418
 30
0.0
 11
6.462
 21
82.24590163934427
 31
0.0
  0
LINE
  5
293
330
17
100
AcDbEntity
  8
TOP
100
AcDbLine
 10
6.462
 20
82.24590163934427
 30
0.0
 11
8.279976
 21
81.19400354685418
 31
0.0
  0
LINE
  5
294
330
17
100
AcDbEntity
  8
TOP
100
AcDbLine
 10
8.952024
 20
81.19400354685418
 30
0.0
 11
10.77
 21
82.24590163934427
 31
0.0
  0
LINE
  5
295
330
17
100
AcDbEntity
  8
TOP
100
AcDbLine
 10
10.77
 20
82.24590163934427
 30
0.0
 11
12.587976
 21
81.19400354685418
 31
0.0
  0
LINE
  5
296
330
17
100
AcDbEntity
  8
TOP
100
AcDbLine
 10
13.260024
 20
81.19400354685418
 30
0.0
 11
15.078
 21
82.24590163934427
 31
0.0
  0
LINE
  5
297
330
17
100
AcDbEntity
  8
TOP
100
AcDbLine
 10
15.078
 20
82.24590163934427
 30
0.0
 11
16.895976
 21
81.19400354685418
 31
0.0
  0
LINE
  5
298
330
17
100
AcDbEntity
  8
TOP
100
AcDbLine
 10
17.568023999999998
 20
81.19400354685418
 30
0.0
 11
19.386
 21
82.24590163934427
 31
0.0
  0
LINE
  5
299
330
17
100
AcDbEntity
  8
TOP
100
AcDbLine
 10
19.386
 20
82.24590163934427
 30
0.0
 11
21.203976
 21
81.19400354685418
 31
0.0
  0
LINE
  5
29A
330
17
100
AcDbEntity
  8
TOP
100
AcDbLine
 10
0.0
 20
83.49180327868852
 30
0.0
 11
1.8179759999999998
 21
82.43990518619844
 31
0.0
  0
LINE
  5
29B
330
17
100
AcDbEntity
  8
TOP
100
AcDbLine
 10
2.490024
 20
82.43990518619844
 30
0.0
 11
4.308
 21
83.49180327868852
 31
0.0
  0
LINE
  5
29C
330
17
100
AcDbEntity
  8
TOP
100
AcDbLine
 10
4.308
 20
83.49180327868852
 30
0.0
 11
6.125976
 21
82.43990518619844
 31
0.0
  0
LINE
  5
29D
330
17
100
AcDbEntity
  8
TOP
100
AcDbLine
 10
6.798024
 20
82.43990518619844
 30
0.0
 11
8.616
 21
83.49180327868852
 31
0.0
  0
LINE
  5
29E
330
17
100
AcDbEntity
  8
TOP
100
AcDbLine
 10
8.616
 20
83.49180327868852
 30
0.0
 11
10.433976
 21
82.43990518619844
 31
0.0
  0
LINE
  5
29F
330
17
100
AcDbEntity
  8
TOP
100
AcDbLine
 10
11.106024
 20
82.43990518619844
 30
0.0
 11
12.924
 21
83.49180327868852
 31
0.0
  0
LINE
  5
2A0
330
17
100
AcDbEntity
  8
TOP
100
AcDbLine
 10
12.924
 20
83.49180327868852
 30
0.0
 11
14.741976
 21
82.43990518619844
 31
0.0
  0
LINE
  5
2A1
330
17
100
AcDbEntity
  8
TOP
100
AcDbLine
 10
15.414024
 20
82.43990518619844
 30
0.0
 11
17.232
 21
83.49180327868852
 31
0.0
  0
LINE
  5
2A2
330
17
100
AcDbEntity
  8
TOP
100
AcDbLine
 10
17.232
 20
83.49180327868852
 30
0.0
 11
19.049976
 21
82.43990518619844
 31
0.0
  0
LINE
  5
2A3
330
17
100
AcDbEntity
  8
TOP
100
AcDbLine
 10
19.722023999999998
 20
82.43990518619844
 30
0.0
 11
21.54
 21
83.49180327868852
 31
0.0
  0
LINE
  5
2A4
330
17
100
AcDbEntity
  8
TOP
100
AcDbLine
 10
0.336024
 20
83.6858068255427
 30
0.0
 11
2.154
 21
84.73770491803279
 31
0.0
  0
LINE
  5
2A5
330
17
100
AcDbEntity
  8
TOP
100
AcDbLine
 10
2.154
 20
84.73770491803279
 30
0.0
 11
3.9719759999999997
 21
83.6858068255427
 31
0.0
  0
LINE
  5
2A6
330
17
100
AcDbEntity
  8
TOP
100
AcDbLine
 10
4.644024
 20
83.6858068255427
 30
0.0
 11
6.462
 21
84.73770491803279
 31
0.0
  0
LINE
  5
2A7
330
17
100
AcDbEntity
  8
TOP
100
AcDbLine
 10
6.462
 20
84.73770491803279
 30
0.0
 11
8.279976
 21
83.6858068255427
 31
0.0
  0
LINE
  5
2A8
330
17
100
AcDbEntity
  8
TOP
100
AcDbLine
 10
8.952024
 20
83.6858068255427
 30
0.0
 11
10.77
 21
84.73770491803279
 31
0.0
  0
LINE
  5
2A9
330
17
100
AcDbEntity
  8
TOP
100
AcDbLine
 10
10.77
 20
84.73770491803279
 30
0.0
 11
12.587976
 21
83.6858068255427
 31
0.0
  0
LINE
  5
2AA
330
17
100
AcDbEntity
  8
TOP
100
AcDbLine
 10
13.260024
 20
83.6858068255427
 30
0.0
 11
15.078
 21
84.73770491803279
 31
0.0
  0
LINE
  5
2AB
330
17
100
AcDbEntity
  8
TOP
100
AcDbLine
 10
15.078
 20
84.73770491803279
 30
0.0
 11
16.895976
 21
83.6858068255427
 31
0.0
  0
LINE
  5
2AC
330
17
100
AcDbEntity
  8
TOP
100
AcDbLine
 10
17.568023999999998
 20
83.6858068255427
 30
0.0
 11
19.386
 21
84.73770491803279
 31
0.0
  0
LINE
  5
2AD
330
17
100
AcDbEntity
  8
TOP
100
AcDbLine
 10
19.386
 20
84.73770491803279
 30
0.0
 11
21.203976
 21
83.6858068255427
 31
0.0
  0
LINE
  5
2AE
330
17
100
AcDbEntity
  8
TOP
100
AcDbLine
 10
0.0
 20
85.98360655737706
 30
0.0
 11
1.8179759999999998
 21
84.93170846488697
 31
0.0
  0
LINE
  5
2AF
330
17
100
AcDbEntity
  8
TOP
100
AcDbLine
 10
2.490024
 20
84.93170846488697
 30
0.0
 11
4.308
 21
85.98360655737706
 31
0.0
  0
LINE
  5
2B0
330
17
100
AcDbEntity
  8
TOP
100
AcDbLine
 10
4.308
 20
85.98360655737706
 30
0.0
 11
6.125976
 21
84.93170846488697
 31
0.0
  0
LINE
  5
2B1
330
17
100
AcDbEntity
  8
TOP
100
AcDbLine
 10
6.798024
 20
84.93170846488697
 30
0.0
 11
8.616
 21
85.98360655737706
 31
0.0
  0
LINE
  5
2B2
330
17
100
AcDbEntity
  8
TOP
100
AcDbLine
 10
8.616
 20
85.98360655737706
 30
0.0
 11
10.433976
 21
84.93170846488697
 31
0.0
  0
LINE
  5
2B3
330
17
100
AcDbEntity
  8
TOP
100
AcDbLine
 10
11.106024
 20
84.93170846488697
 30
0.0
 11
12.924
 21
85.98360655737706
 31
0.0
  0
LINE
  5
2B4
330
17
100
AcDbEntity
  8
TOP
100
AcDbLine
 10
12.924
 20
85.98360655737706
 30
0.0
 11
14.741976
 21
84.93170846488697
 31
0.0
  0
LINE
  5
2B5
330
17
100
AcDbEntity
  8
TOP
100
AcDbLine
 10
15.414024
 20
84.93170846488697
 30
0.0
 11
17.232
 21
85.98360655737706
 31
0.0
  0
LINE
  5
2B6
330
17
100
AcDbEntity
  8
TOP
100
AcDbLine
 10
17.232
 20
85.98360655737706
 30
0.0
 11
19.049976
 21
84.93170846488697
 31
0.0
  0
LINE
  5
2B7
330
17
100
AcDbEntity
  8
TOP
100
AcDbLine
 10
19.722023999999998
 20
84.93170846488697
 30
0.0
 11
21.54
 21
85.98360655737706
 31
0.0
  0
LINE
  5
2B8
330
17
100
AcDbEntity
  8
TOP
100
AcDbLine
 10
0.336024
 20
86.17761010423123
 30
0.0
 11
2.154
 21
87.22950819672131
 31
0.0
  0
LINE
  5
2B9
330
17
100
AcDbEntity
  8
TOP
100
AcDbLine
 10
2.154
 20
87.22950819672131
 30
0.0
 11
3.9719759999999997
 21
86.17761010423123
 31
0.0
  0
LINE
  5
2BA
330
17
100
AcDbEntity
  8
TOP
100
AcDbLine
 10
4.644024
 20
86.17761010423123
 30
0.0
 11
6.462
 21
87.22950819672131
 31
0.0
  0
LINE
  5
2BB
330
17
100
AcDbEntity
  8
TOP
100
AcDbLine
 10
6.462
 20
87.22950819672131
 30
0.0
 11
8.279976
 21
86.17761010423123
 31
0.0
  0
LINE
  5
2BC
330
17
100
AcDbEntity
  8
TOP
100
AcDbLine
 10
8.952024
 20
86.17761010423123
 30
0.0
 11
10.77
 21
87.22950819672131
 31
0.0
  0
LINE
  5
2BD
330
17
100
AcDbEntity
  8
TOP
100
AcDbLine
 10
10.77
 20
87.22950819672131
 30
0.0
 11
12.587976
 21
86.17761010423123
 31
0.0
  0
LINE
  5
2BE
330
17
100
AcDbEntity
  8
TOP
100
AcDbLine
 10
13.260024
 20
86.17761010423123
 30
0.0
 11
15.078
 21
87.22950819672131
 31
0.0
  0
LINE
  5
2BF
330
17
100
AcDbEntity
  8
TOP
100
AcDbLine
 10
15.078
 20
87.22950819672131
 30
0.0
 11
16.895976
 21
86.17761010423123
 31
0.0
  0
LINE
  5
2C0
330
17
100
AcDbEntity
  8
TOP
100
AcDbLine
 10
17.568023999999998
 20
86.17761010423123
 30
0.0
 11
19.386
 21
87.22950819672131
 31
0.0
  0
LINE
  5
2C1
330
17
100
AcDbEntity
  8
TOP
100
AcDbLine
 10
19.386
 20
87.22950819672131
 30
0.0
 11
21.203976
 21
86.17761010423123
 31
0.0
  0
LINE
  5
2C2
330
17
100
AcDbEntity
  8
TOP
100
AcDbLine
 10
0.0
 20
88.47540983606558
 30
0.0
 11
1.8179759999999998
 21
87.42351174357549
 31
0.0
  0
LINE
  5
2C3
330
17
100
AcDbEntity
  8
TOP
100
AcDbLine
 10
2.490024
 20
87.42351174357549
 30
0.0
 11
4.308
 21
88.47540983606558
 31
0.0
  0
LINE
  5
2C4
330
17
100
AcDbEntity
  8
TOP
100
AcDbLine
 10
4.308
 20
88.47540983606558
 30
0.0
 11
6.125976
 21
87.42351174357549
 31
0.0
  0
LINE
  5
2C5
330
17
100
AcDbEntity
  8
TOP
100
AcDbLine
 10
6.798024
 20
87.42351174357549
 30
0.0
 11
8.616
 21
88.47540983606558
 31
0.0
  0
LINE
  5
2C6
330
17
100
AcDbEntity
  8
TOP
100
AcDbLine
 10
8.616
 20
88.47540983606558
 30
0.0
 11
10.433976
 21
87.42351174357549
 31
0.0
  0
LINE
  5
2C7
330
17
100
AcDbEntity
  8
TOP
100
AcDbLine
 10
11.106024
 20
87.42351174357549
 30
0.0
 11
12.924
 21
88.47540983606558
 31
0.0
  0
LINE
  5
2C8
330
17
100
AcDbEntity
  8
TOP
100
AcDbLine
 10
12.924
 20
88.47540983606558
 30
0.0
 11
14.741976
 21
87.42351174357549
 31
0.0
  0
LINE
  5
2C9
330
17
100
AcDbEntity
  8
TOP
100
AcDbLine
 10
15.414024
 20
87.42351174357549
 30
0.0
 11
17.232
 21
88.47540983606558
 31
0.0
  0
LINE
  5
2CA
330
17
100
AcDbEntity
  8
TOP
100
AcDbLine
 10
17.232
 20
88.47540983606558
 30
0.0
 11
19.049976
 21
87.42351174357549
 31
0.0
  0
LINE
  5
2CB
330
17
100
AcDbEntity
  8
TOP
100
AcDbLine
 10
19.722023999999998
 20
87.42351174357549
 30
0.0
 11
21.54
 21
88.47540983606558
 31
0.0
  0
LINE
  5
2CC
330
17
100
AcDbEntity
  8
TOP
100
AcDbLine
 10
0.336024
 20
88.66941338291976
 30
0.0
 11
2.154
 21
89.72131147540983
 31
0.0
  0
LINE
  5
2CD
330
17
100
AcDbEntity
  8
TOP
100
AcDbLine
 10
2.154
 20
89.72131147540983
 30
0.0
 11
3.9719759999999997
 21
88.66941338291976
 31
0.0
  0
LINE
  5
2CE
330
17
100
AcDbEntity
  8
TOP
100
AcDbLine
 10
4.644024
 20
88.66941338291976
 30
0.0
 11
6.462
 21
89.72131147540983
 31
0.0
  0
LINE
  5
2CF
330
17
100
AcDbEntity
  8
TOP
100
AcDbLine
 10
6.462
 20
89.72131147540983
 30
0.0
 11
8.279976
 21
88.66941338291976
 31
0.0
  0
LINE
  5
2D0
330
17
100
AcDbEntity
  8
TOP
100
AcDbLine
 10
8.952024
 20
88.66941338291976
 30
0.0
 11
10.77
 21
89.72131147540983
 31
0.0
  0
LINE
  5
2D1
330
17
100
AcDbEntity
  8
TOP
100
AcDbLine
 10
10.77
 20
89.72131147540983
 30
0.0
 11
12.587976
 21
88.66941338291976
 31
0.0
  0
LINE
  5
2D2
330
17
100
AcDbEntity
  8
TOP
100
AcDbLine
 10
13.260024
 20
88.66941338291976
 30
0.0
 11
15.078
 21
89.72131147540983
 31
0.0
  0
LINE
  5
2D3
330
17
100
AcDbEntity
  8
TOP
100
AcDbLine
 10
15.078
 20
89.72131147540983
 30
0.0
 11
16.895976
 21
88.66941338291976
 31
0.0
  0
LINE
  5
2D4
330
17
100
AcDbEntity
  8
TOP
100
AcDbLine
 10
17.568023999999998
 20
88.66941338291976
 30
0.0
 11
19.386
 21
89.72131147540983
 31
0.0
  0
LINE
  5
2D5
330
17
100
AcDbEntity
  8
TOP
100
AcDbLine
 10
19.386
 20
89.72131147540983
 30
0.0
 11
21.203976
 21
88.66941338291976
 31
0.0
  0
LINE
  5
2D6
330
17
100
AcDbEntity
  8
TOP
100
AcDbLine
 10
0.0
 20
90.9672131147541
 30
0.0
 11
1.8179759999999998
 21
89.91531502226401
 31
0.0
  0
LINE
  5
2D7
330
17
100
AcDbEntity
  8
TOP
100
AcDbLine
 10
2.490024
 20
89.91531502226401
 30
0.0
 11
4.308
 21
90.9672131147541
 31
0.0
  0
LINE
  5
2D8
330
17
100
AcDbEntity
  8
TOP
100
AcDbLine
 10
4.308
 20
90.9672131147541
 30
0.0
 11
6.125976
 21
89.91531502226401
 31
0.0
  0
LINE
  5
2D9
330
17
100
AcDbEntity
  8
TOP
100
AcDbLine
 10
6.798024
 20
89.91531502226401
 30
0.0
 11
8.616
 21
90.9672131147541
 31
0.0
  0
LINE
  5
2DA
330
17
100
AcDbEntity
  8
TOP
100
AcDbLine
 10
8.616
 20
90.9672131147541
 30
0.0
 11
10.433976
 21
89.91531502226401
 31
0.0
  0
LINE
  5
2DB
330
17
100
AcDbEntity
  8
TOP
100
AcDbLine
 10
11.106024
 20
89.91531502226401
 30
0.0
 11
12.924
 21
90.9672131147541
 31
0.0
  0
LINE
  5
2DC
330
17
100
AcDbEntity
  8
TOP
100
AcDbLine
 10
12.924
 20
90.9672131147541
 30
0.0
 11
14.741976
 21
89.91531502226401
 31
0.0
  0
LINE
  5
2DD
330
17
100
AcDbEntity
  8
TOP
100
AcDbLine
 10
15.414024
 20
89.91531502226401
 30
0.0
 11
17.232
 21
90.9672131147541
 31
0.0
  0
LINE
  5
2DE
330
17
100
AcDbEntity
  8
TOP
100
AcDbLine
 10
17.232
 20
90.9672131147541
 30
0.0
 11
19.049976
 21
89.91531502226401
 31
0.0
  0
LINE
  5
2DF
330
17
100
AcDbEntity
  8
TOP
100
AcDbLine
 10
19.722023999999998
 20
89.91531502226401
 30
0.0
 11
21.54
 21
90.9672131147541
 31
0.0
  0
LINE
  5
2E0
330
17
100
AcDbEntity
  8
TOP
100
AcDbLine
 10
0.336024
 20
91.16121666160828
 30
0.0
 11
2.154
 21
92.21311475409837
 31
0.0
  0
LINE
  5
2E1
330
17
100
AcDbEntity
  8
TOP
100
AcDbLine
 10
2.154
 20
92.21311475409837
 30
0.0
 11
3.9719759999999997
 21
91.16121666160828
 31
0.0
  0
LINE
  5
2E2
330
17
100
AcDbEntity
  8
TOP
100
AcDbLine
 10
4.644024
 20
91.16121666160828
 30
0.0
 11
6.462
 21
92.21311475409837
 31
0.0
  0
LINE
  5
2E3
330
17
100
AcDbEntity
  8
TOP
100
AcDbLine
 10
6.462
 20
92.21311475409837
 30
0.0
 11
8.279976
 21
91.16121666160828
 31
0.0
  0
LINE
  5
2E4
330
17
100
AcDbEntity
  8
TOP
100
AcDbLine
 10
8.952024
 20
91.16121666160828
 30
0.0
 11
10.77
 21
92.21311475409837
 31
0.0
  0
LINE
  5
2E5
330
17
100
AcDbEntity
  8
TOP
100
AcDbLine
 10
10.77
 20
92.21311475409837
 30
0.0
 11
12.587976
 21
91.16121666160828
 31
0.0
  0
LINE
  5
2E6
330
17
100
AcDbEntity
  8
TOP
100
AcDbLine
 10
13.260024
 20
91.16121666160828
 30
0.0
 11
15.078
 21
92.21311475409837
 31
0.0
  0
LINE
  5
2E7
330
17
100
AcDbEntity
  8
TOP
100
AcDbLine
 10
15.078
 20
92.21311475409837
 30
0.0
 11
16.895976
 21
91.16121666160828
 31
0.0
  0
LINE
  5
2E8
330
17
100
AcDbEntity
  8
TOP
100
AcDbLine
 10
17.568023999999998
 20
91.16121666160828
 30
0.0
 11
19.386
 21
92.21311475409837
 31
0.0
  0
LINE
  5
2E9
330
17
100
AcDbEntity
  8
TOP
100
AcDbLine
 10
19.386
 20
92.21311475409837
 30
0.0
 11
21.203976
 21
91.16121666160828
 31
0.0
  0
LINE
  5
2EA
330
17
100
AcDbEntity
  8
TOP
100
AcDbLine
 10
0.0
 20
93.45901639344262
 30
0.0
 11
1.8179759999999998
 21
92.40711830095255
 31
0.0
  0
LINE
  5
2EB
330
17
100
AcDbEntity
  8
TOP
100
AcDbLine
 10
2.490024
 20
92.40711830095255
 30
0.0
 11
4.308
 21
93.45901639344262
 31
0.0
  0
LINE
  5
2EC
330
17
100
AcDbEntity
  8
TOP
100
AcDbLine
 10
4.308
 20
93.45901639344262
 30
0.0
 11
6.125976
 21
92.40711830095255
 31
0.0
  0
LINE
  5
2ED
330
17
100
AcDbEntity
  8
TOP
100
AcDbLine
 10
6.798024
 20
92.40711830095255
 30
0.0
 11
8.616
 21
93.45901639344262
 31
0.0
  0
LINE
  5
2EE
330
17
100
AcDbEntity
  8
TOP
100
AcDbLine
 10
8.616
 20
93.45901639344262
 30
0.0
 11
10.433976
 21
92.40711830095255
 31
0.0
  0
LINE
  5
2EF
330
17
100
AcDbEntity
  8
TOP
100
AcDbLine
 10
11.106024
 20
92.40711830095255
 30
0.0
 11
12.924
 21
93.45901639344262
 31
0.0
  0
LINE
  5
2F0
330
17
100
AcDbEntity
  8
TOP
100
AcDbLine
 10
12.924
 20
93.45901639344262
 30
0.0
 11
14.741976
 21
92.40711830095255
 31
0.0
  0
LINE
  5
2F1
330
17
100
AcDbEntity
  8
TOP
100
AcDbLine
 10
15.414024
 20
92.40711830095255
 30
0.0
 11
17.232
 21
93.45901639344262
 31
0.0
  0
LINE
  5
2F2
330
17
100
AcDbEntity
  8
TOP
100
AcDbLine
 10
17.232
 20
93.45901639344262
 30
0.0
 11
19.049976
 21
92.40711830095255
 31
0.0
  0
LINE
  5
2F3
330
17
100
AcDbEntity
  8
TOP
100
AcDbLine
 10
19.722023999999998
 20
92.40711830095255
 30
0.0
 11
21.54
 21
93.45901639344262
 31
0.0
  0
LINE
  5
2F4
330
17
100
AcDbEntity
  8
TOP
100
AcDbLine
 10
0.336024
 20
93.6530199402968
 30
0.0
 11
2.154
 21
94.70491803278689
 31
0.0
  0
LINE
  5
2F5
330
17
100
AcDbEntity
  8
TOP
100
AcDbLine
 10
2.154
 20
94.70491803278689
 30
0.0
 11
3.9719759999999997
 21
93.6530199402968
 31
0.0
  0
LINE
  5
2F6
330
17
100
AcDbEntity
  8
TOP
100
AcDbLine
 10
4.644024
 20
93.6530199402968
 30
0.0
 11
6.462
 21
94.70491803278689
 31
0.0
  0
LINE
  5
2F7
330
17
100
AcDbEntity
  8
TOP
100
AcDbLine
 10
6.462
 20
94.70491803278689
 30
0.0
 11
8.279976
 21
93.6530199402968
 31
0.0
  0
LINE
  5
2F8
330
17
100
AcDbEntity
  8
TOP
100
AcDbLine
 10
8.952024
 20
93.6530199402968
 30
0.0
 11
10.77
 21
94.70491803278689
 31
0.0
  0
LINE
  5
2F9
330
17
100
AcDbEntity
  8
TOP
100
AcDbLine
 10
10.77
 20
94.70491803278689
 30
0.0
 11
12.587976
 21
93.6530199402968
 31
0.0
  0
LINE
  5
2FA
330
17
100
AcDbEntity
  8
TOP
100
AcDbLine
 10
13.260024
 20
93.6530199402968
 30
0.0
 11
15.078
 21
94.70491803278689
 31
0.0
  0
LINE
  5
2FB
330
17
100
AcDbEntity
  8
TOP
100
AcDbLine
 10
15.078
 20
94.70491803278689
 30
0.0
 11
16.895976
 21
93.6530199402968
 31
0.0
  0
LINE
  5
2FC
330
17
100
AcDbEntity
  8
TOP
100
AcDbLine
 10
17.568023999999998
 20
93.6530199402968
 30
0.0
 11
19.386
 21
94.70491803278689
 31
0.0
  0
LINE
  5
2FD
330
17
100
AcDbEntity
  8
TOP
100
AcDbLine
 10
19.386
 20
94.70491803278689
 30
0.0
 11
21.203976
 21
93.6530199402968
 31
0.0
  0
LINE
  5
2FE
330
17
100
AcDbEntity
  8
TOP
100
AcDbLine
 10
0.0
 20
95.95081967213115
 30
0.0
 11
1.8179759999999998
 21
94.89892157964107
 31
0.0
  0
LINE
  5
2FF
330
17
100
AcDbEntity
  8
TOP
100
AcDbLine
 10
2.490024
 20
94.89892157964107
 30
0.0
 11
4.308
 21
95.95081967213115
 31
0.0
  0
LINE
  5
300
330
17
100
AcDbEntity
  8
TOP
100
AcDbLine
 10
4.308
 20
95.95081967213115
 30
0.0
 11
6.125976
 21
94.89892157964107
 31
0.0
  0
LINE
  5
301
330
17
100
AcDbEntity
  8
TOP
100
AcDbLine
 10
6.798024
 20
94.89892157964107
 30
0.0
 11
8.616
 21
95.95081967213115
 31
0.0
  0
LINE
  5
302
330
17
100
AcDbEntity
  8
TOP
100
AcDbLine
 10
8.616
 20
95.95081967213115
 30
0.0
 11
10.433976
 21
94.89892157964107
 31
0.0
  0
LINE
  5
303
330
17
100
AcDbEntity
  8
TOP
100
AcDbLine
 10
11.106024
 20
94.89892157964107
 30
0.0
 11
12.924
 21
95.95081967213115
 31
0.0
  0
LINE
  5
304
330
17
100
AcDbEntity
  8
TOP
100
AcDbLine
 10
12.924
 20
95.95081967213115
 30
0.0
 11
14.741976
 21
94.89892157964107
 31
0.0
  0
LINE
  5
305
330
17
100
AcDbEntity
  8
TOP
100
AcDbLine
 10
15.414024
 20
94.89892157964107
 30
0.0
 11
17.232
 21
95.95081967213115
 31
0.0
  0
LINE
  5
306
330
17
100
AcDbEntity
  8
TOP
100
AcDbLine
 10
17.232
 20
95.95081967213115
 30
0.0
 11
19.049976
 21
94.89892157964107
 31
0.0
  0
LINE
  5
307
330
17
100
AcDbEntity
  8
TOP
100
AcDbLine
 10
19.722023999999998
 20
94.89892157964107
 30
0.0
 11
21.54
 21
95.95081967213115
 31
0.0
  0
LINE
  5
308
330
17
100
AcDbEntity
  8
TOP
100
AcDbLine
 10
0.336024
 20
96.14482321898532
 30
0.0
 11
2.154
 21
97.19672131147541
 31
0.0
  0
LINE
  5
309
330
17
100
AcDbEntity
  8
TOP
100
AcDbLine
 10
2.154
 20
97.19672131147541
 30
0.0
 11
3.9719759999999997
 21
96.14482321898532
 31
0.0
  0
LINE
  5
30A
330
17
100
AcDbEntity
  8
TOP
100
AcDbLine
 10
4.644024
 20
96.14482321898532
 30
0.0
 11
6.462
 21
97.19672131147541
 31
0.0
  0
LINE
  5
30B
330
17
100
AcDbEntity
  8
TOP
100
AcDbLine
 10
6.462
 20
97.19672131147541
 30
0.0
 11
8.279976
 21
96.14482321898532
 31
0.0
  0
LINE
  5
30C
330
17
100
AcDbEntity
  8
TOP
100
AcDbLine
 10
8.952024
 20
96.14482321898532
 30
0.0
 11
10.77
 21
97.19672131147541
 31
0.0
  0
LINE
  5
30D
330
17
100
AcDbEntity
  8
TOP
100
AcDbLine
 10
10.77
 20
97.19672131147541
 30
0.0
 11
12.587976
 21
96.14482321898532
 31
0.0
  0
LINE
  5
30E
330
17
100
AcDbEntity
  8
TOP
100
AcDbLine
 10
13.260024
 20
96.14482321898532
 30
0.0
 11
15.078
 21
97.19672131147541
 31
0.0
  0
LINE
  5
30F
330
17
100
AcDbEntity
  8
TOP
100
AcDbLine
 10
15.078
 20
97.19672131147541
 30
0.0
 11
16.895976
 21
96.14482321898532
 31
0.0
  0
LINE
  5
310
330
17
100
AcDbEntity
  8
TOP
100
AcDbLine
 10
17.568023999999998
 20
96.14482321898532
 30
0.0
 11
19.386
 21
97.19672131147541
 31
0.0
  0
LINE
  5
311
330
17
100
AcDbEntity
  8
TOP
100
AcDbLine
 10
19.386
 20
97.19672131147541
 30
0.0
 11
21.203976
 21
96.14482321898532
 31
0.0
  0
LINE
  5
312
330
17
100
AcDbEntity
  8
TOP
100
AcDbLine
 10
0.0
 20
98.44262295081968
 30
0.0
 11
1.8179759999999998
 21
97.39072485832959
 31
0.0
  0
LINE
  5
313
330
17
100
AcDbEntity
  8
TOP
100
AcDbLine
 10
2.490024
 20
97.39072485832959
 30
0.0
 11
4.308
 21
98.44262295081968
 31
0.0
  0
LINE
  5
314
330
17
100
AcDbEntity
  8
TOP
100
AcDbLine
 10
4.308
 20
98.44262295081968
 30
0.0
 11
6.125976
 21
97.39072485832959
 31
0.0
  0
LINE
  5
315
330
17
100
AcDbEntity
  8
TOP
100
AcDbLine
 10
6.798024
 20
97.39072485832959
 30
0.0
 11
8.616
 21
98.44262295081968
 31
0.0
  0
LINE
  5
316
330
17
100
AcDbEntity
  8
TOP
100
AcDbLine
 10
8.616
 20
98.44262295081968
 30
0.0
 11
10.433976
 21
97.39072485832959
 31
0.0
  0
LINE
  5
317
330
17
100
AcDbEntity
  8
TOP
100
AcDbLine
 10
11.106024
 20
97.39072485832959
 30
0.0
 11
12.924
 21
98.44262295081968
 31
0.0
  0
LINE
  5
318
330
17
100
AcDbEntity
  8
TOP
100
AcDbLine
 10
12.924
 20
98.44262295081968
 30
0.0
 11
14.741976
 21
97.39072485832959
 31
0.0
  0
LINE
  5
319
330
17
100
AcDbEntity
  8
TOP
100
AcDbLine
 10
15.414024
 20
97.39072485832959
 30
0.0
 11
17.232
 21
98.44262295081968
 31
0.0
  0
LINE
  5
31A
330
17
100
AcDbEntity
  8
TOP
100
AcDbLine
 10
17.232
 20
98.44262295081968
 30
0.0
 11
19.049976
 21
97.39072485832959
 31
0.0
  0
LINE
  5
31B
330
17
100
AcDbEntity
  8
TOP
100
AcDbLine
 10
19.722023999999998
 20
97.39072485832959
 30
0.0
 11
21.54
 21
98.44262295081968
 31
0.0
  0
LINE
  5
31C
330
17
100
AcDbEntity
  8
TOP
100
AcDbLine
 10
0.336024
 20
98.63662649767386
 30
0.0
 11
2.154
 21
99.68852459016394
 31
0.0
  0
LINE
  5
31D
330
17
100
AcDbEntity
  8
TOP
100
AcDbLine
 10
2.154
 20
99.68852459016394
 30
0.0
 11
3.9719759999999997
 21
98.63662649767386
 31
0.0
  0
LINE
  5
31E
330
17
100
AcDbEntity
  8
TOP
100
AcDbLine
 10
4.644024
 20
98.63662649767386
 30
0.0
 11
6.462
 21
99.68852459016394
 31
0.0
  0
LINE
  5
31F
330
17
100
AcDbEntity
  8
TOP
100
AcDbLine
 10
6.462
 20
99.68852459016394
 30
0.0
 11
8.279976
 21
98.63662649767386
 31
0.0
  0
LINE
  5
320
330
17
100
AcDbEntity
  8
TOP
100
AcDbLine
 10
8.952024
 20
98.63662649767386
 30
0.0
 11
10.77
 21
99.68852459016394
 31
0.0
  0
LINE
  5
321
330
17
100
AcDbEntity
  8
TOP
100
AcDbLine
 10
10.77
 20
99.68852459016394
 30
0.0
 11
12.587976
 21
98.63662649767386
 31
0.0
  0
LINE
  5
322
330
17
100
AcDbEntity
  8
TOP
100
AcDbLine
 10
13.260024
 20
98.63662649767386
 30
0.0
 11
15.078
 21
99.68852459016394
 31
0.0
  0
LINE
  5
323
330
17
100
AcDbEntity
  8
TOP
100
AcDbLine
 10
15.078
 20
99.68852459016394
 30
0.0
 11
16.895976
 21
98.63662649767386
 31
0.0
  0
LINE
  5
324
330
17
100
AcDbEntity
  8
TOP
100
AcDbLine
 10
17.568023999999998
 20
98.63662649767386
 30
0.0
 11
19.386
 21
99.68852459016394
 31
0.0
  0
LINE
  5
325
330
17
100
AcDbEntity
  8
TOP
100
AcDbLine
 10
19.386
 20
99.68852459016394
 30
0.0
 11
21.203976
 21
98.63662649767386
 31
0.0
  0
LINE
  5
326
330
17
100
AcDbEntity
  8
TOP
100
AcDbLine
 10
0.0
 20
100.9344262295082
 30
0.0
 11
1.8179759999999998
 21
99.88252813701811
 31
0.0
  0
LINE
  5
327
330
17
100
AcDbEntity
  8
TOP
100
AcDbLine
 10
2.490024
 20
99.88252813701811
 30
0.0
 11
4.308
 21
100.9344262295082
 31
0.0
  0
LINE
  5
328
330
17
100
AcDbEntity
  8
TOP
100
AcDbLine
 10
4.308
 20
100.9344262295082
 30
0.0
 11
6.125976
 21
99.88252813701811
 31
0.0
  0
LINE
  5
329
330
17
100
AcDbEntity
  8
TOP
100
AcDbLine
 10
6.798024
 20
99.88252813701811
 30
0.0
 11
8.616
 21
100.9344262295082
 31
0.0
  0
LINE
  5
32A
330
17
100
AcDbEntity
  8
TOP
100
AcDbLine
 10
8.616
 20
100.9344262295082
 30
0.0
 11
10.433976
 21
99.88252813701811
 31
0.0
  0
LINE
  5
32B
330
17
100
AcDbEntity
  8
TOP
100
AcDbLine
 10
11.106024
 20
99.88252813701811
 30
0.0
 11
12.924
 21
100.9344262295082
 31
0.0
  0
LINE
  5
32C
330
17
100
AcDbEntity
  8
TOP
100
AcDbLine
 10
12.924
 20
100.9344262295082
 30
0.0
 11
14.741976
 21
99.88252813701811
 31
0.0
  0
LINE
  5
32D
330
17
100
AcDbEntity
  8
TOP
100
AcDbLine
 10
15.414024
 20
99.88252813701811
 30
0.0
 11
17.232
 21
100.9344262295082
 31
0.0
  0
LINE
  5
32E
330
17
100
AcDbEntity
  8
TOP
100
AcDbLine
 10
17.232
 20
100.9344262295082
 30
0.0
 11
19.049976
 21
99.88252813701811
 31
0.0
  0
LINE
  5
32F
330
17
100
AcDbEntity
  8
TOP
100
AcDbLine
 10
19.722023999999998
 20
99.88252813701811
 30
0.0
 11
21.54
 21
100.9344262295082
 31
0.0
  0
LINE
  5
330
330
17
100
AcDbEntity
  8
TOP
100
AcDbLine
 10
0.336024
 20
101.12842977636238
 30
0.0
 11
2.154
 21
102.18032786885246
 31
0.0
  0
LINE
  5
331
330
17
100
AcDbEntity
  8
TOP
100
AcDbLine
 10
2.154
 20
102.18032786885246
 30
0.0
 11
3.9719759999999997
 21
101.12842977636238
 31
0.0
  0
LINE
  5
332
330
17
100
AcDbEntity
  8
TOP
100
AcDbLine
 10
4.644024
 20
101.12842977636238
 30
0.0
 11
6.462
 21
102.18032786885246
 31
0.0
  0
LINE
  5
333
330
17
100
AcDbEntity
  8
TOP
100
AcDbLine
 10
6.462
 20
102.18032786885246
 30
0.0
 11
8.279976
 21
101.12842977636238
 31
0.0
  0
LINE
  5
334
330
17
100
AcDbEntity
  8
TOP
100
AcDbLine
 10
8.952024
 20
101.12842977636238
 30
0.0
 11
10.77
 21
102.18032786885246
 31
0.0
  0
LINE
  5
335
330
17
100
AcDbEntity
  8
TOP
100
AcDbLine
 10
10.77
 20
102.18032786885246
 30
0.0
 11
12.587976
 21
101.12842977636238
 31
0.0
  0
LINE
  5
336
330
17
100
AcDbEntity
  8
TOP
100
AcDbLine
 10
13.260024
 20
101.12842977636238
 30
0.0
 11
15.078
 21
102.18032786885246
 31
0.0
  0
LINE
  5
337
330
17
100
AcDbEntity
  8
TOP
100
AcDbLine
 10
15.078
 20
102.18032786885246
 30
0.0
 11
16.895976
 21
101.12842977636238
 31
0.0
  0
LINE
  5
338
330
17
100
AcDbEntity
  8
TOP
100
AcDbLine
 10
17.568023999999998
 20
101.12842977636238
 30
0.0
 11
19.386
 21
102.18032786885246
 31
0.0
  0
LINE
  5
339
330
17
100
AcDbEntity
  8
TOP
100
AcDbLine
 10
19.386
 20
102.18032786885246
 30
0.0
 11
21.203976
 21
101.12842977636238
 31
0.0
  0
LINE
  5
33A
330
17
100
AcDbEntity
  8
TOP
100
AcDbLine
 10
0.0
 20
103.42622950819673
 30
0.0
 11
1.8179759999999998
 21
102.37433141570664
 31
0.0
  0
LINE
  5
33B
330
17
100
AcDbEntity
  8
TOP
100
AcDbLine
 10
2.490024
 20
102.37433141570664
 30
0.0
 11
4.308
 21
103.42622950819673
 31
0.0
  0
LINE
  5
33C
330
17
100
AcDbEntity
  8
TOP
100
AcDbLine
 10
4.308
 20
103.42622950819673
 30
0.0
 11
6.125976
 21
102.37433141570664
 31
0.0
  0
LINE
  5
33D
330
17
100
AcDbEntity
  8
TOP
100
AcDbLine
 10
6.798024
 20
102.37433141570664
 30
0.0
 11
8.616
 21
103.42622950819673
 31
0.0
  0
LINE
  5
33E
330
17
100
AcDbEntity
  8
TOP
100
AcDbLine
 10
8.616
 20
103.42622950819673
 30
0.0
 11
10.433976
 21
102.37433141570664
 31
0.0
  0
LINE
  5
33F
330
17
100
AcDbEntity
  8
TOP
100
AcDbLine
 10
11.106024
 20
102.37433141570664
 30
0.0
 11
12.924
 21
103.42622950819673
 31
0.0
  0
LINE
  5
340
330
17
100
AcDbEntity
  8
TOP
100
AcDbLine
 10
12.924
 20
103.42622950819673
 30
0.0
 11
14.741976
 21
102.37433141570664
 31
0.0
  0
LINE
  5
341
330
17
100
AcDbEntity
  8
TOP
100
AcDbLine
 10
15.414024
 20
102.37433141570664
 30
0.0
 11
17.232
 21
103.42622950819673
 31
0.0
  0
LINE
  5
342
330
17
100
AcDbEntity
  8
TOP
100
AcDbLine
 10
17.232
 20
103.42622950819673
 30
0.0
 11
19.049976
 21
102.37433141570664
 31
0.0
  0
LINE
  5
343
330
17
100
AcDbEntity
  8
TOP
100
AcDbLine
 10
19.722023999999998
 20
102.37433141570664
 30
0.0
 11
21.54
 21
103.42622950819673
 31
0.0
  0
LINE
  5
344
330
17
100
AcDbEntity
  8
TOP
100
AcDbLine
 10
0.336024
 20
103.6202330550509
 30
0.0
 11
2.154
 21
104.672131147541
 31
0.0
  0
LINE
  5
345
330
17
100
AcDbEntity
  8
TOP
100
AcDbLine
 10
2.154
 20
104.672131147541
 30
0.0
 11
3.9719759999999997
 21
103.6202330550509
 31
0.0
  0
LINE
  5
346
330
17
100
AcDbEntity
  8
TOP
100
AcDbLine
 10
4.644024
 20
103.6202330550509
 30
0.0
 11
6.462
 21
104.672131147541
 31
0.0
  0
LINE
  5
347
330
17
100
AcDbEntity
  8
TOP
100
AcDbLine
 10
6.462
 20
104.672131147541
 30
0.0
 11
8.279976
 21
103.6202330550509
 31
0.0
  0
LINE
  5
348
330
17
100
AcDbEntity
  8
TOP
100
AcDbLine
 10
8.952024
 20
103.6202330550509
 30
0.0
 11
10.77
 21
104.672131147541
 31
0.0
  0
LINE
  5
349
330
17
100
AcDbEntity
  8
TOP
100
AcDbLine
 10
10.77
 20
104.672131147541
 30
0.0
 11
12.587976
 21
103.6202330550509
 31
0.0
  0
LINE
  5
34A
330
17
100
AcDbEntity
  8
TOP
100
AcDbLine
 10
13.260024
 20
103.6202330550509
 30
0.0
 11
15.078
 21
104.672131147541
 31
0.0
  0
LINE
  5
34B
330
17
100
AcDbEntity
  8
TOP
100
AcDbLine
 10
15.078
 20
104.672131147541
 30
0.0
 11
16.895976
 21
103.6202330550509
 31
0.0
  0
LINE
  5
34C
330
17
100
AcDbEntity
  8
TOP
100
AcDbLine
 10
17.568023999999998
 20
103.6202330550509
 30
0.0
 11
19.386
 21
104.672131147541
 31
0.0
  0
LINE
  5
34D
330
17
100
AcDbEntity
  8
TOP
100
AcDbLine
 10
19.386
 20
104.672131147541
 30
0.0
 11
21.203976
 21
103.6202330550509
 31
0.0
  0
LINE
  5
34E
330
17
100
AcDbEntity
  8
TOP
100
AcDbLine
 10
0.0
 20
105.91803278688525
 30
0.0
 11
1.8179759999999998
 21
104.86613469439517
 31
0.0
  0
LINE
  5
34F
330
17
100
AcDbEntity
  8
TOP
100
AcDbLine
 10
2.490024
 20
104.86613469439517
 30
0.0
 11
4.308
 21
105.91803278688525
 31
0.0
  0
LINE
  5
350
330
17
100
AcDbEntity
  8
TOP
100
AcDbLine
 10
4.308
 20
105.91803278688525
 30
0.0
 11
6.125976
 21
104.86613469439517
 31
0.0
  0
LINE
  5
351
330
17
100
AcDbEntity
  8
TOP
100
AcDbLine
 10
6.798024
 20
104.86613469439517
 30
0.0
 11
8.616
 21
105.91803278688525
 31
0.0
  0
LINE
  5
352
330
17
100
AcDbEntity
  8
TOP
100
AcDbLine
 10
8.616
 20
105.91803278688525
 30
0.0
 11
10.433976
 21
104.86613469439517
 31
0.0
  0
LINE
  5
353
330
17
100
AcDbEntity
  8
TOP
100
AcDbLine
 10
11.106024
 20
104.86613469439517
 30
0.0
 11
12.924
 21
105.91803278688525
 31
0.0
  0
LINE
  5
354
330
17
100
AcDbEntity
  8
TOP
100
AcDbLine
 10
12.924
 20
105.91803278688525
 30
0.0
 11
14.741976
 21
104.86613469439517
 31
0.0
  0
LINE
  5
355
330
17
100
AcDbEntity
  8
TOP
100
AcDbLine
 10
15.414024
 20
104.86613469439517
 30
0.0
 11
17.232
 21
105.91803278688525
 31
0.0
  0
LINE
  5
356
330
17
100
AcDbEntity
  8
TOP
100
AcDbLine
 10
17.232
 20
105.91803278688525
 30
0.0
 11
19.049976
 21
104.86613469439517
 31
0.0
  0
LINE
  5
357
330
17
100
AcDbEntity
  8
TOP
100
AcDbLine
 10
19.722023999999998
 20
104.86613469439517
 30
0.0
 11
21.54
 21
105.91803278688525
 31
0.0
  0
LINE
  5
358
330
17
100
AcDbEntity
  8
TOP
100
AcDbLine
 10
0.336024
 20
106.11203633373943
 30
0.0
 11
2.154
 21
107.16393442622952
 31
0.0
  0
LINE
  5
359
330
17
100
AcDbEntity
  8
TOP
100
AcDbLine
 10
2.154
 20
107.16393442622952
 30
0.0
 11
3.9719759999999997
 21
106.11203633373943
 31
0.0
  0
LINE
  5
35A
330
17
100
AcDbEntity
  8
TOP
100
AcDbLine
 10
4.644024
 20
106.11203633373943
 30
0.0
 11
6.462
 21
107.16393442622952
 31
0.0
  0
LINE
  5
35B
330
17
100
AcDbEntity
  8
TOP
100
AcDbLine
 10
6.462
 20
107.16393442622952
 30
0.0
 11
8.279976
 21
106.11203633373943
 31
0.0
  0
LINE
  5
35C
330
17
100
AcDbEntity
  8
TOP
100
AcDbLine
 10
8.952024
 20
106.11203633373943
 30
0.0
 11
10.77
 21
107.16393442622952
 31
0.0
  0
LINE
  5
35D
330
17
100
AcDbEntity
  8
TOP
100
AcDbLine
 10
10.77
 20
107.16393442622952
 30
0.0
 11
12.587976
 21
106.11203633373943
 31
0.0
  0
LINE
  5
35E
330
17
100
AcDbEntity
  8
TOP
100
AcDbLine
 10
13.260024
 20
106.11203633373943
 30
0.0
 11
15.078
 21
107.16393442622952
 31
0.0
  0
LINE
  5
35F
330
17
100
AcDbEntity
  8
TOP
100
AcDbLine
 10
15.078
 20
107.16393442622952
 30
0.0
 11
16.895976
 21
106.11203633373943
 31
0.0
  0
LINE
  5
360
330
17
100
AcDbEntity
  8
TOP
100
AcDbLine
 10
17.568023999999998
 20
106.11203633373943
 30
0.0
 11
19.386
 21
107.16393442622952
 31
0.0
  0
LINE
  5
361
330
17
100
AcDbEntity
  8
TOP
100
AcDbLine
 10
19.386
 20
107.16393442622952
 30
0.0
 11
21.203976
 21
106.11203633373943
 31
0.0
  0
LINE
  5
362
330
17
100
AcDbEntity
  8
TOP
100
AcDbLine
 10
0.0
 20
108.40983606557377
 30
0.0
 11
1.8179759999999998
 21
107.3579379730837
 31
0.0
  0
LINE
  5
363
330
17
100
AcDbEntity
  8
TOP
100
AcDbLine
 10
2.490024
 20
107.3579379730837
 30
0.0
 11
4.308
 21
108.40983606557377
 31
0.0
  0
LINE
  5
364
330
17
100
AcDbEntity
  8
TOP
100
AcDbLine
 10
4.308
 20
108.40983606557377
 30
0.0
 11
6.125976
 21
107.3579379730837
 31
0.0
  0
LINE
  5
365
330
17
100
AcDbEntity
  8
TOP
100
AcDbLine
 10
6.798024
 20
107.3579379730837
 30
0.0
 11
8.616
 21
108.40983606557377
 31
0.0
  0
LINE
  5
366
330
17
100
AcDbEntity
  8
TOP
100
AcDbLine
 10
8.616
 20
108.40983606557377
 30
0.0
 11
10.433976
 21
107.3579379730837
 31
0.0
  0
LINE
  5
367
330
17
100
AcDbEntity
  8
TOP
100
AcDbLine
 10
11.106024
 20
107.3579379730837
 30
0.0
 11
12.924
 21
108.40983606557377
 31
0.0
  0
LINE
  5
368
330
17
100
AcDbEntity
  8
TOP
100
AcDbLine
 10
12.924
 20
108.40983606557377
 30
0.0
 11
14.741976
 21
107.3579379730837
 31
0.0
  0
LINE
  5
369
330
17
100
AcDbEntity
  8
TOP
100
AcDbLine
 10
15.414024
 20
107.3579379730837
 30
0.0
 11
17.232
 21
108.40983606557377
 31
0.0
  0
LINE
  5
36A
330
17
100
AcDbEntity
  8
TOP
100
AcDbLine
 10
17.232
 20
108.40983606557377
 30
0.0
 11
19.049976
 21
107.3579379730837
 31
0.0
  0
LINE
  5
36B
330
17
100
AcDbEntity
  8
TOP
100
AcDbLine
 10
19.722023999999998
 20
107.3579379730837
 30
0.0
 11
21.54
 21
108.40983606557377
 31
0.0
  0
LINE
  5
36C
330
17
100
AcDbEntity
  8
TOP
100
AcDbLine
 10
0.336024
 20
108.60383961242795
 30
0.0
 11
2.154
 21
109.65573770491804
 31
0.0
  0
LINE
  5
36D
330
17
100
AcDbEntity
  8
TOP
100
AcDbLine
 10
2.154
 20
109.65573770491804
 30
0.0
 11
3.9719759999999997
 21
108.60383961242795
 31
0.0
  0
LINE
  5
36E
330
17
100
AcDbEntity
  8
TOP
100
AcDbLine
 10
4.644024
 20
108.60383961242795
 30
0.0
 11
6.462
 21
109.65573770491804
 31
0.0
  0
LINE
  5
36F
330
17
100
AcDbEntity
  8
TOP
100
AcDbLine
 10
6.462
 20
109.65573770491804
 30
0.0
 11
8.279976
 21
108.60383961242795
 31
0.0
  0
LINE
  5
370
330
17
100
AcDbEntity
  8
TOP
100
AcDbLine
 10
8.952024
 20
108.60383961242795
 30
0.0
 11
10.77
 21
109.65573770491804
 31
0.0
  0
LINE
  5
371
330
17
100
AcDbEntity
  8
TOP
100
AcDbLine
 10
10.77
 20
109.65573770491804
 30
0.0
 11
12.587976
 21
108.60383961242795
 31
0.0
  0
LINE
  5
372
330
17
100
AcDbEntity
  8
TOP
100
AcDbLine
 10
13.260024
 20
108.60383961242795
 30
0.0
 11
15.078
 21
109.65573770491804
 31
0.0
  0
LINE
  5
373
330
17
100
AcDbEntity
  8
TOP
100
AcDbLine
 10
15.078
 20
109.65573770491804
 30
0.0
 11
16.895976
 21
108.60383961242795
 31
0.0
  0
LINE
  5
374
330
17
100
AcDbEntity
  8
TOP
100
AcDbLine
 10
17.568023999999998
 20
108.60383961242795
 30
0.0
 11
19.386
 21
109.65573770491804
 31
0.0
  0
LINE
  5
375
330
17
100
AcDbEntity
  8
TOP
100
AcDbLine
 10
19.386
 20
109.65573770491804
 30
0.0
 11
21.203976
 21
108.60383961242795
 31
0.0
  0
LINE
  5
376
330
17
100
AcDbEntity
  8
TOP
100
AcDbLine
 10
0.0
 20
110.90163934426229
 30
0.0
 11
1.8179759999999998
 21
109.84974125177222
 31
0.0
  0
LINE
  5
377
330
17
100
AcDbEntity
  8
TOP
100
AcDbLine
 10
2.490024
 20
109.84974125177222
 30
0.0
 11
4.308
 21
110.90163934426229
 31
0.0
  0
LINE
  5
378
330
17
100
AcDbEntity
  8
TOP
100
AcDbLine
 10
4.308
 20
110.90163934426229
 30
0.0
 11
6.125976
 21
109.84974125177222
 31
0.0
  0
LINE
  5
379
330
17
100
AcDbEntity
  8
TOP
100
AcDbLine
 10
6.798024
 20
109.84974125177222
 30
0.0
 11
8.616
 21
110.90163934426229
 31
0.0
  0
LINE
  5
37A
330
17
100
AcDbEntity
  8
TOP
100
AcDbLine
 10
8.616
 20
110.90163934426229
 30
0.0
 11
10.433976
 21
109.84974125177222
 31
0.0
  0
LINE
  5
37B
330
17
100
AcDbEntity
  8
TOP
100
AcDbLine
 10
11.106024
 20
109.84974125177222
 30
0.0
 11
12.924
 21
110.90163934426229
 31
0.0
  0
LINE
  5
37C
330
17
100
AcDbEntity
  8
TOP
100
AcDbLine
 10
12.924
 20
110.90163934426229
 30
0.0
 11
14.741976
 21
109.84974125177222
 31
0.0
  0
LINE
  5
37D
330
17
100
AcDbEntity
  8
TOP
100
AcDbLine
 10
15.414024
 20
109.84974125177222
 30
0.0
 11
17.232
 21
110.90163934426229
 31
0.0
  0
LINE
  5
37E
330
17
100
AcDbEntity
  8
TOP
100
AcDbLine
 10
17.232
 20
110.90163934426229
 30
0.0
 11
19.049976
 21
109.84974125177222
 31
0.0
  0
LINE
  5
37F
330
17
100
AcDbEntity
  8
TOP
100
AcDbLine
 10
19.722023999999998
 20
109.84974125177222
 30
0.0
 11
21.54
 21
110.90163934426229
 31
0.0
  0
LINE
  5
380
330
17
100
AcDbEntity
  8
TOP
100
AcDbLine
 10
0.336024
 20
111.09564289111647
 30
0.0
 11
2.154
 21
112.14754098360656
 31
0.0
  0
LINE
  5
381
330
17
100
AcDbEntity
  8
TOP
100
AcDbLine
 10
2.154
 20
112.14754098360656
 30
0.0
 11
3.9719759999999997
 21
111.09564289111647
 31
0.0
  0
LINE
  5
382
330
17
100
AcDbEntity
  8
TOP
100
AcDbLine
 10
4.644024
 20
111.09564289111647
 30
0.0
 11
6.462
 21
112.14754098360656
 31
0.0
  0
LINE
  5
383
330
17
100
AcDbEntity
  8
TOP
100
AcDbLine
 10
6.462
 20
112.14754098360656
 30
0.0
 11
8.279976
 21
111.09564289111647
 31
0.0
  0
LINE
  5
384
330
17
100
AcDbEntity
  8
TOP
100
AcDbLine
 10
8.952024
 20
111.09564289111647
 30
0.0
 11
10.77
 21
112.14754098360656
 31
0.0
  0
LINE
  5
385
330
17
100
AcDbEntity
  8
TOP
100
AcDbLine
 10
10.77
 20
112.14754098360656
 30
0.0
 11
12.587976
 21
111.09564289111647
 31
0.0
  0
LINE
  5
386
330
17
100
AcDbEntity
  8
TOP
100
AcDbLine
 10
13.260024
 20
111.09564289111647
 30
0.0
 11
15.078
 21
112.14754098360656
 31
0.0
  0
LINE
  5
387
330
17
100
AcDbEntity
  8
TOP
100
AcDbLine
 10
15.078
 20
112.14754098360656
 30
0.0
 11
16.895976
 21
111.09564289111647
 31
0.0
  0
LINE
  5
388
330
17
100
AcDbEntity
  8
TOP
100
AcDbLine
 10
17.568023999999998
 20
111.09564289111647
 30
0.0
 11
19.386
 21
112.14754098360656
 31
0.0
  0
LINE
  5
389
330
17
100
AcDbEntity
  8
TOP
100
AcDbLine
 10
19.386
 20
112.14754098360656
 30
0.0
 11
21.203976
 21
111.09564289111647
 31
0.0
  0
LINE
  5
38A
330
17
100
AcDbEntity
  8
TOP
100
AcDbLine
 10
0.0
 20
113.39344262295083
 30
0.0
 11
1.8179759999999998
 21
112.34154453046074
 31
0.0
  0
LINE
  5
38B
330
17
100
AcDbEntity
  8
TOP
100
AcDbLine
 10
2.490024
 20
112.34154453046074
 30
0.0
 11
4.308
 21
113.39344262295083
 31
0.0
  0
LINE
  5
38C
330
17
100
AcDbEntity
  8
TOP
100
AcDbLine
 10
4.308
 20
113.39344262295083
 30
0.0
 11
6.125976
 21
112.34154453046074
 31
0.0
  0
LINE
  5
38D
330
17
100
AcDbEntity
  8
TOP
100
AcDbLine
 10
6.798024
 20
112.34154453046074
 30
0.0
 11
8.616
 21
113.39344262295083
 31
0.0
  0
LINE
  5
38E
330
17
100
AcDbEntity
  8
TOP
100
AcDbLine
 10
8.616
 20
113.39344262295083
 30
0.0
 11
10.433976
 21
112.34154453046074
 31
0.0
  0
LINE
  5
38F
330
17
100
AcDbEntity
  8
TOP
100
AcDbLine
 10
11.106024
 20
112.34154453046074
 30
0.0
 11
12.924
 21
113.39344262295083
 31
0.0
  0
LINE
  5
390
330
17
100
AcDbEntity
  8
TOP
100
AcDbLine
 10
12.924
 20
113.39344262295083
 30
0.0
 11
14.741976
 21
112.34154453046074
 31
0.0
  0
LINE
  5
391
330
17
100
AcDbEntity
  8
TOP
100
AcDbLine
 10
15.414024
 20
112.34154453046074
 30
0.0
 11
17.232
 21
113.39344262295083
 31
0.0
  0
LINE
  5
392
330
17
100
AcDbEntity
  8
TOP
100
AcDbLine
 10
17.232
 20
113.39344262295083
 30
0.0
 11
19.049976
 21
112.34154453046074
 31
0.0
  0
LINE
  5
393
330
17
100
AcDbEntity
  8
TOP
100
AcDbLine
 10
19.722023999999998
 20
112.34154453046074
 30
0.0
 11
21.54
 21
113.39344262295083
 31
0.0
  0
LINE
  5
394
330
17
100
AcDbEntity
  8
TOP
100
AcDbLine
 10
0.336024
 20
113.587446169805
 30
0.0
 11
2.154
 21
114.63934426229508
 31
0.0
  0
LINE
  5
395
330
17
100
AcDbEntity
  8
TOP
100
AcDbLine
 10
2.154
 20
114.63934426229508
 30
0.0
 11
3.9719759999999997
 21
113.587446169805
 31
0.0
  0
LINE
  5
396
330
17
100
AcDbEntity
  8
TOP
100
AcDbLine
 10
4.644024
 20
113.587446169805
 30
0.0
 11
6.462
 21
114.63934426229508
 31
0.0
  0
LINE
  5
397
330
17
100
AcDbEntity
  8
TOP
100
AcDbLine
 10
6.462
 20
114.63934426229508
 30
0.0
 11
8.279976
 21
113.587446169805
 31
0.0
  0
LINE
  5
398
330
17
100
AcDbEntity
  8
TOP
100
AcDbLine
 10
8.952024
 20
113.587446169805
 30
0.0
 11
10.77
 21
114.63934426229508
 31
0.0
  0
LINE
  5
399
330
17
100
AcDbEntity
  8
TOP
100
AcDbLine
 10
10.77
 20
114.63934426229508
 30
0.0
 11
12.587976
 21
113.587446169805
 31
0.0
  0
LINE
  5
39A
330
17
100
AcDbEntity
  8
TOP
100
AcDbLine
 10
13.260024
 20
113.587446169805
 30
0.0
 11
15.078
 21
114.63934426229508
 31
0.0
  0
LINE
  5
39B
330
17
100
AcDbEntity
  8
TOP
100
AcDbLine
 10
15.078
 20
114.63934426229508
 30
0.0
 11
16.895976
 21
113.587446169805
 31
0.0
  0
LINE
  5
39C
330
17
100
AcDbEntity
  8
TOP
100
AcDbLine
 10
17.568023999999998
 20
113.587446169805
 30
0.0
 11
19.386
 21
114.63934426229508
 31
0.0
  0
LINE
  5
39D
330
17
100
AcDbEntity
  8
TOP
100
AcDbLine
 10
19.386
 20
114.63934426229508
 30
0.0
 11
21.203976
 21
113.587446169805
 31
0.0
  0
LINE
  5
39E
330
17
100
AcDbEntity
  8
TOP
100
AcDbLine
 10
0.0
 20
115.88524590163935
 30
0.0
 11
1.8179759999999998
 21
114.83334780914926
 31
0.0
  0
LINE
  5
39F
330
17
100
AcDbEntity
  8
TOP
100
AcDbLine
 10
2.490024
 20
114.83334780914926
 30
0.0
 11
4.308
 21
115.88524590163935
 31
0.0
  0
LINE
  5
3A0
330
17
100
AcDbEntity
  8
TOP
100
AcDbLine
 10
4.308
 20
115.88524590163935
 30
0.0
 11
6.125976
 21
114.83334780914926
 31
0.0
  0
LINE
  5
3A1
330
17
100
AcDbEntity
  8
TOP
100
AcDbLine
 10
6.798024
 20
114.83334780914926
 30
0.0
 11
8.616
 21
115.88524590163935
 31
0.0
  0
LINE
  5
3A2
330
17
100
AcDbEntity
  8
TOP
100
AcDbLine
 10
8.616
 20
115.88524590163935
 30
0.0
 11
10.433976
 21
114.83334780914926
 31
0.0
  0
LINE
  5
3A3
330
17
100
AcDbEntity
  8
TOP
100
AcDbLine
 10
11.106024
 20
114.83334780914926
 30
0.0
 11
12.924
 21
115.88524590163935
 31
0.0
  0
LINE
  5
3A4
330
17
100
AcDbEntity
  8
TOP
100
AcDbLine
 10
12.924
 20
115.88524590163935
 30
0.0
 11
14.741976
 21
114.83334780914926
 31
0.0
  0
LINE
  5
3A5
330
17
100
AcDbEntity
  8
TOP
100
AcDbLine
 10
15.414024
 20
114.83334780914926
 30
0.0
 11
17.232
 21
115.88524590163935
 31
0.0
  0
LINE
  5
3A6
330
17
100
AcDbEntity
  8
TOP
100
AcDbLine
 10
17.232
 20
115.88524590163935
 30
0.0
 11
19.049976
 21
114.83334780914926
 31
0.0
  0
LINE
  5
3A7
330
17
100
AcDbEntity
  8
TOP
100
AcDbLine
 10
19.722023999999998
 20
114.83334780914926
 30
0.0
 11
21.54
 21
115.88524590163935
 31
0.0
  0
LINE
  5
3A8
330
17
100
AcDbEntity
  8
TOP
100
AcDbLine
 10
0.336024
 20
116.07924944849353
 30
0.0
 11
2.154
 21
117.1311475409836
 31
0.0
  0
LINE
  5
3A9
330
17
100
AcDbEntity
  8
TOP
100
AcDbLine
 10
2.154
 20
117.1311475409836
 30
0.0
 11
3.9719759999999997
 21
116.07924944849353
 31
0.0
  0
LINE
  5
3AA
330
17
100
AcDbEntity
  8
TOP
100
AcDbLine
 10
4.644024
 20
116.07924944849353
 30
0.0
 11
6.462
 21
117.1311475409836
 31
0.0
  0
LINE
  5
3AB
330
17
100
AcDbEntity
  8
TOP
100
AcDbLine
 10
6.462
 20
117.1311475409836
 30
0.0
 11
8.279976
 21
116.07924944849353
 31
0.0
  0
LINE
  5
3AC
330
17
100
AcDbEntity
  8
TOP
100
AcDbLine
 10
8.952024
 20
116.07924944849353
 30
0.0
 11
10.77
 21
117.1311475409836
 31
0.0
  0
LINE
  5
3AD
330
17
100
AcDbEntity
  8
TOP
100
AcDbLine
 10
10.77
 20
117.1311475409836
 30
0.0
 11
12.587976
 21
116.07924944849353
 31
0.0
  0
LINE
  5
3AE
330
17
100
AcDbEntity
  8
TOP
100
AcDbLine
 10
13.260024
 20
116.07924944849353
 30
0.0
 11
15.078
 21
117.1311475409836
 31
0.0
  0
LINE
  5
3AF
330
17
100
AcDbEntity
  8
TOP
100
AcDbLine
 10
15.078
 20
117.1311475409836
 30
0.0
 11
16.895976
 21
116.07924944849353
 31
0.0
  0
LINE
  5
3B0
330
17
100
AcDbEntity
  8
TOP
100
AcDbLine
 10
17.568023999999998
 20
116.07924944849353
 30
0.0
 11
19.386
 21
117.1311475409836
 31
0.0
  0
LINE
  5
3B1
330
17
100
AcDbEntity
  8
TOP
100
AcDbLine
 10
19.386
 20
117.1311475409836
 30
0.0
 11
21.203976
 21
116.07924944849353
 31
0.0
  0
LINE
  5
3B2
330
17
100
AcDbEntity
  8
TOP
100
AcDbLine
 10
0.0
 20
118.37704918032787
 30
0.0
 11
1.8179759999999998
 21
117.32515108783778
 31
0.0
  0
LINE
  5
3B3
330
17
100
AcDbEntity
  8
TOP
100
AcDbLine
 10
2.490024
 20
117.32515108783778
 30
0.0
 11
4.308
 21
118.37704918032787
 31
0.0
  0
LINE
  5
3B4
330
17
100
AcDbEntity
  8
TOP
100
AcDbLine
 10
4.308
 20
118.37704918032787
 30
0.0
 11
6.125976
 21
117.32515108783778
 31
0.0
  0
LINE
  5
3B5
330
17
100
AcDbEntity
  8
TOP
100
AcDbLine
 10
6.798024
 20
117.32515108783778
 30
0.0
 11
8.616
 21
118.37704918032787
 31
0.0
  0
LINE
  5
3B6
330
17
100
AcDbEntity
  8
TOP
100
AcDbLine
 10
8.616
 20
118.37704918032787
 30
0.0
 11
10.433976
 21
117.32515108783778
 31
0.0
  0
LINE
  5
3B7
330
17
100
AcDbEntity
  8
TOP
100
AcDbLine
 10
11.106024
 20
117.32515108783778
 30
0.0
 11
12.924
 21
118.37704918032787
 31
0.0
  0
LINE
  5
3B8
330
17
100
AcDbEntity
  8
TOP
100
AcDbLine
 10
12.924
 20
118.37704918032787
 30
0.0
 11
14.741976
 21
117.32515108783778
 31
0.0
  0
LINE
  5
3B9
330
17
100
AcDbEntity
  8
TOP
100
AcDbLine
 10
15.414024
 20
117.32515108783778
 30
0.0
 11
17.232
 21
118.37704918032787
 31
0.0
  0
LINE
  5
3BA
330
17
100
AcDbEntity
  8
TOP
100
AcDbLine
 10
17.232
 20
118.37704918032787
 30
0.0
 11
19.049976
 21
117.32515108783778
 31
0.0
  0
LINE
  5
3BB
330
17
100
AcDbEntity
  8
TOP
100
AcDbLine
 10
19.722023999999998
 20
117.32515108783778
 30
0.0
 11
21.54
 21
118.37704918032787
 31
0.0
  0
LINE
  5
3BC
330
17
100
AcDbEntity
  8
TOP
100
AcDbLine
 10
0.336024
 20
118.57105272718205
 30
0.0
 11
2.154
 21
119.62295081967214
 31
0.0
  0
LINE
  5
3BD
330
17
100
AcDbEntity
  8
TOP
100
AcDbLine
 10
2.154
 20
119.62295081967214
 30
0.0
 11
3.9719759999999997
 21
118.57105272718205
 31
0.0
  0
LINE
  5
3BE
330
17
100
AcDbEntity
  8
TOP
100
AcDbLine
 10
4.644024
 20
118.57105272718205
 30
0.0
 11
6.462
 21
119.62295081967214
 31
0.0
  0
LINE
  5
3BF
330
17
100
AcDbEntity
  8
TOP
100
AcDbLine
 10
6.462
 20
119.62295081967214
 30
0.0
 11
8.279976
 21
118.57105272718205
 31
0.0
  0
LINE
  5
3C0
330
17
100
AcDbEntity
  8
TOP
100
AcDbLine
 10
8.952024
 20
118.57105272718205
 30
0.0
 11
10.77
 21
119.62295081967214
 31
0.0
  0
LINE
  5
3C1
330
17
100
AcDbEntity
  8
TOP
100
AcDbLine
 10
10.77
 20
119.62295081967214
 30
0.0
 11
12.587976
 21
118.57105272718205
 31
0.0
  0
LINE
  5
3C2
330
17
100
AcDbEntity
  8
TOP
100
AcDbLine
 10
13.260024
 20
118.57105272718205
 30
0.0
 11
15.078
 21
119.62295081967214
 31
0.0
  0
LINE
  5
3C3
330
17
100
AcDbEntity
  8
TOP
100
AcDbLine
 10
15.078
 20
119.62295081967214
 30
0.0
 11
16.895976
 21
118.57105272718205
 31
0.0
  0
LINE
  5
3C4
330
17
100
AcDbEntity
  8
TOP
100
AcDbLine
 10
17.568023999999998
 20
118.57105272718205
 30
0.0
 11
19.386
 21
119.62295081967214
 31
0.0
  0
LINE
  5
3C5
330
17
100
AcDbEntity
  8
TOP
100
AcDbLine
 10
19.386
 20
119.62295081967214
 30
0.0
 11
21.203976
 21
118.57105272718205
 31
0.0
  0
LINE
  5
3C6
330
17
100
AcDbEntity
  8
TOP
100
AcDbLine
 10
0.0
 20
120.8688524590164
 30
0.0
 11
1.8179759999999998
 21
119.81695436652632
 31
0.0
  0
LINE
  5
3C7
330
17
100
AcDbEntity
  8
TOP
100
AcDbLine
 10
2.490024
 20
119.81695436652632
 30
0.0
 11
4.308
 21
120.8688524590164
 31
0.0
  0
LINE
  5
3C8
330
17
100
AcDbEntity
  8
TOP
100
AcDbLine
 10
4.308
 20
120.8688524590164
 30
0.0
 11
6.125976
 21
119.81695436652632
 31
0.0
  0
LINE
  5
3C9
330
17
100
AcDbEntity
  8
TOP
100
AcDbLine
 10
6.798024
 20
119.81695436652632
 30
0.0
 11
8.616
 21
120.8688524590164
 31
0.0
  0
LINE
  5
3CA
330
17
100
AcDbEntity
  8
TOP
100
AcDbLine
 10
8.616
 20
120.8688524590164
 30
0.0
 11
10.433976
 21
119.81695436652632
 31
0.0
  0
LINE
  5
3CB
330
17
100
AcDbEntity
  8
TOP
100
AcDbLine
 10
11.106024
 20
119.81695436652632
 30
0.0
 11
12.924
 21
120.8688524590164
 31
0.0
  0
LINE
  5
3CC
330
17
100
AcDbEntity
  8
TOP
100
AcDbLine
 10
12.924
 20
120.8688524590164
 30
0.0
 11
14.741976
 21
119.81695436652632
 31
0.0
  0
LINE
  5
3CD
330
17
100
AcDbEntity
  8
TOP
100
AcDbLine
 10
15.414024
 20
119.81695436652632
 30
0.0
 11
17.232
 21
120.8688524590164
 31
0.0
  0
LINE
  5
3CE
330
17
100
AcDbEntity
  8
TOP
100
AcDbLine
 10
17.232
 20
120.8688524590164
 30
0.0
 11
19.049976
 21
119.81695436652632
 31
0.0
  0
LINE
  5
3CF
330
17
100
AcDbEntity
  8
TOP
100
AcDbLine
 10
19.722023999999998
 20
119.81695436652632
 30
0.0
 11
21.54
 21
120.8688524590164
 31
0.0
  0
LINE
  5
3D0
330
17
100
AcDbEntity
  8
TOP
100
AcDbLine
 10
0.336024
 20
121.06285600587057
 30
0.0
 11
2.154
 21
122.11475409836066
 31
0.0
  0
LINE
  5
3D1
330
17
100
AcDbEntity
  8
TOP
100
AcDbLine
 10
2.154
 20
122.11475409836066
 30
0.0
 11
3.9719759999999997
 21
121.06285600587057
 31
0.0
  0
LINE
  5
3D2
330
17
100
AcDbEntity
  8
TOP
100
AcDbLine
 10
4.644024
 20
121.06285600587057
 30
0.0
 11
6.462
 21
122.11475409836066
 31
0.0
  0
LINE
  5
3D3
330
17
100
AcDbEntity
  8
TOP
100
AcDbLine
 10
6.462
 20
122.11475409836066
 30
0.0
 11
8.279976
 21
121.06285600587057
 31
0.0
  0
LINE
  5
3D4
330
17
100
AcDbEntity
  8
TOP
100
AcDbLine
 10
8.952024
 20
121.06285600587057
 30
0.0
 11
10.77
 21
122.11475409836066
 31
0.0
  0
LINE
  5
3D5
330
17
100
AcDbEntity
  8
TOP
100
AcDbLine
 10
10.77
 20
122.11475409836066
 30
0.0
 11
12.587976
 21
121.06285600587057
 31
0.0
  0
LINE
  5
3D6
330
17
100
AcDbEntity
  8
TOP
100
AcDbLine
 10
13.260024
 20
121.06285600587057
 30
0.0
 11
15.078
 21
122.11475409836066
 31
0.0
  0
LINE
  5
3D7
330
17
100
AcDbEntity
  8
TOP
100
AcDbLine
 10
15.078
 20
122.11475409836066
 30
0.0
 11
16.895976
 21
121.06285600587057
 31
0.0
  0
LINE
  5
3D8
330
17
100
AcDbEntity
  8
TOP
100
AcDbLine
 10
17.568023999999998
 20
121.06285600587057
 30
0.0
 11
19.386
 21
122.11475409836066
 31
0.0
  0
LINE
  5
3D9
330
17
100
AcDbEntity
  8
TOP
100
AcDbLine
 10
19.386
 20
122.11475409836066
 30
0.0
 11
21.203976
 21
121.06285600587057
 31
0.0
  0
LINE
  5
3DA
330
17
100
AcDbEntity
  8
TOP
100
AcDbLine
 10
0.0
 20
123.36065573770492
 30
0.0
 11
1.8179759999999998
 21
122.30875764521484
 31
0.0
  0
LINE
  5
3DB
330
17
100
AcDbEntity
  8
TOP
100
AcDbLine
 10
2.490024
 20
122.30875764521484
 30
0.0
 11
4.308
 21
123.36065573770492
 31
0.0
  0
LINE
  5
3DC
330
17
100
AcDbEntity
  8
TOP
100
AcDbLine
 10
4.308
 20
123.36065573770492
 30
0.0
 11
6.125976
 21
122.30875764521484
 31
0.0
  0
LINE
  5
3DD
330
17
100
AcDbEntity
  8
TOP
100
AcDbLine
 10
6.798024
 20
122.30875764521484
 30
0.0
 11
8.616
 21
123.36065573770492
 31
0.0
  0
LINE
  5
3DE
330
17
100
AcDbEntity
  8
TOP
100
AcDbLine
 10
8.616
 20
123.36065573770492
 30
0.0
 11
10.433976
 21
122.30875764521484
 31
0.0
  0
LINE
  5
3DF
330
17
100
AcDbEntity
  8
TOP
100
AcDbLine
 10
11.106024
 20
122.30875764521484
 30
0.0
 11
12.924
 21
123.36065573770492
 31
0.0
  0
LINE
  5
3E0
330
17
100
AcDbEntity
  8
TOP
100
AcDbLine
 10
12.924
 20
123.36065573770492
 30
0.0
 11
14.741976
 21
122.30875764521484
 31
0.0
  0
LINE
  5
3E1
330
17
100
AcDbEntity
  8
TOP
100
AcDbLine
 10
15.414024
 20
122.30875764521484
 30
0.0
 11
17.232
 21
123.36065573770492
 31
0.0
  0
LINE
  5
3E2
330
17
100
AcDbEntity
  8
TOP
100
AcDbLine
 10
17.232
 20
123.36065573770492
 30
0.0
 11
19.049976
 21
122.30875764521484
 31
0.0
  0
LINE
  5
3E3
330
17
100
AcDbEntity
  8
TOP
100
AcDbLine
 10
19.722023999999998
 20
122.30875764521484
 30
0.0
 11
21.54
 21
123.36065573770492
 31
0.0
  0
LINE
  5
3E4
330
17
100
AcDbEntity
  8
TOP
100
AcDbLine
 10
0.336024
 20
123.5546592845591
 30
0.0
 11
2.154
 21
124.60655737704919
 31
0.0
  0
LINE
  5
3E5
330
17
100
AcDbEntity
  8
TOP
100
AcDbLine
 10
2.154
 20
124.60655737704919
 30
0.0
 11
3.9719759999999997
 21
123.5546592845591
 31
0.0
  0
LINE
  5
3E6
330
17
100
AcDbEntity
  8
TOP
100
AcDbLine
 10
4.644024
 20
123.5546592845591
 30
0.0
 11
6.462
 21
124.60655737704919
 31
0.0
  0
LINE
  5
3E7
330
17
100
AcDbEntity
  8
TOP
100
AcDbLine
 10
6.462
 20
124.60655737704919
 30
0.0
 11
8.279976
 21
123.5546592845591
 31
0.0
  0
LINE
  5
3E8
330
17
100
AcDbEntity
  8
TOP
100
AcDbLine
 10
8.952024
 20
123.5546592845591
 30
0.0
 11
10.77
 21
124.60655737704919
 31
0.0
  0
LINE
  5
3E9
330
17
100
AcDbEntity
  8
TOP
100
AcDbLine
 10
10.77
 20
124.60655737704919
 30
0.0
 11
12.587976
 21
123.5546592845591
 31
0.0
  0
LINE
  5
3EA
330
17
100
AcDbEntity
  8
TOP
100
AcDbLine
 10
13.260024
 20
123.5546592845591
 30
0.0
 11
15.078
 21
124.60655737704919
 31
0.0
  0
LINE
  5
3EB
330
17
100
AcDbEntity
  8
TOP
100
AcDbLine
 10
15.078
 20
124.60655737704919
 30
0.0
 11
16.895976
 21
123.5546592845591
 31
0.0
  0
LINE
  5
3EC
330
17
100
AcDbEntity
  8
TOP
100
AcDbLine
 10
17.568023999999998
 20
123.5546592845591
 30
0.0
 11
19.386
 21
124.60655737704919
 31
0.0
  0
LINE
  5
3ED
330
17
100
AcDbEntity
  8
TOP
100
AcDbLine
 10
19.386
 20
124.60655737704919
 30
0.0
 11
21.203976
 21
123.5546592845591
 31
0.0
  0
LINE
  5
3EE
330
17
100
AcDbEntity
  8
TOP
100
AcDbLine
 10
0.0
 20
125.85245901639345
 30
0.0
 11
1.8179759999999998
 21
124.80056092390336
 31
0.0
  0
LINE
  5
3EF
330
17
100
AcDbEntity
  8
TOP
100
AcDbLine
 10
2.490024
 20
124.80056092390336
 30
0.0
 11
4.308
 21
125.85245901639345
 31
0.0
  0
LINE
  5
3F0
330
17
100
AcDbEntity
  8
TOP
100
AcDbLine
 10
4.308
 20
125.85245901639345
 30
0.0
 11
6.125976
 21
124.80056092390336
 31
0.0
  0
LINE
  5
3F1
330
17
100
AcDbEntity
  8
TOP
100
AcDbLine
 10
6.798024
 20
124.80056092390336
 30
0.0
 11
8.616
 21
125.85245901639345
 31
0.0
  0
LINE
  5
3F2
330
17
100
AcDbEntity
  8
TOP
100
AcDbLine
 10
8.616
 20
125.85245901639345
 30
0.0
 11
10.433976
 21
124.80056092390336
 31
0.0
  0
LINE
  5
3F3
330
17
100
AcDbEntity
  8
TOP
100
AcDbLine
 10
11.106024
 20
124.80056092390336
 30
0.0
 11
12.924
 21
125.85245901639345
 31
0.0
  0
LINE
  5
3F4
330
17
100
AcDbEntity
  8
TOP
100
AcDbLine
 10
12.924
 20
125.85245901639345
 30
0.0
 11
14.741976
 21
124.80056092390336
 31
0.0
  0
LINE
  5
3F5
330
17
100
AcDbEntity
  8
TOP
100
AcDbLine
 10
15.414024
 20
124.80056092390336
 30
0.0
 11
17.232
 21
125.85245901639345
 31
0.0
  0
LINE
  5
3F6
330
17
100
AcDbEntity
  8
TOP
100
AcDbLine
 10
17.232
 20
125.85245901639345
 30
0.0
 11
19.049976
 21
124.80056092390336
 31
0.0
  0
LINE
  5
3F7
330
17
100
AcDbEntity
  8
TOP
100
AcDbLine
 10
19.722023999999998
 20
124.80056092390336
 30
0.0
 11
21.54
 21
125.85245901639345
 31
0.0
  0
LINE
  5
3F8
330
17
100
AcDbEntity
  8
TOP
100
AcDbLine
 10
0.336024
 20
126.04646256324763
 30
0.0
 11
2.154
 21
127.09836065573771
 31
0.0
  0
LINE
  5
3F9
330
17
100
AcDbEntity
  8
TOP
100
AcDbLine
 10
2.154
 20
127.09836065573771
 30
0.0
 11
3.9719759999999997
 21
126.04646256324763
 31
0.0
  0
LINE
  5
3FA
330
17
100
AcDbEntity
  8
TOP
100
AcDbLine
 10
4.644024
 20
126.04646256324763
 30
0.0
 11
6.462
 21
127.09836065573771
 31
0.0
  0
LINE
  5
3FB
330
17
100
AcDbEntity
  8
TOP
100
AcDbLine
 10
6.462
 20
127.09836065573771
 30
0.0
 11
8.279976
 21
126.04646256324763
 31
0.0
  0
LINE
  5
3FC
330
17
100
AcDbEntity
  8
TOP
100
AcDbLine
 10
8.952024
 20
126.04646256324763
 30
0.0
 11
10.77
 21
127.09836065573771
 31
0.0
  0
LINE
  5
3FD
330
17
100
AcDbEntity
  8
TOP
100
AcDbLine
 10
10.77
 20
127.09836065573771
 30
0.0
 11
12.587976
 21
126.04646256324763
 31
0.0
  0
LINE
  5
3FE
330
17
100
AcDbEntity
  8
TOP
100
AcDbLine
 10
13.260024
 20
126.04646256324763
 30
0.0
 11
15.078
 21
127.09836065573771
 31
0.0
  0
LINE
  5
3FF
330
17
100
AcDbEntity
  8
TOP
100
AcDbLine
 10
15.078
 20
127.09836065573771
 30
0.0
 11
16.895976
 21
126.04646256324763
 31
0.0
  0
LINE
  5
400
330
17
100
AcDbEntity
  8
TOP
100
AcDbLine
 10
17.568023999999998
 20
126.04646256324763
 30
0.0
 11
19.386
 21
127.09836065573771
 31
0.0
  0
LINE
  5
401
330
17
100
AcDbEntity
  8
TOP
100
AcDbLine
 10
19.386
 20
127.09836065573771
 30
0.0
 11
21.203976
 21
126.04646256324763
 31
0.0
  0
LINE
  5
402
330
17
100
AcDbEntity
  8
TOP
100
AcDbLine
 10
0.0
 20
128.344262295082
 30
0.0
 11
1.8179759999999998
 21
127.29236420259188
 31
0.0
  0
LINE
  5
403
330
17
100
AcDbEntity
  8
TOP
100
AcDbLine
 10
2.490024
 20
127.29236420259188
 30
0.0
 11
4.308
 21
128.344262295082
 31
0.0
  0
LINE
  5
404
330
17
100
AcDbEntity
  8
TOP
100
AcDbLine
 10
4.308
 20
128.344262295082
 30
0.0
 11
6.125976
 21
127.29236420259188
 31
0.0
  0
LINE
  5
405
330
17
100
AcDbEntity
  8
TOP
100
AcDbLine
 10
6.798024
 20
127.29236420259188
 30
0.0
 11
8.616
 21
128.344262295082
 31
0.0
  0
LINE
  5
406
330
17
100
AcDbEntity
  8
TOP
100
AcDbLine
 10
8.616
 20
128.344262295082
 30
0.0
 11
10.433976
 21
127.29236420259188
 31
0.0
  0
LINE
  5
407
330
17
100
AcDbEntity
  8
TOP
100
AcDbLine
 10
11.106024
 20
127.29236420259188
 30
0.0
 11
12.924
 21
128.344262295082
 31
0.0
  0
LINE
  5
408
330
17
100
AcDbEntity
  8
TOP
100
AcDbLine
 10
12.924
 20
128.344262295082
 30
0.0
 11
14.741976
 21
127.29236420259188
 31
0.0
  0
LINE
  5
409
330
17
100
AcDbEntity
  8
TOP
100
AcDbLine
 10
15.414024
 20
127.29236420259188
 30
0.0
 11
17.232
 21
128.344262295082
 31
0.0
  0
LINE
  5
40A
330
17
100
AcDbEntity
  8
TOP
100
AcDbLine
 10
17.232
 20
128.344262295082
 30
0.0
 11
19.049976
 21
127.29236420259188
 31
0.0
  0
LINE
  5
40B
330
17
100
AcDbEntity
  8
TOP
100
AcDbLine
 10
19.722023999999998
 20
127.29236420259188
 30
0.0
 11
21.54
 21
128.344262295082
 31
0.0
  0
LINE
  5
40C
330
17
100
AcDbEntity
  8
TOP
100
AcDbLine
 10
0.336024
 20
128.53826584193615
 30
0.0
 11
2.154
 21
129.59016393442624
 31
0.0
  0
LINE
  5
40D
330
17
100
AcDbEntity
  8
TOP
100
AcDbLine
 10
2.154
 20
129.59016393442624
 30
0.0
 11
3.9719759999999997
 21
128.53826584193615
 31
0.0
  0
LINE
  5
40E
330
17
100
AcDbEntity
  8
TOP
100
AcDbLine
 10
4.644024
 20
128.53826584193615
 30
0.0
 11
6.462
 21
129.59016393442624
 31
0.0
  0
LINE
  5
40F
330
17
100
AcDbEntity
  8
TOP
100
AcDbLine
 10
6.462
 20
129.59016393442624
 30
0.0
 11
8.279976
 21
128.53826584193615
 31
0.0
  0
LINE
  5
410
330
17
100
AcDbEntity
  8
TOP
100
AcDbLine
 10
8.952024
 20
128.53826584193615
 30
0.0
 11
10.77
 21
129.59016393442624
 31
0.0
  0
LINE
  5
411
330
17
100
AcDbEntity
  8
TOP
100
AcDbLine
 10
10.77
 20
129.59016393442624
 30
0.0
 11
12.587976
 21
128.53826584193615
 31
0.0
  0
LINE
  5
412
330
17
100
AcDbEntity
  8
TOP
100
AcDbLine
 10
13.260024
 20
128.53826584193615
 30
0.0
 11
15.078
 21
129.59016393442624
 31
0.0
  0
LINE
  5
413
330
17
100
AcDbEntity
  8
TOP
100
AcDbLine
 10
15.078
 20
129.59016393442624
 30
0.0
 11
16.895976
 21
128.53826584193615
 31
0.0
  0
LINE
  5
414
330
17
100
AcDbEntity
  8
TOP
100
AcDbLine
 10
17.568023999999998
 20
128.53826584193615
 30
0.0
 11
19.386
 21
129.59016393442624
 31
0.0
  0
LINE
  5
415
330
17
100
AcDbEntity
  8
TOP
100
AcDbLine
 10
19.386
 20
129.59016393442624
 30
0.0
 11
21.203976
 21
128.53826584193615
 31
0.0
  0
LINE
  5
416
330
17
100
AcDbEntity
  8
TOP
100
AcDbLine
 10
0.0
 20
130.8360655737705
 30
0.0
 11
1.8179759999999998
 21
129.7841674812804
 31
0.0
  0
LINE
  5
417
330
17
100
AcDbEntity
  8
TOP
100
AcDbLine
 10
2.490024
 20
129.7841674812804
 30
0.0
 11
4.308
 21
130.8360655737705
 31
0.0
  0
LINE
  5
418
330
17
100
AcDbEntity
  8
TOP
100
AcDbLine
 10
4.308
 20
130.8360655737705
 30
0.0
 11
6.125976
 21
129.7841674812804
 31
0.0
  0
LINE
  5
419
330
17
100
AcDbEntity
  8
TOP
100
AcDbLine
 10
6.798024
 20
129.7841674812804
 30
0.0
 11
8.616
 21
130.8360655737705
 31
0.0
  0
LINE
  5
41A
330
17
100
AcDbEntity
  8
TOP
100
AcDbLine
 10
8.616
 20
130.8360655737705
 30
0.0
 11
10.433976
 21
129.7841674812804
 31
0.0
  0
LINE
  5
41B
330
17
100
AcDbEntity
  8
TOP
100
AcDbLine
 10
11.106024
 20
129.7841674812804
 30
0.0
 11
12.924
 21
130.8360655737705
 31
0.0
  0
LINE
  5
41C
330
17
100
AcDbEntity
  8
TOP
100
AcDbLine
 10
12.924
 20
130.8360655737705
 30
0.0
 11
14.741976
 21
129.7841674812804
 31
0.0
  0
LINE
  5
41D
330
17
100
AcDbEntity
  8
TOP
100
AcDbLine
 10
15.414024
 20
129.7841674812804
 30
0.0
 11
17.232
 21
130.8360655737705
 31
0.0
  0
LINE
  5
41E
330
17
100
AcDbEntity
  8
TOP
100
AcDbLine
 10
17.232
 20
130.8360655737705
 30
0.0
 11
19.049976
 21
129.7841674812804
 31
0.0
  0
LINE
  5
41F
330
17
100
AcDbEntity
  8
TOP
100
AcDbLine
 10
19.722023999999998
 20
129.7841674812804
 30
0.0
 11
21.54
 21
130.8360655737705
 31
0.0
  0
LINE
  5
420
330
17
100
AcDbEntity
  8
TOP
100
AcDbLine
 10
0.336024
 20
131.03006912062466
 30
0.0
 11
2.154
 21
132.08196721311475
 31
0.0
  0
LINE
  5
421
330
17
100
AcDbEntity
  8
TOP
100
AcDbLine
 10
2.154
 20
132.08196721311475
 30
0.0
 11
3.9719759999999997
 21
131.03006912062466
 31
0.0
  0
LINE
  5
422
330
17
100
AcDbEntity
  8
TOP
100
AcDbLine
 10
4.644024
 20
131.03006912062466
 30
0.0
 11
6.462
 21
132.08196721311475
 31
0.0
  0
LINE
  5
423
330
17
100
AcDbEntity
  8
TOP
100
AcDbLine
 10
6.462
 20
132.08196721311475
 30
0.0
 11
8.279976
 21
131.03006912062466
 31
0.0
  0
LINE
  5
424
330
17
100
AcDbEntity
  8
TOP
100
AcDbLine
 10
8.952024
 20
131.03006912062466
 30
0.0
 11
10.77
 21
132.08196721311475
 31
0.0
  0
LINE
  5
425
330
17
100
AcDbEntity
  8
TOP
100
AcDbLine
 10
10.77
 20
132.08196721311475
 30
0.0
 11
12.587976
 21
131.03006912062466
 31
0.0
  0
LINE
  5
426
330
17
100
AcDbEntity
  8
TOP
100
AcDbLine
 10
13.260024
 20
131.03006912062466
 30
0.0
 11
15.078
 21
132.08196721311475
 31
0.0
  0
LINE
  5
427
330
17
100
AcDbEntity
  8
TOP
100
AcDbLine
 10
15.078
 20
132.08196721311475
 30
0.0
 11
16.895976
 21
131.03006912062466
 31
0.0
  0
LINE
  5
428
330
17
100
AcDbEntity
  8
TOP
100
AcDbLine
 10
17.568023999999998
 20
131.03006912062466
 30
0.0
 11
19.386
 21
132.08196721311475
 31
0.0
  0
LINE
  5
429
330
17
100
AcDbEntity
  8
TOP
100
AcDbLine
 10
19.386
 20
132.08196721311475
 30
0.0
 11
21.203976
 21
131.03006912062466
 31
0.0
  0
LINE
  5
42A
330
17
100
AcDbEntity
  8
TOP
100
AcDbLine
 10
0.0
 20
133.32786885245903
 30
0.0
 11
1.8179759999999998
 21
132.27597075996894
 31
0.0
  0
LINE
  5
42B
330
17
100
AcDbEntity
  8
TOP
100
AcDbLine
 10
2.490024
 20
132.27597075996894
 30
0.0
 11
4.308
 21
133.32786885245903
 31
0.0
  0
LINE
  5
42C
330
17
100
AcDbEntity
  8
TOP
100
AcDbLine
 10
4.308
 20
133.32786885245903
 30
0.0
 11
6.125976
 21
132.27597075996894
 31
0.0
  0
LINE
  5
42D
330
17
100
AcDbEntity
  8
TOP
100
AcDbLine
 10
6.798024
 20
132.27597075996894
 30
0.0
 11
8.616
 21
133.32786885245903
 31
0.0
  0
LINE
  5
42E
330
17
100
AcDbEntity
  8
TOP
100
AcDbLine
 10
8.616
 20
133.32786885245903
 30
0.0
 11
10.433976
 21
132.27597075996894
 31
0.0
  0
LINE
  5
42F
330
17
100
AcDbEntity
  8
TOP
100
AcDbLine
 10
11.106024
 20
132.27597075996894
 30
0.0
 11
12.924
 21
133.32786885245903
 31
0.0
  0
LINE
  5
430
330
17
100
AcDbEntity
  8
TOP
100
AcDbLine
 10
12.924
 20
133.32786885245903
 30
0.0
 11
14.741976
 21
132.27597075996894
 31
0.0
  0
LINE
  5
431
330
17
100
AcDbEntity
  8
TOP
100
AcDbLine
 10
15.414024
 20
132.27597075996894
 30
0.0
 11
17.232
 21
133.32786885245903
 31
0.0
  0
LINE
  5
432
330
17
100
AcDbEntity
  8
TOP
100
AcDbLine
 10
17.232
 20
133.32786885245903
 30
0.0
 11
19.049976
 21
132.27597075996894
 31
0.0
  0
LINE
  5
433
330
17
100
AcDbEntity
  8
TOP
100
AcDbLine
 10
19.722023999999998
 20
132.27597075996894
 30
0.0
 11
21.54
 21
133.32786885245903
 31
0.0
  0
LINE
  5
434
330
17
100
AcDbEntity
  8
TOP
100
AcDbLine
 10
0.336024
 20
133.5218723993132
 30
0.0
 11
2.154
 21
134.5737704918033
 31
0.0
  0
LINE
  5
435
330
17
100
AcDbEntity
  8
TOP
100
AcDbLine
 10
2.154
 20
134.5737704918033
 30
0.0
 11
3.9719759999999997
 21
133.5218723993132
 31
0.0
  0
LINE
  5
436
330
17
100
AcDbEntity
  8
TOP
100
AcDbLine
 10
4.644024
 20
133.5218723993132
 30
0.0
 11
6.462
 21
134.5737704918033
 31
0.0
  0
LINE
  5
437
330
17
100
AcDbEntity
  8
TOP
100
AcDbLine
 10
6.462
 20
134.5737704918033
 30
0.0
 11
8.279976
 21
133.5218723993132
 31
0.0
  0
LINE
  5
438
330
17
100
AcDbEntity
  8
TOP
100
AcDbLine
 10
8.952024
 20
133.5218723993132
 30
0.0
 11
10.77
 21
134.5737704918033
 31
0.0
  0
LINE
  5
439
330
17
100
AcDbEntity
  8
TOP
100
AcDbLine
 10
10.77
 20
134.5737704918033
 30
0.0
 11
12.587976
 21
133.5218723993132
 31
0.0
  0
LINE
  5
43A
330
17
100
AcDbEntity
  8
TOP
100
AcDbLine
 10
13.260024
 20
133.5218723993132
 30
0.0
 11
15.078
 21
134.5737704918033
 31
0.0
  0
LINE
  5
43B
330
17
100
AcDbEntity
  8
TOP
100
AcDbLine
 10
15.078
 20
134.5737704918033
 30
0.0
 11
16.895976
 21
133.5218723993132
 31
0.0
  0
LINE
  5
43C
330
17
100
AcDbEntity
  8
TOP
100
AcDbLine
 10
17.568023999999998
 20
133.5218723993132
 30
0.0
 11
19.386
 21
134.5737704918033
 31
0.0
  0
LINE
  5
43D
330
17
100
AcDbEntity
  8
TOP
100
AcDbLine
 10
19.386
 20
134.5737704918033
 30
0.0
 11
21.203976
 21
133.5218723993132
 31
0.0
  0
LINE
  5
43E
330
17
100
AcDbEntity
  8
TOP
100
AcDbLine
 10
0.0
 20
135.81967213114754
 30
0.0
 11
1.8179759999999998
 21
134.76777403865745
 31
0.0
  0
LINE
  5
43F
330
17
100
AcDbEntity
  8
TOP
100
AcDbLine
 10
2.490024
 20
134.76777403865745
 30
0.0
 11
4.308
 21
135.81967213114754
 31
0.0
  0
LINE
  5
440
330
17
100
AcDbEntity
  8
TOP
100
AcDbLine
 10
4.308
 20
135.81967213114754
 30
0.0
 11
6.125976
 21
134.76777403865745
 31
0.0
  0
LINE
  5
441
330
17
100
AcDbEntity
  8
TOP
100
AcDbLine
 10
6.798024
 20
134.76777403865745
 30
0.0
 11
8.616
 21
135.81967213114754
 31
0.0
  0
LINE
  5
442
330
17
100
AcDbEntity
  8
TOP
100
AcDbLine
 10
8.616
 20
135.81967213114754
 30
0.0
 11
10.433976
 21
134.76777403865745
 31
0.0
  0
LINE
  5
443
330
17
100
AcDbEntity
  8
TOP
100
AcDbLine
 10
11.106024
 20
134.76777403865745
 30
0.0
 11
12.924
 21
135.81967213114754
 31
0.0
  0
LINE
  5
444
330
17
100
AcDbEntity
  8
TOP
100
AcDbLine
 10
12.924
 20
135.81967213114754
 30
0.0
 11
14.741976
 21
134.76777403865745
 31
0.0
  0
LINE
  5
445
330
17
100
AcDbEntity
  8
TOP
100
AcDbLine
 10
15.414024
 20
134.76777403865745
 30
0.0
 11
17.232
 21
135.81967213114754
 31
0.0
  0
LINE
  5
446
330
17
100
AcDbEntity
  8
TOP
100
AcDbLine
 10
17.232
 20
135.81967213114754
 30
0.0
 11
19.049976
 21
134.76777403865745
 31
0.0
  0
LINE
  5
447
330
17
100
AcDbEntity
  8
TOP
100
AcDbLine
 10
19.722023999999998
 20
134.76777403865745
 30
0.0
 11
21.54
 21
135.81967213114754
 31
0.0
  0
LINE
  5
448
330
17
100
AcDbEntity
  8
TOP
100
AcDbLine
 10
0.336024
 20
136.0136756780017
 30
0.0
 11
2.154
 21
137.0655737704918
 31
0.0
  0
LINE
  5
449
330
17
100
AcDbEntity
  8
TOP
100
AcDbLine
 10
2.154
 20
137.0655737704918
 30
0.0
 11
3.9719759999999997
 21
136.0136756780017
 31
0.0
  0
LINE
  5
44A
330
17
100
AcDbEntity
  8
TOP
100
AcDbLine
 10
4.644024
 20
136.0136756780017
 30
0.0
 11
6.462
 21
137.0655737704918
 31
0.0
  0
LINE
  5
44B
330
17
100
AcDbEntity
  8
TOP
100
AcDbLine
 10
6.462
 20
137.0655737704918
 30
0.0
 11
8.279976
 21
136.0136756780017
 31
0.0
  0
LINE
  5
44C
330
17
100
AcDbEntity
  8
TOP
100
AcDbLine
 10
8.952024
 20
136.0136756780017
 30
0.0
 11
10.77
 21
137.0655737704918
 31
0.0
  0
LINE
  5
44D
330
17
100
AcDbEntity
  8
TOP
100
AcDbLine
 10
10.77
 20
137.0655737704918
 30
0.0
 11
12.587976
 21
136.0136756780017
 31
0.0
  0
LINE
  5
44E
330
17
100
AcDbEntity
  8
TOP
100
AcDbLine
 10
13.260024
 20
136.0136756780017
 30
0.0
 11
15.078
 21
137.0655737704918
 31
0.0
  0
LINE
  5
44F
330
17
100
AcDbEntity
  8
TOP
100
AcDbLine
 10
15.078
 20
137.0655737704918
 30
0.0
 11
16.895976
 21
136.0136756780017
 31
0.0
  0
LINE
  5
450
330
17
100
AcDbEntity
  8
TOP
100
AcDbLine
 10
17.568023999999998
 20
136.0136756780017
 30
0.0
 11
19.386
 21
137.0655737704918
 31
0.0
  0
LINE
  5
451
330
17
100
AcDbEntity
  8
TOP
100
AcDbLine
 10
19.386
 20
137.0655737704918
 30
0.0
 11
21.203976
 21
136.0136756780017
 31
0.0
  0
LINE
  5
452
330
17
100
AcDbEntity
  8
TOP
100
AcDbLine
 10
0.0
 20
138.31147540983608
 30
0.0
 11
1.8179759999999998
 21
137.25957731734596
 31
0.0
  0
LINE
  5
453
330
17
100
AcDbEntity
  8
TOP
100
AcDbLine
 10
2.490024
 20
137.25957731734596
 30
0.0
 11
4.308
 21
138.31147540983608
 31
0.0
  0
LINE
  5
454
330
17
100
AcDbEntity
  8
TOP
100
AcDbLine
 10
4.308
 20
138.31147540983608
 30
0.0
 11
6.125976
 21
137.25957731734596
 31
0.0
  0
LINE
  5
455
330
17
100
AcDbEntity
  8
TOP
100
AcDbLine
 10
6.798024
 20
137.25957731734596
 30
0.0
 11
8.616
 21
138.31147540983608
 31
0.0
  0
LINE
  5
456
330
17
100
AcDbEntity
  8
TOP
100
AcDbLine
 10
8.616
 20
138.31147540983608
 30
0.0
 11
10.433976
 21
137.25957731734596
 31
0.0
  0
LINE
  5
457
330
17
100
AcDbEntity
  8
TOP
100
AcDbLine
 10
11.106024
 20
137.25957731734596
 30
0.0
 11
12.924
 21
138.31147540983608
 31
0.0
  0
LINE
  5
458
330
17
100
AcDbEntity
  8
TOP
100
AcDbLine
 10
12.924
 20
138.31147540983608
 30
0.0
 11
14.741976
 21
137.25957731734596
 31
0.0
  0
LINE
  5
459
330
17
100
AcDbEntity
  8
TOP
100
AcDbLine
 10
15.414024
 20
137.25957731734596
 30
0.0
 11
17.232
 21
138.31147540983608
 31
0.0
  0
LINE
  5
45A
330
17
100
AcDbEntity
  8
TOP
100
AcDbLine
 10
17.232
 20
138.31147540983608
 30
0.0
 11
19.049976
 21
137.25957731734596
 31
0.0
  0
LINE
  5
45B
330
17
100
AcDbEntity
  8
TOP
100
AcDbLine
 10
19.722023999999998
 20
137.25957731734596
 30
0.0
 11
21.54
 21
138.31147540983608
 31
0.0
  0
LINE
  5
45C
330
17
100
AcDbEntity
  8
TOP
100
AcDbLine
 10
0.336024
 20
138.50547895669024
 30
0.0
 11
2.154
 21
139.55737704918033
 31
0.0
  0
LINE
  5
45D
330
17
100
AcDbEntity
  8
TOP
100
AcDbLine
 10
2.154
 20
139.55737704918033
 30
0.0
 11
3.9719759999999997
 21
138.50547895669024
 31
0.0
  0
LINE
  5
45E
330
17
100
AcDbEntity
  8
TOP
100
AcDbLine
 10
4.644024
 20
138.50547895669024
 30
0.0
 11
6.462
 21
139.55737704918033
 31
0.0
  0
LINE
  5
45F
330
17
100
AcDbEntity
  8
TOP
100
AcDbLine
 10
6.462
 20
139.55737704918033
 30
0.0
 11
8.279976
 21
138.50547895669024
 31
0.0
  0
LINE
  5
460
330
17
100
AcDbEntity
  8
TOP
100
AcDbLine
 10
8.952024
 20
138.50547895669024
 30
0.0
 11
10.77
 21
139.55737704918033
 31
0.0
  0
LINE
  5
461
330
17
100
AcDbEntity
  8
TOP
100
AcDbLine
 10
10.77
 20
139.55737704918033
 30
0.0
 11
12.587976
 21
138.50547895669024
 31
0.0
  0
LINE
  5
462
330
17
100
AcDbEntity
  8
TOP
100
AcDbLine
 10
13.260024
 20
138.50547895669024
 30
0.0
 11
15.078
 21
139.55737704918033
 31
0.0
  0
LINE
  5
463
330
17
100
AcDbEntity
  8
TOP
100
AcDbLine
 10
15.078
 20
139.55737704918033
 30
0.0
 11
16.895976
 21
138.50547895669024
 31
0.0
  0
LINE
  5
464
330
17
100
AcDbEntity
  8
TOP
100
AcDbLine
 10
17.568023999999998
 20
138.50547895669024
 30
0.0
 11
19.386
 21
139.55737704918033
 31
0.0
  0
LINE
  5
465
330
17
100
AcDbEntity
  8
TOP
100
AcDbLine
 10
19.386
 20
139.55737704918033
 30
0.0
 11
21.203976
 21
138.50547895669024
 31
0.0
  0
LINE
  5
466
330
17
100
AcDbEntity
  8
TOP
100
AcDbLine
 10
0.0
 20
140.80327868852459
 30
0.0
 11
1.8179759999999998
 21
139.7513805960345
 31
0.0
  0
LINE
  5
467
330
17
100
AcDbEntity
  8
TOP
100
AcDbLine
 10
2.490024
 20
139.7513805960345
 30
0.0
 11
4.308
 21
140.80327868852459
 31
0.0
  0
LINE
  5
468
330
17
100
AcDbEntity
  8
TOP
100
AcDbLine
 10
4.308
 20
140.80327868852459
 30
0.0
 11
6.125976
 21
139.7513805960345
 31
0.0
  0
LINE
  5
469
330
17
100
AcDbEntity
  8
TOP
100
AcDbLine
 10
6.798024
 20
139.7513805960345
 30
0.0
 11
8.616
 21
140.80327868852459
 31
0.0
  0
LINE
  5
46A
330
17
100
AcDbEntity
  8
TOP
100
AcDbLine
 10
8.616
 20
140.80327868852459
 30
0.0
 11
10.433976
 21
139.7513805960345
 31
0.0
  0
LINE
  5
46B
330
17
100
AcDbEntity
  8
TOP
100
AcDbLine
 10
11.106024
 20
139.7513805960345
 30
0.0
 11
12.924
 21
140.80327868852459
 31
0.0
  0
LINE
  5
46C
330
17
100
AcDbEntity
  8
TOP
100
AcDbLine
 10
12.924
 20
140.80327868852459
 30
0.0
 11
14.741976
 21
139.7513805960345
 31
0.0
  0
LINE
  5
46D
330
17
100
AcDbEntity
  8
TOP
100
AcDbLine
 10
15.414024
 20
139.7513805960345
 30
0.0
 11
17.232
 21
140.80327868852459
 31
0.0
  0
LINE
  5
46E
330
17
100
AcDbEntity
  8
TOP
100
AcDbLine
 10
17.232
 20
140.80327868852459
 30
0.0
 11
19.049976
 21
139.7513805960345
 31
0.0
  0
LINE
  5
46F
330
17
100
AcDbEntity
  8
TOP
100
AcDbLine
 10
19.722023999999998
 20
139.7513805960345
 30
0.0
 11
21.54
 21
140.80327868852459
 31
0.0
  0
LINE
  5
470
330
17
100
AcDbEntity
  8
TOP
100
AcDbLine
 10
0.336024
 20
140.99728223537875
 30
0.0
 11
2.154
 21
142.04918032786887
 31
0.0
  0
LINE
  5
471
330
17
100
AcDbEntity
  8
TOP
100
AcDbLine
 10
2.154
 20
142.04918032786887
 30
0.0
 11
3.9719759999999997
 21
140.99728223537875
 31
0.0
  0
LINE
  5
472
330
17
100
AcDbEntity
  8
TOP
100
AcDbLine
 10
4.644024
 20
140.99728223537875
 30
0.0
 11
6.462
 21
142.04918032786887
 31
0.0
  0
LINE
  5
473
330
17
100
AcDbEntity
  8
TOP
100
AcDbLine
 10
6.462
 20
142.04918032786887
 30
0.0
 11
8.279976
 21
140.99728223537875
 31
0.0
  0
LINE
  5
474
330
17
100
AcDbEntity
  8
TOP
100
AcDbLine
 10
8.952024
 20
140.99728223537875
 30
0.0
 11
10.77
 21
142.04918032786887
 31
0.0
  0
LINE
  5
475
330
17
100
AcDbEntity
  8
TOP
100
AcDbLine
 10
10.77
 20
142.04918032786887
 30
0.0
 11
12.587976
 21
140.99728223537875
 31
0.0
  0
LINE
  5
476
330
17
100
AcDbEntity
  8
TOP
100
AcDbLine
 10
13.260024
 20
140.99728223537875
 30
0.0
 11
15.078
 21
142.04918032786887
 31
0.0
  0
LINE
  5
477
330
17
100
AcDbEntity
  8
TOP
100
AcDbLine
 10
15.078
 20
142.04918032786887
 30
0.0
 11
16.895976
 21
140.99728223537875
 31
0.0
  0
LINE
  5
478
330
17
100
AcDbEntity
  8
TOP
100
AcDbLine
 10
17.568023999999998
 20
140.99728223537875
 30
0.0
 11
19.386
 21
142.04918032786887
 31
0.0
  0
LINE
  5
479
330
17
100
AcDbEntity
  8
TOP
100
AcDbLine
 10
19.386
 20
142.04918032786887
 30
0.0
 11
21.203976
 21
140.99728223537875
 31
0.0
  0
LINE
  5
47A
330
17
100
AcDbEntity
  8
TOP
100
AcDbLine
 10
0.0
 20
143.29508196721312
 30
0.0
 11
1.8179759999999998
 21
142.24318387472303
 31
0.0
  0
LINE
  5
47B
330
17
100
AcDbEntity
  8
TOP
100
AcDbLine
 10
2.490024
 20
142.24318387472303
 30
0.0
 11
4.308
 21
143.29508196721312
 31
0.0
  0
LINE
  5
47C
330
17
100
AcDbEntity
  8
TOP
100
AcDbLine
 10
4.308
 20
143.29508196721312
 30
0.0
 11
6.125976
 21
142.24318387472303
 31
0.0
  0
LINE
  5
47D
330
17
100
AcDbEntity
  8
TOP
100
AcDbLine
 10
6.798024
 20
142.24318387472303
 30
0.0
 11
8.616
 21
143.29508196721312
 31
0.0
  0
LINE
  5
47E
330
17
100
AcDbEntity
  8
TOP
100
AcDbLine
 10
8.616
 20
143.29508196721312
 30
0.0
 11
10.433976
 21
142.24318387472303
 31
0.0
  0
LINE
  5
47F
330
17
100
AcDbEntity
  8
TOP
100
AcDbLine
 10
11.106024
 20
142.24318387472303
 30
0.0
 11
12.924
 21
143.29508196721312
 31
0.0
  0
LINE
  5
480
330
17
100
AcDbEntity
  8
TOP
100
AcDbLine
 10
12.924
 20
143.29508196721312
 30
0.0
 11
14.741976
 21
142.24318387472303
 31
0.0
  0
LINE
  5
481
330
17
100
AcDbEntity
  8
TOP
100
AcDbLine
 10
15.414024
 20
142.24318387472303
 30
0.0
 11
17.232
 21
143.29508196721312
 31
0.0
  0
LINE
  5
482
330
17
100
AcDbEntity
  8
TOP
100
AcDbLine
 10
17.232
 20
143.29508196721312
 30
0.0
 11
19.049976
 21
142.24318387472303
 31
0.0
  0
LINE
  5
483
330
17
100
AcDbEntity
  8
TOP
100
AcDbLine
 10
19.722023999999998
 20
142.24318387472303
 30
0.0
 11
21.54
 21
143.29508196721312
 31
0.0
  0
LINE
  5
484
330
17
100
AcDbEntity
  8
TOP
100
AcDbLine
 10
0.336024
 20
143.48908551406728
 30
0.0
 11
2.154
 21
144.54098360655738
 31
0.0
  0
LINE
  5
485
330
17
100
AcDbEntity
  8
TOP
100
AcDbLine
 10
2.154
 20
144.54098360655738
 30
0.0
 11
3.9719759999999997
 21
143.48908551406728
 31
0.0
  0
LINE
  5
486
330
17
100
AcDbEntity
  8
TOP
100
AcDbLine
 10
4.644024
 20
143.48908551406728
 30
0.0
 11
6.462
 21
144.54098360655738
 31
0.0
  0
LINE
  5
487
330
17
100
AcDbEntity
  8
TOP
100
AcDbLine
 10
6.462
 20
144.54098360655738
 30
0.0
 11
8.279976
 21
143.48908551406728
 31
0.0
  0
LINE
  5
488
330
17
100
AcDbEntity
  8
TOP
100
AcDbLine
 10
8.952024
 20
143.48908551406728
 30
0.0
 11
10.77
 21
144.54098360655738
 31
0.0
  0
LINE
  5
489
330
17
100
AcDbEntity
  8
TOP
100
AcDbLine
 10
10.77
 20
144.54098360655738
 30
0.0
 11
12.587976
 21
143.48908551406728
 31
0.0
  0
LINE
  5
48A
330
17
100
AcDbEntity
  8
TOP
100
AcDbLine
 10
13.260024
 20
143.48908551406728
 30
0.0
 11
15.078
 21
144.54098360655738
 31
0.0
  0
LINE
  5
48B
330
17
100
AcDbEntity
  8
TOP
100
AcDbLine
 10
15.078
 20
144.54098360655738
 30
0.0
 11
16.895976
 21
143.48908551406728
 31
0.0
  0
LINE
  5
48C
330
17
100
AcDbEntity
  8
TOP
100
AcDbLine
 10
17.568023999999998
 20
143.48908551406728
 30
0.0
 11
19.386
 21
144.54098360655738
 31
0.0
  0
LINE
  5
48D
330
17
100
AcDbEntity
  8
TOP
100
AcDbLine
 10
19.386
 20
144.54098360655738
 30
0.0
 11
21.203976
 21
143.48908551406728
 31
0.0
  0
LINE
  5
48E
330
17
100
AcDbEntity
  8
TOP
100
AcDbLine
 10
0.0
 20
145.78688524590166
 30
0.0
 11
1.8179759999999998
 21
144.73498715341154
 31
0.0
  0
LINE
  5
48F
330
17
100
AcDbEntity
  8
TOP
100
AcDbLine
 10
2.490024
 20
144.73498715341154
 30
0.0
 11
4.308
 21
145.78688524590166
 31
0.0
  0
LINE
  5
490
330
17
100
AcDbEntity
  8
TOP
100
AcDbLine
 10
4.308
 20
145.78688524590166
 30
0.0
 11
6.125976
 21
144.73498715341154
 31
0.0
  0
LINE
  5
491
330
17
100
AcDbEntity
  8
TOP
100
AcDbLine
 10
6.798024
 20
144.73498715341154
 30
0.0
 11
8.616
 21
145.78688524590166
 31
0.0
  0
LINE
  5
492
330
17
100
AcDbEntity
  8
TOP
100
AcDbLine
 10
8.616
 20
145.78688524590166
 30
0.0
 11
10.433976
 21
144.73498715341154
 31
0.0
  0
LINE
  5
493
330
17
100
AcDbEntity
  8
TOP
100
AcDbLine
 10
11.106024
 20
144.73498715341154
 30
0.0
 11
12.924
 21
145.78688524590166
 31
0.0
  0
LINE
  5
494
330
17
100
AcDbEntity
  8
TOP
100
AcDbLine
 10
12.924
 20
145.78688524590166
 30
0.0
 11
14.741976
 21
144.73498715341154
 31
0.0
  0
LINE
  5
495
330
17
100
AcDbEntity
  8
TOP
100
AcDbLine
 10
15.414024
 20
144.73498715341154
 30
0.0
 11
17.232
 21
145.78688524590166
 31
0.0
  0
LINE
  5
496
330
17
100
AcDbEntity
  8
TOP
100
AcDbLine
 10
17.232
 20
145.78688524590166
 30
0.0
 11
19.049976
 21
144.73498715341154
 31
0.0
  0
LINE
  5
497
330
17
100
AcDbEntity
  8
TOP
100
AcDbLine
 10
19.722023999999998
 20
144.73498715341154
 30
0.0
 11
21.54
 21
145.78688524590166
 31
0.0
  0
LINE
  5
498
330
17
100
AcDbEntity
  8
TOP
100
AcDbLine
 10
0.336024
 20
145.98088879275582
 30
0.0
 11
2.154
 21
147.0327868852459
 31
0.0
  0
LINE
  5
499
330
17
100
AcDbEntity
  8
TOP
100
AcDbLine
 10
2.154
 20
147.0327868852459
 30
0.0
 11
3.9719759999999997
 21
145.98088879275582
 31
0.0
  0
LINE
  5
49A
330
17
100
AcDbEntity
  8
TOP
100
AcDbLine
 10
4.644024
 20
145.98088879275582
 30
0.0
 11
6.462
 21
147.0327868852459
 31
0.0
  0
LINE
  5
49B
330
17
100
AcDbEntity
  8
TOP
100
AcDbLine
 10
6.462
 20
147.0327868852459
 30
0.0
 11
8.279976
 21
145.98088879275582
 31
0.0
  0
LINE
  5
49C
330
17
100
AcDbEntity
  8
TOP
100
AcDbLine
 10
8.952024
 20
145.98088879275582
 30
0.0
 11
10.77
 21
147.0327868852459
 31
0.0
  0
LINE
  5
49D
330
17
100
AcDbEntity
  8
TOP
100
AcDbLine
 10
10.77
 20
147.0327868852459
 30
0.0
 11
12.587976
 21
145.98088879275582
 31
0.0
  0
LINE
  5
49E
330
17
100
AcDbEntity
  8
TOP
100
AcDbLine
 10
13.260024
 20
145.98088879275582
 30
0.0
 11
15.078
 21
147.0327868852459
 31
0.0
  0
LINE
  5
49F
330
17
100
AcDbEntity
  8
TOP
100
AcDbLine
 10
15.078
 20
147.0327868852459
 30
0.0
 11
16.895976
 21
145.98088879275582
 31
0.0
  0
LINE
  5
4A0
330
17
100
AcDbEntity
  8
TOP
100
AcDbLine
 10
17.568023999999998
 20
145.98088879275582
 30
0.0
 11
19.386
 21
147.0327868852459
 31
0.0
  0
LINE
  5
4A1
330
17
100
AcDbEntity
  8
TOP
100
AcDbLine
 10
19.386
 20
147.0327868852459
 30
0.0
 11
21.203976
 21
145.98088879275582
 31
0.0
  0
LINE
  5
4A2
330
17
100
AcDbEntity
  8
TOP
100
AcDbLine
 10
0.0
 20
148.27868852459017
 30
0.0
 11
1.8179759999999998
 21
147.22679043210007
 31
0.0
  0
LINE
  5
4A3
330
17
100
AcDbEntity
  8
TOP
100
AcDbLine
 10
2.490024
 20
147.22679043210007
 30
0.0
 11
4.308
 21
148.27868852459017
 31
0.0
  0
LINE
  5
4A4
330
17
100
AcDbEntity
  8
TOP
100
AcDbLine
 10
4.308
 20
148.27868852459017
 30
0.0
 11
6.125976
 21
147.22679043210007
 31
0.0
  0
LINE
  5
4A5
330
17
100
AcDbEntity
  8
TOP
100
AcDbLine
 10
6.798024
 20
147.22679043210007
 30
0.0
 11
8.616
 21
148.27868852459017
 31
0.0
  0
LINE
  5
4A6
330
17
100
AcDbEntity
  8
TOP
100
AcDbLine
 10
8.616
 20
148.27868852459017
 30
0.0
 11
10.433976
 21
147.22679043210007
 31
0.0
  0
LINE
  5
4A7
330
17
100
AcDbEntity
  8
TOP
100
AcDbLine
 10
11.106024
 20
147.22679043210007
 30
0.0
 11
12.924
 21
148.27868852459017
 31
0.0
  0
LINE
  5
4A8
330
17
100
AcDbEntity
  8
TOP
100
AcDbLine
 10
12.924
 20
148.27868852459017
 30
0.0
 11
14.741976
 21
147.22679043210007
 31
0.0
  0
LINE
  5
4A9
330
17
100
AcDbEntity
  8
TOP
100
AcDbLine
 10
15.414024
 20
147.22679043210007
 30
0.0
 11
17.232
 21
148.27868852459017
 31
0.0
  0
LINE
  5
4AA
330
17
100
AcDbEntity
  8
TOP
100
AcDbLine
 10
17.232
 20
148.27868852459017
 30
0.0
 11
19.049976
 21
147.22679043210007
 31
0.0
  0
LINE
  5
4AB
330
17
100
AcDbEntity
  8
TOP
100
AcDbLine
 10
19.722023999999998
 20
147.22679043210007
 30
0.0
 11
21.54
 21
148.27868852459017
 31
0.0
  0
LINE
  5
4AC
330
17
100
AcDbEntity
  8
TOP
100
AcDbLine
 10
0.336024
 20
148.47269207144433
 30
0.0
 11
2.154
 21
149.52459016393442
 31
0.0
  0
LINE
  5
4AD
330
17
100
AcDbEntity
  8
TOP
100
AcDbLine
 10
2.154
 20
149.52459016393442
 30
0.0
 11
3.9719759999999997
 21
148.47269207144433
 31
0.0
  0
LINE
  5
4AE
330
17
100
AcDbEntity
  8
TOP
100
AcDbLine
 10
4.644024
 20
148.47269207144433
 30
0.0
 11
6.462
 21
149.52459016393442
 31
0.0
  0
LINE
  5
4AF
330
17
100
AcDbEntity
  8
TOP
100
AcDbLine
 10
6.462
 20
149.52459016393442
 30
0.0
 11
8.279976
 21
148.47269207144433
 31
0.0
  0
LINE
  5
4B0
330
17
100
AcDbEntity
  8
TOP
100
AcDbLine
 10
8.952024
 20
148.47269207144433
 30
0.0
 11
10.77
 21
149.52459016393442
 31
0.0
  0
LINE
  5
4B1
330
17
100
AcDbEntity
  8
TOP
100
AcDbLine
 10
10.77
 20
149.52459016393442
 30
0.0
 11
12.587976
 21
148.47269207144433
 31
0.0
  0
LINE
  5
4B2
330
17
100
AcDbEntity
  8
TOP
100
AcDbLine
 10
13.260024
 20
148.47269207144433
 30
0.0
 11
15.078
 21
149.52459016393442
 31
0.0
  0
LINE
  5
4B3
330
17
100
AcDbEntity
  8
TOP
100
AcDbLine
 10
15.078
 20
149.52459016393442
 30
0.0
 11
16.895976
 21
148.47269207144433
 31
0.0
  0
LINE
  5
4B4
330
17
100
AcDbEntity
  8
TOP
100
AcDbLine
 10
17.568023999999998
 20
148.47269207144433
 30
0.0
 11
19.386
 21
149.52459016393442
 31
0.0
  0
LINE
  5
4B5
330
17
100
AcDbEntity
  8
TOP
100
AcDbLine
 10
19.386
 20
149.52459016393442
 30
0.0
 11
21.203976
 21
148.47269207144433
 31
0.0
  0
LINE
  5
4B6
330
17
100
AcDbEntity
  8
TOP
100
AcDbLine
 10
0.0
 20
150.7704918032787
 30
0.0
 11
1.8179759999999998
 21
149.71859371078858
 31
0.0
  0
LINE
  5
4B7
330
17
100
AcDbEntity
  8
TOP
100
AcDbLine
 10
2.490024
 20
149.71859371078858
 30
0.0
 11
4.308
 21
150.7704918032787
 31
0.0
  0
LINE
  5
4B8
330
17
100
AcDbEntity
  8
TOP
100
AcDbLine
 10
4.308
 20
150.7704918032787
 30
0.0
 11
6.125976
 21
149.71859371078858
 31
0.0
  0
LINE
  5
4B9
330
17
100
AcDbEntity
  8
TOP
100
AcDbLine
 10
6.798024
 20
149.71859371078858
 30
0.0
 11
8.616
 21
150.7704918032787
 31
0.0
  0
LINE
  5
4BA
330
17
100
AcDbEntity
  8
TOP
100
AcDbLine
 10
8.616
 20
150.7704918032787
 30
0.0
 11
10.433976
 21
149.71859371078858
 31
0.0
  0
LINE
  5
4BB
330
17
100
AcDbEntity
  8
TOP
100
AcDbLine
 10
11.106024
 20
149.71859371078858
 30
0.0
 11
12.924
 21
150.7704918032787
 31
0.0
  0
LINE
  5
4BC
330
17
100
AcDbEntity
  8
TOP
100
AcDbLine
 10
12.924
 20
150.7704918032787
 30
0.0
 11
14.741976
 21
149.71859371078858
 31
0.0
  0
LINE
  5
4BD
330
17
100
AcDbEntity
  8
TOP
100
AcDbLine
 10
15.414024
 20
149.71859371078858
 30
0.0
 11
17.232
 21
150.7704918032787
 31
0.0
  0
LINE
  5
4BE
330
17
100
AcDbEntity
  8
TOP
100
AcDbLine
 10
17.232
 20
150.7704918032787
 30
0.0
 11
19.049976
 21
149.71859371078858
 31
0.0
  0
LINE
  5
4BF
330
17
100
AcDbEntity
  8
TOP
100
AcDbLine
 10
19.722023999999998
 20
149.71859371078858
 30
0.0
 11
21.54
 21
150.7704918032787
 31
0.0
  0
LINE
  5
4C0
330
17
100
AcDbEntity
  8
TOP
100
AcDbLine
 10
0.336024
 20
150.96449535013286
 30
0.0
 11
2.154
 21
152.01639344262296
 31
0.0
  0
LINE
  5
4C1
330
17
100
AcDbEntity
  8
TOP
100
AcDbLine
 10
2.154
 20
152.01639344262296
 30
0.0
 11
3.9719759999999997
 21
150.96449535013286
 31
0.0
  0
LINE
  5
4C2
330
17
100
AcDbEntity
  8
TOP
100
AcDbLine
 10
4.644024
 20
150.96449535013286
 30
0.0
 11
6.462
 21
152.01639344262296
 31
0.0
  0
LINE
  5
4C3
330
17
100
AcDbEntity
  8
TOP
100
AcDbLine
 10
6.462
 20
152.01639344262296
 30
0.0
 11
8.279976
 21
150.96449535013286
 31
0.0
  0
LINE
  5
4C4
330
17
100
AcDbEntity
  8
TOP
100
AcDbLine
 10
8.952024
 20
150.96449535013286
 30
0.0
 11
10.77
 21
152.01639344262296
 31
0.0
  0
LINE
  5
4C5
330
17
100
AcDbEntity
  8
TOP
100
AcDbLine
 10
10.77
 20
152.01639344262296
 30
0.0
 11
12.587976
 21
150.96449535013286
 31
0.0
  0
LINE
  5
4C6
330
17
100
AcDbEntity
  8
TOP
100
AcDbLine
 10
13.260024
 20
150.96449535013286
 30
0.0
 11
15.078
 21
152.01639344262296
 31
0.0
  0
LINE
  5
4C7
330
17
100
AcDbEntity
  8
TOP
100
AcDbLine
 10
15.078
 20
152.01639344262296
 30
0.0
 11
16.895976
 21
150.96449535013286
 31
0.0
  0
LINE
  5
4C8
330
17
100
AcDbEntity
  8
TOP
100
AcDbLine
 10
17.568023999999998
 20
150.96449535013286
 30
0.0
 11
19.386
 21
152.01639344262296
 31
0.0
  0
LINE
  5
4C9
330
17
100
AcDbEntity
  8
TOP
100
AcDbLine
 10
19.386
 20
152.01639344262296
 30
0.0
 11
21.203976
 21
150.96449535013286
 31
0.0
  0
LINE
  5
4CA
330
17
100
AcDbEntity
  8
TOP
100
AcDbLine
 10
0.0
 20
153.2622950819672
 30
0.0
 11
1.8179759999999998
 21
152.21039698947712
 31
0.0
  0
LINE
  5
4CB
330
17
100
AcDbEntity
  8
TOP
100
AcDbLine
 10
2.490024
 20
152.21039698947712
 30
0.0
 11
4.308
 21
153.2622950819672
 31
0.0
  0
LINE
  5
4CC
330
17
100
AcDbEntity
  8
TOP
100
AcDbLine
 10
4.308
 20
153.2622950819672
 30
0.0
 11
6.125976
 21
152.21039698947712
 31
0.0
  0
LINE
  5
4CD
330
17
100
AcDbEntity
  8
TOP
100
AcDbLine
 10
6.798024
 20
152.21039698947712
 30
0.0
 11
8.616
 21
153.2622950819672
 31
0.0
  0
LINE
  5
4CE
330
17
100
AcDbEntity
  8
TOP
100
AcDbLine
 10
8.616
 20
153.2622950819672
 30
0.0
 11
10.433976
 21
152.21039698947712
 31
0.0
  0
LINE
  5
4CF
330
17
100
AcDbEntity
  8
TOP
100
AcDbLine
 10
11.106024
 20
152.21039698947712
 30
0.0
 11
12.924
 21
153.2622950819672
 31
0.0
  0
LINE
  5
4D0
330
17
100
AcDbEntity
  8
TOP
100
AcDbLine
 10
12.924
 20
153.2622950819672
 30
0.0
 11
14.741976
 21
152.21039698947712
 31
0.0
  0
LINE
  5
4D1
330
17
100
AcDbEntity
  8
TOP
100
AcDbLine
 10
15.414024
 20
152.21039698947712
 30
0.0
 11
17.232
 21
153.2622950819672
 31
0.0
  0
LINE
  5
4D2
330
17
100
AcDbEntity
  8
TOP
100
AcDbLine
 10
17.232
 20
153.2622950819672
 30
0.0
 11
19.049976
 21
152.21039698947712
 31
0.0
  0
LINE
  5
4D3
330
17
100
AcDbEntity
  8
TOP
100
AcDbLine
 10
19.722023999999998
 20
152.21039698947712
 30
0.0
 11
21.54
 21
153.2622950819672
 31
0.0
  0
LINE
  5
4D4
330
17
100
AcDbEntity
  8
TOP
100
AcDbLine
 10
0.336024
 20
153.45629862882137
 30
0.0
 11
2.154
 21
154.5081967213115
 31
0.0
  0
LINE
  5
4D5
330
17
100
AcDbEntity
  8
TOP
100
AcDbLine
 10
2.154
 20
154.5081967213115
 30
0.0
 11
3.9719759999999997
 21
153.45629862882137
 31
0.0
  0
LINE
  5
4D6
330
17
100
AcDbEntity
  8
TOP
100
AcDbLine
 10
4.644024
 20
153.45629862882137
 30
0.0
 11
6.462
 21
154.5081967213115
 31
0.0
  0
LINE
  5
4D7
330
17
100
AcDbEntity
  8
TOP
100
AcDbLine
 10
6.462
 20
154.5081967213115
 30
0.0
 11
8.279976
 21
153.45629862882137
 31
0.0
  0
LINE
  5
4D8
330
17
100
AcDbEntity
  8
TOP
100
AcDbLine
 10
8.952024
 20
153.45629862882137
 30
0.0
 11
10.77
 21
154.5081967213115
 31
0.0
  0
LINE
  5
4D9
330
17
100
AcDbEntity
  8
TOP
100
AcDbLine
 10
10.77
 20
154.5081967213115
 30
0.0
 11
12.587976
 21
153.45629862882137
 31
0.0
  0
LINE
  5
4DA
330
17
100
AcDbEntity
  8
TOP
100
AcDbLine
 10
13.260024
 20
153.45629862882137
 30
0.0
 11
15.078
 21
154.5081967213115
 31
0.0
  0
LINE
  5
4DB
330
17
100
AcDbEntity
  8
TOP
100
AcDbLine
 10
15.078
 20
154.5081967213115
 30
0.0
 11
16.895976
 21
153.45629862882137
 31
0.0
  0
LINE
  5
4DC
330
17
100
AcDbEntity
  8
TOP
100
AcDbLine
 10
17.568023999999998
 20
153.45629862882137
 30
0.0
 11
19.386
 21
154.5081967213115
 31
0.0
  0
LINE
  5
4DD
330
17
100
AcDbEntity
  8
TOP
100
AcDbLine
 10
19.386
 20
154.5081967213115
 30
0.0
 11
21.203976
 21
153.45629862882137
 31
0.0
  0
LINE
  5
4DE
330
17
100
AcDbEntity
  8
TOP
100
AcDbLine
 10
0.0
 20
155.75409836065575
 30
0.0
 11
1.8179759999999998
 21
154.70220026816565
 31
0.0
  0
LINE
  5
4DF
330
17
100
AcDbEntity
  8
TOP
100
AcDbLine
 10
2.490024
 20
154.70220026816565
 30
0.0
 11
4.308
 21
155.75409836065575
 31
0.0
  0
LINE
  5
4E0
330
17
100
AcDbEntity
  8
TOP
100
AcDbLine
 10
4.308
 20
155.75409836065575
 30
0.0
 11
6.125976
 21
154.70220026816565
 31
0.0
  0
LINE
  5
4E1
330
17
100
AcDbEntity
  8
TOP
100
AcDbLine
 10
6.798024
 20
154.70220026816565
 30
0.0
 11
8.616
 21
155.75409836065575
 31
0.0
  0
LINE
  5
4E2
330
17
100
AcDbEntity
  8
TOP
100
AcDbLine
 10
8.616
 20
155.75409836065575
 30
0.0
 11
10.433976
 21
154.70220026816565
 31
0.0
  0
LINE
  5
4E3
330
17
100
AcDbEntity
  8
TOP
100
AcDbLine
 10
11.106024
 20
154.70220026816565
 30
0.0
 11
12.924
 21
155.75409836065575
 31
0.0
  0
LINE
  5
4E4
330
17
100
AcDbEntity
  8
TOP
100
AcDbLine
 10
12.924
 20
155.75409836065575
 30
0.0
 11
14.741976
 21
154.70220026816565
 31
0.0
  0
LINE
  5
4E5
330
17
100
AcDbEntity
  8
TOP
100
AcDbLine
 10
15.414024
 20
154.70220026816565
 30
0.0
 11
17.232
 21
155.75409836065575
 31
0.0
  0
LINE
  5
4E6
330
17
100
AcDbEntity
  8
TOP
100
AcDbLine
 10
17.232
 20
155.75409836065575
 30
0.0
 11
19.049976
 21
154.70220026816565
 31
0.0
  0
LINE
  5
4E7
330
17
100
AcDbEntity
  8
TOP
100
AcDbLine
 10
19.722023999999998
 20
154.70220026816565
 30
0.0
 11
21.54
 21
155.75409836065575
 31
0.0
  0
LINE
  5
4E8
330
17
100
AcDbEntity
  8
TOP
100
AcDbLine
 10
0.336024
 20
155.9481019075099
 30
0.0
 11
2.154
 21
157.0
 31
0.0
  0
LINE
  5
4E9
330
17
100
AcDbEntity
  8
TOP
100
AcDbLine
 10
2.154
 20
157.0
 30
0.0
 11
3.9719759999999997
 21
155.9481019075099
 31
0.0
  0
LINE
  5
4EA
330
17
100
AcDbEntity
  8
TOP
100
AcDbLine
 10
4.644024
 20
155.9481019075099
 30
0.0
 11
6.462
 21
157.0
 31
0.0
  0
LINE
  5
4EB
330
17
100
AcDbEntity
  8
TOP
100
AcDbLine
 10
6.462
 20
157.0
 30
0.0
 11
8.279976
 21
155.9481019075099
 31
0.0
  0
LINE
  5
4EC
330
17
100
AcDbEntity
  8
TOP
100
AcDbLine
 10
8.952024
 20
155.9481019075099
 30
0.0
 11
10.77
 21
157.0
 31
0.0
  0
LINE
  5
4ED
330
17
100
AcDbEntity
  8
TOP
100
AcDbLine
 10
10.77
 20
157.0
 30
0.0
 11
12.587976
 21
155.9481019075099
 31
0.0
  0
LINE
  5
4EE
330
17
100
AcDbEntity
  8
TOP
100
AcDbLine
 10
13.260024
 20
155.9481019075099
 30
0.0
 11
15.078
 21
157.0
 31
0.0
  0
LINE
  5
4EF
330
17
100
AcDbEntity
  8
TOP
100
AcDbLine
 10
15.078
 20
157.0
 30
0.0
 11
16.895976
 21
155.9481019075099
 31
0.0
  0
LINE
  5
4F0
330
17
100
AcDbEntity
  8
TOP
100
AcDbLine
 10
17.568023999999998
 20
155.9481019075099
 30
0.0
 11
19.386
 21
157.0
 31
0.0
  0
LINE
  5
4F1
330
17
100
AcDbEntity
  8
TOP
100
AcDbLine
 10
19.386
 20
157.0
 30
0.0
 11
21.203976
 21
155.9481019075099
 31
0.0
  0
POLYLINE
  5
4F2
330
17
100
AcDbEntity
  8
TOP
100
AcDb2dPolyline
 66
1
 10
0.0
 20
0.0
 30
0.0
 70
1
  0
VERTEX
  5
4F4
330
17
100
AcDbEntity
  8
TOP
100
AcDbVertex
100
AcDb2dVertex
 10
0.0
 20
0.0
 30
0.0
 70
0
  0
VERTEX
  5
4F5
330
17
100
AcDbEntity
  8
TOP
100
AcDbVertex
100
AcDb2dVertex
 10
0.0
 20
162.0
 30
0.0
 70
0
  0
VERTEX
  5
4F6
330
17
100
AcDbEntity
  8
TOP
100
AcDbVertex
100
AcDb2dVertex
 10
21.54
 20
162.0
 30
0.0
 70
0
  0
VERTEX
  5
4F7
330
17
100
AcDbEntity
  8
TOP
100
AcDbVertex
100
AcDb2dVertex
 10
21.54
 20
0.0
 30
0.0
 70
0
  0
SEQEND
  5
4F3
330
17
100
AcDbEntity
  8
TOP
  0
ENDSEC
  0
SECTION
  2
OBJECTS
  0
DICTIONARY
  5
A
330
0
100
AcDbDictionary
281
1
  3
ACAD_COLOR
350
B
  3
ACAD_GROUP
350
C
  3
ACAD_LAYOUT
350
D
  3
ACAD_MATERIAL
350
E
  3
ACAD_MLEADERSTYLE
350
F
  3
ACAD_MLINESTYLE
350
10
  3
ACAD_PLOTSETTINGS
350
11
  3
ACAD_PLOTSTYLENAME
350
12
  3
ACAD_SCALELIST
350
14
  3
ACAD_TABLESTYLE
350
15
  3
ACAD_VISUALSTYLE
350
16
  0
DICTIONARY
  5
B
330
A
100
AcDbDictionary
281
1
  0
DICTIONARY
  5
C
330
A
100
AcDbDictionary
281
1
  0
DICTIONARY
  5
D
330
A
100
AcDbDictionary
281
1
  3
Model
350
1A
  3
Layout1
350
1E
  0
DICTIONARY
  5
E
330
A
100
AcDbDictionary
281
1
  3
ByBlock
350
1F
  3
ByLayer
350
20
  3
Global
350
21
  0
DICTIONARY
  5
F
330
A
100
AcDbDictionary
281
1
  3
Standard
350
2C
  0
DICTIONARY
  5
10
330
A
100
AcDbDictionary
281
1
  3
Standard
350
22
  0
DICTIONARY
  5
11
330
A
100
AcDbDictionary
281
1
  0
ACDBDICTIONARYWDFLT
  5
12
330
A
100
AcDbDictionary
281
1
  3
Normal
350
13
100
AcDbDictionaryWithDefault
340
13
  0
ACDBPLACEHOLDER
  5
13
330
12
  0
DICTIONARY
  5
14
330
A
100
AcDbDictionary
281
1
  0
DICTIONARY
  5
15
330
A
100
AcDbDictionary
281
1
  0
DICTIONARY
  5
16
330
A
100
AcDbDictionary
281
1
  0
LAYOUT
  5
1A
330
D
100
AcDbPlotSettings
  1

  2
Adobe PDF
  4
A3
  6

 40
7.5
 41
20.0
 42
7.5
 43
20.0
 44
420.0
 45
297.0
 46
0.0
 47
0.0
 48
0.0
 49
0.0
140
0.0
141
0.0
142
1.0
143
1.0
 70
1024
 72
1
 73
1
 74
5
  7

 75
16
 76
0
 77
2
 78
300
147
1.0
148
0.0
149
0.0
100
AcDbLayout
  1
Model
 70
1
 71
0
 10
0.0
 20
0.0
 11
420.0
 21
297.0
 12
0.0
 22
0.0
 32
0.0
 14
1e+20
 24
1e+20
 34
1e+20
 15
-1e+20
 25
-1e+20
 35
-1e+20
146
0.0
 13
0.0
 23
0.0
 33
0.0
 16
1.0
 26
0.0
 36
0.0
 17
0.0
 27
1.0
 37
0.0
 76
1
330
17
  0
LAYOUT
  5
1E
330
D
100
AcDbPlotSettings
  1

  2
Adobe PDF
  4
A3
  6

 40
7.5
 41
20.0
 42
7.5
 43
20.0
 44
420.0
 45
297.0
 46
0.0
 47
0.0
 48
0.0
 49
0.0
140
0.0
141
0.0
142
1.0
143
1.0
 70
0
 72
1
 73
1
 74
5
  7

 75
16
 76
0
 77
2
 78
300
147
1.0
148
0.0
149
0.0
100
AcDbLayout
  1
Layout1
 70
1
 71
1
 10
0.0
 20
0.0
 11
420.0
 21
297.0
 12
0.0
 22
0.0
 32
0.0
 14
1e+20
 24
1e+20
 34
1e+20
 15
-1e+20
 25
-1e+20
 35
-1e+20
146
0.0
 13
0.0
 23
0.0
 33
0.0
 16
1.0
 26
0.0
 36
0.0
 17
0.0
 27
1.0
 37
0.0
 76
1
330
1B
  0
MATERIAL
  5
1F
102
{ACAD_REACTORS
330
E
102
}
330
E
100
AcDbMaterial
  1
ByBlock
  2

 70
0
 40
1.0
 71
1
 41
1.0
 91
-1023410177
 42
1.0
 72
1
  3

 73
1
 74
1
 75
1
 44
0.5
 73
0
 45
1.0
 46
1.0
 77
1
  4

 78
1
 79
1
170
1
 48
1.0
171
1
  6

172
1
173
1
174
1
140
1.0
141
1.0
175
1
  7

176
1
177
1
178
1
143
1.0
179
1
  8

270
1
271
1
272
1
145
1.0
146
1.0
273
1
  9

274
1
275
1
276
1
 42
1.0
 72
1
  3

 73
1
 74
1
 75
1
 94
63
  0
MATERIAL
  5
20
102
{ACAD_REACTORS
330
E
102
}
330
E
100
AcDbMaterial
  1
ByLayer
  2

 70
0
 40
1.0
 71
1
 41
1.0
 91
-1023410177
 42
1.0
 72
1
  3

 73
1
 74
1
 75
1
 44
0.5
 73
0
 45
1.0
 46
1.0
 77
1
  4

 78
1
 79
1
170
1
 48
1.0
171
1
  6

172
1
173
1
174
1
140
1.0
141
1.0
175
1
  7

176
1
177
1
178
1
143
1.0
179
1
  8

270
1
271
1
272
1
145
1.0
146
1.0
273
1
  9

274
1
275
1
276
1
 42
1.0
 72
1
  3

 73
1
 74
1
 75
1
 94
63
  0
MATERIAL
  5
21
102
{ACAD_REACTORS
330
E
102
}
330
E
100
AcDbMaterial
  1
Global
  2

 70
0
 40
1.0
 71
1
 41
1.0
 91
-1023410177
 42
1.0
 72
1
  3

 73
1
 74
1
 75
1
 44
0.5
 73
0
 45
1.0
 46
1.0
 77
1
  4

 78
1
 79
1
170
1
 48
1.0
171
1
  6

172
1
173
1
174
1
140
1.0
141
1.0
175
1
  7

176
1
177
1
178
1
143
1.0
179
1
  8

270
1
271
1
272
1
145
1.0
146
1.0
273
1
  9

274
1
275
1
276
1
 42
1.0
 72
1
  3

 73
1
 74
1
 75
1
 94
63
  0
MLINESTYLE
  5
22
102
{ACAD_REACTORS
330
10
102
}
330
10
100
AcDbMlineStyle
  2
Standard
 70
0
  3

 62
256
 51
90.0
 52
90.0
 71
2
 49
0.5
 62
256
  6
BYLAYER
 49
-0.5
 62
256
  6
BYLAYER
  0
MLEADERSTYLE
  5
2C
102
{ACAD_REACTORS
330
F
102
}
330
F
100
AcDbMLeaderStyle
179
2
170
2
171
1
172
0
 90
2
 40
0.0
 41
0.0
173
1
 91
-1056964608
 92
-2
290
1
 42
2.0
291
1
 43
8.0
  3
Standard
 44
4.0
300

342
29
174
1
175
1
176
0
178
1
 93
-1056964608
 45
4.0
292
0
297
0
 46
4.0
 94
-1056964608
 47
1.0
 49
1.0
140
1.0
294
1
141
0.0
177
0
142
1.0
295
0
296
0
143
3.75
271
0
272
9
273
9
  0
ENDSEC
  0
EOF
