<?xml version="1.0" encoding="utf-8" ?>
<svg baseProfile="tiny" height="100%" version="1.2" width="100%" xmlns="http://www.w3.org/2000/svg" xmlns:ev="http://www.w3.org/2001/xml-events" xmlns:xlink="http://www.w3.org/1999/xlink"><defs /><line stroke="rgb(255,0,0)" stroke-width="0.02" x1="2.5" x2="4.188" y1="6.1622" y2="5.1801" /><line stroke="rgb(255,0,0)" stroke-width="0.02" x1="4.812" x2="6.5" y1="5.1801" y2="6.1622" /><line stroke="rgb(255,0,0)" stroke-width="0.02" x1="6.5" x2="8.188" y1="6.1622" y2="5.1801" /><line stroke="rgb(255,0,0)" stroke-width="0.02" x1="8.812" x2="10.5" y1="5.1801" y2="6.1622" /><line stroke="rgb(255,0,0)" stroke-width="0.02" x1="2.812" x2="4.5" y1="6.3423" y2="7.3243" /><line stroke="rgb(255,0,0)" stroke-width="0.02" x1="4.5" x2="6.188" y1="7.3243" y2="6.3423" /><line stroke="rgb(255,0,0)" stroke-width="0.02" x1="6.812" x2="8.5" y1="6.3423" y2="7.3243" /><line stroke="rgb(255,0,0)" stroke-width="0.02" x1="8.5" x2="10.188" y1="7.3243" y2="6.3423" /><line stroke="rgb(255,0,0)" stroke-width="0.02" x1="2.5" x2="4.188" y1="8.4865" y2="7.5045" /><line stroke="rgb(255,0,0)" stroke-width="0.02" x1="4.812" x2="6.5" y1="7.5045" y2="8.4865" /><line stroke="rgb(255,0,0)" stroke-width="0.02" x1="6.5" x2="8.188" y1="8.4865" y2="7.5045" /><line stroke="rgb(255,0,0)" stroke-width="0.02" x1="8.812" x2="10.5" y1="7.5045" y2="8.4865" /><line stroke="rgb(255,0,0)" stroke-width="0.02" x1="2.812" x2="4.5" y1="8.6666" y2="9.6486" /><line stroke="rgb(255,0,0)" stroke-width="0.02" x1="4.5" x2="6.188" y1="9.6486" y2="8.6666" /><line stroke="rgb(255,0,0)" stroke-width="0.02" x1="6.812" x2="8.5" y1="8.6666" y2="9.6486" /><line stroke="rgb(255,0,0)" stroke-width="0.02" x1="8.5" x2="10.188" y1="9.6486" y2="8.6666" /><line stroke="rgb(255,0,0)" stroke-width="0.02" x1="2.5" x2="4.188" y1="10.8108" y2="9.8288" /><line stroke="rgb(255,0,0)" stroke-width="0.02" x1="4.812" x2="6.5" y1="9.8288" y2="10.8108" /><line stroke="rgb(255,0,0)" stroke-width="0.02" x1="6.5" x2="8.188" y1="10.8108" y2="9.8288" /><line stroke="rgb(255,0,0)" stroke-width="0.02" x1="8.812" x2="10.5" y1="9.8288" y2="10.8108" /><line stroke="rgb(255,0,0)" stroke-width="0.02" x1="2.812" x2="4.5" y1="10.9909" y2="11.973" /><line stroke="rgb(255,0,0)" stroke-width="0.02" x1="4.5" x2="6.188" y1="11.973" y2="10.9909" /><line stroke="rgb(255,0,0)" stroke-width="0.02" x1="6.812" x2="8.5" y1="10.9909" y2="11.973" /><line stroke="rgb(255,0,0)" stroke-width="0.02" x1="8.5" x2="10.188" y1="11.973" y2="10.9909" /><line stroke="rgb(255,0,0)" stroke-width="0.02" x1="2.5" x2="4.188" y1="13.1351" y2="12.1531" /><line stroke="rgb(255,0,0)" stroke-width="0.02" x1="4.812" x2="6.5" y1="12.1531" y2="13.1351" /><line stroke="rgb(255,0,0)" stroke-width="0.02" x1="6.5" x2="8.188" y1="13.1351" y2="12.1531" /><line stroke="rgb(255,0,0)" stroke-width="0.02" x1="8.812" x2="10.5" y1="12.1531" y2="13.1351" /><line stroke="rgb(255,0,0)" stroke-width="0.02" x1="2.812" x2="4.5" y1="13.3153" y2="14.2973" /><line stroke="rgb(255,0,0)" stroke-width="0.02" x1="4.5" x2="6.188" y1="14.2973" y2="13.3153" /><line stroke="rgb(255,0,0)" stroke-width="0.02" x1="6.812" x2="8.5" y1="13.3153" y2="14.2973" /><line stroke="rgb(255,0,0)" stroke-width="0.02" x1="8.5" x2="10.188" y1="14.2973" y2="13.3153" /><line stroke="rgb(255,0,0)" stroke-width="0.02" x1="2.5" x2="4.188" y1="15.4595" y2="14.4774" /><line stroke="rgb(255,0,0)" stroke-width="0.02" x1="4.812" x2="6.5" y1="14.4774" y2="15.4595" /><line stroke="rgb(255,0,0)" stroke-width="0.02" x1="6.5" x2="8.188" y1="15.4595" y2="14.4774" /><line stroke="rgb(255,0,0)" stroke-width="0.02" x1="8.812" x2="10.5" y1="14.4774" y2="15.4595" /><line stroke="rgb(255,0,0)" stroke-width="0.02" x1="2.812" x2="4.5" y1="15.6396" y2="16.6216" /><line stroke="rgb(255,0,0)" stroke-width="0.02" x1="4.5" x2="6.188" y1="16.6216" y2="15.6396" /><line stroke="rgb(255,0,0)" stroke-width="0.02" x1="6.812" x2="8.5" y1="15.6396" y2="16.6216" /><line stroke="rgb(255,0,0)" stroke-width="0.02" x1="8.5" x2="10.188" y1="16.6216" y2="15.6396" /><line stroke="rgb(255,0,0)" stroke-width="0.02" x1="2.5" x2="4.188" y1="17.7838" y2="16.8018" /><line stroke="rgb(255,0,0)" stroke-width="0.02" x1="4.812" x2="6.5" y1="16.8018" y2="17.7838" /><line stroke="rgb(255,0,0)" stroke-width="0.02" x1="6.5" x2="8.188" y1="17.7838" y2="16.8018" /><line stroke="rgb(255,0,0)" stroke-width="0.02" x1="8.812" x2="10.5" y1="16.8018" y2="17.7838" /><line stroke="rgb(255,0,0)" stroke-width="0.02" x1="2.812" x2="4.5" y1="17.9639" y2="18.9459" /><line stroke="rgb(255,0,0)" stroke-width="0.02" x1="4.5" x2="6.188" y1="18.9459" y2="17.9639" /><line stroke="rgb(255,0,0)" stroke-width="0.02" x1="6.812" x2="8.5" y1="17.9639" y2="18.9459" /><line stroke="rgb(255,0,0)" stroke-width="0.02" x1="8.5" x2="10.188" y1="18.9459" y2="17.9639" /><line stroke="rgb(255,0,0)" stroke-width="0.02" x1="2.5" x2="4.188" y1="20.1081" y2="19.1261" /><line stroke="rgb(255,0,0)" stroke-width="0.02" x1="4.812" x2="6.5" y1="19.1261" y2="20.1081" /><line stroke="rgb(255,0,0)" stroke-width="0.02" x1="6.5" x2="8.188" y1="20.1081" y2="19.1261" /><line stroke="rgb(255,0,0)" stroke-width="0.02" x1="8.812" x2="10.5" y1="19.1261" y2="20.1081" /><line stroke="rgb(255,0,0)" stroke-width="0.02" x1="2.812" x2="4.5" y1="20.2882" y2="21.2703" /><line stroke="rgb(255,0,0)" stroke-width="0.02" x1="4.5" x2="6.188" y1="21.2703" y2="20.2882" /><line stroke="rgb(255,0,0)" stroke-width="0.02" x1="6.812" x2="8.5" y1="20.2882" y2="21.2703" /><line stroke="rgb(255,0,0)" stroke-width="0.02" x1="8.5" x2="10.188" y1="21.2703" y2="20.2882" /><line stroke="rgb(255,0,0)" stroke-width="0.02" x1="2.5" x2="4.188" y1="22.4324" y2="21.4504" /><line stroke="rgb(255,0,0)" stroke-width="0.02" x1="4.812" x2="6.5" y1="21.4504" y2="22.4324" /><line stroke="rgb(255,0,0)" stroke-width="0.02" x1="6.5" x2="8.188" y1="22.4324" y2="21.4504" /><line stroke="rgb(255,0,0)" stroke-width="0.02" x1="8.812" x2="10.5" y1="21.4504" y2="22.4324" /><line stroke="rgb(255,0,0)" stroke-width="0.02" x1="2.812" x2="4.5" y1="22.6126" y2="23.5946" /><line stroke="rgb(255,0,0)" stroke-width="0.02" x1="4.5" x2="6.188" y1="23.5946" y2="22.6126" /><line stroke="rgb(255,0,0)" stroke-width="0.02" x1="6.812" x2="8.5" y1="22.6126" y2="23.5946" /><line stroke="rgb(255,0,0)" stroke-width="0.02" x1="8.5" x2="10.188" y1="23.5946" y2="22.6126" /><line stroke="rgb(255,0,0)" stroke-width="0.02" x1="2.5" x2="4.188" y1="24.7568" y2="23.7747" /><line stroke="rgb(255,0,0)" stroke-width="0.02" x1="4.812" x2="6.5" y1="23.7747" y2="24.7568" /><line stroke="rgb(255,0,0)" stroke-width="0.02" x1="6.5" x2="8.188" y1="24.7568" y2="23.7747" /><line stroke="rgb(255,0,0)" stroke-width="0.02" x1="8.812" x2="10.5" y1="23.7747" y2="24.7568" /><line stroke="rgb(255,0,0)" stroke-width="0.02" x1="2.812" x2="4.5" y1="24.9369" y2="25.9189" /><line stroke="rgb(255,0,0)" stroke-width="0.02" x1="4.5" x2="6.188" y1="25.9189" y2="24.9369" /><line stroke="rgb(255,0,0)" stroke-width="0.02" x1="6.812" x2="8.5" y1="24.9369" y2="25.9189" /><line stroke="rgb(255,0,0)" stroke-width="0.02" x1="8.5" x2="10.188" y1="25.9189" y2="24.9369" /><line stroke="rgb(255,0,0)" stroke-width="0.02" x1="2.5" x2="4.188" y1="27.0811" y2="26.0991" /><line stroke="rgb(255,0,0)" stroke-width="0.02" x1="4.812" x2="6.5" y1="26.0991" y2="27.0811" /><line stroke="rgb(255,0,0)" stroke-width="0.02" x1="6.5" x2="8.188" y1="27.0811" y2="26.0991" /><line stroke="rgb(255,0,0)" stroke-width="0.02" x1="8.812" x2="10.5" y1="26.0991" y2="27.0811" /><line stroke="rgb(255,0,0)" stroke-width="0.02" x1="2.812" x2="4.5" y1="27.2612" y2="28.2432" /><line stroke="rgb(255,0,0)" stroke-width="0.02" x1="4.5" x2="6.188" y1="28.2432" y2="27.2612" /><line stroke="rgb(255,0,0)" stroke-width="0.02" x1="6.812" x2="8.5" y1="27.2612" y2="28.2432" /><line stroke="rgb(255,0,0)" stroke-width="0.02" x1="8.5" x2="10.188" y1="28.2432" y2="27.2612" /><line stroke="rgb(255,0,0)" stroke-width="0.02" x1="2.5" x2="4.188" y1="29.4054" y2="28.4234" /><line stroke="rgb(255,0,0)" stroke-width="0.02" x1="4.812" x2="6.5" y1="28.4234" y2="29.4054" /><line stroke="rgb(255,0,0)" stroke-width="0.02" x1="6.5" x2="8.188" y1="29.4054" y2="28.4234" /><line stroke="rgb(255,0,0)" stroke-width="0.02" x1="8.812" x2="10.5" y1="28.4234" y2="29.4054" /><line stroke="rgb(255,0,0)" stroke-width="0.02" x1="2.812" x2="4.5" y1="29.5855" y2="30.5676" /><line stroke="rgb(255,0,0)" stroke-width="0.02" x1="4.5" x2="6.188" y1="30.5676" y2="29.5855" /><line stroke="rgb(255,0,0)" stroke-width="0.02" x1="6.812" x2="8.5" y1="29.5855" y2="30.5676" /><line stroke="rgb(255,0,0)" stroke-width="0.02" x1="8.5" x2="10.188" y1="30.5676" y2="29.5855" /><line stroke="rgb(255,0,0)" stroke-width="0.02" x1="2.5" x2="4.188" y1="31.7297" y2="30.7477" /><line stroke="rgb(255,0,0)" stroke-width="0.02" x1="4.812" x2="6.5" y1="30.7477" y2="31.7297" /><line stroke="rgb(255,0,0)" stroke-width="0.02" x1="6.5" x2="8.188" y1="31.7297" y2="30.7477" /><line stroke="rgb(255,0,0)" stroke-width="0.02" x1="8.812" x2="10.5" y1="30.7477" y2="31.7297" /><line stroke="rgb(255,0,0)" stroke-width="0.02" x1="2.812" x2="4.5" y1="31.9099" y2="32.8919" /><line stroke="rgb(255,0,0)" stroke-width="0.02" x1="4.5" x2="6.188" y1="32.8919" y2="31.9099" /><line stroke="rgb(255,0,0)" stroke-width="0.02" x1="6.812" x2="8.5" y1="31.9099" y2="32.8919" /><line stroke="rgb(255,0,0)" stroke-width="0.02" x1="8.5" x2="10.188" y1="32.8919" y2="31.9099" /><line stroke="rgb(255,0,0)" stroke-width="0.02" x1="2.5" x2="4.188" y1="34.0541" y2="33.072" /><line stroke="rgb(255,0,0)" stroke-width="0.02" x1="4.812" x2="6.5" y1="33.072" y2="34.0541" /><line stroke="rgb(255,0,0)" stroke-width="0.02" x1="6.5" x2="8.188" y1="34.0541" y2="33.072" /><line stroke="rgb(255,0,0)" stroke-width="0.02" x1="8.812" x2="10.5" y1="33.072" y2="34.0541" /><line stroke="rgb(255,0,0)" stroke-width="0.02" x1="2.812" x2="4.5" y1="34.2342" y2="35.2162" /><line stroke="rgb(255,0,0)" stroke-width="0.02" x1="4.5" x2="6.188" y1="35.2162" y2="34.2342" /><line stroke="rgb(255,0,0)" stroke-width="0.02" x1="6.812" x2="8.5" y1="34.2342" y2="35.2162" /><line stroke="rgb(255,0,0)" stroke-width="0.02" x1="8.5" x2="10.188" y1="35.2162" y2="34.2342" /><line stroke="rgb(255,0,0)" stroke-width="0.02" x1="2.5" x2="4.188" y1="36.3784" y2="35.3963" /><line stroke="rgb(255,0,0)" stroke-width="0.02" x1="4.812" x2="6.5" y1="35.3963" y2="36.3784" /><line stroke="rgb(255,0,0)" stroke-width="0.02" x1="6.5" x2="8.188" y1="36.3784" y2="35.3963" /><line stroke="rgb(255,0,0)" stroke-width="0.02" x1="8.812" x2="10.5" y1="35.3963" y2="36.3784" /><line stroke="rgb(255,0,0)" stroke-width="0.02" x1="2.812" x2="4.5" y1="36.5585" y2="37.5405" /><line stroke="rgb(255,0,0)" stroke-width="0.02" x1="4.5" x2="6.188" y1="37.5405" y2="36.5585" /><line stroke="rgb(255,0,0)" stroke-width="0.02" x1="6.812" x2="8.5" y1="36.5585" y2="37.5405" /><line stroke="rgb(255,0,0)" stroke-width="0.02" x1="8.5" x2="10.188" y1="37.5405" y2="36.5585" /><line stroke="rgb(255,0,0)" stroke-width="0.02" x1="2.5" x2="4.188" y1="38.7027" y2="37.7207" /><line stroke="rgb(255,0,0)" stroke-width="0.02" x1="4.812" x2="6.5" y1="37.7207" y2="38.7027" /><line stroke="rgb(255,0,0)" stroke-width="0.02" x1="6.5" x2="8.188" y1="38.7027" y2="37.7207" /><line stroke="rgb(255,0,0)" stroke-width="0.02" x1="8.812" x2="10.5" y1="37.7207" y2="38.7027" /><line stroke="rgb(255,0,0)" stroke-width="0.02" x1="2.812" x2="4.5" y1="38.8828" y2="39.8649" /><line stroke="rgb(255,0,0)" stroke-width="0.02" x1="4.5" x2="6.188" y1="39.8649" y2="38.8828" /><line stroke="rgb(255,0,0)" stroke-width="0.02" x1="6.812" x2="8.5" y1="38.8828" y2="39.8649" /><line stroke="rgb(255,0,0)" stroke-width="0.02" x1="8.5" x2="10.188" y1="39.8649" y2="38.8828" /><line stroke="rgb(255,0,0)" stroke-width="0.02" x1="2.5" x2="4.188" y1="41.027" y2="40.045" /><line stroke="rgb(255,0,0)" stroke-width="0.02" x1="4.812" x2="6.5" y1="40.045" y2="41.027" /><line stroke="rgb(255,0,0)" stroke-width="0.02" x1="6.5" x2="8.188" y1="41.027" y2="40.045" /><line stroke="rgb(255,0,0)" stroke-width="0.02" x1="8.812" x2="10.5" y1="40.045" y2="41.027" /><line stroke="rgb(255,0,0)" stroke-width="0.02" x1="2.812" x2="4.5" y1="41.2072" y2="42.1892" /><line stroke="rgb(255,0,0)" stroke-width="0.02" x1="4.5" x2="6.188" y1="42.1892" y2="41.2072" /><line stroke="rgb(255,0,0)" stroke-width="0.02" x1="6.812" x2="8.5" y1="41.2072" y2="42.1892" /><line stroke="rgb(255,0,0)" stroke-width="0.02" x1="8.5" x2="10.188" y1="42.1892" y2="41.2072" /><line stroke="rgb(255,0,0)" stroke-width="0.02" x1="2.5" x2="4.188" y1="43.3514" y2="42.3693" /><line stroke="rgb(255,0,0)" stroke-width="0.02" x1="4.812" x2="6.5" y1="42.3693" y2="43.3514" /><line stroke="rgb(255,0,0)" stroke-width="0.02" x1="6.5" x2="8.188" y1="43.3514" y2="42.3693" /><line stroke="rgb(255,0,0)" stroke-width="0.02" x1="8.812" x2="10.5" y1="42.3693" y2="43.3514" /><line stroke="rgb(255,0,0)" stroke-width="0.02" x1="2.812" x2="4.5" y1="43.5315" y2="44.5135" /><line stroke="rgb(255,0,0)" stroke-width="0.02" x1="4.5" x2="6.188" y1="44.5135" y2="43.5315" /><line stroke="rgb(255,0,0)" stroke-width="0.02" x1="6.812" x2="8.5" y1="43.5315" y2="44.5135" /><line stroke="rgb(255,0,0)" stroke-width="0.02" x1="8.5" x2="10.188" y1="44.5135" y2="43.5315" /><line stroke="rgb(255,0,0)" stroke-width="0.02" x1="2.5" x2="4.188" y1="45.6757" y2="44.6936" /><line stroke="rgb(255,0,0)" stroke-width="0.02" x1="4.812" x2="6.5" y1="44.6936" y2="45.6757" /><line stroke="rgb(255,0,0)" stroke-width="0.02" x1="6.5" x2="8.188" y1="45.6757" y2="44.6936" /><line stroke="rgb(255,0,0)" stroke-width="0.02" x1="8.812" x2="10.5" y1="44.6936" y2="45.6757" /><line stroke="rgb(255,0,0)" stroke-width="0.02" x1="2.812" x2="4.5" y1="45.8558" y2="46.8378" /><line stroke="rgb(255,0,0)" stroke-width="0.02" x1="4.5" x2="6.188" y1="46.8378" y2="45.8558" /><line stroke="rgb(255,0,0)" stroke-width="0.02" x1="6.812" x2="8.5" y1="45.8558" y2="46.8378" /><line stroke="rgb(255,0,0)" stroke-width="0.02" x1="8.5" x2="10.188" y1="46.8378" y2="45.8558" /><line stroke="rgb(255,0,0)" stroke-width="0.02" x1="2.5" x2="4.188" y1="48.0" y2="47.018" /><line stroke="rgb(255,0,0)" stroke-width="0.02" x1="4.812" x2="6.5" y1="47.018" y2="48.0" /><line stroke="rgb(255,0,0)" stroke-width="0.02" x1="6.5" x2="8.188" y1="48.0" y2="47.018" /><line stroke="rgb(255,0,0)" stroke-width="0.02" x1="8.812" x2="10.5" y1="47.018" y2="48.0" /><line stroke="rgb(255,0,0)" stroke-width="0.02" x1="2.812" x2="4.5" y1="48.1801" y2="49.1622" /><line stroke="rgb(255,0,0)" stroke-width="0.02" x1="4.5" x2="6.188" y1="49.1622" y2="48.1801" /><line stroke="rgb(255,0,0)" stroke-width="0.02" x1="6.812" x2="8.5" y1="48.1801" y2="49.1622" /><line stroke="rgb(255,0,0)" stroke-width="0.02" x1="8.5" x2="10.188" y1="49.1622" y2="48.1801" /><line stroke="rgb(255,0,0)" stroke-width="0.02" x1="2.5" x2="4.188" y1="50.3243" y2="49.3423" /><line stroke="rgb(255,0,0)" stroke-width="0.02" x1="4.812" x2="6.5" y1="49.3423" y2="50.3243" /><line stroke="rgb(255,0,0)" stroke-width="0.02" x1="6.5" x2="8.188" y1="50.3243" y2="49.3423" /><line stroke="rgb(255,0,0)" stroke-width="0.02" x1="8.812" x2="10.5" y1="49.3423" y2="50.3243" /><line stroke="rgb(255,0,0)" stroke-width="0.02" x1="2.812" x2="4.5" y1="50.5045" y2="51.4865" /><line stroke="rgb(255,0,0)" stroke-width="0.02" x1="4.5" x2="6.188" y1="51.4865" y2="50.5045" /><line stroke="rgb(255,0,0)" stroke-width="0.02" x1="6.812" x2="8.5" y1="50.5045" y2="51.4865" /><line stroke="rgb(255,0,0)" stroke-width="0.02" x1="8.5" x2="10.188" y1="51.4865" y2="50.5045" /><line stroke="rgb(255,0,0)" stroke-width="0.02" x1="2.5" x2="4.188" y1="52.6486" y2="51.6666" /><line stroke="rgb(255,0,0)" stroke-width="0.02" x1="4.812" x2="6.5" y1="51.6666" y2="52.6486" /><line stroke="rgb(255,0,0)" stroke-width="0.02" x1="6.5" x2="8.188" y1="52.6486" y2="51.6666" /><line stroke="rgb(255,0,0)" stroke-width="0.02" x1="8.812" x2="10.5" y1="51.6666" y2="52.6486" /><line stroke="rgb(255,0,0)" stroke-width="0.02" x1="2.812" x2="4.5" y1="52.8288" y2="53.8108" /><line stroke="rgb(255,0,0)" stroke-width="0.02" x1="4.5" x2="6.188" y1="53.8108" y2="52.8288" /><line stroke="rgb(255,0,0)" stroke-width="0.02" x1="6.812" x2="8.5" y1="52.8288" y2="53.8108" /><line stroke="rgb(255,0,0)" stroke-width="0.02" x1="8.5" x2="10.188" y1="53.8108" y2="52.8288" /><line stroke="rgb(255,0,0)" stroke-width="0.02" x1="2.5" x2="4.188" y1="54.973" y2="53.9909" /><line stroke="rgb(255,0,0)" stroke-width="0.02" x1="4.812" x2="6.5" y1="53.9909" y2="54.973" /><line stroke="rgb(255,0,0)" stroke-width="0.02" x1="6.5" x2="8.188" y1="54.973" y2="53.9909" /><line stroke="rgb(255,0,0)" stroke-width="0.02" x1="8.812" x2="10.5" y1="53.9909" y2="54.973" /><line stroke="rgb(255,0,0)" stroke-width="0.02" x1="2.812" x2="4.5" y1="55.1531" y2="56.1351" /><line stroke="rgb(255,0,0)" stroke-width="0.02" x1="4.5" x2="6.188" y1="56.1351" y2="55.1531" /><line stroke="rgb(255,0,0)" stroke-width="0.02" x1="6.812" x2="8.5" y1="55.1531" y2="56.1351" /><line stroke="rgb(255,0,0)" stroke-width="0.02" x1="8.5" x2="10.188" y1="56.1351" y2="55.1531" /><line stroke="rgb(255,0,0)" stroke-width="0.02" x1="2.5" x2="4.188" y1="57.2973" y2="56.3153" /><line stroke="rgb(255,0,0)" stroke-width="0.02" x1="4.812" x2="6.5" y1="56.3153" y2="57.2973" /><line stroke="rgb(255,0,0)" stroke-width="0.02" x1="6.5" x2="8.188" y1="57.2973" y2="56.3153" /><line stroke="rgb(255,0,0)" stroke-width="0.02" x1="8.812" x2="10.5" y1="56.3153" y2="57.2973" /><line stroke="rgb(255,0,0)" stroke-width="0.02" x1="2.812" x2="4.5" y1="57.4774" y2="58.4595" /><line stroke="rgb(255,0,0)" stroke-width="0.02" x1="4.5" x2="6.188" y1="58.4595" y2="57.4774" /><line stroke="rgb(255,0,0)" stroke-width="0.02" x1="6.812" x2="8.5" y1="57.4774" y2="58.4595" /><line stroke="rgb(255,0,0)" stroke-width="0.02" x1="8.5" x2="10.188" y1="58.4595" y2="57.4774" /><line stroke="rgb(255,0,0)" stroke-width="0.02" x1="2.5" x2="4.188" y1="59.6216" y2="58.6396" /><line stroke="rgb(255,0,0)" stroke-width="0.02" x1="4.812" x2="6.5" y1="58.6396" y2="59.6216" /><line stroke="rgb(255,0,0)" stroke-width="0.02" x1="6.5" x2="8.188" y1="59.6216" y2="58.6396" /><line stroke="rgb(255,0,0)" stroke-width="0.02" x1="8.812" x2="10.5" y1="58.6396" y2="59.6216" /><line stroke="rgb(255,0,0)" stroke-width="0.02" x1="2.812" x2="4.5" y1="59.8018" y2="60.7838" /><line stroke="rgb(255,0,0)" stroke-width="0.02" x1="4.5" x2="6.188" y1="60.7838" y2="59.8018" /><line stroke="rgb(255,0,0)" stroke-width="0.02" x1="6.812" x2="8.5" y1="59.8018" y2="60.7838" /><line stroke="rgb(255,0,0)" stroke-width="0.02" x1="8.5" x2="10.188" y1="60.7838" y2="59.8018" /><line stroke="rgb(255,0,0)" stroke-width="0.02" x1="2.5" x2="4.188" y1="61.9459" y2="60.9639" /><line stroke="rgb(255,0,0)" stroke-width="0.02" x1="4.812" x2="6.5" y1="60.9639" y2="61.9459" /><line stroke="rgb(255,0,0)" stroke-width="0.02" x1="6.5" x2="8.188" y1="61.9459" y2="60.9639" /><line stroke="rgb(255,0,0)" stroke-width="0.02" x1="8.812" x2="10.5" y1="60.9639" y2="61.9459" /><line stroke="rgb(255,0,0)" stroke-width="0.02" x1="2.812" x2="4.5" y1="62.1261" y2="63.1081" /><line stroke="rgb(255,0,0)" stroke-width="0.02" x1="4.5" x2="6.188" y1="63.1081" y2="62.1261" /><line stroke="rgb(255,0,0)" stroke-width="0.02" x1="6.812" x2="8.5" y1="62.1261" y2="63.1081" /><line stroke="rgb(255,0,0)" stroke-width="0.02" x1="8.5" x2="10.188" y1="63.1081" y2="62.1261" /><line stroke="rgb(255,0,0)" stroke-width="0.02" x1="2.5" x2="4.188" y1="64.2703" y2="63.2882" /><line stroke="rgb(255,0,0)" stroke-width="0.02" x1="4.812" x2="6.5" y1="63.2882" y2="64.2703" /><line stroke="rgb(255,0,0)" stroke-width="0.02" x1="6.5" x2="8.188" y1="64.2703" y2="63.2882" /><line stroke="rgb(255,0,0)" stroke-width="0.02" x1="8.812" x2="10.5" y1="63.2882" y2="64.2703" /><line stroke="rgb(255,0,0)" stroke-width="0.02" x1="2.812" x2="4.5" y1="64.4504" y2="65.4324" /><line stroke="rgb(255,0,0)" stroke-width="0.02" x1="4.5" x2="6.188" y1="65.4324" y2="64.4504" /><line stroke="rgb(255,0,0)" stroke-width="0.02" x1="6.812" x2="8.5" y1="64.4504" y2="65.4324" /><line stroke="rgb(255,0,0)" stroke-width="0.02" x1="8.5" x2="10.188" y1="65.4324" y2="64.4504" /><line stroke="rgb(255,0,0)" stroke-width="0.02" x1="2.5" x2="4.188" y1="66.5946" y2="65.6126" /><line stroke="rgb(255,0,0)" stroke-width="0.02" x1="4.812" x2="6.5" y1="65.6126" y2="66.5946" /><line stroke="rgb(255,0,0)" stroke-width="0.02" x1="6.5" x2="8.188" y1="66.5946" y2="65.6126" /><line stroke="rgb(255,0,0)" stroke-width="0.02" x1="8.812" x2="10.5" y1="65.6126" y2="66.5946" /><line stroke="rgb(255,0,0)" stroke-width="0.02" x1="2.812" x2="4.5" y1="66.7747" y2="67.7568" /><line stroke="rgb(255,0,0)" stroke-width="0.02" x1="4.5" x2="6.188" y1="67.7568" y2="66.7747" /><line stroke="rgb(255,0,0)" stroke-width="0.02" x1="6.812" x2="8.5" y1="66.7747" y2="67.7568" /><line stroke="rgb(255,0,0)" stroke-width="0.02" x1="8.5" x2="10.188" y1="67.7568" y2="66.7747" /><line stroke="rgb(255,0,0)" stroke-width="0.02" x1="2.5" x2="4.188" y1="68.9189" y2="67.9369" /><line stroke="rgb(255,0,0)" stroke-width="0.02" x1="4.812" x2="6.5" y1="67.9369" y2="68.9189" /><line stroke="rgb(255,0,0)" stroke-width="0.02" x1="6.5" x2="8.188" y1="68.9189" y2="67.9369" /><line stroke="rgb(255,0,0)" stroke-width="0.02" x1="8.812" x2="10.5" y1="67.9369" y2="68.9189" /><line stroke="rgb(255,0,0)" stroke-width="0.02" x1="2.812" x2="4.5" y1="69.0991" y2="70.0811" /><line stroke="rgb(255,0,0)" stroke-width="0.02" x1="4.5" x2="6.188" y1="70.0811" y2="69.0991" /><line stroke="rgb(255,0,0)" stroke-width="0.02" x1="6.812" x2="8.5" y1="69.0991" y2="70.0811" /><line stroke="rgb(255,0,0)" stroke-width="0.02" x1="8.5" x2="10.188" y1="70.0811" y2="69.0991" /><line stroke="rgb(255,0,0)" stroke-width="0.02" x1="2.5" x2="4.188" y1="71.2432" y2="70.2612" /><line stroke="rgb(255,0,0)" stroke-width="0.02" x1="4.812" x2="6.5" y1="70.2612" y2="71.2432" /><line stroke="rgb(255,0,0)" stroke-width="0.02" x1="6.5" x2="8.188" y1="71.2432" y2="70.2612" /><line stroke="rgb(255,0,0)" stroke-width="0.02" x1="8.812" x2="10.5" y1="70.2612" y2="71.2432" /><line stroke="rgb(255,0,0)" stroke-width="0.02" x1="2.812" x2="4.5" y1="71.4234" y2="72.4054" /><line stroke="rgb(255,0,0)" stroke-width="0.02" x1="4.5" x2="6.188" y1="72.4054" y2="71.4234" /><line stroke="rgb(255,0,0)" stroke-width="0.02" x1="6.812" x2="8.5" y1="71.4234" y2="72.4054" /><line stroke="rgb(255,0,0)" stroke-width="0.02" x1="8.5" x2="10.188" y1="72.4054" y2="71.4234" /><line stroke="rgb(255,0,0)" stroke-width="0.02" x1="2.5" x2="4.188" y1="73.5676" y2="72.5855" /><line stroke="rgb(255,0,0)" stroke-width="0.02" x1="4.812" x2="6.5" y1="72.5855" y2="73.5676" /><line stroke="rgb(255,0,0)" stroke-width="0.02" x1="6.5" x2="8.188" y1="73.5676" y2="72.5855" /><line stroke="rgb(255,0,0)" stroke-width="0.02" x1="8.812" x2="10.5" y1="72.5855" y2="73.5676" /><line stroke="rgb(255,0,0)" stroke-width="0.02" x1="2.812" x2="4.5" y1="73.7477" y2="74.7297" /><line stroke="rgb(255,0,0)" stroke-width="0.02" x1="4.5" x2="6.188" y1="74.7297" y2="73.7477" /><line stroke="rgb(255,0,0)" stroke-width="0.02" x1="6.812" x2="8.5" y1="73.7477" y2="74.7297" /><line stroke="rgb(255,0,0)" stroke-width="0.02" x1="8.5" x2="10.188" y1="74.7297" y2="73.7477" /><line stroke="rgb(255,0,0)" stroke-width="0.02" x1="2.5" x2="4.188" y1="75.8919" y2="74.9099" /><line stroke="rgb(255,0,0)" stroke-width="0.02" x1="4.812" x2="6.5" y1="74.9099" y2="75.8919" /><line stroke="rgb(255,0,0)" stroke-width="0.02" x1="6.5" x2="8.188" y1="75.8919" y2="74.9099" /><line stroke="rgb(255,0,0)" stroke-width="0.02" x1="8.812" x2="10.5" y1="74.9099" y2="75.8919" /><line stroke="rgb(255,0,0)" stroke-width="0.02" x1="2.812" x2="4.5" y1="76.072" y2="77.0541" /><line stroke="rgb(255,0,0)" stroke-width="0.02" x1="4.5" x2="6.188" y1="77.0541" y2="76.072" /><line stroke="rgb(255,0,0)" stroke-width="0.02" x1="6.812" x2="8.5" y1="76.072" y2="77.0541" /><line stroke="rgb(255,0,0)" stroke-width="0.02" x1="8.5" x2="10.188" y1="77.0541" y2="76.072" /><line stroke="rgb(255,0,0)" stroke-width="0.02" x1="2.5" x2="4.188" y1="78.2162" y2="77.2342" /><line stroke="rgb(255,0,0)" stroke-width="0.02" x1="4.812" x2="6.5" y1="77.2342" y2="78.2162" /><line stroke="rgb(255,0,0)" stroke-width="0.02" x1="6.5" x2="8.188" y1="78.2162" y2="77.2342" /><line stroke="rgb(255,0,0)" stroke-width="0.02" x1="8.812" x2="10.5" y1="77.2342" y2="78.2162" /><line stroke="rgb(255,0,0)" stroke-width="0.02" x1="2.812" x2="4.5" y1="78.3963" y2="79.3784" /><line stroke="rgb(255,0,0)" stroke-width="0.02" x1="4.5" x2="6.188" y1="79.3784" y2="78.3963" /><line stroke="rgb(255,0,0)" stroke-width="0.02" x1="6.812" x2="8.5" y1="78.3963" y2="79.3784" /><line stroke="rgb(255,0,0)" stroke-width="0.02" x1="8.5" x2="10.188" y1="79.3784" y2="78.3963" /><line stroke="rgb(255,0,0)" stroke-width="0.02" x1="2.5" x2="4.188" y1="80.5405" y2="79.5585" /><line stroke="rgb(255,0,0)" stroke-width="0.02" x1="4.812" x2="6.5" y1="79.5585" y2="80.5405" /><line stroke="rgb(255,0,0)" stroke-width="0.02" x1="6.5" x2="8.188" y1="80.5405" y2="79.5585" /><line stroke="rgb(255,0,0)" stroke-width="0.02" x1="8.812" x2="10.5" y1="79.5585" y2="80.5405" /><line stroke="rgb(255,0,0)" stroke-width="0.02" x1="2.812" x2="4.5" y1="80.7207" y2="81.7027" /><line stroke="rgb(255,0,0)" stroke-width="0.02" x1="4.5" x2="6.188" y1="81.7027" y2="80.7207" /><line stroke="rgb(255,0,0)" stroke-width="0.02" x1="6.812" x2="8.5" y1="80.7207" y2="81.7027" /><line stroke="rgb(255,0,0)" stroke-width="0.02" x1="8.5" x2="10.188" y1="81.7027" y2="80.7207" /><line stroke="rgb(255,0,0)" stroke-width="0.02" x1="2.5" x2="4.188" y1="82.8649" y2="81.8828" /><line stroke="rgb(255,0,0)" stroke-width="0.02" x1="4.812" x2="6.5" y1="81.8828" y2="82.8649" /><line stroke="rgb(255,0,0)" stroke-width="0.02" x1="6.5" x2="8.188" y1="82.8649" y2="81.8828" /><line stroke="rgb(255,0,0)" stroke-width="0.02" x1="8.812" x2="10.5" y1="81.8828" y2="82.8649" /><line stroke="rgb(255,0,0)" stroke-width="0.02" x1="2.812" x2="4.5" y1="83.045" y2="84.027" /><line stroke="rgb(255,0,0)" stroke-width="0.02" x1="4.5" x2="6.188" y1="84.027" y2="83.045" /><line stroke="rgb(255,0,0)" stroke-width="0.02" x1="6.812" x2="8.5" y1="83.045" y2="84.027" /><line stroke="rgb(255,0,0)" stroke-width="0.02" x1="8.5" x2="10.188" y1="84.027" y2="83.045" /><line stroke="rgb(255,0,0)" stroke-width="0.02" x1="2.5" x2="4.188" y1="85.1892" y2="84.2072" /><line stroke="rgb(255,0,0)" stroke-width="0.02" x1="4.812" x2="6.5" y1="84.2072" y2="85.1892" /><line stroke="rgb(255,0,0)" stroke-width="0.02" x1="6.5" x2="8.188" y1="85.1892" y2="84.2072" /><line stroke="rgb(255,0,0)" stroke-width="0.02" x1="8.812" x2="10.5" y1="84.2072" y2="85.1892" /><line stroke="rgb(255,0,0)" stroke-width="0.02" x1="2.812" x2="4.5" y1="85.3693" y2="86.3514" /><line stroke="rgb(255,0,0)" stroke-width="0.02" x1="4.5" x2="6.188" y1="86.3514" y2="85.3693" /><line stroke="rgb(255,0,0)" stroke-width="0.02" x1="6.812" x2="8.5" y1="85.3693" y2="86.3514" /><line stroke="rgb(255,0,0)" stroke-width="0.02" x1="8.5" x2="10.188" y1="86.3514" y2="85.3693" /><line stroke="rgb(255,0,0)" stroke-width="0.02" x1="2.5" x2="4.188" y1="87.5135" y2="86.5315" /><line stroke="rgb(255,0,0)" stroke-width="0.02" x1="4.812" x2="6.5" y1="86.5315" y2="87.5135" /><line stroke="rgb(255,0,0)" stroke-width="0.02" x1="6.5" x2="8.188" y1="87.5135" y2="86.5315" /><line stroke="rgb(255,0,0)" stroke-width="0.02" x1="8.812" x2="10.5" y1="86.5315" y2="87.5135" /><line stroke="rgb(255,0,0)" stroke-width="0.02" x1="2.812" x2="4.5" y1="87.6936" y2="88.6757" /><line stroke="rgb(255,0,0)" stroke-width="0.02" x1="4.5" x2="6.188" y1="88.6757" y2="87.6936" /><line stroke="rgb(255,0,0)" stroke-width="0.02" x1="6.812" x2="8.5" y1="87.6936" y2="88.6757" /><line stroke="rgb(255,0,0)" stroke-width="0.02" x1="8.5" x2="10.188" y1="88.6757" y2="87.6936" /><line stroke="rgb(255,0,0)" stroke-width="0.02" x1="2.5" x2="4.188" y1="89.8378" y2="88.8558" /><line stroke="rgb(255,0,0)" stroke-width="0.02" x1="4.812" x2="6.5" y1="88.8558" y2="89.8378" /><line stroke="rgb(255,0,0)" stroke-width="0.02" x1="6.5" x2="8.188" y1="89.8378" y2="88.8558" /><line stroke="rgb(255,0,0)" stroke-width="0.02" x1="8.812" x2="10.5" y1="88.8558" y2="89.8378" /><line stroke="rgb(255,0,0)" stroke-width="0.02" x1="2.812" x2="4.5" y1="90.018" y2="91.0" /><line stroke="rgb(255,0,0)" stroke-width="0.02" x1="4.5" x2="6.188" y1="91.0" y2="90.018" /><line stroke="rgb(255,0,0)" stroke-width="0.02" x1="6.812" x2="8.5" y1="90.018" y2="91.0" /><line stroke="rgb(255,0,0)" stroke-width="0.02" x1="8.5" x2="10.188" y1="91.0" y2="90.018" /><line stroke="rgb(255,0,0)" stroke-width="0.02" x1="0" x2="0" y1="0" y2="96.0" /><line stroke="rgb(255,0,0)" stroke-width="0.02" x1="0" x2="13.0" y1="96.0" y2="96.0" /><line stroke="rgb(255,0,0)" stroke-width="0.02" x1="13.0" x2="13.0" y1="96.0" y2="0" /><line stroke="rgb(255,0,0)" stroke-width="0.02" x1="13.0" x2="0" y1="0" y2="0" /></svg>