<?xml version="1.0" encoding="utf-8" ?>
<svg baseProfile="tiny" height="100%" version="1.2" width="100%" xmlns="http://www.w3.org/2000/svg" xmlns:ev="http://www.w3.org/2001/xml-events" xmlns:xlink="http://www.w3.org/1999/xlink"><defs /><line stroke="rgb(255,0,0)" stroke-width="0.02" x1="2.5" x2="6.72" y1="7.9091" y2="5.4503" /><line stroke="rgb(255,0,0)" stroke-width="0.02" x1="8.28" x2="12.5" y1="5.4503" y2="7.9091" /><line stroke="rgb(255,0,0)" stroke-width="0.02" x1="12.5" x2="16.72" y1="7.9091" y2="5.4503" /><line stroke="rgb(255,0,0)" stroke-width="0.02" x1="18.28" x2="22.5" y1="5.4503" y2="7.9091" /><line stroke="rgb(255,0,0)" stroke-width="0.02" x1="3.28" x2="7.5" y1="8.3594" y2="10.8182" /><line stroke="rgb(255,0,0)" stroke-width="0.02" x1="7.5" x2="11.72" y1="10.8182" y2="8.3594" /><line stroke="rgb(255,0,0)" stroke-width="0.02" x1="13.28" x2="17.5" y1="8.3594" y2="10.8182" /><line stroke="rgb(255,0,0)" stroke-width="0.02" x1="17.5" x2="21.72" y1="10.8182" y2="8.3594" /><line stroke="rgb(255,0,0)" stroke-width="0.02" x1="2.5" x2="6.72" y1="13.7273" y2="11.2685" /><line stroke="rgb(255,0,0)" stroke-width="0.02" x1="8.28" x2="12.5" y1="11.2685" y2="13.7273" /><line stroke="rgb(255,0,0)" stroke-width="0.02" x1="12.5" x2="16.72" y1="13.7273" y2="11.2685" /><line stroke="rgb(255,0,0)" stroke-width="0.02" x1="18.28" x2="22.5" y1="11.2685" y2="13.7273" /><line stroke="rgb(255,0,0)" stroke-width="0.02" x1="3.28" x2="7.5" y1="14.1776" y2="16.6364" /><line stroke="rgb(255,0,0)" stroke-width="0.02" x1="7.5" x2="11.72" y1="16.6364" y2="14.1776" /><line stroke="rgb(255,0,0)" stroke-width="0.02" x1="13.28" x2="17.5" y1="14.1776" y2="16.6364" /><line stroke="rgb(255,0,0)" stroke-width="0.02" x1="17.5" x2="21.72" y1="16.6364" y2="14.1776" /><line stroke="rgb(255,0,0)" stroke-width="0.02" x1="2.5" x2="6.72" y1="19.5455" y2="17.0867" /><line stroke="rgb(255,0,0)" stroke-width="0.02" x1="8.28" x2="12.5" y1="17.0867" y2="19.5455" /><line stroke="rgb(255,0,0)" stroke-width="0.02" x1="12.5" x2="16.72" y1="19.5455" y2="17.0867" /><line stroke="rgb(255,0,0)" stroke-width="0.02" x1="18.28" x2="22.5" y1="17.0867" y2="19.5455" /><line stroke="rgb(255,0,0)" stroke-width="0.02" x1="3.28" x2="7.5" y1="19.9958" y2="22.4545" /><line stroke="rgb(255,0,0)" stroke-width="0.02" x1="7.5" x2="11.72" y1="22.4545" y2="19.9958" /><line stroke="rgb(255,0,0)" stroke-width="0.02" x1="13.28" x2="17.5" y1="19.9958" y2="22.4545" /><line stroke="rgb(255,0,0)" stroke-width="0.02" x1="17.5" x2="21.72" y1="22.4545" y2="19.9958" /><line stroke="rgb(255,0,0)" stroke-width="0.02" x1="2.5" x2="6.72" y1="25.3636" y2="22.9049" /><line stroke="rgb(255,0,0)" stroke-width="0.02" x1="8.28" x2="12.5" y1="22.9049" y2="25.3636" /><line stroke="rgb(255,0,0)" stroke-width="0.02" x1="12.5" x2="16.72" y1="25.3636" y2="22.9049" /><line stroke="rgb(255,0,0)" stroke-width="0.02" x1="18.28" x2="22.5" y1="22.9049" y2="25.3636" /><line stroke="rgb(255,0,0)" stroke-width="0.02" x1="3.28" x2="7.5" y1="25.814" y2="28.2727" /><line stroke="rgb(255,0,0)" stroke-width="0.02" x1="7.5" x2="11.72" y1="28.2727" y2="25.814" /><line stroke="rgb(255,0,0)" stroke-width="0.02" x1="13.28" x2="17.5" y1="25.814" y2="28.2727" /><line stroke="rgb(255,0,0)" stroke-width="0.02" x1="17.5" x2="21.72" y1="28.2727" y2="25.814" /><line stroke="rgb(255,0,0)" stroke-width="0.02" x1="2.5" x2="6.72" y1="31.1818" y2="28.7231" /><line stroke="rgb(255,0,0)" stroke-width="0.02" x1="8.28" x2="12.5" y1="28.7231" y2="31.1818" /><line stroke="rgb(255,0,0)" stroke-width="0.02" x1="12.5" x2="16.72" y1="31.1818" y2="28.7231" /><line stroke="rgb(255,0,0)" stroke-width="0.02" x1="18.28" x2="22.5" y1="28.7231" y2="31.1818" /><line stroke="rgb(255,0,0)" stroke-width="0.02" x1="3.28" x2="7.5" y1="31.6322" y2="34.0909" /><line stroke="rgb(255,0,0)" stroke-width="0.02" x1="7.5" x2="11.72" y1="34.0909" y2="31.6322" /><line stroke="rgb(255,0,0)" stroke-width="0.02" x1="13.28" x2="17.5" y1="31.6322" y2="34.0909" /><line stroke="rgb(255,0,0)" stroke-width="0.02" x1="17.5" x2="21.72" y1="34.0909" y2="31.6322" /><line stroke="rgb(255,0,0)" stroke-width="0.02" x1="2.5" x2="6.72" y1="37.0" y2="34.5412" /><line stroke="rgb(255,0,0)" stroke-width="0.02" x1="8.28" x2="12.5" y1="34.5412" y2="37.0" /><line stroke="rgb(255,0,0)" stroke-width="0.02" x1="12.5" x2="16.72" y1="37.0" y2="34.5412" /><line stroke="rgb(255,0,0)" stroke-width="0.02" x1="18.28" x2="22.5" y1="34.5412" y2="37.0" /><line stroke="rgb(255,0,0)" stroke-width="0.02" x1="3.28" x2="7.5" y1="37.4503" y2="39.9091" /><line stroke="rgb(255,0,0)" stroke-width="0.02" x1="7.5" x2="11.72" y1="39.9091" y2="37.4503" /><line stroke="rgb(255,0,0)" stroke-width="0.02" x1="13.28" x2="17.5" y1="37.4503" y2="39.9091" /><line stroke="rgb(255,0,0)" stroke-width="0.02" x1="17.5" x2="21.72" y1="39.9091" y2="37.4503" /><line stroke="rgb(255,0,0)" stroke-width="0.02" x1="2.5" x2="6.72" y1="42.8182" y2="40.3594" /><line stroke="rgb(255,0,0)" stroke-width="0.02" x1="8.28" x2="12.5" y1="40.3594" y2="42.8182" /><line stroke="rgb(255,0,0)" stroke-width="0.02" x1="12.5" x2="16.72" y1="42.8182" y2="40.3594" /><line stroke="rgb(255,0,0)" stroke-width="0.02" x1="18.28" x2="22.5" y1="40.3594" y2="42.8182" /><line stroke="rgb(255,0,0)" stroke-width="0.02" x1="3.28" x2="7.5" y1="43.2685" y2="45.7273" /><line stroke="rgb(255,0,0)" stroke-width="0.02" x1="7.5" x2="11.72" y1="45.7273" y2="43.2685" /><line stroke="rgb(255,0,0)" stroke-width="0.02" x1="13.28" x2="17.5" y1="43.2685" y2="45.7273" /><line stroke="rgb(255,0,0)" stroke-width="0.02" x1="17.5" x2="21.72" y1="45.7273" y2="43.2685" /><line stroke="rgb(255,0,0)" stroke-width="0.02" x1="2.5" x2="6.72" y1="48.6364" y2="46.1776" /><line stroke="rgb(255,0,0)" stroke-width="0.02" x1="8.28" x2="12.5" y1="46.1776" y2="48.6364" /><line stroke="rgb(255,0,0)" stroke-width="0.02" x1="12.5" x2="16.72" y1="48.6364" y2="46.1776" /><line stroke="rgb(255,0,0)" stroke-width="0.02" x1="18.28" x2="22.5" y1="46.1776" y2="48.6364" /><line stroke="rgb(255,0,0)" stroke-width="0.02" x1="3.28" x2="7.5" y1="49.0867" y2="51.5455" /><line stroke="rgb(255,0,0)" stroke-width="0.02" x1="7.5" x2="11.72" y1="51.5455" y2="49.0867" /><line stroke="rgb(255,0,0)" stroke-width="0.02" x1="13.28" x2="17.5" y1="49.0867" y2="51.5455" /><line stroke="rgb(255,0,0)" stroke-width="0.02" x1="17.5" x2="21.72" y1="51.5455" y2="49.0867" /><line stroke="rgb(255,0,0)" stroke-width="0.02" x1="2.5" x2="6.72" y1="54.4545" y2="51.9958" /><line stroke="rgb(255,0,0)" stroke-width="0.02" x1="8.28" x2="12.5" y1="51.9958" y2="54.4545" /><line stroke="rgb(255,0,0)" stroke-width="0.02" x1="12.5" x2="16.72" y1="54.4545" y2="51.9958" /><line stroke="rgb(255,0,0)" stroke-width="0.02" x1="18.28" x2="22.5" y1="51.9958" y2="54.4545" /><line stroke="rgb(255,0,0)" stroke-width="0.02" x1="3.28" x2="7.5" y1="54.9049" y2="57.3636" /><line stroke="rgb(255,0,0)" stroke-width="0.02" x1="7.5" x2="11.72" y1="57.3636" y2="54.9049" /><line stroke="rgb(255,0,0)" stroke-width="0.02" x1="13.28" x2="17.5" y1="54.9049" y2="57.3636" /><line stroke="rgb(255,0,0)" stroke-width="0.02" x1="17.5" x2="21.72" y1="57.3636" y2="54.9049" /><line stroke="rgb(255,0,0)" stroke-width="0.02" x1="2.5" x2="6.72" y1="60.2727" y2="57.814" /><line stroke="rgb(255,0,0)" stroke-width="0.02" x1="8.28" x2="12.5" y1="57.814" y2="60.2727" /><line stroke="rgb(255,0,0)" stroke-width="0.02" x1="12.5" x2="16.72" y1="60.2727" y2="57.814" /><line stroke="rgb(255,0,0)" stroke-width="0.02" x1="18.28" x2="22.5" y1="57.814" y2="60.2727" /><line stroke="rgb(255,0,0)" stroke-width="0.02" x1="3.28" x2="7.5" y1="60.7231" y2="63.1818" /><line stroke="rgb(255,0,0)" stroke-width="0.02" x1="7.5" x2="11.72" y1="63.1818" y2="60.7231" /><line stroke="rgb(255,0,0)" stroke-width="0.02" x1="13.28" x2="17.5" y1="60.7231" y2="63.1818" /><line stroke="rgb(255,0,0)" stroke-width="0.02" x1="17.5" x2="21.72" y1="63.1818" y2="60.7231" /><line stroke="rgb(255,0,0)" stroke-width="0.02" x1="2.5" x2="6.72" y1="66.0909" y2="63.6322" /><line stroke="rgb(255,0,0)" stroke-width="0.02" x1="8.28" x2="12.5" y1="63.6322" y2="66.0909" /><line stroke="rgb(255,0,0)" stroke-width="0.02" x1="12.5" x2="16.72" y1="66.0909" y2="63.6322" /><line stroke="rgb(255,0,0)" stroke-width="0.02" x1="18.28" x2="22.5" y1="63.6322" y2="66.0909" /><line stroke="rgb(255,0,0)" stroke-width="0.02" x1="3.28" x2="7.5" y1="66.5412" y2="69.0" /><line stroke="rgb(255,0,0)" stroke-width="0.02" x1="7.5" x2="11.72" y1="69.0" y2="66.5412" /><line stroke="rgb(255,0,0)" stroke-width="0.02" x1="13.28" x2="17.5" y1="66.5412" y2="69.0" /><line stroke="rgb(255,0,0)" stroke-width="0.02" x1="17.5" x2="21.72" y1="69.0" y2="66.5412" /><line stroke="rgb(255,0,0)" stroke-width="0.02" x1="2.5" x2="6.72" y1="71.9091" y2="69.4503" /><line stroke="rgb(255,0,0)" stroke-width="0.02" x1="8.28" x2="12.5" y1="69.4503" y2="71.9091" /><line stroke="rgb(255,0,0)" stroke-width="0.02" x1="12.5" x2="16.72" y1="71.9091" y2="69.4503" /><line stroke="rgb(255,0,0)" stroke-width="0.02" x1="18.28" x2="22.5" y1="69.4503" y2="71.9091" /><line stroke="rgb(255,0,0)" stroke-width="0.02" x1="3.28" x2="7.5" y1="72.3594" y2="74.8182" /><line stroke="rgb(255,0,0)" stroke-width="0.02" x1="7.5" x2="11.72" y1="74.8182" y2="72.3594" /><line stroke="rgb(255,0,0)" stroke-width="0.02" x1="13.28" x2="17.5" y1="72.3594" y2="74.8182" /><line stroke="rgb(255,0,0)" stroke-width="0.02" x1="17.5" x2="21.72" y1="74.8182" y2="72.3594" /><line stroke="rgb(255,0,0)" stroke-width="0.02" x1="2.5" x2="6.72" y1="77.7273" y2="75.2685" /><line stroke="rgb(255,0,0)" stroke-width="0.02" x1="8.28" x2="12.5" y1="75.2685" y2="77.7273" /><line stroke="rgb(255,0,0)" stroke-width="0.02" x1="12.5" x2="16.72" y1="77.7273" y2="75.2685" /><line stroke="rgb(255,0,0)" stroke-width="0.02" x1="18.28" x2="22.5" y1="75.2685" y2="77.7273" /><line stroke="rgb(255,0,0)" stroke-width="0.02" x1="3.28" x2="7.5" y1="78.1776" y2="80.6364" /><line stroke="rgb(255,0,0)" stroke-width="0.02" x1="7.5" x2="11.72" y1="80.6364" y2="78.1776" /><line stroke="rgb(255,0,0)" stroke-width="0.02" x1="13.28" x2="17.5" y1="78.1776" y2="80.6364" /><line stroke="rgb(255,0,0)" stroke-width="0.02" x1="17.5" x2="21.72" y1="80.6364" y2="78.1776" /><line stroke="rgb(255,0,0)" stroke-width="0.02" x1="2.5" x2="6.72" y1="83.5455" y2="81.0867" /><line stroke="rgb(255,0,0)" stroke-width="0.02" x1="8.28" x2="12.5" y1="81.0867" y2="83.5455" /><line stroke="rgb(255,0,0)" stroke-width="0.02" x1="12.5" x2="16.72" y1="83.5455" y2="81.0867" /><line stroke="rgb(255,0,0)" stroke-width="0.02" x1="18.28" x2="22.5" y1="81.0867" y2="83.5455" /><line stroke="rgb(255,0,0)" stroke-width="0.02" x1="3.28" x2="7.5" y1="83.9958" y2="86.4545" /><line stroke="rgb(255,0,0)" stroke-width="0.02" x1="7.5" x2="11.72" y1="86.4545" y2="83.9958" /><line stroke="rgb(255,0,0)" stroke-width="0.02" x1="13.28" x2="17.5" y1="83.9958" y2="86.4545" /><line stroke="rgb(255,0,0)" stroke-width="0.02" x1="17.5" x2="21.72" y1="86.4545" y2="83.9958" /><line stroke="rgb(255,0,0)" stroke-width="0.02" x1="2.5" x2="6.72" y1="89.3636" y2="86.9049" /><line stroke="rgb(255,0,0)" stroke-width="0.02" x1="8.28" x2="12.5" y1="86.9049" y2="89.3636" /><line stroke="rgb(255,0,0)" stroke-width="0.02" x1="12.5" x2="16.72" y1="89.3636" y2="86.9049" /><line stroke="rgb(255,0,0)" stroke-width="0.02" x1="18.28" x2="22.5" y1="86.9049" y2="89.3636" /><line stroke="rgb(255,0,0)" stroke-width="0.02" x1="3.28" x2="7.5" y1="89.814" y2="92.2727" /><line stroke="rgb(255,0,0)" stroke-width="0.02" x1="7.5" x2="11.72" y1="92.2727" y2="89.814" /><line stroke="rgb(255,0,0)" stroke-width="0.02" x1="13.28" x2="17.5" y1="89.814" y2="92.2727" /><line stroke="rgb(255,0,0)" stroke-width="0.02" x1="17.5" x2="21.72" y1="92.2727" y2="89.814" /><line stroke="rgb(255,0,0)" stroke-width="0.02" x1="2.5" x2="6.72" y1="95.1818" y2="92.7231" /><line stroke="rgb(255,0,0)" stroke-width="0.02" x1="8.28" x2="12.5" y1="92.7231" y2="95.1818" /><line stroke="rgb(255,0,0)" stroke-width="0.02" x1="12.5" x2="16.72" y1="95.1818" y2="92.7231" /><line stroke="rgb(255,0,0)" stroke-width="0.02" x1="18.28" x2="22.5" y1="92.7231" y2="95.1818" /><line stroke="rgb(255,0,0)" stroke-width="0.02" x1="3.28" x2="7.5" y1="95.6322" y2="98.0909" /><line stroke="rgb(255,0,0)" stroke-width="0.02" x1="7.5" x2="11.72" y1="98.0909" y2="95.6322" /><line stroke="rgb(255,0,0)" stroke-width="0.02" x1="13.28" x2="17.5" y1="95.6322" y2="98.0909" /><line stroke="rgb(255,0,0)" stroke-width="0.02" x1="17.5" x2="21.72" y1="98.0909" y2="95.6322" /><line stroke="rgb(255,0,0)" stroke-width="0.02" x1="2.5" x2="6.72" y1="101.0" y2="98.5412" /><line stroke="rgb(255,0,0)" stroke-width="0.02" x1="8.28" x2="12.5" y1="98.5412" y2="101.0" /><line stroke="rgb(255,0,0)" stroke-width="0.02" x1="12.5" x2="16.72" y1="101.0" y2="98.5412" /><line stroke="rgb(255,0,0)" stroke-width="0.02" x1="18.28" x2="22.5" y1="98.5412" y2="101.0" /><line stroke="rgb(255,0,0)" stroke-width="0.02" x1="3.28" x2="7.5" y1="101.4503" y2="103.9091" /><line stroke="rgb(255,0,0)" stroke-width="0.02" x1="7.5" x2="11.72" y1="103.9091" y2="101.4503" /><line stroke="rgb(255,0,0)" stroke-width="0.02" x1="13.28" x2="17.5" y1="101.4503" y2="103.9091" /><line stroke="rgb(255,0,0)" stroke-width="0.02" x1="17.5" x2="21.72" y1="103.9091" y2="101.4503" /><line stroke="rgb(255,0,0)" stroke-width="0.02" x1="2.5" x2="6.72" y1="106.8182" y2="104.3594" /><line stroke="rgb(255,0,0)" stroke-width="0.02" x1="8.28" x2="12.5" y1="104.3594" y2="106.8182" /><line stroke="rgb(255,0,0)" stroke-width="0.02" x1="12.5" x2="16.72" y1="106.8182" y2="104.3594" /><line stroke="rgb(255,0,0)" stroke-width="0.02" x1="18.28" x2="22.5" y1="104.3594" y2="106.8182" /><line stroke="rgb(255,0,0)" stroke-width="0.02" x1="3.28" x2="7.5" y1="107.2685" y2="109.7273" /><line stroke="rgb(255,0,0)" stroke-width="0.02" x1="7.5" x2="11.72" y1="109.7273" y2="107.2685" /><line stroke="rgb(255,0,0)" stroke-width="0.02" x1="13.28" x2="17.5" y1="107.2685" y2="109.7273" /><line stroke="rgb(255,0,0)" stroke-width="0.02" x1="17.5" x2="21.72" y1="109.7273" y2="107.2685" /><line stroke="rgb(255,0,0)" stroke-width="0.02" x1="2.5" x2="6.72" y1="112.6364" y2="110.1776" /><line stroke="rgb(255,0,0)" stroke-width="0.02" x1="8.28" x2="12.5" y1="110.1776" y2="112.6364" /><line stroke="rgb(255,0,0)" stroke-width="0.02" x1="12.5" x2="16.72" y1="112.6364" y2="110.1776" /><line stroke="rgb(255,0,0)" stroke-width="0.02" x1="18.28" x2="22.5" y1="110.1776" y2="112.6364" /><line stroke="rgb(255,0,0)" stroke-width="0.02" x1="3.28" x2="7.5" y1="113.0867" y2="115.5455" /><line stroke="rgb(255,0,0)" stroke-width="0.02" x1="7.5" x2="11.72" y1="115.5455" y2="113.0867" /><line stroke="rgb(255,0,0)" stroke-width="0.02" x1="13.28" x2="17.5" y1="113.0867" y2="115.5455" /><line stroke="rgb(255,0,0)" stroke-width="0.02" x1="17.5" x2="21.72" y1="115.5455" y2="113.0867" /><line stroke="rgb(255,0,0)" stroke-width="0.02" x1="2.5" x2="6.72" y1="118.4545" y2="115.9958" /><line stroke="rgb(255,0,0)" stroke-width="0.02" x1="8.28" x2="12.5" y1="115.9958" y2="118.4545" /><line stroke="rgb(255,0,0)" stroke-width="0.02" x1="12.5" x2="16.72" y1="118.4545" y2="115.9958" /><line stroke="rgb(255,0,0)" stroke-width="0.02" x1="18.28" x2="22.5" y1="115.9958" y2="118.4545" /><line stroke="rgb(255,0,0)" stroke-width="0.02" x1="3.28" x2="7.5" y1="118.9049" y2="121.3636" /><line stroke="rgb(255,0,0)" stroke-width="0.02" x1="7.5" x2="11.72" y1="121.3636" y2="118.9049" /><line stroke="rgb(255,0,0)" stroke-width="0.02" x1="13.28" x2="17.5" y1="118.9049" y2="121.3636" /><line stroke="rgb(255,0,0)" stroke-width="0.02" x1="17.5" x2="21.72" y1="121.3636" y2="118.9049" /><line stroke="rgb(255,0,0)" stroke-width="0.02" x1="2.5" x2="6.72" y1="124.2727" y2="121.814" /><line stroke="rgb(255,0,0)" stroke-width="0.02" x1="8.28" x2="12.5" y1="121.814" y2="124.2727" /><line stroke="rgb(255,0,0)" stroke-width="0.02" x1="12.5" x2="16.72" y1="124.2727" y2="121.814" /><line stroke="rgb(255,0,0)" stroke-width="0.02" x1="18.28" x2="22.5" y1="121.814" y2="124.2727" /><line stroke="rgb(255,0,0)" stroke-width="0.02" x1="3.28" x2="7.5" y1="124.7231" y2="127.1818" /><line stroke="rgb(255,0,0)" stroke-width="0.02" x1="7.5" x2="11.72" y1="127.1818" y2="124.7231" /><line stroke="rgb(255,0,0)" stroke-width="0.02" x1="13.28" x2="17.5" y1="124.7231" y2="127.1818" /><line stroke="rgb(255,0,0)" stroke-width="0.02" x1="17.5" x2="21.72" y1="127.1818" y2="124.7231" /><line stroke="rgb(255,0,0)" stroke-width="0.02" x1="2.5" x2="6.72" y1="130.0909" y2="127.6322" /><line stroke="rgb(255,0,0)" stroke-width="0.02" x1="8.28" x2="12.5" y1="127.6322" y2="130.0909" /><line stroke="rgb(255,0,0)" stroke-width="0.02" x1="12.5" x2="16.72" y1="130.0909" y2="127.6322" /><line stroke="rgb(255,0,0)" stroke-width="0.02" x1="18.28" x2="22.5" y1="127.6322" y2="130.0909" /><line stroke="rgb(255,0,0)" stroke-width="0.02" x1="3.28" x2="7.5" y1="130.5412" y2="133.0" /><line stroke="rgb(255,0,0)" stroke-width="0.02" x1="7.5" x2="11.72" y1="133.0" y2="130.5412" /><line stroke="rgb(255,0,0)" stroke-width="0.02" x1="13.28" x2="17.5" y1="130.5412" y2="133.0" /><line stroke="rgb(255,0,0)" stroke-width="0.02" x1="17.5" x2="21.72" y1="133.0" y2="130.5412" /><line stroke="rgb(255,0,0)" stroke-width="0.02" x1="2.5" x2="6.72" y1="135.9091" y2="133.4503" /><line stroke="rgb(255,0,0)" stroke-width="0.02" x1="8.28" x2="12.5" y1="133.4503" y2="135.9091" /><line stroke="rgb(255,0,0)" stroke-width="0.02" x1="12.5" x2="16.72" y1="135.9091" y2="133.4503" /><line stroke="rgb(255,0,0)" stroke-width="0.02" x1="18.28" x2="22.5" y1="133.4503" y2="135.9091" /><line stroke="rgb(255,0,0)" stroke-width="0.02" x1="3.28" x2="7.5" y1="136.3594" y2="138.8182" /><line stroke="rgb(255,0,0)" stroke-width="0.02" x1="7.5" x2="11.72" y1="138.8182" y2="136.3594" /><line stroke="rgb(255,0,0)" stroke-width="0.02" x1="13.28" x2="17.5" y1="136.3594" y2="138.8182" /><line stroke="rgb(255,0,0)" stroke-width="0.02" x1="17.5" x2="21.72" y1="138.8182" y2="136.3594" /><line stroke="rgb(255,0,0)" stroke-width="0.02" x1="2.5" x2="6.72" y1="141.7273" y2="139.2685" /><line stroke="rgb(255,0,0)" stroke-width="0.02" x1="8.28" x2="12.5" y1="139.2685" y2="141.7273" /><line stroke="rgb(255,0,0)" stroke-width="0.02" x1="12.5" x2="16.72" y1="141.7273" y2="139.2685" /><line stroke="rgb(255,0,0)" stroke-width="0.02" x1="18.28" x2="22.5" y1="139.2685" y2="141.7273" /><line stroke="rgb(255,0,0)" stroke-width="0.02" x1="3.28" x2="7.5" y1="142.1776" y2="144.6364" /><line stroke="rgb(255,0,0)" stroke-width="0.02" x1="7.5" x2="11.72" y1="144.6364" y2="142.1776" /><line stroke="rgb(255,0,0)" stroke-width="0.02" x1="13.28" x2="17.5" y1="142.1776" y2="144.6364" /><line stroke="rgb(255,0,0)" stroke-width="0.02" x1="17.5" x2="21.72" y1="144.6364" y2="142.1776" /><line stroke="rgb(255,0,0)" stroke-width="0.02" x1="2.5" x2="6.72" y1="147.5455" y2="145.0867" /><line stroke="rgb(255,0,0)" stroke-width="0.02" x1="8.28" x2="12.5" y1="145.0867" y2="147.5455" /><line stroke="rgb(255,0,0)" stroke-width="0.02" x1="12.5" x2="16.72" y1="147.5455" y2="145.0867" /><line stroke="rgb(255,0,0)" stroke-width="0.02" x1="18.28" x2="22.5" y1="145.0867" y2="147.5455" /><line stroke="rgb(255,0,0)" stroke-width="0.02" x1="3.28" x2="7.5" y1="147.9958" y2="150.4545" /><line stroke="rgb(255,0,0)" stroke-width="0.02" x1="7.5" x2="11.72" y1="150.4545" y2="147.9958" /><line stroke="rgb(255,0,0)" stroke-width="0.02" x1="13.28" x2="17.5" y1="147.9958" y2="150.4545" /><line stroke="rgb(255,0,0)" stroke-width="0.02" x1="17.5" x2="21.72" y1="150.4545" y2="147.9958" /><line stroke="rgb(255,0,0)" stroke-width="0.02" x1="2.5" x2="6.72" y1="153.3636" y2="150.9049" /><line stroke="rgb(255,0,0)" stroke-width="0.02" x1="8.28" x2="12.5" y1="150.9049" y2="153.3636" /><line stroke="rgb(255,0,0)" stroke-width="0.02" x1="12.5" x2="16.72" y1="153.3636" y2="150.9049" /><line stroke="rgb(255,0,0)" stroke-width="0.02" x1="18.28" x2="22.5" y1="150.9049" y2="153.3636" /><line stroke="rgb(255,0,0)" stroke-width="0.02" x1="3.28" x2="7.5" y1="153.814" y2="156.2727" /><line stroke="rgb(255,0,0)" stroke-width="0.02" x1="7.5" x2="11.72" y1="156.2727" y2="153.814" /><line stroke="rgb(255,0,0)" stroke-width="0.02" x1="13.28" x2="17.5" y1="153.814" y2="156.2727" /><line stroke="rgb(255,0,0)" stroke-width="0.02" x1="17.5" x2="21.72" y1="156.2727" y2="153.814" /><line stroke="rgb(255,0,0)" stroke-width="0.02" x1="2.5" x2="6.72" y1="159.1818" y2="156.7231" /><line stroke="rgb(255,0,0)" stroke-width="0.02" x1="8.28" x2="12.5" y1="156.7231" y2="159.1818" /><line stroke="rgb(255,0,0)" stroke-width="0.02" x1="12.5" x2="16.72" y1="159.1818" y2="156.7231" /><line stroke="rgb(255,0,0)" stroke-width="0.02" x1="18.28" x2="22.5" y1="156.7231" y2="159.1818" /><line stroke="rgb(255,0,0)" stroke-width="0.02" x1="3.28" x2="7.5" y1="159.6322" y2="162.0909" /><line stroke="rgb(255,0,0)" stroke-width="0.02" x1="7.5" x2="11.72" y1="162.0909" y2="159.6322" /><line stroke="rgb(255,0,0)" stroke-width="0.02" x1="13.28" x2="17.5" y1="159.6322" y2="162.0909" /><line stroke="rgb(255,0,0)" stroke-width="0.02" x1="17.5" x2="21.72" y1="162.0909" y2="159.6322" /><line stroke="rgb(255,0,0)" stroke-width="0.02" x1="2.5" x2="6.72" y1="165.0" y2="162.5412" /><line stroke="rgb(255,0,0)" stroke-width="0.02" x1="8.28" x2="12.5" y1="162.5412" y2="165.0" /><line stroke="rgb(255,0,0)" stroke-width="0.02" x1="12.5" x2="16.72" y1="165.0" y2="162.5412" /><line stroke="rgb(255,0,0)" stroke-width="0.02" x1="18.28" x2="22.5" y1="162.5412" y2="165.0" /><line stroke="rgb(255,0,0)" stroke-width="0.02" x1="0" x2="0" y1="0" y2="170.0" /><line stroke="rgb(255,0,0)" stroke-width="0.02" x1="0" x2="25.0" y1="170.0" y2="170.0" /><line stroke="rgb(255,0,0)" stroke-width="0.02" x1="25.0" x2="25.0" y1="170.0" y2="0" /><line stroke="rgb(255,0,0)" stroke-width="0.02" x1="25.0" x2="0" y1="0" y2="0" /></svg>