  0
SECTION
  2
HEADER
  9
$ACADVER
  1
AC1024
  9
$ACADMAINTVER
 70
6
  9
$DWGCODEPAGE
  3
ANSI_1252
  9
$LASTSAVEDBY
  1
ezdxf
  9
$INSBASE
 10
0.0
 20
0.0
 30
0.0
  9
$EXTMIN
 10
1e+20
 20
1e+20
 30
1e+20
  9
$EXTMAX
 10
-1e+20
 20
-1e+20
 30
-1e+20
  9
$LIMMIN
 10
0.0
 20
0.0
  9
$LIMMAX
 10
420.0
 20
297.0
  9
$ORTHOMODE
 70
0
  9
$REGENMODE
 70
1
  9
$FILLMODE
 70
1
  9
$QTEXTMODE
 70
0
  9
$MIRRTEXT
 70
1
  9
$LTSCALE
 40
1.0
  9
$ATTMODE
 70
1
  9
$TEXTSIZE
 40
2.5
  9
$TRACEWID
 40
1.0
  9
$TEXTSTYLE
  7
Standard
  9
$CLAYER
  8
0
  9
$CELTYPE
  6
ByLayer
  9
$CECOLOR
 62
256
  9
$CELTSCALE
 40
1.0
  9
$DISPSILH
 70
0
  9
$DIMSCALE
 40
1.0
  9
$DIMASZ
 40
2.5
  9
$DIMEXO
 40
0.625
  9
$DIMDLI
 40
3.75
  9
$DIMRND
 40
0.0
  9
$DIMDLE
 40
0.0
  9
$DIMEXE
 40
1.25
  9
$DIMTP
 40
0.0
  9
$DIMTM
 40
0.0
  9
$DIMTXT
 40
2.5
  9
$DIMCEN
 40
2.5
  9
$DIMTSZ
 40
0.0
  9
$DIMTOL
 70
0
  9
$DIMLIM
 70
0
  9
$DIMTIH
 70
0
  9
$DIMTOH
 70
0
  9
$DIMSE1
 70
0
  9
$DIMSE2
 70
0
  9
$DIMTAD
 70
1
  9
$DIMZIN
 70
8
  9
$DIMBLK
  1

  9
$DIMASO
 70
1
  9
$DIMSHO
 70
1
  9
$DIMPOST
  1

  9
$DIMAPOST
  1

  9
$DIMALT
 70
0
  9
$DIMALTD
 70
3
  9
$DIMALTF
 40
0.03937007874
  9
$DIMLFAC
 40
1.0
  9
$DIMTOFL
 70
1
  9
$DIMTVP
 40
0.0
  9
$DIMTIX
 70
0
  9
$DIMSOXD
 70
0
  9
$DIMSAH
 70
0
  9
$DIMBLK1
  1

  9
$DIMBLK2
  1

  9
$DIMSTYLE
  2
ISO-25
  9
$DIMCLRD
 70
0
  9
$DIMCLRE
 70
0
  9
$DIMCLRT
 70
0
  9
$DIMTFAC
 40
1.0
  9
$DIMGAP
 40
0.625
  9
$DIMJUST
 70
0
  9
$DIMSD1
 70
0
  9
$DIMSD2
 70
0
  9
$DIMTOLJ
 70
0
  9
$DIMTZIN
 70
8
  9
$DIMALTZ
 70
0
  9
$DIMALTTZ
 70
0
  9
$DIMUPT
 70
0
  9
$DIMDEC
 70
2
  9
$DIMTDEC
 70
2
  9
$DIMALTU
 70
2
  9
$DIMALTTD
 70
3
  9
$DIMTXSTY
  7
Standard
  9
$DIMAUNIT
 70
0
  9
$DIMADEC
 70
0
  9
$DIMALTRND
 40
0.0
  9
$DIMAZIN
 70
0
  9
$DIMDSEP
 70
44
  9
$DIMATFIT
 70
3
  9
$DIMFRAC
 70
0
  9
$DIMLDRBLK
  1

  9
$DIMLUNIT
 70
2
  9
$DIMLWD
 70
-2
  9
$DIMLWE
 70
-2
  9
$DIMTMOVE
 70
0
  9
$DIMFXL
 40
1.0
  9
$DIMFXLON
 70
0
  9
$DIMJOGANG
 40
0.785398163397
  9
$DIMTFILL
 70
0
  9
$DIMTFILLCLR
 70
0
  9
$DIMARCSYM
 70
0
  9
$DIMLTYPE
  6

  9
$DIMLTEX1
  6

  9
$DIMLTEX2
  6

  9
$DIMTXTDIRECTION
 70
0
  9
$LUNITS
 70
2
  9
$LUPREC
 70
4
  9
$SKETCHINC
 40
1.0
  9
$FILLETRAD
 40
10.0
  9
$AUNITS
 70
0
  9
$AUPREC
 70
2
  9
$MENU
  1
.
  9
$ELEVATION
 40
0.0
  9
$PELEVATION
 40
0.0
  9
$THICKNESS
 40
0.0
  9
$LIMCHECK
 70
0
  9
$CHAMFERA
 40
0.0
  9
$CHAMFERB
 40
0.0
  9
$CHAMFERC
 40
0.0
  9
$CHAMFERD
 40
0.0
  9
$SKPOLY
 70
0
  9
$TDCREATE
 40
2459651.9745949074
  9
$TDUCREATE
 40
2458532.153996898
  9
$TDUPDATE
 40
2459651.9745949074
  9
$TDUUPDATE
 40
2458532.1544311
  9
$TDINDWG
 40
0.0
  9
$TDUSRTIMER
 40
0.0
  9
$USRTIMER
 70
1
  9
$ANGBASE
 50
0.0
  9
$ANGDIR
 70
0
  9
$PDMODE
 70
0
  9
$PDSIZE
 40
0.0
  9
$PLINEWID
 40
0.0
  9
$SPLFRAME
 70
0
  9
$SPLINETYPE
 70
6
  9
$SPLINESEGS
 70
8
  9
$HANDSEED
  5
3C5
  9
$SURFTAB1
 70
6
  9
$SURFTAB2
 70
6
  9
$SURFTYPE
 70
6
  9
$SURFU
 70
6
  9
$SURFV
 70
6
  9
$UCSBASE
  2

  9
$UCSNAME
  2

  9
$UCSORG
 10
0.0
 20
0.0
 30
0.0
  9
$UCSXDIR
 10
1.0
 20
0.0
 30
0.0
  9
$UCSYDIR
 10
0.0
 20
1.0
 30
0.0
  9
$UCSORTHOREF
  2

  9
$UCSORTHOVIEW
 70
0
  9
$UCSORGTOP
 10
0.0
 20
0.0
 30
0.0
  9
$UCSORGBOTTOM
 10
0.0
 20
0.0
 30
0.0
  9
$UCSORGLEFT
 10
0.0
 20
0.0
 30
0.0
  9
$UCSORGRIGHT
 10
0.0
 20
0.0
 30
0.0
  9
$UCSORGFRONT
 10
0.0
 20
0.0
 30
0.0
  9
$UCSORGBACK
 10
0.0
 20
0.0
 30
0.0
  9
$PUCSBASE
  2

  9
$PUCSNAME
  2

  9
$PUCSORG
 10
0.0
 20
0.0
 30
0.0
  9
$PUCSXDIR
 10
1.0
 20
0.0
 30
0.0
  9
$PUCSYDIR
 10
0.0
 20
1.0
 30
0.0
  9
$PUCSORTHOREF
  2

  9
$PUCSORTHOVIEW
 70
0
  9
$PUCSORGTOP
 10
0.0
 20
0.0
 30
0.0
  9
$PUCSORGBOTTOM
 10
0.0
 20
0.0
 30
0.0
  9
$PUCSORGLEFT
 10
0.0
 20
0.0
 30
0.0
  9
$PUCSORGRIGHT
 10
0.0
 20
0.0
 30
0.0
  9
$PUCSORGFRONT
 10
0.0
 20
0.0
 30
0.0
  9
$PUCSORGBACK
 10
0.0
 20
0.0
 30
0.0
  9
$USERI1
 70
0
  9
$USERI2
 70
0
  9
$USERI3
 70
0
  9
$USERI4
 70
0
  9
$USERI5
 70
0
  9
$USERR1
 40
0.0
  9
$USERR2
 40
0.0
  9
$USERR3
 40
0.0
  9
$USERR4
 40
0.0
  9
$USERR5
 40
0.0
  9
$WORLDVIEW
 70
1
  9
$SHADEDGE
 70
3
  9
$SHADEDIF
 70
70
  9
$TILEMODE
 70
1
  9
$MAXACTVP
 70
64
  9
$PINSBASE
 10
0.0
 20
0.0
 30
0.0
  9
$PLIMCHECK
 70
0
  9
$PEXTMIN
 10
1e+20
 20
1e+20
 30
1e+20
  9
$PEXTMAX
 10
-1e+20
 20
-1e+20
 30
-1e+20
  9
$PLIMMIN
 10
0.0
 20
0.0
  9
$PLIMMAX
 10
420.0
 20
297.0
  9
$UNITMODE
 70
0
  9
$VISRETAIN
 70
1
  9
$PLINEGEN
 70
0
  9
$PSLTSCALE
 70
1
  9
$TREEDEPTH
 70
3020
  9
$CMLSTYLE
  2
Standard
  9
$CMLJUST
 70
0
  9
$CMLSCALE
 40
20.0
  9
$PROXYGRAPHICS
 70
1
  9
$MEASUREMENT
 70
1
  9
$CELWEIGHT
370
-1
  9
$ENDCAPS
280
0
  9
$JOINSTYLE
280
0
  9
$LWDISPLAY
290
0
  9
$INSUNITS
 70
6
  9
$HYPERLINKBASE
  1

  9
$STYLESHEET
  1

  9
$XEDIT
290
1
  9
$CEPSNTYPE
380
0
  9
$PSTYLEMODE
290
1
  9
$FINGERPRINTGUID
  2
{A96B99ED-4FDC-4753-AD35-29218A804344}
  9
$VERSIONGUID
  2
{8D09C633-95BC-4DF3-AA53-7D04D878D104}
  9
$EXTNAMES
290
1
  9
$PSVPSCALE
 40
0.0
  9
$OLESTARTUP
290
0
  9
$SORTENTS
280
127
  9
$INDEXCTL
280
0
  9
$HIDETEXT
280
1
  9
$XCLIPFRAME
280
0
  9
$HALOGAP
280
0
  9
$OBSCOLOR
 70
257
  9
$OBSLTYPE
280
0
  9
$INTERSECTIONDISPLAY
280
0
  9
$INTERSECTIONCOLOR
 70
257
  9
$DIMASSOC
280
2
  9
$PROJECTNAME
  1

  9
$CAMERADISPLAY
290
0
  9
$LENSLENGTH
 40
50.0
  9
$CAMERAHEIGHT
 40
0.0
  9
$STEPSPERSEC
 40
24.0
  9
$STEPSIZE
 40
100.0
  9
$3DDWFPREC
 40
2.0
  9
$PSOLWIDTH
 40
0.005
  9
$PSOLHEIGHT
 40
0.08
  9
$LOFTANG1
 40
1.570796326795
  9
$LOFTANG2
 40
1.570796326795
  9
$LOFTMAG1
 40
0.0
  9
$LOFTMAG2
 40
0.0
  9
$LOFTPARAM
 70
7
  9
$LOFTNORMALS
280
1
  9
$LATITUDE
 40
37.795
  9
$LONGITUDE
 40
-122.394
  9
$NORTHDIRECTION
 40
0.0
  9
$TIMEZONE
 70
-8000
  9
$LIGHTGLYPHDISPLAY
280
1
  9
$TILEMODELIGHTSYNCH
280
1
  9
$CMATERIAL
347
20
  9
$SOLIDHIST
280
0
  9
$SHOWHIST
280
1
  9
$DWFFRAME
280
2
  9
$DGNFRAME
280
2
  9
$REALWORLDSCALE
290
1
  9
$INTERFERECOLOR
 62
256
  9
$CSHADOW
280
0
  9
$SHADOWPLANELOCATION
 40
0.0
  0
ENDSEC
  0
SECTION
  2
CLASSES
  0
CLASS
  1
ACDBDICTIONARYWDFLT
  2
AcDbDictionaryWithDefault
  3
ObjectDBX Classes
 90
0
 91
0
280
0
281
0
  0
CLASS
  1
SUN
  2
AcDbSun
  3
SCENEOE
 90
1153
 91
0
280
0
281
0
  0
CLASS
  1
VISUALSTYLE
  2
AcDbVisualStyle
  3
ObjectDBX Classes
 90
4095
 91
0
280
0
281
0
  0
CLASS
  1
MATERIAL
  2
AcDbMaterial
  3
ObjectDBX Classes
 90
1153
 91
0
280
0
281
0
  0
CLASS
  1
SCALE
  2
AcDbScale
  3
ObjectDBX Classes
 90
1153
 91
0
280
0
281
0
  0
CLASS
  1
TABLESTYLE
  2
AcDbTableStyle
  3
ObjectDBX Classes
 90
4095
 91
0
280
0
281
0
  0
CLASS
  1
MLEADERSTYLE
  2
AcDbMLeaderStyle
  3
ACDB_MLEADERSTYLE_CLASS
 90
4095
 91
0
280
0
281
0
  0
CLASS
  1
DICTIONARYVAR
  2
AcDbDictionaryVar
  3
ObjectDBX Classes
 90
0
 91
0
280
0
281
0
  0
CLASS
  1
CELLSTYLEMAP
  2
AcDbCellStyleMap
  3
ObjectDBX Classes
 90
1152
 91
0
280
0
281
0
  0
CLASS
  1
MENTALRAYRENDERSETTINGS
  2
AcDbMentalRayRenderSettings
  3
SCENEOE
 90
1024
 91
0
280
0
281
0
  0
CLASS
  1
ACDBDETAILVIEWSTYLE
  2
AcDbDetailViewStyle
  3
ObjectDBX Classes
 90
1025
 91
0
280
0
281
0
  0
CLASS
  1
ACDBSECTIONVIEWSTYLE
  2
AcDbSectionViewStyle
  3
ObjectDBX Classes
 90
1025
 91
0
280
0
281
0
  0
CLASS
  1
RASTERVARIABLES
  2
AcDbRasterVariables
  3
ISM
 90
0
 91
0
280
0
281
0
  0
CLASS
  1
ACDBPLACEHOLDER
  2
AcDbPlaceHolder
  3
ObjectDBX Classes
 90
0
 91
0
280
0
281
0
  0
CLASS
  1
LAYOUT
  2
AcDbLayout
  3
ObjectDBX Classes
 90
0
 91
0
280
0
281
0
  0
ENDSEC
  0
SECTION
  2
TABLES
  0
TABLE
  2
VPORT
  5
8
330
0
100
AcDbSymbolTable
 70
1
  0
VPORT
  5
23
330
8
100
AcDbSymbolTableRecord
100
AcDbViewportTableRecord
  2
*Active
 70
0
 10
0.0
 20
0.0
 11
1.0
 21
1.0
 12
344.2
 22
148.5
 13
0.0
 23
0.0
 14
0.5
 24
0.5
 15
0.5
 25
0.5
 16
0.0
 26
0.0
 36
1.0
 17
0.0
 27
0.0
 37
0.0
 40
297.0
 41
1.34
 42
50.0
 43
0.0
 44
0.0
 50
0.0
 51
0.0
 71
0
 72
1000
 73
1
 74
3
 75
0
 76
0
 77
0
 78
0
281
0
 65
0
146
0.0
  0
ENDTAB
  0
TABLE
  2
LTYPE
  5
2
330
0
100
AcDbSymbolTable
 70
3
  0
LTYPE
  5
24
330
2
100
AcDbSymbolTableRecord
100
AcDbLinetypeTableRecord
  2
ByBlock
 70
0
  3

 72
65
 73
0
 40
0.0
  0
LTYPE
  5
25
330
2
100
AcDbSymbolTableRecord
100
AcDbLinetypeTableRecord
  2
ByLayer
 70
0
  3

 72
65
 73
0
 40
0.0
  0
LTYPE
  5
26
330
2
100
AcDbSymbolTableRecord
100
AcDbLinetypeTableRecord
  2
Continuous
 70
0
  3

 72
65
 73
0
 40
0.0
  0
ENDTAB
  0
TABLE
  2
LAYER
  5
1
330
0
100
AcDbSymbolTable
 70
3
  0
LAYER
  5
27
330
1
100
AcDbSymbolTableRecord
100
AcDbLayerTableRecord
  2
0
 70
0
 62
7
  6
Continuous
370
-3
390
13
347
21
  0
LAYER
  5
28
330
1
100
AcDbSymbolTableRecord
100
AcDbLayerTableRecord
  2
Defpoints
 70
0
 62
7
  6
Continuous
290
0
370
-3
390
13
347
21
  0
LAYER
  5
2D
330
1
100
AcDbSymbolTableRecord
100
AcDbLayerTableRecord
  2
TOP
 70
0
 62
1
  6
Continuous
370
0
390
13
347
21
  0
ENDTAB
  0
TABLE
  2
STYLE
  5
5
330
0
100
AcDbSymbolTable
 70
1
  0
STYLE
  5
29
330
5
100
AcDbSymbolTableRecord
100
AcDbTextStyleTableRecord
  2
Standard
 70
0
 40
0.0
 41
1.0
 50
0.0
 71
0
 42
2.5
  3
txt
  4

  0
ENDTAB
  0
TABLE
  2
VIEW
  5
7
330
0
100
AcDbSymbolTable
 70
0
  0
ENDTAB
  0
TABLE
  2
UCS
  5
6
330
0
100
AcDbSymbolTable
 70
0
  0
ENDTAB
  0
TABLE
  2
APPID
  5
3
330
0
100
AcDbSymbolTable
 70
2
  0
APPID
  5
2A
330
3
100
AcDbSymbolTableRecord
100
AcDbRegAppTableRecord
  2
ACAD
 70
0
  0
APPID
  5
3C4
330
3
100
AcDbSymbolTableRecord
100
AcDbRegAppTableRecord
  2
HATCHBACKGROUNDCOLOR
 70
0
  0
ENDTAB
  0
TABLE
  2
DIMSTYLE
  5
4
330
0
100
AcDbSymbolTable
 70
1
100
AcDbDimStyleTable
  0
DIMSTYLE
105
2B
330
4
100
AcDbSymbolTableRecord
100
AcDbDimStyleTableRecord
  2
Standard
 70
0
 40
1.0
 41
2.5
 42
0.625
 43
3.75
 44
1.25
 45
0.0
 46
0.0
 47
0.0
 48
0.0
 49
2.5
140
2.5
141
2.5
142
0.0
143
0.03937007874
144
1.0
145
0.0
146
1.0
147
0.625
148
0.0
 69
0
 70
0
 71
0
 72
0
 73
0
 74
0
 75
0
 76
0
 77
1
 78
8
 79
0
170
0
171
3
172
1
173
0
174
0
175
0
176
0
177
0
178
0
179
0
271
0
272
2
273
2
274
3
275
0
276
0
277
2
278
44
279
0
280
0
281
0
282
0
283
0
284
8
285
0
286
0
288
0
289
3
290
0
371
-2
372
-2
  0
ENDTAB
  0
TABLE
  2
BLOCK_RECORD
  5
9
330
0
100
AcDbSymbolTable
 70
2
  0
BLOCK_RECORD
  5
17
330
9
100
AcDbSymbolTableRecord
100
AcDbBlockTableRecord
  2
*Model_Space
340
1A
 70
0
280
1
281
0
  0
BLOCK_RECORD
  5
1B
330
9
100
AcDbSymbolTableRecord
100
AcDbBlockTableRecord
  2
*Paper_Space
340
1E
 70
0
280
1
281
0
  0
ENDTAB
  0
ENDSEC
  0
SECTION
  2
BLOCKS
  0
BLOCK
  5
18
330
17
100
AcDbEntity
  8
0
100
AcDbBlockBegin
  2
*Model_Space
 70
0
 10
0.0
 20
0.0
 30
0.0
  3
*Model_Space
  1

  0
ENDBLK
  5
19
330
17
100
AcDbEntity
  8
0
100
AcDbBlockEnd
  0
BLOCK
  5
1C
330
1B
100
AcDbEntity
  8
0
100
AcDbBlockBegin
  2
*Paper_Space
 70
0
 10
0.0
 20
0.0
 30
0.0
  3
*Paper_Space
  1

  0
ENDBLK
  5
1D
330
1B
100
AcDbEntity
  8
0
100
AcDbBlockEnd
  0
ENDSEC
  0
SECTION
  2
ENTITIES
  0
LINE
  5
2E
330
17
100
AcDbEntity
  8
TOP
100
AcDbLine
 10
0.0
 20
8.269337567297406
 30
0.0
 11
4.465426824526944
 21
5.652159376928749
 31
0.0
  0
LINE
  5
2F
330
17
100
AcDbEntity
  8
TOP
100
AcDbLine
 10
0.0
 20
7.9806624327025935
 30
0.0
 11
4.340426824526944
 21
5.4356530259826386
 31
0.0
  0
LINE
  5
30
330
17
100
AcDbEntity
  8
TOP
100
AcDbLine
 10
0.0
 20
8.269337567297406
 30
0.0
 11
0.0
 21
7.9806624327025935
 31
0.0
  0
LINE
  5
31
330
17
100
AcDbEntity
  8
TOP
100
AcDbLine
 10
6.224573175473055
 20
5.652159376928749
 30
0.0
 11
10.69
 21
8.269337567297406
 31
0.0
  0
LINE
  5
32
330
17
100
AcDbEntity
  8
TOP
100
AcDbLine
 10
10.69
 20
8.269337567297406
 30
0.0
 11
15.155426824526947
 21
5.652159376928749
 31
0.0
  0
LINE
  5
33
330
17
100
AcDbEntity
  8
TOP
100
AcDbLine
 10
6.349573175473055
 20
5.4356530259826386
 30
0.0
 11
10.69
 21
7.9806624327025935
 31
0.0
  0
LINE
  5
34
330
17
100
AcDbEntity
  8
TOP
100
AcDbLine
 10
10.69
 20
7.9806624327025935
 30
0.0
 11
15.030426824526947
 21
5.4356530259826386
 31
0.0
  0
LINE
  5
35
330
17
100
AcDbEntity
  8
TOP
100
AcDbLine
 10
16.914573175473055
 20
5.652159376928749
 30
0.0
 11
21.38
 21
8.269337567297406
 31
0.0
  0
LINE
  5
36
330
17
100
AcDbEntity
  8
TOP
100
AcDbLine
 10
21.38
 20
8.269337567297406
 30
0.0
 11
25.845426824526943
 21
5.652159376928749
 31
0.0
  0
LINE
  5
37
330
17
100
AcDbEntity
  8
TOP
100
AcDbLine
 10
17.039573175473055
 20
5.4356530259826386
 30
0.0
 11
21.38
 21
7.9806624327025935
 31
0.0
  0
LINE
  5
38
330
17
100
AcDbEntity
  8
TOP
100
AcDbLine
 10
21.38
 20
7.9806624327025935
 30
0.0
 11
25.720426824526943
 21
5.4356530259826386
 31
0.0
  0
LINE
  5
39
330
17
100
AcDbEntity
  8
TOP
100
AcDbLine
 10
27.604573175473053
 20
5.652159376928749
 30
0.0
 11
32.07
 21
8.269337567297406
 31
0.0
  0
LINE
  5
3A
330
17
100
AcDbEntity
  8
TOP
100
AcDbLine
 10
27.729573175473053
 20
5.4356530259826386
 30
0.0
 11
32.07
 21
7.9806624327025935
 31
0.0
  0
LINE
  5
3B
330
17
100
AcDbEntity
  8
TOP
100
AcDbLine
 10
32.07
 20
8.269337567297406
 30
0.0
 11
32.07
 21
7.9806624327025935
 31
0.0
  0
LINE
  5
3C
330
17
100
AcDbEntity
  8
TOP
100
AcDbLine
 10
0.8795731754730547
 20
8.777159376928749
 30
0.0
 11
5.345
 21
11.394337567297406
 31
0.0
  0
LINE
  5
3D
330
17
100
AcDbEntity
  8
TOP
100
AcDbLine
 10
5.345
 20
11.394337567297406
 30
0.0
 11
9.810426824526946
 21
8.777159376928749
 31
0.0
  0
LINE
  5
3E
330
17
100
AcDbEntity
  8
TOP
100
AcDbLine
 10
1.0045731754730547
 20
8.56065302598264
 30
0.0
 11
5.345
 21
11.105662432702594
 31
0.0
  0
LINE
  5
3F
330
17
100
AcDbEntity
  8
TOP
100
AcDbLine
 10
5.345
 20
11.105662432702594
 30
0.0
 11
9.685426824526946
 21
8.56065302598264
 31
0.0
  0
LINE
  5
40
330
17
100
AcDbEntity
  8
TOP
100
AcDbLine
 10
11.569573175473053
 20
8.777159376928749
 30
0.0
 11
16.035
 21
11.394337567297406
 31
0.0
  0
LINE
  5
41
330
17
100
AcDbEntity
  8
TOP
100
AcDbLine
 10
16.035
 20
11.394337567297406
 30
0.0
 11
20.500426824526944
 21
8.777159376928749
 31
0.0
  0
LINE
  5
42
330
17
100
AcDbEntity
  8
TOP
100
AcDbLine
 10
11.694573175473053
 20
8.56065302598264
 30
0.0
 11
16.035
 21
11.105662432702594
 31
0.0
  0
LINE
  5
43
330
17
100
AcDbEntity
  8
TOP
100
AcDbLine
 10
16.035
 20
11.105662432702594
 30
0.0
 11
20.375426824526944
 21
8.56065302598264
 31
0.0
  0
LINE
  5
44
330
17
100
AcDbEntity
  8
TOP
100
AcDbLine
 10
22.259573175473054
 20
8.777159376928749
 30
0.0
 11
26.724999999999998
 21
11.394337567297406
 31
0.0
  0
LINE
  5
45
330
17
100
AcDbEntity
  8
TOP
100
AcDbLine
 10
26.724999999999998
 20
11.394337567297406
 30
0.0
 11
31.190426824526945
 21
8.777159376928749
 31
0.0
  0
LINE
  5
46
330
17
100
AcDbEntity
  8
TOP
100
AcDbLine
 10
22.384573175473054
 20
8.56065302598264
 30
0.0
 11
26.724999999999998
 21
11.105662432702594
 31
0.0
  0
LINE
  5
47
330
17
100
AcDbEntity
  8
TOP
100
AcDbLine
 10
26.724999999999998
 20
11.105662432702594
 30
0.0
 11
31.065426824526945
 21
8.56065302598264
 31
0.0
  0
LINE
  5
48
330
17
100
AcDbEntity
  8
TOP
100
AcDbLine
 10
0.0
 20
14.519337567297406
 30
0.0
 11
4.465426824526944
 21
11.902159376928749
 31
0.0
  0
LINE
  5
49
330
17
100
AcDbEntity
  8
TOP
100
AcDbLine
 10
0.0
 20
14.230662432702594
 30
0.0
 11
4.340426824526944
 21
11.68565302598264
 31
0.0
  0
LINE
  5
4A
330
17
100
AcDbEntity
  8
TOP
100
AcDbLine
 10
0.0
 20
14.519337567297406
 30
0.0
 11
0.0
 21
14.230662432702594
 31
0.0
  0
LINE
  5
4B
330
17
100
AcDbEntity
  8
TOP
100
AcDbLine
 10
6.224573175473055
 20
11.902159376928749
 30
0.0
 11
10.69
 21
14.519337567297406
 31
0.0
  0
LINE
  5
4C
330
17
100
AcDbEntity
  8
TOP
100
AcDbLine
 10
10.69
 20
14.519337567297406
 30
0.0
 11
15.155426824526947
 21
11.902159376928749
 31
0.0
  0
LINE
  5
4D
330
17
100
AcDbEntity
  8
TOP
100
AcDbLine
 10
6.349573175473055
 20
11.68565302598264
 30
0.0
 11
10.69
 21
14.230662432702594
 31
0.0
  0
LINE
  5
4E
330
17
100
AcDbEntity
  8
TOP
100
AcDbLine
 10
10.69
 20
14.230662432702594
 30
0.0
 11
15.030426824526947
 21
11.68565302598264
 31
0.0
  0
LINE
  5
4F
330
17
100
AcDbEntity
  8
TOP
100
AcDbLine
 10
16.914573175473055
 20
11.902159376928749
 30
0.0
 11
21.38
 21
14.519337567297406
 31
0.0
  0
LINE
  5
50
330
17
100
AcDbEntity
  8
TOP
100
AcDbLine
 10
21.38
 20
14.519337567297406
 30
0.0
 11
25.845426824526943
 21
11.902159376928749
 31
0.0
  0
LINE
  5
51
330
17
100
AcDbEntity
  8
TOP
100
AcDbLine
 10
17.039573175473055
 20
11.68565302598264
 30
0.0
 11
21.38
 21
14.230662432702594
 31
0.0
  0
LINE
  5
52
330
17
100
AcDbEntity
  8
TOP
100
AcDbLine
 10
21.38
 20
14.230662432702594
 30
0.0
 11
25.720426824526943
 21
11.68565302598264
 31
0.0
  0
LINE
  5
53
330
17
100
AcDbEntity
  8
TOP
100
AcDbLine
 10
27.604573175473053
 20
11.902159376928749
 30
0.0
 11
32.07
 21
14.519337567297406
 31
0.0
  0
LINE
  5
54
330
17
100
AcDbEntity
  8
TOP
100
AcDbLine
 10
27.729573175473053
 20
11.68565302598264
 30
0.0
 11
32.07
 21
14.230662432702594
 31
0.0
  0
LINE
  5
55
330
17
100
AcDbEntity
  8
TOP
100
AcDbLine
 10
32.07
 20
14.519337567297406
 30
0.0
 11
32.07
 21
14.230662432702594
 31
0.0
  0
LINE
  5
56
330
17
100
AcDbEntity
  8
TOP
100
AcDbLine
 10
0.8795731754730547
 20
15.027159376928747
 30
0.0
 11
5.345
 21
17.644337567297406
 31
0.0
  0
LINE
  5
57
330
17
100
AcDbEntity
  8
TOP
100
AcDbLine
 10
5.345
 20
17.644337567297406
 30
0.0
 11
9.810426824526946
 21
15.027159376928747
 31
0.0
  0
LINE
  5
58
330
17
100
AcDbEntity
  8
TOP
100
AcDbLine
 10
1.0045731754730547
 20
14.810653025982639
 30
0.0
 11
5.345
 21
17.355662432702594
 31
0.0
  0
LINE
  5
59
330
17
100
AcDbEntity
  8
TOP
100
AcDbLine
 10
5.345
 20
17.355662432702594
 30
0.0
 11
9.685426824526946
 21
14.810653025982639
 31
0.0
  0
LINE
  5
5A
330
17
100
AcDbEntity
  8
TOP
100
AcDbLine
 10
11.569573175473053
 20
15.027159376928747
 30
0.0
 11
16.035
 21
17.644337567297406
 31
0.0
  0
LINE
  5
5B
330
17
100
AcDbEntity
  8
TOP
100
AcDbLine
 10
16.035
 20
17.644337567297406
 30
0.0
 11
20.500426824526944
 21
15.027159376928747
 31
0.0
  0
LINE
  5
5C
330
17
100
AcDbEntity
  8
TOP
100
AcDbLine
 10
11.694573175473053
 20
14.810653025982639
 30
0.0
 11
16.035
 21
17.355662432702594
 31
0.0
  0
LINE
  5
5D
330
17
100
AcDbEntity
  8
TOP
100
AcDbLine
 10
16.035
 20
17.355662432702594
 30
0.0
 11
20.375426824526944
 21
14.810653025982639
 31
0.0
  0
LINE
  5
5E
330
17
100
AcDbEntity
  8
TOP
100
AcDbLine
 10
22.259573175473054
 20
15.027159376928747
 30
0.0
 11
26.724999999999998
 21
17.644337567297406
 31
0.0
  0
LINE
  5
5F
330
17
100
AcDbEntity
  8
TOP
100
AcDbLine
 10
26.724999999999998
 20
17.644337567297406
 30
0.0
 11
31.190426824526945
 21
15.027159376928747
 31
0.0
  0
LINE
  5
60
330
17
100
AcDbEntity
  8
TOP
100
AcDbLine
 10
22.384573175473054
 20
14.810653025982639
 30
0.0
 11
26.724999999999998
 21
17.355662432702594
 31
0.0
  0
LINE
  5
61
330
17
100
AcDbEntity
  8
TOP
100
AcDbLine
 10
26.724999999999998
 20
17.355662432702594
 30
0.0
 11
31.065426824526945
 21
14.810653025982639
 31
0.0
  0
LINE
  5
62
330
17
100
AcDbEntity
  8
TOP
100
AcDbLine
 10
0.0
 20
20.769337567297406
 30
0.0
 11
4.465426824526944
 21
18.152159376928747
 31
0.0
  0
LINE
  5
63
330
17
100
AcDbEntity
  8
TOP
100
AcDbLine
 10
0.0
 20
20.480662432702594
 30
0.0
 11
4.340426824526944
 21
17.935653025982635
 31
0.0
  0
LINE
  5
64
330
17
100
AcDbEntity
  8
TOP
100
AcDbLine
 10
0.0
 20
20.769337567297406
 30
0.0
 11
0.0
 21
20.480662432702594
 31
0.0
  0
LINE
  5
65
330
17
100
AcDbEntity
  8
TOP
100
AcDbLine
 10
6.224573175473055
 20
18.152159376928747
 30
0.0
 11
10.69
 21
20.769337567297406
 31
0.0
  0
LINE
  5
66
330
17
100
AcDbEntity
  8
TOP
100
AcDbLine
 10
10.69
 20
20.769337567297406
 30
0.0
 11
15.155426824526947
 21
18.152159376928747
 31
0.0
  0
LINE
  5
67
330
17
100
AcDbEntity
  8
TOP
100
AcDbLine
 10
6.349573175473055
 20
17.935653025982635
 30
0.0
 11
10.69
 21
20.480662432702594
 31
0.0
  0
LINE
  5
68
330
17
100
AcDbEntity
  8
TOP
100
AcDbLine
 10
10.69
 20
20.480662432702594
 30
0.0
 11
15.030426824526947
 21
17.935653025982635
 31
0.0
  0
LINE
  5
69
330
17
100
AcDbEntity
  8
TOP
100
AcDbLine
 10
16.914573175473055
 20
18.152159376928747
 30
0.0
 11
21.38
 21
20.769337567297406
 31
0.0
  0
LINE
  5
6A
330
17
100
AcDbEntity
  8
TOP
100
AcDbLine
 10
21.38
 20
20.769337567297406
 30
0.0
 11
25.845426824526943
 21
18.152159376928747
 31
0.0
  0
LINE
  5
6B
330
17
100
AcDbEntity
  8
TOP
100
AcDbLine
 10
17.039573175473055
 20
17.935653025982635
 30
0.0
 11
21.38
 21
20.480662432702594
 31
0.0
  0
LINE
  5
6C
330
17
100
AcDbEntity
  8
TOP
100
AcDbLine
 10
21.38
 20
20.480662432702594
 30
0.0
 11
25.720426824526943
 21
17.935653025982635
 31
0.0
  0
LINE
  5
6D
330
17
100
AcDbEntity
  8
TOP
100
AcDbLine
 10
27.604573175473053
 20
18.152159376928747
 30
0.0
 11
32.07
 21
20.769337567297406
 31
0.0
  0
LINE
  5
6E
330
17
100
AcDbEntity
  8
TOP
100
AcDbLine
 10
27.729573175473053
 20
17.935653025982635
 30
0.0
 11
32.07
 21
20.480662432702594
 31
0.0
  0
LINE
  5
6F
330
17
100
AcDbEntity
  8
TOP
100
AcDbLine
 10
32.07
 20
20.769337567297406
 30
0.0
 11
32.07
 21
20.480662432702594
 31
0.0
  0
LINE
  5
70
330
17
100
AcDbEntity
  8
TOP
100
AcDbLine
 10
0.8795731754730547
 20
21.27715937692875
 30
0.0
 11
5.345
 21
23.894337567297406
 31
0.0
  0
LINE
  5
71
330
17
100
AcDbEntity
  8
TOP
100
AcDbLine
 10
5.345
 20
23.894337567297406
 30
0.0
 11
9.810426824526946
 21
21.27715937692875
 31
0.0
  0
LINE
  5
72
330
17
100
AcDbEntity
  8
TOP
100
AcDbLine
 10
1.0045731754730547
 20
21.06065302598264
 30
0.0
 11
5.345
 21
23.605662432702594
 31
0.0
  0
LINE
  5
73
330
17
100
AcDbEntity
  8
TOP
100
AcDbLine
 10
5.345
 20
23.605662432702594
 30
0.0
 11
9.685426824526946
 21
21.06065302598264
 31
0.0
  0
LINE
  5
74
330
17
100
AcDbEntity
  8
TOP
100
AcDbLine
 10
11.569573175473053
 20
21.27715937692875
 30
0.0
 11
16.035
 21
23.894337567297406
 31
0.0
  0
LINE
  5
75
330
17
100
AcDbEntity
  8
TOP
100
AcDbLine
 10
16.035
 20
23.894337567297406
 30
0.0
 11
20.500426824526944
 21
21.27715937692875
 31
0.0
  0
LINE
  5
76
330
17
100
AcDbEntity
  8
TOP
100
AcDbLine
 10
11.694573175473053
 20
21.06065302598264
 30
0.0
 11
16.035
 21
23.605662432702594
 31
0.0
  0
LINE
  5
77
330
17
100
AcDbEntity
  8
TOP
100
AcDbLine
 10
16.035
 20
23.605662432702594
 30
0.0
 11
20.375426824526944
 21
21.06065302598264
 31
0.0
  0
LINE
  5
78
330
17
100
AcDbEntity
  8
TOP
100
AcDbLine
 10
22.259573175473054
 20
21.27715937692875
 30
0.0
 11
26.724999999999998
 21
23.894337567297406
 31
0.0
  0
LINE
  5
79
330
17
100
AcDbEntity
  8
TOP
100
AcDbLine
 10
26.724999999999998
 20
23.894337567297406
 30
0.0
 11
31.190426824526945
 21
21.27715937692875
 31
0.0
  0
LINE
  5
7A
330
17
100
AcDbEntity
  8
TOP
100
AcDbLine
 10
22.384573175473054
 20
21.06065302598264
 30
0.0
 11
26.724999999999998
 21
23.605662432702594
 31
0.0
  0
LINE
  5
7B
330
17
100
AcDbEntity
  8
TOP
100
AcDbLine
 10
26.724999999999998
 20
23.605662432702594
 30
0.0
 11
31.065426824526945
 21
21.06065302598264
 31
0.0
  0
LINE
  5
7C
330
17
100
AcDbEntity
  8
TOP
100
AcDbLine
 10
0.0
 20
27.019337567297406
 30
0.0
 11
4.465426824526944
 21
24.40215937692875
 31
0.0
  0
LINE
  5
7D
330
17
100
AcDbEntity
  8
TOP
100
AcDbLine
 10
0.0
 20
26.730662432702594
 30
0.0
 11
4.340426824526944
 21
24.18565302598264
 31
0.0
  0
LINE
  5
7E
330
17
100
AcDbEntity
  8
TOP
100
AcDbLine
 10
0.0
 20
27.019337567297406
 30
0.0
 11
0.0
 21
26.730662432702594
 31
0.0
  0
LINE
  5
7F
330
17
100
AcDbEntity
  8
TOP
100
AcDbLine
 10
6.224573175473055
 20
24.40215937692875
 30
0.0
 11
10.69
 21
27.019337567297406
 31
0.0
  0
LINE
  5
80
330
17
100
AcDbEntity
  8
TOP
100
AcDbLine
 10
10.69
 20
27.019337567297406
 30
0.0
 11
15.155426824526947
 21
24.40215937692875
 31
0.0
  0
LINE
  5
81
330
17
100
AcDbEntity
  8
TOP
100
AcDbLine
 10
6.349573175473055
 20
24.18565302598264
 30
0.0
 11
10.69
 21
26.730662432702594
 31
0.0
  0
LINE
  5
82
330
17
100
AcDbEntity
  8
TOP
100
AcDbLine
 10
10.69
 20
26.730662432702594
 30
0.0
 11
15.030426824526947
 21
24.18565302598264
 31
0.0
  0
LINE
  5
83
330
17
100
AcDbEntity
  8
TOP
100
AcDbLine
 10
16.914573175473055
 20
24.40215937692875
 30
0.0
 11
21.38
 21
27.019337567297406
 31
0.0
  0
LINE
  5
84
330
17
100
AcDbEntity
  8
TOP
100
AcDbLine
 10
21.38
 20
27.019337567297406
 30
0.0
 11
25.845426824526943
 21
24.40215937692875
 31
0.0
  0
LINE
  5
85
330
17
100
AcDbEntity
  8
TOP
100
AcDbLine
 10
17.039573175473055
 20
24.18565302598264
 30
0.0
 11
21.38
 21
26.730662432702594
 31
0.0
  0
LINE
  5
86
330
17
100
AcDbEntity
  8
TOP
100
AcDbLine
 10
21.38
 20
26.730662432702594
 30
0.0
 11
25.720426824526943
 21
24.18565302598264
 31
0.0
  0
LINE
  5
87
330
17
100
AcDbEntity
  8
TOP
100
AcDbLine
 10
27.604573175473053
 20
24.40215937692875
 30
0.0
 11
32.07
 21
27.019337567297406
 31
0.0
  0
LINE
  5
88
330
17
100
AcDbEntity
  8
TOP
100
AcDbLine
 10
27.729573175473053
 20
24.18565302598264
 30
0.0
 11
32.07
 21
26.730662432702594
 31
0.0
  0
LINE
  5
89
330
17
100
AcDbEntity
  8
TOP
100
AcDbLine
 10
32.07
 20
27.019337567297406
 30
0.0
 11
32.07
 21
26.730662432702594
 31
0.0
  0
LINE
  5
8A
330
17
100
AcDbEntity
  8
TOP
100
AcDbLine
 10
0.8795731754730547
 20
27.52715937692875
 30
0.0
 11
5.345
 21
30.144337567297406
 31
0.0
  0
LINE
  5
8B
330
17
100
AcDbEntity
  8
TOP
100
AcDbLine
 10
5.345
 20
30.144337567297406
 30
0.0
 11
9.810426824526946
 21
27.52715937692875
 31
0.0
  0
LINE
  5
8C
330
17
100
AcDbEntity
  8
TOP
100
AcDbLine
 10
1.0045731754730547
 20
27.31065302598264
 30
0.0
 11
5.345
 21
29.855662432702594
 31
0.0
  0
LINE
  5
8D
330
17
100
AcDbEntity
  8
TOP
100
AcDbLine
 10
5.345
 20
29.855662432702594
 30
0.0
 11
9.685426824526946
 21
27.31065302598264
 31
0.0
  0
LINE
  5
8E
330
17
100
AcDbEntity
  8
TOP
100
AcDbLine
 10
11.569573175473053
 20
27.52715937692875
 30
0.0
 11
16.035
 21
30.144337567297406
 31
0.0
  0
LINE
  5
8F
330
17
100
AcDbEntity
  8
TOP
100
AcDbLine
 10
16.035
 20
30.144337567297406
 30
0.0
 11
20.500426824526944
 21
27.52715937692875
 31
0.0
  0
LINE
  5
90
330
17
100
AcDbEntity
  8
TOP
100
AcDbLine
 10
11.694573175473053
 20
27.31065302598264
 30
0.0
 11
16.035
 21
29.855662432702594
 31
0.0
  0
LINE
  5
91
330
17
100
AcDbEntity
  8
TOP
100
AcDbLine
 10
16.035
 20
29.855662432702594
 30
0.0
 11
20.375426824526944
 21
27.31065302598264
 31
0.0
  0
LINE
  5
92
330
17
100
AcDbEntity
  8
TOP
100
AcDbLine
 10
22.259573175473054
 20
27.52715937692875
 30
0.0
 11
26.724999999999998
 21
30.144337567297406
 31
0.0
  0
LINE
  5
93
330
17
100
AcDbEntity
  8
TOP
100
AcDbLine
 10
26.724999999999998
 20
30.144337567297406
 30
0.0
 11
31.190426824526945
 21
27.52715937692875
 31
0.0
  0
LINE
  5
94
330
17
100
AcDbEntity
  8
TOP
100
AcDbLine
 10
22.384573175473054
 20
27.31065302598264
 30
0.0
 11
26.724999999999998
 21
29.855662432702594
 31
0.0
  0
LINE
  5
95
330
17
100
AcDbEntity
  8
TOP
100
AcDbLine
 10
26.724999999999998
 20
29.855662432702594
 30
0.0
 11
31.065426824526945
 21
27.31065302598264
 31
0.0
  0
LINE
  5
96
330
17
100
AcDbEntity
  8
TOP
100
AcDbLine
 10
0.0
 20
33.269337567297406
 30
0.0
 11
4.465426824526944
 21
30.65215937692875
 31
0.0
  0
LINE
  5
97
330
17
100
AcDbEntity
  8
TOP
100
AcDbLine
 10
0.0
 20
32.980662432702594
 30
0.0
 11
4.340426824526944
 21
30.43565302598264
 31
0.0
  0
LINE
  5
98
330
17
100
AcDbEntity
  8
TOP
100
AcDbLine
 10
0.0
 20
33.269337567297406
 30
0.0
 11
0.0
 21
32.980662432702594
 31
0.0
  0
LINE
  5
99
330
17
100
AcDbEntity
  8
TOP
100
AcDbLine
 10
6.224573175473055
 20
30.65215937692875
 30
0.0
 11
10.69
 21
33.269337567297406
 31
0.0
  0
LINE
  5
9A
330
17
100
AcDbEntity
  8
TOP
100
AcDbLine
 10
10.69
 20
33.269337567297406
 30
0.0
 11
15.155426824526947
 21
30.65215937692875
 31
0.0
  0
LINE
  5
9B
330
17
100
AcDbEntity
  8
TOP
100
AcDbLine
 10
6.349573175473055
 20
30.43565302598264
 30
0.0
 11
10.69
 21
32.980662432702594
 31
0.0
  0
LINE
  5
9C
330
17
100
AcDbEntity
  8
TOP
100
AcDbLine
 10
10.69
 20
32.980662432702594
 30
0.0
 11
15.030426824526947
 21
30.43565302598264
 31
0.0
  0
LINE
  5
9D
330
17
100
AcDbEntity
  8
TOP
100
AcDbLine
 10
16.914573175473055
 20
30.65215937692875
 30
0.0
 11
21.38
 21
33.269337567297406
 31
0.0
  0
LINE
  5
9E
330
17
100
AcDbEntity
  8
TOP
100
AcDbLine
 10
21.38
 20
33.269337567297406
 30
0.0
 11
25.845426824526943
 21
30.65215937692875
 31
0.0
  0
LINE
  5
9F
330
17
100
AcDbEntity
  8
TOP
100
AcDbLine
 10
17.039573175473055
 20
30.43565302598264
 30
0.0
 11
21.38
 21
32.980662432702594
 31
0.0
  0
LINE
  5
A0
330
17
100
AcDbEntity
  8
TOP
100
AcDbLine
 10
21.38
 20
32.980662432702594
 30
0.0
 11
25.720426824526943
 21
30.43565302598264
 31
0.0
  0
LINE
  5
A1
330
17
100
AcDbEntity
  8
TOP
100
AcDbLine
 10
27.604573175473053
 20
30.65215937692875
 30
0.0
 11
32.07
 21
33.269337567297406
 31
0.0
  0
LINE
  5
A2
330
17
100
AcDbEntity
  8
TOP
100
AcDbLine
 10
27.729573175473053
 20
30.43565302598264
 30
0.0
 11
32.07
 21
32.980662432702594
 31
0.0
  0
LINE
  5
A3
330
17
100
AcDbEntity
  8
TOP
100
AcDbLine
 10
32.07
 20
33.269337567297406
 30
0.0
 11
32.07
 21
32.980662432702594
 31
0.0
  0
LINE
  5
A4
330
17
100
AcDbEntity
  8
TOP
100
AcDbLine
 10
0.8795731754730547
 20
33.77715937692875
 30
0.0
 11
5.345
 21
36.394337567297406
 31
0.0
  0
LINE
  5
A5
330
17
100
AcDbEntity
  8
TOP
100
AcDbLine
 10
5.345
 20
36.394337567297406
 30
0.0
 11
9.810426824526946
 21
33.77715937692875
 31
0.0
  0
LINE
  5
A6
330
17
100
AcDbEntity
  8
TOP
100
AcDbLine
 10
1.0045731754730547
 20
33.560653025982646
 30
0.0
 11
5.345
 21
36.105662432702594
 31
0.0
  0
LINE
  5
A7
330
17
100
AcDbEntity
  8
TOP
100
AcDbLine
 10
5.345
 20
36.105662432702594
 30
0.0
 11
9.685426824526946
 21
33.560653025982646
 31
0.0
  0
LINE
  5
A8
330
17
100
AcDbEntity
  8
TOP
100
AcDbLine
 10
11.569573175473053
 20
33.77715937692875
 30
0.0
 11
16.035
 21
36.394337567297406
 31
0.0
  0
LINE
  5
A9
330
17
100
AcDbEntity
  8
TOP
100
AcDbLine
 10
16.035
 20
36.394337567297406
 30
0.0
 11
20.500426824526944
 21
33.77715937692875
 31
0.0
  0
LINE
  5
AA
330
17
100
AcDbEntity
  8
TOP
100
AcDbLine
 10
11.694573175473053
 20
33.560653025982646
 30
0.0
 11
16.035
 21
36.105662432702594
 31
0.0
  0
LINE
  5
AB
330
17
100
AcDbEntity
  8
TOP
100
AcDbLine
 10
16.035
 20
36.105662432702594
 30
0.0
 11
20.375426824526944
 21
33.560653025982646
 31
0.0
  0
LINE
  5
AC
330
17
100
AcDbEntity
  8
TOP
100
AcDbLine
 10
22.259573175473054
 20
33.77715937692875
 30
0.0
 11
26.724999999999998
 21
36.394337567297406
 31
0.0
  0
LINE
  5
AD
330
17
100
AcDbEntity
  8
TOP
100
AcDbLine
 10
26.724999999999998
 20
36.394337567297406
 30
0.0
 11
31.190426824526945
 21
33.77715937692875
 31
0.0
  0
LINE
  5
AE
330
17
100
AcDbEntity
  8
TOP
100
AcDbLine
 10
22.384573175473054
 20
33.560653025982646
 30
0.0
 11
26.724999999999998
 21
36.105662432702594
 31
0.0
  0
LINE
  5
AF
330
17
100
AcDbEntity
  8
TOP
100
AcDbLine
 10
26.724999999999998
 20
36.105662432702594
 30
0.0
 11
31.065426824526945
 21
33.560653025982646
 31
0.0
  0
LINE
  5
B0
330
17
100
AcDbEntity
  8
TOP
100
AcDbLine
 10
0.0
 20
39.519337567297406
 30
0.0
 11
4.465426824526944
 21
36.90215937692875
 31
0.0
  0
LINE
  5
B1
330
17
100
AcDbEntity
  8
TOP
100
AcDbLine
 10
0.0
 20
39.230662432702594
 30
0.0
 11
4.340426824526944
 21
36.685653025982646
 31
0.0
  0
LINE
  5
B2
330
17
100
AcDbEntity
  8
TOP
100
AcDbLine
 10
0.0
 20
39.519337567297406
 30
0.0
 11
0.0
 21
39.230662432702594
 31
0.0
  0
LINE
  5
B3
330
17
100
AcDbEntity
  8
TOP
100
AcDbLine
 10
6.224573175473055
 20
36.90215937692875
 30
0.0
 11
10.69
 21
39.519337567297406
 31
0.0
  0
LINE
  5
B4
330
17
100
AcDbEntity
  8
TOP
100
AcDbLine
 10
10.69
 20
39.519337567297406
 30
0.0
 11
15.155426824526947
 21
36.90215937692875
 31
0.0
  0
LINE
  5
B5
330
17
100
AcDbEntity
  8
TOP
100
AcDbLine
 10
6.349573175473055
 20
36.685653025982646
 30
0.0
 11
10.69
 21
39.230662432702594
 31
0.0
  0
LINE
  5
B6
330
17
100
AcDbEntity
  8
TOP
100
AcDbLine
 10
10.69
 20
39.230662432702594
 30
0.0
 11
15.030426824526947
 21
36.685653025982646
 31
0.0
  0
LINE
  5
B7
330
17
100
AcDbEntity
  8
TOP
100
AcDbLine
 10
16.914573175473055
 20
36.90215937692875
 30
0.0
 11
21.38
 21
39.519337567297406
 31
0.0
  0
LINE
  5
B8
330
17
100
AcDbEntity
  8
TOP
100
AcDbLine
 10
21.38
 20
39.519337567297406
 30
0.0
 11
25.845426824526943
 21
36.90215937692875
 31
0.0
  0
LINE
  5
B9
330
17
100
AcDbEntity
  8
TOP
100
AcDbLine
 10
17.039573175473055
 20
36.685653025982646
 30
0.0
 11
21.38
 21
39.230662432702594
 31
0.0
  0
LINE
  5
BA
330
17
100
AcDbEntity
  8
TOP
100
AcDbLine
 10
21.38
 20
39.230662432702594
 30
0.0
 11
25.720426824526943
 21
36.685653025982646
 31
0.0
  0
LINE
  5
BB
330
17
100
AcDbEntity
  8
TOP
100
AcDbLine
 10
27.604573175473053
 20
36.90215937692875
 30
0.0
 11
32.07
 21
39.519337567297406
 31
0.0
  0
LINE
  5
BC
330
17
100
AcDbEntity
  8
TOP
100
AcDbLine
 10
27.729573175473053
 20
36.685653025982646
 30
0.0
 11
32.07
 21
39.230662432702594
 31
0.0
  0
LINE
  5
BD
330
17
100
AcDbEntity
  8
TOP
100
AcDbLine
 10
32.07
 20
39.519337567297406
 30
0.0
 11
32.07
 21
39.230662432702594
 31
0.0
  0
LINE
  5
BE
330
17
100
AcDbEntity
  8
TOP
100
AcDbLine
 10
0.8795731754730547
 20
40.02715937692874
 30
0.0
 11
5.345
 21
42.644337567297406
 31
0.0
  0
LINE
  5
BF
330
17
100
AcDbEntity
  8
TOP
100
AcDbLine
 10
5.345
 20
42.644337567297406
 30
0.0
 11
9.810426824526946
 21
40.02715937692874
 31
0.0
  0
LINE
  5
C0
330
17
100
AcDbEntity
  8
TOP
100
AcDbLine
 10
1.0045731754730547
 20
39.81065302598264
 30
0.0
 11
5.345
 21
42.355662432702594
 31
0.0
  0
LINE
  5
C1
330
17
100
AcDbEntity
  8
TOP
100
AcDbLine
 10
5.345
 20
42.355662432702594
 30
0.0
 11
9.685426824526946
 21
39.81065302598264
 31
0.0
  0
LINE
  5
C2
330
17
100
AcDbEntity
  8
TOP
100
AcDbLine
 10
11.569573175473053
 20
40.02715937692874
 30
0.0
 11
16.035
 21
42.644337567297406
 31
0.0
  0
LINE
  5
C3
330
17
100
AcDbEntity
  8
TOP
100
AcDbLine
 10
16.035
 20
42.644337567297406
 30
0.0
 11
20.500426824526944
 21
40.02715937692874
 31
0.0
  0
LINE
  5
C4
330
17
100
AcDbEntity
  8
TOP
100
AcDbLine
 10
11.694573175473053
 20
39.81065302598264
 30
0.0
 11
16.035
 21
42.355662432702594
 31
0.0
  0
LINE
  5
C5
330
17
100
AcDbEntity
  8
TOP
100
AcDbLine
 10
16.035
 20
42.355662432702594
 30
0.0
 11
20.375426824526944
 21
39.81065302598264
 31
0.0
  0
LINE
  5
C6
330
17
100
AcDbEntity
  8
TOP
100
AcDbLine
 10
22.259573175473054
 20
40.02715937692874
 30
0.0
 11
26.724999999999998
 21
42.644337567297406
 31
0.0
  0
LINE
  5
C7
330
17
100
AcDbEntity
  8
TOP
100
AcDbLine
 10
26.724999999999998
 20
42.644337567297406
 30
0.0
 11
31.190426824526945
 21
40.02715937692874
 31
0.0
  0
LINE
  5
C8
330
17
100
AcDbEntity
  8
TOP
100
AcDbLine
 10
22.384573175473054
 20
39.81065302598264
 30
0.0
 11
26.724999999999998
 21
42.355662432702594
 31
0.0
  0
LINE
  5
C9
330
17
100
AcDbEntity
  8
TOP
100
AcDbLine
 10
26.724999999999998
 20
42.355662432702594
 30
0.0
 11
31.065426824526945
 21
39.81065302598264
 31
0.0
  0
LINE
  5
CA
330
17
100
AcDbEntity
  8
TOP
100
AcDbLine
 10
0.0
 20
45.769337567297406
 30
0.0
 11
4.465426824526944
 21
43.15215937692874
 31
0.0
  0
LINE
  5
CB
330
17
100
AcDbEntity
  8
TOP
100
AcDbLine
 10
0.0
 20
45.480662432702594
 30
0.0
 11
4.340426824526944
 21
42.93565302598264
 31
0.0
  0
LINE
  5
CC
330
17
100
AcDbEntity
  8
TOP
100
AcDbLine
 10
0.0
 20
45.769337567297406
 30
0.0
 11
0.0
 21
45.480662432702594
 31
0.0
  0
LINE
  5
CD
330
17
100
AcDbEntity
  8
TOP
100
AcDbLine
 10
6.224573175473055
 20
43.15215937692874
 30
0.0
 11
10.69
 21
45.769337567297406
 31
0.0
  0
LINE
  5
CE
330
17
100
AcDbEntity
  8
TOP
100
AcDbLine
 10
10.69
 20
45.769337567297406
 30
0.0
 11
15.155426824526947
 21
43.15215937692874
 31
0.0
  0
LINE
  5
CF
330
17
100
AcDbEntity
  8
TOP
100
AcDbLine
 10
6.349573175473055
 20
42.93565302598264
 30
0.0
 11
10.69
 21
45.480662432702594
 31
0.0
  0
LINE
  5
D0
330
17
100
AcDbEntity
  8
TOP
100
AcDbLine
 10
10.69
 20
45.480662432702594
 30
0.0
 11
15.030426824526947
 21
42.93565302598264
 31
0.0
  0
LINE
  5
D1
330
17
100
AcDbEntity
  8
TOP
100
AcDbLine
 10
16.914573175473055
 20
43.15215937692874
 30
0.0
 11
21.38
 21
45.769337567297406
 31
0.0
  0
LINE
  5
D2
330
17
100
AcDbEntity
  8
TOP
100
AcDbLine
 10
21.38
 20
45.769337567297406
 30
0.0
 11
25.845426824526943
 21
43.15215937692874
 31
0.0
  0
LINE
  5
D3
330
17
100
AcDbEntity
  8
TOP
100
AcDbLine
 10
17.039573175473055
 20
42.93565302598264
 30
0.0
 11
21.38
 21
45.480662432702594
 31
0.0
  0
LINE
  5
D4
330
17
100
AcDbEntity
  8
TOP
100
AcDbLine
 10
21.38
 20
45.480662432702594
 30
0.0
 11
25.720426824526943
 21
42.93565302598264
 31
0.0
  0
LINE
  5
D5
330
17
100
AcDbEntity
  8
TOP
100
AcDbLine
 10
27.604573175473053
 20
43.15215937692874
 30
0.0
 11
32.07
 21
45.769337567297406
 31
0.0
  0
LINE
  5
D6
330
17
100
AcDbEntity
  8
TOP
100
AcDbLine
 10
27.729573175473053
 20
42.93565302598264
 30
0.0
 11
32.07
 21
45.480662432702594
 31
0.0
  0
LINE
  5
D7
330
17
100
AcDbEntity
  8
TOP
100
AcDbLine
 10
32.07
 20
45.769337567297406
 30
0.0
 11
32.07
 21
45.480662432702594
 31
0.0
  0
LINE
  5
D8
330
17
100
AcDbEntity
  8
TOP
100
AcDbLine
 10
0.8795731754730547
 20
46.27715937692874
 30
0.0
 11
5.345
 21
48.894337567297406
 31
0.0
  0
LINE
  5
D9
330
17
100
AcDbEntity
  8
TOP
100
AcDbLine
 10
5.345
 20
48.894337567297406
 30
0.0
 11
9.810426824526946
 21
46.27715937692874
 31
0.0
  0
LINE
  5
DA
330
17
100
AcDbEntity
  8
TOP
100
AcDbLine
 10
1.0045731754730547
 20
46.06065302598264
 30
0.0
 11
5.345
 21
48.605662432702594
 31
0.0
  0
LINE
  5
DB
330
17
100
AcDbEntity
  8
TOP
100
AcDbLine
 10
5.345
 20
48.605662432702594
 30
0.0
 11
9.685426824526946
 21
46.06065302598264
 31
0.0
  0
LINE
  5
DC
330
17
100
AcDbEntity
  8
TOP
100
AcDbLine
 10
11.569573175473053
 20
46.27715937692874
 30
0.0
 11
16.035
 21
48.894337567297406
 31
0.0
  0
LINE
  5
DD
330
17
100
AcDbEntity
  8
TOP
100
AcDbLine
 10
16.035
 20
48.894337567297406
 30
0.0
 11
20.500426824526944
 21
46.27715937692874
 31
0.0
  0
LINE
  5
DE
330
17
100
AcDbEntity
  8
TOP
100
AcDbLine
 10
11.694573175473053
 20
46.06065302598264
 30
0.0
 11
16.035
 21
48.605662432702594
 31
0.0
  0
LINE
  5
DF
330
17
100
AcDbEntity
  8
TOP
100
AcDbLine
 10
16.035
 20
48.605662432702594
 30
0.0
 11
20.375426824526944
 21
46.06065302598264
 31
0.0
  0
LINE
  5
E0
330
17
100
AcDbEntity
  8
TOP
100
AcDbLine
 10
22.259573175473054
 20
46.27715937692874
 30
0.0
 11
26.724999999999998
 21
48.894337567297406
 31
0.0
  0
LINE
  5
E1
330
17
100
AcDbEntity
  8
TOP
100
AcDbLine
 10
26.724999999999998
 20
48.894337567297406
 30
0.0
 11
31.190426824526945
 21
46.27715937692874
 31
0.0
  0
LINE
  5
E2
330
17
100
AcDbEntity
  8
TOP
100
AcDbLine
 10
22.384573175473054
 20
46.06065302598264
 30
0.0
 11
26.724999999999998
 21
48.605662432702594
 31
0.0
  0
LINE
  5
E3
330
17
100
AcDbEntity
  8
TOP
100
AcDbLine
 10
26.724999999999998
 20
48.605662432702594
 30
0.0
 11
31.065426824526945
 21
46.06065302598264
 31
0.0
  0
LINE
  5
E4
330
17
100
AcDbEntity
  8
TOP
100
AcDbLine
 10
0.0
 20
52.019337567297406
 30
0.0
 11
4.465426824526944
 21
49.40215937692874
 31
0.0
  0
LINE
  5
E5
330
17
100
AcDbEntity
  8
TOP
100
AcDbLine
 10
0.0
 20
51.730662432702594
 30
0.0
 11
4.340426824526944
 21
49.18565302598264
 31
0.0
  0
LINE
  5
E6
330
17
100
AcDbEntity
  8
TOP
100
AcDbLine
 10
0.0
 20
52.019337567297406
 30
0.0
 11
0.0
 21
51.730662432702594
 31
0.0
  0
LINE
  5
E7
330
17
100
AcDbEntity
  8
TOP
100
AcDbLine
 10
6.224573175473055
 20
49.40215937692874
 30
0.0
 11
10.69
 21
52.019337567297406
 31
0.0
  0
LINE
  5
E8
330
17
100
AcDbEntity
  8
TOP
100
AcDbLine
 10
10.69
 20
52.019337567297406
 30
0.0
 11
15.155426824526947
 21
49.40215937692874
 31
0.0
  0
LINE
  5
E9
330
17
100
AcDbEntity
  8
TOP
100
AcDbLine
 10
6.349573175473055
 20
49.18565302598264
 30
0.0
 11
10.69
 21
51.730662432702594
 31
0.0
  0
LINE
  5
EA
330
17
100
AcDbEntity
  8
TOP
100
AcDbLine
 10
10.69
 20
51.730662432702594
 30
0.0
 11
15.030426824526947
 21
49.18565302598264
 31
0.0
  0
LINE
  5
EB
330
17
100
AcDbEntity
  8
TOP
100
AcDbLine
 10
16.914573175473055
 20
49.40215937692874
 30
0.0
 11
21.38
 21
52.019337567297406
 31
0.0
  0
LINE
  5
EC
330
17
100
AcDbEntity
  8
TOP
100
AcDbLine
 10
21.38
 20
52.019337567297406
 30
0.0
 11
25.845426824526943
 21
49.40215937692874
 31
0.0
  0
LINE
  5
ED
330
17
100
AcDbEntity
  8
TOP
100
AcDbLine
 10
17.039573175473055
 20
49.18565302598264
 30
0.0
 11
21.38
 21
51.730662432702594
 31
0.0
  0
LINE
  5
EE
330
17
100
AcDbEntity
  8
TOP
100
AcDbLine
 10
21.38
 20
51.730662432702594
 30
0.0
 11
25.720426824526943
 21
49.18565302598264
 31
0.0
  0
LINE
  5
EF
330
17
100
AcDbEntity
  8
TOP
100
AcDbLine
 10
27.604573175473053
 20
49.40215937692874
 30
0.0
 11
32.07
 21
52.019337567297406
 31
0.0
  0
LINE
  5
F0
330
17
100
AcDbEntity
  8
TOP
100
AcDbLine
 10
27.729573175473053
 20
49.18565302598264
 30
0.0
 11
32.07
 21
51.730662432702594
 31
0.0
  0
LINE
  5
F1
330
17
100
AcDbEntity
  8
TOP
100
AcDbLine
 10
32.07
 20
52.019337567297406
 30
0.0
 11
32.07
 21
51.730662432702594
 31
0.0
  0
LINE
  5
F2
330
17
100
AcDbEntity
  8
TOP
100
AcDbLine
 10
0.8795731754730547
 20
52.52715937692874
 30
0.0
 11
5.345
 21
55.144337567297406
 31
0.0
  0
LINE
  5
F3
330
17
100
AcDbEntity
  8
TOP
100
AcDbLine
 10
5.345
 20
55.144337567297406
 30
0.0
 11
9.810426824526946
 21
52.52715937692874
 31
0.0
  0
LINE
  5
F4
330
17
100
AcDbEntity
  8
TOP
100
AcDbLine
 10
1.0045731754730547
 20
52.31065302598264
 30
0.0
 11
5.345
 21
54.855662432702594
 31
0.0
  0
LINE
  5
F5
330
17
100
AcDbEntity
  8
TOP
100
AcDbLine
 10
5.345
 20
54.855662432702594
 30
0.0
 11
9.685426824526946
 21
52.31065302598264
 31
0.0
  0
LINE
  5
F6
330
17
100
AcDbEntity
  8
TOP
100
AcDbLine
 10
11.569573175473053
 20
52.52715937692874
 30
0.0
 11
16.035
 21
55.144337567297406
 31
0.0
  0
LINE
  5
F7
330
17
100
AcDbEntity
  8
TOP
100
AcDbLine
 10
16.035
 20
55.144337567297406
 30
0.0
 11
20.500426824526944
 21
52.52715937692874
 31
0.0
  0
LINE
  5
F8
330
17
100
AcDbEntity
  8
TOP
100
AcDbLine
 10
11.694573175473053
 20
52.31065302598264
 30
0.0
 11
16.035
 21
54.855662432702594
 31
0.0
  0
LINE
  5
F9
330
17
100
AcDbEntity
  8
TOP
100
AcDbLine
 10
16.035
 20
54.855662432702594
 30
0.0
 11
20.375426824526944
 21
52.31065302598264
 31
0.0
  0
LINE
  5
FA
330
17
100
AcDbEntity
  8
TOP
100
AcDbLine
 10
22.259573175473054
 20
52.52715937692874
 30
0.0
 11
26.724999999999998
 21
55.144337567297406
 31
0.0
  0
LINE
  5
FB
330
17
100
AcDbEntity
  8
TOP
100
AcDbLine
 10
26.724999999999998
 20
55.144337567297406
 30
0.0
 11
31.190426824526945
 21
52.52715937692874
 31
0.0
  0
LINE
  5
FC
330
17
100
AcDbEntity
  8
TOP
100
AcDbLine
 10
22.384573175473054
 20
52.31065302598264
 30
0.0
 11
26.724999999999998
 21
54.855662432702594
 31
0.0
  0
LINE
  5
FD
330
17
100
AcDbEntity
  8
TOP
100
AcDbLine
 10
26.724999999999998
 20
54.855662432702594
 30
0.0
 11
31.065426824526945
 21
52.31065302598264
 31
0.0
  0
LINE
  5
FE
330
17
100
AcDbEntity
  8
TOP
100
AcDbLine
 10
0.0
 20
58.269337567297406
 30
0.0
 11
4.465426824526944
 21
55.65215937692874
 31
0.0
  0
LINE
  5
FF
330
17
100
AcDbEntity
  8
TOP
100
AcDbLine
 10
0.0
 20
57.980662432702594
 30
0.0
 11
4.340426824526944
 21
55.43565302598264
 31
0.0
  0
LINE
  5
100
330
17
100
AcDbEntity
  8
TOP
100
AcDbLine
 10
0.0
 20
58.269337567297406
 30
0.0
 11
0.0
 21
57.980662432702594
 31
0.0
  0
LINE
  5
101
330
17
100
AcDbEntity
  8
TOP
100
AcDbLine
 10
6.224573175473055
 20
55.65215937692874
 30
0.0
 11
10.69
 21
58.269337567297406
 31
0.0
  0
LINE
  5
102
330
17
100
AcDbEntity
  8
TOP
100
AcDbLine
 10
10.69
 20
58.269337567297406
 30
0.0
 11
15.155426824526947
 21
55.65215937692874
 31
0.0
  0
LINE
  5
103
330
17
100
AcDbEntity
  8
TOP
100
AcDbLine
 10
6.349573175473055
 20
55.43565302598264
 30
0.0
 11
10.69
 21
57.980662432702594
 31
0.0
  0
LINE
  5
104
330
17
100
AcDbEntity
  8
TOP
100
AcDbLine
 10
10.69
 20
57.980662432702594
 30
0.0
 11
15.030426824526947
 21
55.43565302598264
 31
0.0
  0
LINE
  5
105
330
17
100
AcDbEntity
  8
TOP
100
AcDbLine
 10
16.914573175473055
 20
55.65215937692874
 30
0.0
 11
21.38
 21
58.269337567297406
 31
0.0
  0
LINE
  5
106
330
17
100
AcDbEntity
  8
TOP
100
AcDbLine
 10
21.38
 20
58.269337567297406
 30
0.0
 11
25.845426824526943
 21
55.65215937692874
 31
0.0
  0
LINE
  5
107
330
17
100
AcDbEntity
  8
TOP
100
AcDbLine
 10
17.039573175473055
 20
55.43565302598264
 30
0.0
 11
21.38
 21
57.980662432702594
 31
0.0
  0
LINE
  5
108
330
17
100
AcDbEntity
  8
TOP
100
AcDbLine
 10
21.38
 20
57.980662432702594
 30
0.0
 11
25.720426824526943
 21
55.43565302598264
 31
0.0
  0
LINE
  5
109
330
17
100
AcDbEntity
  8
TOP
100
AcDbLine
 10
27.604573175473053
 20
55.65215937692874
 30
0.0
 11
32.07
 21
58.269337567297406
 31
0.0
  0
LINE
  5
10A
330
17
100
AcDbEntity
  8
TOP
100
AcDbLine
 10
27.729573175473053
 20
55.43565302598264
 30
0.0
 11
32.07
 21
57.980662432702594
 31
0.0
  0
LINE
  5
10B
330
17
100
AcDbEntity
  8
TOP
100
AcDbLine
 10
32.07
 20
58.269337567297406
 30
0.0
 11
32.07
 21
57.980662432702594
 31
0.0
  0
LINE
  5
10C
330
17
100
AcDbEntity
  8
TOP
100
AcDbLine
 10
0.8795731754730547
 20
58.77715937692874
 30
0.0
 11
5.345
 21
61.394337567297406
 31
0.0
  0
LINE
  5
10D
330
17
100
AcDbEntity
  8
TOP
100
AcDbLine
 10
5.345
 20
61.394337567297406
 30
0.0
 11
9.810426824526946
 21
58.77715937692874
 31
0.0
  0
LINE
  5
10E
330
17
100
AcDbEntity
  8
TOP
100
AcDbLine
 10
1.0045731754730547
 20
58.56065302598264
 30
0.0
 11
5.345
 21
61.105662432702594
 31
0.0
  0
LINE
  5
10F
330
17
100
AcDbEntity
  8
TOP
100
AcDbLine
 10
5.345
 20
61.105662432702594
 30
0.0
 11
9.685426824526946
 21
58.56065302598264
 31
0.0
  0
LINE
  5
110
330
17
100
AcDbEntity
  8
TOP
100
AcDbLine
 10
11.569573175473053
 20
58.77715937692874
 30
0.0
 11
16.035
 21
61.394337567297406
 31
0.0
  0
LINE
  5
111
330
17
100
AcDbEntity
  8
TOP
100
AcDbLine
 10
16.035
 20
61.394337567297406
 30
0.0
 11
20.500426824526944
 21
58.77715937692874
 31
0.0
  0
LINE
  5
112
330
17
100
AcDbEntity
  8
TOP
100
AcDbLine
 10
11.694573175473053
 20
58.56065302598264
 30
0.0
 11
16.035
 21
61.105662432702594
 31
0.0
  0
LINE
  5
113
330
17
100
AcDbEntity
  8
TOP
100
AcDbLine
 10
16.035
 20
61.105662432702594
 30
0.0
 11
20.375426824526944
 21
58.56065302598264
 31
0.0
  0
LINE
  5
114
330
17
100
AcDbEntity
  8
TOP
100
AcDbLine
 10
22.259573175473054
 20
58.77715937692874
 30
0.0
 11
26.724999999999998
 21
61.394337567297406
 31
0.0
  0
LINE
  5
115
330
17
100
AcDbEntity
  8
TOP
100
AcDbLine
 10
26.724999999999998
 20
61.394337567297406
 30
0.0
 11
31.190426824526945
 21
58.77715937692874
 31
0.0
  0
LINE
  5
116
330
17
100
AcDbEntity
  8
TOP
100
AcDbLine
 10
22.384573175473054
 20
58.56065302598264
 30
0.0
 11
26.724999999999998
 21
61.105662432702594
 31
0.0
  0
LINE
  5
117
330
17
100
AcDbEntity
  8
TOP
100
AcDbLine
 10
26.724999999999998
 20
61.105662432702594
 30
0.0
 11
31.065426824526945
 21
58.56065302598264
 31
0.0
  0
LINE
  5
118
330
17
100
AcDbEntity
  8
TOP
100
AcDbLine
 10
0.0
 20
64.51933756729741
 30
0.0
 11
4.465426824526944
 21
61.90215937692874
 31
0.0
  0
LINE
  5
119
330
17
100
AcDbEntity
  8
TOP
100
AcDbLine
 10
0.0
 20
64.23066243270259
 30
0.0
 11
4.340426824526944
 21
61.68565302598264
 31
0.0
  0
LINE
  5
11A
330
17
100
AcDbEntity
  8
TOP
100
AcDbLine
 10
0.0
 20
64.51933756729741
 30
0.0
 11
0.0
 21
64.23066243270259
 31
0.0
  0
LINE
  5
11B
330
17
100
AcDbEntity
  8
TOP
100
AcDbLine
 10
6.224573175473055
 20
61.90215937692874
 30
0.0
 11
10.69
 21
64.51933756729741
 31
0.0
  0
LINE
  5
11C
330
17
100
AcDbEntity
  8
TOP
100
AcDbLine
 10
10.69
 20
64.51933756729741
 30
0.0
 11
15.155426824526947
 21
61.90215937692874
 31
0.0
  0
LINE
  5
11D
330
17
100
AcDbEntity
  8
TOP
100
AcDbLine
 10
6.349573175473055
 20
61.68565302598264
 30
0.0
 11
10.69
 21
64.23066243270259
 31
0.0
  0
LINE
  5
11E
330
17
100
AcDbEntity
  8
TOP
100
AcDbLine
 10
10.69
 20
64.23066243270259
 30
0.0
 11
15.030426824526947
 21
61.68565302598264
 31
0.0
  0
LINE
  5
11F
330
17
100
AcDbEntity
  8
TOP
100
AcDbLine
 10
16.914573175473055
 20
61.90215937692874
 30
0.0
 11
21.38
 21
64.51933756729741
 31
0.0
  0
LINE
  5
120
330
17
100
AcDbEntity
  8
TOP
100
AcDbLine
 10
21.38
 20
64.51933756729741
 30
0.0
 11
25.845426824526943
 21
61.90215937692874
 31
0.0
  0
LINE
  5
121
330
17
100
AcDbEntity
  8
TOP
100
AcDbLine
 10
17.039573175473055
 20
61.68565302598264
 30
0.0
 11
21.38
 21
64.23066243270259
 31
0.0
  0
LINE
  5
122
330
17
100
AcDbEntity
  8
TOP
100
AcDbLine
 10
21.38
 20
64.23066243270259
 30
0.0
 11
25.720426824526943
 21
61.68565302598264
 31
0.0
  0
LINE
  5
123
330
17
100
AcDbEntity
  8
TOP
100
AcDbLine
 10
27.604573175473053
 20
61.90215937692874
 30
0.0
 11
32.07
 21
64.51933756729741
 31
0.0
  0
LINE
  5
124
330
17
100
AcDbEntity
  8
TOP
100
AcDbLine
 10
27.729573175473053
 20
61.68565302598264
 30
0.0
 11
32.07
 21
64.23066243270259
 31
0.0
  0
LINE
  5
125
330
17
100
AcDbEntity
  8
TOP
100
AcDbLine
 10
32.07
 20
64.51933756729741
 30
0.0
 11
32.07
 21
64.23066243270259
 31
0.0
  0
LINE
  5
126
330
17
100
AcDbEntity
  8
TOP
100
AcDbLine
 10
0.8795731754730547
 20
65.02715937692874
 30
0.0
 11
5.345
 21
67.64433756729741
 31
0.0
  0
LINE
  5
127
330
17
100
AcDbEntity
  8
TOP
100
AcDbLine
 10
5.345
 20
67.64433756729741
 30
0.0
 11
9.810426824526946
 21
65.02715937692874
 31
0.0
  0
LINE
  5
128
330
17
100
AcDbEntity
  8
TOP
100
AcDbLine
 10
1.0045731754730547
 20
64.81065302598263
 30
0.0
 11
5.345
 21
67.35566243270259
 31
0.0
  0
LINE
  5
129
330
17
100
AcDbEntity
  8
TOP
100
AcDbLine
 10
5.345
 20
67.35566243270259
 30
0.0
 11
9.685426824526946
 21
64.81065302598263
 31
0.0
  0
LINE
  5
12A
330
17
100
AcDbEntity
  8
TOP
100
AcDbLine
 10
11.569573175473053
 20
65.02715937692874
 30
0.0
 11
16.035
 21
67.64433756729741
 31
0.0
  0
LINE
  5
12B
330
17
100
AcDbEntity
  8
TOP
100
AcDbLine
 10
16.035
 20
67.64433756729741
 30
0.0
 11
20.500426824526944
 21
65.02715937692874
 31
0.0
  0
LINE
  5
12C
330
17
100
AcDbEntity
  8
TOP
100
AcDbLine
 10
11.694573175473053
 20
64.81065302598263
 30
0.0
 11
16.035
 21
67.35566243270259
 31
0.0
  0
LINE
  5
12D
330
17
100
AcDbEntity
  8
TOP
100
AcDbLine
 10
16.035
 20
67.35566243270259
 30
0.0
 11
20.375426824526944
 21
64.81065302598263
 31
0.0
  0
LINE
  5
12E
330
17
100
AcDbEntity
  8
TOP
100
AcDbLine
 10
22.259573175473054
 20
65.02715937692874
 30
0.0
 11
26.724999999999998
 21
67.64433756729741
 31
0.0
  0
LINE
  5
12F
330
17
100
AcDbEntity
  8
TOP
100
AcDbLine
 10
26.724999999999998
 20
67.64433756729741
 30
0.0
 11
31.190426824526945
 21
65.02715937692874
 31
0.0
  0
LINE
  5
130
330
17
100
AcDbEntity
  8
TOP
100
AcDbLine
 10
22.384573175473054
 20
64.81065302598263
 30
0.0
 11
26.724999999999998
 21
67.35566243270259
 31
0.0
  0
LINE
  5
131
330
17
100
AcDbEntity
  8
TOP
100
AcDbLine
 10
26.724999999999998
 20
67.35566243270259
 30
0.0
 11
31.065426824526945
 21
64.81065302598263
 31
0.0
  0
LINE
  5
132
330
17
100
AcDbEntity
  8
TOP
100
AcDbLine
 10
0.0
 20
70.76933756729741
 30
0.0
 11
4.465426824526944
 21
68.15215937692874
 31
0.0
  0
LINE
  5
133
330
17
100
AcDbEntity
  8
TOP
100
AcDbLine
 10
0.0
 20
70.48066243270259
 30
0.0
 11
4.340426824526944
 21
67.93565302598263
 31
0.0
  0
LINE
  5
134
330
17
100
AcDbEntity
  8
TOP
100
AcDbLine
 10
0.0
 20
70.76933756729741
 30
0.0
 11
0.0
 21
70.48066243270259
 31
0.0
  0
LINE
  5
135
330
17
100
AcDbEntity
  8
TOP
100
AcDbLine
 10
6.224573175473055
 20
68.15215937692874
 30
0.0
 11
10.69
 21
70.76933756729741
 31
0.0
  0
LINE
  5
136
330
17
100
AcDbEntity
  8
TOP
100
AcDbLine
 10
10.69
 20
70.76933756729741
 30
0.0
 11
15.155426824526947
 21
68.15215937692874
 31
0.0
  0
LINE
  5
137
330
17
100
AcDbEntity
  8
TOP
100
AcDbLine
 10
6.349573175473055
 20
67.93565302598263
 30
0.0
 11
10.69
 21
70.48066243270259
 31
0.0
  0
LINE
  5
138
330
17
100
AcDbEntity
  8
TOP
100
AcDbLine
 10
10.69
 20
70.48066243270259
 30
0.0
 11
15.030426824526947
 21
67.93565302598263
 31
0.0
  0
LINE
  5
139
330
17
100
AcDbEntity
  8
TOP
100
AcDbLine
 10
16.914573175473055
 20
68.15215937692874
 30
0.0
 11
21.38
 21
70.76933756729741
 31
0.0
  0
LINE
  5
13A
330
17
100
AcDbEntity
  8
TOP
100
AcDbLine
 10
21.38
 20
70.76933756729741
 30
0.0
 11
25.845426824526943
 21
68.15215937692874
 31
0.0
  0
LINE
  5
13B
330
17
100
AcDbEntity
  8
TOP
100
AcDbLine
 10
17.039573175473055
 20
67.93565302598263
 30
0.0
 11
21.38
 21
70.48066243270259
 31
0.0
  0
LINE
  5
13C
330
17
100
AcDbEntity
  8
TOP
100
AcDbLine
 10
21.38
 20
70.48066243270259
 30
0.0
 11
25.720426824526943
 21
67.93565302598263
 31
0.0
  0
LINE
  5
13D
330
17
100
AcDbEntity
  8
TOP
100
AcDbLine
 10
27.604573175473053
 20
68.15215937692874
 30
0.0
 11
32.07
 21
70.76933756729741
 31
0.0
  0
LINE
  5
13E
330
17
100
AcDbEntity
  8
TOP
100
AcDbLine
 10
27.729573175473053
 20
67.93565302598263
 30
0.0
 11
32.07
 21
70.48066243270259
 31
0.0
  0
LINE
  5
13F
330
17
100
AcDbEntity
  8
TOP
100
AcDbLine
 10
32.07
 20
70.76933756729741
 30
0.0
 11
32.07
 21
70.48066243270259
 31
0.0
  0
LINE
  5
140
330
17
100
AcDbEntity
  8
TOP
100
AcDbLine
 10
0.8795731754730547
 20
71.27715937692875
 30
0.0
 11
5.345
 21
73.89433756729741
 31
0.0
  0
LINE
  5
141
330
17
100
AcDbEntity
  8
TOP
100
AcDbLine
 10
5.345
 20
73.89433756729741
 30
0.0
 11
9.810426824526946
 21
71.27715937692875
 31
0.0
  0
LINE
  5
142
330
17
100
AcDbEntity
  8
TOP
100
AcDbLine
 10
1.0045731754730547
 20
71.06065302598265
 30
0.0
 11
5.345
 21
73.60566243270259
 31
0.0
  0
LINE
  5
143
330
17
100
AcDbEntity
  8
TOP
100
AcDbLine
 10
5.345
 20
73.60566243270259
 30
0.0
 11
9.685426824526946
 21
71.06065302598265
 31
0.0
  0
LINE
  5
144
330
17
100
AcDbEntity
  8
TOP
100
AcDbLine
 10
11.569573175473053
 20
71.27715937692875
 30
0.0
 11
16.035
 21
73.89433756729741
 31
0.0
  0
LINE
  5
145
330
17
100
AcDbEntity
  8
TOP
100
AcDbLine
 10
16.035
 20
73.89433756729741
 30
0.0
 11
20.500426824526944
 21
71.27715937692875
 31
0.0
  0
LINE
  5
146
330
17
100
AcDbEntity
  8
TOP
100
AcDbLine
 10
11.694573175473053
 20
71.06065302598265
 30
0.0
 11
16.035
 21
73.60566243270259
 31
0.0
  0
LINE
  5
147
330
17
100
AcDbEntity
  8
TOP
100
AcDbLine
 10
16.035
 20
73.60566243270259
 30
0.0
 11
20.375426824526944
 21
71.06065302598265
 31
0.0
  0
LINE
  5
148
330
17
100
AcDbEntity
  8
TOP
100
AcDbLine
 10
22.259573175473054
 20
71.27715937692875
 30
0.0
 11
26.724999999999998
 21
73.89433756729741
 31
0.0
  0
LINE
  5
149
330
17
100
AcDbEntity
  8
TOP
100
AcDbLine
 10
26.724999999999998
 20
73.89433756729741
 30
0.0
 11
31.190426824526945
 21
71.27715937692875
 31
0.0
  0
LINE
  5
14A
330
17
100
AcDbEntity
  8
TOP
100
AcDbLine
 10
22.384573175473054
 20
71.06065302598265
 30
0.0
 11
26.724999999999998
 21
73.60566243270259
 31
0.0
  0
LINE
  5
14B
330
17
100
AcDbEntity
  8
TOP
100
AcDbLine
 10
26.724999999999998
 20
73.60566243270259
 30
0.0
 11
31.065426824526945
 21
71.06065302598265
 31
0.0
  0
LINE
  5
14C
330
17
100
AcDbEntity
  8
TOP
100
AcDbLine
 10
0.0
 20
77.01933756729741
 30
0.0
 11
4.465426824526944
 21
74.40215937692875
 31
0.0
  0
LINE
  5
14D
330
17
100
AcDbEntity
  8
TOP
100
AcDbLine
 10
0.0
 20
76.73066243270259
 30
0.0
 11
4.340426824526944
 21
74.18565302598265
 31
0.0
  0
LINE
  5
14E
330
17
100
AcDbEntity
  8
TOP
100
AcDbLine
 10
0.0
 20
77.01933756729741
 30
0.0
 11
0.0
 21
76.73066243270259
 31
0.0
  0
LINE
  5
14F
330
17
100
AcDbEntity
  8
TOP
100
AcDbLine
 10
6.224573175473055
 20
74.40215937692875
 30
0.0
 11
10.69
 21
77.01933756729741
 31
0.0
  0
LINE
  5
150
330
17
100
AcDbEntity
  8
TOP
100
AcDbLine
 10
10.69
 20
77.01933756729741
 30
0.0
 11
15.155426824526947
 21
74.40215937692875
 31
0.0
  0
LINE
  5
151
330
17
100
AcDbEntity
  8
TOP
100
AcDbLine
 10
6.349573175473055
 20
74.18565302598265
 30
0.0
 11
10.69
 21
76.73066243270259
 31
0.0
  0
LINE
  5
152
330
17
100
AcDbEntity
  8
TOP
100
AcDbLine
 10
10.69
 20
76.73066243270259
 30
0.0
 11
15.030426824526947
 21
74.18565302598265
 31
0.0
  0
LINE
  5
153
330
17
100
AcDbEntity
  8
TOP
100
AcDbLine
 10
16.914573175473055
 20
74.40215937692875
 30
0.0
 11
21.38
 21
77.01933756729741
 31
0.0
  0
LINE
  5
154
330
17
100
AcDbEntity
  8
TOP
100
AcDbLine
 10
21.38
 20
77.01933756729741
 30
0.0
 11
25.845426824526943
 21
74.40215937692875
 31
0.0
  0
LINE
  5
155
330
17
100
AcDbEntity
  8
TOP
100
AcDbLine
 10
17.039573175473055
 20
74.18565302598265
 30
0.0
 11
21.38
 21
76.73066243270259
 31
0.0
  0
LINE
  5
156
330
17
100
AcDbEntity
  8
TOP
100
AcDbLine
 10
21.38
 20
76.73066243270259
 30
0.0
 11
25.720426824526943
 21
74.18565302598265
 31
0.0
  0
LINE
  5
157
330
17
100
AcDbEntity
  8
TOP
100
AcDbLine
 10
27.604573175473053
 20
74.40215937692875
 30
0.0
 11
32.07
 21
77.01933756729741
 31
0.0
  0
LINE
  5
158
330
17
100
AcDbEntity
  8
TOP
100
AcDbLine
 10
27.729573175473053
 20
74.18565302598265
 30
0.0
 11
32.07
 21
76.73066243270259
 31
0.0
  0
LINE
  5
159
330
17
100
AcDbEntity
  8
TOP
100
AcDbLine
 10
32.07
 20
77.01933756729741
 30
0.0
 11
32.07
 21
76.73066243270259
 31
0.0
  0
LINE
  5
15A
330
17
100
AcDbEntity
  8
TOP
100
AcDbLine
 10
0.8795731754730547
 20
77.52715937692875
 30
0.0
 11
5.345
 21
80.14433756729741
 31
0.0
  0
LINE
  5
15B
330
17
100
AcDbEntity
  8
TOP
100
AcDbLine
 10
5.345
 20
80.14433756729741
 30
0.0
 11
9.810426824526946
 21
77.52715937692875
 31
0.0
  0
LINE
  5
15C
330
17
100
AcDbEntity
  8
TOP
100
AcDbLine
 10
1.0045731754730547
 20
77.31065302598265
 30
0.0
 11
5.345
 21
79.85566243270259
 31
0.0
  0
LINE
  5
15D
330
17
100
AcDbEntity
  8
TOP
100
AcDbLine
 10
5.345
 20
79.85566243270259
 30
0.0
 11
9.685426824526946
 21
77.31065302598265
 31
0.0
  0
LINE
  5
15E
330
17
100
AcDbEntity
  8
TOP
100
AcDbLine
 10
11.569573175473053
 20
77.52715937692875
 30
0.0
 11
16.035
 21
80.14433756729741
 31
0.0
  0
LINE
  5
15F
330
17
100
AcDbEntity
  8
TOP
100
AcDbLine
 10
16.035
 20
80.14433756729741
 30
0.0
 11
20.500426824526944
 21
77.52715937692875
 31
0.0
  0
LINE
  5
160
330
17
100
AcDbEntity
  8
TOP
100
AcDbLine
 10
11.694573175473053
 20
77.31065302598265
 30
0.0
 11
16.035
 21
79.85566243270259
 31
0.0
  0
LINE
  5
161
330
17
100
AcDbEntity
  8
TOP
100
AcDbLine
 10
16.035
 20
79.85566243270259
 30
0.0
 11
20.375426824526944
 21
77.31065302598265
 31
0.0
  0
LINE
  5
162
330
17
100
AcDbEntity
  8
TOP
100
AcDbLine
 10
22.259573175473054
 20
77.52715937692875
 30
0.0
 11
26.724999999999998
 21
80.14433756729741
 31
0.0
  0
LINE
  5
163
330
17
100
AcDbEntity
  8
TOP
100
AcDbLine
 10
26.724999999999998
 20
80.14433756729741
 30
0.0
 11
31.190426824526945
 21
77.52715937692875
 31
0.0
  0
LINE
  5
164
330
17
100
AcDbEntity
  8
TOP
100
AcDbLine
 10
22.384573175473054
 20
77.31065302598265
 30
0.0
 11
26.724999999999998
 21
79.85566243270259
 31
0.0
  0
LINE
  5
165
330
17
100
AcDbEntity
  8
TOP
100
AcDbLine
 10
26.724999999999998
 20
79.85566243270259
 30
0.0
 11
31.065426824526945
 21
77.31065302598265
 31
0.0
  0
LINE
  5
166
330
17
100
AcDbEntity
  8
TOP
100
AcDbLine
 10
0.0
 20
83.26933756729741
 30
0.0
 11
4.465426824526944
 21
80.65215937692875
 31
0.0
  0
LINE
  5
167
330
17
100
AcDbEntity
  8
TOP
100
AcDbLine
 10
0.0
 20
82.98066243270259
 30
0.0
 11
4.340426824526944
 21
80.43565302598265
 31
0.0
  0
LINE
  5
168
330
17
100
AcDbEntity
  8
TOP
100
AcDbLine
 10
0.0
 20
83.26933756729741
 30
0.0
 11
0.0
 21
82.98066243270259
 31
0.0
  0
LINE
  5
169
330
17
100
AcDbEntity
  8
TOP
100
AcDbLine
 10
6.224573175473055
 20
80.65215937692875
 30
0.0
 11
10.69
 21
83.26933756729741
 31
0.0
  0
LINE
  5
16A
330
17
100
AcDbEntity
  8
TOP
100
AcDbLine
 10
10.69
 20
83.26933756729741
 30
0.0
 11
15.155426824526947
 21
80.65215937692875
 31
0.0
  0
LINE
  5
16B
330
17
100
AcDbEntity
  8
TOP
100
AcDbLine
 10
6.349573175473055
 20
80.43565302598265
 30
0.0
 11
10.69
 21
82.98066243270259
 31
0.0
  0
LINE
  5
16C
330
17
100
AcDbEntity
  8
TOP
100
AcDbLine
 10
10.69
 20
82.98066243270259
 30
0.0
 11
15.030426824526947
 21
80.43565302598265
 31
0.0
  0
LINE
  5
16D
330
17
100
AcDbEntity
  8
TOP
100
AcDbLine
 10
16.914573175473055
 20
80.65215937692875
 30
0.0
 11
21.38
 21
83.26933756729741
 31
0.0
  0
LINE
  5
16E
330
17
100
AcDbEntity
  8
TOP
100
AcDbLine
 10
21.38
 20
83.26933756729741
 30
0.0
 11
25.845426824526943
 21
80.65215937692875
 31
0.0
  0
LINE
  5
16F
330
17
100
AcDbEntity
  8
TOP
100
AcDbLine
 10
17.039573175473055
 20
80.43565302598265
 30
0.0
 11
21.38
 21
82.98066243270259
 31
0.0
  0
LINE
  5
170
330
17
100
AcDbEntity
  8
TOP
100
AcDbLine
 10
21.38
 20
82.98066243270259
 30
0.0
 11
25.720426824526943
 21
80.43565302598265
 31
0.0
  0
LINE
  5
171
330
17
100
AcDbEntity
  8
TOP
100
AcDbLine
 10
27.604573175473053
 20
80.65215937692875
 30
0.0
 11
32.07
 21
83.26933756729741
 31
0.0
  0
LINE
  5
172
330
17
100
AcDbEntity
  8
TOP
100
AcDbLine
 10
27.729573175473053
 20
80.43565302598265
 30
0.0
 11
32.07
 21
82.98066243270259
 31
0.0
  0
LINE
  5
173
330
17
100
AcDbEntity
  8
TOP
100
AcDbLine
 10
32.07
 20
83.26933756729741
 30
0.0
 11
32.07
 21
82.98066243270259
 31
0.0
  0
LINE
  5
174
330
17
100
AcDbEntity
  8
TOP
100
AcDbLine
 10
0.8795731754730547
 20
83.77715937692875
 30
0.0
 11
5.345
 21
86.39433756729741
 31
0.0
  0
LINE
  5
175
330
17
100
AcDbEntity
  8
TOP
100
AcDbLine
 10
5.345
 20
86.39433756729741
 30
0.0
 11
9.810426824526946
 21
83.77715937692875
 31
0.0
  0
LINE
  5
176
330
17
100
AcDbEntity
  8
TOP
100
AcDbLine
 10
1.0045731754730547
 20
83.56065302598265
 30
0.0
 11
5.345
 21
86.10566243270259
 31
0.0
  0
LINE
  5
177
330
17
100
AcDbEntity
  8
TOP
100
AcDbLine
 10
5.345
 20
86.10566243270259
 30
0.0
 11
9.685426824526946
 21
83.56065302598265
 31
0.0
  0
LINE
  5
178
330
17
100
AcDbEntity
  8
TOP
100
AcDbLine
 10
11.569573175473053
 20
83.77715937692875
 30
0.0
 11
16.035
 21
86.39433756729741
 31
0.0
  0
LINE
  5
179
330
17
100
AcDbEntity
  8
TOP
100
AcDbLine
 10
16.035
 20
86.39433756729741
 30
0.0
 11
20.500426824526944
 21
83.77715937692875
 31
0.0
  0
LINE
  5
17A
330
17
100
AcDbEntity
  8
TOP
100
AcDbLine
 10
11.694573175473053
 20
83.56065302598265
 30
0.0
 11
16.035
 21
86.10566243270259
 31
0.0
  0
LINE
  5
17B
330
17
100
AcDbEntity
  8
TOP
100
AcDbLine
 10
16.035
 20
86.10566243270259
 30
0.0
 11
20.375426824526944
 21
83.56065302598265
 31
0.0
  0
LINE
  5
17C
330
17
100
AcDbEntity
  8
TOP
100
AcDbLine
 10
22.259573175473054
 20
83.77715937692875
 30
0.0
 11
26.724999999999998
 21
86.39433756729741
 31
0.0
  0
LINE
  5
17D
330
17
100
AcDbEntity
  8
TOP
100
AcDbLine
 10
26.724999999999998
 20
86.39433756729741
 30
0.0
 11
31.190426824526945
 21
83.77715937692875
 31
0.0
  0
LINE
  5
17E
330
17
100
AcDbEntity
  8
TOP
100
AcDbLine
 10
22.384573175473054
 20
83.56065302598265
 30
0.0
 11
26.724999999999998
 21
86.10566243270259
 31
0.0
  0
LINE
  5
17F
330
17
100
AcDbEntity
  8
TOP
100
AcDbLine
 10
26.724999999999998
 20
86.10566243270259
 30
0.0
 11
31.065426824526945
 21
83.56065302598265
 31
0.0
  0
LINE
  5
180
330
17
100
AcDbEntity
  8
TOP
100
AcDbLine
 10
0.0
 20
89.51933756729741
 30
0.0
 11
4.465426824526944
 21
86.90215937692875
 31
0.0
  0
LINE
  5
181
330
17
100
AcDbEntity
  8
TOP
100
AcDbLine
 10
0.0
 20
89.23066243270259
 30
0.0
 11
4.340426824526944
 21
86.68565302598265
 31
0.0
  0
LINE
  5
182
330
17
100
AcDbEntity
  8
TOP
100
AcDbLine
 10
0.0
 20
89.51933756729741
 30
0.0
 11
0.0
 21
89.23066243270259
 31
0.0
  0
LINE
  5
183
330
17
100
AcDbEntity
  8
TOP
100
AcDbLine
 10
6.224573175473055
 20
86.90215937692875
 30
0.0
 11
10.69
 21
89.51933756729741
 31
0.0
  0
LINE
  5
184
330
17
100
AcDbEntity
  8
TOP
100
AcDbLine
 10
10.69
 20
89.51933756729741
 30
0.0
 11
15.155426824526947
 21
86.90215937692875
 31
0.0
  0
LINE
  5
185
330
17
100
AcDbEntity
  8
TOP
100
AcDbLine
 10
6.349573175473055
 20
86.68565302598265
 30
0.0
 11
10.69
 21
89.23066243270259
 31
0.0
  0
LINE
  5
186
330
17
100
AcDbEntity
  8
TOP
100
AcDbLine
 10
10.69
 20
89.23066243270259
 30
0.0
 11
15.030426824526947
 21
86.68565302598265
 31
0.0
  0
LINE
  5
187
330
17
100
AcDbEntity
  8
TOP
100
AcDbLine
 10
16.914573175473055
 20
86.90215937692875
 30
0.0
 11
21.38
 21
89.51933756729741
 31
0.0
  0
LINE
  5
188
330
17
100
AcDbEntity
  8
TOP
100
AcDbLine
 10
21.38
 20
89.51933756729741
 30
0.0
 11
25.845426824526943
 21
86.90215937692875
 31
0.0
  0
LINE
  5
189
330
17
100
AcDbEntity
  8
TOP
100
AcDbLine
 10
17.039573175473055
 20
86.68565302598265
 30
0.0
 11
21.38
 21
89.23066243270259
 31
0.0
  0
LINE
  5
18A
330
17
100
AcDbEntity
  8
TOP
100
AcDbLine
 10
21.38
 20
89.23066243270259
 30
0.0
 11
25.720426824526943
 21
86.68565302598265
 31
0.0
  0
LINE
  5
18B
330
17
100
AcDbEntity
  8
TOP
100
AcDbLine
 10
27.604573175473053
 20
86.90215937692875
 30
0.0
 11
32.07
 21
89.51933756729741
 31
0.0
  0
LINE
  5
18C
330
17
100
AcDbEntity
  8
TOP
100
AcDbLine
 10
27.729573175473053
 20
86.68565302598265
 30
0.0
 11
32.07
 21
89.23066243270259
 31
0.0
  0
LINE
  5
18D
330
17
100
AcDbEntity
  8
TOP
100
AcDbLine
 10
32.07
 20
89.51933756729741
 30
0.0
 11
32.07
 21
89.23066243270259
 31
0.0
  0
LINE
  5
18E
330
17
100
AcDbEntity
  8
TOP
100
AcDbLine
 10
0.8795731754730547
 20
90.02715937692875
 30
0.0
 11
5.345
 21
92.64433756729741
 31
0.0
  0
LINE
  5
18F
330
17
100
AcDbEntity
  8
TOP
100
AcDbLine
 10
5.345
 20
92.64433756729741
 30
0.0
 11
9.810426824526946
 21
90.02715937692875
 31
0.0
  0
LINE
  5
190
330
17
100
AcDbEntity
  8
TOP
100
AcDbLine
 10
1.0045731754730547
 20
89.81065302598265
 30
0.0
 11
5.345
 21
92.35566243270259
 31
0.0
  0
LINE
  5
191
330
17
100
AcDbEntity
  8
TOP
100
AcDbLine
 10
5.345
 20
92.35566243270259
 30
0.0
 11
9.685426824526946
 21
89.81065302598265
 31
0.0
  0
LINE
  5
192
330
17
100
AcDbEntity
  8
TOP
100
AcDbLine
 10
11.569573175473053
 20
90.02715937692875
 30
0.0
 11
16.035
 21
92.64433756729741
 31
0.0
  0
LINE
  5
193
330
17
100
AcDbEntity
  8
TOP
100
AcDbLine
 10
16.035
 20
92.64433756729741
 30
0.0
 11
20.500426824526944
 21
90.02715937692875
 31
0.0
  0
LINE
  5
194
330
17
100
AcDbEntity
  8
TOP
100
AcDbLine
 10
11.694573175473053
 20
89.81065302598265
 30
0.0
 11
16.035
 21
92.35566243270259
 31
0.0
  0
LINE
  5
195
330
17
100
AcDbEntity
  8
TOP
100
AcDbLine
 10
16.035
 20
92.35566243270259
 30
0.0
 11
20.375426824526944
 21
89.81065302598265
 31
0.0
  0
LINE
  5
196
330
17
100
AcDbEntity
  8
TOP
100
AcDbLine
 10
22.259573175473054
 20
90.02715937692875
 30
0.0
 11
26.724999999999998
 21
92.64433756729741
 31
0.0
  0
LINE
  5
197
330
17
100
AcDbEntity
  8
TOP
100
AcDbLine
 10
26.724999999999998
 20
92.64433756729741
 30
0.0
 11
31.190426824526945
 21
90.02715937692875
 31
0.0
  0
LINE
  5
198
330
17
100
AcDbEntity
  8
TOP
100
AcDbLine
 10
22.384573175473054
 20
89.81065302598265
 30
0.0
 11
26.724999999999998
 21
92.35566243270259
 31
0.0
  0
LINE
  5
199
330
17
100
AcDbEntity
  8
TOP
100
AcDbLine
 10
26.724999999999998
 20
92.35566243270259
 30
0.0
 11
31.065426824526945
 21
89.81065302598265
 31
0.0
  0
LINE
  5
19A
330
17
100
AcDbEntity
  8
TOP
100
AcDbLine
 10
0.0
 20
95.76933756729741
 30
0.0
 11
4.465426824526944
 21
93.15215937692875
 31
0.0
  0
LINE
  5
19B
330
17
100
AcDbEntity
  8
TOP
100
AcDbLine
 10
0.0
 20
95.48066243270259
 30
0.0
 11
4.340426824526944
 21
92.93565302598265
 31
0.0
  0
LINE
  5
19C
330
17
100
AcDbEntity
  8
TOP
100
AcDbLine
 10
0.0
 20
95.76933756729741
 30
0.0
 11
0.0
 21
95.48066243270259
 31
0.0
  0
LINE
  5
19D
330
17
100
AcDbEntity
  8
TOP
100
AcDbLine
 10
6.224573175473055
 20
93.15215937692875
 30
0.0
 11
10.69
 21
95.76933756729741
 31
0.0
  0
LINE
  5
19E
330
17
100
AcDbEntity
  8
TOP
100
AcDbLine
 10
10.69
 20
95.76933756729741
 30
0.0
 11
15.155426824526947
 21
93.15215937692875
 31
0.0
  0
LINE
  5
19F
330
17
100
AcDbEntity
  8
TOP
100
AcDbLine
 10
6.349573175473055
 20
92.93565302598265
 30
0.0
 11
10.69
 21
95.48066243270259
 31
0.0
  0
LINE
  5
1A0
330
17
100
AcDbEntity
  8
TOP
100
AcDbLine
 10
10.69
 20
95.48066243270259
 30
0.0
 11
15.030426824526947
 21
92.93565302598265
 31
0.0
  0
LINE
  5
1A1
330
17
100
AcDbEntity
  8
TOP
100
AcDbLine
 10
16.914573175473055
 20
93.15215937692875
 30
0.0
 11
21.38
 21
95.76933756729741
 31
0.0
  0
LINE
  5
1A2
330
17
100
AcDbEntity
  8
TOP
100
AcDbLine
 10
21.38
 20
95.76933756729741
 30
0.0
 11
25.845426824526943
 21
93.15215937692875
 31
0.0
  0
LINE
  5
1A3
330
17
100
AcDbEntity
  8
TOP
100
AcDbLine
 10
17.039573175473055
 20
92.93565302598265
 30
0.0
 11
21.38
 21
95.48066243270259
 31
0.0
  0
LINE
  5
1A4
330
17
100
AcDbEntity
  8
TOP
100
AcDbLine
 10
21.38
 20
95.48066243270259
 30
0.0
 11
25.720426824526943
 21
92.93565302598265
 31
0.0
  0
LINE
  5
1A5
330
17
100
AcDbEntity
  8
TOP
100
AcDbLine
 10
27.604573175473053
 20
93.15215937692875
 30
0.0
 11
32.07
 21
95.76933756729741
 31
0.0
  0
LINE
  5
1A6
330
17
100
AcDbEntity
  8
TOP
100
AcDbLine
 10
27.729573175473053
 20
92.93565302598265
 30
0.0
 11
32.07
 21
95.48066243270259
 31
0.0
  0
LINE
  5
1A7
330
17
100
AcDbEntity
  8
TOP
100
AcDbLine
 10
32.07
 20
95.76933756729741
 30
0.0
 11
32.07
 21
95.48066243270259
 31
0.0
  0
LINE
  5
1A8
330
17
100
AcDbEntity
  8
TOP
100
AcDbLine
 10
0.8795731754730547
 20
96.27715937692875
 30
0.0
 11
5.345
 21
98.89433756729741
 31
0.0
  0
LINE
  5
1A9
330
17
100
AcDbEntity
  8
TOP
100
AcDbLine
 10
5.345
 20
98.89433756729741
 30
0.0
 11
9.810426824526946
 21
96.27715937692875
 31
0.0
  0
LINE
  5
1AA
330
17
100
AcDbEntity
  8
TOP
100
AcDbLine
 10
1.0045731754730547
 20
96.06065302598265
 30
0.0
 11
5.345
 21
98.60566243270259
 31
0.0
  0
LINE
  5
1AB
330
17
100
AcDbEntity
  8
TOP
100
AcDbLine
 10
5.345
 20
98.60566243270259
 30
0.0
 11
9.685426824526946
 21
96.06065302598265
 31
0.0
  0
LINE
  5
1AC
330
17
100
AcDbEntity
  8
TOP
100
AcDbLine
 10
11.569573175473053
 20
96.27715937692875
 30
0.0
 11
16.035
 21
98.89433756729741
 31
0.0
  0
LINE
  5
1AD
330
17
100
AcDbEntity
  8
TOP
100
AcDbLine
 10
16.035
 20
98.89433756729741
 30
0.0
 11
20.500426824526944
 21
96.27715937692875
 31
0.0
  0
LINE
  5
1AE
330
17
100
AcDbEntity
  8
TOP
100
AcDbLine
 10
11.694573175473053
 20
96.06065302598265
 30
0.0
 11
16.035
 21
98.60566243270259
 31
0.0
  0
LINE
  5
1AF
330
17
100
AcDbEntity
  8
TOP
100
AcDbLine
 10
16.035
 20
98.60566243270259
 30
0.0
 11
20.375426824526944
 21
96.06065302598265
 31
0.0
  0
LINE
  5
1B0
330
17
100
AcDbEntity
  8
TOP
100
AcDbLine
 10
22.259573175473054
 20
96.27715937692875
 30
0.0
 11
26.724999999999998
 21
98.89433756729741
 31
0.0
  0
LINE
  5
1B1
330
17
100
AcDbEntity
  8
TOP
100
AcDbLine
 10
26.724999999999998
 20
98.89433756729741
 30
0.0
 11
31.190426824526945
 21
96.27715937692875
 31
0.0
  0
LINE
  5
1B2
330
17
100
AcDbEntity
  8
TOP
100
AcDbLine
 10
22.384573175473054
 20
96.06065302598265
 30
0.0
 11
26.724999999999998
 21
98.60566243270259
 31
0.0
  0
LINE
  5
1B3
330
17
100
AcDbEntity
  8
TOP
100
AcDbLine
 10
26.724999999999998
 20
98.60566243270259
 30
0.0
 11
31.065426824526945
 21
96.06065302598265
 31
0.0
  0
LINE
  5
1B4
330
17
100
AcDbEntity
  8
TOP
100
AcDbLine
 10
0.0
 20
102.01933756729741
 30
0.0
 11
4.465426824526944
 21
99.40215937692875
 31
0.0
  0
LINE
  5
1B5
330
17
100
AcDbEntity
  8
TOP
100
AcDbLine
 10
0.0
 20
101.73066243270259
 30
0.0
 11
4.340426824526944
 21
99.18565302598265
 31
0.0
  0
LINE
  5
1B6
330
17
100
AcDbEntity
  8
TOP
100
AcDbLine
 10
0.0
 20
102.01933756729741
 30
0.0
 11
0.0
 21
101.73066243270259
 31
0.0
  0
LINE
  5
1B7
330
17
100
AcDbEntity
  8
TOP
100
AcDbLine
 10
6.224573175473055
 20
99.40215937692875
 30
0.0
 11
10.69
 21
102.01933756729741
 31
0.0
  0
LINE
  5
1B8
330
17
100
AcDbEntity
  8
TOP
100
AcDbLine
 10
10.69
 20
102.01933756729741
 30
0.0
 11
15.155426824526947
 21
99.40215937692875
 31
0.0
  0
LINE
  5
1B9
330
17
100
AcDbEntity
  8
TOP
100
AcDbLine
 10
6.349573175473055
 20
99.18565302598265
 30
0.0
 11
10.69
 21
101.73066243270259
 31
0.0
  0
LINE
  5
1BA
330
17
100
AcDbEntity
  8
TOP
100
AcDbLine
 10
10.69
 20
101.73066243270259
 30
0.0
 11
15.030426824526947
 21
99.18565302598265
 31
0.0
  0
LINE
  5
1BB
330
17
100
AcDbEntity
  8
TOP
100
AcDbLine
 10
16.914573175473055
 20
99.40215937692875
 30
0.0
 11
21.38
 21
102.01933756729741
 31
0.0
  0
LINE
  5
1BC
330
17
100
AcDbEntity
  8
TOP
100
AcDbLine
 10
21.38
 20
102.01933756729741
 30
0.0
 11
25.845426824526943
 21
99.40215937692875
 31
0.0
  0
LINE
  5
1BD
330
17
100
AcDbEntity
  8
TOP
100
AcDbLine
 10
17.039573175473055
 20
99.18565302598265
 30
0.0
 11
21.38
 21
101.73066243270259
 31
0.0
  0
LINE
  5
1BE
330
17
100
AcDbEntity
  8
TOP
100
AcDbLine
 10
21.38
 20
101.73066243270259
 30
0.0
 11
25.720426824526943
 21
99.18565302598265
 31
0.0
  0
LINE
  5
1BF
330
17
100
AcDbEntity
  8
TOP
100
AcDbLine
 10
27.604573175473053
 20
99.40215937692875
 30
0.0
 11
32.07
 21
102.01933756729741
 31
0.0
  0
LINE
  5
1C0
330
17
100
AcDbEntity
  8
TOP
100
AcDbLine
 10
27.729573175473053
 20
99.18565302598265
 30
0.0
 11
32.07
 21
101.73066243270259
 31
0.0
  0
LINE
  5
1C1
330
17
100
AcDbEntity
  8
TOP
100
AcDbLine
 10
32.07
 20
102.01933756729741
 30
0.0
 11
32.07
 21
101.73066243270259
 31
0.0
  0
LINE
  5
1C2
330
17
100
AcDbEntity
  8
TOP
100
AcDbLine
 10
0.8795731754730547
 20
102.52715937692875
 30
0.0
 11
5.345
 21
105.14433756729741
 31
0.0
  0
LINE
  5
1C3
330
17
100
AcDbEntity
  8
TOP
100
AcDbLine
 10
5.345
 20
105.14433756729741
 30
0.0
 11
9.810426824526946
 21
102.52715937692875
 31
0.0
  0
LINE
  5
1C4
330
17
100
AcDbEntity
  8
TOP
100
AcDbLine
 10
1.0045731754730547
 20
102.31065302598265
 30
0.0
 11
5.345
 21
104.85566243270259
 31
0.0
  0
LINE
  5
1C5
330
17
100
AcDbEntity
  8
TOP
100
AcDbLine
 10
5.345
 20
104.85566243270259
 30
0.0
 11
9.685426824526946
 21
102.31065302598265
 31
0.0
  0
LINE
  5
1C6
330
17
100
AcDbEntity
  8
TOP
100
AcDbLine
 10
11.569573175473053
 20
102.52715937692875
 30
0.0
 11
16.035
 21
105.14433756729741
 31
0.0
  0
LINE
  5
1C7
330
17
100
AcDbEntity
  8
TOP
100
AcDbLine
 10
16.035
 20
105.14433756729741
 30
0.0
 11
20.500426824526944
 21
102.52715937692875
 31
0.0
  0
LINE
  5
1C8
330
17
100
AcDbEntity
  8
TOP
100
AcDbLine
 10
11.694573175473053
 20
102.31065302598265
 30
0.0
 11
16.035
 21
104.85566243270259
 31
0.0
  0
LINE
  5
1C9
330
17
100
AcDbEntity
  8
TOP
100
AcDbLine
 10
16.035
 20
104.85566243270259
 30
0.0
 11
20.375426824526944
 21
102.31065302598265
 31
0.0
  0
LINE
  5
1CA
330
17
100
AcDbEntity
  8
TOP
100
AcDbLine
 10
22.259573175473054
 20
102.52715937692875
 30
0.0
 11
26.724999999999998
 21
105.14433756729741
 31
0.0
  0
LINE
  5
1CB
330
17
100
AcDbEntity
  8
TOP
100
AcDbLine
 10
26.724999999999998
 20
105.14433756729741
 30
0.0
 11
31.190426824526945
 21
102.52715937692875
 31
0.0
  0
LINE
  5
1CC
330
17
100
AcDbEntity
  8
TOP
100
AcDbLine
 10
22.384573175473054
 20
102.31065302598265
 30
0.0
 11
26.724999999999998
 21
104.85566243270259
 31
0.0
  0
LINE
  5
1CD
330
17
100
AcDbEntity
  8
TOP
100
AcDbLine
 10
26.724999999999998
 20
104.85566243270259
 30
0.0
 11
31.065426824526945
 21
102.31065302598265
 31
0.0
  0
LINE
  5
1CE
330
17
100
AcDbEntity
  8
TOP
100
AcDbLine
 10
0.0
 20
108.26933756729741
 30
0.0
 11
4.465426824526944
 21
105.65215937692875
 31
0.0
  0
LINE
  5
1CF
330
17
100
AcDbEntity
  8
TOP
100
AcDbLine
 10
0.0
 20
107.98066243270259
 30
0.0
 11
4.340426824526944
 21
105.43565302598265
 31
0.0
  0
LINE
  5
1D0
330
17
100
AcDbEntity
  8
TOP
100
AcDbLine
 10
0.0
 20
108.26933756729741
 30
0.0
 11
0.0
 21
107.98066243270259
 31
0.0
  0
LINE
  5
1D1
330
17
100
AcDbEntity
  8
TOP
100
AcDbLine
 10
6.224573175473055
 20
105.65215937692875
 30
0.0
 11
10.69
 21
108.26933756729741
 31
0.0
  0
LINE
  5
1D2
330
17
100
AcDbEntity
  8
TOP
100
AcDbLine
 10
10.69
 20
108.26933756729741
 30
0.0
 11
15.155426824526947
 21
105.65215937692875
 31
0.0
  0
LINE
  5
1D3
330
17
100
AcDbEntity
  8
TOP
100
AcDbLine
 10
6.349573175473055
 20
105.43565302598265
 30
0.0
 11
10.69
 21
107.98066243270259
 31
0.0
  0
LINE
  5
1D4
330
17
100
AcDbEntity
  8
TOP
100
AcDbLine
 10
10.69
 20
107.98066243270259
 30
0.0
 11
15.030426824526947
 21
105.43565302598265
 31
0.0
  0
LINE
  5
1D5
330
17
100
AcDbEntity
  8
TOP
100
AcDbLine
 10
16.914573175473055
 20
105.65215937692875
 30
0.0
 11
21.38
 21
108.26933756729741
 31
0.0
  0
LINE
  5
1D6
330
17
100
AcDbEntity
  8
TOP
100
AcDbLine
 10
21.38
 20
108.26933756729741
 30
0.0
 11
25.845426824526943
 21
105.65215937692875
 31
0.0
  0
LINE
  5
1D7
330
17
100
AcDbEntity
  8
TOP
100
AcDbLine
 10
17.039573175473055
 20
105.43565302598265
 30
0.0
 11
21.38
 21
107.98066243270259
 31
0.0
  0
LINE
  5
1D8
330
17
100
AcDbEntity
  8
TOP
100
AcDbLine
 10
21.38
 20
107.98066243270259
 30
0.0
 11
25.720426824526943
 21
105.43565302598265
 31
0.0
  0
LINE
  5
1D9
330
17
100
AcDbEntity
  8
TOP
100
AcDbLine
 10
27.604573175473053
 20
105.65215937692875
 30
0.0
 11
32.07
 21
108.26933756729741
 31
0.0
  0
LINE
  5
1DA
330
17
100
AcDbEntity
  8
TOP
100
AcDbLine
 10
27.729573175473053
 20
105.43565302598265
 30
0.0
 11
32.07
 21
107.98066243270259
 31
0.0
  0
LINE
  5
1DB
330
17
100
AcDbEntity
  8
TOP
100
AcDbLine
 10
32.07
 20
108.26933756729741
 30
0.0
 11
32.07
 21
107.98066243270259
 31
0.0
  0
LINE
  5
1DC
330
17
100
AcDbEntity
  8
TOP
100
AcDbLine
 10
0.8795731754730547
 20
108.77715937692875
 30
0.0
 11
5.345
 21
111.39433756729741
 31
0.0
  0
LINE
  5
1DD
330
17
100
AcDbEntity
  8
TOP
100
AcDbLine
 10
5.345
 20
111.39433756729741
 30
0.0
 11
9.810426824526946
 21
108.77715937692875
 31
0.0
  0
LINE
  5
1DE
330
17
100
AcDbEntity
  8
TOP
100
AcDbLine
 10
1.0045731754730547
 20
108.56065302598265
 30
0.0
 11
5.345
 21
111.10566243270259
 31
0.0
  0
LINE
  5
1DF
330
17
100
AcDbEntity
  8
TOP
100
AcDbLine
 10
5.345
 20
111.10566243270259
 30
0.0
 11
9.685426824526946
 21
108.56065302598265
 31
0.0
  0
LINE
  5
1E0
330
17
100
AcDbEntity
  8
TOP
100
AcDbLine
 10
11.569573175473053
 20
108.77715937692875
 30
0.0
 11
16.035
 21
111.39433756729741
 31
0.0
  0
LINE
  5
1E1
330
17
100
AcDbEntity
  8
TOP
100
AcDbLine
 10
16.035
 20
111.39433756729741
 30
0.0
 11
20.500426824526944
 21
108.77715937692875
 31
0.0
  0
LINE
  5
1E2
330
17
100
AcDbEntity
  8
TOP
100
AcDbLine
 10
11.694573175473053
 20
108.56065302598265
 30
0.0
 11
16.035
 21
111.10566243270259
 31
0.0
  0
LINE
  5
1E3
330
17
100
AcDbEntity
  8
TOP
100
AcDbLine
 10
16.035
 20
111.10566243270259
 30
0.0
 11
20.375426824526944
 21
108.56065302598265
 31
0.0
  0
LINE
  5
1E4
330
17
100
AcDbEntity
  8
TOP
100
AcDbLine
 10
22.259573175473054
 20
108.77715937692875
 30
0.0
 11
26.724999999999998
 21
111.39433756729741
 31
0.0
  0
LINE
  5
1E5
330
17
100
AcDbEntity
  8
TOP
100
AcDbLine
 10
26.724999999999998
 20
111.39433756729741
 30
0.0
 11
31.190426824526945
 21
108.77715937692875
 31
0.0
  0
LINE
  5
1E6
330
17
100
AcDbEntity
  8
TOP
100
AcDbLine
 10
22.384573175473054
 20
108.56065302598265
 30
0.0
 11
26.724999999999998
 21
111.10566243270259
 31
0.0
  0
LINE
  5
1E7
330
17
100
AcDbEntity
  8
TOP
100
AcDbLine
 10
26.724999999999998
 20
111.10566243270259
 30
0.0
 11
31.065426824526945
 21
108.56065302598265
 31
0.0
  0
LINE
  5
1E8
330
17
100
AcDbEntity
  8
TOP
100
AcDbLine
 10
0.0
 20
114.51933756729741
 30
0.0
 11
4.465426824526944
 21
111.90215937692875
 31
0.0
  0
LINE
  5
1E9
330
17
100
AcDbEntity
  8
TOP
100
AcDbLine
 10
0.0
 20
114.23066243270259
 30
0.0
 11
4.340426824526944
 21
111.68565302598265
 31
0.0
  0
LINE
  5
1EA
330
17
100
AcDbEntity
  8
TOP
100
AcDbLine
 10
0.0
 20
114.51933756729741
 30
0.0
 11
0.0
 21
114.23066243270259
 31
0.0
  0
LINE
  5
1EB
330
17
100
AcDbEntity
  8
TOP
100
AcDbLine
 10
6.224573175473055
 20
111.90215937692875
 30
0.0
 11
10.69
 21
114.51933756729741
 31
0.0
  0
LINE
  5
1EC
330
17
100
AcDbEntity
  8
TOP
100
AcDbLine
 10
10.69
 20
114.51933756729741
 30
0.0
 11
15.155426824526947
 21
111.90215937692875
 31
0.0
  0
LINE
  5
1ED
330
17
100
AcDbEntity
  8
TOP
100
AcDbLine
 10
6.349573175473055
 20
111.68565302598265
 30
0.0
 11
10.69
 21
114.23066243270259
 31
0.0
  0
LINE
  5
1EE
330
17
100
AcDbEntity
  8
TOP
100
AcDbLine
 10
10.69
 20
114.23066243270259
 30
0.0
 11
15.030426824526947
 21
111.68565302598265
 31
0.0
  0
LINE
  5
1EF
330
17
100
AcDbEntity
  8
TOP
100
AcDbLine
 10
16.914573175473055
 20
111.90215937692875
 30
0.0
 11
21.38
 21
114.51933756729741
 31
0.0
  0
LINE
  5
1F0
330
17
100
AcDbEntity
  8
TOP
100
AcDbLine
 10
21.38
 20
114.51933756729741
 30
0.0
 11
25.845426824526943
 21
111.90215937692875
 31
0.0
  0
LINE
  5
1F1
330
17
100
AcDbEntity
  8
TOP
100
AcDbLine
 10
17.039573175473055
 20
111.68565302598265
 30
0.0
 11
21.38
 21
114.23066243270259
 31
0.0
  0
LINE
  5
1F2
330
17
100
AcDbEntity
  8
TOP
100
AcDbLine
 10
21.38
 20
114.23066243270259
 30
0.0
 11
25.720426824526943
 21
111.68565302598265
 31
0.0
  0
LINE
  5
1F3
330
17
100
AcDbEntity
  8
TOP
100
AcDbLine
 10
27.604573175473053
 20
111.90215937692875
 30
0.0
 11
32.07
 21
114.51933756729741
 31
0.0
  0
LINE
  5
1F4
330
17
100
AcDbEntity
  8
TOP
100
AcDbLine
 10
27.729573175473053
 20
111.68565302598265
 30
0.0
 11
32.07
 21
114.23066243270259
 31
0.0
  0
LINE
  5
1F5
330
17
100
AcDbEntity
  8
TOP
100
AcDbLine
 10
32.07
 20
114.51933756729741
 30
0.0
 11
32.07
 21
114.23066243270259
 31
0.0
  0
LINE
  5
1F6
330
17
100
AcDbEntity
  8
TOP
100
AcDbLine
 10
0.8795731754730547
 20
115.02715937692875
 30
0.0
 11
5.345
 21
117.64433756729741
 31
0.0
  0
LINE
  5
1F7
330
17
100
AcDbEntity
  8
TOP
100
AcDbLine
 10
5.345
 20
117.64433756729741
 30
0.0
 11
9.810426824526946
 21
115.02715937692875
 31
0.0
  0
LINE
  5
1F8
330
17
100
AcDbEntity
  8
TOP
100
AcDbLine
 10
1.0045731754730547
 20
114.81065302598265
 30
0.0
 11
5.345
 21
117.35566243270259
 31
0.0
  0
LINE
  5
1F9
330
17
100
AcDbEntity
  8
TOP
100
AcDbLine
 10
5.345
 20
117.35566243270259
 30
0.0
 11
9.685426824526946
 21
114.81065302598265
 31
0.0
  0
LINE
  5
1FA
330
17
100
AcDbEntity
  8
TOP
100
AcDbLine
 10
11.569573175473053
 20
115.02715937692875
 30
0.0
 11
16.035
 21
117.64433756729741
 31
0.0
  0
LINE
  5
1FB
330
17
100
AcDbEntity
  8
TOP
100
AcDbLine
 10
16.035
 20
117.64433756729741
 30
0.0
 11
20.500426824526944
 21
115.02715937692875
 31
0.0
  0
LINE
  5
1FC
330
17
100
AcDbEntity
  8
TOP
100
AcDbLine
 10
11.694573175473053
 20
114.81065302598265
 30
0.0
 11
16.035
 21
117.35566243270259
 31
0.0
  0
LINE
  5
1FD
330
17
100
AcDbEntity
  8
TOP
100
AcDbLine
 10
16.035
 20
117.35566243270259
 30
0.0
 11
20.375426824526944
 21
114.81065302598265
 31
0.0
  0
LINE
  5
1FE
330
17
100
AcDbEntity
  8
TOP
100
AcDbLine
 10
22.259573175473054
 20
115.02715937692875
 30
0.0
 11
26.724999999999998
 21
117.64433756729741
 31
0.0
  0
LINE
  5
1FF
330
17
100
AcDbEntity
  8
TOP
100
AcDbLine
 10
26.724999999999998
 20
117.64433756729741
 30
0.0
 11
31.190426824526945
 21
115.02715937692875
 31
0.0
  0
LINE
  5
200
330
17
100
AcDbEntity
  8
TOP
100
AcDbLine
 10
22.384573175473054
 20
114.81065302598265
 30
0.0
 11
26.724999999999998
 21
117.35566243270259
 31
0.0
  0
LINE
  5
201
330
17
100
AcDbEntity
  8
TOP
100
AcDbLine
 10
26.724999999999998
 20
117.35566243270259
 30
0.0
 11
31.065426824526945
 21
114.81065302598265
 31
0.0
  0
LINE
  5
202
330
17
100
AcDbEntity
  8
TOP
100
AcDbLine
 10
0.0
 20
120.76933756729741
 30
0.0
 11
4.465426824526944
 21
118.15215937692875
 31
0.0
  0
LINE
  5
203
330
17
100
AcDbEntity
  8
TOP
100
AcDbLine
 10
0.0
 20
120.48066243270259
 30
0.0
 11
4.340426824526944
 21
117.93565302598265
 31
0.0
  0
LINE
  5
204
330
17
100
AcDbEntity
  8
TOP
100
AcDbLine
 10
0.0
 20
120.76933756729741
 30
0.0
 11
0.0
 21
120.48066243270259
 31
0.0
  0
LINE
  5
205
330
17
100
AcDbEntity
  8
TOP
100
AcDbLine
 10
6.224573175473055
 20
118.15215937692875
 30
0.0
 11
10.69
 21
120.76933756729741
 31
0.0
  0
LINE
  5
206
330
17
100
AcDbEntity
  8
TOP
100
AcDbLine
 10
10.69
 20
120.76933756729741
 30
0.0
 11
15.155426824526947
 21
118.15215937692875
 31
0.0
  0
LINE
  5
207
330
17
100
AcDbEntity
  8
TOP
100
AcDbLine
 10
6.349573175473055
 20
117.93565302598265
 30
0.0
 11
10.69
 21
120.48066243270259
 31
0.0
  0
LINE
  5
208
330
17
100
AcDbEntity
  8
TOP
100
AcDbLine
 10
10.69
 20
120.48066243270259
 30
0.0
 11
15.030426824526947
 21
117.93565302598265
 31
0.0
  0
LINE
  5
209
330
17
100
AcDbEntity
  8
TOP
100
AcDbLine
 10
16.914573175473055
 20
118.15215937692875
 30
0.0
 11
21.38
 21
120.76933756729741
 31
0.0
  0
LINE
  5
20A
330
17
100
AcDbEntity
  8
TOP
100
AcDbLine
 10
21.38
 20
120.76933756729741
 30
0.0
 11
25.845426824526943
 21
118.15215937692875
 31
0.0
  0
LINE
  5
20B
330
17
100
AcDbEntity
  8
TOP
100
AcDbLine
 10
17.039573175473055
 20
117.93565302598265
 30
0.0
 11
21.38
 21
120.48066243270259
 31
0.0
  0
LINE
  5
20C
330
17
100
AcDbEntity
  8
TOP
100
AcDbLine
 10
21.38
 20
120.48066243270259
 30
0.0
 11
25.720426824526943
 21
117.93565302598265
 31
0.0
  0
LINE
  5
20D
330
17
100
AcDbEntity
  8
TOP
100
AcDbLine
 10
27.604573175473053
 20
118.15215937692875
 30
0.0
 11
32.07
 21
120.76933756729741
 31
0.0
  0
LINE
  5
20E
330
17
100
AcDbEntity
  8
TOP
100
AcDbLine
 10
27.729573175473053
 20
117.93565302598265
 30
0.0
 11
32.07
 21
120.48066243270259
 31
0.0
  0
LINE
  5
20F
330
17
100
AcDbEntity
  8
TOP
100
AcDbLine
 10
32.07
 20
120.76933756729741
 30
0.0
 11
32.07
 21
120.48066243270259
 31
0.0
  0
LINE
  5
210
330
17
100
AcDbEntity
  8
TOP
100
AcDbLine
 10
0.8795731754730547
 20
121.27715937692875
 30
0.0
 11
5.345
 21
123.89433756729741
 31
0.0
  0
LINE
  5
211
330
17
100
AcDbEntity
  8
TOP
100
AcDbLine
 10
5.345
 20
123.89433756729741
 30
0.0
 11
9.810426824526946
 21
121.27715937692875
 31
0.0
  0
LINE
  5
212
330
17
100
AcDbEntity
  8
TOP
100
AcDbLine
 10
1.0045731754730547
 20
121.06065302598265
 30
0.0
 11
5.345
 21
123.60566243270259
 31
0.0
  0
LINE
  5
213
330
17
100
AcDbEntity
  8
TOP
100
AcDbLine
 10
5.345
 20
123.60566243270259
 30
0.0
 11
9.685426824526946
 21
121.06065302598265
 31
0.0
  0
LINE
  5
214
330
17
100
AcDbEntity
  8
TOP
100
AcDbLine
 10
11.569573175473053
 20
121.27715937692875
 30
0.0
 11
16.035
 21
123.89433756729741
 31
0.0
  0
LINE
  5
215
330
17
100
AcDbEntity
  8
TOP
100
AcDbLine
 10
16.035
 20
123.89433756729741
 30
0.0
 11
20.500426824526944
 21
121.27715937692875
 31
0.0
  0
LINE
  5
216
330
17
100
AcDbEntity
  8
TOP
100
AcDbLine
 10
11.694573175473053
 20
121.06065302598265
 30
0.0
 11
16.035
 21
123.60566243270259
 31
0.0
  0
LINE
  5
217
330
17
100
AcDbEntity
  8
TOP
100
AcDbLine
 10
16.035
 20
123.60566243270259
 30
0.0
 11
20.375426824526944
 21
121.06065302598265
 31
0.0
  0
LINE
  5
218
330
17
100
AcDbEntity
  8
TOP
100
AcDbLine
 10
22.259573175473054
 20
121.27715937692875
 30
0.0
 11
26.724999999999998
 21
123.89433756729741
 31
0.0
  0
LINE
  5
219
330
17
100
AcDbEntity
  8
TOP
100
AcDbLine
 10
26.724999999999998
 20
123.89433756729741
 30
0.0
 11
31.190426824526945
 21
121.27715937692875
 31
0.0
  0
LINE
  5
21A
330
17
100
AcDbEntity
  8
TOP
100
AcDbLine
 10
22.384573175473054
 20
121.06065302598265
 30
0.0
 11
26.724999999999998
 21
123.60566243270259
 31
0.0
  0
LINE
  5
21B
330
17
100
AcDbEntity
  8
TOP
100
AcDbLine
 10
26.724999999999998
 20
123.60566243270259
 30
0.0
 11
31.065426824526945
 21
121.06065302598265
 31
0.0
  0
LINE
  5
21C
330
17
100
AcDbEntity
  8
TOP
100
AcDbLine
 10
0.0
 20
127.01933756729741
 30
0.0
 11
4.465426824526944
 21
124.40215937692875
 31
0.0
  0
LINE
  5
21D
330
17
100
AcDbEntity
  8
TOP
100
AcDbLine
 10
0.0
 20
126.73066243270259
 30
0.0
 11
4.340426824526944
 21
124.18565302598265
 31
0.0
  0
LINE
  5
21E
330
17
100
AcDbEntity
  8
TOP
100
AcDbLine
 10
0.0
 20
127.01933756729741
 30
0.0
 11
0.0
 21
126.73066243270259
 31
0.0
  0
LINE
  5
21F
330
17
100
AcDbEntity
  8
TOP
100
AcDbLine
 10
6.224573175473055
 20
124.40215937692875
 30
0.0
 11
10.69
 21
127.01933756729741
 31
0.0
  0
LINE
  5
220
330
17
100
AcDbEntity
  8
TOP
100
AcDbLine
 10
10.69
 20
127.01933756729741
 30
0.0
 11
15.155426824526947
 21
124.40215937692875
 31
0.0
  0
LINE
  5
221
330
17
100
AcDbEntity
  8
TOP
100
AcDbLine
 10
6.349573175473055
 20
124.18565302598265
 30
0.0
 11
10.69
 21
126.73066243270259
 31
0.0
  0
LINE
  5
222
330
17
100
AcDbEntity
  8
TOP
100
AcDbLine
 10
10.69
 20
126.73066243270259
 30
0.0
 11
15.030426824526947
 21
124.18565302598265
 31
0.0
  0
LINE
  5
223
330
17
100
AcDbEntity
  8
TOP
100
AcDbLine
 10
16.914573175473055
 20
124.40215937692875
 30
0.0
 11
21.38
 21
127.01933756729741
 31
0.0
  0
LINE
  5
224
330
17
100
AcDbEntity
  8
TOP
100
AcDbLine
 10
21.38
 20
127.01933756729741
 30
0.0
 11
25.845426824526943
 21
124.40215937692875
 31
0.0
  0
LINE
  5
225
330
17
100
AcDbEntity
  8
TOP
100
AcDbLine
 10
17.039573175473055
 20
124.18565302598265
 30
0.0
 11
21.38
 21
126.73066243270259
 31
0.0
  0
LINE
  5
226
330
17
100
AcDbEntity
  8
TOP
100
AcDbLine
 10
21.38
 20
126.73066243270259
 30
0.0
 11
25.720426824526943
 21
124.18565302598265
 31
0.0
  0
LINE
  5
227
330
17
100
AcDbEntity
  8
TOP
100
AcDbLine
 10
27.604573175473053
 20
124.40215937692875
 30
0.0
 11
32.07
 21
127.01933756729741
 31
0.0
  0
LINE
  5
228
330
17
100
AcDbEntity
  8
TOP
100
AcDbLine
 10
27.729573175473053
 20
124.18565302598265
 30
0.0
 11
32.07
 21
126.73066243270259
 31
0.0
  0
LINE
  5
229
330
17
100
AcDbEntity
  8
TOP
100
AcDbLine
 10
32.07
 20
127.01933756729741
 30
0.0
 11
32.07
 21
126.73066243270259
 31
0.0
  0
LINE
  5
22A
330
17
100
AcDbEntity
  8
TOP
100
AcDbLine
 10
0.8795731754730547
 20
127.52715937692875
 30
0.0
 11
5.345
 21
130.1443375672974
 31
0.0
  0
LINE
  5
22B
330
17
100
AcDbEntity
  8
TOP
100
AcDbLine
 10
5.345
 20
130.1443375672974
 30
0.0
 11
9.810426824526946
 21
127.52715937692875
 31
0.0
  0
LINE
  5
22C
330
17
100
AcDbEntity
  8
TOP
100
AcDbLine
 10
1.0045731754730547
 20
127.31065302598265
 30
0.0
 11
5.345
 21
129.8556624327026
 31
0.0
  0
LINE
  5
22D
330
17
100
AcDbEntity
  8
TOP
100
AcDbLine
 10
5.345
 20
129.8556624327026
 30
0.0
 11
9.685426824526946
 21
127.31065302598265
 31
0.0
  0
LINE
  5
22E
330
17
100
AcDbEntity
  8
TOP
100
AcDbLine
 10
11.569573175473053
 20
127.52715937692875
 30
0.0
 11
16.035
 21
130.1443375672974
 31
0.0
  0
LINE
  5
22F
330
17
100
AcDbEntity
  8
TOP
100
AcDbLine
 10
16.035
 20
130.1443375672974
 30
0.0
 11
20.500426824526944
 21
127.52715937692875
 31
0.0
  0
LINE
  5
230
330
17
100
AcDbEntity
  8
TOP
100
AcDbLine
 10
11.694573175473053
 20
127.31065302598265
 30
0.0
 11
16.035
 21
129.8556624327026
 31
0.0
  0
LINE
  5
231
330
17
100
AcDbEntity
  8
TOP
100
AcDbLine
 10
16.035
 20
129.8556624327026
 30
0.0
 11
20.375426824526944
 21
127.31065302598265
 31
0.0
  0
LINE
  5
232
330
17
100
AcDbEntity
  8
TOP
100
AcDbLine
 10
22.259573175473054
 20
127.52715937692875
 30
0.0
 11
26.724999999999998
 21
130.1443375672974
 31
0.0
  0
LINE
  5
233
330
17
100
AcDbEntity
  8
TOP
100
AcDbLine
 10
26.724999999999998
 20
130.1443375672974
 30
0.0
 11
31.190426824526945
 21
127.52715937692875
 31
0.0
  0
LINE
  5
234
330
17
100
AcDbEntity
  8
TOP
100
AcDbLine
 10
22.384573175473054
 20
127.31065302598265
 30
0.0
 11
26.724999999999998
 21
129.8556624327026
 31
0.0
  0
LINE
  5
235
330
17
100
AcDbEntity
  8
TOP
100
AcDbLine
 10
26.724999999999998
 20
129.8556624327026
 30
0.0
 11
31.065426824526945
 21
127.31065302598265
 31
0.0
  0
LINE
  5
236
330
17
100
AcDbEntity
  8
TOP
100
AcDbLine
 10
0.0
 20
133.2693375672974
 30
0.0
 11
4.465426824526944
 21
130.65215937692875
 31
0.0
  0
LINE
  5
237
330
17
100
AcDbEntity
  8
TOP
100
AcDbLine
 10
0.0
 20
132.9806624327026
 30
0.0
 11
4.340426824526944
 21
130.43565302598262
 31
0.0
  0
LINE
  5
238
330
17
100
AcDbEntity
  8
TOP
100
AcDbLine
 10
0.0
 20
133.2693375672974
 30
0.0
 11
0.0
 21
132.9806624327026
 31
0.0
  0
LINE
  5
239
330
17
100
AcDbEntity
  8
TOP
100
AcDbLine
 10
6.224573175473055
 20
130.65215937692875
 30
0.0
 11
10.69
 21
133.2693375672974
 31
0.0
  0
LINE
  5
23A
330
17
100
AcDbEntity
  8
TOP
100
AcDbLine
 10
10.69
 20
133.2693375672974
 30
0.0
 11
15.155426824526947
 21
130.65215937692875
 31
0.0
  0
LINE
  5
23B
330
17
100
AcDbEntity
  8
TOP
100
AcDbLine
 10
6.349573175473055
 20
130.43565302598262
 30
0.0
 11
10.69
 21
132.9806624327026
 31
0.0
  0
LINE
  5
23C
330
17
100
AcDbEntity
  8
TOP
100
AcDbLine
 10
10.69
 20
132.9806624327026
 30
0.0
 11
15.030426824526947
 21
130.43565302598262
 31
0.0
  0
LINE
  5
23D
330
17
100
AcDbEntity
  8
TOP
100
AcDbLine
 10
16.914573175473055
 20
130.65215937692875
 30
0.0
 11
21.38
 21
133.2693375672974
 31
0.0
  0
LINE
  5
23E
330
17
100
AcDbEntity
  8
TOP
100
AcDbLine
 10
21.38
 20
133.2693375672974
 30
0.0
 11
25.845426824526943
 21
130.65215937692875
 31
0.0
  0
LINE
  5
23F
330
17
100
AcDbEntity
  8
TOP
100
AcDbLine
 10
17.039573175473055
 20
130.43565302598262
 30
0.0
 11
21.38
 21
132.9806624327026
 31
0.0
  0
LINE
  5
240
330
17
100
AcDbEntity
  8
TOP
100
AcDbLine
 10
21.38
 20
132.9806624327026
 30
0.0
 11
25.720426824526943
 21
130.43565302598262
 31
0.0
  0
LINE
  5
241
330
17
100
AcDbEntity
  8
TOP
100
AcDbLine
 10
27.604573175473053
 20
130.65215937692875
 30
0.0
 11
32.07
 21
133.2693375672974
 31
0.0
  0
LINE
  5
242
330
17
100
AcDbEntity
  8
TOP
100
AcDbLine
 10
27.729573175473053
 20
130.43565302598262
 30
0.0
 11
32.07
 21
132.9806624327026
 31
0.0
  0
LINE
  5
243
330
17
100
AcDbEntity
  8
TOP
100
AcDbLine
 10
32.07
 20
133.2693375672974
 30
0.0
 11
32.07
 21
132.9806624327026
 31
0.0
  0
LINE
  5
244
330
17
100
AcDbEntity
  8
TOP
100
AcDbLine
 10
0.8795731754730547
 20
133.77715937692875
 30
0.0
 11
5.345
 21
136.3943375672974
 31
0.0
  0
LINE
  5
245
330
17
100
AcDbEntity
  8
TOP
100
AcDbLine
 10
5.345
 20
136.3943375672974
 30
0.0
 11
9.810426824526946
 21
133.77715937692875
 31
0.0
  0
LINE
  5
246
330
17
100
AcDbEntity
  8
TOP
100
AcDbLine
 10
1.0045731754730547
 20
133.56065302598262
 30
0.0
 11
5.345
 21
136.1056624327026
 31
0.0
  0
LINE
  5
247
330
17
100
AcDbEntity
  8
TOP
100
AcDbLine
 10
5.345
 20
136.1056624327026
 30
0.0
 11
9.685426824526946
 21
133.56065302598262
 31
0.0
  0
LINE
  5
248
330
17
100
AcDbEntity
  8
TOP
100
AcDbLine
 10
11.569573175473053
 20
133.77715937692875
 30
0.0
 11
16.035
 21
136.3943375672974
 31
0.0
  0
LINE
  5
249
330
17
100
AcDbEntity
  8
TOP
100
AcDbLine
 10
16.035
 20
136.3943375672974
 30
0.0
 11
20.500426824526944
 21
133.77715937692875
 31
0.0
  0
LINE
  5
24A
330
17
100
AcDbEntity
  8
TOP
100
AcDbLine
 10
11.694573175473053
 20
133.56065302598262
 30
0.0
 11
16.035
 21
136.1056624327026
 31
0.0
  0
LINE
  5
24B
330
17
100
AcDbEntity
  8
TOP
100
AcDbLine
 10
16.035
 20
136.1056624327026
 30
0.0
 11
20.375426824526944
 21
133.56065302598262
 31
0.0
  0
LINE
  5
24C
330
17
100
AcDbEntity
  8
TOP
100
AcDbLine
 10
22.259573175473054
 20
133.77715937692875
 30
0.0
 11
26.724999999999998
 21
136.3943375672974
 31
0.0
  0
LINE
  5
24D
330
17
100
AcDbEntity
  8
TOP
100
AcDbLine
 10
26.724999999999998
 20
136.3943375672974
 30
0.0
 11
31.190426824526945
 21
133.77715937692875
 31
0.0
  0
LINE
  5
24E
330
17
100
AcDbEntity
  8
TOP
100
AcDbLine
 10
22.384573175473054
 20
133.56065302598262
 30
0.0
 11
26.724999999999998
 21
136.1056624327026
 31
0.0
  0
LINE
  5
24F
330
17
100
AcDbEntity
  8
TOP
100
AcDbLine
 10
26.724999999999998
 20
136.1056624327026
 30
0.0
 11
31.065426824526945
 21
133.56065302598262
 31
0.0
  0
LINE
  5
250
330
17
100
AcDbEntity
  8
TOP
100
AcDbLine
 10
0.0
 20
139.5193375672974
 30
0.0
 11
4.465426824526944
 21
136.90215937692875
 31
0.0
  0
LINE
  5
251
330
17
100
AcDbEntity
  8
TOP
100
AcDbLine
 10
0.0
 20
139.2306624327026
 30
0.0
 11
4.340426824526944
 21
136.68565302598262
 31
0.0
  0
LINE
  5
252
330
17
100
AcDbEntity
  8
TOP
100
AcDbLine
 10
0.0
 20
139.5193375672974
 30
0.0
 11
0.0
 21
139.2306624327026
 31
0.0
  0
LINE
  5
253
330
17
100
AcDbEntity
  8
TOP
100
AcDbLine
 10
6.224573175473055
 20
136.90215937692875
 30
0.0
 11
10.69
 21
139.5193375672974
 31
0.0
  0
LINE
  5
254
330
17
100
AcDbEntity
  8
TOP
100
AcDbLine
 10
10.69
 20
139.5193375672974
 30
0.0
 11
15.155426824526947
 21
136.90215937692875
 31
0.0
  0
LINE
  5
255
330
17
100
AcDbEntity
  8
TOP
100
AcDbLine
 10
6.349573175473055
 20
136.68565302598262
 30
0.0
 11
10.69
 21
139.2306624327026
 31
0.0
  0
LINE
  5
256
330
17
100
AcDbEntity
  8
TOP
100
AcDbLine
 10
10.69
 20
139.2306624327026
 30
0.0
 11
15.030426824526947
 21
136.68565302598262
 31
0.0
  0
LINE
  5
257
330
17
100
AcDbEntity
  8
TOP
100
AcDbLine
 10
16.914573175473055
 20
136.90215937692875
 30
0.0
 11
21.38
 21
139.5193375672974
 31
0.0
  0
LINE
  5
258
330
17
100
AcDbEntity
  8
TOP
100
AcDbLine
 10
21.38
 20
139.5193375672974
 30
0.0
 11
25.845426824526943
 21
136.90215937692875
 31
0.0
  0
LINE
  5
259
330
17
100
AcDbEntity
  8
TOP
100
AcDbLine
 10
17.039573175473055
 20
136.68565302598262
 30
0.0
 11
21.38
 21
139.2306624327026
 31
0.0
  0
LINE
  5
25A
330
17
100
AcDbEntity
  8
TOP
100
AcDbLine
 10
21.38
 20
139.2306624327026
 30
0.0
 11
25.720426824526943
 21
136.68565302598262
 31
0.0
  0
LINE
  5
25B
330
17
100
AcDbEntity
  8
TOP
100
AcDbLine
 10
27.604573175473053
 20
136.90215937692875
 30
0.0
 11
32.07
 21
139.5193375672974
 31
0.0
  0
LINE
  5
25C
330
17
100
AcDbEntity
  8
TOP
100
AcDbLine
 10
27.729573175473053
 20
136.68565302598262
 30
0.0
 11
32.07
 21
139.2306624327026
 31
0.0
  0
LINE
  5
25D
330
17
100
AcDbEntity
  8
TOP
100
AcDbLine
 10
32.07
 20
139.5193375672974
 30
0.0
 11
32.07
 21
139.2306624327026
 31
0.0
  0
LINE
  5
25E
330
17
100
AcDbEntity
  8
TOP
100
AcDbLine
 10
0.8795731754730547
 20
140.02715937692875
 30
0.0
 11
5.345
 21
142.6443375672974
 31
0.0
  0
LINE
  5
25F
330
17
100
AcDbEntity
  8
TOP
100
AcDbLine
 10
5.345
 20
142.6443375672974
 30
0.0
 11
9.810426824526946
 21
140.02715937692875
 31
0.0
  0
LINE
  5
260
330
17
100
AcDbEntity
  8
TOP
100
AcDbLine
 10
1.0045731754730547
 20
139.81065302598262
 30
0.0
 11
5.345
 21
142.3556624327026
 31
0.0
  0
LINE
  5
261
330
17
100
AcDbEntity
  8
TOP
100
AcDbLine
 10
5.345
 20
142.3556624327026
 30
0.0
 11
9.685426824526946
 21
139.81065302598262
 31
0.0
  0
LINE
  5
262
330
17
100
AcDbEntity
  8
TOP
100
AcDbLine
 10
11.569573175473053
 20
140.02715937692875
 30
0.0
 11
16.035
 21
142.6443375672974
 31
0.0
  0
LINE
  5
263
330
17
100
AcDbEntity
  8
TOP
100
AcDbLine
 10
16.035
 20
142.6443375672974
 30
0.0
 11
20.500426824526944
 21
140.02715937692875
 31
0.0
  0
LINE
  5
264
330
17
100
AcDbEntity
  8
TOP
100
AcDbLine
 10
11.694573175473053
 20
139.81065302598262
 30
0.0
 11
16.035
 21
142.3556624327026
 31
0.0
  0
LINE
  5
265
330
17
100
AcDbEntity
  8
TOP
100
AcDbLine
 10
16.035
 20
142.3556624327026
 30
0.0
 11
20.375426824526944
 21
139.81065302598262
 31
0.0
  0
LINE
  5
266
330
17
100
AcDbEntity
  8
TOP
100
AcDbLine
 10
22.259573175473054
 20
140.02715937692875
 30
0.0
 11
26.724999999999998
 21
142.6443375672974
 31
0.0
  0
LINE
  5
267
330
17
100
AcDbEntity
  8
TOP
100
AcDbLine
 10
26.724999999999998
 20
142.6443375672974
 30
0.0
 11
31.190426824526945
 21
140.02715937692875
 31
0.0
  0
LINE
  5
268
330
17
100
AcDbEntity
  8
TOP
100
AcDbLine
 10
22.384573175473054
 20
139.81065302598262
 30
0.0
 11
26.724999999999998
 21
142.3556624327026
 31
0.0
  0
LINE
  5
269
330
17
100
AcDbEntity
  8
TOP
100
AcDbLine
 10
26.724999999999998
 20
142.3556624327026
 30
0.0
 11
31.065426824526945
 21
139.81065302598262
 31
0.0
  0
LINE
  5
26A
330
17
100
AcDbEntity
  8
TOP
100
AcDbLine
 10
0.0
 20
145.7693375672974
 30
0.0
 11
4.465426824526944
 21
143.15215937692875
 31
0.0
  0
LINE
  5
26B
330
17
100
AcDbEntity
  8
TOP
100
AcDbLine
 10
0.0
 20
145.4806624327026
 30
0.0
 11
4.340426824526944
 21
142.93565302598262
 31
0.0
  0
LINE
  5
26C
330
17
100
AcDbEntity
  8
TOP
100
AcDbLine
 10
0.0
 20
145.7693375672974
 30
0.0
 11
0.0
 21
145.4806624327026
 31
0.0
  0
LINE
  5
26D
330
17
100
AcDbEntity
  8
TOP
100
AcDbLine
 10
6.224573175473055
 20
143.15215937692875
 30
0.0
 11
10.69
 21
145.7693375672974
 31
0.0
  0
LINE
  5
26E
330
17
100
AcDbEntity
  8
TOP
100
AcDbLine
 10
10.69
 20
145.7693375672974
 30
0.0
 11
15.155426824526947
 21
143.15215937692875
 31
0.0
  0
LINE
  5
26F
330
17
100
AcDbEntity
  8
TOP
100
AcDbLine
 10
6.349573175473055
 20
142.93565302598262
 30
0.0
 11
10.69
 21
145.4806624327026
 31
0.0
  0
LINE
  5
270
330
17
100
AcDbEntity
  8
TOP
100
AcDbLine
 10
10.69
 20
145.4806624327026
 30
0.0
 11
15.030426824526947
 21
142.93565302598262
 31
0.0
  0
LINE
  5
271
330
17
100
AcDbEntity
  8
TOP
100
AcDbLine
 10
16.914573175473055
 20
143.15215937692875
 30
0.0
 11
21.38
 21
145.7693375672974
 31
0.0
  0
LINE
  5
272
330
17
100
AcDbEntity
  8
TOP
100
AcDbLine
 10
21.38
 20
145.7693375672974
 30
0.0
 11
25.845426824526943
 21
143.15215937692875
 31
0.0
  0
LINE
  5
273
330
17
100
AcDbEntity
  8
TOP
100
AcDbLine
 10
17.039573175473055
 20
142.93565302598262
 30
0.0
 11
21.38
 21
145.4806624327026
 31
0.0
  0
LINE
  5
274
330
17
100
AcDbEntity
  8
TOP
100
AcDbLine
 10
21.38
 20
145.4806624327026
 30
0.0
 11
25.720426824526943
 21
142.93565302598262
 31
0.0
  0
LINE
  5
275
330
17
100
AcDbEntity
  8
TOP
100
AcDbLine
 10
27.604573175473053
 20
143.15215937692875
 30
0.0
 11
32.07
 21
145.7693375672974
 31
0.0
  0
LINE
  5
276
330
17
100
AcDbEntity
  8
TOP
100
AcDbLine
 10
27.729573175473053
 20
142.93565302598262
 30
0.0
 11
32.07
 21
145.4806624327026
 31
0.0
  0
LINE
  5
277
330
17
100
AcDbEntity
  8
TOP
100
AcDbLine
 10
32.07
 20
145.7693375672974
 30
0.0
 11
32.07
 21
145.4806624327026
 31
0.0
  0
LINE
  5
278
330
17
100
AcDbEntity
  8
TOP
100
AcDbLine
 10
0.8795731754730547
 20
146.27715937692875
 30
0.0
 11
5.345
 21
148.8943375672974
 31
0.0
  0
LINE
  5
279
330
17
100
AcDbEntity
  8
TOP
100
AcDbLine
 10
5.345
 20
148.8943375672974
 30
0.0
 11
9.810426824526946
 21
146.27715937692875
 31
0.0
  0
LINE
  5
27A
330
17
100
AcDbEntity
  8
TOP
100
AcDbLine
 10
1.0045731754730547
 20
146.06065302598262
 30
0.0
 11
5.345
 21
148.6056624327026
 31
0.0
  0
LINE
  5
27B
330
17
100
AcDbEntity
  8
TOP
100
AcDbLine
 10
5.345
 20
148.6056624327026
 30
0.0
 11
9.685426824526946
 21
146.06065302598262
 31
0.0
  0
LINE
  5
27C
330
17
100
AcDbEntity
  8
TOP
100
AcDbLine
 10
11.569573175473053
 20
146.27715937692875
 30
0.0
 11
16.035
 21
148.8943375672974
 31
0.0
  0
LINE
  5
27D
330
17
100
AcDbEntity
  8
TOP
100
AcDbLine
 10
16.035
 20
148.8943375672974
 30
0.0
 11
20.500426824526944
 21
146.27715937692875
 31
0.0
  0
LINE
  5
27E
330
17
100
AcDbEntity
  8
TOP
100
AcDbLine
 10
11.694573175473053
 20
146.06065302598262
 30
0.0
 11
16.035
 21
148.6056624327026
 31
0.0
  0
LINE
  5
27F
330
17
100
AcDbEntity
  8
TOP
100
AcDbLine
 10
16.035
 20
148.6056624327026
 30
0.0
 11
20.375426824526944
 21
146.06065302598262
 31
0.0
  0
LINE
  5
280
330
17
100
AcDbEntity
  8
TOP
100
AcDbLine
 10
22.259573175473054
 20
146.27715937692875
 30
0.0
 11
26.724999999999998
 21
148.8943375672974
 31
0.0
  0
LINE
  5
281
330
17
100
AcDbEntity
  8
TOP
100
AcDbLine
 10
26.724999999999998
 20
148.8943375672974
 30
0.0
 11
31.190426824526945
 21
146.27715937692875
 31
0.0
  0
LINE
  5
282
330
17
100
AcDbEntity
  8
TOP
100
AcDbLine
 10
22.384573175473054
 20
146.06065302598262
 30
0.0
 11
26.724999999999998
 21
148.6056624327026
 31
0.0
  0
LINE
  5
283
330
17
100
AcDbEntity
  8
TOP
100
AcDbLine
 10
26.724999999999998
 20
148.6056624327026
 30
0.0
 11
31.065426824526945
 21
146.06065302598262
 31
0.0
  0
LINE
  5
284
330
17
100
AcDbEntity
  8
TOP
100
AcDbLine
 10
0.0
 20
152.0193375672974
 30
0.0
 11
4.465426824526944
 21
149.40215937692875
 31
0.0
  0
LINE
  5
285
330
17
100
AcDbEntity
  8
TOP
100
AcDbLine
 10
0.0
 20
151.7306624327026
 30
0.0
 11
4.340426824526944
 21
149.18565302598262
 31
0.0
  0
LINE
  5
286
330
17
100
AcDbEntity
  8
TOP
100
AcDbLine
 10
0.0
 20
152.0193375672974
 30
0.0
 11
0.0
 21
151.7306624327026
 31
0.0
  0
LINE
  5
287
330
17
100
AcDbEntity
  8
TOP
100
AcDbLine
 10
6.224573175473055
 20
149.40215937692875
 30
0.0
 11
10.69
 21
152.0193375672974
 31
0.0
  0
LINE
  5
288
330
17
100
AcDbEntity
  8
TOP
100
AcDbLine
 10
10.69
 20
152.0193375672974
 30
0.0
 11
15.155426824526947
 21
149.40215937692875
 31
0.0
  0
LINE
  5
289
330
17
100
AcDbEntity
  8
TOP
100
AcDbLine
 10
6.349573175473055
 20
149.18565302598262
 30
0.0
 11
10.69
 21
151.7306624327026
 31
0.0
  0
LINE
  5
28A
330
17
100
AcDbEntity
  8
TOP
100
AcDbLine
 10
10.69
 20
151.7306624327026
 30
0.0
 11
15.030426824526947
 21
149.18565302598262
 31
0.0
  0
LINE
  5
28B
330
17
100
AcDbEntity
  8
TOP
100
AcDbLine
 10
16.914573175473055
 20
149.40215937692875
 30
0.0
 11
21.38
 21
152.0193375672974
 31
0.0
  0
LINE
  5
28C
330
17
100
AcDbEntity
  8
TOP
100
AcDbLine
 10
21.38
 20
152.0193375672974
 30
0.0
 11
25.845426824526943
 21
149.40215937692875
 31
0.0
  0
LINE
  5
28D
330
17
100
AcDbEntity
  8
TOP
100
AcDbLine
 10
17.039573175473055
 20
149.18565302598262
 30
0.0
 11
21.38
 21
151.7306624327026
 31
0.0
  0
LINE
  5
28E
330
17
100
AcDbEntity
  8
TOP
100
AcDbLine
 10
21.38
 20
151.7306624327026
 30
0.0
 11
25.720426824526943
 21
149.18565302598262
 31
0.0
  0
LINE
  5
28F
330
17
100
AcDbEntity
  8
TOP
100
AcDbLine
 10
27.604573175473053
 20
149.40215937692875
 30
0.0
 11
32.07
 21
152.0193375672974
 31
0.0
  0
LINE
  5
290
330
17
100
AcDbEntity
  8
TOP
100
AcDbLine
 10
27.729573175473053
 20
149.18565302598262
 30
0.0
 11
32.07
 21
151.7306624327026
 31
0.0
  0
LINE
  5
291
330
17
100
AcDbEntity
  8
TOP
100
AcDbLine
 10
32.07
 20
152.0193375672974
 30
0.0
 11
32.07
 21
151.7306624327026
 31
0.0
  0
LINE
  5
292
330
17
100
AcDbEntity
  8
TOP
100
AcDbLine
 10
0.8795731754730547
 20
152.52715937692875
 30
0.0
 11
5.345
 21
155.1443375672974
 31
0.0
  0
LINE
  5
293
330
17
100
AcDbEntity
  8
TOP
100
AcDbLine
 10
5.345
 20
155.1443375672974
 30
0.0
 11
9.810426824526946
 21
152.52715937692875
 31
0.0
  0
LINE
  5
294
330
17
100
AcDbEntity
  8
TOP
100
AcDbLine
 10
1.0045731754730547
 20
152.31065302598262
 30
0.0
 11
5.345
 21
154.8556624327026
 31
0.0
  0
LINE
  5
295
330
17
100
AcDbEntity
  8
TOP
100
AcDbLine
 10
5.345
 20
154.8556624327026
 30
0.0
 11
9.685426824526946
 21
152.31065302598262
 31
0.0
  0
LINE
  5
296
330
17
100
AcDbEntity
  8
TOP
100
AcDbLine
 10
11.569573175473053
 20
152.52715937692875
 30
0.0
 11
16.035
 21
155.1443375672974
 31
0.0
  0
LINE
  5
297
330
17
100
AcDbEntity
  8
TOP
100
AcDbLine
 10
16.035
 20
155.1443375672974
 30
0.0
 11
20.500426824526944
 21
152.52715937692875
 31
0.0
  0
LINE
  5
298
330
17
100
AcDbEntity
  8
TOP
100
AcDbLine
 10
11.694573175473053
 20
152.31065302598262
 30
0.0
 11
16.035
 21
154.8556624327026
 31
0.0
  0
LINE
  5
299
330
17
100
AcDbEntity
  8
TOP
100
AcDbLine
 10
16.035
 20
154.8556624327026
 30
0.0
 11
20.375426824526944
 21
152.31065302598262
 31
0.0
  0
LINE
  5
29A
330
17
100
AcDbEntity
  8
TOP
100
AcDbLine
 10
22.259573175473054
 20
152.52715937692875
 30
0.0
 11
26.724999999999998
 21
155.1443375672974
 31
0.0
  0
LINE
  5
29B
330
17
100
AcDbEntity
  8
TOP
100
AcDbLine
 10
26.724999999999998
 20
155.1443375672974
 30
0.0
 11
31.190426824526945
 21
152.52715937692875
 31
0.0
  0
LINE
  5
29C
330
17
100
AcDbEntity
  8
TOP
100
AcDbLine
 10
22.384573175473054
 20
152.31065302598262
 30
0.0
 11
26.724999999999998
 21
154.8556624327026
 31
0.0
  0
LINE
  5
29D
330
17
100
AcDbEntity
  8
TOP
100
AcDbLine
 10
26.724999999999998
 20
154.8556624327026
 30
0.0
 11
31.065426824526945
 21
152.31065302598262
 31
0.0
  0
ARC
  5
29E
330
17
100
AcDbEntity
  8
TOP
100
AcDbCircle
 10
4.402926824526944
 20
5.543906201455694
 30
0.0
 40
0.125
100
AcDbArc
 50
-119.99999999999999
 51
60.00000000000001
  0
ARC
  5
29F
330
17
100
AcDbEntity
  8
TOP
100
AcDbCircle
 10
6.287073175473055
 20
5.543906201455694
 30
0.0
 40
0.125
100
AcDbArc
 50
119.99999999999999
 51
300.0
  0
ARC
  5
2A0
330
17
100
AcDbEntity
  8
TOP
100
AcDbCircle
 10
15.092926824526947
 20
5.543906201455694
 30
0.0
 40
0.125
100
AcDbArc
 50
-119.99999999999999
 51
60.00000000000001
  0
ARC
  5
2A1
330
17
100
AcDbEntity
  8
TOP
100
AcDbCircle
 10
16.977073175473055
 20
5.543906201455694
 30
0.0
 40
0.125
100
AcDbArc
 50
119.99999999999999
 51
300.0
  0
ARC
  5
2A2
330
17
100
AcDbEntity
  8
TOP
100
AcDbCircle
 10
25.782926824526943
 20
5.543906201455694
 30
0.0
 40
0.125
100
AcDbArc
 50
-119.99999999999999
 51
60.00000000000001
  0
ARC
  5
2A3
330
17
100
AcDbEntity
  8
TOP
100
AcDbCircle
 10
27.667073175473053
 20
5.543906201455694
 30
0.0
 40
0.125
100
AcDbArc
 50
119.99999999999999
 51
300.0
  0
ARC
  5
2A4
330
17
100
AcDbEntity
  8
TOP
100
AcDbCircle
 10
0.9420731754730547
 20
8.668906201455695
 30
0.0
 40
0.125
100
AcDbArc
 50
119.99999999999999
 51
300.0
  0
ARC
  5
2A5
330
17
100
AcDbEntity
  8
TOP
100
AcDbCircle
 10
9.747926824526946
 20
8.668906201455695
 30
0.0
 40
0.125
100
AcDbArc
 50
-119.99999999999999
 51
60.00000000000001
  0
ARC
  5
2A6
330
17
100
AcDbEntity
  8
TOP
100
AcDbCircle
 10
11.632073175473053
 20
8.668906201455695
 30
0.0
 40
0.125
100
AcDbArc
 50
119.99999999999999
 51
300.0
  0
ARC
  5
2A7
330
17
100
AcDbEntity
  8
TOP
100
AcDbCircle
 10
20.437926824526944
 20
8.668906201455695
 30
0.0
 40
0.125
100
AcDbArc
 50
-119.99999999999999
 51
60.00000000000001
  0
ARC
  5
2A8
330
17
100
AcDbEntity
  8
TOP
100
AcDbCircle
 10
22.322073175473054
 20
8.668906201455695
 30
0.0
 40
0.125
100
AcDbArc
 50
119.99999999999999
 51
300.0
  0
ARC
  5
2A9
330
17
100
AcDbEntity
  8
TOP
100
AcDbCircle
 10
31.127926824526945
 20
8.668906201455695
 30
0.0
 40
0.125
100
AcDbArc
 50
-119.99999999999999
 51
60.00000000000001
  0
ARC
  5
2AA
330
17
100
AcDbEntity
  8
TOP
100
AcDbCircle
 10
4.402926824526944
 20
11.793906201455695
 30
0.0
 40
0.125
100
AcDbArc
 50
-119.99999999999999
 51
60.00000000000001
  0
ARC
  5
2AB
330
17
100
AcDbEntity
  8
TOP
100
AcDbCircle
 10
6.287073175473055
 20
11.793906201455695
 30
0.0
 40
0.125
100
AcDbArc
 50
119.99999999999999
 51
300.0
  0
ARC
  5
2AC
330
17
100
AcDbEntity
  8
TOP
100
AcDbCircle
 10
15.092926824526947
 20
11.793906201455695
 30
0.0
 40
0.125
100
AcDbArc
 50
-119.99999999999999
 51
60.00000000000001
  0
ARC
  5
2AD
330
17
100
AcDbEntity
  8
TOP
100
AcDbCircle
 10
16.977073175473055
 20
11.793906201455695
 30
0.0
 40
0.125
100
AcDbArc
 50
119.99999999999999
 51
300.0
  0
ARC
  5
2AE
330
17
100
AcDbEntity
  8
TOP
100
AcDbCircle
 10
25.782926824526943
 20
11.793906201455695
 30
0.0
 40
0.125
100
AcDbArc
 50
-119.99999999999999
 51
60.00000000000001
  0
ARC
  5
2AF
330
17
100
AcDbEntity
  8
TOP
100
AcDbCircle
 10
27.667073175473053
 20
11.793906201455695
 30
0.0
 40
0.125
100
AcDbArc
 50
119.99999999999999
 51
300.0
  0
ARC
  5
2B0
330
17
100
AcDbEntity
  8
TOP
100
AcDbCircle
 10
0.9420731754730547
 20
14.918906201455693
 30
0.0
 40
0.125
100
AcDbArc
 50
119.99999999999999
 51
300.0
  0
ARC
  5
2B1
330
17
100
AcDbEntity
  8
TOP
100
AcDbCircle
 10
9.747926824526946
 20
14.918906201455693
 30
0.0
 40
0.125
100
AcDbArc
 50
-119.99999999999999
 51
60.00000000000001
  0
ARC
  5
2B2
330
17
100
AcDbEntity
  8
TOP
100
AcDbCircle
 10
11.632073175473053
 20
14.918906201455693
 30
0.0
 40
0.125
100
AcDbArc
 50
119.99999999999999
 51
300.0
  0
ARC
  5
2B3
330
17
100
AcDbEntity
  8
TOP
100
AcDbCircle
 10
20.437926824526944
 20
14.918906201455693
 30
0.0
 40
0.125
100
AcDbArc
 50
-119.99999999999999
 51
60.00000000000001
  0
ARC
  5
2B4
330
17
100
AcDbEntity
  8
TOP
100
AcDbCircle
 10
22.322073175473054
 20
14.918906201455693
 30
0.0
 40
0.125
100
AcDbArc
 50
119.99999999999999
 51
300.0
  0
ARC
  5
2B5
330
17
100
AcDbEntity
  8
TOP
100
AcDbCircle
 10
31.127926824526945
 20
14.918906201455693
 30
0.0
 40
0.125
100
AcDbArc
 50
-119.99999999999999
 51
60.00000000000001
  0
ARC
  5
2B6
330
17
100
AcDbEntity
  8
TOP
100
AcDbCircle
 10
4.402926824526944
 20
18.04390620145569
 30
0.0
 40
0.125
100
AcDbArc
 50
-119.99999999999999
 51
60.00000000000001
  0
ARC
  5
2B7
330
17
100
AcDbEntity
  8
TOP
100
AcDbCircle
 10
6.287073175473055
 20
18.04390620145569
 30
0.0
 40
0.125
100
AcDbArc
 50
119.99999999999999
 51
300.0
  0
ARC
  5
2B8
330
17
100
AcDbEntity
  8
TOP
100
AcDbCircle
 10
15.092926824526947
 20
18.04390620145569
 30
0.0
 40
0.125
100
AcDbArc
 50
-119.99999999999999
 51
60.00000000000001
  0
ARC
  5
2B9
330
17
100
AcDbEntity
  8
TOP
100
AcDbCircle
 10
16.977073175473055
 20
18.04390620145569
 30
0.0
 40
0.125
100
AcDbArc
 50
119.99999999999999
 51
300.0
  0
ARC
  5
2BA
330
17
100
AcDbEntity
  8
TOP
100
AcDbCircle
 10
25.782926824526943
 20
18.04390620145569
 30
0.0
 40
0.125
100
AcDbArc
 50
-119.99999999999999
 51
60.00000000000001
  0
ARC
  5
2BB
330
17
100
AcDbEntity
  8
TOP
100
AcDbCircle
 10
27.667073175473053
 20
18.04390620145569
 30
0.0
 40
0.125
100
AcDbArc
 50
119.99999999999999
 51
300.0
  0
ARC
  5
2BC
330
17
100
AcDbEntity
  8
TOP
100
AcDbCircle
 10
0.9420731754730547
 20
21.168906201455695
 30
0.0
 40
0.125
100
AcDbArc
 50
119.99999999999999
 51
300.0
  0
ARC
  5
2BD
330
17
100
AcDbEntity
  8
TOP
100
AcDbCircle
 10
9.747926824526946
 20
21.168906201455695
 30
0.0
 40
0.125
100
AcDbArc
 50
-119.99999999999999
 51
60.00000000000001
  0
ARC
  5
2BE
330
17
100
AcDbEntity
  8
TOP
100
AcDbCircle
 10
11.632073175473053
 20
21.168906201455695
 30
0.0
 40
0.125
100
AcDbArc
 50
119.99999999999999
 51
300.0
  0
ARC
  5
2BF
330
17
100
AcDbEntity
  8
TOP
100
AcDbCircle
 10
20.437926824526944
 20
21.168906201455695
 30
0.0
 40
0.125
100
AcDbArc
 50
-119.99999999999999
 51
60.00000000000001
  0
ARC
  5
2C0
330
17
100
AcDbEntity
  8
TOP
100
AcDbCircle
 10
22.322073175473054
 20
21.168906201455695
 30
0.0
 40
0.125
100
AcDbArc
 50
119.99999999999999
 51
300.0
  0
ARC
  5
2C1
330
17
100
AcDbEntity
  8
TOP
100
AcDbCircle
 10
31.127926824526945
 20
21.168906201455695
 30
0.0
 40
0.125
100
AcDbArc
 50
-119.99999999999999
 51
60.00000000000001
  0
ARC
  5
2C2
330
17
100
AcDbEntity
  8
TOP
100
AcDbCircle
 10
4.402926824526944
 20
24.293906201455695
 30
0.0
 40
0.125
100
AcDbArc
 50
-119.99999999999999
 51
60.00000000000001
  0
ARC
  5
2C3
330
17
100
AcDbEntity
  8
TOP
100
AcDbCircle
 10
6.287073175473055
 20
24.293906201455695
 30
0.0
 40
0.125
100
AcDbArc
 50
119.99999999999999
 51
300.0
  0
ARC
  5
2C4
330
17
100
AcDbEntity
  8
TOP
100
AcDbCircle
 10
15.092926824526947
 20
24.293906201455695
 30
0.0
 40
0.125
100
AcDbArc
 50
-119.99999999999999
 51
60.00000000000001
  0
ARC
  5
2C5
330
17
100
AcDbEntity
  8
TOP
100
AcDbCircle
 10
16.977073175473055
 20
24.293906201455695
 30
0.0
 40
0.125
100
AcDbArc
 50
119.99999999999999
 51
300.0
  0
ARC
  5
2C6
330
17
100
AcDbEntity
  8
TOP
100
AcDbCircle
 10
25.782926824526943
 20
24.293906201455695
 30
0.0
 40
0.125
100
AcDbArc
 50
-119.99999999999999
 51
60.00000000000001
  0
ARC
  5
2C7
330
17
100
AcDbEntity
  8
TOP
100
AcDbCircle
 10
27.667073175473053
 20
24.293906201455695
 30
0.0
 40
0.125
100
AcDbArc
 50
119.99999999999999
 51
300.0
  0
ARC
  5
2C8
330
17
100
AcDbEntity
  8
TOP
100
AcDbCircle
 10
0.9420731754730547
 20
27.418906201455695
 30
0.0
 40
0.125
100
AcDbArc
 50
119.99999999999999
 51
300.0
  0
ARC
  5
2C9
330
17
100
AcDbEntity
  8
TOP
100
AcDbCircle
 10
9.747926824526946
 20
27.418906201455695
 30
0.0
 40
0.125
100
AcDbArc
 50
-119.99999999999999
 51
60.00000000000001
  0
ARC
  5
2CA
330
17
100
AcDbEntity
  8
TOP
100
AcDbCircle
 10
11.632073175473053
 20
27.418906201455695
 30
0.0
 40
0.125
100
AcDbArc
 50
119.99999999999999
 51
300.0
  0
ARC
  5
2CB
330
17
100
AcDbEntity
  8
TOP
100
AcDbCircle
 10
20.437926824526944
 20
27.418906201455695
 30
0.0
 40
0.125
100
AcDbArc
 50
-119.99999999999999
 51
60.00000000000001
  0
ARC
  5
2CC
330
17
100
AcDbEntity
  8
TOP
100
AcDbCircle
 10
22.322073175473054
 20
27.418906201455695
 30
0.0
 40
0.125
100
AcDbArc
 50
119.99999999999999
 51
300.0
  0
ARC
  5
2CD
330
17
100
AcDbEntity
  8
TOP
100
AcDbCircle
 10
31.127926824526945
 20
27.418906201455695
 30
0.0
 40
0.125
100
AcDbArc
 50
-119.99999999999999
 51
60.00000000000001
  0
ARC
  5
2CE
330
17
100
AcDbEntity
  8
TOP
100
AcDbCircle
 10
4.402926824526944
 20
30.543906201455695
 30
0.0
 40
0.125
100
AcDbArc
 50
-119.99999999999999
 51
60.00000000000001
  0
ARC
  5
2CF
330
17
100
AcDbEntity
  8
TOP
100
AcDbCircle
 10
6.287073175473055
 20
30.543906201455695
 30
0.0
 40
0.125
100
AcDbArc
 50
119.99999999999999
 51
300.0
  0
ARC
  5
2D0
330
17
100
AcDbEntity
  8
TOP
100
AcDbCircle
 10
15.092926824526947
 20
30.543906201455695
 30
0.0
 40
0.125
100
AcDbArc
 50
-119.99999999999999
 51
60.00000000000001
  0
ARC
  5
2D1
330
17
100
AcDbEntity
  8
TOP
100
AcDbCircle
 10
16.977073175473055
 20
30.543906201455695
 30
0.0
 40
0.125
100
AcDbArc
 50
119.99999999999999
 51
300.0
  0
ARC
  5
2D2
330
17
100
AcDbEntity
  8
TOP
100
AcDbCircle
 10
25.782926824526943
 20
30.543906201455695
 30
0.0
 40
0.125
100
AcDbArc
 50
-119.99999999999999
 51
60.00000000000001
  0
ARC
  5
2D3
330
17
100
AcDbEntity
  8
TOP
100
AcDbCircle
 10
27.667073175473053
 20
30.543906201455695
 30
0.0
 40
0.125
100
AcDbArc
 50
119.99999999999999
 51
300.0
  0
ARC
  5
2D4
330
17
100
AcDbEntity
  8
TOP
100
AcDbCircle
 10
0.9420731754730547
 20
33.6689062014557
 30
0.0
 40
0.125
100
AcDbArc
 50
119.99999999999999
 51
300.0
  0
ARC
  5
2D5
330
17
100
AcDbEntity
  8
TOP
100
AcDbCircle
 10
9.747926824526946
 20
33.6689062014557
 30
0.0
 40
0.125
100
AcDbArc
 50
-119.99999999999999
 51
60.00000000000001
  0
ARC
  5
2D6
330
17
100
AcDbEntity
  8
TOP
100
AcDbCircle
 10
11.632073175473053
 20
33.6689062014557
 30
0.0
 40
0.125
100
AcDbArc
 50
119.99999999999999
 51
300.0
  0
ARC
  5
2D7
330
17
100
AcDbEntity
  8
TOP
100
AcDbCircle
 10
20.437926824526944
 20
33.6689062014557
 30
0.0
 40
0.125
100
AcDbArc
 50
-119.99999999999999
 51
60.00000000000001
  0
ARC
  5
2D8
330
17
100
AcDbEntity
  8
TOP
100
AcDbCircle
 10
22.322073175473054
 20
33.6689062014557
 30
0.0
 40
0.125
100
AcDbArc
 50
119.99999999999999
 51
300.0
  0
ARC
  5
2D9
330
17
100
AcDbEntity
  8
TOP
100
AcDbCircle
 10
31.127926824526945
 20
33.6689062014557
 30
0.0
 40
0.125
100
AcDbArc
 50
-119.99999999999999
 51
60.00000000000001
  0
ARC
  5
2DA
330
17
100
AcDbEntity
  8
TOP
100
AcDbCircle
 10
4.402926824526944
 20
36.7939062014557
 30
0.0
 40
0.125
100
AcDbArc
 50
-119.99999999999999
 51
60.00000000000001
  0
ARC
  5
2DB
330
17
100
AcDbEntity
  8
TOP
100
AcDbCircle
 10
6.287073175473055
 20
36.7939062014557
 30
0.0
 40
0.125
100
AcDbArc
 50
119.99999999999999
 51
300.0
  0
ARC
  5
2DC
330
17
100
AcDbEntity
  8
TOP
100
AcDbCircle
 10
15.092926824526947
 20
36.7939062014557
 30
0.0
 40
0.125
100
AcDbArc
 50
-119.99999999999999
 51
60.00000000000001
  0
ARC
  5
2DD
330
17
100
AcDbEntity
  8
TOP
100
AcDbCircle
 10
16.977073175473055
 20
36.7939062014557
 30
0.0
 40
0.125
100
AcDbArc
 50
119.99999999999999
 51
300.0
  0
ARC
  5
2DE
330
17
100
AcDbEntity
  8
TOP
100
AcDbCircle
 10
25.782926824526943
 20
36.7939062014557
 30
0.0
 40
0.125
100
AcDbArc
 50
-119.99999999999999
 51
60.00000000000001
  0
ARC
  5
2DF
330
17
100
AcDbEntity
  8
TOP
100
AcDbCircle
 10
27.667073175473053
 20
36.7939062014557
 30
0.0
 40
0.125
100
AcDbArc
 50
119.99999999999999
 51
300.0
  0
ARC
  5
2E0
330
17
100
AcDbEntity
  8
TOP
100
AcDbCircle
 10
0.9420731754730547
 20
39.91890620145569
 30
0.0
 40
0.125
100
AcDbArc
 50
119.99999999999999
 51
300.0
  0
ARC
  5
2E1
330
17
100
AcDbEntity
  8
TOP
100
AcDbCircle
 10
9.747926824526946
 20
39.91890620145569
 30
0.0
 40
0.125
100
AcDbArc
 50
-119.99999999999999
 51
60.00000000000001
  0
ARC
  5
2E2
330
17
100
AcDbEntity
  8
TOP
100
AcDbCircle
 10
11.632073175473053
 20
39.91890620145569
 30
0.0
 40
0.125
100
AcDbArc
 50
119.99999999999999
 51
300.0
  0
ARC
  5
2E3
330
17
100
AcDbEntity
  8
TOP
100
AcDbCircle
 10
20.437926824526944
 20
39.91890620145569
 30
0.0
 40
0.125
100
AcDbArc
 50
-119.99999999999999
 51
60.00000000000001
  0
ARC
  5
2E4
330
17
100
AcDbEntity
  8
TOP
100
AcDbCircle
 10
22.322073175473054
 20
39.91890620145569
 30
0.0
 40
0.125
100
AcDbArc
 50
119.99999999999999
 51
300.0
  0
ARC
  5
2E5
330
17
100
AcDbEntity
  8
TOP
100
AcDbCircle
 10
31.127926824526945
 20
39.91890620145569
 30
0.0
 40
0.125
100
AcDbArc
 50
-119.99999999999999
 51
60.00000000000001
  0
ARC
  5
2E6
330
17
100
AcDbEntity
  8
TOP
100
AcDbCircle
 10
4.402926824526944
 20
43.04390620145569
 30
0.0
 40
0.125
100
AcDbArc
 50
-119.99999999999999
 51
60.00000000000001
  0
ARC
  5
2E7
330
17
100
AcDbEntity
  8
TOP
100
AcDbCircle
 10
6.287073175473055
 20
43.04390620145569
 30
0.0
 40
0.125
100
AcDbArc
 50
119.99999999999999
 51
300.0
  0
ARC
  5
2E8
330
17
100
AcDbEntity
  8
TOP
100
AcDbCircle
 10
15.092926824526947
 20
43.04390620145569
 30
0.0
 40
0.125
100
AcDbArc
 50
-119.99999999999999
 51
60.00000000000001
  0
ARC
  5
2E9
330
17
100
AcDbEntity
  8
TOP
100
AcDbCircle
 10
16.977073175473055
 20
43.04390620145569
 30
0.0
 40
0.125
100
AcDbArc
 50
119.99999999999999
 51
300.0
  0
ARC
  5
2EA
330
17
100
AcDbEntity
  8
TOP
100
AcDbCircle
 10
25.782926824526943
 20
43.04390620145569
 30
0.0
 40
0.125
100
AcDbArc
 50
-119.99999999999999
 51
60.00000000000001
  0
ARC
  5
2EB
330
17
100
AcDbEntity
  8
TOP
100
AcDbCircle
 10
27.667073175473053
 20
43.04390620145569
 30
0.0
 40
0.125
100
AcDbArc
 50
119.99999999999999
 51
300.0
  0
ARC
  5
2EC
330
17
100
AcDbEntity
  8
TOP
100
AcDbCircle
 10
0.9420731754730547
 20
46.16890620145569
 30
0.0
 40
0.125
100
AcDbArc
 50
119.99999999999999
 51
300.0
  0
ARC
  5
2ED
330
17
100
AcDbEntity
  8
TOP
100
AcDbCircle
 10
9.747926824526946
 20
46.16890620145569
 30
0.0
 40
0.125
100
AcDbArc
 50
-119.99999999999999
 51
60.00000000000001
  0
ARC
  5
2EE
330
17
100
AcDbEntity
  8
TOP
100
AcDbCircle
 10
11.632073175473053
 20
46.16890620145569
 30
0.0
 40
0.125
100
AcDbArc
 50
119.99999999999999
 51
300.0
  0
ARC
  5
2EF
330
17
100
AcDbEntity
  8
TOP
100
AcDbCircle
 10
20.437926824526944
 20
46.16890620145569
 30
0.0
 40
0.125
100
AcDbArc
 50
-119.99999999999999
 51
60.00000000000001
  0
ARC
  5
2F0
330
17
100
AcDbEntity
  8
TOP
100
AcDbCircle
 10
22.322073175473054
 20
46.16890620145569
 30
0.0
 40
0.125
100
AcDbArc
 50
119.99999999999999
 51
300.0
  0
ARC
  5
2F1
330
17
100
AcDbEntity
  8
TOP
100
AcDbCircle
 10
31.127926824526945
 20
46.16890620145569
 30
0.0
 40
0.125
100
AcDbArc
 50
-119.99999999999999
 51
60.00000000000001
  0
ARC
  5
2F2
330
17
100
AcDbEntity
  8
TOP
100
AcDbCircle
 10
4.402926824526944
 20
49.29390620145569
 30
0.0
 40
0.125
100
AcDbArc
 50
-119.99999999999999
 51
60.00000000000001
  0
ARC
  5
2F3
330
17
100
AcDbEntity
  8
TOP
100
AcDbCircle
 10
6.287073175473055
 20
49.29390620145569
 30
0.0
 40
0.125
100
AcDbArc
 50
119.99999999999999
 51
300.0
  0
ARC
  5
2F4
330
17
100
AcDbEntity
  8
TOP
100
AcDbCircle
 10
15.092926824526947
 20
49.29390620145569
 30
0.0
 40
0.125
100
AcDbArc
 50
-119.99999999999999
 51
60.00000000000001
  0
ARC
  5
2F5
330
17
100
AcDbEntity
  8
TOP
100
AcDbCircle
 10
16.977073175473055
 20
49.29390620145569
 30
0.0
 40
0.125
100
AcDbArc
 50
119.99999999999999
 51
300.0
  0
ARC
  5
2F6
330
17
100
AcDbEntity
  8
TOP
100
AcDbCircle
 10
25.782926824526943
 20
49.29390620145569
 30
0.0
 40
0.125
100
AcDbArc
 50
-119.99999999999999
 51
60.00000000000001
  0
ARC
  5
2F7
330
17
100
AcDbEntity
  8
TOP
100
AcDbCircle
 10
27.667073175473053
 20
49.29390620145569
 30
0.0
 40
0.125
100
AcDbArc
 50
119.99999999999999
 51
300.0
  0
ARC
  5
2F8
330
17
100
AcDbEntity
  8
TOP
100
AcDbCircle
 10
0.9420731754730547
 20
52.41890620145569
 30
0.0
 40
0.125
100
AcDbArc
 50
119.99999999999999
 51
300.0
  0
ARC
  5
2F9
330
17
100
AcDbEntity
  8
TOP
100
AcDbCircle
 10
9.747926824526946
 20
52.41890620145569
 30
0.0
 40
0.125
100
AcDbArc
 50
-119.99999999999999
 51
60.00000000000001
  0
ARC
  5
2FA
330
17
100
AcDbEntity
  8
TOP
100
AcDbCircle
 10
11.632073175473053
 20
52.41890620145569
 30
0.0
 40
0.125
100
AcDbArc
 50
119.99999999999999
 51
300.0
  0
ARC
  5
2FB
330
17
100
AcDbEntity
  8
TOP
100
AcDbCircle
 10
20.437926824526944
 20
52.41890620145569
 30
0.0
 40
0.125
100
AcDbArc
 50
-119.99999999999999
 51
60.00000000000001
  0
ARC
  5
2FC
330
17
100
AcDbEntity
  8
TOP
100
AcDbCircle
 10
22.322073175473054
 20
52.41890620145569
 30
0.0
 40
0.125
100
AcDbArc
 50
119.99999999999999
 51
300.0
  0
ARC
  5
2FD
330
17
100
AcDbEntity
  8
TOP
100
AcDbCircle
 10
31.127926824526945
 20
52.41890620145569
 30
0.0
 40
0.125
100
AcDbArc
 50
-119.99999999999999
 51
60.00000000000001
  0
ARC
  5
2FE
330
17
100
AcDbEntity
  8
TOP
100
AcDbCircle
 10
4.402926824526944
 20
55.54390620145569
 30
0.0
 40
0.125
100
AcDbArc
 50
-119.99999999999999
 51
60.00000000000001
  0
ARC
  5
2FF
330
17
100
AcDbEntity
  8
TOP
100
AcDbCircle
 10
6.287073175473055
 20
55.54390620145569
 30
0.0
 40
0.125
100
AcDbArc
 50
119.99999999999999
 51
300.0
  0
ARC
  5
300
330
17
100
AcDbEntity
  8
TOP
100
AcDbCircle
 10
15.092926824526947
 20
55.54390620145569
 30
0.0
 40
0.125
100
AcDbArc
 50
-119.99999999999999
 51
60.00000000000001
  0
ARC
  5
301
330
17
100
AcDbEntity
  8
TOP
100
AcDbCircle
 10
16.977073175473055
 20
55.54390620145569
 30
0.0
 40
0.125
100
AcDbArc
 50
119.99999999999999
 51
300.0
  0
ARC
  5
302
330
17
100
AcDbEntity
  8
TOP
100
AcDbCircle
 10
25.782926824526943
 20
55.54390620145569
 30
0.0
 40
0.125
100
AcDbArc
 50
-119.99999999999999
 51
60.00000000000001
  0
ARC
  5
303
330
17
100
AcDbEntity
  8
TOP
100
AcDbCircle
 10
27.667073175473053
 20
55.54390620145569
 30
0.0
 40
0.125
100
AcDbArc
 50
119.99999999999999
 51
300.0
  0
ARC
  5
304
330
17
100
AcDbEntity
  8
TOP
100
AcDbCircle
 10
0.9420731754730547
 20
58.66890620145569
 30
0.0
 40
0.125
100
AcDbArc
 50
119.99999999999999
 51
300.0
  0
ARC
  5
305
330
17
100
AcDbEntity
  8
TOP
100
AcDbCircle
 10
9.747926824526946
 20
58.66890620145569
 30
0.0
 40
0.125
100
AcDbArc
 50
-119.99999999999999
 51
60.00000000000001
  0
ARC
  5
306
330
17
100
AcDbEntity
  8
TOP
100
AcDbCircle
 10
11.632073175473053
 20
58.66890620145569
 30
0.0
 40
0.125
100
AcDbArc
 50
119.99999999999999
 51
300.0
  0
ARC
  5
307
330
17
100
AcDbEntity
  8
TOP
100
AcDbCircle
 10
20.437926824526944
 20
58.66890620145569
 30
0.0
 40
0.125
100
AcDbArc
 50
-119.99999999999999
 51
60.00000000000001
  0
ARC
  5
308
330
17
100
AcDbEntity
  8
TOP
100
AcDbCircle
 10
22.322073175473054
 20
58.66890620145569
 30
0.0
 40
0.125
100
AcDbArc
 50
119.99999999999999
 51
300.0
  0
ARC
  5
309
330
17
100
AcDbEntity
  8
TOP
100
AcDbCircle
 10
31.127926824526945
 20
58.66890620145569
 30
0.0
 40
0.125
100
AcDbArc
 50
-119.99999999999999
 51
60.00000000000001
  0
ARC
  5
30A
330
17
100
AcDbEntity
  8
TOP
100
AcDbCircle
 10
4.402926824526944
 20
61.79390620145569
 30
0.0
 40
0.125
100
AcDbArc
 50
-119.99999999999999
 51
60.00000000000001
  0
ARC
  5
30B
330
17
100
AcDbEntity
  8
TOP
100
AcDbCircle
 10
6.287073175473055
 20
61.79390620145569
 30
0.0
 40
0.125
100
AcDbArc
 50
119.99999999999999
 51
300.0
  0
ARC
  5
30C
330
17
100
AcDbEntity
  8
TOP
100
AcDbCircle
 10
15.092926824526947
 20
61.79390620145569
 30
0.0
 40
0.125
100
AcDbArc
 50
-119.99999999999999
 51
60.00000000000001
  0
ARC
  5
30D
330
17
100
AcDbEntity
  8
TOP
100
AcDbCircle
 10
16.977073175473055
 20
61.79390620145569
 30
0.0
 40
0.125
100
AcDbArc
 50
119.99999999999999
 51
300.0
  0
ARC
  5
30E
330
17
100
AcDbEntity
  8
TOP
100
AcDbCircle
 10
25.782926824526943
 20
61.79390620145569
 30
0.0
 40
0.125
100
AcDbArc
 50
-119.99999999999999
 51
60.00000000000001
  0
ARC
  5
30F
330
17
100
AcDbEntity
  8
TOP
100
AcDbCircle
 10
27.667073175473053
 20
61.79390620145569
 30
0.0
 40
0.125
100
AcDbArc
 50
119.99999999999999
 51
300.0
  0
ARC
  5
310
330
17
100
AcDbEntity
  8
TOP
100
AcDbCircle
 10
0.9420731754730547
 20
64.91890620145568
 30
0.0
 40
0.125
100
AcDbArc
 50
119.99999999999999
 51
300.0
  0
ARC
  5
311
330
17
100
AcDbEntity
  8
TOP
100
AcDbCircle
 10
9.747926824526946
 20
64.91890620145568
 30
0.0
 40
0.125
100
AcDbArc
 50
-119.99999999999999
 51
60.00000000000001
  0
ARC
  5
312
330
17
100
AcDbEntity
  8
TOP
100
AcDbCircle
 10
11.632073175473053
 20
64.91890620145568
 30
0.0
 40
0.125
100
AcDbArc
 50
119.99999999999999
 51
300.0
  0
ARC
  5
313
330
17
100
AcDbEntity
  8
TOP
100
AcDbCircle
 10
20.437926824526944
 20
64.91890620145568
 30
0.0
 40
0.125
100
AcDbArc
 50
-119.99999999999999
 51
60.00000000000001
  0
ARC
  5
314
330
17
100
AcDbEntity
  8
TOP
100
AcDbCircle
 10
22.322073175473054
 20
64.91890620145568
 30
0.0
 40
0.125
100
AcDbArc
 50
119.99999999999999
 51
300.0
  0
ARC
  5
315
330
17
100
AcDbEntity
  8
TOP
100
AcDbCircle
 10
31.127926824526945
 20
64.91890620145568
 30
0.0
 40
0.125
100
AcDbArc
 50
-119.99999999999999
 51
60.00000000000001
  0
ARC
  5
316
330
17
100
AcDbEntity
  8
TOP
100
AcDbCircle
 10
4.402926824526944
 20
68.04390620145568
 30
0.0
 40
0.125
100
AcDbArc
 50
-119.99999999999999
 51
60.00000000000001
  0
ARC
  5
317
330
17
100
AcDbEntity
  8
TOP
100
AcDbCircle
 10
6.287073175473055
 20
68.04390620145568
 30
0.0
 40
0.125
100
AcDbArc
 50
119.99999999999999
 51
300.0
  0
ARC
  5
318
330
17
100
AcDbEntity
  8
TOP
100
AcDbCircle
 10
15.092926824526947
 20
68.04390620145568
 30
0.0
 40
0.125
100
AcDbArc
 50
-119.99999999999999
 51
60.00000000000001
  0
ARC
  5
319
330
17
100
AcDbEntity
  8
TOP
100
AcDbCircle
 10
16.977073175473055
 20
68.04390620145568
 30
0.0
 40
0.125
100
AcDbArc
 50
119.99999999999999
 51
300.0
  0
ARC
  5
31A
330
17
100
AcDbEntity
  8
TOP
100
AcDbCircle
 10
25.782926824526943
 20
68.04390620145568
 30
0.0
 40
0.125
100
AcDbArc
 50
-119.99999999999999
 51
60.00000000000001
  0
ARC
  5
31B
330
17
100
AcDbEntity
  8
TOP
100
AcDbCircle
 10
27.667073175473053
 20
68.04390620145568
 30
0.0
 40
0.125
100
AcDbArc
 50
119.99999999999999
 51
300.0
  0
ARC
  5
31C
330
17
100
AcDbEntity
  8
TOP
100
AcDbCircle
 10
0.9420731754730547
 20
71.1689062014557
 30
0.0
 40
0.125
100
AcDbArc
 50
119.99999999999999
 51
300.0
  0
ARC
  5
31D
330
17
100
AcDbEntity
  8
TOP
100
AcDbCircle
 10
9.747926824526946
 20
71.1689062014557
 30
0.0
 40
0.125
100
AcDbArc
 50
-119.99999999999999
 51
60.00000000000001
  0
ARC
  5
31E
330
17
100
AcDbEntity
  8
TOP
100
AcDbCircle
 10
11.632073175473053
 20
71.1689062014557
 30
0.0
 40
0.125
100
AcDbArc
 50
119.99999999999999
 51
300.0
  0
ARC
  5
31F
330
17
100
AcDbEntity
  8
TOP
100
AcDbCircle
 10
20.437926824526944
 20
71.1689062014557
 30
0.0
 40
0.125
100
AcDbArc
 50
-119.99999999999999
 51
60.00000000000001
  0
ARC
  5
320
330
17
100
AcDbEntity
  8
TOP
100
AcDbCircle
 10
22.322073175473054
 20
71.1689062014557
 30
0.0
 40
0.125
100
AcDbArc
 50
119.99999999999999
 51
300.0
  0
ARC
  5
321
330
17
100
AcDbEntity
  8
TOP
100
AcDbCircle
 10
31.127926824526945
 20
71.1689062014557
 30
0.0
 40
0.125
100
AcDbArc
 50
-119.99999999999999
 51
60.00000000000001
  0
ARC
  5
322
330
17
100
AcDbEntity
  8
TOP
100
AcDbCircle
 10
4.402926824526944
 20
74.2939062014557
 30
0.0
 40
0.125
100
AcDbArc
 50
-119.99999999999999
 51
60.00000000000001
  0
ARC
  5
323
330
17
100
AcDbEntity
  8
TOP
100
AcDbCircle
 10
6.287073175473055
 20
74.2939062014557
 30
0.0
 40
0.125
100
AcDbArc
 50
119.99999999999999
 51
300.0
  0
ARC
  5
324
330
17
100
AcDbEntity
  8
TOP
100
AcDbCircle
 10
15.092926824526947
 20
74.2939062014557
 30
0.0
 40
0.125
100
AcDbArc
 50
-119.99999999999999
 51
60.00000000000001
  0
ARC
  5
325
330
17
100
AcDbEntity
  8
TOP
100
AcDbCircle
 10
16.977073175473055
 20
74.2939062014557
 30
0.0
 40
0.125
100
AcDbArc
 50
119.99999999999999
 51
300.0
  0
ARC
  5
326
330
17
100
AcDbEntity
  8
TOP
100
AcDbCircle
 10
25.782926824526943
 20
74.2939062014557
 30
0.0
 40
0.125
100
AcDbArc
 50
-119.99999999999999
 51
60.00000000000001
  0
ARC
  5
327
330
17
100
AcDbEntity
  8
TOP
100
AcDbCircle
 10
27.667073175473053
 20
74.2939062014557
 30
0.0
 40
0.125
100
AcDbArc
 50
119.99999999999999
 51
300.0
  0
ARC
  5
328
330
17
100
AcDbEntity
  8
TOP
100
AcDbCircle
 10
0.9420731754730547
 20
77.4189062014557
 30
0.0
 40
0.125
100
AcDbArc
 50
119.99999999999999
 51
300.0
  0
ARC
  5
329
330
17
100
AcDbEntity
  8
TOP
100
AcDbCircle
 10
9.747926824526946
 20
77.4189062014557
 30
0.0
 40
0.125
100
AcDbArc
 50
-119.99999999999999
 51
60.00000000000001
  0
ARC
  5
32A
330
17
100
AcDbEntity
  8
TOP
100
AcDbCircle
 10
11.632073175473053
 20
77.4189062014557
 30
0.0
 40
0.125
100
AcDbArc
 50
119.99999999999999
 51
300.0
  0
ARC
  5
32B
330
17
100
AcDbEntity
  8
TOP
100
AcDbCircle
 10
20.437926824526944
 20
77.4189062014557
 30
0.0
 40
0.125
100
AcDbArc
 50
-119.99999999999999
 51
60.00000000000001
  0
ARC
  5
32C
330
17
100
AcDbEntity
  8
TOP
100
AcDbCircle
 10
22.322073175473054
 20
77.4189062014557
 30
0.0
 40
0.125
100
AcDbArc
 50
119.99999999999999
 51
300.0
  0
ARC
  5
32D
330
17
100
AcDbEntity
  8
TOP
100
AcDbCircle
 10
31.127926824526945
 20
77.4189062014557
 30
0.0
 40
0.125
100
AcDbArc
 50
-119.99999999999999
 51
60.00000000000001
  0
ARC
  5
32E
330
17
100
AcDbEntity
  8
TOP
100
AcDbCircle
 10
4.402926824526944
 20
80.5439062014557
 30
0.0
 40
0.125
100
AcDbArc
 50
-119.99999999999999
 51
60.00000000000001
  0
ARC
  5
32F
330
17
100
AcDbEntity
  8
TOP
100
AcDbCircle
 10
6.287073175473055
 20
80.5439062014557
 30
0.0
 40
0.125
100
AcDbArc
 50
119.99999999999999
 51
300.0
  0
ARC
  5
330
330
17
100
AcDbEntity
  8
TOP
100
AcDbCircle
 10
15.092926824526947
 20
80.5439062014557
 30
0.0
 40
0.125
100
AcDbArc
 50
-119.99999999999999
 51
60.00000000000001
  0
ARC
  5
331
330
17
100
AcDbEntity
  8
TOP
100
AcDbCircle
 10
16.977073175473055
 20
80.5439062014557
 30
0.0
 40
0.125
100
AcDbArc
 50
119.99999999999999
 51
300.0
  0
ARC
  5
332
330
17
100
AcDbEntity
  8
TOP
100
AcDbCircle
 10
25.782926824526943
 20
80.5439062014557
 30
0.0
 40
0.125
100
AcDbArc
 50
-119.99999999999999
 51
60.00000000000001
  0
ARC
  5
333
330
17
100
AcDbEntity
  8
TOP
100
AcDbCircle
 10
27.667073175473053
 20
80.5439062014557
 30
0.0
 40
0.125
100
AcDbArc
 50
119.99999999999999
 51
300.0
  0
ARC
  5
334
330
17
100
AcDbEntity
  8
TOP
100
AcDbCircle
 10
0.9420731754730547
 20
83.6689062014557
 30
0.0
 40
0.125
100
AcDbArc
 50
119.99999999999999
 51
300.0
  0
ARC
  5
335
330
17
100
AcDbEntity
  8
TOP
100
AcDbCircle
 10
9.747926824526946
 20
83.6689062014557
 30
0.0
 40
0.125
100
AcDbArc
 50
-119.99999999999999
 51
60.00000000000001
  0
ARC
  5
336
330
17
100
AcDbEntity
  8
TOP
100
AcDbCircle
 10
11.632073175473053
 20
83.6689062014557
 30
0.0
 40
0.125
100
AcDbArc
 50
119.99999999999999
 51
300.0
  0
ARC
  5
337
330
17
100
AcDbEntity
  8
TOP
100
AcDbCircle
 10
20.437926824526944
 20
83.6689062014557
 30
0.0
 40
0.125
100
AcDbArc
 50
-119.99999999999999
 51
60.00000000000001
  0
ARC
  5
338
330
17
100
AcDbEntity
  8
TOP
100
AcDbCircle
 10
22.322073175473054
 20
83.6689062014557
 30
0.0
 40
0.125
100
AcDbArc
 50
119.99999999999999
 51
300.0
  0
ARC
  5
339
330
17
100
AcDbEntity
  8
TOP
100
AcDbCircle
 10
31.127926824526945
 20
83.6689062014557
 30
0.0
 40
0.125
100
AcDbArc
 50
-119.99999999999999
 51
60.00000000000001
  0
ARC
  5
33A
330
17
100
AcDbEntity
  8
TOP
100
AcDbCircle
 10
4.402926824526944
 20
86.7939062014557
 30
0.0
 40
0.125
100
AcDbArc
 50
-119.99999999999999
 51
60.00000000000001
  0
ARC
  5
33B
330
17
100
AcDbEntity
  8
TOP
100
AcDbCircle
 10
6.287073175473055
 20
86.7939062014557
 30
0.0
 40
0.125
100
AcDbArc
 50
119.99999999999999
 51
300.0
  0
ARC
  5
33C
330
17
100
AcDbEntity
  8
TOP
100
AcDbCircle
 10
15.092926824526947
 20
86.7939062014557
 30
0.0
 40
0.125
100
AcDbArc
 50
-119.99999999999999
 51
60.00000000000001
  0
ARC
  5
33D
330
17
100
AcDbEntity
  8
TOP
100
AcDbCircle
 10
16.977073175473055
 20
86.7939062014557
 30
0.0
 40
0.125
100
AcDbArc
 50
119.99999999999999
 51
300.0
  0
ARC
  5
33E
330
17
100
AcDbEntity
  8
TOP
100
AcDbCircle
 10
25.782926824526943
 20
86.7939062014557
 30
0.0
 40
0.125
100
AcDbArc
 50
-119.99999999999999
 51
60.00000000000001
  0
ARC
  5
33F
330
17
100
AcDbEntity
  8
TOP
100
AcDbCircle
 10
27.667073175473053
 20
86.7939062014557
 30
0.0
 40
0.125
100
AcDbArc
 50
119.99999999999999
 51
300.0
  0
ARC
  5
340
330
17
100
AcDbEntity
  8
TOP
100
AcDbCircle
 10
0.9420731754730547
 20
89.9189062014557
 30
0.0
 40
0.125
100
AcDbArc
 50
119.99999999999999
 51
300.0
  0
ARC
  5
341
330
17
100
AcDbEntity
  8
TOP
100
AcDbCircle
 10
9.747926824526946
 20
89.9189062014557
 30
0.0
 40
0.125
100
AcDbArc
 50
-119.99999999999999
 51
60.00000000000001
  0
ARC
  5
342
330
17
100
AcDbEntity
  8
TOP
100
AcDbCircle
 10
11.632073175473053
 20
89.9189062014557
 30
0.0
 40
0.125
100
AcDbArc
 50
119.99999999999999
 51
300.0
  0
ARC
  5
343
330
17
100
AcDbEntity
  8
TOP
100
AcDbCircle
 10
20.437926824526944
 20
89.9189062014557
 30
0.0
 40
0.125
100
AcDbArc
 50
-119.99999999999999
 51
60.00000000000001
  0
ARC
  5
344
330
17
100
AcDbEntity
  8
TOP
100
AcDbCircle
 10
22.322073175473054
 20
89.9189062014557
 30
0.0
 40
0.125
100
AcDbArc
 50
119.99999999999999
 51
300.0
  0
ARC
  5
345
330
17
100
AcDbEntity
  8
TOP
100
AcDbCircle
 10
31.127926824526945
 20
89.9189062014557
 30
0.0
 40
0.125
100
AcDbArc
 50
-119.99999999999999
 51
60.00000000000001
  0
ARC
  5
346
330
17
100
AcDbEntity
  8
TOP
100
AcDbCircle
 10
4.402926824526944
 20
93.0439062014557
 30
0.0
 40
0.125
100
AcDbArc
 50
-119.99999999999999
 51
60.00000000000001
  0
ARC
  5
347
330
17
100
AcDbEntity
  8
TOP
100
AcDbCircle
 10
6.287073175473055
 20
93.0439062014557
 30
0.0
 40
0.125
100
AcDbArc
 50
119.99999999999999
 51
300.0
  0
ARC
  5
348
330
17
100
AcDbEntity
  8
TOP
100
AcDbCircle
 10
15.092926824526947
 20
93.0439062014557
 30
0.0
 40
0.125
100
AcDbArc
 50
-119.99999999999999
 51
60.00000000000001
  0
ARC
  5
349
330
17
100
AcDbEntity
  8
TOP
100
AcDbCircle
 10
16.977073175473055
 20
93.0439062014557
 30
0.0
 40
0.125
100
AcDbArc
 50
119.99999999999999
 51
300.0
  0
ARC
  5
34A
330
17
100
AcDbEntity
  8
TOP
100
AcDbCircle
 10
25.782926824526943
 20
93.0439062014557
 30
0.0
 40
0.125
100
AcDbArc
 50
-119.99999999999999
 51
60.00000000000001
  0
ARC
  5
34B
330
17
100
AcDbEntity
  8
TOP
100
AcDbCircle
 10
27.667073175473053
 20
93.0439062014557
 30
0.0
 40
0.125
100
AcDbArc
 50
119.99999999999999
 51
300.0
  0
ARC
  5
34C
330
17
100
AcDbEntity
  8
TOP
100
AcDbCircle
 10
0.9420731754730547
 20
96.1689062014557
 30
0.0
 40
0.125
100
AcDbArc
 50
119.99999999999999
 51
300.0
  0
ARC
  5
34D
330
17
100
AcDbEntity
  8
TOP
100
AcDbCircle
 10
9.747926824526946
 20
96.1689062014557
 30
0.0
 40
0.125
100
AcDbArc
 50
-119.99999999999999
 51
60.00000000000001
  0
ARC
  5
34E
330
17
100
AcDbEntity
  8
TOP
100
AcDbCircle
 10
11.632073175473053
 20
96.1689062014557
 30
0.0
 40
0.125
100
AcDbArc
 50
119.99999999999999
 51
300.0
  0
ARC
  5
34F
330
17
100
AcDbEntity
  8
TOP
100
AcDbCircle
 10
20.437926824526944
 20
96.1689062014557
 30
0.0
 40
0.125
100
AcDbArc
 50
-119.99999999999999
 51
60.00000000000001
  0
ARC
  5
350
330
17
100
AcDbEntity
  8
TOP
100
AcDbCircle
 10
22.322073175473054
 20
96.1689062014557
 30
0.0
 40
0.125
100
AcDbArc
 50
119.99999999999999
 51
300.0
  0
ARC
  5
351
330
17
100
AcDbEntity
  8
TOP
100
AcDbCircle
 10
31.127926824526945
 20
96.1689062014557
 30
0.0
 40
0.125
100
AcDbArc
 50
-119.99999999999999
 51
60.00000000000001
  0
ARC
  5
352
330
17
100
AcDbEntity
  8
TOP
100
AcDbCircle
 10
4.402926824526944
 20
99.2939062014557
 30
0.0
 40
0.125
100
AcDbArc
 50
-119.99999999999999
 51
60.00000000000001
  0
ARC
  5
353
330
17
100
AcDbEntity
  8
TOP
100
AcDbCircle
 10
6.287073175473055
 20
99.2939062014557
 30
0.0
 40
0.125
100
AcDbArc
 50
119.99999999999999
 51
300.0
  0
ARC
  5
354
330
17
100
AcDbEntity
  8
TOP
100
AcDbCircle
 10
15.092926824526947
 20
99.2939062014557
 30
0.0
 40
0.125
100
AcDbArc
 50
-119.99999999999999
 51
60.00000000000001
  0
ARC
  5
355
330
17
100
AcDbEntity
  8
TOP
100
AcDbCircle
 10
16.977073175473055
 20
99.2939062014557
 30
0.0
 40
0.125
100
AcDbArc
 50
119.99999999999999
 51
300.0
  0
ARC
  5
356
330
17
100
AcDbEntity
  8
TOP
100
AcDbCircle
 10
25.782926824526943
 20
99.2939062014557
 30
0.0
 40
0.125
100
AcDbArc
 50
-119.99999999999999
 51
60.00000000000001
  0
ARC
  5
357
330
17
100
AcDbEntity
  8
TOP
100
AcDbCircle
 10
27.667073175473053
 20
99.2939062014557
 30
0.0
 40
0.125
100
AcDbArc
 50
119.99999999999999
 51
300.0
  0
ARC
  5
358
330
17
100
AcDbEntity
  8
TOP
100
AcDbCircle
 10
0.9420731754730547
 20
102.4189062014557
 30
0.0
 40
0.125
100
AcDbArc
 50
119.99999999999999
 51
300.0
  0
ARC
  5
359
330
17
100
AcDbEntity
  8
TOP
100
AcDbCircle
 10
9.747926824526946
 20
102.4189062014557
 30
0.0
 40
0.125
100
AcDbArc
 50
-119.99999999999999
 51
60.00000000000001
  0
ARC
  5
35A
330
17
100
AcDbEntity
  8
TOP
100
AcDbCircle
 10
11.632073175473053
 20
102.4189062014557
 30
0.0
 40
0.125
100
AcDbArc
 50
119.99999999999999
 51
300.0
  0
ARC
  5
35B
330
17
100
AcDbEntity
  8
TOP
100
AcDbCircle
 10
20.437926824526944
 20
102.4189062014557
 30
0.0
 40
0.125
100
AcDbArc
 50
-119.99999999999999
 51
60.00000000000001
  0
ARC
  5
35C
330
17
100
AcDbEntity
  8
TOP
100
AcDbCircle
 10
22.322073175473054
 20
102.4189062014557
 30
0.0
 40
0.125
100
AcDbArc
 50
119.99999999999999
 51
300.0
  0
ARC
  5
35D
330
17
100
AcDbEntity
  8
TOP
100
AcDbCircle
 10
31.127926824526945
 20
102.4189062014557
 30
0.0
 40
0.125
100
AcDbArc
 50
-119.99999999999999
 51
60.00000000000001
  0
ARC
  5
35E
330
17
100
AcDbEntity
  8
TOP
100
AcDbCircle
 10
4.402926824526944
 20
105.5439062014557
 30
0.0
 40
0.125
100
AcDbArc
 50
-119.99999999999999
 51
60.00000000000001
  0
ARC
  5
35F
330
17
100
AcDbEntity
  8
TOP
100
AcDbCircle
 10
6.287073175473055
 20
105.5439062014557
 30
0.0
 40
0.125
100
AcDbArc
 50
119.99999999999999
 51
300.0
  0
ARC
  5
360
330
17
100
AcDbEntity
  8
TOP
100
AcDbCircle
 10
15.092926824526947
 20
105.5439062014557
 30
0.0
 40
0.125
100
AcDbArc
 50
-119.99999999999999
 51
60.00000000000001
  0
ARC
  5
361
330
17
100
AcDbEntity
  8
TOP
100
AcDbCircle
 10
16.977073175473055
 20
105.5439062014557
 30
0.0
 40
0.125
100
AcDbArc
 50
119.99999999999999
 51
300.0
  0
ARC
  5
362
330
17
100
AcDbEntity
  8
TOP
100
AcDbCircle
 10
25.782926824526943
 20
105.5439062014557
 30
0.0
 40
0.125
100
AcDbArc
 50
-119.99999999999999
 51
60.00000000000001
  0
ARC
  5
363
330
17
100
AcDbEntity
  8
TOP
100
AcDbCircle
 10
27.667073175473053
 20
105.5439062014557
 30
0.0
 40
0.125
100
AcDbArc
 50
119.99999999999999
 51
300.0
  0
ARC
  5
364
330
17
100
AcDbEntity
  8
TOP
100
AcDbCircle
 10
0.9420731754730547
 20
108.6689062014557
 30
0.0
 40
0.125
100
AcDbArc
 50
119.99999999999999
 51
300.0
  0
ARC
  5
365
330
17
100
AcDbEntity
  8
TOP
100
AcDbCircle
 10
9.747926824526946
 20
108.6689062014557
 30
0.0
 40
0.125
100
AcDbArc
 50
-119.99999999999999
 51
60.00000000000001
  0
ARC
  5
366
330
17
100
AcDbEntity
  8
TOP
100
AcDbCircle
 10
11.632073175473053
 20
108.6689062014557
 30
0.0
 40
0.125
100
AcDbArc
 50
119.99999999999999
 51
300.0
  0
ARC
  5
367
330
17
100
AcDbEntity
  8
TOP
100
AcDbCircle
 10
20.437926824526944
 20
108.6689062014557
 30
0.0
 40
0.125
100
AcDbArc
 50
-119.99999999999999
 51
60.00000000000001
  0
ARC
  5
368
330
17
100
AcDbEntity
  8
TOP
100
AcDbCircle
 10
22.322073175473054
 20
108.6689062014557
 30
0.0
 40
0.125
100
AcDbArc
 50
119.99999999999999
 51
300.0
  0
ARC
  5
369
330
17
100
AcDbEntity
  8
TOP
100
AcDbCircle
 10
31.127926824526945
 20
108.6689062014557
 30
0.0
 40
0.125
100
AcDbArc
 50
-119.99999999999999
 51
60.00000000000001
  0
ARC
  5
36A
330
17
100
AcDbEntity
  8
TOP
100
AcDbCircle
 10
4.402926824526944
 20
111.7939062014557
 30
0.0
 40
0.125
100
AcDbArc
 50
-119.99999999999999
 51
60.00000000000001
  0
ARC
  5
36B
330
17
100
AcDbEntity
  8
TOP
100
AcDbCircle
 10
6.287073175473055
 20
111.7939062014557
 30
0.0
 40
0.125
100
AcDbArc
 50
119.99999999999999
 51
300.0
  0
ARC
  5
36C
330
17
100
AcDbEntity
  8
TOP
100
AcDbCircle
 10
15.092926824526947
 20
111.7939062014557
 30
0.0
 40
0.125
100
AcDbArc
 50
-119.99999999999999
 51
60.00000000000001
  0
ARC
  5
36D
330
17
100
AcDbEntity
  8
TOP
100
AcDbCircle
 10
16.977073175473055
 20
111.7939062014557
 30
0.0
 40
0.125
100
AcDbArc
 50
119.99999999999999
 51
300.0
  0
ARC
  5
36E
330
17
100
AcDbEntity
  8
TOP
100
AcDbCircle
 10
25.782926824526943
 20
111.7939062014557
 30
0.0
 40
0.125
100
AcDbArc
 50
-119.99999999999999
 51
60.00000000000001
  0
ARC
  5
36F
330
17
100
AcDbEntity
  8
TOP
100
AcDbCircle
 10
27.667073175473053
 20
111.7939062014557
 30
0.0
 40
0.125
100
AcDbArc
 50
119.99999999999999
 51
300.0
  0
ARC
  5
370
330
17
100
AcDbEntity
  8
TOP
100
AcDbCircle
 10
0.9420731754730547
 20
114.9189062014557
 30
0.0
 40
0.125
100
AcDbArc
 50
119.99999999999999
 51
300.0
  0
ARC
  5
371
330
17
100
AcDbEntity
  8
TOP
100
AcDbCircle
 10
9.747926824526946
 20
114.9189062014557
 30
0.0
 40
0.125
100
AcDbArc
 50
-119.99999999999999
 51
60.00000000000001
  0
ARC
  5
372
330
17
100
AcDbEntity
  8
TOP
100
AcDbCircle
 10
11.632073175473053
 20
114.9189062014557
 30
0.0
 40
0.125
100
AcDbArc
 50
119.99999999999999
 51
300.0
  0
ARC
  5
373
330
17
100
AcDbEntity
  8
TOP
100
AcDbCircle
 10
20.437926824526944
 20
114.9189062014557
 30
0.0
 40
0.125
100
AcDbArc
 50
-119.99999999999999
 51
60.00000000000001
  0
ARC
  5
374
330
17
100
AcDbEntity
  8
TOP
100
AcDbCircle
 10
22.322073175473054
 20
114.9189062014557
 30
0.0
 40
0.125
100
AcDbArc
 50
119.99999999999999
 51
300.0
  0
ARC
  5
375
330
17
100
AcDbEntity
  8
TOP
100
AcDbCircle
 10
31.127926824526945
 20
114.9189062014557
 30
0.0
 40
0.125
100
AcDbArc
 50
-119.99999999999999
 51
60.00000000000001
  0
ARC
  5
376
330
17
100
AcDbEntity
  8
TOP
100
AcDbCircle
 10
4.402926824526944
 20
118.0439062014557
 30
0.0
 40
0.125
100
AcDbArc
 50
-119.99999999999999
 51
60.00000000000001
  0
ARC
  5
377
330
17
100
AcDbEntity
  8
TOP
100
AcDbCircle
 10
6.287073175473055
 20
118.0439062014557
 30
0.0
 40
0.125
100
AcDbArc
 50
119.99999999999999
 51
300.0
  0
ARC
  5
378
330
17
100
AcDbEntity
  8
TOP
100
AcDbCircle
 10
15.092926824526947
 20
118.0439062014557
 30
0.0
 40
0.125
100
AcDbArc
 50
-119.99999999999999
 51
60.00000000000001
  0
ARC
  5
379
330
17
100
AcDbEntity
  8
TOP
100
AcDbCircle
 10
16.977073175473055
 20
118.0439062014557
 30
0.0
 40
0.125
100
AcDbArc
 50
119.99999999999999
 51
300.0
  0
ARC
  5
37A
330
17
100
AcDbEntity
  8
TOP
100
AcDbCircle
 10
25.782926824526943
 20
118.0439062014557
 30
0.0
 40
0.125
100
AcDbArc
 50
-119.99999999999999
 51
60.00000000000001
  0
ARC
  5
37B
330
17
100
AcDbEntity
  8
TOP
100
AcDbCircle
 10
27.667073175473053
 20
118.0439062014557
 30
0.0
 40
0.125
100
AcDbArc
 50
119.99999999999999
 51
300.0
  0
ARC
  5
37C
330
17
100
AcDbEntity
  8
TOP
100
AcDbCircle
 10
0.9420731754730547
 20
121.1689062014557
 30
0.0
 40
0.125
100
AcDbArc
 50
119.99999999999999
 51
300.0
  0
ARC
  5
37D
330
17
100
AcDbEntity
  8
TOP
100
AcDbCircle
 10
9.747926824526946
 20
121.1689062014557
 30
0.0
 40
0.125
100
AcDbArc
 50
-119.99999999999999
 51
60.00000000000001
  0
ARC
  5
37E
330
17
100
AcDbEntity
  8
TOP
100
AcDbCircle
 10
11.632073175473053
 20
121.1689062014557
 30
0.0
 40
0.125
100
AcDbArc
 50
119.99999999999999
 51
300.0
  0
ARC
  5
37F
330
17
100
AcDbEntity
  8
TOP
100
AcDbCircle
 10
20.437926824526944
 20
121.1689062014557
 30
0.0
 40
0.125
100
AcDbArc
 50
-119.99999999999999
 51
60.00000000000001
  0
ARC
  5
380
330
17
100
AcDbEntity
  8
TOP
100
AcDbCircle
 10
22.322073175473054
 20
121.1689062014557
 30
0.0
 40
0.125
100
AcDbArc
 50
119.99999999999999
 51
300.0
  0
ARC
  5
381
330
17
100
AcDbEntity
  8
TOP
100
AcDbCircle
 10
31.127926824526945
 20
121.1689062014557
 30
0.0
 40
0.125
100
AcDbArc
 50
-119.99999999999999
 51
60.00000000000001
  0
ARC
  5
382
330
17
100
AcDbEntity
  8
TOP
100
AcDbCircle
 10
4.402926824526944
 20
124.2939062014557
 30
0.0
 40
0.125
100
AcDbArc
 50
-119.99999999999999
 51
60.00000000000001
  0
ARC
  5
383
330
17
100
AcDbEntity
  8
TOP
100
AcDbCircle
 10
6.287073175473055
 20
124.2939062014557
 30
0.0
 40
0.125
100
AcDbArc
 50
119.99999999999999
 51
300.0
  0
ARC
  5
384
330
17
100
AcDbEntity
  8
TOP
100
AcDbCircle
 10
15.092926824526947
 20
124.2939062014557
 30
0.0
 40
0.125
100
AcDbArc
 50
-119.99999999999999
 51
60.00000000000001
  0
ARC
  5
385
330
17
100
AcDbEntity
  8
TOP
100
AcDbCircle
 10
16.977073175473055
 20
124.2939062014557
 30
0.0
 40
0.125
100
AcDbArc
 50
119.99999999999999
 51
300.0
  0
ARC
  5
386
330
17
100
AcDbEntity
  8
TOP
100
AcDbCircle
 10
25.782926824526943
 20
124.2939062014557
 30
0.0
 40
0.125
100
AcDbArc
 50
-119.99999999999999
 51
60.00000000000001
  0
ARC
  5
387
330
17
100
AcDbEntity
  8
TOP
100
AcDbCircle
 10
27.667073175473053
 20
124.2939062014557
 30
0.0
 40
0.125
100
AcDbArc
 50
119.99999999999999
 51
300.0
  0
ARC
  5
388
330
17
100
AcDbEntity
  8
TOP
100
AcDbCircle
 10
0.9420731754730547
 20
127.4189062014557
 30
0.0
 40
0.125
100
AcDbArc
 50
119.99999999999999
 51
300.0
  0
ARC
  5
389
330
17
100
AcDbEntity
  8
TOP
100
AcDbCircle
 10
9.747926824526946
 20
127.4189062014557
 30
0.0
 40
0.125
100
AcDbArc
 50
-119.99999999999999
 51
60.00000000000001
  0
ARC
  5
38A
330
17
100
AcDbEntity
  8
TOP
100
AcDbCircle
 10
11.632073175473053
 20
127.4189062014557
 30
0.0
 40
0.125
100
AcDbArc
 50
119.99999999999999
 51
300.0
  0
ARC
  5
38B
330
17
100
AcDbEntity
  8
TOP
100
AcDbCircle
 10
20.437926824526944
 20
127.4189062014557
 30
0.0
 40
0.125
100
AcDbArc
 50
-119.99999999999999
 51
60.00000000000001
  0
ARC
  5
38C
330
17
100
AcDbEntity
  8
TOP
100
AcDbCircle
 10
22.322073175473054
 20
127.4189062014557
 30
0.0
 40
0.125
100
AcDbArc
 50
119.99999999999999
 51
300.0
  0
ARC
  5
38D
330
17
100
AcDbEntity
  8
TOP
100
AcDbCircle
 10
31.127926824526945
 20
127.4189062014557
 30
0.0
 40
0.125
100
AcDbArc
 50
-119.99999999999999
 51
60.00000000000001
  0
ARC
  5
38E
330
17
100
AcDbEntity
  8
TOP
100
AcDbCircle
 10
4.402926824526944
 20
130.54390620145568
 30
0.0
 40
0.125
100
AcDbArc
 50
-119.99999999999999
 51
60.00000000000001
  0
ARC
  5
38F
330
17
100
AcDbEntity
  8
TOP
100
AcDbCircle
 10
6.287073175473055
 20
130.54390620145568
 30
0.0
 40
0.125
100
AcDbArc
 50
119.99999999999999
 51
300.0
  0
ARC
  5
390
330
17
100
AcDbEntity
  8
TOP
100
AcDbCircle
 10
15.092926824526947
 20
130.54390620145568
 30
0.0
 40
0.125
100
AcDbArc
 50
-119.99999999999999
 51
60.00000000000001
  0
ARC
  5
391
330
17
100
AcDbEntity
  8
TOP
100
AcDbCircle
 10
16.977073175473055
 20
130.54390620145568
 30
0.0
 40
0.125
100
AcDbArc
 50
119.99999999999999
 51
300.0
  0
ARC
  5
392
330
17
100
AcDbEntity
  8
TOP
100
AcDbCircle
 10
25.782926824526943
 20
130.54390620145568
 30
0.0
 40
0.125
100
AcDbArc
 50
-119.99999999999999
 51
60.00000000000001
  0
ARC
  5
393
330
17
100
AcDbEntity
  8
TOP
100
AcDbCircle
 10
27.667073175473053
 20
130.54390620145568
 30
0.0
 40
0.125
100
AcDbArc
 50
119.99999999999999
 51
300.0
  0
ARC
  5
394
330
17
100
AcDbEntity
  8
TOP
100
AcDbCircle
 10
0.9420731754730547
 20
133.66890620145568
 30
0.0
 40
0.125
100
AcDbArc
 50
119.99999999999999
 51
300.0
  0
ARC
  5
395
330
17
100
AcDbEntity
  8
TOP
100
AcDbCircle
 10
9.747926824526946
 20
133.66890620145568
 30
0.0
 40
0.125
100
AcDbArc
 50
-119.99999999999999
 51
60.00000000000001
  0
ARC
  5
396
330
17
100
AcDbEntity
  8
TOP
100
AcDbCircle
 10
11.632073175473053
 20
133.66890620145568
 30
0.0
 40
0.125
100
AcDbArc
 50
119.99999999999999
 51
300.0
  0
ARC
  5
397
330
17
100
AcDbEntity
  8
TOP
100
AcDbCircle
 10
20.437926824526944
 20
133.66890620145568
 30
0.0
 40
0.125
100
AcDbArc
 50
-119.99999999999999
 51
60.00000000000001
  0
ARC
  5
398
330
17
100
AcDbEntity
  8
TOP
100
AcDbCircle
 10
22.322073175473054
 20
133.66890620145568
 30
0.0
 40
0.125
100
AcDbArc
 50
119.99999999999999
 51
300.0
  0
ARC
  5
399
330
17
100
AcDbEntity
  8
TOP
100
AcDbCircle
 10
31.127926824526945
 20
133.66890620145568
 30
0.0
 40
0.125
100
AcDbArc
 50
-119.99999999999999
 51
60.00000000000001
  0
ARC
  5
39A
330
17
100
AcDbEntity
  8
TOP
100
AcDbCircle
 10
4.402926824526944
 20
136.79390620145568
 30
0.0
 40
0.125
100
AcDbArc
 50
-119.99999999999999
 51
60.00000000000001
  0
ARC
  5
39B
330
17
100
AcDbEntity
  8
TOP
100
AcDbCircle
 10
6.287073175473055
 20
136.79390620145568
 30
0.0
 40
0.125
100
AcDbArc
 50
119.99999999999999
 51
300.0
  0
ARC
  5
39C
330
17
100
AcDbEntity
  8
TOP
100
AcDbCircle
 10
15.092926824526947
 20
136.79390620145568
 30
0.0
 40
0.125
100
AcDbArc
 50
-119.99999999999999
 51
60.00000000000001
  0
ARC
  5
39D
330
17
100
AcDbEntity
  8
TOP
100
AcDbCircle
 10
16.977073175473055
 20
136.79390620145568
 30
0.0
 40
0.125
100
AcDbArc
 50
119.99999999999999
 51
300.0
  0
ARC
  5
39E
330
17
100
AcDbEntity
  8
TOP
100
AcDbCircle
 10
25.782926824526943
 20
136.79390620145568
 30
0.0
 40
0.125
100
AcDbArc
 50
-119.99999999999999
 51
60.00000000000001
  0
ARC
  5
39F
330
17
100
AcDbEntity
  8
TOP
100
AcDbCircle
 10
27.667073175473053
 20
136.79390620145568
 30
0.0
 40
0.125
100
AcDbArc
 50
119.99999999999999
 51
300.0
  0
ARC
  5
3A0
330
17
100
AcDbEntity
  8
TOP
100
AcDbCircle
 10
0.9420731754730547
 20
139.91890620145568
 30
0.0
 40
0.125
100
AcDbArc
 50
119.99999999999999
 51
300.0
  0
ARC
  5
3A1
330
17
100
AcDbEntity
  8
TOP
100
AcDbCircle
 10
9.747926824526946
 20
139.91890620145568
 30
0.0
 40
0.125
100
AcDbArc
 50
-119.99999999999999
 51
60.00000000000001
  0
ARC
  5
3A2
330
17
100
AcDbEntity
  8
TOP
100
AcDbCircle
 10
11.632073175473053
 20
139.91890620145568
 30
0.0
 40
0.125
100
AcDbArc
 50
119.99999999999999
 51
300.0
  0
ARC
  5
3A3
330
17
100
AcDbEntity
  8
TOP
100
AcDbCircle
 10
20.437926824526944
 20
139.91890620145568
 30
0.0
 40
0.125
100
AcDbArc
 50
-119.99999999999999
 51
60.00000000000001
  0
ARC
  5
3A4
330
17
100
AcDbEntity
  8
TOP
100
AcDbCircle
 10
22.322073175473054
 20
139.91890620145568
 30
0.0
 40
0.125
100
AcDbArc
 50
119.99999999999999
 51
300.0
  0
ARC
  5
3A5
330
17
100
AcDbEntity
  8
TOP
100
AcDbCircle
 10
31.127926824526945
 20
139.91890620145568
 30
0.0
 40
0.125
100
AcDbArc
 50
-119.99999999999999
 51
60.00000000000001
  0
ARC
  5
3A6
330
17
100
AcDbEntity
  8
TOP
100
AcDbCircle
 10
4.402926824526944
 20
143.04390620145568
 30
0.0
 40
0.125
100
AcDbArc
 50
-119.99999999999999
 51
60.00000000000001
  0
ARC
  5
3A7
330
17
100
AcDbEntity
  8
TOP
100
AcDbCircle
 10
6.287073175473055
 20
143.04390620145568
 30
0.0
 40
0.125
100
AcDbArc
 50
119.99999999999999
 51
300.0
  0
ARC
  5
3A8
330
17
100
AcDbEntity
  8
TOP
100
AcDbCircle
 10
15.092926824526947
 20
143.04390620145568
 30
0.0
 40
0.125
100
AcDbArc
 50
-119.99999999999999
 51
60.00000000000001
  0
ARC
  5
3A9
330
17
100
AcDbEntity
  8
TOP
100
AcDbCircle
 10
16.977073175473055
 20
143.04390620145568
 30
0.0
 40
0.125
100
AcDbArc
 50
119.99999999999999
 51
300.0
  0
ARC
  5
3AA
330
17
100
AcDbEntity
  8
TOP
100
AcDbCircle
 10
25.782926824526943
 20
143.04390620145568
 30
0.0
 40
0.125
100
AcDbArc
 50
-119.99999999999999
 51
60.00000000000001
  0
ARC
  5
3AB
330
17
100
AcDbEntity
  8
TOP
100
AcDbCircle
 10
27.667073175473053
 20
143.04390620145568
 30
0.0
 40
0.125
100
AcDbArc
 50
119.99999999999999
 51
300.0
  0
ARC
  5
3AC
330
17
100
AcDbEntity
  8
TOP
100
AcDbCircle
 10
0.9420731754730547
 20
146.16890620145568
 30
0.0
 40
0.125
100
AcDbArc
 50
119.99999999999999
 51
300.0
  0
ARC
  5
3AD
330
17
100
AcDbEntity
  8
TOP
100
AcDbCircle
 10
9.747926824526946
 20
146.16890620145568
 30
0.0
 40
0.125
100
AcDbArc
 50
-119.99999999999999
 51
60.00000000000001
  0
ARC
  5
3AE
330
17
100
AcDbEntity
  8
TOP
100
AcDbCircle
 10
11.632073175473053
 20
146.16890620145568
 30
0.0
 40
0.125
100
AcDbArc
 50
119.99999999999999
 51
300.0
  0
ARC
  5
3AF
330
17
100
AcDbEntity
  8
TOP
100
AcDbCircle
 10
20.437926824526944
 20
146.16890620145568
 30
0.0
 40
0.125
100
AcDbArc
 50
-119.99999999999999
 51
60.00000000000001
  0
ARC
  5
3B0
330
17
100
AcDbEntity
  8
TOP
100
AcDbCircle
 10
22.322073175473054
 20
146.16890620145568
 30
0.0
 40
0.125
100
AcDbArc
 50
119.99999999999999
 51
300.0
  0
ARC
  5
3B1
330
17
100
AcDbEntity
  8
TOP
100
AcDbCircle
 10
31.127926824526945
 20
146.16890620145568
 30
0.0
 40
0.125
100
AcDbArc
 50
-119.99999999999999
 51
60.00000000000001
  0
ARC
  5
3B2
330
17
100
AcDbEntity
  8
TOP
100
AcDbCircle
 10
4.402926824526944
 20
149.29390620145568
 30
0.0
 40
0.125
100
AcDbArc
 50
-119.99999999999999
 51
60.00000000000001
  0
ARC
  5
3B3
330
17
100
AcDbEntity
  8
TOP
100
AcDbCircle
 10
6.287073175473055
 20
149.29390620145568
 30
0.0
 40
0.125
100
AcDbArc
 50
119.99999999999999
 51
300.0
  0
ARC
  5
3B4
330
17
100
AcDbEntity
  8
TOP
100
AcDbCircle
 10
15.092926824526947
 20
149.29390620145568
 30
0.0
 40
0.125
100
AcDbArc
 50
-119.99999999999999
 51
60.00000000000001
  0
ARC
  5
3B5
330
17
100
AcDbEntity
  8
TOP
100
AcDbCircle
 10
16.977073175473055
 20
149.29390620145568
 30
0.0
 40
0.125
100
AcDbArc
 50
119.99999999999999
 51
300.0
  0
ARC
  5
3B6
330
17
100
AcDbEntity
  8
TOP
100
AcDbCircle
 10
25.782926824526943
 20
149.29390620145568
 30
0.0
 40
0.125
100
AcDbArc
 50
-119.99999999999999
 51
60.00000000000001
  0
ARC
  5
3B7
330
17
100
AcDbEntity
  8
TOP
100
AcDbCircle
 10
27.667073175473053
 20
149.29390620145568
 30
0.0
 40
0.125
100
AcDbArc
 50
119.99999999999999
 51
300.0
  0
ARC
  5
3B8
330
17
100
AcDbEntity
  8
TOP
100
AcDbCircle
 10
0.9420731754730547
 20
152.41890620145568
 30
0.0
 40
0.125
100
AcDbArc
 50
119.99999999999999
 51
300.0
  0
ARC
  5
3B9
330
17
100
AcDbEntity
  8
TOP
100
AcDbCircle
 10
9.747926824526946
 20
152.41890620145568
 30
0.0
 40
0.125
100
AcDbArc
 50
-119.99999999999999
 51
60.00000000000001
  0
ARC
  5
3BA
330
17
100
AcDbEntity
  8
TOP
100
AcDbCircle
 10
11.632073175473053
 20
152.41890620145568
 30
0.0
 40
0.125
100
AcDbArc
 50
119.99999999999999
 51
300.0
  0
ARC
  5
3BB
330
17
100
AcDbEntity
  8
TOP
100
AcDbCircle
 10
20.437926824526944
 20
152.41890620145568
 30
0.0
 40
0.125
100
AcDbArc
 50
-119.99999999999999
 51
60.00000000000001
  0
ARC
  5
3BC
330
17
100
AcDbEntity
  8
TOP
100
AcDbCircle
 10
22.322073175473054
 20
152.41890620145568
 30
0.0
 40
0.125
100
AcDbArc
 50
119.99999999999999
 51
300.0
  0
ARC
  5
3BD
330
17
100
AcDbEntity
  8
TOP
100
AcDbCircle
 10
31.127926824526945
 20
152.41890620145568
 30
0.0
 40
0.125
100
AcDbArc
 50
-119.99999999999999
 51
60.00000000000001
  0
POLYLINE
  5
3BE
330
17
100
AcDbEntity
  8
TOP
100
AcDb2dPolyline
 66
1
 10
0.0
 20
0.0
 30
0.0
 70
1
  0
VERTEX
  5
3C0
330
17
100
AcDbEntity
  8
TOP
100
AcDbVertex
100
AcDb2dVertex
 10
0.0
 20
0.0
 30
0.0
 70
0
  0
VERTEX
  5
3C1
330
17
100
AcDbEntity
  8
TOP
100
AcDbVertex
100
AcDb2dVertex
 10
0.0
 20
160.0
 30
0.0
 70
0
  0
VERTEX
  5
3C2
330
17
100
AcDbEntity
  8
TOP
100
AcDbVertex
100
AcDb2dVertex
 10
32.07
 20
160.0
 30
0.0
 70
0
  0
VERTEX
  5
3C3
330
17
100
AcDbEntity
  8
TOP
100
AcDbVertex
100
AcDb2dVertex
 10
32.07
 20
0.0
 30
0.0
 70
0
  0
SEQEND
  5
3BF
330
17
100
AcDbEntity
  8
TOP
  0
ENDSEC
  0
SECTION
  2
OBJECTS
  0
DICTIONARY
  5
A
330
0
100
AcDbDictionary
281
1
  3
ACAD_COLOR
350
B
  3
ACAD_GROUP
350
C
  3
ACAD_LAYOUT
350
D
  3
ACAD_MATERIAL
350
E
  3
ACAD_MLEADERSTYLE
350
F
  3
ACAD_MLINESTYLE
350
10
  3
ACAD_PLOTSETTINGS
350
11
  3
ACAD_PLOTSTYLENAME
350
12
  3
ACAD_SCALELIST
350
14
  3
ACAD_TABLESTYLE
350
15
  3
ACAD_VISUALSTYLE
350
16
  0
DICTIONARY
  5
B
330
A
100
AcDbDictionary
281
1
  0
DICTIONARY
  5
C
330
A
100
AcDbDictionary
281
1
  0
DICTIONARY
  5
D
330
A
100
AcDbDictionary
281
1
  3
Model
350
1A
  3
Layout1
350
1E
  0
DICTIONARY
  5
E
330
A
100
AcDbDictionary
281
1
  3
ByBlock
350
1F
  3
ByLayer
350
20
  3
Global
350
21
  0
DICTIONARY
  5
F
330
A
100
AcDbDictionary
281
1
  3
Standard
350
2C
  0
DICTIONARY
  5
10
330
A
100
AcDbDictionary
281
1
  3
Standard
350
22
  0
DICTIONARY
  5
11
330
A
100
AcDbDictionary
281
1
  0
ACDBDICTIONARYWDFLT
  5
12
330
A
100
AcDbDictionary
281
1
  3
Normal
350
13
100
AcDbDictionaryWithDefault
340
13
  0
ACDBPLACEHOLDER
  5
13
330
12
  0
DICTIONARY
  5
14
330
A
100
AcDbDictionary
281
1
  0
DICTIONARY
  5
15
330
A
100
AcDbDictionary
281
1
  0
DICTIONARY
  5
16
330
A
100
AcDbDictionary
281
1
  0
LAYOUT
  5
1A
330
D
100
AcDbPlotSettings
  1

  2
Adobe PDF
  4
A3
  6

 40
7.5
 41
20.0
 42
7.5
 43
20.0
 44
420.0
 45
297.0
 46
0.0
 47
0.0
 48
0.0
 49
0.0
140
0.0
141
0.0
142
1.0
143
1.0
 70
1024
 72
1
 73
1
 74
5
  7

 75
16
 76
0
 77
2
 78
300
147
1.0
148
0.0
149
0.0
100
AcDbLayout
  1
Model
 70
1
 71
0
 10
0.0
 20
0.0
 11
420.0
 21
297.0
 12
0.0
 22
0.0
 32
0.0
 14
1e+20
 24
1e+20
 34
1e+20
 15
-1e+20
 25
-1e+20
 35
-1e+20
146
0.0
 13
0.0
 23
0.0
 33
0.0
 16
1.0
 26
0.0
 36
0.0
 17
0.0
 27
1.0
 37
0.0
 76
1
330
17
  0
LAYOUT
  5
1E
330
D
100
AcDbPlotSettings
  1

  2
Adobe PDF
  4
A3
  6

 40
7.5
 41
20.0
 42
7.5
 43
20.0
 44
420.0
 45
297.0
 46
0.0
 47
0.0
 48
0.0
 49
0.0
140
0.0
141
0.0
142
1.0
143
1.0
 70
0
 72
1
 73
1
 74
5
  7

 75
16
 76
0
 77
2
 78
300
147
1.0
148
0.0
149
0.0
100
AcDbLayout
  1
Layout1
 70
1
 71
1
 10
0.0
 20
0.0
 11
420.0
 21
297.0
 12
0.0
 22
0.0
 32
0.0
 14
1e+20
 24
1e+20
 34
1e+20
 15
-1e+20
 25
-1e+20
 35
-1e+20
146
0.0
 13
0.0
 23
0.0
 33
0.0
 16
1.0
 26
0.0
 36
0.0
 17
0.0
 27
1.0
 37
0.0
 76
1
330
1B
  0
MATERIAL
  5
1F
102
{ACAD_REACTORS
330
E
102
}
330
E
100
AcDbMaterial
  1
ByBlock
  2

 70
0
 40
1.0
 71
1
 41
1.0
 91
-1023410177
 42
1.0
 72
1
  3

 73
1
 74
1
 75
1
 44
0.5
 73
0
 45
1.0
 46
1.0
 77
1
  4

 78
1
 79
1
170
1
 48
1.0
171
1
  6

172
1
173
1
174
1
140
1.0
141
1.0
175
1
  7

176
1
177
1
178
1
143
1.0
179
1
  8

270
1
271
1
272
1
145
1.0
146
1.0
273
1
  9

274
1
275
1
276
1
 42
1.0
 72
1
  3

 73
1
 74
1
 75
1
 94
63
  0
MATERIAL
  5
20
102
{ACAD_REACTORS
330
E
102
}
330
E
100
AcDbMaterial
  1
ByLayer
  2

 70
0
 40
1.0
 71
1
 41
1.0
 91
-1023410177
 42
1.0
 72
1
  3

 73
1
 74
1
 75
1
 44
0.5
 73
0
 45
1.0
 46
1.0
 77
1
  4

 78
1
 79
1
170
1
 48
1.0
171
1
  6

172
1
173
1
174
1
140
1.0
141
1.0
175
1
  7

176
1
177
1
178
1
143
1.0
179
1
  8

270
1
271
1
272
1
145
1.0
146
1.0
273
1
  9

274
1
275
1
276
1
 42
1.0
 72
1
  3

 73
1
 74
1
 75
1
 94
63
  0
MATERIAL
  5
21
102
{ACAD_REACTORS
330
E
102
}
330
E
100
AcDbMaterial
  1
Global
  2

 70
0
 40
1.0
 71
1
 41
1.0
 91
-1023410177
 42
1.0
 72
1
  3

 73
1
 74
1
 75
1
 44
0.5
 73
0
 45
1.0
 46
1.0
 77
1
  4

 78
1
 79
1
170
1
 48
1.0
171
1
  6

172
1
173
1
174
1
140
1.0
141
1.0
175
1
  7

176
1
177
1
178
1
143
1.0
179
1
  8

270
1
271
1
272
1
145
1.0
146
1.0
273
1
  9

274
1
275
1
276
1
 42
1.0
 72
1
  3

 73
1
 74
1
 75
1
 94
63
  0
MLINESTYLE
  5
22
102
{ACAD_REACTORS
330
10
102
}
330
10
100
AcDbMlineStyle
  2
Standard
 70
0
  3

 62
256
 51
90.0
 52
90.0
 71
2
 49
0.5
 62
256
  6
BYLAYER
 49
-0.5
 62
256
  6
BYLAYER
  0
MLEADERSTYLE
  5
2C
102
{ACAD_REACTORS
330
F
102
}
330
F
100
AcDbMLeaderStyle
179
2
170
2
171
1
172
0
 90
2
 40
0.0
 41
0.0
173
1
 91
-1056964608
 92
-2
290
1
 42
2.0
291
1
 43
8.0
  3
Standard
 44
4.0
300

342
29
174
1
175
1
176
0
178
1
 93
-1056964608
 45
4.0
292
0
297
0
 46
4.0
 94
-1056964608
 47
1.0
 49
1.0
140
1.0
294
1
141
0.0
177
0
142
1.0
295
0
296
0
143
3.75
271
0
272
9
273
9
  0
ENDSEC
  0
EOF
