  0
SECTION
  2
HEADER
  9
$ACADVER
  1
AC1024
  9
$ACADMAINTVER
 70
6
  9
$DWGCODEPAGE
  3
ANSI_1252
  9
$LASTSAVEDBY
  1
ezdxf
  9
$INSBASE
 10
0.0
 20
0.0
 30
0.0
  9
$EXTMIN
 10
1e+20
 20
1e+20
 30
1e+20
  9
$EXTMAX
 10
-1e+20
 20
-1e+20
 30
-1e+20
  9
$LIMMIN
 10
0.0
 20
0.0
  9
$LIMMAX
 10
420.0
 20
297.0
  9
$ORTHOMODE
 70
0
  9
$REGENMODE
 70
1
  9
$FILLMODE
 70
1
  9
$QTEXTMODE
 70
0
  9
$MIRRTEXT
 70
1
  9
$LTSCALE
 40
1.0
  9
$ATTMODE
 70
1
  9
$TEXTSIZE
 40
2.5
  9
$TRACEWID
 40
1.0
  9
$TEXTSTYLE
  7
Standard
  9
$CLAYER
  8
0
  9
$CELTYPE
  6
ByLayer
  9
$CECOLOR
 62
256
  9
$CELTSCALE
 40
1.0
  9
$DISPSILH
 70
0
  9
$DIMSCALE
 40
1.0
  9
$DIMASZ
 40
2.5
  9
$DIMEXO
 40
0.625
  9
$DIMDLI
 40
3.75
  9
$DIMRND
 40
0.0
  9
$DIMDLE
 40
0.0
  9
$DIMEXE
 40
1.25
  9
$DIMTP
 40
0.0
  9
$DIMTM
 40
0.0
  9
$DIMTXT
 40
2.5
  9
$DIMCEN
 40
2.5
  9
$DIMTSZ
 40
0.0
  9
$DIMTOL
 70
0
  9
$DIMLIM
 70
0
  9
$DIMTIH
 70
0
  9
$DIMTOH
 70
0
  9
$DIMSE1
 70
0
  9
$DIMSE2
 70
0
  9
$DIMTAD
 70
1
  9
$DIMZIN
 70
8
  9
$DIMBLK
  1

  9
$DIMASO
 70
1
  9
$DIMSHO
 70
1
  9
$DIMPOST
  1

  9
$DIMAPOST
  1

  9
$DIMALT
 70
0
  9
$DIMALTD
 70
3
  9
$DIMALTF
 40
0.03937007874
  9
$DIMLFAC
 40
1.0
  9
$DIMTOFL
 70
1
  9
$DIMTVP
 40
0.0
  9
$DIMTIX
 70
0
  9
$DIMSOXD
 70
0
  9
$DIMSAH
 70
0
  9
$DIMBLK1
  1

  9
$DIMBLK2
  1

  9
$DIMSTYLE
  2
ISO-25
  9
$DIMCLRD
 70
0
  9
$DIMCLRE
 70
0
  9
$DIMCLRT
 70
0
  9
$DIMTFAC
 40
1.0
  9
$DIMGAP
 40
0.625
  9
$DIMJUST
 70
0
  9
$DIMSD1
 70
0
  9
$DIMSD2
 70
0
  9
$DIMTOLJ
 70
0
  9
$DIMTZIN
 70
8
  9
$DIMALTZ
 70
0
  9
$DIMALTTZ
 70
0
  9
$DIMUPT
 70
0
  9
$DIMDEC
 70
2
  9
$DIMTDEC
 70
2
  9
$DIMALTU
 70
2
  9
$DIMALTTD
 70
3
  9
$DIMTXSTY
  7
Standard
  9
$DIMAUNIT
 70
0
  9
$DIMADEC
 70
0
  9
$DIMALTRND
 40
0.0
  9
$DIMAZIN
 70
0
  9
$DIMDSEP
 70
44
  9
$DIMATFIT
 70
3
  9
$DIMFRAC
 70
0
  9
$DIMLDRBLK
  1

  9
$DIMLUNIT
 70
2
  9
$DIMLWD
 70
-2
  9
$DIMLWE
 70
-2
  9
$DIMTMOVE
 70
0
  9
$DIMFXL
 40
1.0
  9
$DIMFXLON
 70
0
  9
$DIMJOGANG
 40
0.785398163397
  9
$DIMTFILL
 70
0
  9
$DIMTFILLCLR
 70
0
  9
$DIMARCSYM
 70
0
  9
$DIMLTYPE
  6

  9
$DIMLTEX1
  6

  9
$DIMLTEX2
  6

  9
$DIMTXTDIRECTION
 70
0
  9
$LUNITS
 70
2
  9
$LUPREC
 70
4
  9
$SKETCHINC
 40
1.0
  9
$FILLETRAD
 40
10.0
  9
$AUNITS
 70
0
  9
$AUPREC
 70
2
  9
$MENU
  1
.
  9
$ELEVATION
 40
0.0
  9
$PELEVATION
 40
0.0
  9
$THICKNESS
 40
0.0
  9
$LIMCHECK
 70
0
  9
$CHAMFERA
 40
0.0
  9
$CHAMFERB
 40
0.0
  9
$CHAMFERC
 40
0.0
  9
$CHAMFERD
 40
0.0
  9
$SKPOLY
 70
0
  9
$TDCREATE
 40
2459635.68349537
  9
$TDUCREATE
 40
2458532.153996898
  9
$TDUPDATE
 40
2459635.68349537
  9
$TDUUPDATE
 40
2458532.1544311
  9
$TDINDWG
 40
0.0
  9
$TDUSRTIMER
 40
0.0
  9
$USRTIMER
 70
1
  9
$ANGBASE
 50
0.0
  9
$ANGDIR
 70
0
  9
$PDMODE
 70
0
  9
$PDSIZE
 40
0.0
  9
$PLINEWID
 40
0.0
  9
$SPLFRAME
 70
0
  9
$SPLINETYPE
 70
6
  9
$SPLINESEGS
 70
8
  9
$HANDSEED
  5
2B1
  9
$SURFTAB1
 70
6
  9
$SURFTAB2
 70
6
  9
$SURFTYPE
 70
6
  9
$SURFU
 70
6
  9
$SURFV
 70
6
  9
$UCSBASE
  2

  9
$UCSNAME
  2

  9
$UCSORG
 10
0.0
 20
0.0
 30
0.0
  9
$UCSXDIR
 10
1.0
 20
0.0
 30
0.0
  9
$UCSYDIR
 10
0.0
 20
1.0
 30
0.0
  9
$UCSORTHOREF
  2

  9
$UCSORTHOVIEW
 70
0
  9
$UCSORGTOP
 10
0.0
 20
0.0
 30
0.0
  9
$UCSORGBOTTOM
 10
0.0
 20
0.0
 30
0.0
  9
$UCSORGLEFT
 10
0.0
 20
0.0
 30
0.0
  9
$UCSORGRIGHT
 10
0.0
 20
0.0
 30
0.0
  9
$UCSORGFRONT
 10
0.0
 20
0.0
 30
0.0
  9
$UCSORGBACK
 10
0.0
 20
0.0
 30
0.0
  9
$PUCSBASE
  2

  9
$PUCSNAME
  2

  9
$PUCSORG
 10
0.0
 20
0.0
 30
0.0
  9
$PUCSXDIR
 10
1.0
 20
0.0
 30
0.0
  9
$PUCSYDIR
 10
0.0
 20
1.0
 30
0.0
  9
$PUCSORTHOREF
  2

  9
$PUCSORTHOVIEW
 70
0
  9
$PUCSORGTOP
 10
0.0
 20
0.0
 30
0.0
  9
$PUCSORGBOTTOM
 10
0.0
 20
0.0
 30
0.0
  9
$PUCSORGLEFT
 10
0.0
 20
0.0
 30
0.0
  9
$PUCSORGRIGHT
 10
0.0
 20
0.0
 30
0.0
  9
$PUCSORGFRONT
 10
0.0
 20
0.0
 30
0.0
  9
$PUCSORGBACK
 10
0.0
 20
0.0
 30
0.0
  9
$USERI1
 70
0
  9
$USERI2
 70
0
  9
$USERI3
 70
0
  9
$USERI4
 70
0
  9
$USERI5
 70
0
  9
$USERR1
 40
0.0
  9
$USERR2
 40
0.0
  9
$USERR3
 40
0.0
  9
$USERR4
 40
0.0
  9
$USERR5
 40
0.0
  9
$WORLDVIEW
 70
1
  9
$SHADEDGE
 70
3
  9
$SHADEDIF
 70
70
  9
$TILEMODE
 70
1
  9
$MAXACTVP
 70
64
  9
$PINSBASE
 10
0.0
 20
0.0
 30
0.0
  9
$PLIMCHECK
 70
0
  9
$PEXTMIN
 10
1e+20
 20
1e+20
 30
1e+20
  9
$PEXTMAX
 10
-1e+20
 20
-1e+20
 30
-1e+20
  9
$PLIMMIN
 10
0.0
 20
0.0
  9
$PLIMMAX
 10
420.0
 20
297.0
  9
$UNITMODE
 70
0
  9
$VISRETAIN
 70
1
  9
$PLINEGEN
 70
0
  9
$PSLTSCALE
 70
1
  9
$TREEDEPTH
 70
3020
  9
$CMLSTYLE
  2
Standard
  9
$CMLJUST
 70
0
  9
$CMLSCALE
 40
20.0
  9
$PROXYGRAPHICS
 70
1
  9
$MEASUREMENT
 70
1
  9
$CELWEIGHT
370
-1
  9
$ENDCAPS
280
0
  9
$JOINSTYLE
280
0
  9
$LWDISPLAY
290
0
  9
$INSUNITS
 70
6
  9
$HYPERLINKBASE
  1

  9
$STYLESHEET
  1

  9
$XEDIT
290
1
  9
$CEPSNTYPE
380
0
  9
$PSTYLEMODE
290
1
  9
$FINGERPRINTGUID
  2
{8A8D87E9-FBE1-45EA-A9D3-23EF6AAED2C3}
  9
$VERSIONGUID
  2
{F69B2EE1-3794-4256-AE59-574D0060E04F}
  9
$EXTNAMES
290
1
  9
$PSVPSCALE
 40
0.0
  9
$OLESTARTUP
290
0
  9
$SORTENTS
280
127
  9
$INDEXCTL
280
0
  9
$HIDETEXT
280
1
  9
$XCLIPFRAME
280
0
  9
$HALOGAP
280
0
  9
$OBSCOLOR
 70
257
  9
$OBSLTYPE
280
0
  9
$INTERSECTIONDISPLAY
280
0
  9
$INTERSECTIONCOLOR
 70
257
  9
$DIMASSOC
280
2
  9
$PROJECTNAME
  1

  9
$CAMERADISPLAY
290
0
  9
$LENSLENGTH
 40
50.0
  9
$CAMERAHEIGHT
 40
0.0
  9
$STEPSPERSEC
 40
24.0
  9
$STEPSIZE
 40
100.0
  9
$3DDWFPREC
 40
2.0
  9
$PSOLWIDTH
 40
0.005
  9
$PSOLHEIGHT
 40
0.08
  9
$LOFTANG1
 40
1.570796326795
  9
$LOFTANG2
 40
1.570796326795
  9
$LOFTMAG1
 40
0.0
  9
$LOFTMAG2
 40
0.0
  9
$LOFTPARAM
 70
7
  9
$LOFTNORMALS
280
1
  9
$LATITUDE
 40
37.795
  9
$LONGITUDE
 40
-122.394
  9
$NORTHDIRECTION
 40
0.0
  9
$TIMEZONE
 70
-8000
  9
$LIGHTGLYPHDISPLAY
280
1
  9
$TILEMODELIGHTSYNCH
280
1
  9
$CMATERIAL
347
20
  9
$SOLIDHIST
280
0
  9
$SHOWHIST
280
1
  9
$DWFFRAME
280
2
  9
$DGNFRAME
280
2
  9
$REALWORLDSCALE
290
1
  9
$INTERFERECOLOR
 62
256
  9
$CSHADOW
280
0
  9
$SHADOWPLANELOCATION
 40
0.0
  0
ENDSEC
  0
SECTION
  2
CLASSES
  0
CLASS
  1
ACDBDICTIONARYWDFLT
  2
AcDbDictionaryWithDefault
  3
ObjectDBX Classes
 90
0
 91
0
280
0
281
0
  0
CLASS
  1
SUN
  2
AcDbSun
  3
SCENEOE
 90
1153
 91
0
280
0
281
0
  0
CLASS
  1
VISUALSTYLE
  2
AcDbVisualStyle
  3
ObjectDBX Classes
 90
4095
 91
0
280
0
281
0
  0
CLASS
  1
MATERIAL
  2
AcDbMaterial
  3
ObjectDBX Classes
 90
1153
 91
0
280
0
281
0
  0
CLASS
  1
SCALE
  2
AcDbScale
  3
ObjectDBX Classes
 90
1153
 91
0
280
0
281
0
  0
CLASS
  1
TABLESTYLE
  2
AcDbTableStyle
  3
ObjectDBX Classes
 90
4095
 91
0
280
0
281
0
  0
CLASS
  1
MLEADERSTYLE
  2
AcDbMLeaderStyle
  3
ACDB_MLEADERSTYLE_CLASS
 90
4095
 91
0
280
0
281
0
  0
CLASS
  1
DICTIONARYVAR
  2
AcDbDictionaryVar
  3
ObjectDBX Classes
 90
0
 91
0
280
0
281
0
  0
CLASS
  1
CELLSTYLEMAP
  2
AcDbCellStyleMap
  3
ObjectDBX Classes
 90
1152
 91
0
280
0
281
0
  0
CLASS
  1
MENTALRAYRENDERSETTINGS
  2
AcDbMentalRayRenderSettings
  3
SCENEOE
 90
1024
 91
0
280
0
281
0
  0
CLASS
  1
ACDBDETAILVIEWSTYLE
  2
AcDbDetailViewStyle
  3
ObjectDBX Classes
 90
1025
 91
0
280
0
281
0
  0
CLASS
  1
ACDBSECTIONVIEWSTYLE
  2
AcDbSectionViewStyle
  3
ObjectDBX Classes
 90
1025
 91
0
280
0
281
0
  0
CLASS
  1
RASTERVARIABLES
  2
AcDbRasterVariables
  3
ISM
 90
0
 91
0
280
0
281
0
  0
CLASS
  1
LAYOUT
  2
AcDbLayout
  3
ObjectDBX Classes
 90
0
 91
0
280
0
281
0
  0
CLASS
  1
ACDBPLACEHOLDER
  2
AcDbPlaceHolder
  3
ObjectDBX Classes
 90
0
 91
0
280
0
281
0
  0
ENDSEC
  0
SECTION
  2
TABLES
  0
TABLE
  2
VPORT
  5
8
330
0
100
AcDbSymbolTable
 70
1
  0
VPORT
  5
23
330
8
100
AcDbSymbolTableRecord
100
AcDbViewportTableRecord
  2
*Active
 70
0
 10
0.0
 20
0.0
 11
1.0
 21
1.0
 12
344.2
 22
148.5
 13
0.0
 23
0.0
 14
0.5
 24
0.5
 15
0.5
 25
0.5
 16
0.0
 26
0.0
 36
1.0
 17
0.0
 27
0.0
 37
0.0
 40
297.0
 41
1.34
 42
50.0
 43
0.0
 44
0.0
 50
0.0
 51
0.0
 71
0
 72
1000
 73
1
 74
3
 75
0
 76
0
 77
0
 78
0
281
0
 65
0
146
0.0
  0
ENDTAB
  0
TABLE
  2
LTYPE
  5
2
330
0
100
AcDbSymbolTable
 70
3
  0
LTYPE
  5
24
330
2
100
AcDbSymbolTableRecord
100
AcDbLinetypeTableRecord
  2
ByBlock
 70
0
  3

 72
65
 73
0
 40
0.0
  0
LTYPE
  5
25
330
2
100
AcDbSymbolTableRecord
100
AcDbLinetypeTableRecord
  2
ByLayer
 70
0
  3

 72
65
 73
0
 40
0.0
  0
LTYPE
  5
26
330
2
100
AcDbSymbolTableRecord
100
AcDbLinetypeTableRecord
  2
Continuous
 70
0
  3

 72
65
 73
0
 40
0.0
  0
ENDTAB
  0
TABLE
  2
LAYER
  5
1
330
0
100
AcDbSymbolTable
 70
3
  0
LAYER
  5
27
330
1
100
AcDbSymbolTableRecord
100
AcDbLayerTableRecord
  2
0
 70
0
 62
7
  6
Continuous
370
-3
390
13
347
21
  0
LAYER
  5
28
330
1
100
AcDbSymbolTableRecord
100
AcDbLayerTableRecord
  2
Defpoints
 70
0
 62
7
  6
Continuous
290
0
370
-3
390
13
347
21
  0
LAYER
  5
2D
330
1
100
AcDbSymbolTableRecord
100
AcDbLayerTableRecord
  2
TOP
 70
0
 62
1
  6
Continuous
370
0
390
13
347
21
  0
ENDTAB
  0
TABLE
  2
STYLE
  5
5
330
0
100
AcDbSymbolTable
 70
1
  0
STYLE
  5
29
330
5
100
AcDbSymbolTableRecord
100
AcDbTextStyleTableRecord
  2
Standard
 70
0
 40
0.0
 41
1.0
 50
0.0
 71
0
 42
2.5
  3
txt
  4

  0
ENDTAB
  0
TABLE
  2
VIEW
  5
7
330
0
100
AcDbSymbolTable
 70
0
  0
ENDTAB
  0
TABLE
  2
UCS
  5
6
330
0
100
AcDbSymbolTable
 70
0
  0
ENDTAB
  0
TABLE
  2
APPID
  5
3
330
0
100
AcDbSymbolTable
 70
2
  0
APPID
  5
2A
330
3
100
AcDbSymbolTableRecord
100
AcDbRegAppTableRecord
  2
ACAD
 70
0
  0
APPID
  5
2B0
330
3
100
AcDbSymbolTableRecord
100
AcDbRegAppTableRecord
  2
HATCHBACKGROUNDCOLOR
 70
0
  0
ENDTAB
  0
TABLE
  2
DIMSTYLE
  5
4
330
0
100
AcDbSymbolTable
 70
1
100
AcDbDimStyleTable
  0
DIMSTYLE
105
2B
330
4
100
AcDbSymbolTableRecord
100
AcDbDimStyleTableRecord
  2
Standard
 70
0
 40
1.0
 41
2.5
 42
0.625
 43
3.75
 44
1.25
 45
0.0
 46
0.0
 47
0.0
 48
0.0
 49
2.5
140
2.5
141
2.5
142
0.0
143
0.03937007874
144
1.0
145
0.0
146
1.0
147
0.625
148
0.0
 69
0
 70
0
 71
0
 72
0
 73
0
 74
0
 75
0
 76
0
 77
1
 78
8
 79
0
170
0
171
3
172
1
173
0
174
0
175
0
176
0
177
0
178
0
179
0
271
0
272
2
273
2
274
3
275
0
276
0
277
2
278
44
279
0
280
0
281
0
282
0
283
0
284
8
285
0
286
0
288
0
289
3
290
0
371
-2
372
-2
  0
ENDTAB
  0
TABLE
  2
BLOCK_RECORD
  5
9
330
0
100
AcDbSymbolTable
 70
2
  0
BLOCK_RECORD
  5
17
330
9
100
AcDbSymbolTableRecord
100
AcDbBlockTableRecord
  2
*Model_Space
340
1A
 70
0
280
1
281
0
  0
BLOCK_RECORD
  5
1B
330
9
100
AcDbSymbolTableRecord
100
AcDbBlockTableRecord
  2
*Paper_Space
340
1E
 70
0
280
1
281
0
  0
ENDTAB
  0
ENDSEC
  0
SECTION
  2
BLOCKS
  0
BLOCK
  5
18
330
17
100
AcDbEntity
  8
0
100
AcDbBlockBegin
  2
*Model_Space
 70
0
 10
0.0
 20
0.0
 30
0.0
  3
*Model_Space
  1

  0
ENDBLK
  5
19
330
17
100
AcDbEntity
  8
0
100
AcDbBlockEnd
  0
BLOCK
  5
1C
330
1B
100
AcDbEntity
  8
0
100
AcDbBlockBegin
  2
*Paper_Space
 70
0
 10
0.0
 20
0.0
 30
0.0
  3
*Paper_Space
  1

  0
ENDBLK
  5
1D
330
1B
100
AcDbEntity
  8
0
100
AcDbBlockEnd
  0
ENDSEC
  0
SECTION
  2
ENTITIES
  0
LINE
  5
2E
330
17
100
AcDbEntity
  8
TOP
100
AcDbLine
 10
0.0
 20
6.622641509433962
 30
0.0
 11
2.350564774799467
 21
5.250838241770838
 31
0.0
  0
LINE
  5
2F
330
17
100
AcDbEntity
  8
TOP
100
AcDbLine
 10
3.219493933256142
 20
5.250838241770838
 30
0.0
 11
5.570058708055609
 21
6.622641509433962
 31
0.0
  0
LINE
  5
30
330
17
100
AcDbEntity
  8
TOP
100
AcDbLine
 10
5.570058708055609
 20
6.622641509433962
 30
0.0
 11
7.920623482855077
 21
5.250838241770838
 31
0.0
  0
LINE
  5
31
330
17
100
AcDbEntity
  8
TOP
100
AcDbLine
 10
8.789552641311753
 20
5.250838241770838
 30
0.0
 11
11.140117416111218
 21
6.622641509433962
 31
0.0
  0
LINE
  5
32
330
17
100
AcDbEntity
  8
TOP
100
AcDbLine
 10
11.140117416111218
 20
6.622641509433962
 30
0.0
 11
13.490682190910684
 21
5.250838241770838
 31
0.0
  0
LINE
  5
33
330
17
100
AcDbEntity
  8
TOP
100
AcDbLine
 10
14.359611349367361
 20
5.250838241770838
 30
0.0
 11
16.71017612416683
 21
6.622641509433962
 31
0.0
  0
LINE
  5
34
330
17
100
AcDbEntity
  8
TOP
100
AcDbLine
 10
16.71017612416683
 20
6.622641509433962
 30
0.0
 11
19.060740898966294
 21
5.250838241770838
 31
0.0
  0
LINE
  5
35
330
17
100
AcDbEntity
  8
TOP
100
AcDbLine
 10
19.929670057422967
 20
5.250838241770838
 30
0.0
 11
22.280234832222437
 21
6.622641509433962
 31
0.0
  0
LINE
  5
36
330
17
100
AcDbEntity
  8
TOP
100
AcDbLine
 10
22.280234832222437
 20
6.622641509433962
 30
0.0
 11
24.630799607021906
 21
5.250838241770838
 31
0.0
  0
LINE
  5
37
330
17
100
AcDbEntity
  8
TOP
100
AcDbLine
 10
25.49972876547858
 20
5.250838241770838
 30
0.0
 11
27.850293540278045
 21
6.622641509433962
 31
0.0
  0
LINE
  5
38
330
17
100
AcDbEntity
  8
TOP
100
AcDbLine
 10
27.850293540278045
 20
6.622641509433962
 30
0.0
 11
30.200858315077515
 21
5.250838241770838
 31
0.0
  0
LINE
  5
39
330
17
100
AcDbEntity
  8
TOP
100
AcDbLine
 10
31.069787473534188
 20
5.250838241770838
 30
0.0
 11
33.42035224833366
 21
6.622641509433962
 31
0.0
  0
LINE
  5
3A
330
17
100
AcDbEntity
  8
TOP
100
AcDbLine
 10
0.43446457922833753
 20
6.8734797512048
 30
0.0
 11
2.7850293540278046
 21
8.245283018867925
 31
0.0
  0
LINE
  5
3B
330
17
100
AcDbEntity
  8
TOP
100
AcDbLine
 10
2.7850293540278046
 20
8.245283018867925
 30
0.0
 11
5.135594128827272
 21
6.8734797512048
 31
0.0
  0
LINE
  5
3C
330
17
100
AcDbEntity
  8
TOP
100
AcDbLine
 10
6.004523287283947
 20
6.8734797512048
 30
0.0
 11
8.355088062083414
 21
8.245283018867925
 31
0.0
  0
LINE
  5
3D
330
17
100
AcDbEntity
  8
TOP
100
AcDbLine
 10
8.355088062083414
 20
8.245283018867925
 30
0.0
 11
10.70565283688288
 21
6.8734797512048
 31
0.0
  0
LINE
  5
3E
330
17
100
AcDbEntity
  8
TOP
100
AcDbLine
 10
11.574581995339557
 20
6.8734797512048
 30
0.0
 11
13.925146770139023
 21
8.245283018867925
 31
0.0
  0
LINE
  5
3F
330
17
100
AcDbEntity
  8
TOP
100
AcDbLine
 10
13.925146770139023
 20
8.245283018867925
 30
0.0
 11
16.275711544938492
 21
6.8734797512048
 31
0.0
  0
LINE
  5
40
330
17
100
AcDbEntity
  8
TOP
100
AcDbLine
 10
17.144640703395165
 20
6.8734797512048
 30
0.0
 11
19.49520547819463
 21
8.245283018867925
 31
0.0
  0
LINE
  5
41
330
17
100
AcDbEntity
  8
TOP
100
AcDbLine
 10
19.49520547819463
 20
8.245283018867925
 30
0.0
 11
21.8457702529941
 21
6.8734797512048
 31
0.0
  0
LINE
  5
42
330
17
100
AcDbEntity
  8
TOP
100
AcDbLine
 10
22.714699411450773
 20
6.8734797512048
 30
0.0
 11
25.065264186250243
 21
8.245283018867925
 31
0.0
  0
LINE
  5
43
330
17
100
AcDbEntity
  8
TOP
100
AcDbLine
 10
25.065264186250243
 20
8.245283018867925
 30
0.0
 11
27.41582896104971
 21
6.8734797512048
 31
0.0
  0
LINE
  5
44
330
17
100
AcDbEntity
  8
TOP
100
AcDbLine
 10
28.28475811950638
 20
6.8734797512048
 30
0.0
 11
30.63532289430585
 21
8.245283018867925
 31
0.0
  0
LINE
  5
45
330
17
100
AcDbEntity
  8
TOP
100
AcDbLine
 10
30.63532289430585
 20
8.245283018867925
 30
0.0
 11
32.98588766910532
 21
6.8734797512048
 31
0.0
  0
LINE
  5
46
330
17
100
AcDbEntity
  8
TOP
100
AcDbLine
 10
0.0
 20
9.867924528301888
 30
0.0
 11
2.350564774799467
 21
8.496121260638763
 31
0.0
  0
LINE
  5
47
330
17
100
AcDbEntity
  8
TOP
100
AcDbLine
 10
3.219493933256142
 20
8.496121260638763
 30
0.0
 11
5.570058708055609
 21
9.867924528301888
 31
0.0
  0
LINE
  5
48
330
17
100
AcDbEntity
  8
TOP
100
AcDbLine
 10
5.570058708055609
 20
9.867924528301888
 30
0.0
 11
7.920623482855077
 21
8.496121260638763
 31
0.0
  0
LINE
  5
49
330
17
100
AcDbEntity
  8
TOP
100
AcDbLine
 10
8.789552641311753
 20
8.496121260638763
 30
0.0
 11
11.140117416111218
 21
9.867924528301888
 31
0.0
  0
LINE
  5
4A
330
17
100
AcDbEntity
  8
TOP
100
AcDbLine
 10
11.140117416111218
 20
9.867924528301888
 30
0.0
 11
13.490682190910684
 21
8.496121260638763
 31
0.0
  0
LINE
  5
4B
330
17
100
AcDbEntity
  8
TOP
100
AcDbLine
 10
14.359611349367361
 20
8.496121260638763
 30
0.0
 11
16.71017612416683
 21
9.867924528301888
 31
0.0
  0
LINE
  5
4C
330
17
100
AcDbEntity
  8
TOP
100
AcDbLine
 10
16.71017612416683
 20
9.867924528301888
 30
0.0
 11
19.060740898966294
 21
8.496121260638763
 31
0.0
  0
LINE
  5
4D
330
17
100
AcDbEntity
  8
TOP
100
AcDbLine
 10
19.929670057422967
 20
8.496121260638763
 30
0.0
 11
22.280234832222437
 21
9.867924528301888
 31
0.0
  0
LINE
  5
4E
330
17
100
AcDbEntity
  8
TOP
100
AcDbLine
 10
22.280234832222437
 20
9.867924528301888
 30
0.0
 11
24.630799607021906
 21
8.496121260638763
 31
0.0
  0
LINE
  5
4F
330
17
100
AcDbEntity
  8
TOP
100
AcDbLine
 10
25.49972876547858
 20
8.496121260638763
 30
0.0
 11
27.850293540278045
 21
9.867924528301888
 31
0.0
  0
LINE
  5
50
330
17
100
AcDbEntity
  8
TOP
100
AcDbLine
 10
27.850293540278045
 20
9.867924528301888
 30
0.0
 11
30.200858315077515
 21
8.496121260638763
 31
0.0
  0
LINE
  5
51
330
17
100
AcDbEntity
  8
TOP
100
AcDbLine
 10
31.069787473534188
 20
8.496121260638763
 30
0.0
 11
33.42035224833366
 21
9.867924528301888
 31
0.0
  0
LINE
  5
52
330
17
100
AcDbEntity
  8
TOP
100
AcDbLine
 10
0.43446457922833753
 20
10.118762770072724
 30
0.0
 11
2.7850293540278046
 21
11.49056603773585
 31
0.0
  0
LINE
  5
53
330
17
100
AcDbEntity
  8
TOP
100
AcDbLine
 10
2.7850293540278046
 20
11.49056603773585
 30
0.0
 11
5.135594128827272
 21
10.118762770072724
 31
0.0
  0
LINE
  5
54
330
17
100
AcDbEntity
  8
TOP
100
AcDbLine
 10
6.004523287283947
 20
10.118762770072724
 30
0.0
 11
8.355088062083414
 21
11.49056603773585
 31
0.0
  0
LINE
  5
55
330
17
100
AcDbEntity
  8
TOP
100
AcDbLine
 10
8.355088062083414
 20
11.49056603773585
 30
0.0
 11
10.70565283688288
 21
10.118762770072724
 31
0.0
  0
LINE
  5
56
330
17
100
AcDbEntity
  8
TOP
100
AcDbLine
 10
11.574581995339557
 20
10.118762770072724
 30
0.0
 11
13.925146770139023
 21
11.49056603773585
 31
0.0
  0
LINE
  5
57
330
17
100
AcDbEntity
  8
TOP
100
AcDbLine
 10
13.925146770139023
 20
11.49056603773585
 30
0.0
 11
16.275711544938492
 21
10.118762770072724
 31
0.0
  0
LINE
  5
58
330
17
100
AcDbEntity
  8
TOP
100
AcDbLine
 10
17.144640703395165
 20
10.118762770072724
 30
0.0
 11
19.49520547819463
 21
11.49056603773585
 31
0.0
  0
LINE
  5
59
330
17
100
AcDbEntity
  8
TOP
100
AcDbLine
 10
19.49520547819463
 20
11.49056603773585
 30
0.0
 11
21.8457702529941
 21
10.118762770072724
 31
0.0
  0
LINE
  5
5A
330
17
100
AcDbEntity
  8
TOP
100
AcDbLine
 10
22.714699411450773
 20
10.118762770072724
 30
0.0
 11
25.065264186250243
 21
11.49056603773585
 31
0.0
  0
LINE
  5
5B
330
17
100
AcDbEntity
  8
TOP
100
AcDbLine
 10
25.065264186250243
 20
11.49056603773585
 30
0.0
 11
27.41582896104971
 21
10.118762770072724
 31
0.0
  0
LINE
  5
5C
330
17
100
AcDbEntity
  8
TOP
100
AcDbLine
 10
28.28475811950638
 20
10.118762770072724
 30
0.0
 11
30.63532289430585
 21
11.49056603773585
 31
0.0
  0
LINE
  5
5D
330
17
100
AcDbEntity
  8
TOP
100
AcDbLine
 10
30.63532289430585
 20
11.49056603773585
 30
0.0
 11
32.98588766910532
 21
10.118762770072724
 31
0.0
  0
LINE
  5
5E
330
17
100
AcDbEntity
  8
TOP
100
AcDbLine
 10
0.0
 20
13.11320754716981
 30
0.0
 11
2.350564774799467
 21
11.741404279506687
 31
0.0
  0
LINE
  5
5F
330
17
100
AcDbEntity
  8
TOP
100
AcDbLine
 10
3.219493933256142
 20
11.741404279506687
 30
0.0
 11
5.570058708055609
 21
13.11320754716981
 31
0.0
  0
LINE
  5
60
330
17
100
AcDbEntity
  8
TOP
100
AcDbLine
 10
5.570058708055609
 20
13.11320754716981
 30
0.0
 11
7.920623482855077
 21
11.741404279506687
 31
0.0
  0
LINE
  5
61
330
17
100
AcDbEntity
  8
TOP
100
AcDbLine
 10
8.789552641311753
 20
11.741404279506687
 30
0.0
 11
11.140117416111218
 21
13.11320754716981
 31
0.0
  0
LINE
  5
62
330
17
100
AcDbEntity
  8
TOP
100
AcDbLine
 10
11.140117416111218
 20
13.11320754716981
 30
0.0
 11
13.490682190910684
 21
11.741404279506687
 31
0.0
  0
LINE
  5
63
330
17
100
AcDbEntity
  8
TOP
100
AcDbLine
 10
14.359611349367361
 20
11.741404279506687
 30
0.0
 11
16.71017612416683
 21
13.11320754716981
 31
0.0
  0
LINE
  5
64
330
17
100
AcDbEntity
  8
TOP
100
AcDbLine
 10
16.71017612416683
 20
13.11320754716981
 30
0.0
 11
19.060740898966294
 21
11.741404279506687
 31
0.0
  0
LINE
  5
65
330
17
100
AcDbEntity
  8
TOP
100
AcDbLine
 10
19.929670057422967
 20
11.741404279506687
 30
0.0
 11
22.280234832222437
 21
13.11320754716981
 31
0.0
  0
LINE
  5
66
330
17
100
AcDbEntity
  8
TOP
100
AcDbLine
 10
22.280234832222437
 20
13.11320754716981
 30
0.0
 11
24.630799607021906
 21
11.741404279506687
 31
0.0
  0
LINE
  5
67
330
17
100
AcDbEntity
  8
TOP
100
AcDbLine
 10
25.49972876547858
 20
11.741404279506687
 30
0.0
 11
27.850293540278045
 21
13.11320754716981
 31
0.0
  0
LINE
  5
68
330
17
100
AcDbEntity
  8
TOP
100
AcDbLine
 10
27.850293540278045
 20
13.11320754716981
 30
0.0
 11
30.200858315077515
 21
11.741404279506687
 31
0.0
  0
LINE
  5
69
330
17
100
AcDbEntity
  8
TOP
100
AcDbLine
 10
31.069787473534188
 20
11.741404279506687
 30
0.0
 11
33.42035224833366
 21
13.11320754716981
 31
0.0
  0
LINE
  5
6A
330
17
100
AcDbEntity
  8
TOP
100
AcDbLine
 10
0.43446457922833753
 20
13.364045788940649
 30
0.0
 11
2.7850293540278046
 21
14.735849056603774
 31
0.0
  0
LINE
  5
6B
330
17
100
AcDbEntity
  8
TOP
100
AcDbLine
 10
2.7850293540278046
 20
14.735849056603774
 30
0.0
 11
5.135594128827272
 21
13.364045788940649
 31
0.0
  0
LINE
  5
6C
330
17
100
AcDbEntity
  8
TOP
100
AcDbLine
 10
6.004523287283947
 20
13.364045788940649
 30
0.0
 11
8.355088062083414
 21
14.735849056603774
 31
0.0
  0
LINE
  5
6D
330
17
100
AcDbEntity
  8
TOP
100
AcDbLine
 10
8.355088062083414
 20
14.735849056603774
 30
0.0
 11
10.70565283688288
 21
13.364045788940649
 31
0.0
  0
LINE
  5
6E
330
17
100
AcDbEntity
  8
TOP
100
AcDbLine
 10
11.574581995339557
 20
13.364045788940649
 30
0.0
 11
13.925146770139023
 21
14.735849056603774
 31
0.0
  0
LINE
  5
6F
330
17
100
AcDbEntity
  8
TOP
100
AcDbLine
 10
13.925146770139023
 20
14.735849056603774
 30
0.0
 11
16.275711544938492
 21
13.364045788940649
 31
0.0
  0
LINE
  5
70
330
17
100
AcDbEntity
  8
TOP
100
AcDbLine
 10
17.144640703395165
 20
13.364045788940649
 30
0.0
 11
19.49520547819463
 21
14.735849056603774
 31
0.0
  0
LINE
  5
71
330
17
100
AcDbEntity
  8
TOP
100
AcDbLine
 10
19.49520547819463
 20
14.735849056603774
 30
0.0
 11
21.8457702529941
 21
13.364045788940649
 31
0.0
  0
LINE
  5
72
330
17
100
AcDbEntity
  8
TOP
100
AcDbLine
 10
22.714699411450773
 20
13.364045788940649
 30
0.0
 11
25.065264186250243
 21
14.735849056603774
 31
0.0
  0
LINE
  5
73
330
17
100
AcDbEntity
  8
TOP
100
AcDbLine
 10
25.065264186250243
 20
14.735849056603774
 30
0.0
 11
27.41582896104971
 21
13.364045788940649
 31
0.0
  0
LINE
  5
74
330
17
100
AcDbEntity
  8
TOP
100
AcDbLine
 10
28.28475811950638
 20
13.364045788940649
 30
0.0
 11
30.63532289430585
 21
14.735849056603774
 31
0.0
  0
LINE
  5
75
330
17
100
AcDbEntity
  8
TOP
100
AcDbLine
 10
30.63532289430585
 20
14.735849056603774
 30
0.0
 11
32.98588766910532
 21
13.364045788940649
 31
0.0
  0
LINE
  5
76
330
17
100
AcDbEntity
  8
TOP
100
AcDbLine
 10
0.0
 20
16.358490566037737
 30
0.0
 11
2.350564774799467
 21
14.986687298374612
 31
0.0
  0
LINE
  5
77
330
17
100
AcDbEntity
  8
TOP
100
AcDbLine
 10
3.219493933256142
 20
14.986687298374612
 30
0.0
 11
5.570058708055609
 21
16.358490566037737
 31
0.0
  0
LINE
  5
78
330
17
100
AcDbEntity
  8
TOP
100
AcDbLine
 10
5.570058708055609
 20
16.358490566037737
 30
0.0
 11
7.920623482855077
 21
14.986687298374612
 31
0.0
  0
LINE
  5
79
330
17
100
AcDbEntity
  8
TOP
100
AcDbLine
 10
8.789552641311753
 20
14.986687298374612
 30
0.0
 11
11.140117416111218
 21
16.358490566037737
 31
0.0
  0
LINE
  5
7A
330
17
100
AcDbEntity
  8
TOP
100
AcDbLine
 10
11.140117416111218
 20
16.358490566037737
 30
0.0
 11
13.490682190910684
 21
14.986687298374612
 31
0.0
  0
LINE
  5
7B
330
17
100
AcDbEntity
  8
TOP
100
AcDbLine
 10
14.359611349367361
 20
14.986687298374612
 30
0.0
 11
16.71017612416683
 21
16.358490566037737
 31
0.0
  0
LINE
  5
7C
330
17
100
AcDbEntity
  8
TOP
100
AcDbLine
 10
16.71017612416683
 20
16.358490566037737
 30
0.0
 11
19.060740898966294
 21
14.986687298374612
 31
0.0
  0
LINE
  5
7D
330
17
100
AcDbEntity
  8
TOP
100
AcDbLine
 10
19.929670057422967
 20
14.986687298374612
 30
0.0
 11
22.280234832222437
 21
16.358490566037737
 31
0.0
  0
LINE
  5
7E
330
17
100
AcDbEntity
  8
TOP
100
AcDbLine
 10
22.280234832222437
 20
16.358490566037737
 30
0.0
 11
24.630799607021906
 21
14.986687298374612
 31
0.0
  0
LINE
  5
7F
330
17
100
AcDbEntity
  8
TOP
100
AcDbLine
 10
25.49972876547858
 20
14.986687298374612
 30
0.0
 11
27.850293540278045
 21
16.358490566037737
 31
0.0
  0
LINE
  5
80
330
17
100
AcDbEntity
  8
TOP
100
AcDbLine
 10
27.850293540278045
 20
16.358490566037737
 30
0.0
 11
30.200858315077515
 21
14.986687298374612
 31
0.0
  0
LINE
  5
81
330
17
100
AcDbEntity
  8
TOP
100
AcDbLine
 10
31.069787473534188
 20
14.986687298374612
 30
0.0
 11
33.42035224833366
 21
16.358490566037737
 31
0.0
  0
LINE
  5
82
330
17
100
AcDbEntity
  8
TOP
100
AcDbLine
 10
0.43446457922833753
 20
16.609328807808573
 30
0.0
 11
2.7850293540278046
 21
17.9811320754717
 31
0.0
  0
LINE
  5
83
330
17
100
AcDbEntity
  8
TOP
100
AcDbLine
 10
2.7850293540278046
 20
17.9811320754717
 30
0.0
 11
5.135594128827272
 21
16.609328807808573
 31
0.0
  0
LINE
  5
84
330
17
100
AcDbEntity
  8
TOP
100
AcDbLine
 10
6.004523287283947
 20
16.609328807808573
 30
0.0
 11
8.355088062083414
 21
17.9811320754717
 31
0.0
  0
LINE
  5
85
330
17
100
AcDbEntity
  8
TOP
100
AcDbLine
 10
8.355088062083414
 20
17.9811320754717
 30
0.0
 11
10.70565283688288
 21
16.609328807808573
 31
0.0
  0
LINE
  5
86
330
17
100
AcDbEntity
  8
TOP
100
AcDbLine
 10
11.574581995339557
 20
16.609328807808573
 30
0.0
 11
13.925146770139023
 21
17.9811320754717
 31
0.0
  0
LINE
  5
87
330
17
100
AcDbEntity
  8
TOP
100
AcDbLine
 10
13.925146770139023
 20
17.9811320754717
 30
0.0
 11
16.275711544938492
 21
16.609328807808573
 31
0.0
  0
LINE
  5
88
330
17
100
AcDbEntity
  8
TOP
100
AcDbLine
 10
17.144640703395165
 20
16.609328807808573
 30
0.0
 11
19.49520547819463
 21
17.9811320754717
 31
0.0
  0
LINE
  5
89
330
17
100
AcDbEntity
  8
TOP
100
AcDbLine
 10
19.49520547819463
 20
17.9811320754717
 30
0.0
 11
21.8457702529941
 21
16.609328807808573
 31
0.0
  0
LINE
  5
8A
330
17
100
AcDbEntity
  8
TOP
100
AcDbLine
 10
22.714699411450773
 20
16.609328807808573
 30
0.0
 11
25.065264186250243
 21
17.9811320754717
 31
0.0
  0
LINE
  5
8B
330
17
100
AcDbEntity
  8
TOP
100
AcDbLine
 10
25.065264186250243
 20
17.9811320754717
 30
0.0
 11
27.41582896104971
 21
16.609328807808573
 31
0.0
  0
LINE
  5
8C
330
17
100
AcDbEntity
  8
TOP
100
AcDbLine
 10
28.28475811950638
 20
16.609328807808573
 30
0.0
 11
30.63532289430585
 21
17.9811320754717
 31
0.0
  0
LINE
  5
8D
330
17
100
AcDbEntity
  8
TOP
100
AcDbLine
 10
30.63532289430585
 20
17.9811320754717
 30
0.0
 11
32.98588766910532
 21
16.609328807808573
 31
0.0
  0
LINE
  5
8E
330
17
100
AcDbEntity
  8
TOP
100
AcDbLine
 10
0.0
 20
19.60377358490566
 30
0.0
 11
2.350564774799467
 21
18.231970317242535
 31
0.0
  0
LINE
  5
8F
330
17
100
AcDbEntity
  8
TOP
100
AcDbLine
 10
3.219493933256142
 20
18.231970317242535
 30
0.0
 11
5.570058708055609
 21
19.60377358490566
 31
0.0
  0
LINE
  5
90
330
17
100
AcDbEntity
  8
TOP
100
AcDbLine
 10
5.570058708055609
 20
19.60377358490566
 30
0.0
 11
7.920623482855077
 21
18.231970317242535
 31
0.0
  0
LINE
  5
91
330
17
100
AcDbEntity
  8
TOP
100
AcDbLine
 10
8.789552641311753
 20
18.231970317242535
 30
0.0
 11
11.140117416111218
 21
19.60377358490566
 31
0.0
  0
LINE
  5
92
330
17
100
AcDbEntity
  8
TOP
100
AcDbLine
 10
11.140117416111218
 20
19.60377358490566
 30
0.0
 11
13.490682190910684
 21
18.231970317242535
 31
0.0
  0
LINE
  5
93
330
17
100
AcDbEntity
  8
TOP
100
AcDbLine
 10
14.359611349367361
 20
18.231970317242535
 30
0.0
 11
16.71017612416683
 21
19.60377358490566
 31
0.0
  0
LINE
  5
94
330
17
100
AcDbEntity
  8
TOP
100
AcDbLine
 10
16.71017612416683
 20
19.60377358490566
 30
0.0
 11
19.060740898966294
 21
18.231970317242535
 31
0.0
  0
LINE
  5
95
330
17
100
AcDbEntity
  8
TOP
100
AcDbLine
 10
19.929670057422967
 20
18.231970317242535
 30
0.0
 11
22.280234832222437
 21
19.60377358490566
 31
0.0
  0
LINE
  5
96
330
17
100
AcDbEntity
  8
TOP
100
AcDbLine
 10
22.280234832222437
 20
19.60377358490566
 30
0.0
 11
24.630799607021906
 21
18.231970317242535
 31
0.0
  0
LINE
  5
97
330
17
100
AcDbEntity
  8
TOP
100
AcDbLine
 10
25.49972876547858
 20
18.231970317242535
 30
0.0
 11
27.850293540278045
 21
19.60377358490566
 31
0.0
  0
LINE
  5
98
330
17
100
AcDbEntity
  8
TOP
100
AcDbLine
 10
27.850293540278045
 20
19.60377358490566
 30
0.0
 11
30.200858315077515
 21
18.231970317242535
 31
0.0
  0
LINE
  5
99
330
17
100
AcDbEntity
  8
TOP
100
AcDbLine
 10
31.069787473534188
 20
18.231970317242535
 30
0.0
 11
33.42035224833366
 21
19.60377358490566
 31
0.0
  0
LINE
  5
9A
330
17
100
AcDbEntity
  8
TOP
100
AcDbLine
 10
0.43446457922833753
 20
19.854611826676496
 30
0.0
 11
2.7850293540278046
 21
21.22641509433962
 31
0.0
  0
LINE
  5
9B
330
17
100
AcDbEntity
  8
TOP
100
AcDbLine
 10
2.7850293540278046
 20
21.22641509433962
 30
0.0
 11
5.135594128827272
 21
19.854611826676496
 31
0.0
  0
LINE
  5
9C
330
17
100
AcDbEntity
  8
TOP
100
AcDbLine
 10
6.004523287283947
 20
19.854611826676496
 30
0.0
 11
8.355088062083414
 21
21.22641509433962
 31
0.0
  0
LINE
  5
9D
330
17
100
AcDbEntity
  8
TOP
100
AcDbLine
 10
8.355088062083414
 20
21.22641509433962
 30
0.0
 11
10.70565283688288
 21
19.854611826676496
 31
0.0
  0
LINE
  5
9E
330
17
100
AcDbEntity
  8
TOP
100
AcDbLine
 10
11.574581995339557
 20
19.854611826676496
 30
0.0
 11
13.925146770139023
 21
21.22641509433962
 31
0.0
  0
LINE
  5
9F
330
17
100
AcDbEntity
  8
TOP
100
AcDbLine
 10
13.925146770139023
 20
21.22641509433962
 30
0.0
 11
16.275711544938492
 21
19.854611826676496
 31
0.0
  0
LINE
  5
A0
330
17
100
AcDbEntity
  8
TOP
100
AcDbLine
 10
17.144640703395165
 20
19.854611826676496
 30
0.0
 11
19.49520547819463
 21
21.22641509433962
 31
0.0
  0
LINE
  5
A1
330
17
100
AcDbEntity
  8
TOP
100
AcDbLine
 10
19.49520547819463
 20
21.22641509433962
 30
0.0
 11
21.8457702529941
 21
19.854611826676496
 31
0.0
  0
LINE
  5
A2
330
17
100
AcDbEntity
  8
TOP
100
AcDbLine
 10
22.714699411450773
 20
19.854611826676496
 30
0.0
 11
25.065264186250243
 21
21.22641509433962
 31
0.0
  0
LINE
  5
A3
330
17
100
AcDbEntity
  8
TOP
100
AcDbLine
 10
25.065264186250243
 20
21.22641509433962
 30
0.0
 11
27.41582896104971
 21
19.854611826676496
 31
0.0
  0
LINE
  5
A4
330
17
100
AcDbEntity
  8
TOP
100
AcDbLine
 10
28.28475811950638
 20
19.854611826676496
 30
0.0
 11
30.63532289430585
 21
21.22641509433962
 31
0.0
  0
LINE
  5
A5
330
17
100
AcDbEntity
  8
TOP
100
AcDbLine
 10
30.63532289430585
 20
21.22641509433962
 30
0.0
 11
32.98588766910532
 21
19.854611826676496
 31
0.0
  0
LINE
  5
A6
330
17
100
AcDbEntity
  8
TOP
100
AcDbLine
 10
0.0
 20
22.849056603773587
 30
0.0
 11
2.350564774799467
 21
21.47725333611046
 31
0.0
  0
LINE
  5
A7
330
17
100
AcDbEntity
  8
TOP
100
AcDbLine
 10
3.219493933256142
 20
21.47725333611046
 30
0.0
 11
5.570058708055609
 21
22.849056603773587
 31
0.0
  0
LINE
  5
A8
330
17
100
AcDbEntity
  8
TOP
100
AcDbLine
 10
5.570058708055609
 20
22.849056603773587
 30
0.0
 11
7.920623482855077
 21
21.47725333611046
 31
0.0
  0
LINE
  5
A9
330
17
100
AcDbEntity
  8
TOP
100
AcDbLine
 10
8.789552641311753
 20
21.47725333611046
 30
0.0
 11
11.140117416111218
 21
22.849056603773587
 31
0.0
  0
LINE
  5
AA
330
17
100
AcDbEntity
  8
TOP
100
AcDbLine
 10
11.140117416111218
 20
22.849056603773587
 30
0.0
 11
13.490682190910684
 21
21.47725333611046
 31
0.0
  0
LINE
  5
AB
330
17
100
AcDbEntity
  8
TOP
100
AcDbLine
 10
14.359611349367361
 20
21.47725333611046
 30
0.0
 11
16.71017612416683
 21
22.849056603773587
 31
0.0
  0
LINE
  5
AC
330
17
100
AcDbEntity
  8
TOP
100
AcDbLine
 10
16.71017612416683
 20
22.849056603773587
 30
0.0
 11
19.060740898966294
 21
21.47725333611046
 31
0.0
  0
LINE
  5
AD
330
17
100
AcDbEntity
  8
TOP
100
AcDbLine
 10
19.929670057422967
 20
21.47725333611046
 30
0.0
 11
22.280234832222437
 21
22.849056603773587
 31
0.0
  0
LINE
  5
AE
330
17
100
AcDbEntity
  8
TOP
100
AcDbLine
 10
22.280234832222437
 20
22.849056603773587
 30
0.0
 11
24.630799607021906
 21
21.47725333611046
 31
0.0
  0
LINE
  5
AF
330
17
100
AcDbEntity
  8
TOP
100
AcDbLine
 10
25.49972876547858
 20
21.47725333611046
 30
0.0
 11
27.850293540278045
 21
22.849056603773587
 31
0.0
  0
LINE
  5
B0
330
17
100
AcDbEntity
  8
TOP
100
AcDbLine
 10
27.850293540278045
 20
22.849056603773587
 30
0.0
 11
30.200858315077515
 21
21.47725333611046
 31
0.0
  0
LINE
  5
B1
330
17
100
AcDbEntity
  8
TOP
100
AcDbLine
 10
31.069787473534188
 20
21.47725333611046
 30
0.0
 11
33.42035224833366
 21
22.849056603773587
 31
0.0
  0
LINE
  5
B2
330
17
100
AcDbEntity
  8
TOP
100
AcDbLine
 10
0.43446457922833753
 20
23.099894845544426
 30
0.0
 11
2.7850293540278046
 21
24.471698113207548
 31
0.0
  0
LINE
  5
B3
330
17
100
AcDbEntity
  8
TOP
100
AcDbLine
 10
2.7850293540278046
 20
24.471698113207548
 30
0.0
 11
5.135594128827272
 21
23.099894845544426
 31
0.0
  0
LINE
  5
B4
330
17
100
AcDbEntity
  8
TOP
100
AcDbLine
 10
6.004523287283947
 20
23.099894845544426
 30
0.0
 11
8.355088062083414
 21
24.471698113207548
 31
0.0
  0
LINE
  5
B5
330
17
100
AcDbEntity
  8
TOP
100
AcDbLine
 10
8.355088062083414
 20
24.471698113207548
 30
0.0
 11
10.70565283688288
 21
23.099894845544426
 31
0.0
  0
LINE
  5
B6
330
17
100
AcDbEntity
  8
TOP
100
AcDbLine
 10
11.574581995339557
 20
23.099894845544426
 30
0.0
 11
13.925146770139023
 21
24.471698113207548
 31
0.0
  0
LINE
  5
B7
330
17
100
AcDbEntity
  8
TOP
100
AcDbLine
 10
13.925146770139023
 20
24.471698113207548
 30
0.0
 11
16.275711544938492
 21
23.099894845544426
 31
0.0
  0
LINE
  5
B8
330
17
100
AcDbEntity
  8
TOP
100
AcDbLine
 10
17.144640703395165
 20
23.099894845544426
 30
0.0
 11
19.49520547819463
 21
24.471698113207548
 31
0.0
  0
LINE
  5
B9
330
17
100
AcDbEntity
  8
TOP
100
AcDbLine
 10
19.49520547819463
 20
24.471698113207548
 30
0.0
 11
21.8457702529941
 21
23.099894845544426
 31
0.0
  0
LINE
  5
BA
330
17
100
AcDbEntity
  8
TOP
100
AcDbLine
 10
22.714699411450773
 20
23.099894845544426
 30
0.0
 11
25.065264186250243
 21
24.471698113207548
 31
0.0
  0
LINE
  5
BB
330
17
100
AcDbEntity
  8
TOP
100
AcDbLine
 10
25.065264186250243
 20
24.471698113207548
 30
0.0
 11
27.41582896104971
 21
23.099894845544426
 31
0.0
  0
LINE
  5
BC
330
17
100
AcDbEntity
  8
TOP
100
AcDbLine
 10
28.28475811950638
 20
23.099894845544426
 30
0.0
 11
30.63532289430585
 21
24.471698113207548
 31
0.0
  0
LINE
  5
BD
330
17
100
AcDbEntity
  8
TOP
100
AcDbLine
 10
30.63532289430585
 20
24.471698113207548
 30
0.0
 11
32.98588766910532
 21
23.099894845544426
 31
0.0
  0
LINE
  5
BE
330
17
100
AcDbEntity
  8
TOP
100
AcDbLine
 10
0.0
 20
26.09433962264151
 30
0.0
 11
2.350564774799467
 21
24.722536354978388
 31
0.0
  0
LINE
  5
BF
330
17
100
AcDbEntity
  8
TOP
100
AcDbLine
 10
3.219493933256142
 20
24.722536354978388
 30
0.0
 11
5.570058708055609
 21
26.09433962264151
 31
0.0
  0
LINE
  5
C0
330
17
100
AcDbEntity
  8
TOP
100
AcDbLine
 10
5.570058708055609
 20
26.09433962264151
 30
0.0
 11
7.920623482855077
 21
24.722536354978388
 31
0.0
  0
LINE
  5
C1
330
17
100
AcDbEntity
  8
TOP
100
AcDbLine
 10
8.789552641311753
 20
24.722536354978388
 30
0.0
 11
11.140117416111218
 21
26.09433962264151
 31
0.0
  0
LINE
  5
C2
330
17
100
AcDbEntity
  8
TOP
100
AcDbLine
 10
11.140117416111218
 20
26.09433962264151
 30
0.0
 11
13.490682190910684
 21
24.722536354978388
 31
0.0
  0
LINE
  5
C3
330
17
100
AcDbEntity
  8
TOP
100
AcDbLine
 10
14.359611349367361
 20
24.722536354978388
 30
0.0
 11
16.71017612416683
 21
26.09433962264151
 31
0.0
  0
LINE
  5
C4
330
17
100
AcDbEntity
  8
TOP
100
AcDbLine
 10
16.71017612416683
 20
26.09433962264151
 30
0.0
 11
19.060740898966294
 21
24.722536354978388
 31
0.0
  0
LINE
  5
C5
330
17
100
AcDbEntity
  8
TOP
100
AcDbLine
 10
19.929670057422967
 20
24.722536354978388
 30
0.0
 11
22.280234832222437
 21
26.09433962264151
 31
0.0
  0
LINE
  5
C6
330
17
100
AcDbEntity
  8
TOP
100
AcDbLine
 10
22.280234832222437
 20
26.09433962264151
 30
0.0
 11
24.630799607021906
 21
24.722536354978388
 31
0.0
  0
LINE
  5
C7
330
17
100
AcDbEntity
  8
TOP
100
AcDbLine
 10
25.49972876547858
 20
24.722536354978388
 30
0.0
 11
27.850293540278045
 21
26.09433962264151
 31
0.0
  0
LINE
  5
C8
330
17
100
AcDbEntity
  8
TOP
100
AcDbLine
 10
27.850293540278045
 20
26.09433962264151
 30
0.0
 11
30.200858315077515
 21
24.722536354978388
 31
0.0
  0
LINE
  5
C9
330
17
100
AcDbEntity
  8
TOP
100
AcDbLine
 10
31.069787473534188
 20
24.722536354978388
 30
0.0
 11
33.42035224833366
 21
26.09433962264151
 31
0.0
  0
LINE
  5
CA
330
17
100
AcDbEntity
  8
TOP
100
AcDbLine
 10
0.43446457922833753
 20
26.34517786441235
 30
0.0
 11
2.7850293540278046
 21
27.716981132075475
 31
0.0
  0
LINE
  5
CB
330
17
100
AcDbEntity
  8
TOP
100
AcDbLine
 10
2.7850293540278046
 20
27.716981132075475
 30
0.0
 11
5.135594128827272
 21
26.34517786441235
 31
0.0
  0
LINE
  5
CC
330
17
100
AcDbEntity
  8
TOP
100
AcDbLine
 10
6.004523287283947
 20
26.34517786441235
 30
0.0
 11
8.355088062083414
 21
27.716981132075475
 31
0.0
  0
LINE
  5
CD
330
17
100
AcDbEntity
  8
TOP
100
AcDbLine
 10
8.355088062083414
 20
27.716981132075475
 30
0.0
 11
10.70565283688288
 21
26.34517786441235
 31
0.0
  0
LINE
  5
CE
330
17
100
AcDbEntity
  8
TOP
100
AcDbLine
 10
11.574581995339557
 20
26.34517786441235
 30
0.0
 11
13.925146770139023
 21
27.716981132075475
 31
0.0
  0
LINE
  5
CF
330
17
100
AcDbEntity
  8
TOP
100
AcDbLine
 10
13.925146770139023
 20
27.716981132075475
 30
0.0
 11
16.275711544938492
 21
26.34517786441235
 31
0.0
  0
LINE
  5
D0
330
17
100
AcDbEntity
  8
TOP
100
AcDbLine
 10
17.144640703395165
 20
26.34517786441235
 30
0.0
 11
19.49520547819463
 21
27.716981132075475
 31
0.0
  0
LINE
  5
D1
330
17
100
AcDbEntity
  8
TOP
100
AcDbLine
 10
19.49520547819463
 20
27.716981132075475
 30
0.0
 11
21.8457702529941
 21
26.34517786441235
 31
0.0
  0
LINE
  5
D2
330
17
100
AcDbEntity
  8
TOP
100
AcDbLine
 10
22.714699411450773
 20
26.34517786441235
 30
0.0
 11
25.065264186250243
 21
27.716981132075475
 31
0.0
  0
LINE
  5
D3
330
17
100
AcDbEntity
  8
TOP
100
AcDbLine
 10
25.065264186250243
 20
27.716981132075475
 30
0.0
 11
27.41582896104971
 21
26.34517786441235
 31
0.0
  0
LINE
  5
D4
330
17
100
AcDbEntity
  8
TOP
100
AcDbLine
 10
28.28475811950638
 20
26.34517786441235
 30
0.0
 11
30.63532289430585
 21
27.716981132075475
 31
0.0
  0
LINE
  5
D5
330
17
100
AcDbEntity
  8
TOP
100
AcDbLine
 10
30.63532289430585
 20
27.716981132075475
 30
0.0
 11
32.98588766910532
 21
26.34517786441235
 31
0.0
  0
LINE
  5
D6
330
17
100
AcDbEntity
  8
TOP
100
AcDbLine
 10
0.0
 20
29.339622641509436
 30
0.0
 11
2.350564774799467
 21
27.967819373846314
 31
0.0
  0
LINE
  5
D7
330
17
100
AcDbEntity
  8
TOP
100
AcDbLine
 10
3.219493933256142
 20
27.967819373846314
 30
0.0
 11
5.570058708055609
 21
29.339622641509436
 31
0.0
  0
LINE
  5
D8
330
17
100
AcDbEntity
  8
TOP
100
AcDbLine
 10
5.570058708055609
 20
29.339622641509436
 30
0.0
 11
7.920623482855077
 21
27.967819373846314
 31
0.0
  0
LINE
  5
D9
330
17
100
AcDbEntity
  8
TOP
100
AcDbLine
 10
8.789552641311753
 20
27.967819373846314
 30
0.0
 11
11.140117416111218
 21
29.339622641509436
 31
0.0
  0
LINE
  5
DA
330
17
100
AcDbEntity
  8
TOP
100
AcDbLine
 10
11.140117416111218
 20
29.339622641509436
 30
0.0
 11
13.490682190910684
 21
27.967819373846314
 31
0.0
  0
LINE
  5
DB
330
17
100
AcDbEntity
  8
TOP
100
AcDbLine
 10
14.359611349367361
 20
27.967819373846314
 30
0.0
 11
16.71017612416683
 21
29.339622641509436
 31
0.0
  0
LINE
  5
DC
330
17
100
AcDbEntity
  8
TOP
100
AcDbLine
 10
16.71017612416683
 20
29.339622641509436
 30
0.0
 11
19.060740898966294
 21
27.967819373846314
 31
0.0
  0
LINE
  5
DD
330
17
100
AcDbEntity
  8
TOP
100
AcDbLine
 10
19.929670057422967
 20
27.967819373846314
 30
0.0
 11
22.280234832222437
 21
29.339622641509436
 31
0.0
  0
LINE
  5
DE
330
17
100
AcDbEntity
  8
TOP
100
AcDbLine
 10
22.280234832222437
 20
29.339622641509436
 30
0.0
 11
24.630799607021906
 21
27.967819373846314
 31
0.0
  0
LINE
  5
DF
330
17
100
AcDbEntity
  8
TOP
100
AcDbLine
 10
25.49972876547858
 20
27.967819373846314
 30
0.0
 11
27.850293540278045
 21
29.339622641509436
 31
0.0
  0
LINE
  5
E0
330
17
100
AcDbEntity
  8
TOP
100
AcDbLine
 10
27.850293540278045
 20
29.339622641509436
 30
0.0
 11
30.200858315077515
 21
27.967819373846314
 31
0.0
  0
LINE
  5
E1
330
17
100
AcDbEntity
  8
TOP
100
AcDbLine
 10
31.069787473534188
 20
27.967819373846314
 30
0.0
 11
33.42035224833366
 21
29.339622641509436
 31
0.0
  0
LINE
  5
E2
330
17
100
AcDbEntity
  8
TOP
100
AcDbLine
 10
0.43446457922833753
 20
29.590460883280276
 30
0.0
 11
2.7850293540278046
 21
30.962264150943398
 31
0.0
  0
LINE
  5
E3
330
17
100
AcDbEntity
  8
TOP
100
AcDbLine
 10
2.7850293540278046
 20
30.962264150943398
 30
0.0
 11
5.135594128827272
 21
29.590460883280276
 31
0.0
  0
LINE
  5
E4
330
17
100
AcDbEntity
  8
TOP
100
AcDbLine
 10
6.004523287283947
 20
29.590460883280276
 30
0.0
 11
8.355088062083414
 21
30.962264150943398
 31
0.0
  0
LINE
  5
E5
330
17
100
AcDbEntity
  8
TOP
100
AcDbLine
 10
8.355088062083414
 20
30.962264150943398
 30
0.0
 11
10.70565283688288
 21
29.590460883280276
 31
0.0
  0
LINE
  5
E6
330
17
100
AcDbEntity
  8
TOP
100
AcDbLine
 10
11.574581995339557
 20
29.590460883280276
 30
0.0
 11
13.925146770139023
 21
30.962264150943398
 31
0.0
  0
LINE
  5
E7
330
17
100
AcDbEntity
  8
TOP
100
AcDbLine
 10
13.925146770139023
 20
30.962264150943398
 30
0.0
 11
16.275711544938492
 21
29.590460883280276
 31
0.0
  0
LINE
  5
E8
330
17
100
AcDbEntity
  8
TOP
100
AcDbLine
 10
17.144640703395165
 20
29.590460883280276
 30
0.0
 11
19.49520547819463
 21
30.962264150943398
 31
0.0
  0
LINE
  5
E9
330
17
100
AcDbEntity
  8
TOP
100
AcDbLine
 10
19.49520547819463
 20
30.962264150943398
 30
0.0
 11
21.8457702529941
 21
29.590460883280276
 31
0.0
  0
LINE
  5
EA
330
17
100
AcDbEntity
  8
TOP
100
AcDbLine
 10
22.714699411450773
 20
29.590460883280276
 30
0.0
 11
25.065264186250243
 21
30.962264150943398
 31
0.0
  0
LINE
  5
EB
330
17
100
AcDbEntity
  8
TOP
100
AcDbLine
 10
25.065264186250243
 20
30.962264150943398
 30
0.0
 11
27.41582896104971
 21
29.590460883280276
 31
0.0
  0
LINE
  5
EC
330
17
100
AcDbEntity
  8
TOP
100
AcDbLine
 10
28.28475811950638
 20
29.590460883280276
 30
0.0
 11
30.63532289430585
 21
30.962264150943398
 31
0.0
  0
LINE
  5
ED
330
17
100
AcDbEntity
  8
TOP
100
AcDbLine
 10
30.63532289430585
 20
30.962264150943398
 30
0.0
 11
32.98588766910532
 21
29.590460883280276
 31
0.0
  0
LINE
  5
EE
330
17
100
AcDbEntity
  8
TOP
100
AcDbLine
 10
0.0
 20
32.58490566037736
 30
0.0
 11
2.350564774799467
 21
31.213102392714237
 31
0.0
  0
LINE
  5
EF
330
17
100
AcDbEntity
  8
TOP
100
AcDbLine
 10
3.219493933256142
 20
31.213102392714237
 30
0.0
 11
5.570058708055609
 21
32.58490566037736
 31
0.0
  0
LINE
  5
F0
330
17
100
AcDbEntity
  8
TOP
100
AcDbLine
 10
5.570058708055609
 20
32.58490566037736
 30
0.0
 11
7.920623482855077
 21
31.213102392714237
 31
0.0
  0
LINE
  5
F1
330
17
100
AcDbEntity
  8
TOP
100
AcDbLine
 10
8.789552641311753
 20
31.213102392714237
 30
0.0
 11
11.140117416111218
 21
32.58490566037736
 31
0.0
  0
LINE
  5
F2
330
17
100
AcDbEntity
  8
TOP
100
AcDbLine
 10
11.140117416111218
 20
32.58490566037736
 30
0.0
 11
13.490682190910684
 21
31.213102392714237
 31
0.0
  0
LINE
  5
F3
330
17
100
AcDbEntity
  8
TOP
100
AcDbLine
 10
14.359611349367361
 20
31.213102392714237
 30
0.0
 11
16.71017612416683
 21
32.58490566037736
 31
0.0
  0
LINE
  5
F4
330
17
100
AcDbEntity
  8
TOP
100
AcDbLine
 10
16.71017612416683
 20
32.58490566037736
 30
0.0
 11
19.060740898966294
 21
31.213102392714237
 31
0.0
  0
LINE
  5
F5
330
17
100
AcDbEntity
  8
TOP
100
AcDbLine
 10
19.929670057422967
 20
31.213102392714237
 30
0.0
 11
22.280234832222437
 21
32.58490566037736
 31
0.0
  0
LINE
  5
F6
330
17
100
AcDbEntity
  8
TOP
100
AcDbLine
 10
22.280234832222437
 20
32.58490566037736
 30
0.0
 11
24.630799607021906
 21
31.213102392714237
 31
0.0
  0
LINE
  5
F7
330
17
100
AcDbEntity
  8
TOP
100
AcDbLine
 10
25.49972876547858
 20
31.213102392714237
 30
0.0
 11
27.850293540278045
 21
32.58490566037736
 31
0.0
  0
LINE
  5
F8
330
17
100
AcDbEntity
  8
TOP
100
AcDbLine
 10
27.850293540278045
 20
32.58490566037736
 30
0.0
 11
30.200858315077515
 21
31.213102392714237
 31
0.0
  0
LINE
  5
F9
330
17
100
AcDbEntity
  8
TOP
100
AcDbLine
 10
31.069787473534188
 20
31.213102392714237
 30
0.0
 11
33.42035224833366
 21
32.58490566037736
 31
0.0
  0
LINE
  5
FA
330
17
100
AcDbEntity
  8
TOP
100
AcDbLine
 10
0.43446457922833753
 20
32.835743902148195
 30
0.0
 11
2.7850293540278046
 21
34.20754716981132
 31
0.0
  0
LINE
  5
FB
330
17
100
AcDbEntity
  8
TOP
100
AcDbLine
 10
2.7850293540278046
 20
34.20754716981132
 30
0.0
 11
5.135594128827272
 21
32.835743902148195
 31
0.0
  0
LINE
  5
FC
330
17
100
AcDbEntity
  8
TOP
100
AcDbLine
 10
6.004523287283947
 20
32.835743902148195
 30
0.0
 11
8.355088062083414
 21
34.20754716981132
 31
0.0
  0
LINE
  5
FD
330
17
100
AcDbEntity
  8
TOP
100
AcDbLine
 10
8.355088062083414
 20
34.20754716981132
 30
0.0
 11
10.70565283688288
 21
32.835743902148195
 31
0.0
  0
LINE
  5
FE
330
17
100
AcDbEntity
  8
TOP
100
AcDbLine
 10
11.574581995339557
 20
32.835743902148195
 30
0.0
 11
13.925146770139023
 21
34.20754716981132
 31
0.0
  0
LINE
  5
FF
330
17
100
AcDbEntity
  8
TOP
100
AcDbLine
 10
13.925146770139023
 20
34.20754716981132
 30
0.0
 11
16.275711544938492
 21
32.835743902148195
 31
0.0
  0
LINE
  5
100
330
17
100
AcDbEntity
  8
TOP
100
AcDbLine
 10
17.144640703395165
 20
32.835743902148195
 30
0.0
 11
19.49520547819463
 21
34.20754716981132
 31
0.0
  0
LINE
  5
101
330
17
100
AcDbEntity
  8
TOP
100
AcDbLine
 10
19.49520547819463
 20
34.20754716981132
 30
0.0
 11
21.8457702529941
 21
32.835743902148195
 31
0.0
  0
LINE
  5
102
330
17
100
AcDbEntity
  8
TOP
100
AcDbLine
 10
22.714699411450773
 20
32.835743902148195
 30
0.0
 11
25.065264186250243
 21
34.20754716981132
 31
0.0
  0
LINE
  5
103
330
17
100
AcDbEntity
  8
TOP
100
AcDbLine
 10
25.065264186250243
 20
34.20754716981132
 30
0.0
 11
27.41582896104971
 21
32.835743902148195
 31
0.0
  0
LINE
  5
104
330
17
100
AcDbEntity
  8
TOP
100
AcDbLine
 10
28.28475811950638
 20
32.835743902148195
 30
0.0
 11
30.63532289430585
 21
34.20754716981132
 31
0.0
  0
LINE
  5
105
330
17
100
AcDbEntity
  8
TOP
100
AcDbLine
 10
30.63532289430585
 20
34.20754716981132
 30
0.0
 11
32.98588766910532
 21
32.835743902148195
 31
0.0
  0
LINE
  5
106
330
17
100
AcDbEntity
  8
TOP
100
AcDbLine
 10
0.0
 20
35.83018867924528
 30
0.0
 11
2.350564774799467
 21
34.45838541158216
 31
0.0
  0
LINE
  5
107
330
17
100
AcDbEntity
  8
TOP
100
AcDbLine
 10
3.219493933256142
 20
34.45838541158216
 30
0.0
 11
5.570058708055609
 21
35.83018867924528
 31
0.0
  0
LINE
  5
108
330
17
100
AcDbEntity
  8
TOP
100
AcDbLine
 10
5.570058708055609
 20
35.83018867924528
 30
0.0
 11
7.920623482855077
 21
34.45838541158216
 31
0.0
  0
LINE
  5
109
330
17
100
AcDbEntity
  8
TOP
100
AcDbLine
 10
8.789552641311753
 20
34.45838541158216
 30
0.0
 11
11.140117416111218
 21
35.83018867924528
 31
0.0
  0
LINE
  5
10A
330
17
100
AcDbEntity
  8
TOP
100
AcDbLine
 10
11.140117416111218
 20
35.83018867924528
 30
0.0
 11
13.490682190910684
 21
34.45838541158216
 31
0.0
  0
LINE
  5
10B
330
17
100
AcDbEntity
  8
TOP
100
AcDbLine
 10
14.359611349367361
 20
34.45838541158216
 30
0.0
 11
16.71017612416683
 21
35.83018867924528
 31
0.0
  0
LINE
  5
10C
330
17
100
AcDbEntity
  8
TOP
100
AcDbLine
 10
16.71017612416683
 20
35.83018867924528
 30
0.0
 11
19.060740898966294
 21
34.45838541158216
 31
0.0
  0
LINE
  5
10D
330
17
100
AcDbEntity
  8
TOP
100
AcDbLine
 10
19.929670057422967
 20
34.45838541158216
 30
0.0
 11
22.280234832222437
 21
35.83018867924528
 31
0.0
  0
LINE
  5
10E
330
17
100
AcDbEntity
  8
TOP
100
AcDbLine
 10
22.280234832222437
 20
35.83018867924528
 30
0.0
 11
24.630799607021906
 21
34.45838541158216
 31
0.0
  0
LINE
  5
10F
330
17
100
AcDbEntity
  8
TOP
100
AcDbLine
 10
25.49972876547858
 20
34.45838541158216
 30
0.0
 11
27.850293540278045
 21
35.83018867924528
 31
0.0
  0
LINE
  5
110
330
17
100
AcDbEntity
  8
TOP
100
AcDbLine
 10
27.850293540278045
 20
35.83018867924528
 30
0.0
 11
30.200858315077515
 21
34.45838541158216
 31
0.0
  0
LINE
  5
111
330
17
100
AcDbEntity
  8
TOP
100
AcDbLine
 10
31.069787473534188
 20
34.45838541158216
 30
0.0
 11
33.42035224833366
 21
35.83018867924528
 31
0.0
  0
LINE
  5
112
330
17
100
AcDbEntity
  8
TOP
100
AcDbLine
 10
0.43446457922833753
 20
36.081026921016125
 30
0.0
 11
2.7850293540278046
 21
37.45283018867924
 31
0.0
  0
LINE
  5
113
330
17
100
AcDbEntity
  8
TOP
100
AcDbLine
 10
2.7850293540278046
 20
37.45283018867924
 30
0.0
 11
5.135594128827272
 21
36.081026921016125
 31
0.0
  0
LINE
  5
114
330
17
100
AcDbEntity
  8
TOP
100
AcDbLine
 10
6.004523287283947
 20
36.081026921016125
 30
0.0
 11
8.355088062083414
 21
37.45283018867924
 31
0.0
  0
LINE
  5
115
330
17
100
AcDbEntity
  8
TOP
100
AcDbLine
 10
8.355088062083414
 20
37.45283018867924
 30
0.0
 11
10.70565283688288
 21
36.081026921016125
 31
0.0
  0
LINE
  5
116
330
17
100
AcDbEntity
  8
TOP
100
AcDbLine
 10
11.574581995339557
 20
36.081026921016125
 30
0.0
 11
13.925146770139023
 21
37.45283018867924
 31
0.0
  0
LINE
  5
117
330
17
100
AcDbEntity
  8
TOP
100
AcDbLine
 10
13.925146770139023
 20
37.45283018867924
 30
0.0
 11
16.275711544938492
 21
36.081026921016125
 31
0.0
  0
LINE
  5
118
330
17
100
AcDbEntity
  8
TOP
100
AcDbLine
 10
17.144640703395165
 20
36.081026921016125
 30
0.0
 11
19.49520547819463
 21
37.45283018867924
 31
0.0
  0
LINE
  5
119
330
17
100
AcDbEntity
  8
TOP
100
AcDbLine
 10
19.49520547819463
 20
37.45283018867924
 30
0.0
 11
21.8457702529941
 21
36.081026921016125
 31
0.0
  0
LINE
  5
11A
330
17
100
AcDbEntity
  8
TOP
100
AcDbLine
 10
22.714699411450773
 20
36.081026921016125
 30
0.0
 11
25.065264186250243
 21
37.45283018867924
 31
0.0
  0
LINE
  5
11B
330
17
100
AcDbEntity
  8
TOP
100
AcDbLine
 10
25.065264186250243
 20
37.45283018867924
 30
0.0
 11
27.41582896104971
 21
36.081026921016125
 31
0.0
  0
LINE
  5
11C
330
17
100
AcDbEntity
  8
TOP
100
AcDbLine
 10
28.28475811950638
 20
36.081026921016125
 30
0.0
 11
30.63532289430585
 21
37.45283018867924
 31
0.0
  0
LINE
  5
11D
330
17
100
AcDbEntity
  8
TOP
100
AcDbLine
 10
30.63532289430585
 20
37.45283018867924
 30
0.0
 11
32.98588766910532
 21
36.081026921016125
 31
0.0
  0
LINE
  5
11E
330
17
100
AcDbEntity
  8
TOP
100
AcDbLine
 10
0.0
 20
39.07547169811321
 30
0.0
 11
2.350564774799467
 21
37.70366843045008
 31
0.0
  0
LINE
  5
11F
330
17
100
AcDbEntity
  8
TOP
100
AcDbLine
 10
3.219493933256142
 20
37.70366843045008
 30
0.0
 11
5.570058708055609
 21
39.07547169811321
 31
0.0
  0
LINE
  5
120
330
17
100
AcDbEntity
  8
TOP
100
AcDbLine
 10
5.570058708055609
 20
39.07547169811321
 30
0.0
 11
7.920623482855077
 21
37.70366843045008
 31
0.0
  0
LINE
  5
121
330
17
100
AcDbEntity
  8
TOP
100
AcDbLine
 10
8.789552641311753
 20
37.70366843045008
 30
0.0
 11
11.140117416111218
 21
39.07547169811321
 31
0.0
  0
LINE
  5
122
330
17
100
AcDbEntity
  8
TOP
100
AcDbLine
 10
11.140117416111218
 20
39.07547169811321
 30
0.0
 11
13.490682190910684
 21
37.70366843045008
 31
0.0
  0
LINE
  5
123
330
17
100
AcDbEntity
  8
TOP
100
AcDbLine
 10
14.359611349367361
 20
37.70366843045008
 30
0.0
 11
16.71017612416683
 21
39.07547169811321
 31
0.0
  0
LINE
  5
124
330
17
100
AcDbEntity
  8
TOP
100
AcDbLine
 10
16.71017612416683
 20
39.07547169811321
 30
0.0
 11
19.060740898966294
 21
37.70366843045008
 31
0.0
  0
LINE
  5
125
330
17
100
AcDbEntity
  8
TOP
100
AcDbLine
 10
19.929670057422967
 20
37.70366843045008
 30
0.0
 11
22.280234832222437
 21
39.07547169811321
 31
0.0
  0
LINE
  5
126
330
17
100
AcDbEntity
  8
TOP
100
AcDbLine
 10
22.280234832222437
 20
39.07547169811321
 30
0.0
 11
24.630799607021906
 21
37.70366843045008
 31
0.0
  0
LINE
  5
127
330
17
100
AcDbEntity
  8
TOP
100
AcDbLine
 10
25.49972876547858
 20
37.70366843045008
 30
0.0
 11
27.850293540278045
 21
39.07547169811321
 31
0.0
  0
LINE
  5
128
330
17
100
AcDbEntity
  8
TOP
100
AcDbLine
 10
27.850293540278045
 20
39.07547169811321
 30
0.0
 11
30.200858315077515
 21
37.70366843045008
 31
0.0
  0
LINE
  5
129
330
17
100
AcDbEntity
  8
TOP
100
AcDbLine
 10
31.069787473534188
 20
37.70366843045008
 30
0.0
 11
33.42035224833366
 21
39.07547169811321
 31
0.0
  0
LINE
  5
12A
330
17
100
AcDbEntity
  8
TOP
100
AcDbLine
 10
0.43446457922833753
 20
39.32630993988405
 30
0.0
 11
2.7850293540278046
 21
40.69811320754717
 31
0.0
  0
LINE
  5
12B
330
17
100
AcDbEntity
  8
TOP
100
AcDbLine
 10
2.7850293540278046
 20
40.69811320754717
 30
0.0
 11
5.135594128827272
 21
39.32630993988405
 31
0.0
  0
LINE
  5
12C
330
17
100
AcDbEntity
  8
TOP
100
AcDbLine
 10
6.004523287283947
 20
39.32630993988405
 30
0.0
 11
8.355088062083414
 21
40.69811320754717
 31
0.0
  0
LINE
  5
12D
330
17
100
AcDbEntity
  8
TOP
100
AcDbLine
 10
8.355088062083414
 20
40.69811320754717
 30
0.0
 11
10.70565283688288
 21
39.32630993988405
 31
0.0
  0
LINE
  5
12E
330
17
100
AcDbEntity
  8
TOP
100
AcDbLine
 10
11.574581995339557
 20
39.32630993988405
 30
0.0
 11
13.925146770139023
 21
40.69811320754717
 31
0.0
  0
LINE
  5
12F
330
17
100
AcDbEntity
  8
TOP
100
AcDbLine
 10
13.925146770139023
 20
40.69811320754717
 30
0.0
 11
16.275711544938492
 21
39.32630993988405
 31
0.0
  0
LINE
  5
130
330
17
100
AcDbEntity
  8
TOP
100
AcDbLine
 10
17.144640703395165
 20
39.32630993988405
 30
0.0
 11
19.49520547819463
 21
40.69811320754717
 31
0.0
  0
LINE
  5
131
330
17
100
AcDbEntity
  8
TOP
100
AcDbLine
 10
19.49520547819463
 20
40.69811320754717
 30
0.0
 11
21.8457702529941
 21
39.32630993988405
 31
0.0
  0
LINE
  5
132
330
17
100
AcDbEntity
  8
TOP
100
AcDbLine
 10
22.714699411450773
 20
39.32630993988405
 30
0.0
 11
25.065264186250243
 21
40.69811320754717
 31
0.0
  0
LINE
  5
133
330
17
100
AcDbEntity
  8
TOP
100
AcDbLine
 10
25.065264186250243
 20
40.69811320754717
 30
0.0
 11
27.41582896104971
 21
39.32630993988405
 31
0.0
  0
LINE
  5
134
330
17
100
AcDbEntity
  8
TOP
100
AcDbLine
 10
28.28475811950638
 20
39.32630993988405
 30
0.0
 11
30.63532289430585
 21
40.69811320754717
 31
0.0
  0
LINE
  5
135
330
17
100
AcDbEntity
  8
TOP
100
AcDbLine
 10
30.63532289430585
 20
40.69811320754717
 30
0.0
 11
32.98588766910532
 21
39.32630993988405
 31
0.0
  0
LINE
  5
136
330
17
100
AcDbEntity
  8
TOP
100
AcDbLine
 10
0.0
 20
42.320754716981135
 30
0.0
 11
2.350564774799467
 21
40.94895144931801
 31
0.0
  0
LINE
  5
137
330
17
100
AcDbEntity
  8
TOP
100
AcDbLine
 10
3.219493933256142
 20
40.94895144931801
 30
0.0
 11
5.570058708055609
 21
42.320754716981135
 31
0.0
  0
LINE
  5
138
330
17
100
AcDbEntity
  8
TOP
100
AcDbLine
 10
5.570058708055609
 20
42.320754716981135
 30
0.0
 11
7.920623482855077
 21
40.94895144931801
 31
0.0
  0
LINE
  5
139
330
17
100
AcDbEntity
  8
TOP
100
AcDbLine
 10
8.789552641311753
 20
40.94895144931801
 30
0.0
 11
11.140117416111218
 21
42.320754716981135
 31
0.0
  0
LINE
  5
13A
330
17
100
AcDbEntity
  8
TOP
100
AcDbLine
 10
11.140117416111218
 20
42.320754716981135
 30
0.0
 11
13.490682190910684
 21
40.94895144931801
 31
0.0
  0
LINE
  5
13B
330
17
100
AcDbEntity
  8
TOP
100
AcDbLine
 10
14.359611349367361
 20
40.94895144931801
 30
0.0
 11
16.71017612416683
 21
42.320754716981135
 31
0.0
  0
LINE
  5
13C
330
17
100
AcDbEntity
  8
TOP
100
AcDbLine
 10
16.71017612416683
 20
42.320754716981135
 30
0.0
 11
19.060740898966294
 21
40.94895144931801
 31
0.0
  0
LINE
  5
13D
330
17
100
AcDbEntity
  8
TOP
100
AcDbLine
 10
19.929670057422967
 20
40.94895144931801
 30
0.0
 11
22.280234832222437
 21
42.320754716981135
 31
0.0
  0
LINE
  5
13E
330
17
100
AcDbEntity
  8
TOP
100
AcDbLine
 10
22.280234832222437
 20
42.320754716981135
 30
0.0
 11
24.630799607021906
 21
40.94895144931801
 31
0.0
  0
LINE
  5
13F
330
17
100
AcDbEntity
  8
TOP
100
AcDbLine
 10
25.49972876547858
 20
40.94895144931801
 30
0.0
 11
27.850293540278045
 21
42.320754716981135
 31
0.0
  0
LINE
  5
140
330
17
100
AcDbEntity
  8
TOP
100
AcDbLine
 10
27.850293540278045
 20
42.320754716981135
 30
0.0
 11
30.200858315077515
 21
40.94895144931801
 31
0.0
  0
LINE
  5
141
330
17
100
AcDbEntity
  8
TOP
100
AcDbLine
 10
31.069787473534188
 20
40.94895144931801
 30
0.0
 11
33.42035224833366
 21
42.320754716981135
 31
0.0
  0
LINE
  5
142
330
17
100
AcDbEntity
  8
TOP
100
AcDbLine
 10
0.43446457922833753
 20
42.57159295875197
 30
0.0
 11
2.7850293540278046
 21
43.943396226415096
 31
0.0
  0
LINE
  5
143
330
17
100
AcDbEntity
  8
TOP
100
AcDbLine
 10
2.7850293540278046
 20
43.943396226415096
 30
0.0
 11
5.135594128827272
 21
42.57159295875197
 31
0.0
  0
LINE
  5
144
330
17
100
AcDbEntity
  8
TOP
100
AcDbLine
 10
6.004523287283947
 20
42.57159295875197
 30
0.0
 11
8.355088062083414
 21
43.943396226415096
 31
0.0
  0
LINE
  5
145
330
17
100
AcDbEntity
  8
TOP
100
AcDbLine
 10
8.355088062083414
 20
43.943396226415096
 30
0.0
 11
10.70565283688288
 21
42.57159295875197
 31
0.0
  0
LINE
  5
146
330
17
100
AcDbEntity
  8
TOP
100
AcDbLine
 10
11.574581995339557
 20
42.57159295875197
 30
0.0
 11
13.925146770139023
 21
43.943396226415096
 31
0.0
  0
LINE
  5
147
330
17
100
AcDbEntity
  8
TOP
100
AcDbLine
 10
13.925146770139023
 20
43.943396226415096
 30
0.0
 11
16.275711544938492
 21
42.57159295875197
 31
0.0
  0
LINE
  5
148
330
17
100
AcDbEntity
  8
TOP
100
AcDbLine
 10
17.144640703395165
 20
42.57159295875197
 30
0.0
 11
19.49520547819463
 21
43.943396226415096
 31
0.0
  0
LINE
  5
149
330
17
100
AcDbEntity
  8
TOP
100
AcDbLine
 10
19.49520547819463
 20
43.943396226415096
 30
0.0
 11
21.8457702529941
 21
42.57159295875197
 31
0.0
  0
LINE
  5
14A
330
17
100
AcDbEntity
  8
TOP
100
AcDbLine
 10
22.714699411450773
 20
42.57159295875197
 30
0.0
 11
25.065264186250243
 21
43.943396226415096
 31
0.0
  0
LINE
  5
14B
330
17
100
AcDbEntity
  8
TOP
100
AcDbLine
 10
25.065264186250243
 20
43.943396226415096
 30
0.0
 11
27.41582896104971
 21
42.57159295875197
 31
0.0
  0
LINE
  5
14C
330
17
100
AcDbEntity
  8
TOP
100
AcDbLine
 10
28.28475811950638
 20
42.57159295875197
 30
0.0
 11
30.63532289430585
 21
43.943396226415096
 31
0.0
  0
LINE
  5
14D
330
17
100
AcDbEntity
  8
TOP
100
AcDbLine
 10
30.63532289430585
 20
43.943396226415096
 30
0.0
 11
32.98588766910532
 21
42.57159295875197
 31
0.0
  0
LINE
  5
14E
330
17
100
AcDbEntity
  8
TOP
100
AcDbLine
 10
0.0
 20
45.56603773584906
 30
0.0
 11
2.350564774799467
 21
44.19423446818593
 31
0.0
  0
LINE
  5
14F
330
17
100
AcDbEntity
  8
TOP
100
AcDbLine
 10
3.219493933256142
 20
44.19423446818593
 30
0.0
 11
5.570058708055609
 21
45.56603773584906
 31
0.0
  0
LINE
  5
150
330
17
100
AcDbEntity
  8
TOP
100
AcDbLine
 10
5.570058708055609
 20
45.56603773584906
 30
0.0
 11
7.920623482855077
 21
44.19423446818593
 31
0.0
  0
LINE
  5
151
330
17
100
AcDbEntity
  8
TOP
100
AcDbLine
 10
8.789552641311753
 20
44.19423446818593
 30
0.0
 11
11.140117416111218
 21
45.56603773584906
 31
0.0
  0
LINE
  5
152
330
17
100
AcDbEntity
  8
TOP
100
AcDbLine
 10
11.140117416111218
 20
45.56603773584906
 30
0.0
 11
13.490682190910684
 21
44.19423446818593
 31
0.0
  0
LINE
  5
153
330
17
100
AcDbEntity
  8
TOP
100
AcDbLine
 10
14.359611349367361
 20
44.19423446818593
 30
0.0
 11
16.71017612416683
 21
45.56603773584906
 31
0.0
  0
LINE
  5
154
330
17
100
AcDbEntity
  8
TOP
100
AcDbLine
 10
16.71017612416683
 20
45.56603773584906
 30
0.0
 11
19.060740898966294
 21
44.19423446818593
 31
0.0
  0
LINE
  5
155
330
17
100
AcDbEntity
  8
TOP
100
AcDbLine
 10
19.929670057422967
 20
44.19423446818593
 30
0.0
 11
22.280234832222437
 21
45.56603773584906
 31
0.0
  0
LINE
  5
156
330
17
100
AcDbEntity
  8
TOP
100
AcDbLine
 10
22.280234832222437
 20
45.56603773584906
 30
0.0
 11
24.630799607021906
 21
44.19423446818593
 31
0.0
  0
LINE
  5
157
330
17
100
AcDbEntity
  8
TOP
100
AcDbLine
 10
25.49972876547858
 20
44.19423446818593
 30
0.0
 11
27.850293540278045
 21
45.56603773584906
 31
0.0
  0
LINE
  5
158
330
17
100
AcDbEntity
  8
TOP
100
AcDbLine
 10
27.850293540278045
 20
45.56603773584906
 30
0.0
 11
30.200858315077515
 21
44.19423446818593
 31
0.0
  0
LINE
  5
159
330
17
100
AcDbEntity
  8
TOP
100
AcDbLine
 10
31.069787473534188
 20
44.19423446818593
 30
0.0
 11
33.42035224833366
 21
45.56603773584906
 31
0.0
  0
LINE
  5
15A
330
17
100
AcDbEntity
  8
TOP
100
AcDbLine
 10
0.43446457922833753
 20
45.816875977619894
 30
0.0
 11
2.7850293540278046
 21
47.18867924528302
 31
0.0
  0
LINE
  5
15B
330
17
100
AcDbEntity
  8
TOP
100
AcDbLine
 10
2.7850293540278046
 20
47.18867924528302
 30
0.0
 11
5.135594128827272
 21
45.816875977619894
 31
0.0
  0
LINE
  5
15C
330
17
100
AcDbEntity
  8
TOP
100
AcDbLine
 10
6.004523287283947
 20
45.816875977619894
 30
0.0
 11
8.355088062083414
 21
47.18867924528302
 31
0.0
  0
LINE
  5
15D
330
17
100
AcDbEntity
  8
TOP
100
AcDbLine
 10
8.355088062083414
 20
47.18867924528302
 30
0.0
 11
10.70565283688288
 21
45.816875977619894
 31
0.0
  0
LINE
  5
15E
330
17
100
AcDbEntity
  8
TOP
100
AcDbLine
 10
11.574581995339557
 20
45.816875977619894
 30
0.0
 11
13.925146770139023
 21
47.18867924528302
 31
0.0
  0
LINE
  5
15F
330
17
100
AcDbEntity
  8
TOP
100
AcDbLine
 10
13.925146770139023
 20
47.18867924528302
 30
0.0
 11
16.275711544938492
 21
45.816875977619894
 31
0.0
  0
LINE
  5
160
330
17
100
AcDbEntity
  8
TOP
100
AcDbLine
 10
17.144640703395165
 20
45.816875977619894
 30
0.0
 11
19.49520547819463
 21
47.18867924528302
 31
0.0
  0
LINE
  5
161
330
17
100
AcDbEntity
  8
TOP
100
AcDbLine
 10
19.49520547819463
 20
47.18867924528302
 30
0.0
 11
21.8457702529941
 21
45.816875977619894
 31
0.0
  0
LINE
  5
162
330
17
100
AcDbEntity
  8
TOP
100
AcDbLine
 10
22.714699411450773
 20
45.816875977619894
 30
0.0
 11
25.065264186250243
 21
47.18867924528302
 31
0.0
  0
LINE
  5
163
330
17
100
AcDbEntity
  8
TOP
100
AcDbLine
 10
25.065264186250243
 20
47.18867924528302
 30
0.0
 11
27.41582896104971
 21
45.816875977619894
 31
0.0
  0
LINE
  5
164
330
17
100
AcDbEntity
  8
TOP
100
AcDbLine
 10
28.28475811950638
 20
45.816875977619894
 30
0.0
 11
30.63532289430585
 21
47.18867924528302
 31
0.0
  0
LINE
  5
165
330
17
100
AcDbEntity
  8
TOP
100
AcDbLine
 10
30.63532289430585
 20
47.18867924528302
 30
0.0
 11
32.98588766910532
 21
45.816875977619894
 31
0.0
  0
LINE
  5
166
330
17
100
AcDbEntity
  8
TOP
100
AcDbLine
 10
0.0
 20
48.81132075471698
 30
0.0
 11
2.350564774799467
 21
47.439517487053855
 31
0.0
  0
LINE
  5
167
330
17
100
AcDbEntity
  8
TOP
100
AcDbLine
 10
3.219493933256142
 20
47.439517487053855
 30
0.0
 11
5.570058708055609
 21
48.81132075471698
 31
0.0
  0
LINE
  5
168
330
17
100
AcDbEntity
  8
TOP
100
AcDbLine
 10
5.570058708055609
 20
48.81132075471698
 30
0.0
 11
7.920623482855077
 21
47.439517487053855
 31
0.0
  0
LINE
  5
169
330
17
100
AcDbEntity
  8
TOP
100
AcDbLine
 10
8.789552641311753
 20
47.439517487053855
 30
0.0
 11
11.140117416111218
 21
48.81132075471698
 31
0.0
  0
LINE
  5
16A
330
17
100
AcDbEntity
  8
TOP
100
AcDbLine
 10
11.140117416111218
 20
48.81132075471698
 30
0.0
 11
13.490682190910684
 21
47.439517487053855
 31
0.0
  0
LINE
  5
16B
330
17
100
AcDbEntity
  8
TOP
100
AcDbLine
 10
14.359611349367361
 20
47.439517487053855
 30
0.0
 11
16.71017612416683
 21
48.81132075471698
 31
0.0
  0
LINE
  5
16C
330
17
100
AcDbEntity
  8
TOP
100
AcDbLine
 10
16.71017612416683
 20
48.81132075471698
 30
0.0
 11
19.060740898966294
 21
47.439517487053855
 31
0.0
  0
LINE
  5
16D
330
17
100
AcDbEntity
  8
TOP
100
AcDbLine
 10
19.929670057422967
 20
47.439517487053855
 30
0.0
 11
22.280234832222437
 21
48.81132075471698
 31
0.0
  0
LINE
  5
16E
330
17
100
AcDbEntity
  8
TOP
100
AcDbLine
 10
22.280234832222437
 20
48.81132075471698
 30
0.0
 11
24.630799607021906
 21
47.439517487053855
 31
0.0
  0
LINE
  5
16F
330
17
100
AcDbEntity
  8
TOP
100
AcDbLine
 10
25.49972876547858
 20
47.439517487053855
 30
0.0
 11
27.850293540278045
 21
48.81132075471698
 31
0.0
  0
LINE
  5
170
330
17
100
AcDbEntity
  8
TOP
100
AcDbLine
 10
27.850293540278045
 20
48.81132075471698
 30
0.0
 11
30.200858315077515
 21
47.439517487053855
 31
0.0
  0
LINE
  5
171
330
17
100
AcDbEntity
  8
TOP
100
AcDbLine
 10
31.069787473534188
 20
47.439517487053855
 30
0.0
 11
33.42035224833366
 21
48.81132075471698
 31
0.0
  0
LINE
  5
172
330
17
100
AcDbEntity
  8
TOP
100
AcDbLine
 10
0.43446457922833753
 20
49.06215899648782
 30
0.0
 11
2.7850293540278046
 21
50.43396226415095
 31
0.0
  0
LINE
  5
173
330
17
100
AcDbEntity
  8
TOP
100
AcDbLine
 10
2.7850293540278046
 20
50.43396226415095
 30
0.0
 11
5.135594128827272
 21
49.06215899648782
 31
0.0
  0
LINE
  5
174
330
17
100
AcDbEntity
  8
TOP
100
AcDbLine
 10
6.004523287283947
 20
49.06215899648782
 30
0.0
 11
8.355088062083414
 21
50.43396226415095
 31
0.0
  0
LINE
  5
175
330
17
100
AcDbEntity
  8
TOP
100
AcDbLine
 10
8.355088062083414
 20
50.43396226415095
 30
0.0
 11
10.70565283688288
 21
49.06215899648782
 31
0.0
  0
LINE
  5
176
330
17
100
AcDbEntity
  8
TOP
100
AcDbLine
 10
11.574581995339557
 20
49.06215899648782
 30
0.0
 11
13.925146770139023
 21
50.43396226415095
 31
0.0
  0
LINE
  5
177
330
17
100
AcDbEntity
  8
TOP
100
AcDbLine
 10
13.925146770139023
 20
50.43396226415095
 30
0.0
 11
16.275711544938492
 21
49.06215899648782
 31
0.0
  0
LINE
  5
178
330
17
100
AcDbEntity
  8
TOP
100
AcDbLine
 10
17.144640703395165
 20
49.06215899648782
 30
0.0
 11
19.49520547819463
 21
50.43396226415095
 31
0.0
  0
LINE
  5
179
330
17
100
AcDbEntity
  8
TOP
100
AcDbLine
 10
19.49520547819463
 20
50.43396226415095
 30
0.0
 11
21.8457702529941
 21
49.06215899648782
 31
0.0
  0
LINE
  5
17A
330
17
100
AcDbEntity
  8
TOP
100
AcDbLine
 10
22.714699411450773
 20
49.06215899648782
 30
0.0
 11
25.065264186250243
 21
50.43396226415095
 31
0.0
  0
LINE
  5
17B
330
17
100
AcDbEntity
  8
TOP
100
AcDbLine
 10
25.065264186250243
 20
50.43396226415095
 30
0.0
 11
27.41582896104971
 21
49.06215899648782
 31
0.0
  0
LINE
  5
17C
330
17
100
AcDbEntity
  8
TOP
100
AcDbLine
 10
28.28475811950638
 20
49.06215899648782
 30
0.0
 11
30.63532289430585
 21
50.43396226415095
 31
0.0
  0
LINE
  5
17D
330
17
100
AcDbEntity
  8
TOP
100
AcDbLine
 10
30.63532289430585
 20
50.43396226415095
 30
0.0
 11
32.98588766910532
 21
49.06215899648782
 31
0.0
  0
LINE
  5
17E
330
17
100
AcDbEntity
  8
TOP
100
AcDbLine
 10
0.0
 20
52.05660377358491
 30
0.0
 11
2.350564774799467
 21
50.684800505921785
 31
0.0
  0
LINE
  5
17F
330
17
100
AcDbEntity
  8
TOP
100
AcDbLine
 10
3.219493933256142
 20
50.684800505921785
 30
0.0
 11
5.570058708055609
 21
52.05660377358491
 31
0.0
  0
LINE
  5
180
330
17
100
AcDbEntity
  8
TOP
100
AcDbLine
 10
5.570058708055609
 20
52.05660377358491
 30
0.0
 11
7.920623482855077
 21
50.684800505921785
 31
0.0
  0
LINE
  5
181
330
17
100
AcDbEntity
  8
TOP
100
AcDbLine
 10
8.789552641311753
 20
50.684800505921785
 30
0.0
 11
11.140117416111218
 21
52.05660377358491
 31
0.0
  0
LINE
  5
182
330
17
100
AcDbEntity
  8
TOP
100
AcDbLine
 10
11.140117416111218
 20
52.05660377358491
 30
0.0
 11
13.490682190910684
 21
50.684800505921785
 31
0.0
  0
LINE
  5
183
330
17
100
AcDbEntity
  8
TOP
100
AcDbLine
 10
14.359611349367361
 20
50.684800505921785
 30
0.0
 11
16.71017612416683
 21
52.05660377358491
 31
0.0
  0
LINE
  5
184
330
17
100
AcDbEntity
  8
TOP
100
AcDbLine
 10
16.71017612416683
 20
52.05660377358491
 30
0.0
 11
19.060740898966294
 21
50.684800505921785
 31
0.0
  0
LINE
  5
185
330
17
100
AcDbEntity
  8
TOP
100
AcDbLine
 10
19.929670057422967
 20
50.684800505921785
 30
0.0
 11
22.280234832222437
 21
52.05660377358491
 31
0.0
  0
LINE
  5
186
330
17
100
AcDbEntity
  8
TOP
100
AcDbLine
 10
22.280234832222437
 20
52.05660377358491
 30
0.0
 11
24.630799607021906
 21
50.684800505921785
 31
0.0
  0
LINE
  5
187
330
17
100
AcDbEntity
  8
TOP
100
AcDbLine
 10
25.49972876547858
 20
50.684800505921785
 30
0.0
 11
27.850293540278045
 21
52.05660377358491
 31
0.0
  0
LINE
  5
188
330
17
100
AcDbEntity
  8
TOP
100
AcDbLine
 10
27.850293540278045
 20
52.05660377358491
 30
0.0
 11
30.200858315077515
 21
50.684800505921785
 31
0.0
  0
LINE
  5
189
330
17
100
AcDbEntity
  8
TOP
100
AcDbLine
 10
31.069787473534188
 20
50.684800505921785
 30
0.0
 11
33.42035224833366
 21
52.05660377358491
 31
0.0
  0
LINE
  5
18A
330
17
100
AcDbEntity
  8
TOP
100
AcDbLine
 10
0.43446457922833753
 20
52.30744201535575
 30
0.0
 11
2.7850293540278046
 21
53.67924528301887
 31
0.0
  0
LINE
  5
18B
330
17
100
AcDbEntity
  8
TOP
100
AcDbLine
 10
2.7850293540278046
 20
53.67924528301887
 30
0.0
 11
5.135594128827272
 21
52.30744201535575
 31
0.0
  0
LINE
  5
18C
330
17
100
AcDbEntity
  8
TOP
100
AcDbLine
 10
6.004523287283947
 20
52.30744201535575
 30
0.0
 11
8.355088062083414
 21
53.67924528301887
 31
0.0
  0
LINE
  5
18D
330
17
100
AcDbEntity
  8
TOP
100
AcDbLine
 10
8.355088062083414
 20
53.67924528301887
 30
0.0
 11
10.70565283688288
 21
52.30744201535575
 31
0.0
  0
LINE
  5
18E
330
17
100
AcDbEntity
  8
TOP
100
AcDbLine
 10
11.574581995339557
 20
52.30744201535575
 30
0.0
 11
13.925146770139023
 21
53.67924528301887
 31
0.0
  0
LINE
  5
18F
330
17
100
AcDbEntity
  8
TOP
100
AcDbLine
 10
13.925146770139023
 20
53.67924528301887
 30
0.0
 11
16.275711544938492
 21
52.30744201535575
 31
0.0
  0
LINE
  5
190
330
17
100
AcDbEntity
  8
TOP
100
AcDbLine
 10
17.144640703395165
 20
52.30744201535575
 30
0.0
 11
19.49520547819463
 21
53.67924528301887
 31
0.0
  0
LINE
  5
191
330
17
100
AcDbEntity
  8
TOP
100
AcDbLine
 10
19.49520547819463
 20
53.67924528301887
 30
0.0
 11
21.8457702529941
 21
52.30744201535575
 31
0.0
  0
LINE
  5
192
330
17
100
AcDbEntity
  8
TOP
100
AcDbLine
 10
22.714699411450773
 20
52.30744201535575
 30
0.0
 11
25.065264186250243
 21
53.67924528301887
 31
0.0
  0
LINE
  5
193
330
17
100
AcDbEntity
  8
TOP
100
AcDbLine
 10
25.065264186250243
 20
53.67924528301887
 30
0.0
 11
27.41582896104971
 21
52.30744201535575
 31
0.0
  0
LINE
  5
194
330
17
100
AcDbEntity
  8
TOP
100
AcDbLine
 10
28.28475811950638
 20
52.30744201535575
 30
0.0
 11
30.63532289430585
 21
53.67924528301887
 31
0.0
  0
LINE
  5
195
330
17
100
AcDbEntity
  8
TOP
100
AcDbLine
 10
30.63532289430585
 20
53.67924528301887
 30
0.0
 11
32.98588766910532
 21
52.30744201535575
 31
0.0
  0
LINE
  5
196
330
17
100
AcDbEntity
  8
TOP
100
AcDbLine
 10
0.0
 20
55.301886792452834
 30
0.0
 11
2.350564774799467
 21
53.93008352478971
 31
0.0
  0
LINE
  5
197
330
17
100
AcDbEntity
  8
TOP
100
AcDbLine
 10
3.219493933256142
 20
53.93008352478971
 30
0.0
 11
5.570058708055609
 21
55.301886792452834
 31
0.0
  0
LINE
  5
198
330
17
100
AcDbEntity
  8
TOP
100
AcDbLine
 10
5.570058708055609
 20
55.301886792452834
 30
0.0
 11
7.920623482855077
 21
53.93008352478971
 31
0.0
  0
LINE
  5
199
330
17
100
AcDbEntity
  8
TOP
100
AcDbLine
 10
8.789552641311753
 20
53.93008352478971
 30
0.0
 11
11.140117416111218
 21
55.301886792452834
 31
0.0
  0
LINE
  5
19A
330
17
100
AcDbEntity
  8
TOP
100
AcDbLine
 10
11.140117416111218
 20
55.301886792452834
 30
0.0
 11
13.490682190910684
 21
53.93008352478971
 31
0.0
  0
LINE
  5
19B
330
17
100
AcDbEntity
  8
TOP
100
AcDbLine
 10
14.359611349367361
 20
53.93008352478971
 30
0.0
 11
16.71017612416683
 21
55.301886792452834
 31
0.0
  0
LINE
  5
19C
330
17
100
AcDbEntity
  8
TOP
100
AcDbLine
 10
16.71017612416683
 20
55.301886792452834
 30
0.0
 11
19.060740898966294
 21
53.93008352478971
 31
0.0
  0
LINE
  5
19D
330
17
100
AcDbEntity
  8
TOP
100
AcDbLine
 10
19.929670057422967
 20
53.93008352478971
 30
0.0
 11
22.280234832222437
 21
55.301886792452834
 31
0.0
  0
LINE
  5
19E
330
17
100
AcDbEntity
  8
TOP
100
AcDbLine
 10
22.280234832222437
 20
55.301886792452834
 30
0.0
 11
24.630799607021906
 21
53.93008352478971
 31
0.0
  0
LINE
  5
19F
330
17
100
AcDbEntity
  8
TOP
100
AcDbLine
 10
25.49972876547858
 20
53.93008352478971
 30
0.0
 11
27.850293540278045
 21
55.301886792452834
 31
0.0
  0
LINE
  5
1A0
330
17
100
AcDbEntity
  8
TOP
100
AcDbLine
 10
27.850293540278045
 20
55.301886792452834
 30
0.0
 11
30.200858315077515
 21
53.93008352478971
 31
0.0
  0
LINE
  5
1A1
330
17
100
AcDbEntity
  8
TOP
100
AcDbLine
 10
31.069787473534188
 20
53.93008352478971
 30
0.0
 11
33.42035224833366
 21
55.301886792452834
 31
0.0
  0
LINE
  5
1A2
330
17
100
AcDbEntity
  8
TOP
100
AcDbLine
 10
0.43446457922833753
 20
55.55272503422367
 30
0.0
 11
2.7850293540278046
 21
56.924528301886795
 31
0.0
  0
LINE
  5
1A3
330
17
100
AcDbEntity
  8
TOP
100
AcDbLine
 10
2.7850293540278046
 20
56.924528301886795
 30
0.0
 11
5.135594128827272
 21
55.55272503422367
 31
0.0
  0
LINE
  5
1A4
330
17
100
AcDbEntity
  8
TOP
100
AcDbLine
 10
6.004523287283947
 20
55.55272503422367
 30
0.0
 11
8.355088062083414
 21
56.924528301886795
 31
0.0
  0
LINE
  5
1A5
330
17
100
AcDbEntity
  8
TOP
100
AcDbLine
 10
8.355088062083414
 20
56.924528301886795
 30
0.0
 11
10.70565283688288
 21
55.55272503422367
 31
0.0
  0
LINE
  5
1A6
330
17
100
AcDbEntity
  8
TOP
100
AcDbLine
 10
11.574581995339557
 20
55.55272503422367
 30
0.0
 11
13.925146770139023
 21
56.924528301886795
 31
0.0
  0
LINE
  5
1A7
330
17
100
AcDbEntity
  8
TOP
100
AcDbLine
 10
13.925146770139023
 20
56.924528301886795
 30
0.0
 11
16.275711544938492
 21
55.55272503422367
 31
0.0
  0
LINE
  5
1A8
330
17
100
AcDbEntity
  8
TOP
100
AcDbLine
 10
17.144640703395165
 20
55.55272503422367
 30
0.0
 11
19.49520547819463
 21
56.924528301886795
 31
0.0
  0
LINE
  5
1A9
330
17
100
AcDbEntity
  8
TOP
100
AcDbLine
 10
19.49520547819463
 20
56.924528301886795
 30
0.0
 11
21.8457702529941
 21
55.55272503422367
 31
0.0
  0
LINE
  5
1AA
330
17
100
AcDbEntity
  8
TOP
100
AcDbLine
 10
22.714699411450773
 20
55.55272503422367
 30
0.0
 11
25.065264186250243
 21
56.924528301886795
 31
0.0
  0
LINE
  5
1AB
330
17
100
AcDbEntity
  8
TOP
100
AcDbLine
 10
25.065264186250243
 20
56.924528301886795
 30
0.0
 11
27.41582896104971
 21
55.55272503422367
 31
0.0
  0
LINE
  5
1AC
330
17
100
AcDbEntity
  8
TOP
100
AcDbLine
 10
28.28475811950638
 20
55.55272503422367
 30
0.0
 11
30.63532289430585
 21
56.924528301886795
 31
0.0
  0
LINE
  5
1AD
330
17
100
AcDbEntity
  8
TOP
100
AcDbLine
 10
30.63532289430585
 20
56.924528301886795
 30
0.0
 11
32.98588766910532
 21
55.55272503422367
 31
0.0
  0
LINE
  5
1AE
330
17
100
AcDbEntity
  8
TOP
100
AcDbLine
 10
0.0
 20
58.54716981132076
 30
0.0
 11
2.350564774799467
 21
57.17536654365763
 31
0.0
  0
LINE
  5
1AF
330
17
100
AcDbEntity
  8
TOP
100
AcDbLine
 10
3.219493933256142
 20
57.17536654365763
 30
0.0
 11
5.570058708055609
 21
58.54716981132076
 31
0.0
  0
LINE
  5
1B0
330
17
100
AcDbEntity
  8
TOP
100
AcDbLine
 10
5.570058708055609
 20
58.54716981132076
 30
0.0
 11
7.920623482855077
 21
57.17536654365763
 31
0.0
  0
LINE
  5
1B1
330
17
100
AcDbEntity
  8
TOP
100
AcDbLine
 10
8.789552641311753
 20
57.17536654365763
 30
0.0
 11
11.140117416111218
 21
58.54716981132076
 31
0.0
  0
LINE
  5
1B2
330
17
100
AcDbEntity
  8
TOP
100
AcDbLine
 10
11.140117416111218
 20
58.54716981132076
 30
0.0
 11
13.490682190910684
 21
57.17536654365763
 31
0.0
  0
LINE
  5
1B3
330
17
100
AcDbEntity
  8
TOP
100
AcDbLine
 10
14.359611349367361
 20
57.17536654365763
 30
0.0
 11
16.71017612416683
 21
58.54716981132076
 31
0.0
  0
LINE
  5
1B4
330
17
100
AcDbEntity
  8
TOP
100
AcDbLine
 10
16.71017612416683
 20
58.54716981132076
 30
0.0
 11
19.060740898966294
 21
57.17536654365763
 31
0.0
  0
LINE
  5
1B5
330
17
100
AcDbEntity
  8
TOP
100
AcDbLine
 10
19.929670057422967
 20
57.17536654365763
 30
0.0
 11
22.280234832222437
 21
58.54716981132076
 31
0.0
  0
LINE
  5
1B6
330
17
100
AcDbEntity
  8
TOP
100
AcDbLine
 10
22.280234832222437
 20
58.54716981132076
 30
0.0
 11
24.630799607021906
 21
57.17536654365763
 31
0.0
  0
LINE
  5
1B7
330
17
100
AcDbEntity
  8
TOP
100
AcDbLine
 10
25.49972876547858
 20
57.17536654365763
 30
0.0
 11
27.850293540278045
 21
58.54716981132076
 31
0.0
  0
LINE
  5
1B8
330
17
100
AcDbEntity
  8
TOP
100
AcDbLine
 10
27.850293540278045
 20
58.54716981132076
 30
0.0
 11
30.200858315077515
 21
57.17536654365763
 31
0.0
  0
LINE
  5
1B9
330
17
100
AcDbEntity
  8
TOP
100
AcDbLine
 10
31.069787473534188
 20
57.17536654365763
 30
0.0
 11
33.42035224833366
 21
58.54716981132076
 31
0.0
  0
LINE
  5
1BA
330
17
100
AcDbEntity
  8
TOP
100
AcDbLine
 10
0.43446457922833753
 20
58.79800805309159
 30
0.0
 11
2.7850293540278046
 21
60.16981132075472
 31
0.0
  0
LINE
  5
1BB
330
17
100
AcDbEntity
  8
TOP
100
AcDbLine
 10
2.7850293540278046
 20
60.16981132075472
 30
0.0
 11
5.135594128827272
 21
58.79800805309159
 31
0.0
  0
LINE
  5
1BC
330
17
100
AcDbEntity
  8
TOP
100
AcDbLine
 10
6.004523287283947
 20
58.79800805309159
 30
0.0
 11
8.355088062083414
 21
60.16981132075472
 31
0.0
  0
LINE
  5
1BD
330
17
100
AcDbEntity
  8
TOP
100
AcDbLine
 10
8.355088062083414
 20
60.16981132075472
 30
0.0
 11
10.70565283688288
 21
58.79800805309159
 31
0.0
  0
LINE
  5
1BE
330
17
100
AcDbEntity
  8
TOP
100
AcDbLine
 10
11.574581995339557
 20
58.79800805309159
 30
0.0
 11
13.925146770139023
 21
60.16981132075472
 31
0.0
  0
LINE
  5
1BF
330
17
100
AcDbEntity
  8
TOP
100
AcDbLine
 10
13.925146770139023
 20
60.16981132075472
 30
0.0
 11
16.275711544938492
 21
58.79800805309159
 31
0.0
  0
LINE
  5
1C0
330
17
100
AcDbEntity
  8
TOP
100
AcDbLine
 10
17.144640703395165
 20
58.79800805309159
 30
0.0
 11
19.49520547819463
 21
60.16981132075472
 31
0.0
  0
LINE
  5
1C1
330
17
100
AcDbEntity
  8
TOP
100
AcDbLine
 10
19.49520547819463
 20
60.16981132075472
 30
0.0
 11
21.8457702529941
 21
58.79800805309159
 31
0.0
  0
LINE
  5
1C2
330
17
100
AcDbEntity
  8
TOP
100
AcDbLine
 10
22.714699411450773
 20
58.79800805309159
 30
0.0
 11
25.065264186250243
 21
60.16981132075472
 31
0.0
  0
LINE
  5
1C3
330
17
100
AcDbEntity
  8
TOP
100
AcDbLine
 10
25.065264186250243
 20
60.16981132075472
 30
0.0
 11
27.41582896104971
 21
58.79800805309159
 31
0.0
  0
LINE
  5
1C4
330
17
100
AcDbEntity
  8
TOP
100
AcDbLine
 10
28.28475811950638
 20
58.79800805309159
 30
0.0
 11
30.63532289430585
 21
60.16981132075472
 31
0.0
  0
LINE
  5
1C5
330
17
100
AcDbEntity
  8
TOP
100
AcDbLine
 10
30.63532289430585
 20
60.16981132075472
 30
0.0
 11
32.98588766910532
 21
58.79800805309159
 31
0.0
  0
LINE
  5
1C6
330
17
100
AcDbEntity
  8
TOP
100
AcDbLine
 10
0.0
 20
61.79245283018868
 30
0.0
 11
2.350564774799467
 21
60.420649562525554
 31
0.0
  0
LINE
  5
1C7
330
17
100
AcDbEntity
  8
TOP
100
AcDbLine
 10
3.219493933256142
 20
60.420649562525554
 30
0.0
 11
5.570058708055609
 21
61.79245283018868
 31
0.0
  0
LINE
  5
1C8
330
17
100
AcDbEntity
  8
TOP
100
AcDbLine
 10
5.570058708055609
 20
61.79245283018868
 30
0.0
 11
7.920623482855077
 21
60.420649562525554
 31
0.0
  0
LINE
  5
1C9
330
17
100
AcDbEntity
  8
TOP
100
AcDbLine
 10
8.789552641311753
 20
60.420649562525554
 30
0.0
 11
11.140117416111218
 21
61.79245283018868
 31
0.0
  0
LINE
  5
1CA
330
17
100
AcDbEntity
  8
TOP
100
AcDbLine
 10
11.140117416111218
 20
61.79245283018868
 30
0.0
 11
13.490682190910684
 21
60.420649562525554
 31
0.0
  0
LINE
  5
1CB
330
17
100
AcDbEntity
  8
TOP
100
AcDbLine
 10
14.359611349367361
 20
60.420649562525554
 30
0.0
 11
16.71017612416683
 21
61.79245283018868
 31
0.0
  0
LINE
  5
1CC
330
17
100
AcDbEntity
  8
TOP
100
AcDbLine
 10
16.71017612416683
 20
61.79245283018868
 30
0.0
 11
19.060740898966294
 21
60.420649562525554
 31
0.0
  0
LINE
  5
1CD
330
17
100
AcDbEntity
  8
TOP
100
AcDbLine
 10
19.929670057422967
 20
60.420649562525554
 30
0.0
 11
22.280234832222437
 21
61.79245283018868
 31
0.0
  0
LINE
  5
1CE
330
17
100
AcDbEntity
  8
TOP
100
AcDbLine
 10
22.280234832222437
 20
61.79245283018868
 30
0.0
 11
24.630799607021906
 21
60.420649562525554
 31
0.0
  0
LINE
  5
1CF
330
17
100
AcDbEntity
  8
TOP
100
AcDbLine
 10
25.49972876547858
 20
60.420649562525554
 30
0.0
 11
27.850293540278045
 21
61.79245283018868
 31
0.0
  0
LINE
  5
1D0
330
17
100
AcDbEntity
  8
TOP
100
AcDbLine
 10
27.850293540278045
 20
61.79245283018868
 30
0.0
 11
30.200858315077515
 21
60.420649562525554
 31
0.0
  0
LINE
  5
1D1
330
17
100
AcDbEntity
  8
TOP
100
AcDbLine
 10
31.069787473534188
 20
60.420649562525554
 30
0.0
 11
33.42035224833366
 21
61.79245283018868
 31
0.0
  0
LINE
  5
1D2
330
17
100
AcDbEntity
  8
TOP
100
AcDbLine
 10
0.43446457922833753
 20
62.043291071959516
 30
0.0
 11
2.7850293540278046
 21
63.41509433962264
 31
0.0
  0
LINE
  5
1D3
330
17
100
AcDbEntity
  8
TOP
100
AcDbLine
 10
2.7850293540278046
 20
63.41509433962264
 30
0.0
 11
5.135594128827272
 21
62.043291071959516
 31
0.0
  0
LINE
  5
1D4
330
17
100
AcDbEntity
  8
TOP
100
AcDbLine
 10
6.004523287283947
 20
62.043291071959516
 30
0.0
 11
8.355088062083414
 21
63.41509433962264
 31
0.0
  0
LINE
  5
1D5
330
17
100
AcDbEntity
  8
TOP
100
AcDbLine
 10
8.355088062083414
 20
63.41509433962264
 30
0.0
 11
10.70565283688288
 21
62.043291071959516
 31
0.0
  0
LINE
  5
1D6
330
17
100
AcDbEntity
  8
TOP
100
AcDbLine
 10
11.574581995339557
 20
62.043291071959516
 30
0.0
 11
13.925146770139023
 21
63.41509433962264
 31
0.0
  0
LINE
  5
1D7
330
17
100
AcDbEntity
  8
TOP
100
AcDbLine
 10
13.925146770139023
 20
63.41509433962264
 30
0.0
 11
16.275711544938492
 21
62.043291071959516
 31
0.0
  0
LINE
  5
1D8
330
17
100
AcDbEntity
  8
TOP
100
AcDbLine
 10
17.144640703395165
 20
62.043291071959516
 30
0.0
 11
19.49520547819463
 21
63.41509433962264
 31
0.0
  0
LINE
  5
1D9
330
17
100
AcDbEntity
  8
TOP
100
AcDbLine
 10
19.49520547819463
 20
63.41509433962264
 30
0.0
 11
21.8457702529941
 21
62.043291071959516
 31
0.0
  0
LINE
  5
1DA
330
17
100
AcDbEntity
  8
TOP
100
AcDbLine
 10
22.714699411450773
 20
62.043291071959516
 30
0.0
 11
25.065264186250243
 21
63.41509433962264
 31
0.0
  0
LINE
  5
1DB
330
17
100
AcDbEntity
  8
TOP
100
AcDbLine
 10
25.065264186250243
 20
63.41509433962264
 30
0.0
 11
27.41582896104971
 21
62.043291071959516
 31
0.0
  0
LINE
  5
1DC
330
17
100
AcDbEntity
  8
TOP
100
AcDbLine
 10
28.28475811950638
 20
62.043291071959516
 30
0.0
 11
30.63532289430585
 21
63.41509433962264
 31
0.0
  0
LINE
  5
1DD
330
17
100
AcDbEntity
  8
TOP
100
AcDbLine
 10
30.63532289430585
 20
63.41509433962264
 30
0.0
 11
32.98588766910532
 21
62.043291071959516
 31
0.0
  0
LINE
  5
1DE
330
17
100
AcDbEntity
  8
TOP
100
AcDbLine
 10
0.0
 20
65.03773584905662
 30
0.0
 11
2.350564774799467
 21
63.66593258139348
 31
0.0
  0
LINE
  5
1DF
330
17
100
AcDbEntity
  8
TOP
100
AcDbLine
 10
3.219493933256142
 20
63.66593258139348
 30
0.0
 11
5.570058708055609
 21
65.03773584905662
 31
0.0
  0
LINE
  5
1E0
330
17
100
AcDbEntity
  8
TOP
100
AcDbLine
 10
5.570058708055609
 20
65.03773584905662
 30
0.0
 11
7.920623482855077
 21
63.66593258139348
 31
0.0
  0
LINE
  5
1E1
330
17
100
AcDbEntity
  8
TOP
100
AcDbLine
 10
8.789552641311753
 20
63.66593258139348
 30
0.0
 11
11.140117416111218
 21
65.03773584905662
 31
0.0
  0
LINE
  5
1E2
330
17
100
AcDbEntity
  8
TOP
100
AcDbLine
 10
11.140117416111218
 20
65.03773584905662
 30
0.0
 11
13.490682190910684
 21
63.66593258139348
 31
0.0
  0
LINE
  5
1E3
330
17
100
AcDbEntity
  8
TOP
100
AcDbLine
 10
14.359611349367361
 20
63.66593258139348
 30
0.0
 11
16.71017612416683
 21
65.03773584905662
 31
0.0
  0
LINE
  5
1E4
330
17
100
AcDbEntity
  8
TOP
100
AcDbLine
 10
16.71017612416683
 20
65.03773584905662
 30
0.0
 11
19.060740898966294
 21
63.66593258139348
 31
0.0
  0
LINE
  5
1E5
330
17
100
AcDbEntity
  8
TOP
100
AcDbLine
 10
19.929670057422967
 20
63.66593258139348
 30
0.0
 11
22.280234832222437
 21
65.03773584905662
 31
0.0
  0
LINE
  5
1E6
330
17
100
AcDbEntity
  8
TOP
100
AcDbLine
 10
22.280234832222437
 20
65.03773584905662
 30
0.0
 11
24.630799607021906
 21
63.66593258139348
 31
0.0
  0
LINE
  5
1E7
330
17
100
AcDbEntity
  8
TOP
100
AcDbLine
 10
25.49972876547858
 20
63.66593258139348
 30
0.0
 11
27.850293540278045
 21
65.03773584905662
 31
0.0
  0
LINE
  5
1E8
330
17
100
AcDbEntity
  8
TOP
100
AcDbLine
 10
27.850293540278045
 20
65.03773584905662
 30
0.0
 11
30.200858315077515
 21
63.66593258139348
 31
0.0
  0
LINE
  5
1E9
330
17
100
AcDbEntity
  8
TOP
100
AcDbLine
 10
31.069787473534188
 20
63.66593258139348
 30
0.0
 11
33.42035224833366
 21
65.03773584905662
 31
0.0
  0
LINE
  5
1EA
330
17
100
AcDbEntity
  8
TOP
100
AcDbLine
 10
0.43446457922833753
 20
65.28857409082744
 30
0.0
 11
2.7850293540278046
 21
66.66037735849056
 31
0.0
  0
LINE
  5
1EB
330
17
100
AcDbEntity
  8
TOP
100
AcDbLine
 10
2.7850293540278046
 20
66.66037735849056
 30
0.0
 11
5.135594128827272
 21
65.28857409082744
 31
0.0
  0
LINE
  5
1EC
330
17
100
AcDbEntity
  8
TOP
100
AcDbLine
 10
6.004523287283947
 20
65.28857409082744
 30
0.0
 11
8.355088062083414
 21
66.66037735849056
 31
0.0
  0
LINE
  5
1ED
330
17
100
AcDbEntity
  8
TOP
100
AcDbLine
 10
8.355088062083414
 20
66.66037735849056
 30
0.0
 11
10.70565283688288
 21
65.28857409082744
 31
0.0
  0
LINE
  5
1EE
330
17
100
AcDbEntity
  8
TOP
100
AcDbLine
 10
11.574581995339557
 20
65.28857409082744
 30
0.0
 11
13.925146770139023
 21
66.66037735849056
 31
0.0
  0
LINE
  5
1EF
330
17
100
AcDbEntity
  8
TOP
100
AcDbLine
 10
13.925146770139023
 20
66.66037735849056
 30
0.0
 11
16.275711544938492
 21
65.28857409082744
 31
0.0
  0
LINE
  5
1F0
330
17
100
AcDbEntity
  8
TOP
100
AcDbLine
 10
17.144640703395165
 20
65.28857409082744
 30
0.0
 11
19.49520547819463
 21
66.66037735849056
 31
0.0
  0
LINE
  5
1F1
330
17
100
AcDbEntity
  8
TOP
100
AcDbLine
 10
19.49520547819463
 20
66.66037735849056
 30
0.0
 11
21.8457702529941
 21
65.28857409082744
 31
0.0
  0
LINE
  5
1F2
330
17
100
AcDbEntity
  8
TOP
100
AcDbLine
 10
22.714699411450773
 20
65.28857409082744
 30
0.0
 11
25.065264186250243
 21
66.66037735849056
 31
0.0
  0
LINE
  5
1F3
330
17
100
AcDbEntity
  8
TOP
100
AcDbLine
 10
25.065264186250243
 20
66.66037735849056
 30
0.0
 11
27.41582896104971
 21
65.28857409082744
 31
0.0
  0
LINE
  5
1F4
330
17
100
AcDbEntity
  8
TOP
100
AcDbLine
 10
28.28475811950638
 20
65.28857409082744
 30
0.0
 11
30.63532289430585
 21
66.66037735849056
 31
0.0
  0
LINE
  5
1F5
330
17
100
AcDbEntity
  8
TOP
100
AcDbLine
 10
30.63532289430585
 20
66.66037735849056
 30
0.0
 11
32.98588766910532
 21
65.28857409082744
 31
0.0
  0
LINE
  5
1F6
330
17
100
AcDbEntity
  8
TOP
100
AcDbLine
 10
0.0
 20
68.28301886792454
 30
0.0
 11
2.350564774799467
 21
66.91121560026141
 31
0.0
  0
LINE
  5
1F7
330
17
100
AcDbEntity
  8
TOP
100
AcDbLine
 10
3.219493933256142
 20
66.91121560026141
 30
0.0
 11
5.570058708055609
 21
68.28301886792454
 31
0.0
  0
LINE
  5
1F8
330
17
100
AcDbEntity
  8
TOP
100
AcDbLine
 10
5.570058708055609
 20
68.28301886792454
 30
0.0
 11
7.920623482855077
 21
66.91121560026141
 31
0.0
  0
LINE
  5
1F9
330
17
100
AcDbEntity
  8
TOP
100
AcDbLine
 10
8.789552641311753
 20
66.91121560026141
 30
0.0
 11
11.140117416111218
 21
68.28301886792454
 31
0.0
  0
LINE
  5
1FA
330
17
100
AcDbEntity
  8
TOP
100
AcDbLine
 10
11.140117416111218
 20
68.28301886792454
 30
0.0
 11
13.490682190910684
 21
66.91121560026141
 31
0.0
  0
LINE
  5
1FB
330
17
100
AcDbEntity
  8
TOP
100
AcDbLine
 10
14.359611349367361
 20
66.91121560026141
 30
0.0
 11
16.71017612416683
 21
68.28301886792454
 31
0.0
  0
LINE
  5
1FC
330
17
100
AcDbEntity
  8
TOP
100
AcDbLine
 10
16.71017612416683
 20
68.28301886792454
 30
0.0
 11
19.060740898966294
 21
66.91121560026141
 31
0.0
  0
LINE
  5
1FD
330
17
100
AcDbEntity
  8
TOP
100
AcDbLine
 10
19.929670057422967
 20
66.91121560026141
 30
0.0
 11
22.280234832222437
 21
68.28301886792454
 31
0.0
  0
LINE
  5
1FE
330
17
100
AcDbEntity
  8
TOP
100
AcDbLine
 10
22.280234832222437
 20
68.28301886792454
 30
0.0
 11
24.630799607021906
 21
66.91121560026141
 31
0.0
  0
LINE
  5
1FF
330
17
100
AcDbEntity
  8
TOP
100
AcDbLine
 10
25.49972876547858
 20
66.91121560026141
 30
0.0
 11
27.850293540278045
 21
68.28301886792454
 31
0.0
  0
LINE
  5
200
330
17
100
AcDbEntity
  8
TOP
100
AcDbLine
 10
27.850293540278045
 20
68.28301886792454
 30
0.0
 11
30.200858315077515
 21
66.91121560026141
 31
0.0
  0
LINE
  5
201
330
17
100
AcDbEntity
  8
TOP
100
AcDbLine
 10
31.069787473534188
 20
66.91121560026141
 30
0.0
 11
33.42035224833366
 21
68.28301886792454
 31
0.0
  0
LINE
  5
202
330
17
100
AcDbEntity
  8
TOP
100
AcDbLine
 10
0.43446457922833753
 20
68.53385710969536
 30
0.0
 11
2.7850293540278046
 21
69.90566037735849
 31
0.0
  0
LINE
  5
203
330
17
100
AcDbEntity
  8
TOP
100
AcDbLine
 10
2.7850293540278046
 20
69.90566037735849
 30
0.0
 11
5.135594128827272
 21
68.53385710969536
 31
0.0
  0
LINE
  5
204
330
17
100
AcDbEntity
  8
TOP
100
AcDbLine
 10
6.004523287283947
 20
68.53385710969536
 30
0.0
 11
8.355088062083414
 21
69.90566037735849
 31
0.0
  0
LINE
  5
205
330
17
100
AcDbEntity
  8
TOP
100
AcDbLine
 10
8.355088062083414
 20
69.90566037735849
 30
0.0
 11
10.70565283688288
 21
68.53385710969536
 31
0.0
  0
LINE
  5
206
330
17
100
AcDbEntity
  8
TOP
100
AcDbLine
 10
11.574581995339557
 20
68.53385710969536
 30
0.0
 11
13.925146770139023
 21
69.90566037735849
 31
0.0
  0
LINE
  5
207
330
17
100
AcDbEntity
  8
TOP
100
AcDbLine
 10
13.925146770139023
 20
69.90566037735849
 30
0.0
 11
16.275711544938492
 21
68.53385710969536
 31
0.0
  0
LINE
  5
208
330
17
100
AcDbEntity
  8
TOP
100
AcDbLine
 10
17.144640703395165
 20
68.53385710969536
 30
0.0
 11
19.49520547819463
 21
69.90566037735849
 31
0.0
  0
LINE
  5
209
330
17
100
AcDbEntity
  8
TOP
100
AcDbLine
 10
19.49520547819463
 20
69.90566037735849
 30
0.0
 11
21.8457702529941
 21
68.53385710969536
 31
0.0
  0
LINE
  5
20A
330
17
100
AcDbEntity
  8
TOP
100
AcDbLine
 10
22.714699411450773
 20
68.53385710969536
 30
0.0
 11
25.065264186250243
 21
69.90566037735849
 31
0.0
  0
LINE
  5
20B
330
17
100
AcDbEntity
  8
TOP
100
AcDbLine
 10
25.065264186250243
 20
69.90566037735849
 30
0.0
 11
27.41582896104971
 21
68.53385710969536
 31
0.0
  0
LINE
  5
20C
330
17
100
AcDbEntity
  8
TOP
100
AcDbLine
 10
28.28475811950638
 20
68.53385710969536
 30
0.0
 11
30.63532289430585
 21
69.90566037735849
 31
0.0
  0
LINE
  5
20D
330
17
100
AcDbEntity
  8
TOP
100
AcDbLine
 10
30.63532289430585
 20
69.90566037735849
 30
0.0
 11
32.98588766910532
 21
68.53385710969536
 31
0.0
  0
LINE
  5
20E
330
17
100
AcDbEntity
  8
TOP
100
AcDbLine
 10
0.0
 20
71.52830188679246
 30
0.0
 11
2.350564774799467
 21
70.15649861912932
 31
0.0
  0
LINE
  5
20F
330
17
100
AcDbEntity
  8
TOP
100
AcDbLine
 10
3.219493933256142
 20
70.15649861912932
 30
0.0
 11
5.570058708055609
 21
71.52830188679246
 31
0.0
  0
LINE
  5
210
330
17
100
AcDbEntity
  8
TOP
100
AcDbLine
 10
5.570058708055609
 20
71.52830188679246
 30
0.0
 11
7.920623482855077
 21
70.15649861912932
 31
0.0
  0
LINE
  5
211
330
17
100
AcDbEntity
  8
TOP
100
AcDbLine
 10
8.789552641311753
 20
70.15649861912932
 30
0.0
 11
11.140117416111218
 21
71.52830188679246
 31
0.0
  0
LINE
  5
212
330
17
100
AcDbEntity
  8
TOP
100
AcDbLine
 10
11.140117416111218
 20
71.52830188679246
 30
0.0
 11
13.490682190910684
 21
70.15649861912932
 31
0.0
  0
LINE
  5
213
330
17
100
AcDbEntity
  8
TOP
100
AcDbLine
 10
14.359611349367361
 20
70.15649861912932
 30
0.0
 11
16.71017612416683
 21
71.52830188679246
 31
0.0
  0
LINE
  5
214
330
17
100
AcDbEntity
  8
TOP
100
AcDbLine
 10
16.71017612416683
 20
71.52830188679246
 30
0.0
 11
19.060740898966294
 21
70.15649861912932
 31
0.0
  0
LINE
  5
215
330
17
100
AcDbEntity
  8
TOP
100
AcDbLine
 10
19.929670057422967
 20
70.15649861912932
 30
0.0
 11
22.280234832222437
 21
71.52830188679246
 31
0.0
  0
LINE
  5
216
330
17
100
AcDbEntity
  8
TOP
100
AcDbLine
 10
22.280234832222437
 20
71.52830188679246
 30
0.0
 11
24.630799607021906
 21
70.15649861912932
 31
0.0
  0
LINE
  5
217
330
17
100
AcDbEntity
  8
TOP
100
AcDbLine
 10
25.49972876547858
 20
70.15649861912932
 30
0.0
 11
27.850293540278045
 21
71.52830188679246
 31
0.0
  0
LINE
  5
218
330
17
100
AcDbEntity
  8
TOP
100
AcDbLine
 10
27.850293540278045
 20
71.52830188679246
 30
0.0
 11
30.200858315077515
 21
70.15649861912932
 31
0.0
  0
LINE
  5
219
330
17
100
AcDbEntity
  8
TOP
100
AcDbLine
 10
31.069787473534188
 20
70.15649861912932
 30
0.0
 11
33.42035224833366
 21
71.52830188679246
 31
0.0
  0
LINE
  5
21A
330
17
100
AcDbEntity
  8
TOP
100
AcDbLine
 10
0.43446457922833753
 20
71.7791401285633
 30
0.0
 11
2.7850293540278046
 21
73.15094339622642
 31
0.0
  0
LINE
  5
21B
330
17
100
AcDbEntity
  8
TOP
100
AcDbLine
 10
2.7850293540278046
 20
73.15094339622642
 30
0.0
 11
5.135594128827272
 21
71.7791401285633
 31
0.0
  0
LINE
  5
21C
330
17
100
AcDbEntity
  8
TOP
100
AcDbLine
 10
6.004523287283947
 20
71.7791401285633
 30
0.0
 11
8.355088062083414
 21
73.15094339622642
 31
0.0
  0
LINE
  5
21D
330
17
100
AcDbEntity
  8
TOP
100
AcDbLine
 10
8.355088062083414
 20
73.15094339622642
 30
0.0
 11
10.70565283688288
 21
71.7791401285633
 31
0.0
  0
LINE
  5
21E
330
17
100
AcDbEntity
  8
TOP
100
AcDbLine
 10
11.574581995339557
 20
71.7791401285633
 30
0.0
 11
13.925146770139023
 21
73.15094339622642
 31
0.0
  0
LINE
  5
21F
330
17
100
AcDbEntity
  8
TOP
100
AcDbLine
 10
13.925146770139023
 20
73.15094339622642
 30
0.0
 11
16.275711544938492
 21
71.7791401285633
 31
0.0
  0
LINE
  5
220
330
17
100
AcDbEntity
  8
TOP
100
AcDbLine
 10
17.144640703395165
 20
71.7791401285633
 30
0.0
 11
19.49520547819463
 21
73.15094339622642
 31
0.0
  0
LINE
  5
221
330
17
100
AcDbEntity
  8
TOP
100
AcDbLine
 10
19.49520547819463
 20
73.15094339622642
 30
0.0
 11
21.8457702529941
 21
71.7791401285633
 31
0.0
  0
LINE
  5
222
330
17
100
AcDbEntity
  8
TOP
100
AcDbLine
 10
22.714699411450773
 20
71.7791401285633
 30
0.0
 11
25.065264186250243
 21
73.15094339622642
 31
0.0
  0
LINE
  5
223
330
17
100
AcDbEntity
  8
TOP
100
AcDbLine
 10
25.065264186250243
 20
73.15094339622642
 30
0.0
 11
27.41582896104971
 21
71.7791401285633
 31
0.0
  0
LINE
  5
224
330
17
100
AcDbEntity
  8
TOP
100
AcDbLine
 10
28.28475811950638
 20
71.7791401285633
 30
0.0
 11
30.63532289430585
 21
73.15094339622642
 31
0.0
  0
LINE
  5
225
330
17
100
AcDbEntity
  8
TOP
100
AcDbLine
 10
30.63532289430585
 20
73.15094339622642
 30
0.0
 11
32.98588766910532
 21
71.7791401285633
 31
0.0
  0
LINE
  5
226
330
17
100
AcDbEntity
  8
TOP
100
AcDbLine
 10
0.0
 20
74.77358490566039
 30
0.0
 11
2.350564774799467
 21
73.40178163799726
 31
0.0
  0
LINE
  5
227
330
17
100
AcDbEntity
  8
TOP
100
AcDbLine
 10
3.219493933256142
 20
73.40178163799726
 30
0.0
 11
5.570058708055609
 21
74.77358490566039
 31
0.0
  0
LINE
  5
228
330
17
100
AcDbEntity
  8
TOP
100
AcDbLine
 10
5.570058708055609
 20
74.77358490566039
 30
0.0
 11
7.920623482855077
 21
73.40178163799726
 31
0.0
  0
LINE
  5
229
330
17
100
AcDbEntity
  8
TOP
100
AcDbLine
 10
8.789552641311753
 20
73.40178163799726
 30
0.0
 11
11.140117416111218
 21
74.77358490566039
 31
0.0
  0
LINE
  5
22A
330
17
100
AcDbEntity
  8
TOP
100
AcDbLine
 10
11.140117416111218
 20
74.77358490566039
 30
0.0
 11
13.490682190910684
 21
73.40178163799726
 31
0.0
  0
LINE
  5
22B
330
17
100
AcDbEntity
  8
TOP
100
AcDbLine
 10
14.359611349367361
 20
73.40178163799726
 30
0.0
 11
16.71017612416683
 21
74.77358490566039
 31
0.0
  0
LINE
  5
22C
330
17
100
AcDbEntity
  8
TOP
100
AcDbLine
 10
16.71017612416683
 20
74.77358490566039
 30
0.0
 11
19.060740898966294
 21
73.40178163799726
 31
0.0
  0
LINE
  5
22D
330
17
100
AcDbEntity
  8
TOP
100
AcDbLine
 10
19.929670057422967
 20
73.40178163799726
 30
0.0
 11
22.280234832222437
 21
74.77358490566039
 31
0.0
  0
LINE
  5
22E
330
17
100
AcDbEntity
  8
TOP
100
AcDbLine
 10
22.280234832222437
 20
74.77358490566039
 30
0.0
 11
24.630799607021906
 21
73.40178163799726
 31
0.0
  0
LINE
  5
22F
330
17
100
AcDbEntity
  8
TOP
100
AcDbLine
 10
25.49972876547858
 20
73.40178163799726
 30
0.0
 11
27.850293540278045
 21
74.77358490566039
 31
0.0
  0
LINE
  5
230
330
17
100
AcDbEntity
  8
TOP
100
AcDbLine
 10
27.850293540278045
 20
74.77358490566039
 30
0.0
 11
30.200858315077515
 21
73.40178163799726
 31
0.0
  0
LINE
  5
231
330
17
100
AcDbEntity
  8
TOP
100
AcDbLine
 10
31.069787473534188
 20
73.40178163799726
 30
0.0
 11
33.42035224833366
 21
74.77358490566039
 31
0.0
  0
LINE
  5
232
330
17
100
AcDbEntity
  8
TOP
100
AcDbLine
 10
0.43446457922833753
 20
75.02442314743122
 30
0.0
 11
2.7850293540278046
 21
76.39622641509435
 31
0.0
  0
LINE
  5
233
330
17
100
AcDbEntity
  8
TOP
100
AcDbLine
 10
2.7850293540278046
 20
76.39622641509435
 30
0.0
 11
5.135594128827272
 21
75.02442314743122
 31
0.0
  0
LINE
  5
234
330
17
100
AcDbEntity
  8
TOP
100
AcDbLine
 10
6.004523287283947
 20
75.02442314743122
 30
0.0
 11
8.355088062083414
 21
76.39622641509435
 31
0.0
  0
LINE
  5
235
330
17
100
AcDbEntity
  8
TOP
100
AcDbLine
 10
8.355088062083414
 20
76.39622641509435
 30
0.0
 11
10.70565283688288
 21
75.02442314743122
 31
0.0
  0
LINE
  5
236
330
17
100
AcDbEntity
  8
TOP
100
AcDbLine
 10
11.574581995339557
 20
75.02442314743122
 30
0.0
 11
13.925146770139023
 21
76.39622641509435
 31
0.0
  0
LINE
  5
237
330
17
100
AcDbEntity
  8
TOP
100
AcDbLine
 10
13.925146770139023
 20
76.39622641509435
 30
0.0
 11
16.275711544938492
 21
75.02442314743122
 31
0.0
  0
LINE
  5
238
330
17
100
AcDbEntity
  8
TOP
100
AcDbLine
 10
17.144640703395165
 20
75.02442314743122
 30
0.0
 11
19.49520547819463
 21
76.39622641509435
 31
0.0
  0
LINE
  5
239
330
17
100
AcDbEntity
  8
TOP
100
AcDbLine
 10
19.49520547819463
 20
76.39622641509435
 30
0.0
 11
21.8457702529941
 21
75.02442314743122
 31
0.0
  0
LINE
  5
23A
330
17
100
AcDbEntity
  8
TOP
100
AcDbLine
 10
22.714699411450773
 20
75.02442314743122
 30
0.0
 11
25.065264186250243
 21
76.39622641509435
 31
0.0
  0
LINE
  5
23B
330
17
100
AcDbEntity
  8
TOP
100
AcDbLine
 10
25.065264186250243
 20
76.39622641509435
 30
0.0
 11
27.41582896104971
 21
75.02442314743122
 31
0.0
  0
LINE
  5
23C
330
17
100
AcDbEntity
  8
TOP
100
AcDbLine
 10
28.28475811950638
 20
75.02442314743122
 30
0.0
 11
30.63532289430585
 21
76.39622641509435
 31
0.0
  0
LINE
  5
23D
330
17
100
AcDbEntity
  8
TOP
100
AcDbLine
 10
30.63532289430585
 20
76.39622641509435
 30
0.0
 11
32.98588766910532
 21
75.02442314743122
 31
0.0
  0
LINE
  5
23E
330
17
100
AcDbEntity
  8
TOP
100
AcDbLine
 10
0.0
 20
78.01886792452831
 30
0.0
 11
2.350564774799467
 21
76.64706465686518
 31
0.0
  0
LINE
  5
23F
330
17
100
AcDbEntity
  8
TOP
100
AcDbLine
 10
3.219493933256142
 20
76.64706465686518
 30
0.0
 11
5.570058708055609
 21
78.01886792452831
 31
0.0
  0
LINE
  5
240
330
17
100
AcDbEntity
  8
TOP
100
AcDbLine
 10
5.570058708055609
 20
78.01886792452831
 30
0.0
 11
7.920623482855077
 21
76.64706465686518
 31
0.0
  0
LINE
  5
241
330
17
100
AcDbEntity
  8
TOP
100
AcDbLine
 10
8.789552641311753
 20
76.64706465686518
 30
0.0
 11
11.140117416111218
 21
78.01886792452831
 31
0.0
  0
LINE
  5
242
330
17
100
AcDbEntity
  8
TOP
100
AcDbLine
 10
11.140117416111218
 20
78.01886792452831
 30
0.0
 11
13.490682190910684
 21
76.64706465686518
 31
0.0
  0
LINE
  5
243
330
17
100
AcDbEntity
  8
TOP
100
AcDbLine
 10
14.359611349367361
 20
76.64706465686518
 30
0.0
 11
16.71017612416683
 21
78.01886792452831
 31
0.0
  0
LINE
  5
244
330
17
100
AcDbEntity
  8
TOP
100
AcDbLine
 10
16.71017612416683
 20
78.01886792452831
 30
0.0
 11
19.060740898966294
 21
76.64706465686518
 31
0.0
  0
LINE
  5
245
330
17
100
AcDbEntity
  8
TOP
100
AcDbLine
 10
19.929670057422967
 20
76.64706465686518
 30
0.0
 11
22.280234832222437
 21
78.01886792452831
 31
0.0
  0
LINE
  5
246
330
17
100
AcDbEntity
  8
TOP
100
AcDbLine
 10
22.280234832222437
 20
78.01886792452831
 30
0.0
 11
24.630799607021906
 21
76.64706465686518
 31
0.0
  0
LINE
  5
247
330
17
100
AcDbEntity
  8
TOP
100
AcDbLine
 10
25.49972876547858
 20
76.64706465686518
 30
0.0
 11
27.850293540278045
 21
78.01886792452831
 31
0.0
  0
LINE
  5
248
330
17
100
AcDbEntity
  8
TOP
100
AcDbLine
 10
27.850293540278045
 20
78.01886792452831
 30
0.0
 11
30.200858315077515
 21
76.64706465686518
 31
0.0
  0
LINE
  5
249
330
17
100
AcDbEntity
  8
TOP
100
AcDbLine
 10
31.069787473534188
 20
76.64706465686518
 30
0.0
 11
33.42035224833366
 21
78.01886792452831
 31
0.0
  0
LINE
  5
24A
330
17
100
AcDbEntity
  8
TOP
100
AcDbLine
 10
0.43446457922833753
 20
78.26970616629914
 30
0.0
 11
2.7850293540278046
 21
79.64150943396227
 31
0.0
  0
LINE
  5
24B
330
17
100
AcDbEntity
  8
TOP
100
AcDbLine
 10
2.7850293540278046
 20
79.64150943396227
 30
0.0
 11
5.135594128827272
 21
78.26970616629914
 31
0.0
  0
LINE
  5
24C
330
17
100
AcDbEntity
  8
TOP
100
AcDbLine
 10
6.004523287283947
 20
78.26970616629914
 30
0.0
 11
8.355088062083414
 21
79.64150943396227
 31
0.0
  0
LINE
  5
24D
330
17
100
AcDbEntity
  8
TOP
100
AcDbLine
 10
8.355088062083414
 20
79.64150943396227
 30
0.0
 11
10.70565283688288
 21
78.26970616629914
 31
0.0
  0
LINE
  5
24E
330
17
100
AcDbEntity
  8
TOP
100
AcDbLine
 10
11.574581995339557
 20
78.26970616629914
 30
0.0
 11
13.925146770139023
 21
79.64150943396227
 31
0.0
  0
LINE
  5
24F
330
17
100
AcDbEntity
  8
TOP
100
AcDbLine
 10
13.925146770139023
 20
79.64150943396227
 30
0.0
 11
16.275711544938492
 21
78.26970616629914
 31
0.0
  0
LINE
  5
250
330
17
100
AcDbEntity
  8
TOP
100
AcDbLine
 10
17.144640703395165
 20
78.26970616629914
 30
0.0
 11
19.49520547819463
 21
79.64150943396227
 31
0.0
  0
LINE
  5
251
330
17
100
AcDbEntity
  8
TOP
100
AcDbLine
 10
19.49520547819463
 20
79.64150943396227
 30
0.0
 11
21.8457702529941
 21
78.26970616629914
 31
0.0
  0
LINE
  5
252
330
17
100
AcDbEntity
  8
TOP
100
AcDbLine
 10
22.714699411450773
 20
78.26970616629914
 30
0.0
 11
25.065264186250243
 21
79.64150943396227
 31
0.0
  0
LINE
  5
253
330
17
100
AcDbEntity
  8
TOP
100
AcDbLine
 10
25.065264186250243
 20
79.64150943396227
 30
0.0
 11
27.41582896104971
 21
78.26970616629914
 31
0.0
  0
LINE
  5
254
330
17
100
AcDbEntity
  8
TOP
100
AcDbLine
 10
28.28475811950638
 20
78.26970616629914
 30
0.0
 11
30.63532289430585
 21
79.64150943396227
 31
0.0
  0
LINE
  5
255
330
17
100
AcDbEntity
  8
TOP
100
AcDbLine
 10
30.63532289430585
 20
79.64150943396227
 30
0.0
 11
32.98588766910532
 21
78.26970616629914
 31
0.0
  0
LINE
  5
256
330
17
100
AcDbEntity
  8
TOP
100
AcDbLine
 10
0.0
 20
81.26415094339623
 30
0.0
 11
2.350564774799467
 21
79.8923476757331
 31
0.0
  0
LINE
  5
257
330
17
100
AcDbEntity
  8
TOP
100
AcDbLine
 10
3.219493933256142
 20
79.8923476757331
 30
0.0
 11
5.570058708055609
 21
81.26415094339623
 31
0.0
  0
LINE
  5
258
330
17
100
AcDbEntity
  8
TOP
100
AcDbLine
 10
5.570058708055609
 20
81.26415094339623
 30
0.0
 11
7.920623482855077
 21
79.8923476757331
 31
0.0
  0
LINE
  5
259
330
17
100
AcDbEntity
  8
TOP
100
AcDbLine
 10
8.789552641311753
 20
79.8923476757331
 30
0.0
 11
11.140117416111218
 21
81.26415094339623
 31
0.0
  0
LINE
  5
25A
330
17
100
AcDbEntity
  8
TOP
100
AcDbLine
 10
11.140117416111218
 20
81.26415094339623
 30
0.0
 11
13.490682190910684
 21
79.8923476757331
 31
0.0
  0
LINE
  5
25B
330
17
100
AcDbEntity
  8
TOP
100
AcDbLine
 10
14.359611349367361
 20
79.8923476757331
 30
0.0
 11
16.71017612416683
 21
81.26415094339623
 31
0.0
  0
LINE
  5
25C
330
17
100
AcDbEntity
  8
TOP
100
AcDbLine
 10
16.71017612416683
 20
81.26415094339623
 30
0.0
 11
19.060740898966294
 21
79.8923476757331
 31
0.0
  0
LINE
  5
25D
330
17
100
AcDbEntity
  8
TOP
100
AcDbLine
 10
19.929670057422967
 20
79.8923476757331
 30
0.0
 11
22.280234832222437
 21
81.26415094339623
 31
0.0
  0
LINE
  5
25E
330
17
100
AcDbEntity
  8
TOP
100
AcDbLine
 10
22.280234832222437
 20
81.26415094339623
 30
0.0
 11
24.630799607021906
 21
79.8923476757331
 31
0.0
  0
LINE
  5
25F
330
17
100
AcDbEntity
  8
TOP
100
AcDbLine
 10
25.49972876547858
 20
79.8923476757331
 30
0.0
 11
27.850293540278045
 21
81.26415094339623
 31
0.0
  0
LINE
  5
260
330
17
100
AcDbEntity
  8
TOP
100
AcDbLine
 10
27.850293540278045
 20
81.26415094339623
 30
0.0
 11
30.200858315077515
 21
79.8923476757331
 31
0.0
  0
LINE
  5
261
330
17
100
AcDbEntity
  8
TOP
100
AcDbLine
 10
31.069787473534188
 20
79.8923476757331
 30
0.0
 11
33.42035224833366
 21
81.26415094339623
 31
0.0
  0
LINE
  5
262
330
17
100
AcDbEntity
  8
TOP
100
AcDbLine
 10
0.43446457922833753
 20
81.51498918516707
 30
0.0
 11
2.7850293540278046
 21
82.88679245283019
 31
0.0
  0
LINE
  5
263
330
17
100
AcDbEntity
  8
TOP
100
AcDbLine
 10
2.7850293540278046
 20
82.88679245283019
 30
0.0
 11
5.135594128827272
 21
81.51498918516707
 31
0.0
  0
LINE
  5
264
330
17
100
AcDbEntity
  8
TOP
100
AcDbLine
 10
6.004523287283947
 20
81.51498918516707
 30
0.0
 11
8.355088062083414
 21
82.88679245283019
 31
0.0
  0
LINE
  5
265
330
17
100
AcDbEntity
  8
TOP
100
AcDbLine
 10
8.355088062083414
 20
82.88679245283019
 30
0.0
 11
10.70565283688288
 21
81.51498918516707
 31
0.0
  0
LINE
  5
266
330
17
100
AcDbEntity
  8
TOP
100
AcDbLine
 10
11.574581995339557
 20
81.51498918516707
 30
0.0
 11
13.925146770139023
 21
82.88679245283019
 31
0.0
  0
LINE
  5
267
330
17
100
AcDbEntity
  8
TOP
100
AcDbLine
 10
13.925146770139023
 20
82.88679245283019
 30
0.0
 11
16.275711544938492
 21
81.51498918516707
 31
0.0
  0
LINE
  5
268
330
17
100
AcDbEntity
  8
TOP
100
AcDbLine
 10
17.144640703395165
 20
81.51498918516707
 30
0.0
 11
19.49520547819463
 21
82.88679245283019
 31
0.0
  0
LINE
  5
269
330
17
100
AcDbEntity
  8
TOP
100
AcDbLine
 10
19.49520547819463
 20
82.88679245283019
 30
0.0
 11
21.8457702529941
 21
81.51498918516707
 31
0.0
  0
LINE
  5
26A
330
17
100
AcDbEntity
  8
TOP
100
AcDbLine
 10
22.714699411450773
 20
81.51498918516707
 30
0.0
 11
25.065264186250243
 21
82.88679245283019
 31
0.0
  0
LINE
  5
26B
330
17
100
AcDbEntity
  8
TOP
100
AcDbLine
 10
25.065264186250243
 20
82.88679245283019
 30
0.0
 11
27.41582896104971
 21
81.51498918516707
 31
0.0
  0
LINE
  5
26C
330
17
100
AcDbEntity
  8
TOP
100
AcDbLine
 10
28.28475811950638
 20
81.51498918516707
 30
0.0
 11
30.63532289430585
 21
82.88679245283019
 31
0.0
  0
LINE
  5
26D
330
17
100
AcDbEntity
  8
TOP
100
AcDbLine
 10
30.63532289430585
 20
82.88679245283019
 30
0.0
 11
32.98588766910532
 21
81.51498918516707
 31
0.0
  0
LINE
  5
26E
330
17
100
AcDbEntity
  8
TOP
100
AcDbLine
 10
0.0
 20
84.50943396226415
 30
0.0
 11
2.350564774799467
 21
83.13763069460103
 31
0.0
  0
LINE
  5
26F
330
17
100
AcDbEntity
  8
TOP
100
AcDbLine
 10
3.219493933256142
 20
83.13763069460103
 30
0.0
 11
5.570058708055609
 21
84.50943396226415
 31
0.0
  0
LINE
  5
270
330
17
100
AcDbEntity
  8
TOP
100
AcDbLine
 10
5.570058708055609
 20
84.50943396226415
 30
0.0
 11
7.920623482855077
 21
83.13763069460103
 31
0.0
  0
LINE
  5
271
330
17
100
AcDbEntity
  8
TOP
100
AcDbLine
 10
8.789552641311753
 20
83.13763069460103
 30
0.0
 11
11.140117416111218
 21
84.50943396226415
 31
0.0
  0
LINE
  5
272
330
17
100
AcDbEntity
  8
TOP
100
AcDbLine
 10
11.140117416111218
 20
84.50943396226415
 30
0.0
 11
13.490682190910684
 21
83.13763069460103
 31
0.0
  0
LINE
  5
273
330
17
100
AcDbEntity
  8
TOP
100
AcDbLine
 10
14.359611349367361
 20
83.13763069460103
 30
0.0
 11
16.71017612416683
 21
84.50943396226415
 31
0.0
  0
LINE
  5
274
330
17
100
AcDbEntity
  8
TOP
100
AcDbLine
 10
16.71017612416683
 20
84.50943396226415
 30
0.0
 11
19.060740898966294
 21
83.13763069460103
 31
0.0
  0
LINE
  5
275
330
17
100
AcDbEntity
  8
TOP
100
AcDbLine
 10
19.929670057422967
 20
83.13763069460103
 30
0.0
 11
22.280234832222437
 21
84.50943396226415
 31
0.0
  0
LINE
  5
276
330
17
100
AcDbEntity
  8
TOP
100
AcDbLine
 10
22.280234832222437
 20
84.50943396226415
 30
0.0
 11
24.630799607021906
 21
83.13763069460103
 31
0.0
  0
LINE
  5
277
330
17
100
AcDbEntity
  8
TOP
100
AcDbLine
 10
25.49972876547858
 20
83.13763069460103
 30
0.0
 11
27.850293540278045
 21
84.50943396226415
 31
0.0
  0
LINE
  5
278
330
17
100
AcDbEntity
  8
TOP
100
AcDbLine
 10
27.850293540278045
 20
84.50943396226415
 30
0.0
 11
30.200858315077515
 21
83.13763069460103
 31
0.0
  0
LINE
  5
279
330
17
100
AcDbEntity
  8
TOP
100
AcDbLine
 10
31.069787473534188
 20
83.13763069460103
 30
0.0
 11
33.42035224833366
 21
84.50943396226415
 31
0.0
  0
LINE
  5
27A
330
17
100
AcDbEntity
  8
TOP
100
AcDbLine
 10
0.43446457922833753
 20
84.76027220403499
 30
0.0
 11
2.7850293540278046
 21
86.13207547169812
 31
0.0
  0
LINE
  5
27B
330
17
100
AcDbEntity
  8
TOP
100
AcDbLine
 10
2.7850293540278046
 20
86.13207547169812
 30
0.0
 11
5.135594128827272
 21
84.76027220403499
 31
0.0
  0
LINE
  5
27C
330
17
100
AcDbEntity
  8
TOP
100
AcDbLine
 10
6.004523287283947
 20
84.76027220403499
 30
0.0
 11
8.355088062083414
 21
86.13207547169812
 31
0.0
  0
LINE
  5
27D
330
17
100
AcDbEntity
  8
TOP
100
AcDbLine
 10
8.355088062083414
 20
86.13207547169812
 30
0.0
 11
10.70565283688288
 21
84.76027220403499
 31
0.0
  0
LINE
  5
27E
330
17
100
AcDbEntity
  8
TOP
100
AcDbLine
 10
11.574581995339557
 20
84.76027220403499
 30
0.0
 11
13.925146770139023
 21
86.13207547169812
 31
0.0
  0
LINE
  5
27F
330
17
100
AcDbEntity
  8
TOP
100
AcDbLine
 10
13.925146770139023
 20
86.13207547169812
 30
0.0
 11
16.275711544938492
 21
84.76027220403499
 31
0.0
  0
LINE
  5
280
330
17
100
AcDbEntity
  8
TOP
100
AcDbLine
 10
17.144640703395165
 20
84.76027220403499
 30
0.0
 11
19.49520547819463
 21
86.13207547169812
 31
0.0
  0
LINE
  5
281
330
17
100
AcDbEntity
  8
TOP
100
AcDbLine
 10
19.49520547819463
 20
86.13207547169812
 30
0.0
 11
21.8457702529941
 21
84.76027220403499
 31
0.0
  0
LINE
  5
282
330
17
100
AcDbEntity
  8
TOP
100
AcDbLine
 10
22.714699411450773
 20
84.76027220403499
 30
0.0
 11
25.065264186250243
 21
86.13207547169812
 31
0.0
  0
LINE
  5
283
330
17
100
AcDbEntity
  8
TOP
100
AcDbLine
 10
25.065264186250243
 20
86.13207547169812
 30
0.0
 11
27.41582896104971
 21
84.76027220403499
 31
0.0
  0
LINE
  5
284
330
17
100
AcDbEntity
  8
TOP
100
AcDbLine
 10
28.28475811950638
 20
84.76027220403499
 30
0.0
 11
30.63532289430585
 21
86.13207547169812
 31
0.0
  0
LINE
  5
285
330
17
100
AcDbEntity
  8
TOP
100
AcDbLine
 10
30.63532289430585
 20
86.13207547169812
 30
0.0
 11
32.98588766910532
 21
84.76027220403499
 31
0.0
  0
LINE
  5
286
330
17
100
AcDbEntity
  8
TOP
100
AcDbLine
 10
0.0
 20
87.75471698113208
 30
0.0
 11
2.350564774799467
 21
86.38291371346895
 31
0.0
  0
LINE
  5
287
330
17
100
AcDbEntity
  8
TOP
100
AcDbLine
 10
3.219493933256142
 20
86.38291371346895
 30
0.0
 11
5.570058708055609
 21
87.75471698113208
 31
0.0
  0
LINE
  5
288
330
17
100
AcDbEntity
  8
TOP
100
AcDbLine
 10
5.570058708055609
 20
87.75471698113208
 30
0.0
 11
7.920623482855077
 21
86.38291371346895
 31
0.0
  0
LINE
  5
289
330
17
100
AcDbEntity
  8
TOP
100
AcDbLine
 10
8.789552641311753
 20
86.38291371346895
 30
0.0
 11
11.140117416111218
 21
87.75471698113208
 31
0.0
  0
LINE
  5
28A
330
17
100
AcDbEntity
  8
TOP
100
AcDbLine
 10
11.140117416111218
 20
87.75471698113208
 30
0.0
 11
13.490682190910684
 21
86.38291371346895
 31
0.0
  0
LINE
  5
28B
330
17
100
AcDbEntity
  8
TOP
100
AcDbLine
 10
14.359611349367361
 20
86.38291371346895
 30
0.0
 11
16.71017612416683
 21
87.75471698113208
 31
0.0
  0
LINE
  5
28C
330
17
100
AcDbEntity
  8
TOP
100
AcDbLine
 10
16.71017612416683
 20
87.75471698113208
 30
0.0
 11
19.060740898966294
 21
86.38291371346895
 31
0.0
  0
LINE
  5
28D
330
17
100
AcDbEntity
  8
TOP
100
AcDbLine
 10
19.929670057422967
 20
86.38291371346895
 30
0.0
 11
22.280234832222437
 21
87.75471698113208
 31
0.0
  0
LINE
  5
28E
330
17
100
AcDbEntity
  8
TOP
100
AcDbLine
 10
22.280234832222437
 20
87.75471698113208
 30
0.0
 11
24.630799607021906
 21
86.38291371346895
 31
0.0
  0
LINE
  5
28F
330
17
100
AcDbEntity
  8
TOP
100
AcDbLine
 10
25.49972876547858
 20
86.38291371346895
 30
0.0
 11
27.850293540278045
 21
87.75471698113208
 31
0.0
  0
LINE
  5
290
330
17
100
AcDbEntity
  8
TOP
100
AcDbLine
 10
27.850293540278045
 20
87.75471698113208
 30
0.0
 11
30.200858315077515
 21
86.38291371346895
 31
0.0
  0
LINE
  5
291
330
17
100
AcDbEntity
  8
TOP
100
AcDbLine
 10
31.069787473534188
 20
86.38291371346895
 30
0.0
 11
33.42035224833366
 21
87.75471698113208
 31
0.0
  0
LINE
  5
292
330
17
100
AcDbEntity
  8
TOP
100
AcDbLine
 10
0.43446457922833753
 20
88.00555522290291
 30
0.0
 11
2.7850293540278046
 21
89.37735849056604
 31
0.0
  0
LINE
  5
293
330
17
100
AcDbEntity
  8
TOP
100
AcDbLine
 10
2.7850293540278046
 20
89.37735849056604
 30
0.0
 11
5.135594128827272
 21
88.00555522290291
 31
0.0
  0
LINE
  5
294
330
17
100
AcDbEntity
  8
TOP
100
AcDbLine
 10
6.004523287283947
 20
88.00555522290291
 30
0.0
 11
8.355088062083414
 21
89.37735849056604
 31
0.0
  0
LINE
  5
295
330
17
100
AcDbEntity
  8
TOP
100
AcDbLine
 10
8.355088062083414
 20
89.37735849056604
 30
0.0
 11
10.70565283688288
 21
88.00555522290291
 31
0.0
  0
LINE
  5
296
330
17
100
AcDbEntity
  8
TOP
100
AcDbLine
 10
11.574581995339557
 20
88.00555522290291
 30
0.0
 11
13.925146770139023
 21
89.37735849056604
 31
0.0
  0
LINE
  5
297
330
17
100
AcDbEntity
  8
TOP
100
AcDbLine
 10
13.925146770139023
 20
89.37735849056604
 30
0.0
 11
16.275711544938492
 21
88.00555522290291
 31
0.0
  0
LINE
  5
298
330
17
100
AcDbEntity
  8
TOP
100
AcDbLine
 10
17.144640703395165
 20
88.00555522290291
 30
0.0
 11
19.49520547819463
 21
89.37735849056604
 31
0.0
  0
LINE
  5
299
330
17
100
AcDbEntity
  8
TOP
100
AcDbLine
 10
19.49520547819463
 20
89.37735849056604
 30
0.0
 11
21.8457702529941
 21
88.00555522290291
 31
0.0
  0
LINE
  5
29A
330
17
100
AcDbEntity
  8
TOP
100
AcDbLine
 10
22.714699411450773
 20
88.00555522290291
 30
0.0
 11
25.065264186250243
 21
89.37735849056604
 31
0.0
  0
LINE
  5
29B
330
17
100
AcDbEntity
  8
TOP
100
AcDbLine
 10
25.065264186250243
 20
89.37735849056604
 30
0.0
 11
27.41582896104971
 21
88.00555522290291
 31
0.0
  0
LINE
  5
29C
330
17
100
AcDbEntity
  8
TOP
100
AcDbLine
 10
28.28475811950638
 20
88.00555522290291
 30
0.0
 11
30.63532289430585
 21
89.37735849056604
 31
0.0
  0
LINE
  5
29D
330
17
100
AcDbEntity
  8
TOP
100
AcDbLine
 10
30.63532289430585
 20
89.37735849056604
 30
0.0
 11
32.98588766910532
 21
88.00555522290291
 31
0.0
  0
LINE
  5
29E
330
17
100
AcDbEntity
  8
TOP
100
AcDbLine
 10
0.0
 20
91.0
 30
0.0
 11
2.350564774799467
 21
89.62819673233687
 31
0.0
  0
LINE
  5
29F
330
17
100
AcDbEntity
  8
TOP
100
AcDbLine
 10
3.219493933256142
 20
89.62819673233687
 30
0.0
 11
5.570058708055609
 21
91.0
 31
0.0
  0
LINE
  5
2A0
330
17
100
AcDbEntity
  8
TOP
100
AcDbLine
 10
5.570058708055609
 20
91.0
 30
0.0
 11
7.920623482855077
 21
89.62819673233687
 31
0.0
  0
LINE
  5
2A1
330
17
100
AcDbEntity
  8
TOP
100
AcDbLine
 10
8.789552641311753
 20
89.62819673233687
 30
0.0
 11
11.140117416111218
 21
91.0
 31
0.0
  0
LINE
  5
2A2
330
17
100
AcDbEntity
  8
TOP
100
AcDbLine
 10
11.140117416111218
 20
91.0
 30
0.0
 11
13.490682190910684
 21
89.62819673233687
 31
0.0
  0
LINE
  5
2A3
330
17
100
AcDbEntity
  8
TOP
100
AcDbLine
 10
14.359611349367361
 20
89.62819673233687
 30
0.0
 11
16.71017612416683
 21
91.0
 31
0.0
  0
LINE
  5
2A4
330
17
100
AcDbEntity
  8
TOP
100
AcDbLine
 10
16.71017612416683
 20
91.0
 30
0.0
 11
19.060740898966294
 21
89.62819673233687
 31
0.0
  0
LINE
  5
2A5
330
17
100
AcDbEntity
  8
TOP
100
AcDbLine
 10
19.929670057422967
 20
89.62819673233687
 30
0.0
 11
22.280234832222437
 21
91.0
 31
0.0
  0
LINE
  5
2A6
330
17
100
AcDbEntity
  8
TOP
100
AcDbLine
 10
22.280234832222437
 20
91.0
 30
0.0
 11
24.630799607021906
 21
89.62819673233687
 31
0.0
  0
LINE
  5
2A7
330
17
100
AcDbEntity
  8
TOP
100
AcDbLine
 10
25.49972876547858
 20
89.62819673233687
 30
0.0
 11
27.850293540278045
 21
91.0
 31
0.0
  0
LINE
  5
2A8
330
17
100
AcDbEntity
  8
TOP
100
AcDbLine
 10
27.850293540278045
 20
91.0
 30
0.0
 11
30.200858315077515
 21
89.62819673233687
 31
0.0
  0
LINE
  5
2A9
330
17
100
AcDbEntity
  8
TOP
100
AcDbLine
 10
31.069787473534188
 20
89.62819673233687
 30
0.0
 11
33.42035224833366
 21
91.0
 31
0.0
  0
POLYLINE
  5
2AA
330
17
100
AcDbEntity
  8
TOP
100
AcDb2dPolyline
 66
1
 10
0.0
 20
0.0
 30
0.0
 70
1
  0
VERTEX
  5
2AC
330
17
100
AcDbEntity
  8
TOP
100
AcDbVertex
100
AcDb2dVertex
 10
0.0
 20
0.0
 30
0.0
 70
0
  0
VERTEX
  5
2AD
330
17
100
AcDbEntity
  8
TOP
100
AcDbVertex
100
AcDb2dVertex
 10
0.0
 20
96.0
 30
0.0
 70
0
  0
VERTEX
  5
2AE
330
17
100
AcDbEntity
  8
TOP
100
AcDbVertex
100
AcDb2dVertex
 10
33.42035224833366
 20
96.0
 30
0.0
 70
0
  0
VERTEX
  5
2AF
330
17
100
AcDbEntity
  8
TOP
100
AcDbVertex
100
AcDb2dVertex
 10
33.42035224833366
 20
0.0
 30
0.0
 70
0
  0
SEQEND
  5
2AB
330
17
100
AcDbEntity
  8
TOP
  0
ENDSEC
  0
SECTION
  2
OBJECTS
  0
DICTIONARY
  5
A
330
0
100
AcDbDictionary
281
1
  3
ACAD_COLOR
350
B
  3
ACAD_GROUP
350
C
  3
ACAD_LAYOUT
350
D
  3
ACAD_MATERIAL
350
E
  3
ACAD_MLEADERSTYLE
350
F
  3
ACAD_MLINESTYLE
350
10
  3
ACAD_PLOTSETTINGS
350
11
  3
ACAD_PLOTSTYLENAME
350
12
  3
ACAD_SCALELIST
350
14
  3
ACAD_TABLESTYLE
350
15
  3
ACAD_VISUALSTYLE
350
16
  0
DICTIONARY
  5
B
330
A
100
AcDbDictionary
281
1
  0
DICTIONARY
  5
C
330
A
100
AcDbDictionary
281
1
  0
DICTIONARY
  5
D
330
A
100
AcDbDictionary
281
1
  3
Model
350
1A
  3
Layout1
350
1E
  0
DICTIONARY
  5
E
330
A
100
AcDbDictionary
281
1
  3
ByBlock
350
1F
  3
ByLayer
350
20
  3
Global
350
21
  0
DICTIONARY
  5
F
330
A
100
AcDbDictionary
281
1
  3
Standard
350
2C
  0
DICTIONARY
  5
10
330
A
100
AcDbDictionary
281
1
  3
Standard
350
22
  0
DICTIONARY
  5
11
330
A
100
AcDbDictionary
281
1
  0
ACDBDICTIONARYWDFLT
  5
12
330
A
100
AcDbDictionary
281
1
  3
Normal
350
13
100
AcDbDictionaryWithDefault
340
13
  0
ACDBPLACEHOLDER
  5
13
330
12
  0
DICTIONARY
  5
14
330
A
100
AcDbDictionary
281
1
  0
DICTIONARY
  5
15
330
A
100
AcDbDictionary
281
1
  0
DICTIONARY
  5
16
330
A
100
AcDbDictionary
281
1
  0
LAYOUT
  5
1A
330
D
100
AcDbPlotSettings
  1

  2
Adobe PDF
  4
A3
  6

 40
7.5
 41
20.0
 42
7.5
 43
20.0
 44
420.0
 45
297.0
 46
0.0
 47
0.0
 48
0.0
 49
0.0
140
0.0
141
0.0
142
1.0
143
1.0
 70
1024
 72
1
 73
1
 74
5
  7

 75
16
 76
0
 77
2
 78
300
147
1.0
148
0.0
149
0.0
100
AcDbLayout
  1
Model
 70
1
 71
0
 10
0.0
 20
0.0
 11
420.0
 21
297.0
 12
0.0
 22
0.0
 32
0.0
 14
1e+20
 24
1e+20
 34
1e+20
 15
-1e+20
 25
-1e+20
 35
-1e+20
146
0.0
 13
0.0
 23
0.0
 33
0.0
 16
1.0
 26
0.0
 36
0.0
 17
0.0
 27
1.0
 37
0.0
 76
1
330
17
  0
LAYOUT
  5
1E
330
D
100
AcDbPlotSettings
  1

  2
Adobe PDF
  4
A3
  6

 40
7.5
 41
20.0
 42
7.5
 43
20.0
 44
420.0
 45
297.0
 46
0.0
 47
0.0
 48
0.0
 49
0.0
140
0.0
141
0.0
142
1.0
143
1.0
 70
0
 72
1
 73
1
 74
5
  7

 75
16
 76
0
 77
2
 78
300
147
1.0
148
0.0
149
0.0
100
AcDbLayout
  1
Layout1
 70
1
 71
1
 10
0.0
 20
0.0
 11
420.0
 21
297.0
 12
0.0
 22
0.0
 32
0.0
 14
1e+20
 24
1e+20
 34
1e+20
 15
-1e+20
 25
-1e+20
 35
-1e+20
146
0.0
 13
0.0
 23
0.0
 33
0.0
 16
1.0
 26
0.0
 36
0.0
 17
0.0
 27
1.0
 37
0.0
 76
1
330
1B
  0
MATERIAL
  5
1F
102
{ACAD_REACTORS
330
E
102
}
330
E
100
AcDbMaterial
  1
ByBlock
  2

 70
0
 40
1.0
 71
1
 41
1.0
 91
-1023410177
 42
1.0
 72
1
  3

 73
1
 74
1
 75
1
 44
0.5
 73
0
 45
1.0
 46
1.0
 77
1
  4

 78
1
 79
1
170
1
 48
1.0
171
1
  6

172
1
173
1
174
1
140
1.0
141
1.0
175
1
  7

176
1
177
1
178
1
143
1.0
179
1
  8

270
1
271
1
272
1
145
1.0
146
1.0
273
1
  9

274
1
275
1
276
1
 42
1.0
 72
1
  3

 73
1
 74
1
 75
1
 94
63
  0
MATERIAL
  5
20
102
{ACAD_REACTORS
330
E
102
}
330
E
100
AcDbMaterial
  1
ByLayer
  2

 70
0
 40
1.0
 71
1
 41
1.0
 91
-1023410177
 42
1.0
 72
1
  3

 73
1
 74
1
 75
1
 44
0.5
 73
0
 45
1.0
 46
1.0
 77
1
  4

 78
1
 79
1
170
1
 48
1.0
171
1
  6

172
1
173
1
174
1
140
1.0
141
1.0
175
1
  7

176
1
177
1
178
1
143
1.0
179
1
  8

270
1
271
1
272
1
145
1.0
146
1.0
273
1
  9

274
1
275
1
276
1
 42
1.0
 72
1
  3

 73
1
 74
1
 75
1
 94
63
  0
MATERIAL
  5
21
102
{ACAD_REACTORS
330
E
102
}
330
E
100
AcDbMaterial
  1
Global
  2

 70
0
 40
1.0
 71
1
 41
1.0
 91
-1023410177
 42
1.0
 72
1
  3

 73
1
 74
1
 75
1
 44
0.5
 73
0
 45
1.0
 46
1.0
 77
1
  4

 78
1
 79
1
170
1
 48
1.0
171
1
  6

172
1
173
1
174
1
140
1.0
141
1.0
175
1
  7

176
1
177
1
178
1
143
1.0
179
1
  8

270
1
271
1
272
1
145
1.0
146
1.0
273
1
  9

274
1
275
1
276
1
 42
1.0
 72
1
  3

 73
1
 74
1
 75
1
 94
63
  0
MLINESTYLE
  5
22
102
{ACAD_REACTORS
330
10
102
}
330
10
100
AcDbMlineStyle
  2
Standard
 70
0
  3

 62
256
 51
90.0
 52
90.0
 71
2
 49
0.5
 62
256
  6
BYLAYER
 49
-0.5
 62
256
  6
BYLAYER
  0
MLEADERSTYLE
  5
2C
102
{ACAD_REACTORS
330
F
102
}
330
F
100
AcDbMLeaderStyle
179
2
170
2
171
1
172
0
 90
2
 40
0.0
 41
0.0
173
1
 91
-1056964608
 92
-2
290
1
 42
2.0
291
1
 43
8.0
  3
Standard
 44
4.0
300

342
29
174
1
175
1
176
0
178
1
 93
-1056964608
 45
4.0
292
0
297
0
 46
4.0
 94
-1056964608
 47
1.0
 49
1.0
140
1.0
294
1
141
0.0
177
0
142
1.0
295
0
296
0
143
3.75
271
0
272
9
273
9
  0
ENDSEC
  0
EOF
